<?xml version="1.0" encoding="utf-8"?>
<svg xmlns="http://www.w3.org/2000/svg" width="1000" height="600">
  <polyline points="412.253,370.098 414.357,369.152 416.423,368.222 418.497,367.291 420.563,366.361 422.635,365.44 424.716,364.501 426.802,363.57 428.858,362.651 430.95,361.705 433.044,360.786 435.111,359.851 437.166,358.925 439.25,358.001 441.304,357.067 443.396,356.138 445.457,355.209 447.517,354.293 449.587,353.35 451.706,352.408 453.765,351.48 455.835,350.536 457.931,349.605 460.011,348.671 462.066,347.725 464.121,346.791 466.201,345.852 468.276,344.908 470.333,343.967 472.392,343.018 474.49,342.044 476.565,341.085 478.625,340.133 480.649,339.187 482.693,338.227 484.765,337.259 486.817,336.276 488.905,335.299 490.954,334.316 492.992,333.343 495.031,332.371 497.08,331.38 499.111,330.41 501.165,329.417 503.218,328.421 505.303,327.41 507.341,326.42 509.386,325.42 511.42,324.416 513.432,323.415 515.472,322.393 517.522,321.325 519.501,320.246 521.47,319.077 523.404,317.789 525.239,316.373 526.993,314.771 528.606,312.99 529.964,311.133 531.032,309.295 531.875,307.474 532.529,305.664 533.031,303.823 533.387,301.92 533.574,299.928 533.579,297.764 533.361,295.456 532.911,293.081 532.271,290.812 531.462,288.62 530.518,286.516 529.467,284.51 528.336,282.573 527.135,280.648 525.914,278.732 524.663,276.808 523.415,274.91 522.172,273.036 520.91,271.139 519.652,269.242 518.402,267.345 517.153,265.44 515.924,263.538 514.698,261.625 513.488,259.726 512.266,257.799 511.05,255.893 509.821,253.987 508.567,252.085 507.255,250.205 505.877,248.372 504.414,246.594 502.863,244.897 501.205,243.271 499.466,241.744 497.706,240.359 495.859,239.063 494.026,237.91 492.227,236.9 490.377,235.974 488.469,235.126 486.528,234.374 484.516,233.709 482.397,233.118 480.243,232.62 478.007,232.228 475.728,231.945 473.467,231.766 471.199,231.694 468.928,231.683 466.651,231.709 464.379,231.741 462.139,231.767 459.843,231.748 457.605,231.668 455.359,231.506 453.079,231.251 450.926,230.92 448.819,230.503 446.732,229.993 444.675,229.387 442.604,228.67 440.543,227.844 438.525,226.917 436.566,225.903 434.698,224.823 432.885,223.661 431.13,222.427 429.443,221.121 427.789,219.726 426.209,218.272 424.682,216.731 423.213,215.109 421.807,213.417 420.5,211.691 419.249,209.889 418.081,208.053 416.994,206.159 415.989,204.212 415.036,202.167 414.167,200.065 413.401,197.964 412.72,195.796 412.12,193.585 411.619,191.327 411.195,189.063 410.859,186.799 410.582,184.528 410.385,182.277 410.216,180.019 410.065,177.759 409.927,175.503 409.797,173.261 409.66,171.039 409.502,168.778 409.321,166.535 409.123,164.327 408.869,162.129 408.589,159.91 408.284,157.677 407.93,155.46 407.565,153.265 407.149,151.062 406.711,148.868 406.242,146.681 405.735,144.483 405.198,142.271 404.632,140.101 404.048,137.947 403.42,135.767 402.758,133.569 402.073,131.389 401.369,129.217 400.64,127.064 399.88,124.924 399.113,122.782 398.3,120.632 397.481,118.506 396.645,116.373 395.789,114.26 394.915,112.178 394.045,110.143 393.113,107.993 392.182,105.899 391.274,103.873 390.328,101.794 389.356,99.714 388.433,97.677 387.491,95.633 386.503,93.526 385.539,91.467 384.594,89.431 383.623,87.378 382.631,85.261 381.676,83.204 380.726,81.194 379.757,79.126 378.778,77.041 377.818,74.995 376.839,72.915 375.867,70.845 374.913,68.809 373.957,66.799 372.985,64.727 371.993,62.629 371.014,60.563 370.026,58.49 369.021,56.406 368.025,54.376 366.967,52.316 365.849,50.305 364.628,48.349 363.266,46.462 361.699,44.663 359.908,43.048 357.941,41.742 355.891,40.807 353.79,40.228 351.707,40.0 349.752,40.087 347.979,40.413 346.385,40.917 344.948,41.563 343.548,42.389 342.188,43.422 340.842,44.726 339.554,46.32 338.356,48.255 337.362,50.383 336.581,52.607 335.991,54.902 335.582,57.184 335.321,59.474 335.177,61.753 335.136,64.056 335.182,66.358 335.298,68.617 335.469,70.88 335.681,73.152 335.899,75.395 336.125,77.642 336.354,79.91 336.566,82.136 336.777,84.434 336.948,86.681 337.109,88.948 337.248,91.195 337.363,93.459 337.454,95.723 337.539,98.017 337.604,100.261 337.663,102.507 337.715,104.755 337.759,107.022 337.798,109.289 337.841,111.531 337.87,113.839 337.907,116.123 337.939,118.352 337.959,120.619 338.001,122.897 338.018,125.168 338.057,127.426 338.065,129.715 338.11,131.969 338.114,134.256 338.151,136.518 338.176,138.797 338.203,141.035 338.223,143.263 338.242,145.585 338.271,147.926 338.29,150.139 338.325,152.353 338.344,154.697 338.38,157.018 338.388,159.305 338.414,161.536 338.444,163.79 338.467,166.061 338.488,168.36 338.514,170.569 338.54,172.835 338.551,175.144 338.599,177.436 338.618,179.702 338.644,181.96 338.658,184.257 338.689,186.539 338.697,188.78 338.732,191.014 338.756,193.243 338.781,195.548 338.798,197.892 338.824,200.143 338.843,202.367 338.869,204.598 338.887,206.893 338.917,209.26 338.947,211.469 338.942,213.777 338.981,215.987 338.999,218.244 339.018,220.475 339.054,222.837 339.057,225.102 339.091,227.316 339.113,229.58 339.131,231.872 339.163,234.161 339.195,236.44 339.221,238.7 339.233,240.977 339.263,243.303 339.285,245.562 339.306,247.807 339.333,250.059 339.349,252.296 339.396,254.577 339.391,256.838 339.411,259.145 339.444,261.443 339.483,263.754 339.481,265.988 339.524,268.281 339.53,270.531 339.565,272.771 339.577,275.06 339.599,277.246 339.646,279.526 339.637,281.822 339.669,284.155 339.691,286.395 339.703,288.674 339.741,290.98 339.756,293.221 339.791,295.426 339.791,297.681 339.827,299.918 339.849,302.22 339.894,304.533 339.916,306.768 339.937,309.11 339.974,311.421 339.979,313.649 340.001,315.929 340.058,318.267 340.038,320.498 340.084,322.728 340.11,324.934 340.111,327.293 340.129,329.665 340.124,331.876 340.148,334.142 340.183,336.353 340.191,338.61 340.198,340.816 340.211,343.203 340.249,345.349 340.225,347.698 340.272,350.027 340.262,352.257 340.303,354.472 340.317,356.694 340.28,359.051 340.334,361.255 340.352,363.487 340.325,365.84 340.342,368.176 340.372,370.455 340.351,372.62 340.338,374.872 340.358,377.17 340.361,379.451 340.349,381.696 340.353,384.008 340.331,386.218 340.351,388.466 340.291,390.797 340.336,393.016 340.321,395.279 340.294,397.657 340.311,399.879 340.291,402.151 340.281,404.508 340.276,406.839 340.257,409.151 340.239,411.433 340.234,413.708 340.222,415.915 340.209,418.2 340.194,420.495 340.185,422.775 340.156,425.091 340.168,427.4 340.161,429.65 340.193,431.904 340.283,434.197 340.499,436.504 340.931,438.832 341.713,441.105 342.975,443.245 344.381,444.69 345.517,445.452 346.637,445.988 348.3,446.415 350.361,446.344 352.494,445.656 354.539,444.695 356.591,443.783 358.764,443.095 360.973,442.748 362.918,442.742 364.451,442.931 366.016,443.333 368.013,444.117 370.047,445.347 371.865,446.852 373.435,448.518 374.903,450.324 376.232,452.147 377.506,453.997 378.761,455.928 379.964,457.85 381.156,459.725 382.319,461.577 383.565,463.491 384.849,465.363 386.062,467.095 387.423,468.936 388.817,470.706 390.166,472.41 391.601,474.122 393.074,475.824 394.541,477.474 396.07,479.092 397.676,480.754 399.271,482.345 400.807,483.814 402.462,485.346 404.148,486.868 405.874,488.334 407.641,489.799 409.377,491.169 411.059,492.481 412.909,493.842 414.706,495.122 416.576,496.41 418.45,497.644 420.382,498.886 422.282,500.059 424.232,501.218 426.195,502.328 428.134,503.42 430.042,504.482 432.062,505.54 434.04,506.544 435.993,507.501 438.063,508.507 440.11,509.466 442.232,510.434 444.353,511.361 446.489,512.255 448.532,513.123 450.612,513.989 452.73,514.826 454.917,515.702 457.077,516.506 459.042,517.238 461.276,518.078 463.453,518.896 465.518,519.65 467.659,520.396 469.726,521.14 471.873,521.926 474.059,522.69 476.21,523.448 478.335,524.204 480.365,524.889 482.481,525.624 484.777,526.428 486.954,527.195 489.125,527.924 491.253,528.656 493.341,529.404 495.491,530.104 497.546,530.783 499.812,531.545 501.922,532.209 504.142,532.979 506.365,533.709 508.494,534.389 510.629,535.051 512.859,535.787 514.922,536.392 516.989,537.069 519.17,537.758 521.43,538.43 523.585,539.065 525.818,539.742 528.044,540.404 530.184,541.026 532.357,541.686 534.624,542.274 536.716,542.919 538.82,543.478 540.98,544.074 543.265,544.696 545.437,545.264 547.546,545.835 549.749,546.387 551.992,546.948 554.346,547.562 556.475,548.047 558.478,548.532 560.743,549.095 563.111,549.609 565.284,550.124 567.51,550.622 569.777,551.119 571.974,551.625 574.146,552.061 576.288,552.543 578.617,553.014 580.784,553.422 582.978,553.887 585.376,554.337 587.636,554.734 589.778,555.057 591.896,555.498 594.267,555.873 596.536,556.144 598.715,556.528 601.089,556.846 603.402,557.154 605.444,557.387 607.831,557.645 610.062,557.949 612.28,558.154 614.559,558.401 616.821,558.633 619.108,558.866 621.34,559.092 623.519,559.285 625.971,559.531 628.156,559.703 630.347,559.838 632.755,559.964 635.156,560.0 637.489,559.917 639.752,559.735 642.059,559.404 644.362,558.955 646.591,558.357 648.671,557.625 650.571,556.79 652.306,555.847 654.083,554.706 655.685,553.514 657.173,552.139 658.531,550.705 659.73,549.21 660.824,547.617 661.835,545.907 662.72,544.096 663.537,542.114 664.121,540.138 664.553,538.069 664.801,535.963 664.864,533.792 664.736,531.614 664.429,529.509 663.894,527.363 663.239,525.349 662.394,523.338 661.396,521.464 660.259,519.676 659.018,517.973 657.558,516.286 655.957,514.681 654.151,513.129 652.318,511.831 650.471,510.706 648.578,509.709 646.485,508.799 644.317,508.031 642.131,507.442 639.878,506.995 637.622,506.676 635.258,506.505 632.947,506.469 630.659,506.573 628.426,506.771 626.177,507.078 623.899,507.497 621.629,507.991 619.416,508.567 617.156,509.129 615.11,509.74 613.045,510.311 610.924,510.977 608.702,511.625 606.542,512.345 604.353,513.036 602.011,513.826 599.767,514.518 597.893,515.206 595.808,515.834 593.595,516.561 591.338,517.291 589.202,518.009 586.944,518.706 584.734,519.345 582.734,519.929 580.439,520.559 578.163,521.109 575.948,521.697 573.807,522.171 571.657,522.602 569.431,523.017 567.109,523.406 564.762,523.722 562.753,523.93 560.573,524.121 558.349,524.266 555.937,524.294 553.93,524.313 551.586,524.214 548.988,524.034 546.982,523.808 544.737,523.495 542.356,523.116 540.144,522.59 537.899,522.097 535.684,521.419 533.534,520.742 531.656,520.078 529.205,519.078 527.162,518.185 525.262,517.271 522.983,516.025 521.051,514.901 519.276,513.763 517.436,512.504 515.887,511.315 514.275,510.066 512.536,508.498 511.008,507.13 509.466,505.513 507.778,503.71 506.164,501.841 504.761,500.139 503.326,498.299 501.988,496.469 500.63,494.537 499.377,492.645 498.246,490.753 497.091,488.656 496.099,486.594 495.313,484.436 494.713,482.077 494.46,479.637 494.564,477.611 494.782,476.161 495.162,474.912 495.801,473.362 496.867,471.567 498.364,469.763 500.096,468.181 501.973,466.867 503.997,465.754 506.009,464.85 508.148,463.999 510.243,463.144 512.283,462.183 514.281,461.071 516.11,459.847 517.79,458.43 519.232,456.978 520.458,455.427 521.619,453.695 522.561,451.954 523.413,449.995 524.104,447.892 524.602,445.619 524.79,443.195 524.69,440.842 524.369,438.583 523.815,436.413 523.1,434.207 522.26,432.05 521.356,430.076 520.251,428.045 518.926,426.046 517.341,424.176 515.768,422.627 514.166,421.376 512.562,420.291 510.824,419.321 508.936,418.467 506.922,417.724 504.648,417.178 502.383,416.861 500.132,416.772 497.732,416.877 495.285,417.218 493.036,417.749 490.815,418.353 488.744,419.062 486.61,419.869 484.446,420.799 482.309,421.771 480.268,422.857 478.2,423.9 476.263,425.052 474.306,426.222 472.375,427.452 470.49,428.713 468.545,430.026 466.678,431.328 464.876,432.546 463.001,433.854 461.125,435.174 459.268,436.435 457.24,437.807 455.312,439.054 453.588,440.124 451.69,441.255 449.522,442.446 447.464,443.508 445.383,444.548 443.474,445.387 441.409,446.193 438.979,447.063 436.949,447.695 434.778,448.214 432.277,448.701 430.336,448.986 427.967,449.195 425.433,449.294 423.456,449.27 421.446,449.144 419.091,448.88 417.328,448.627 415.558,448.266 413.343,447.726 411.519,447.194 409.462,446.468 407.214,445.523 405.138,444.564 403.055,443.465 401.021,442.297 399.116,441.016 397.337,439.732 395.466,438.33 393.453,436.647 391.857,435.198 390.418,433.881 388.628,432.18 386.912,430.597 385.448,429.22 383.843,427.69 381.95,425.971 380.343,424.468 378.637,422.839 376.992,421.234 375.49,419.687 373.877,417.835 372.372,415.908 370.999,413.843 369.77,411.61 368.916,409.628 368.215,407.339 367.801,405.02 367.703,402.756 367.891,400.682 368.256,398.994 368.762,397.384 369.52,395.628 370.598,393.732 372.032,391.794 373.623,390.061 375.383,388.473 377.154,387.109 379.089,385.812 381.073,384.626 383.028,383.559 384.977,382.576 386.88,381.667 388.82,380.763 390.872,379.823 392.938,378.863 395.147,377.847 397.4,376.829 399.729,375.784 401.772,374.717 404.156,373.484 406.034,372.632 407.086,372.156 409.004,371.288 412.253,370.098" fill="none" stroke="white" stroke-width="4"
            stroke-linejoin="round" stroke-linecap="round"/>
  <line x1="420.455" y1="388.339" x2="404.051" y2="351.857" stroke="red" stroke-width="3" stroke-linecap="round"/>
</svg>
