<?xml version="1.0" encoding="utf-8"?>
<svg xmlns="http://www.w3.org/2000/svg" width="1000" height="600">
  <polyline points="611.714,157.386 612.325,159.539 612.938,161.67 613.561,163.806 614.187,165.973 614.816,168.147 615.431,170.304 616.052,172.453 616.669,174.592 617.289,176.736 617.911,178.883 618.532,181.022 619.144,183.154 619.774,185.299 620.4,187.423 621.004,189.514 621.634,191.617 622.262,193.754 622.904,195.921 623.55,198.09 624.183,200.24 624.819,202.379 625.44,204.512 626.07,206.633 626.68,208.749 627.323,210.874 627.957,213.036 628.598,215.184 629.241,217.322 629.875,219.482 630.519,221.628 631.137,223.722 631.767,225.852 632.414,228.009 633.066,230.151 633.693,232.29 634.335,234.398 634.983,236.537 635.637,238.694 636.288,240.84 636.919,242.964 637.571,245.069 638.223,247.209 638.882,249.365 639.538,251.507 640.17,253.597 640.835,255.73 641.504,257.909 642.139,260.023 642.791,262.099 643.454,264.242 644.128,266.414 644.758,268.505 645.423,270.636 646.094,272.811 646.751,274.95 647.399,277.04 648.059,279.166 648.737,281.349 649.372,283.436 650.018,285.503 650.688,287.677 651.368,289.876 652.02,291.981 652.651,294.047 653.316,296.178 653.982,298.349 654.647,300.519 655.296,302.627 655.942,304.751 656.585,306.882 657.218,308.987 657.86,311.129 658.495,313.291 659.119,315.451 659.715,317.588 660.28,319.756 660.789,321.949 661.204,324.15 661.507,326.389 661.663,328.678 661.627,331.012 661.364,333.377 660.904,335.564 660.353,337.341 659.799,338.755 659.178,340.092 658.33,341.62 657.161,343.411 655.72,345.302 654.14,347.077 652.489,348.681 650.802,350.128 649.068,351.468 647.315,352.73 645.552,353.948 643.751,355.176 641.926,356.414 640.101,357.659 638.284,358.893 636.452,360.142 634.606,361.408 632.783,362.665 630.934,363.939 629.1,365.22 627.273,366.472 625.442,367.766 623.607,369.022 621.801,370.308 619.964,371.582 618.13,372.853 616.31,374.139 614.477,375.411 612.648,376.688 610.81,377.97 608.975,379.24 607.133,380.518 605.291,381.795 603.456,383.06 601.628,384.312 599.825,385.571 598.007,386.817 596.132,388.098 594.268,389.368 592.471,390.604 590.604,391.881 588.752,393.125 586.944,394.363 585.079,395.62 583.216,396.842 581.371,398.105 579.493,399.322 577.656,400.572 575.78,401.772 573.916,403.015 572.052,404.216 570.164,405.43 568.278,406.656 566.406,407.81 564.547,408.992 562.657,410.193 560.775,411.353 558.88,412.494 556.991,413.673 555.082,414.841 553.159,415.998 551.262,417.122 549.369,418.24 547.455,419.386 545.548,420.506 543.648,421.605 541.708,422.749 539.737,423.85 537.811,424.943 535.852,426.04 533.899,427.137 531.952,428.202 530.011,429.266 528.059,430.318 526.103,431.375 524.149,432.418 522.188,433.459 520.221,434.497 518.246,435.527 516.28,436.558 514.305,437.578 512.311,438.602 510.337,439.618 508.374,440.601 506.405,441.611 504.42,442.63 502.427,443.645 500.455,444.649 498.469,445.662 496.492,446.677 494.52,447.676 492.532,448.681 490.557,449.694 488.561,450.701 486.58,451.716 484.588,452.751 482.607,453.782 480.639,454.787 478.652,455.819 476.642,456.848 474.665,457.885 472.696,458.91 470.72,459.969 468.78,461.005 466.835,462.067 464.865,463.15 462.907,464.227 460.984,465.321 459.061,466.417 457.119,467.565 455.229,468.699 453.353,469.829 451.448,470.998 449.575,472.195 447.682,473.396 445.839,474.596 444.044,475.759 442.212,477.012 440.339,478.302 438.534,479.568 436.764,480.829 434.984,482.161 433.218,483.486 431.47,484.806 429.715,486.178 427.96,487.569 426.275,488.935 424.599,490.336 422.889,491.766 421.248,493.178 419.581,494.632 417.905,496.16 416.298,497.632 414.722,499.096 413.091,500.635 411.504,502.172 409.964,503.671 408.394,505.217 406.826,506.794 405.285,508.396 403.753,509.969 402.237,511.543 400.698,513.16 399.165,514.771 397.659,516.385 396.142,517.989 394.618,519.622 393.111,521.242 391.628,522.843 390.11,524.46 388.574,526.118 387.037,527.759 385.544,529.362 384.04,530.97 382.5,532.619 380.965,534.27 379.447,535.886 377.939,537.506 376.412,539.138 374.882,540.773 373.365,542.386 371.835,544.017 370.301,545.649 368.787,547.255 367.259,548.868 365.705,550.5 364.154,552.104 362.586,553.683 360.972,555.22 359.275,556.68 357.448,558.001 355.388,559.106 353.149,559.819 351.117,560.0 349.589,559.837 348.443,559.539 347.166,559.019 345.577,558.027 343.932,556.413 342.616,554.381 341.735,552.265 341.142,550.097 340.728,547.891 340.4,545.684 340.115,543.472 339.856,541.24 339.619,538.999 339.394,536.764 339.196,534.545 339.006,532.334 338.842,530.128 338.693,527.85 338.57,525.613 338.483,523.382 338.41,521.139 338.36,518.926 338.339,516.681 338.337,514.441 338.352,512.202 338.409,509.97 338.48,507.737 338.558,505.497 338.656,503.273 338.753,501.055 338.859,498.812 339.0,496.586 339.115,494.367 339.276,492.125 339.42,489.897 339.574,487.691 339.738,485.469 339.919,483.282 340.099,481.045 340.295,478.845 340.493,476.636 340.708,474.437 340.932,472.216 341.158,470.013 341.4,467.825 341.636,465.611 341.901,463.415 342.154,461.256 342.405,459.059 342.694,456.837 342.98,454.663 343.259,452.459 343.562,450.244 343.863,448.023 344.185,445.84 344.479,443.671 344.807,441.491 345.127,439.306 345.44,437.087 345.775,434.866 346.094,432.629 346.417,430.455 346.72,428.271 347.034,426.057 347.366,423.864 347.66,421.719 347.973,419.503 348.293,417.247 348.615,415.044 348.929,412.812 349.256,410.547 349.563,408.374 349.862,406.207 350.185,404.003 350.488,401.809 350.815,399.569 351.117,397.346 351.445,395.134 351.766,392.916 352.06,390.7 352.389,388.458 352.704,386.275 353.006,384.082 353.306,381.931 353.607,379.746 353.933,377.515 354.25,375.308 354.542,373.137 354.866,370.918 355.17,368.677 355.505,366.449 355.795,364.239 356.1,362.059 356.424,359.835 356.705,357.689 357.013,355.524 357.311,353.301 357.6,351.024 357.892,348.881 358.146,346.737 358.424,344.466 358.685,342.228 358.93,340.026 359.191,337.736 359.384,335.542 359.615,333.334 359.808,331.131 359.956,328.889 360.091,326.717 360.235,324.533 360.367,322.33 360.486,320.103 360.572,317.869 360.647,315.658 360.722,313.438 360.789,311.221 360.838,308.996 360.873,306.801 360.929,304.48 360.973,302.3 360.992,300.135 361.008,297.921 361.056,295.648 361.055,293.375 361.066,291.244 361.091,289.055 361.125,286.756 361.124,284.505 361.134,282.267 361.148,279.968 361.163,277.756 361.166,275.573 361.184,273.36 361.192,271.112 361.209,268.838 361.225,266.591 361.242,264.382 361.266,262.171 361.295,259.892 361.338,257.652 361.396,255.411 361.481,253.176 361.619,250.92 361.855,248.66 362.213,246.48 362.757,244.216 363.504,241.972 364.42,239.889 365.493,238.017 366.726,236.35 368.084,234.906 369.521,233.71 371.056,232.702 372.675,231.874 374.393,231.226 376.21,230.766 378.165,230.506 380.301,230.465 382.527,230.658 384.821,231.095 387.046,231.747 389.155,232.578 391.202,233.575 393.203,234.707 395.097,235.911 396.918,237.196 398.732,238.591 400.501,240.058 402.182,241.561 403.838,243.154 405.437,244.814 406.976,246.518 408.422,248.214 409.833,250.006 411.159,251.797 412.465,253.669 413.713,255.58 414.876,257.532 415.949,259.469 416.999,261.464 417.966,263.478 418.891,265.53 419.768,267.605 420.593,269.696 421.303,271.717 422.009,273.883 422.657,276.044 423.246,278.259 423.829,280.38 424.297,282.438 424.72,284.606 425.142,286.838 425.485,288.999 425.797,291.11 426.073,293.254 426.299,295.387 426.501,297.552 426.607,299.815 426.716,302.017 426.716,304.172 426.737,306.346 426.682,308.538 426.611,310.674 426.484,312.865 426.317,315.031 426.118,317.228 425.856,319.448 425.589,321.671 425.252,323.783 424.983,325.977 424.616,328.178 424.23,330.463 423.843,332.698 423.475,334.876 423.069,336.965 422.696,339.147 422.313,341.357 421.911,343.593 421.529,345.839 421.131,348.109 420.77,350.242 420.441,352.309 420.091,354.6 419.749,356.753 419.405,359.065 419.095,361.29 418.794,363.454 418.536,365.635 418.295,367.793 418.102,370.044 417.969,372.316 417.916,374.57 417.945,376.89 418.057,379.09 418.261,381.357 418.588,383.693 419.009,385.975 419.511,388.102 420.107,390.114 420.845,392.195 421.709,394.263 422.7,396.266 423.755,398.117 424.897,399.859 426.126,401.533 427.473,403.161 428.926,404.698 430.429,406.127 432.02,407.471 433.696,408.745 435.424,409.905 437.298,410.979 439.17,411.921 441.091,412.762 443.072,413.458 445.031,414.029 447.039,414.497 449.031,414.838 451.142,415.066 453.276,415.182 455.475,415.193 457.679,415.075 459.807,414.849 462.15,414.497 464.318,414.057 466.518,413.516 468.668,412.89 470.758,412.168 472.895,411.343 474.958,410.454 476.996,409.482 478.923,408.493 480.881,407.422 482.788,406.342 484.709,405.211 486.627,404.034 488.593,402.839 490.445,401.683 492.322,400.548 494.217,399.417 496.112,398.257 498.008,397.131 499.869,396.007 501.791,394.887 503.75,393.718 505.745,392.546 507.579,391.457 509.534,390.269 511.432,389.09 513.213,387.92 515.083,386.618 516.858,385.285 518.636,383.827 520.315,382.311 521.987,380.641 523.569,378.869 524.92,377.192 526.199,375.412 527.383,373.524 528.505,371.493 529.4,369.588 530.199,367.66 530.88,365.73 531.451,363.729 531.933,361.577 532.281,359.48 532.502,357.38 532.613,355.216 532.613,353.098 532.514,351.165 532.299,349.127 531.955,346.975 531.513,344.951 530.961,342.933 530.304,340.927 529.504,338.878 528.605,336.88 527.669,335.056 526.573,333.168 525.281,331.206 523.888,329.29 522.418,327.46 521.049,325.917 519.45,324.274 517.897,322.785 516.202,321.275 514.455,319.758 512.853,318.365 511.462,317.142 509.721,315.55 508.042,313.981 506.599,312.486 505.174,310.942 503.741,309.346 502.334,307.685 500.993,305.989 499.74,304.336 498.449,302.522 497.097,300.595 496.05,298.952 495.014,297.095 493.846,295.142 492.795,293.253 491.866,291.259 490.945,289.384 490.047,287.346 489.178,285.34 488.469,283.382 487.703,281.143 486.867,278.912 486.292,276.959 485.749,274.947 485.101,272.608 484.607,270.557 484.147,268.329 483.686,266.119 483.303,263.862 482.925,261.591 482.576,259.448 482.317,257.216 482.072,255.079 481.856,252.866 481.644,250.502 481.458,248.352 481.357,246.282 481.159,243.906 481.132,241.664 481.051,239.494 480.94,237.072 480.879,234.883 480.905,232.995 480.759,230.512 480.786,228.313 480.741,226.272 480.667,223.761 480.612,221.516 480.601,219.557 480.522,217.229 480.423,214.861 480.428,212.887 480.296,210.516 480.226,208.214 480.189,206.117 480.04,203.888 480.04,201.557 479.935,199.438 479.804,197.189 479.767,194.932 479.666,192.711 479.493,190.478 479.489,188.221 479.4,186.048 479.229,183.677 479.214,181.609 479.035,179.344 478.979,177.261 478.861,174.964 478.731,172.697 478.645,170.522 478.562,168.284 478.406,165.981 478.338,163.744 478.166,161.62 478.035,159.334 477.991,157.006 477.798,154.783 477.702,152.664 477.642,150.51 477.428,148.325 477.362,145.974 477.195,143.731 477.054,141.508 476.984,139.289 476.823,137.082 476.685,134.831 476.625,132.631 476.396,130.408 476.335,128.049 476.184,125.9 476.04,123.752 475.952,121.442 475.792,119.29 475.691,117.004 475.572,114.884 475.443,112.533 475.341,110.284 475.226,108.108 475.137,106.092 475.062,103.652 474.996,101.524 475.007,99.334 475.043,96.797 475.16,94.71 475.376,92.448 475.677,90.191 476.082,87.873 476.605,85.59 477.153,83.599 477.893,81.359 478.718,79.186 479.504,77.388 480.408,75.522 481.448,73.618 482.58,71.757 483.578,70.244 484.841,68.483 486.265,66.707 487.446,65.356 488.892,63.833 490.586,62.222 492.357,60.681 493.883,59.453 495.575,58.208 497.645,56.834 499.816,55.516 501.833,54.448 503.594,53.568 505.686,52.657 508.093,51.747 509.926,51.035 511.673,50.498 514.107,49.706 516.549,48.939 518.186,48.454 520.348,47.76 522.706,47.016 525.049,46.297 526.61,45.768 528.938,45.033 531.379,44.245 533.196,43.661 535.093,43.071 537.381,42.369 539.937,41.633 542.067,41.086 544.09,40.648 546.198,40.308 548.512,40.079 550.814,40.0 553.313,40.108 555.494,40.378 557.305,40.699 559.048,41.119 560.941,41.718 562.772,42.41 564.498,43.226 566.381,44.281 568.293,45.503 570.225,46.93 571.877,48.304 573.434,49.766 575.043,51.474 576.442,53.138 577.946,55.132 579.21,56.974 580.482,58.987 581.619,60.946 582.688,62.916 583.823,65.17 584.634,66.899 585.529,68.923 586.365,70.935 587.359,73.494 588.097,75.493 588.703,77.206 589.46,79.491 590.209,81.832 590.872,84.081 591.459,86.038 592.028,88.072 592.707,90.519 593.181,92.446 593.85,94.903 594.422,96.964 594.897,98.85 595.571,101.298 596.268,103.736 596.523,105.165 597.208,107.166 598.032,110.123 598.584,112.269 599.085,113.734 599.664,116.141 600.067,117.677 600.848,120.458 601.651,123.311 601.999,124.545 602.701,127.031 603.123,128.526 603.929,131.372 604.717,134.15 605.052,135.334 605.777,137.883 606.477,140.343 606.872,141.731 607.653,144.471 607.979,145.61 608.634,147.901 609.473,150.828 609.874,152.226 610.075,152.926 611.714,157.386" fill="none" stroke="white" stroke-width="4"
            stroke-linejoin="round" stroke-linecap="round"/>
</svg>
