<?xml version="1.0" encoding="utf-8"?>
<svg xmlns="http://www.w3.org/2000/svg" width="1000" height="600">
  <polyline points="425.32,112.13 424.611,110.345 423.933,108.613 423.233,106.827 422.536,105.045 421.856,103.309 421.182,101.598 420.483,99.835 419.783,98.064 419.066,96.269 418.384,94.491 417.703,92.799 417.038,91.091 416.332,89.31 415.632,87.506 414.931,85.737 414.232,83.988 413.546,82.243 412.864,80.515 412.157,78.725 411.465,76.994 410.775,75.227 410.086,73.502 409.381,71.742 408.705,69.993 407.997,68.254 407.271,66.421 406.569,64.651 405.877,62.923 405.166,61.148 404.472,59.402 403.761,57.639 403.034,55.854 402.33,54.127 401.613,52.376 400.875,50.647 400.101,48.925 399.226,47.22 398.214,45.578 396.994,44.024 395.58,42.68 394.186,41.689 392.873,40.994 391.466,40.48 389.824,40.134 387.929,40.0 385.972,40.09 384.071,40.382 382.219,40.83 380.409,41.375 378.592,41.998 376.818,42.666 375.07,43.375 373.312,44.124 371.591,44.884 369.856,45.665 368.139,46.451 366.432,47.239 364.728,48.023 363.019,48.812 361.321,49.591 359.622,50.37 357.884,51.148 356.149,51.938 354.439,52.696 352.729,53.448 350.994,54.209 349.261,54.964 347.516,55.723 345.8,56.458 344.078,57.197 342.323,57.949 340.598,58.681 338.864,59.414 337.138,60.15 335.392,60.881 333.626,61.627 331.893,62.359 330.128,63.108 328.371,63.848 326.638,64.576 324.898,65.316 323.163,66.065 321.424,66.842 319.709,67.693 318.076,68.689 316.553,69.945 315.352,71.36 314.622,72.625 314.143,73.972 313.886,75.762 313.95,77.748 314.292,79.637 314.797,81.453 315.407,83.241 316.066,85.008 316.744,86.754 317.434,88.492 318.13,90.246 318.838,92.013 319.537,93.754 320.235,95.503 320.934,97.266 321.633,99.005 322.32,100.752 323.019,102.503 323.714,104.256 324.405,106.018 325.095,107.789 325.786,109.551 326.469,111.303 327.162,113.047 327.846,114.8 328.534,116.542 329.237,118.304 329.928,120.052 330.618,121.799 331.318,123.557 332.024,125.331 332.711,127.07 333.409,128.821 334.103,130.588 334.805,132.334 335.495,134.072 336.19,135.832 336.885,137.585 337.573,139.308 338.283,141.068 338.985,142.851 339.688,144.632 340.389,146.378 341.083,148.117 341.777,149.845 342.486,151.624 343.187,153.368 343.894,155.103 344.604,156.863 345.309,158.594 346.018,160.366 346.745,162.109 347.45,163.854 348.15,165.564 348.875,167.306 349.598,169.077 350.317,170.82 351.047,172.556 351.774,174.33 352.499,176.054 353.231,177.79 353.955,179.556 354.7,181.277 355.418,183.02 356.149,184.761 356.876,186.502 357.617,188.233 358.33,189.964 359.073,191.707 359.802,193.458 360.539,195.178 361.281,196.914 362.01,198.653 362.744,200.387 363.493,202.136 364.227,203.869 364.958,205.606 365.695,207.343 366.429,209.051 367.16,210.798 367.906,212.537 368.649,214.286 369.384,216.029 370.118,217.762 370.848,219.49 371.586,221.227 372.31,222.933 373.045,224.67 373.791,226.458 374.55,228.231 375.276,229.961 375.991,231.658 376.717,233.377 377.448,235.115 378.194,236.886 378.933,238.644 379.657,240.367 380.388,242.094 381.11,243.825 381.86,245.579 382.591,247.336 383.331,249.085 384.069,250.829 384.803,252.58 385.532,254.304 386.285,256.085 387.022,257.814 387.761,259.567 388.504,261.3 389.254,263.028 390.036,264.775 390.85,266.493 391.765,268.173 392.842,269.77 394.122,271.203 395.464,272.313 396.708,273.039 398.123,273.539 399.94,273.824 401.891,273.829 403.795,273.594 405.661,273.18 407.498,272.644 409.261,272.046 411.024,271.377 412.79,270.638 414.536,269.849 416.238,269.038 417.924,268.194 419.607,267.324 421.272,266.441 422.93,265.544 424.629,264.639 426.292,263.76 427.959,262.897 429.644,262.057 431.37,261.237 433.135,260.442 434.836,259.689 436.577,258.936 438.332,258.188 440.094,257.473 441.868,256.804 443.683,256.249 445.617,255.919 447.453,255.932 448.918,256.226 450.217,256.747 451.662,257.67 453.065,258.997 454.248,260.561 455.205,262.177 456.027,263.856 456.782,265.599 457.472,267.342 458.148,269.112 458.786,270.854 459.437,272.638 460.086,274.441 460.72,276.213 461.36,277.969 461.999,279.746 462.618,281.49 463.28,283.296 463.925,285.056 464.583,286.839 465.265,288.603 465.923,290.327 466.648,292.076 467.393,293.853 468.154,295.589 468.93,297.334 469.727,299.064 470.536,300.76 471.375,302.458 472.199,304.119 473.067,305.772 473.936,307.435 474.846,309.108 475.782,310.784 476.697,312.397 477.624,313.998 478.616,315.677 479.599,317.305 480.61,318.94 481.659,320.55 482.754,322.105 483.959,323.606 485.303,325.014 486.811,326.263 488.397,327.194 489.952,327.767 491.46,328.05 492.974,328.073 494.545,327.835 496.191,327.339 497.949,326.677 499.779,326.135 501.668,325.893 503.178,325.963 504.47,326.259 506.024,326.929 507.641,328.006 509.048,329.314 510.264,330.745 511.388,332.271 512.449,333.811 513.514,335.385 514.556,336.926 515.593,338.448 516.658,340.014 517.714,341.547 518.796,343.136 519.892,344.699 520.964,346.228 522.012,347.727 523.122,349.294 524.243,350.881 525.33,352.379 526.447,353.916 527.52,355.387 528.63,356.879 529.766,358.417 530.873,359.919 532.056,361.465 533.222,363.007 534.301,364.425 535.389,365.875 536.591,367.434 537.773,368.981 538.894,370.412 540.041,371.927 541.185,373.378 542.333,374.86 543.53,376.406 544.688,377.887 545.798,379.318 546.913,380.759 548.098,382.285 549.338,383.866 550.532,385.389 551.681,386.864 552.797,388.3 554.006,389.845 555.171,391.334 556.331,392.821 557.494,394.315 558.652,395.816 559.795,397.349 560.845,398.894 561.775,400.664 562.302,402.34 562.419,403.785 562.157,405.331 561.401,406.898 560.177,408.271 558.609,409.354 556.909,410.155 555.143,410.806 553.355,411.373 551.56,411.882 549.734,412.351 547.913,412.789 546.051,413.216 544.168,413.626 542.346,414.015 540.518,414.416 538.635,414.837 536.844,415.254 534.982,415.727 533.12,416.234 531.326,416.753 529.618,417.258 527.746,417.828 525.922,418.408 524.131,418.989 522.288,419.634 520.545,420.348 518.86,421.245 517.295,422.362 516.135,423.451 515.139,424.679 514.21,426.239 513.445,427.909 512.801,429.682 512.316,431.477 512.003,433.248 511.818,435.072 511.666,436.959 511.457,438.846 511.094,440.702 510.529,442.436 509.78,443.914 508.894,445.149 507.816,446.25 506.426,447.287 504.814,448.188 503.094,448.996 501.397,449.842 499.798,450.876 498.395,452.145 497.413,453.409 496.774,454.575 496.231,456.056 495.857,457.981 495.81,459.932 496.004,461.83 496.348,463.679 496.791,465.473 497.309,467.261 497.899,469.105 498.524,470.919 499.147,472.632 499.838,474.423 500.516,476.137 501.264,477.954 502.01,479.621 502.755,481.363 503.565,483.177 504.343,484.853 505.092,486.511 505.867,488.197 506.659,489.978 507.455,491.705 508.257,493.492 509.068,495.251 509.845,496.958 510.575,498.574 511.322,500.208 512.094,501.894 512.854,503.575 513.642,505.274 514.404,506.976 515.227,508.746 516.05,510.491 516.861,512.219 517.681,513.931 518.462,515.526 519.333,517.276 520.236,519.016 521.132,520.716 522.021,522.369 522.944,524.014 523.918,525.71 524.875,527.305 525.86,528.885 526.864,530.414 527.923,531.942 529.111,533.548 530.239,534.965 531.428,536.365 532.714,537.777 534.04,539.145 535.36,540.414 536.679,541.611 538.046,542.765 539.462,543.881 541.007,544.985 542.432,545.937 544.018,546.931 545.698,547.917 547.476,548.869 549.177,549.702 550.757,550.433 552.459,551.134 554.208,551.843 555.973,552.479 557.932,553.155 559.792,553.754 561.497,554.31 563.358,554.879 565.192,555.411 566.832,555.889 568.625,556.349 570.589,556.861 572.505,557.311 574.365,557.714 576.102,558.11 577.942,558.411 579.973,558.758 581.877,558.997 583.587,559.256 585.52,559.47 587.363,559.671 589.078,559.768 590.876,559.896 592.727,559.972 594.599,560.0 596.415,559.995 598.37,559.985 600.367,559.928 602.146,559.876 603.823,559.839 605.839,559.773 607.838,559.766 609.692,559.711 611.387,559.705 613.498,559.684 615.38,559.663 617.179,559.67 619.167,559.675 620.922,559.665 622.778,559.668 624.813,559.66 626.856,559.659 628.786,559.656 630.576,559.647 632.446,559.646 634.43,559.64 636.322,559.641 638.118,559.62 639.965,559.556 641.928,559.325 643.78,558.85 645.286,558.218 646.636,557.428 648.086,556.327 649.41,554.97 650.498,553.426 651.447,551.795 652.353,550.135 653.209,548.495 654.056,546.834 654.901,545.164 655.753,543.466 656.586,541.844 657.445,540.141 658.31,538.478 659.105,536.942 659.994,535.255 660.896,533.577 661.778,531.864 662.653,530.223 663.503,528.585 664.444,526.82 665.344,525.147 666.208,523.549 667.086,521.875 667.941,520.279 668.797,518.714 669.709,517.0 670.639,515.292 671.511,513.703 672.395,512.081 673.381,510.332 674.253,508.724 675.176,507.089 676.093,505.448 677.079,503.699 677.953,502.132 678.873,500.499 679.794,498.853 680.737,497.147 681.621,495.533 682.529,493.84 683.423,492.138 684.28,490.387 685.012,488.667 685.614,486.815 686.004,484.872 686.114,482.898 685.967,481.232 685.638,479.814 685.05,478.266 684.248,476.783 683.189,475.315 681.835,473.868 680.368,472.635 678.792,471.567 677.234,470.684 675.5,469.844 673.678,469.064 671.918,468.369 670.18,467.694 668.379,467.018 666.662,466.351 664.94,465.689 663.28,465.021 661.474,464.266 659.732,463.521 657.886,462.695 656.195,461.915 654.59,461.132 652.977,460.271 651.264,459.328 649.618,458.364 648.033,457.357 646.661,456.445 645.117,455.335 643.597,454.144 642.274,453.054 640.889,451.841 639.572,450.588 638.193,449.245 636.908,447.867 635.62,446.462 634.473,445.189 633.305,443.799 631.871,442.153 630.671,440.733 629.451,439.314 628.288,437.934 627.134,436.578 625.817,435.031 624.591,433.579 623.439,432.238 622.139,430.698 620.824,429.197 619.764,427.947 618.514,426.512 617.116,424.948 615.875,423.569 614.652,422.245 613.318,420.895 612.021,419.634 610.663,418.393 609.126,417.11 607.53,415.871 606.114,414.859 604.486,413.778 602.928,412.845 601.347,411.968 599.751,411.15 598.1,410.396 596.484,409.72 594.768,409.071 593.095,408.532 591.26,407.964 589.475,407.498 587.602,407.022 585.656,406.582 583.97,406.164 581.954,405.651 580.189,405.164 578.62,404.676 576.594,403.961 574.79,403.256 573.221,402.567 571.329,401.657 569.754,400.83 568.353,400.013 566.644,398.95 565.206,397.993 563.779,396.934 562.401,395.852 560.975,394.665 559.512,393.299 558.231,392.102 556.889,390.702 555.606,389.279 554.267,387.754 553.143,386.359 552.004,384.899 550.763,383.31 549.722,381.886 548.632,380.417 547.482,378.872 546.288,377.259 545.213,375.791 544.071,374.278 543.056,372.881 541.859,371.275 540.723,369.739 539.556,368.127 538.549,366.749 537.326,365.17 536.344,363.755 535.167,362.178 533.978,360.584 532.949,359.085 531.829,357.607 530.676,356.093 529.694,354.579 528.423,352.913 527.426,351.486 526.419,349.999 525.14,348.209 524.161,346.812 523.109,345.173 522.041,343.693 520.994,342.054 519.996,340.559 518.911,338.921 517.946,337.31 516.966,335.823 515.996,334.197 515.053,332.683 514.081,330.951 513.196,329.375 512.311,327.799 511.342,325.956 510.607,324.535 509.554,322.487 508.952,321.154 508.018,319.205 507.29,317.682 506.556,316.008 505.648,313.909 505.122,312.678 504.235,310.635 503.543,308.881 502.856,307.292 502.074,305.455 501.368,303.664 500.582,301.908 500.047,300.262 499.241,298.637 498.475,296.637 497.845,295.017 497.104,293.325 496.398,291.408 495.651,289.682 494.902,287.91 494.294,286.382 493.613,284.575 492.811,282.801 492.146,281.021 491.416,279.255 490.655,277.482 490.031,275.624 489.21,274.107 488.607,272.229 487.85,270.523 487.101,268.67 486.525,267.132 485.606,265.091 485.173,263.668 484.329,261.927 483.733,260.089 482.958,258.368 482.172,256.515 481.61,254.965 480.702,252.767 480.174,251.368 479.357,249.414 478.668,247.764 478.025,246.049 477.314,244.417 476.749,242.771 475.849,240.624 475.316,239.172 474.501,237.283 473.697,235.378 473.157,233.83 472.421,232.179 471.753,230.185 470.866,228.224 470.369,226.682 469.599,224.834 468.927,223.231 468.256,221.435 467.539,219.809 467.006,218.026 466.137,216.175 465.463,214.432 464.864,212.629 463.876,210.851 463.522,209.194 462.622,207.445 462.026,205.546 461.248,203.862 460.622,202.139 459.875,200.511 459.268,198.662 458.54,197.198 457.948,195.3 457.09,193.569 456.416,191.563 455.725,190.021 454.989,188.199 454.226,186.32 453.615,184.665 452.92,182.922 452.129,181.081 451.457,179.243 450.935,177.871 450.178,175.887 449.436,173.725 448.895,172.74 448.131,170.499 447.467,169.058 446.802,167.14 446.032,165.183 445.334,163.549 444.827,161.925 443.954,160.04 443.349,158.272 442.569,156.311 441.97,155.105 441.418,153.344 440.374,151.027 440.031,149.654 439.063,147.429 438.69,146.263 437.789,144.073 437.349,143.069 436.465,140.788 435.572,138.74 435.238,137.424 434.26,135.119 433.93,133.927 433.01,131.846 432.177,129.878 431.919,128.896 430.884,126.452 430.377,124.542 430.304,125.278 429.224,121.598 428.256,119.126 427.979,118.42 427.125,116.243 426.11,113.654 425.32,112.13" fill="none" stroke="white" stroke-width="4"
            stroke-linejoin="round" stroke-linecap="round"/>
</svg>
