<?xml version="1.0" encoding="utf-8"?>
<svg xmlns="http://www.w3.org/2000/svg" width="1000" height="600">
  <polyline points="676.275,516.124 680.332,515.117 684.636,514.029 688.66,513.031 692.822,511.984 696.877,510.972 700.949,509.947 705.123,508.951 709.212,507.816 713.348,506.969 717.478,505.801 721.603,504.863 725.677,503.775 729.844,502.734 733.995,501.711 738.032,500.619 742.162,499.683 746.283,498.596 750.343,497.569 754.493,496.543 758.531,495.497 762.702,494.47 766.867,493.438 770.972,492.471 775.097,491.296 779.17,490.398 783.346,489.245 787.514,488.294 791.643,487.166 795.639,486.18 799.79,485.096 803.947,484.089 807.992,483.117 812.244,481.885 816.434,480.889 820.536,479.846 824.608,478.749 828.73,477.725 832.942,476.61 837.105,475.5 841.107,474.474 845.312,473.312 849.526,472.188 853.61,470.98 857.723,469.783 861.86,468.512 865.93,467.165 869.98,465.689 874.097,464.088 878.099,462.375 882.02,460.439 885.852,458.326 889.566,455.991 893.136,453.413 896.527,450.572 899.596,447.488 902.3,444.243 904.636,440.666 906.469,436.984 907.807,433.273 908.701,429.565 909.143,425.921 909.117,422.357 908.676,418.912 907.905,415.573 906.906,412.364 905.592,409.158 903.846,405.887 901.664,402.649 899.132,399.569 896.365,396.559 893.555,393.46 890.85,390.209 888.29,386.794 885.968,383.189 883.956,379.456 882.292,375.747 881.006,372.135 880.017,368.697 879.296,365.33 878.776,361.853 878.403,358.25 878.253,354.493 878.358,350.556 878.763,346.378 879.506,341.938 880.511,337.65 881.704,333.454 883.059,329.415 884.532,325.552 886.131,321.67 887.783,317.934 889.386,314.241 890.922,310.447 892.343,306.658 893.572,302.853 894.675,299.078 895.683,295.042 896.527,290.948 897.18,286.928 897.697,283.008 898.031,279.055 898.255,275.02 898.281,270.9 898.176,266.772 897.881,262.646 897.467,258.593 896.906,254.632 896.159,250.57 895.26,246.486 894.247,242.543 893.038,238.537 891.673,234.619 890.175,230.721 888.556,226.92 886.783,223.259 884.946,219.589 882.894,215.969 880.759,212.444 878.472,209.037 876.155,205.687 873.598,202.421 870.96,199.144 868.223,196.063 865.397,193.0 862.444,190.065 859.408,187.215 856.235,184.393 853.037,181.719 849.756,179.116 846.363,176.618 842.912,174.192 839.413,171.918 835.829,169.637 832.13,167.499 828.341,165.386 824.557,163.438 820.693,161.536 816.771,159.68 812.81,157.999 808.855,156.383 804.717,154.791 800.709,153.413 796.772,152.088 792.705,150.736 788.627,149.535 784.367,148.338 780.296,147.167 776.209,146.058 772.092,144.973 767.982,143.972 763.846,142.903 759.706,141.851 755.618,140.864 751.345,139.811 747.263,138.856 743.13,137.875 738.957,136.914 734.879,135.952 730.815,134.981 726.718,133.998 722.533,133.018 718.463,132.038 714.284,131.092 710.236,130.089 706.073,129.054 701.857,127.996 697.783,126.997 693.65,125.967 689.536,124.929 685.576,123.936 681.378,122.848 677.274,121.852 673.132,120.762 669.011,119.756 664.897,118.646 660.692,117.611 656.459,116.51 652.414,115.54 648.353,114.376 644.263,113.365 640.072,112.29 635.966,111.217 631.886,110.161 627.805,109.163 623.649,108.007 619.438,106.971 615.349,105.88 611.385,104.886 607.154,103.763 602.986,102.67 598.871,101.635 594.923,100.622 590.798,99.536 586.57,98.397 582.485,97.405 578.337,96.317 574.215,95.272 570.121,94.149 566.041,93.213 561.952,92.091 557.801,90.991 553.593,89.914 549.666,88.906 545.47,87.815 541.396,86.762 537.265,85.705 533.168,84.622 529.072,83.61 524.851,82.528 520.844,81.408 516.857,80.468 512.573,79.275 508.52,78.253 504.399,77.148 500.235,76.063 496.157,74.906 491.957,73.893 488.029,72.755 483.787,71.702 479.737,70.535 475.653,69.505 471.62,68.374 467.544,67.306 463.332,66.185 459.234,65.05 455.147,63.996 451.056,62.834 446.915,61.714 442.723,60.609 438.644,59.512 434.628,58.369 430.603,57.394 426.414,56.144 422.247,55.062 418.14,53.924 413.887,52.842 409.883,51.773 405.74,50.64 401.673,49.53 397.569,48.458 393.435,47.354 389.259,46.293 385.182,45.188 380.964,44.189 376.826,43.139 372.763,42.275 368.61,41.413 364.273,40.755 359.976,40.251 355.673,40.0 351.274,40.001 346.921,40.271 342.752,40.84 338.79,41.675 335.123,42.739 331.628,43.999 328.247,45.462 324.954,47.201 321.672,49.224 318.683,51.408 315.893,53.749 313.263,56.296 310.691,59.179 308.295,62.216 306.027,65.649 303.867,69.362 301.945,73.198 300.226,77.091 298.76,81.115 297.443,85.204 296.377,89.26 295.389,93.391 294.532,97.539 293.783,101.759 293.116,105.996 292.609,110.274 292.198,114.614 291.893,118.873 291.693,123.111 291.585,127.388 291.672,131.742 291.836,136.029 292.207,140.3 292.606,144.6 293.238,148.807 293.925,152.895 294.793,157.055 295.739,161.023 296.836,165.03 298.037,168.992 299.331,172.802 300.767,176.629 302.346,180.461 304.027,184.285 305.817,187.973 307.675,191.494 309.635,195.079 311.727,198.578 313.958,202.085 316.328,205.582 318.838,209.025 321.39,212.403 323.982,215.53 326.764,218.804 329.614,221.865 332.596,225.011 335.626,227.933 338.692,230.874 341.933,233.646 345.196,236.451 348.455,239.026 351.787,241.596 355.354,244.223 358.659,246.64 362.212,249.133 365.733,251.603 369.184,254.007 372.618,256.339 376.271,258.776 379.77,261.196 383.32,263.568 386.815,265.855 390.327,268.222 393.924,270.557 397.459,272.905 401.08,275.254 404.605,277.582 408.179,279.92 411.772,282.243 415.188,284.496 418.766,286.849 422.394,289.188 425.904,291.535 429.461,293.842 432.814,296.108 436.547,298.61 440.164,300.955 443.721,303.338 447.139,305.63 450.677,308.057 454.194,310.367 457.715,312.71 461.206,315.089 464.781,317.517 468.224,319.91 471.788,322.292 475.338,324.696 478.772,327.058 482.207,329.403 485.786,331.88 489.253,334.245 492.703,336.684 496.212,339.076 499.849,341.635 503.28,344.003 506.674,346.401 510.204,348.895 513.651,351.339 517.115,353.878 520.388,356.326 523.81,359.012 527.058,361.676 530.325,364.554 533.46,367.504 536.519,370.619 539.308,373.699 542.04,376.992 544.626,380.386 546.921,383.729 549.042,387.144 551.013,390.679 552.724,394.181 554.32,397.844 555.729,401.593 556.91,405.429 557.942,409.488 558.71,413.401 559.28,417.464 559.654,421.494 559.832,425.653 559.811,429.857 559.58,434.012 559.136,438.153 558.466,442.298 557.59,446.359 556.47,450.44 555.137,454.438 553.643,458.211 551.962,461.921 550.059,465.603 548.003,469.14 545.799,472.546 543.454,475.792 540.981,478.908 538.315,481.944 535.58,484.785 532.749,487.504 529.891,490.04 526.71,492.585 523.427,494.952 519.925,497.266 516.405,499.353 512.614,501.398 508.59,503.335 504.655,505.042 500.566,506.622 496.694,507.96 492.482,509.222 488.229,510.328 483.958,511.342 480.087,512.13 475.823,512.998 471.588,513.831 467.417,514.57 463.068,515.33 458.805,516.041 454.594,516.702 450.38,517.304 445.998,517.835 441.672,518.2 437.323,518.37 433.007,518.327 428.796,518.05 424.413,517.42 420.375,516.434 416.509,514.97 413.003,513.042 410.017,510.765 407.613,508.274 405.723,505.633 404.212,502.779 403.07,499.776 402.317,496.629 401.971,493.206 402.064,489.634 402.64,485.753 403.678,481.837 405.111,478.004 406.894,474.152 408.796,470.342 410.685,466.523 412.451,462.685 414.066,458.81 415.396,455.067 416.537,451.216 417.392,447.486 417.934,443.976 418.181,440.344 418.089,436.676 417.616,432.956 416.742,429.32 415.394,425.739 413.542,422.289 411.28,419.208 408.644,416.523 405.611,414.175 402.295,412.221 398.805,410.701 395.139,409.582 391.387,408.854 387.767,408.515 384.066,408.524 380.253,408.876 376.374,409.606 372.507,410.697 368.666,412.111 364.752,413.873 360.936,415.878 357.285,418.089 353.7,420.528 350.329,423.065 346.937,425.824 343.672,428.683 340.636,431.577 337.771,434.396 334.832,437.378 331.775,440.513 328.849,443.546 325.862,446.563 322.869,449.517 319.942,452.243 316.915,455.019 313.86,457.631 310.692,460.259 307.369,462.873 303.82,465.511 300.518,467.844 296.959,470.218 293.25,472.515 289.725,474.575 285.917,476.64 282.085,478.579 278.286,480.358 274.259,482.065 270.105,483.654 266.056,485.034 262.007,486.225 257.732,487.297 253.531,488.14 249.126,488.754 244.75,489.044 240.433,488.949 236.049,488.338 231.975,487.155 228.374,485.452 225.237,483.225 222.734,480.665 220.851,477.896 219.479,475.016 218.575,472.096 218.085,468.981 218.065,465.563 218.543,462.065 219.633,458.215 221.319,454.329 223.492,450.589 226.077,446.982 228.846,443.741 231.723,440.795 234.825,437.933 238.136,435.132 241.458,432.52 244.845,430.041 248.314,427.583 251.809,425.075 255.281,422.545 258.597,420.032 261.943,417.343 265.165,414.606 268.378,411.636 271.371,408.649 274.162,405.617 276.734,402.543 279.256,399.221 281.648,395.741 283.817,392.213 285.847,388.528 287.685,384.739 289.278,380.977 290.625,377.269 291.838,373.361 292.896,369.261 293.66,365.534 294.246,361.728 294.664,357.901 294.891,353.753 294.927,349.555 294.743,345.393 294.4,341.518 293.838,337.474 293.138,333.507 292.325,329.759 291.243,325.874 290.058,322.117 288.623,318.147 287.145,314.518 285.434,310.845 283.47,307.053 281.456,303.506 279.271,300.094 276.921,296.654 274.596,293.494 271.764,290.014 268.933,286.793 266.291,283.97 263.126,280.931 259.787,277.873 256.593,275.183 253.086,272.474 249.475,269.901 246.362,267.715 242.658,265.353 238.908,263.038 235.065,260.845 231.562,258.758 228.031,256.751 224.065,254.45 220.625,252.443 216.824,250.179 213.15,247.935 209.831,245.936 206.192,243.679 202.332,241.277 198.706,239.018 195.091,236.724 191.593,234.591 187.759,232.159 184.049,229.838 180.47,227.602 176.779,225.316 173.038,223.047 169.412,220.904 165.896,218.945 161.943,216.963 157.809,215.205 153.59,213.815 149.485,212.891 145.333,212.423 141.154,212.416 137.394,212.844 133.907,213.62 130.753,214.648 127.611,215.992 124.518,217.659 121.531,219.625 118.53,222.003 115.377,225.004 112.465,228.342 109.954,231.773 107.656,235.473 105.583,239.309 103.714,243.246 102.029,247.171 100.509,251.124 99.137,255.022 97.824,259.083 96.708,262.936 95.622,267.155 94.674,271.275 93.831,275.455 93.065,279.784 92.462,284.001 91.913,288.267 91.51,292.607 91.122,296.834 90.987,301.007 90.859,305.064 90.857,309.108 91.027,313.25 91.117,317.137 91.426,321.186 91.717,325.819 92.207,330.165 92.727,334.364 93.26,338.559 93.983,342.51 94.638,346.732 95.444,351.006 96.207,355.025 97.102,358.925 98.25,363.401 99.145,367.522 100.213,371.211 101.241,374.978 102.53,379.26 103.802,383.742 105.132,387.357 106.395,391.291 107.919,395.712 109.382,399.425 110.719,403.009 112.478,407.23 114.086,411.201 115.725,414.905 117.601,419.073 119.311,422.492 121.106,426.306 123.191,430.376 125.15,433.86 127.247,437.583 129.496,441.396 131.42,444.578 133.83,448.301 136.395,452.159 138.519,455.193 141.128,458.745 143.616,462.051 146.247,465.325 149.004,468.668 151.602,471.66 154.46,474.845 157.014,477.54 159.752,480.342 163.202,483.623 165.776,486.022 169.112,488.903 172.236,491.485 175.355,493.976 178.749,496.526 182.012,498.822 185.332,501.104 188.974,503.465 192.467,505.625 196.106,507.617 199.737,509.774 203.474,511.606 206.977,513.408 210.583,515.095 214.349,516.852 218.433,518.591 222.925,520.482 226.481,521.712 230.714,523.472 235.011,524.722 238.187,525.943 242.798,527.31 246.635,528.562 250.831,529.555 254.981,530.789 258.909,531.799 263.331,532.957 267.328,533.794 271.431,534.978 275.601,535.832 279.972,536.89 284.131,537.911 288.003,538.642 292.256,539.681 296.27,540.601 300.379,541.513 304.693,542.591 308.464,543.275 312.901,544.387 316.397,544.911 321.245,546.212 325.109,546.821 329.592,547.805 333.853,548.982 337.77,549.457 341.977,550.551 346.149,551.013 350.505,552.123 353.981,552.508 358.927,553.59 363.286,554.191 367.269,554.859 371.69,555.6 375.365,555.616 379.571,556.645 384.118,556.861 388.249,557.642 392.555,557.721 396.835,558.206 401.588,558.846 405.705,558.927 409.7,559.201 413.833,559.288 418.341,559.615 423.054,559.693 427.007,559.754 431.073,560.0 435.048,559.867 439.182,559.935 443.267,559.865 447.608,559.696 451.266,559.784 456.007,559.564 459.949,559.325 463.841,559.275 467.888,558.757 471.927,558.634 475.661,558.428 480.317,557.894 484.111,557.62 488.578,557.103 492.516,556.79 497.121,556.251 499.419,555.976 505.437,555.169 509.868,554.735 513.642,553.901 516.658,553.481 522.014,552.532 526.109,551.789 530.397,550.866 534.445,550.1 538.536,549.331 543.794,548.215 546.476,547.661 551.467,546.589 554.299,545.907 559.25,544.863 563.452,543.887 568.408,542.768 572.696,541.682 576.215,540.952 580.504,539.857 584.135,539.089 587.545,538.163 592.336,537.046 597.647,535.742 600.396,535.075 605.586,533.835 608.998,533.019 613.676,531.896 617.022,531.161 622.031,529.965 624.19,529.45 630.455,527.953 633.164,527.175 638.024,526.149 641.179,525.23 646.072,524.286 649.28,523.508 655.168,522.077 659.848,520.936 662.49,520.29 667.396,519.089 670.416,518.35 676.275,516.124" fill="none" stroke="white" stroke-width="4"
            stroke-linejoin="round" stroke-linecap="round"/>
  <line x1="681.093" y1="535.535" x2="671.457" y2="496.713" stroke="red" stroke-width="3" stroke-linecap="round"/>
</svg>
