<?xml version="1.0" encoding="utf-8"?>
<svg xmlns="http://www.w3.org/2000/svg" width="1000" height="600">
  <polyline points="413.604,112.758 416.248,114.507 418.851,116.187 421.481,117.894 424.099,119.627 426.657,121.288 429.289,122.97 431.908,124.692 434.514,126.411 437.13,128.098 439.743,129.773 442.453,131.501 445.01,133.228 447.586,134.853 450.233,136.543 452.908,138.259 455.55,139.98 458.153,141.646 460.752,143.299 463.343,145.023 465.987,146.707 468.591,148.424 471.208,150.126 473.856,151.816 476.481,153.559 479.084,155.314 481.728,157.027 484.335,158.706 486.925,160.396 489.508,162.086 492.093,163.839 494.739,165.525 497.37,167.25 499.981,168.957 502.602,170.646 505.248,172.375 507.852,174.088 510.435,175.734 513.071,177.453 515.677,179.141 518.296,180.787 520.909,182.512 523.567,184.233 526.206,185.952 528.861,187.636 531.419,189.341 534.053,190.999 536.661,192.687 539.248,194.372 541.851,196.015 544.477,197.723 547.165,199.445 549.807,201.172 552.466,202.891 555.076,204.55 557.743,206.244 560.35,207.948 562.947,209.529 565.512,211.231 568.152,212.963 570.891,214.715 573.525,216.396 576.128,218.062 578.734,219.803 581.36,221.454 583.926,223.107 586.49,224.795 589.099,226.491 591.776,228.197 594.434,229.914 597.056,231.621 599.701,233.301 602.28,234.998 604.819,236.652 607.536,238.356 610.132,240.109 612.812,241.802 615.439,243.516 618.064,245.209 620.593,246.837 623.165,248.499 625.77,250.208 628.425,251.882 631.079,253.564 633.719,255.307 636.402,256.993 639.013,258.736 641.652,260.384 644.221,262.054 646.845,263.705 649.505,265.446 652.107,267.06 654.687,268.773 657.412,270.478 660.061,272.185 662.638,273.887 665.246,275.497 667.877,277.193 670.478,278.84 673.197,280.553 675.805,282.208 678.449,283.935 681.033,285.611 683.657,287.265 686.362,288.965 689.042,290.608 691.554,292.268 694.256,293.901 696.872,295.621 699.501,297.318 702.171,298.986 704.897,300.681 707.511,302.229 710.101,303.884 712.759,305.646 715.474,307.282 718.003,308.924 720.706,310.607 723.386,312.25 725.951,313.878 728.642,315.58 731.251,317.257 733.899,318.868 736.57,320.475 739.203,322.232 741.898,323.906 744.533,325.573 747.173,327.285 749.819,328.914 752.455,330.626 755.015,332.247 757.755,333.966 760.433,335.657 762.943,337.354 765.572,339.143 768.144,340.977 770.682,342.902 773.068,344.89 775.4,347.035 777.637,349.383 779.573,351.856 781.227,354.365 782.574,356.901 783.689,359.536 784.494,362.225 785.009,364.893 785.28,367.648 785.247,370.466 784.933,373.281 784.332,376.157 783.49,379.057 782.397,382.033 781.172,384.923 779.864,387.753 778.542,390.52 777.243,393.348 776.101,396.084 775.126,398.872 774.315,401.727 773.767,404.574 773.443,407.43 773.318,410.284 773.418,413.28 773.691,416.28 774.191,419.237 774.892,422.235 775.835,425.274 776.984,428.228 778.314,431.036 779.822,433.831 781.49,436.494 783.22,439.085 785.093,441.51 787.015,444.017 789.013,446.433 791.057,448.803 792.992,451.131 795.019,453.613 796.929,456.11 798.704,458.59 800.387,461.217 801.965,463.883 803.454,466.611 804.821,469.398 806.035,472.208 807.116,475.043 808.035,477.971 808.802,480.858 809.431,483.85 809.892,486.782 810.225,489.767 810.372,492.804 810.405,495.917 810.238,498.875 809.977,501.828 809.515,504.819 808.942,507.726 808.226,510.66 807.371,513.561 806.382,516.392 805.262,519.179 804.063,521.812 802.669,524.533 801.174,527.145 799.605,529.632 797.873,532.091 795.975,534.551 794.005,536.85 791.923,539.089 789.728,541.23 787.439,543.269 785.074,545.208 782.63,547.011 780.029,548.758 777.341,550.379 774.542,551.911 771.7,553.299 768.863,554.527 765.831,555.68 762.812,556.674 759.828,557.515 756.753,558.238 753.655,558.832 750.477,559.318 747.373,559.657 744.155,559.901 741.009,560.0 737.799,559.99 734.613,559.878 731.422,559.641 728.219,559.32 725.18,558.89 722.06,558.363 718.978,557.733 715.824,556.985 712.755,556.192 709.791,555.336 706.714,554.387 703.709,553.388 700.824,552.331 697.871,551.22 694.908,550.017 691.968,548.795 689.174,547.495 686.233,546.149 683.385,544.723 680.627,543.331 677.874,541.788 675.07,540.251 672.383,538.672 669.76,537.113 667.086,535.484 664.442,533.8 661.749,532.132 659.062,530.376 656.41,528.685 653.851,527.03 651.24,525.279 648.621,523.592 646.044,521.911 643.41,520.118 640.801,518.45 638.153,516.728 635.564,515.045 632.918,513.342 630.279,511.618 627.716,510.008 625.02,508.302 622.442,506.623 619.813,505.035 617.171,503.357 614.556,501.713 611.838,500.007 609.219,498.37 606.49,496.706 603.92,495.068 601.254,493.423 598.556,491.723 595.897,490.08 593.327,488.421 590.618,486.716 588.034,484.993 585.447,483.213 582.911,481.364 580.432,479.368 578.027,477.294 575.747,475.114 573.563,472.789 571.521,470.347 569.657,467.838 568.025,465.31 566.604,462.783 565.359,460.068 564.375,457.34 563.617,454.599 563.112,451.834 562.86,449.004 562.866,446.116 563.145,443.26 563.7,440.474 564.501,437.678 565.551,434.953 566.857,432.306 568.391,429.742 570.187,427.267 572.162,424.926 574.344,422.782 576.679,420.77 579.173,418.947 581.8,417.277 584.566,415.767 587.382,414.459 590.32,413.327 593.383,412.381 596.45,411.64 599.612,411.094 602.784,410.738 605.965,410.59 609.188,410.607 612.401,410.837 615.619,411.198 618.771,411.752 621.877,412.47 624.943,413.353 628.033,414.398 631.091,415.624 634.036,416.951 636.836,418.351 639.584,419.883 642.277,421.511 644.952,423.214 647.495,425.001 650.075,426.848 652.565,428.765 654.971,430.645 657.388,432.597 659.918,434.646 662.344,436.634 664.757,438.595 667.159,440.551 669.608,442.58 672.036,444.544 674.511,446.53 677.007,448.52 679.495,450.438 681.963,452.304 684.489,454.153 687.004,455.936 689.55,457.695 692.176,459.492 694.816,461.251 697.462,462.964 700.115,464.619 702.818,466.223 705.574,467.757 708.331,469.149 711.204,470.46 714.212,471.632 717.232,472.619 720.27,473.359 723.256,473.814 726.095,473.947 728.868,473.75 731.647,473.154 734.184,472.209 736.496,470.841 738.657,469.096 740.452,467.133 741.985,464.902 743.262,462.483 744.191,459.829 744.845,457.053 745.167,454.068 745.224,450.953 744.996,447.822 744.522,444.603 743.833,441.52 742.981,438.523 742.024,435.632 740.907,432.693 739.708,429.751 738.477,426.916 737.211,424.065 735.868,421.219 734.553,418.433 733.209,415.659 731.881,412.803 730.482,410.018 729.143,407.268 727.769,404.416 726.391,401.603 724.997,398.858 723.595,396.036 722.144,393.173 720.713,390.426 719.321,387.714 717.766,384.954 716.276,382.206 714.665,379.507 713.129,376.847 711.518,374.258 709.866,371.655 708.151,369.032 706.365,366.443 704.518,363.875 702.657,361.348 700.734,358.861 698.84,356.49 696.89,354.139 694.85,351.783 692.736,349.407 690.571,347.102 688.407,344.873 686.2,342.708 683.982,340.535 681.712,338.461 679.393,336.412 676.897,334.312 674.499,332.36 672.014,330.352 669.46,328.401 666.939,326.534 664.419,324.721 661.84,322.838 659.265,321.063 656.737,319.324 654.233,317.664 651.499,315.89 648.815,314.197 646.081,312.563 643.228,311.063 640.403,309.755 637.477,308.592 634.305,307.625 631.156,306.963 628.23,306.64 625.323,306.573 622.422,306.818 619.718,307.297 617.148,307.994 614.537,308.905 611.927,310.104 609.378,311.5 606.775,313.188 604.266,315.131 601.972,317.209 599.752,319.504 597.665,321.869 595.716,324.194 593.816,326.498 591.92,328.771 589.88,331.096 587.868,333.204 585.908,335.259 583.814,337.202 581.527,339.214 579.093,341.223 576.537,343.225 574.132,344.95 571.579,346.665 569.013,348.31 566.226,349.936 563.427,351.481 560.602,352.942 557.847,354.295 554.938,355.658 552.127,356.927 549.329,358.155 546.383,359.414 543.559,360.653 540.684,361.867 537.975,363.046 535.146,364.216 532.199,365.477 529.405,366.616 526.616,367.793 523.693,369.035 520.724,370.286 517.791,371.501 514.939,372.698 512.011,373.9 509.161,375.081 506.378,376.204 503.553,377.313 500.573,378.426 497.633,379.419 494.572,380.332 491.468,381.121 488.296,381.786 485.136,382.294 482.139,382.631 479.131,382.827 476.147,382.879 473.036,382.778 469.743,382.498 466.71,382.08 463.937,381.56 460.981,380.857 458.281,380.068 455.537,379.143 452.78,378.057 450.028,376.815 447.248,375.409 444.763,373.973 442.281,372.404 439.901,370.72 437.425,368.817 434.98,366.791 432.568,364.551 430.395,362.351 428.199,359.99 426.192,357.559 424.31,355.115 422.567,352.67 420.808,349.997 419.099,347.172 417.504,344.338 416.068,341.603 414.705,338.945 413.305,336.118 412.027,333.457 410.68,330.656 409.27,327.662 407.903,324.777 406.756,322.102 405.402,319.286 404.062,316.541 402.81,313.629 401.396,310.479 400.173,307.717 399.011,305.122 397.708,302.41 396.4,299.374 395.082,296.427 393.787,293.531 392.508,290.863 391.15,287.907 390.005,284.983 388.778,282.436 387.419,279.45 386.077,276.534 384.86,273.735 383.695,270.947 382.368,268.089 380.97,264.997 379.725,262.066 378.561,259.607 377.272,256.627 375.789,253.464 374.571,250.804 373.557,248.313 372.089,245.247 370.717,242.115 369.494,239.491 368.357,236.989 366.911,233.886 365.596,230.842 364.332,228.056 363.085,225.293 361.751,222.479 360.426,219.634 359.102,216.602 357.836,213.865 356.549,211.23 355.253,208.289 353.812,205.38 352.687,202.541 351.216,199.928 349.952,197.123 348.668,194.155 347.271,191.419 345.864,188.465 344.613,185.762 343.288,182.916 341.902,180.19 340.529,177.32 339.225,174.431 337.786,171.63 336.461,168.847 335.073,165.933 333.648,163.1 332.379,160.385 330.968,157.511 329.568,154.687 328.184,151.762 326.732,148.876 325.37,146.172 323.973,143.309 322.554,140.527 321.045,137.701 319.547,135.065 317.871,132.37 316.055,129.666 314.074,127.196 311.901,124.8 309.512,122.679 307.016,120.836 304.503,119.483 302.114,118.415 299.797,117.725 297.39,117.184 294.91,116.953 292.384,116.994 289.685,117.322 286.819,118.032 284.021,119.093 281.176,120.576 278.416,122.516 276.023,124.739 273.898,127.25 272.178,129.956 270.762,132.863 269.618,135.935 268.767,138.996 268.179,142.18 267.765,145.466 267.66,148.678 267.713,151.838 268.014,154.989 268.536,158.103 269.25,161.195 270.117,164.141 271.108,166.972 272.296,169.884 273.551,172.648 274.852,175.183 276.348,177.874 277.906,180.482 279.596,183.025 281.277,185.587 282.996,188.118 284.705,190.6 286.412,193.181 288.191,195.94 289.881,198.756 291.323,201.411 292.714,204.287 293.965,207.297 294.951,210.161 295.714,212.979 296.275,215.814 296.629,218.593 296.731,221.535 296.555,224.426 296.106,227.419 295.33,230.367 294.371,233.034 293.079,235.692 291.494,238.236 289.712,240.509 287.698,242.593 285.502,244.443 283.082,246.063 280.522,247.448 277.968,248.536 275.205,249.407 272.412,249.991 269.349,250.343 266.459,250.422 263.623,250.275 260.763,249.9 257.891,249.294 255.097,248.473 252.341,247.417 249.536,246.07 246.841,244.514 244.186,242.71 241.758,240.834 239.304,238.728 237.075,236.637 234.84,234.376 232.731,232.062 230.623,229.607 228.58,227.081 226.591,224.581 224.611,222.043 222.787,219.679 220.914,217.299 219.069,214.968 217.024,212.406 215.131,210.02 213.252,207.63 211.318,205.193 209.384,202.704 207.39,200.139 205.604,197.766 203.783,195.286 201.925,192.544 200.292,189.968 198.672,187.214 197.134,184.374 195.846,181.727 194.556,178.732 193.407,175.695 192.48,172.861 191.685,169.959 191.018,167.142 190.475,164.289 190.051,161.301 189.761,158.419 189.607,155.529 189.595,152.426 189.697,149.605 189.918,146.732 190.315,143.579 190.863,140.483 191.48,137.608 192.34,134.341 193.186,131.674 194.31,128.527 195.562,125.41 196.826,122.683 198.202,120.072 199.755,117.103 201.325,114.455 202.859,112.066 204.643,109.206 206.45,106.594 208.267,103.955 209.809,101.638 211.657,98.94 213.411,96.379 214.994,93.879 216.77,91.219 218.512,88.557 220.118,85.965 221.863,83.253 223.463,80.802 225.257,77.986 226.927,75.418 228.691,72.77 230.52,70.111 232.238,67.664 234.108,65.205 236.225,62.589 238.133,60.391 240.289,58.117 242.977,55.55 245.14,53.689 247.404,51.911 250.201,49.951 252.686,48.394 255.469,46.835 258.208,45.489 260.709,44.405 263.554,43.332 266.471,42.386 269.259,41.644 271.98,41.046 275.103,40.54 278.377,40.203 280.704,40.052 283.853,40.0 286.995,40.092 290.061,40.297 292.959,40.66 295.95,41.161 299.084,41.804 302.164,42.605 305.376,43.632 308.713,44.821 311.174,45.865 313.999,47.184 317.14,48.766 319.606,50.124 322.12,51.679 325.315,53.611 327.304,54.821 330.14,56.769 332.847,58.47 335.144,60.091 337.901,61.957 341.049,63.985 342.894,65.288 345.93,67.309 348.673,69.178 350.659,70.35 353.642,72.499 355.262,73.772 358.377,75.696 361.444,77.966 363.902,79.441 366.702,81.231 369.269,83.122 371.448,84.504 373.886,86.12 376.739,88.255 379.585,89.611 381.838,91.625 384.826,93.367 387.366,95.013 389.786,97.023 391.494,97.904 394.918,100.378 397.65,102.16 399.409,103.307 403.035,105.667 406.081,107.646 407.655,108.669 408.444,109.18 413.604,112.758" fill="none" stroke="white" stroke-width="4"
            stroke-linejoin="round" stroke-linecap="round"/>
</svg>
