<?xml version="1.0" encoding="utf-8"?>
<svg xmlns="http://www.w3.org/2000/svg" width="1000" height="600">
  <polyline points="728.225,337.321 726.52,339.363 724.77,341.458 723.065,343.499 721.361,345.544 719.653,347.559 717.944,349.638 716.257,351.666 714.553,353.688 712.843,355.777 711.105,357.853 709.436,359.839 707.733,361.924 705.997,364.006 704.322,366.025 702.641,368.043 700.924,370.145 699.189,372.251 697.5,374.289 695.805,376.328 694.105,378.399 692.365,380.515 690.663,382.589 688.972,384.647 687.292,386.672 685.586,388.74 683.898,390.803 682.169,392.872 680.47,394.97 678.724,397.06 677.05,399.103 675.339,401.181 673.642,403.253 671.907,405.372 670.197,407.451 668.496,409.507 666.833,411.538 665.159,413.569 663.461,415.639 661.743,417.713 660.019,419.822 658.301,421.9 656.615,423.937 654.898,426.012 653.213,428.041 651.504,430.119 649.8,432.199 648.089,434.265 646.378,436.334 644.693,438.396 642.993,440.454 641.285,442.521 639.595,444.593 637.917,446.626 636.261,448.655 634.538,450.751 632.832,452.829 631.134,454.909 629.421,457.007 627.724,459.049 626.04,461.13 624.365,463.183 622.635,465.294 620.976,467.315 619.32,469.361 617.625,471.441 615.936,473.523 614.256,475.595 612.545,477.688 610.83,479.806 609.124,481.909 607.385,484.049 605.72,486.087 604.048,488.153 602.343,490.233 600.679,492.277 599.038,494.298 597.322,496.409 595.583,498.534 593.872,500.632 592.183,502.739 590.507,504.796 588.845,506.827 587.166,508.901 585.481,510.989 583.783,513.073 582.11,515.148 580.365,517.296 578.692,519.377 576.994,521.453 575.291,523.55 573.611,525.619 571.924,527.694 570.211,529.801 568.518,531.875 566.818,533.955 565.108,536.049 563.413,538.123 561.724,540.185 560.016,542.265 558.285,544.357 556.573,546.414 554.825,548.463 553.039,550.468 551.121,552.451 549.079,554.316 546.873,556.041 544.569,557.527 542.113,558.733 539.55,559.562 537.025,559.972 534.744,560.0 532.756,559.754 530.909,559.276 529.06,558.532 527.329,557.584 525.763,556.486 524.237,555.13 522.737,553.423 521.365,551.401 520.192,549.163 519.224,546.666 518.494,544.049 517.99,541.375 517.679,538.646 517.539,535.898 517.535,533.215 517.646,530.529 517.85,527.849 518.149,525.142 518.55,522.453 519.049,519.791 519.612,517.13 520.231,514.49 520.921,511.852 521.643,509.268 522.43,506.67 523.252,504.087 524.111,501.55 525.031,498.994 525.983,496.478 526.991,493.956 528.036,491.519 529.084,489.109 530.218,486.668 531.404,484.24 532.622,481.874 533.866,479.511 535.164,477.186 536.519,474.861 537.888,472.583 539.285,470.356 540.714,468.172 542.194,465.968 543.711,463.787 545.268,461.6 546.835,459.478 548.41,457.344 550.024,455.271 551.723,453.109 553.371,451.086 555.006,449.035 556.748,446.94 558.457,444.909 560.128,442.93 561.916,440.824 563.69,438.798 565.408,436.802 567.179,434.753 568.969,432.747 570.719,430.715 572.509,428.722 574.263,426.691 575.991,424.759 577.767,422.711 579.521,420.708 581.275,418.695 583.038,416.646 584.752,414.672 586.519,412.606 588.258,410.564 590.007,408.512 591.747,406.455 593.453,404.415 595.177,402.372 596.905,400.299 598.649,398.207 600.331,396.16 602.025,394.076 603.667,391.995 605.304,389.828 606.873,387.609 608.323,385.395 609.717,383.054 611.009,380.651 612.176,378.204 613.212,375.686 614.073,373.162 614.739,370.701 615.215,368.279 615.497,365.82 615.551,363.31 615.365,360.854 614.945,358.454 614.298,356.108 613.412,353.826 612.275,351.638 610.95,349.653 609.418,347.829 607.661,346.141 605.794,344.651 603.818,343.348 601.71,342.247 599.401,341.315 597.035,340.604 594.65,340.107 592.145,339.823 589.546,339.752 586.873,339.883 584.188,340.198 581.57,340.703 578.977,341.416 576.41,342.321 573.933,343.381 571.523,344.578 569.221,345.866 566.969,347.252 564.712,348.742 562.495,350.286 560.242,351.829 558.001,353.345 555.773,354.767 553.475,356.128 551.153,357.384 548.745,358.562 546.312,359.614 543.786,360.566 541.27,361.382 538.781,362.062 536.333,362.609 533.952,363.032 531.579,363.345 529.146,363.553 526.707,363.65 524.314,363.637 521.764,363.513 519.04,363.259 516.341,362.878 513.645,362.366 511.001,361.753 508.415,361.019 505.803,360.153 503.284,359.2 500.873,358.179 498.425,357.038 495.995,355.831 493.69,354.622 491.315,353.344 488.884,351.984 486.57,350.7 484.258,349.369 481.96,348.037 479.591,346.658 477.26,345.281 475.037,343.96 472.685,342.564 470.368,341.21 468.107,339.884 465.738,338.523 463.378,337.184 461.077,335.897 458.753,334.625 456.376,333.301 454.068,332.088 451.669,330.77 449.353,329.544 446.989,328.285 444.585,327.022 442.259,325.84 439.916,324.547 437.481,323.271 435.144,322.044 432.81,320.833 430.473,319.588 428.114,318.363 425.649,317.057 423.288,315.789 421.0,314.632 418.574,313.331 416.182,312.077 413.834,310.834 411.545,309.63 409.154,308.343 406.733,307.048 404.41,305.785 402.093,304.509 399.747,303.197 397.395,301.844 395.042,300.543 392.765,299.183 390.413,297.797 388.168,296.421 385.798,294.976 383.572,293.565 381.334,292.162 379.023,290.663 376.888,289.253 374.706,287.761 372.478,286.269 370.274,284.709 368.11,283.171 365.995,281.653 363.85,280.072 361.712,278.485 359.576,276.864 357.461,275.235 355.332,273.564 353.329,271.976 351.203,270.281 349.155,268.653 347.135,267.055 345.018,265.404 342.919,263.81 340.672,262.202 338.393,260.688 336.089,259.307 333.649,258.015 331.235,256.891 328.771,255.897 326.533,255.136 324.333,254.505 321.923,253.923 319.383,253.445 316.864,253.097 314.145,252.858 311.329,252.764 308.635,252.81 305.908,252.986 303.203,253.279 300.566,253.692 297.915,254.184 295.402,254.757 292.687,255.443 290.07,256.194 287.458,257.024 285.007,257.864 282.423,258.788 279.982,259.712 277.441,260.706 274.931,261.69 272.443,262.674 269.961,263.658 267.527,264.605 265.009,265.582 262.436,266.544 259.861,267.437 257.409,268.258 254.783,269.041 252.164,269.747 249.666,270.32 246.936,270.839 244.208,271.227 241.527,271.47 238.743,271.565 236.065,271.489 233.402,271.231 230.805,270.803 228.343,270.208 225.909,269.41 223.538,268.401 221.315,267.241 219.128,265.866 217.113,264.358 215.3,262.757 213.498,260.881 211.913,258.931 210.531,256.9 209.293,254.699 208.183,252.273 207.33,249.915 206.69,247.553 206.212,245.028 205.921,242.518 205.805,239.921 205.875,237.238 206.126,234.646 206.586,231.915 207.229,229.308 208.07,226.725 209.1,224.143 210.238,221.715 211.472,219.369 212.805,217.062 214.26,214.734 215.774,212.506 217.416,210.22 219.049,208.085 220.799,205.915 222.519,203.889 224.317,201.882 226.198,199.874 228.119,197.895 230.074,195.985 231.974,194.153 233.89,192.334 235.86,190.539 237.852,188.701 239.871,186.858 241.823,185.068 243.871,183.203 245.757,181.477 247.749,179.698 249.721,177.902 251.683,176.135 253.661,174.352 255.673,172.513 257.705,170.659 259.773,168.793 261.774,166.97 263.656,165.263 265.631,163.45 267.712,161.556 269.707,159.736 271.696,157.946 273.708,156.123 275.678,154.361 277.7,152.584 279.766,150.814 281.889,149.14 284.116,147.652 286.473,146.407 288.988,145.43 291.452,144.806 293.76,144.515 295.99,144.471 298.232,144.637 300.611,145.072 303.098,145.85 305.525,146.882 307.858,148.001 310.173,149.044 312.291,149.862 314.415,150.549 316.773,151.122 319.417,151.53 322.174,151.736 324.881,151.735 327.64,151.573 330.336,151.261 332.995,150.832 335.601,150.309 338.203,149.693 340.822,149.048 343.331,148.406 345.843,147.768 348.425,147.083 351.155,146.38 353.704,145.749 356.196,145.123 358.757,144.495 361.476,143.825 364.079,143.176 366.638,142.532 369.287,141.829 371.825,141.106 374.341,140.297 376.85,139.36 379.407,138.228 381.921,136.922 384.288,135.477 386.361,133.996 388.319,132.38 390.065,130.734 391.681,128.987 393.214,127.099 394.634,125.092 395.92,122.991 397.118,120.69 398.173,118.277 399.075,115.75 399.803,113.156 400.35,110.544 400.74,107.824 400.971,105.142 401.1,102.513 401.217,99.928 401.421,97.064 401.726,94.306 402.164,91.661 402.752,89.114 403.505,86.635 404.53,84.059 405.677,81.718 406.987,79.507 408.418,77.466 410.043,75.494 411.763,73.722 413.601,72.08 415.465,70.617 417.449,69.286 419.746,67.993 422.015,66.947 424.434,66.062 426.961,65.358 429.664,64.815 432.313,64.438 435.098,64.204 437.872,64.128 440.497,64.204 443.212,64.406 445.743,64.71 448.449,65.138 451.071,65.63 453.679,66.211 456.314,66.881 458.978,67.593 461.561,68.33 464.086,69.055 466.492,69.732 469.157,70.484 471.81,71.158 474.369,71.818 476.772,72.374 479.413,72.942 482.265,73.46 485.04,73.883 487.602,74.213 490.348,74.459 492.905,74.613 495.503,74.67 498.038,74.66 500.61,74.535 503.579,74.293 506.044,73.983 508.372,73.622 510.914,73.118 513.641,72.469 516.091,71.78 518.435,71.009 520.87,70.143 523.416,69.101 525.711,68.062 528.011,66.958 530.298,65.745 532.673,64.423 534.999,63.02 537.227,61.603 539.369,60.196 541.38,58.792 543.756,57.191 546.196,55.529 548.104,54.183 550.391,52.683 552.782,51.112 554.953,49.748 557.232,48.345 559.616,46.963 562.041,45.677 564.522,44.494 566.865,43.504 569.492,42.558 572.233,41.735 574.84,41.106 577.425,40.631 579.724,40.32 582.074,40.103 584.802,40.0 587.668,40.048 589.911,40.196 592.134,40.425 594.773,40.848 597.44,41.436 599.924,42.106 602.342,42.895 604.848,43.862 607.302,44.947 609.787,46.17 612.37,47.629 614.651,49.088 616.857,50.583 619.096,52.264 621.124,53.943 623.119,55.65 625.098,57.44 626.983,59.168 628.948,61.081 630.825,62.971 632.78,64.792 634.698,66.713 636.596,68.599 638.406,70.439 640.38,72.435 642.181,74.233 644.129,76.151 646.001,78.058 647.824,79.927 649.786,81.834 651.751,83.733 653.608,85.632 655.565,87.581 657.491,89.356 659.307,91.189 661.257,92.987 663.169,94.813 665.189,96.758 667.154,98.592 669.085,100.375 670.984,102.18 672.992,104.029 674.973,105.867 676.751,107.57 678.835,109.421 680.965,111.38 682.721,112.986 684.729,114.874 686.909,116.778 688.597,118.377 690.698,120.297 692.84,122.197 694.671,123.803 696.665,125.668 698.726,127.509 700.568,129.177 702.686,131.099 704.723,132.885 706.766,134.768 708.682,136.492 710.659,138.254 712.849,140.219 714.994,142.163 716.842,143.837 718.822,145.626 720.83,147.451 722.807,149.264 724.779,151.084 726.787,152.989 728.666,154.836 730.429,156.721 732.224,158.914 733.786,161.205 735.072,163.609 736.04,166.07 736.654,168.416 736.973,170.683 737.053,172.884 736.91,175.14 736.541,177.419 735.905,179.82 735.018,182.198 733.798,184.654 732.295,187.052 730.682,189.234 728.906,191.366 727.122,193.289 725.344,195.044 723.338,196.866 721.258,198.619 719.203,200.267 717.039,201.896 714.744,203.561 712.434,205.179 710.28,206.643 708.191,208.082 706.063,209.523 703.786,211.115 701.583,212.737 699.378,214.408 697.26,216.055 695.151,217.793 693.165,219.5 691.262,221.183 689.354,222.915 687.337,224.843 685.306,226.864 683.473,228.761 681.568,230.79 679.711,232.91 677.978,235.023 676.445,237.056 674.952,239.262 673.547,241.662 672.299,244.161 671.246,246.753 670.487,249.214 669.911,251.747 669.586,254.282 669.543,256.939 669.808,259.457 670.366,261.87 671.224,264.143 672.378,266.302 673.862,268.357 675.546,270.134 677.374,271.594 679.495,272.849 681.768,273.8 684.177,274.449 686.583,274.787 688.82,274.832 691.303,274.598 693.757,274.093 696.197,273.335 698.567,272.37 700.854,271.217 703.211,269.783 705.48,268.169 707.602,266.453 709.631,264.618 711.506,262.751 713.29,260.802 714.962,258.842 716.55,256.799 718.151,254.612 719.599,252.456 721.029,250.197 722.399,247.853 723.759,245.457 725.109,243.053 726.553,240.56 727.965,238.214 729.488,235.807 731.001,233.564 732.483,231.484 734.046,229.47 735.705,227.423 737.543,225.325 739.512,223.267 741.358,221.501 743.195,219.901 745.377,218.19 747.762,216.544 750.209,215.096 752.49,213.956 754.69,213.039 757.121,212.232 759.701,211.599 762.244,211.204 764.871,211.029 767.398,211.088 769.804,211.352 772.332,211.857 774.887,212.628 777.334,213.638 779.51,214.803 781.568,216.16 783.533,217.714 785.314,219.381 787.033,221.294 788.554,223.324 789.836,225.396 790.998,227.71 791.911,229.954 792.625,232.095 793.279,234.555 793.743,236.928 794.042,239.29 794.195,241.899 794.158,244.613 793.975,246.952 793.628,249.423 793.12,251.916 792.429,254.525 791.519,257.339 790.587,259.745 789.595,262.022 788.27,264.679 786.948,267.059 785.551,269.323 783.934,271.768 782.55,273.662 780.857,275.848 779.111,278.041 777.555,279.938 775.746,282.02 773.986,284.041 772.305,285.9 770.414,288.137 768.773,289.875 766.873,292.026 765.271,293.992 763.276,296.11 761.357,298.059 759.784,299.981 757.579,302.492 756.133,304.144 754.866,305.872 752.574,308.378 751.434,310.007 749.312,312.319 747.583,314.141 746.157,316.228 744.964,317.718 742.614,320.5 740.405,323.126 739.641,324.035 737.407,326.699 735.167,329.376 734.012,330.757 732.146,332.991 731.566,333.685 728.225,337.321" fill="none" stroke="white" stroke-width="4"
            stroke-linejoin="round" stroke-linecap="round"/>
</svg>
