<?xml version="1.0" encoding="utf-8"?>
<svg xmlns="http://www.w3.org/2000/svg" width="1000" height="600">
  <polyline points="396.523,167.293 396.604,169.025 396.678,170.728 396.74,172.501 396.785,174.237 396.818,175.958 396.862,177.679 396.861,179.441 396.875,181.199 396.879,182.947 396.881,184.651 396.887,186.396 396.866,188.149 396.878,189.892 396.865,191.633 396.847,193.314 396.829,195.045 396.834,196.841 396.797,198.589 396.797,200.316 396.759,202.035 396.741,203.742 396.716,205.529 396.684,207.249 396.649,208.975 396.615,210.712 396.549,212.474 396.517,214.197 396.463,215.925 396.387,217.703 396.308,219.44 396.229,221.123 396.144,222.88 396.039,224.607 395.925,226.286 395.803,228.034 395.664,229.797 395.524,231.552 395.36,233.234 395.225,235.034 395.028,236.774 394.848,238.464 394.663,240.138 394.487,241.766 394.29,243.461 394.066,245.177 393.82,246.898 393.583,248.618 393.342,250.307 393.104,251.968 392.81,253.753 392.539,255.473 392.266,257.153 391.975,258.867 391.704,260.573 391.411,262.319 391.113,264.06 390.823,265.791 390.555,267.47 390.261,269.167 390.006,270.878 389.683,272.602 389.411,274.31 389.128,275.991 388.824,277.701 388.55,279.448 388.242,281.188 387.921,282.923 387.644,284.631 387.354,286.288 387.049,288.008 386.769,289.707 386.474,291.407 386.166,293.118 385.883,294.845 385.59,296.6 385.305,298.261 385.028,299.97 384.746,301.662 384.482,303.362 384.24,305.069 384.009,306.8 383.769,308.513 383.571,310.214 383.371,311.948 383.179,313.669 383.002,315.392 382.866,317.098 382.724,318.8 382.597,320.502 382.511,322.231 382.421,323.997 382.358,325.715 382.298,327.427 382.255,329.126 382.23,330.893 382.221,332.573 382.227,334.362 382.238,336.084 382.262,337.834 382.296,339.523 382.351,341.248 382.397,343.0 382.473,344.738 382.55,346.449 382.633,348.209 382.716,349.942 382.827,351.718 382.888,353.415 382.989,355.153 383.115,356.892 383.225,358.618 383.349,360.356 383.467,362.117 383.618,363.887 383.745,365.602 383.899,367.342 384.045,369.027 384.202,370.786 384.375,372.503 384.539,374.271 384.723,375.984 384.878,377.669 385.067,379.418 385.254,381.202 385.454,382.929 385.668,384.605 385.888,386.316 386.132,388.074 386.377,389.797 386.635,391.468 386.921,393.202 387.218,394.934 387.535,396.692 387.882,398.426 388.219,400.125 388.569,401.876 388.962,403.568 389.342,405.258 389.748,406.945 390.182,408.682 390.625,410.345 391.124,412.045 391.687,413.716 392.318,415.346 393.031,416.963 393.865,418.549 394.789,420.001 395.75,421.308 396.784,422.438 397.842,423.51 399.077,424.459 400.444,425.358 401.997,426.189 403.605,426.891 405.24,427.523 406.859,428.13 408.374,428.792 409.821,429.482 411.155,430.232 412.475,431.085 413.767,432.046 415.043,433.145 416.29,434.382 417.431,435.701 418.513,437.08 419.515,438.531 420.444,440.026 421.289,441.53 422.078,443.045 422.825,444.625 423.518,446.214 424.192,447.837 424.851,449.449 425.525,451.049 426.274,452.629 427.055,454.145 427.901,455.636 428.831,457.119 429.77,458.487 430.771,459.794 431.814,461.045 432.911,462.228 434.104,463.424 435.37,464.564 436.723,465.669 438.146,466.72 439.624,467.698 441.109,468.597 442.652,469.436 444.217,470.231 445.796,470.963 447.387,471.628 449.007,472.277 450.596,472.891 452.246,473.494 453.905,474.104 455.501,474.673 457.13,475.254 458.791,475.826 460.446,476.406 462.095,476.997 463.711,477.575 465.348,478.162 466.989,478.775 468.595,479.347 470.218,479.957 471.849,480.567 473.504,481.199 475.113,481.796 476.734,482.43 478.348,483.049 479.971,483.662 481.617,484.308 483.23,484.96 484.873,485.565 486.434,486.22 488.04,486.854 489.688,487.521 491.297,488.131 492.854,488.844 494.47,489.451 496.053,490.167 497.708,490.803 499.322,491.505 500.902,492.143 502.501,492.862 504.113,493.494 505.68,494.196 507.307,494.858 508.907,495.561 510.512,496.246 512.139,496.902 513.701,497.613 515.305,498.247 516.884,498.953 518.503,499.614 520.126,500.279 521.736,500.972 523.329,501.632 524.932,502.26 526.508,502.938 528.124,503.549 529.762,504.19 531.398,504.814 533.043,505.38 534.709,505.927 536.436,506.397 538.155,506.823 539.882,507.116 541.657,507.362 543.361,507.521 545.015,507.582 546.586,507.566 548.131,507.501 549.739,507.357 551.379,507.138 553.051,506.839 554.78,506.432 556.512,506.032 558.206,505.655 559.955,505.338 561.669,505.107 563.433,504.992 565.236,505.01 566.922,505.151 568.461,505.394 569.919,505.733 571.367,506.175 572.88,506.78 574.434,507.558 575.994,508.509 577.407,509.538 578.759,510.693 580.027,511.911 581.236,513.164 582.381,514.432 583.488,515.749 584.609,517.097 585.687,518.464 586.759,519.835 587.799,521.226 588.829,522.599 589.84,524.022 590.843,525.43 591.836,526.879 592.836,528.317 593.811,529.782 594.781,531.21 595.764,532.65 596.761,534.104 597.763,535.522 598.781,536.945 599.8,538.347 600.818,539.724 601.859,541.106 602.93,542.506 604.01,543.892 605.081,545.231 606.177,546.572 607.312,547.948 608.436,549.287 609.57,550.61 610.713,551.919 611.895,553.216 613.107,554.46 614.406,555.67 615.789,556.807 617.226,557.816 618.73,558.677 620.323,559.36 621.891,559.796 623.443,560.0 624.985,559.965 626.468,559.704 627.859,559.232 629.169,558.545 630.323,557.703 631.382,556.668 632.3,555.477 633.061,554.162 633.701,552.685 634.209,551.072 634.585,549.341 634.824,547.585 634.944,545.849 634.971,544.089 634.918,542.33 634.796,540.606 634.617,538.889 634.382,537.153 634.115,535.433 633.838,533.745 633.548,532.047 633.236,530.319 632.94,528.65 632.621,526.932 632.304,525.189 632.017,523.522 631.699,521.81 631.398,520.085 631.084,518.347 630.792,516.621 630.494,514.941 630.194,513.242 629.923,511.542 629.614,509.799 629.335,508.106 629.051,506.412 628.784,504.718 628.498,502.983 628.205,501.234 627.945,499.534 627.691,497.846 627.405,496.106 627.151,494.393 626.901,492.695 626.65,490.996 626.376,489.309 626.135,487.521 625.897,485.776 625.651,484.142 625.419,482.429 625.205,480.698 624.976,478.944 624.769,477.209 624.571,475.513 624.386,473.792 624.214,472.092 624.048,470.374 623.913,468.669 623.783,466.951 623.67,465.128 623.581,463.409 623.505,461.71 623.454,459.978 623.42,458.283 623.416,456.533 623.437,454.796 623.479,453.049 623.539,451.357 623.619,449.61 623.752,447.884 623.882,446.203 624.064,444.421 624.237,442.718 624.439,441.067 624.679,439.359 624.923,437.708 625.202,436.018 625.503,434.256 625.807,432.573 626.141,430.825 626.456,429.124 626.777,427.447 627.11,425.743 627.433,424.044 627.766,422.283 628.095,420.621 628.41,418.937 628.751,417.175 629.065,415.499 629.392,413.752 629.709,412.047 630.021,410.326 630.318,408.647 630.591,406.928 630.823,405.18 630.992,403.428 631.075,401.667 631.059,399.918 630.941,398.164 630.7,396.39 630.36,394.727 629.944,393.217 629.411,391.69 628.793,390.218 628.082,388.774 627.291,387.385 626.428,386.071 625.476,384.795 624.301,383.431 623.031,382.132 621.671,380.921 620.309,379.845 618.902,378.841 617.444,377.906 615.928,377.025 614.422,376.222 612.813,375.435 611.226,374.724 609.615,374.064 607.953,373.439 606.298,372.88 604.621,372.363 602.926,371.906 601.22,371.492 599.532,371.116 597.828,370.808 596.047,370.537 594.326,370.315 592.625,370.146 590.897,370.011 589.132,369.926 587.34,369.893 585.688,369.879 583.989,369.923 582.277,369.988 580.654,370.095 578.929,370.216 577.173,370.411 575.464,370.649 573.806,370.87 572.188,371.159 570.505,371.451 568.862,371.76 567.122,372.106 565.377,372.482 563.616,372.903 561.975,373.293 560.357,373.686 558.707,374.114 557.012,374.538 555.365,374.981 553.632,375.431 551.957,375.862 550.258,376.296 548.568,376.736 546.932,377.143 545.261,377.559 543.541,377.972 541.761,378.372 540.114,378.722 538.419,379.055 536.773,379.348 535.054,379.608 533.297,379.806 531.471,379.948 529.725,380.013 527.965,380.001 526.303,379.92 524.683,379.778 523.071,379.575 521.527,379.305 519.985,378.973 518.29,378.523 516.512,377.955 514.9,377.36 513.275,376.685 511.659,375.935 510.083,375.132 508.513,374.258 507.037,373.379 505.58,372.45 504.121,371.441 502.69,370.336 501.366,369.159 500.172,367.888 499.041,366.397 498.166,364.916 497.596,363.638 497.17,362.376 496.865,361.051 496.66,359.497 496.572,357.659 496.689,355.817 497.014,354.097 497.458,352.427 497.943,350.756 498.417,349.178 498.875,347.612 499.282,346.066 499.666,344.554 500.041,342.895 500.389,341.254 500.706,339.578 501.008,337.876 501.277,336.146 501.509,334.501 501.719,332.74 501.911,330.947 502.054,329.238 502.187,327.51 502.272,325.803 502.357,324.01 502.367,322.247 502.389,320.544 502.367,318.877 502.354,317.115 502.311,315.405 502.257,313.612 502.19,311.861 502.146,310.103 502.074,308.389 502.0,306.664 501.948,304.948 501.857,303.262 501.789,301.555 501.715,299.745 501.642,297.998 501.554,296.292 501.477,294.468 501.384,292.73 501.309,291.076 501.232,289.359 501.143,287.631 501.075,285.976 500.982,284.239 500.902,282.432 500.824,280.68 500.734,278.93 500.641,277.158 500.557,275.433 500.509,273.845 500.418,272.124 500.324,270.319 500.243,268.482 500.177,266.734 500.101,265.066 499.991,263.44 499.911,261.604 499.848,259.846 499.784,258.082 499.716,256.404 499.642,254.715 499.561,252.903 499.496,251.148 499.432,249.45 499.378,247.753 499.315,245.85 499.269,244.095 499.229,242.325 499.187,240.626 499.159,238.912 499.132,237.149 499.127,235.409 499.141,233.69 499.212,231.89 499.342,230.163 499.587,228.418 499.982,226.653 500.595,224.896 501.336,223.438 502.0,222.408 502.678,221.502 503.7,220.347 504.995,218.939 506.093,217.476 506.747,216.359 507.176,215.426 507.607,214.188 507.951,212.487 508.039,210.653 507.864,208.871 507.517,207.206 507.04,205.498 506.486,203.833 505.889,202.248 505.235,200.638 504.545,199.03 503.849,197.428 503.141,195.852 502.441,194.306 501.761,192.788 501.021,191.174 500.286,189.561 499.522,187.946 498.781,186.331 498.042,184.773 497.31,183.216 496.56,181.64 495.814,180.099 495.069,178.571 494.3,177.049 493.571,175.545 492.773,174.05 491.956,172.526 491.14,170.983 490.283,169.384 489.427,167.917 488.552,166.337 487.627,164.754 486.758,163.292 485.895,161.899 485.009,160.449 484.087,158.968 483.184,157.522 482.199,156.058 481.221,154.57 480.25,153.137 479.303,151.781 478.35,150.412 477.324,148.991 476.309,147.601 475.184,146.072 474.125,144.676 473.207,143.488 472.096,142.056 471.029,140.727 469.924,139.344 468.849,138.082 467.717,136.702 466.63,135.415 465.445,134.067 464.339,132.857 463.259,131.63 461.977,130.23 460.814,129.003 459.673,127.76 458.394,126.464 457.262,125.318 456.019,124.005 454.761,122.8 453.537,121.572 452.315,120.343 450.983,119.047 449.786,117.888 448.774,116.912 447.359,115.481 446.102,114.341 444.907,113.12 443.645,111.852 442.369,110.638 441.108,109.399 440.015,108.27 438.678,106.95 437.468,105.733 436.328,104.512 435.11,103.243 433.974,102.012 432.774,100.665 431.572,99.311 430.574,98.099 429.425,96.708 428.26,95.244 427.286,93.957 426.232,92.545 425.157,91.064 424.196,89.664 423.27,88.276 422.344,86.87 421.463,85.428 420.632,84.068 419.696,82.468 418.96,81.123 418.141,79.627 417.288,77.998 416.58,76.527 415.868,75.072 415.029,73.275 414.35,71.696 413.747,70.315 412.975,68.502 412.298,66.911 411.702,65.407 411.03,63.795 410.287,62.015 409.592,60.313 409.013,58.933 408.35,57.333 407.63,55.627 406.94,54.023 406.211,52.365 405.508,50.817 404.767,49.297 403.919,47.758 402.922,46.198 401.854,44.794 400.665,43.533 399.352,42.439 398.065,41.607 396.821,40.996 395.378,40.494 393.819,40.153 392.159,40.0 390.256,40.052 388.51,40.292 386.903,40.659 385.2,41.168 383.523,41.765 382.01,42.375 380.425,43.066 378.821,43.801 377.182,44.608 375.63,45.444 374.155,46.333 372.767,47.283 371.348,48.421 369.981,49.732 368.812,51.1 367.92,52.365 367.204,53.584 366.561,54.918 365.98,56.406 365.544,57.899 365.241,59.409 365.057,61.101 365.029,62.964 365.168,64.937 365.464,66.713 365.853,68.337 366.346,70.034 366.888,71.692 367.493,73.401 368.077,74.898 368.789,76.674 369.516,78.421 370.132,79.877 370.777,81.325 371.451,82.763 372.118,84.344 372.894,86.137 373.418,87.505 374.096,89.181 374.661,90.579 375.45,92.397 376.189,94.16 376.861,95.788 377.436,97.293 378.085,98.792 378.758,100.427 379.534,102.399 380.155,103.859 380.689,105.307 381.262,106.871 382.039,108.765 382.708,110.467 383.181,111.744 383.742,113.275 384.414,114.886 385.099,116.769 385.711,118.429 386.3,120.05 386.827,121.505 387.396,123.084 388.079,125.049 388.62,126.657 389.026,127.929 389.63,129.749 390.143,131.481 390.649,133.075 391.123,134.661 391.655,136.654 391.977,137.736 392.456,139.633 392.913,141.585 393.218,142.749 393.596,144.648 393.941,146.232 394.201,147.684 394.438,149.007 394.809,151.379 395.049,152.972 395.2,154.282 395.533,156.655 395.604,157.793 395.812,159.38 396.0,161.265 396.145,162.958 396.175,163.335 396.523,167.293" fill="none" stroke="white" stroke-width="4"
            stroke-linejoin="round" stroke-linecap="round"/>
  <line x1="376.545" y1="168.227" x2="416.501" y2="166.359" stroke="red" stroke-width="3" stroke-linecap="round"/>
</svg>
