<?xml version="1.0" encoding="utf-8"?>
<svg xmlns="http://www.w3.org/2000/svg" width="1000" height="600">
  <polyline points="770.633,243.033 768.124,243.844 765.658,244.59 763.217,245.389 760.699,246.144 758.238,246.952 755.735,247.735 753.254,248.539 750.806,249.309 748.346,250.131 745.853,250.93 743.394,251.717 740.87,252.535 738.399,253.364 735.903,254.156 733.487,254.967 731.04,255.79 728.515,256.596 726.085,257.404 723.592,258.223 721.146,259.027 718.67,259.844 716.187,260.675 713.708,261.467 711.228,262.296 708.768,263.086 706.304,263.903 703.849,264.699 701.391,265.51 698.883,266.34 696.454,267.159 694.003,267.978 691.502,268.769 689.003,269.643 686.537,270.45 684.073,271.261 681.662,272.073 679.179,272.9 676.694,273.724 674.242,274.517 671.788,275.337 669.307,276.179 666.877,276.964 664.442,277.79 661.942,278.626 659.361,279.471 656.948,280.288 654.528,281.088 652.047,281.931 649.501,282.781 647.045,283.616 644.635,284.432 642.166,285.262 639.641,286.12 637.16,286.957 634.71,287.807 632.229,288.652 629.751,289.504 627.289,290.354 624.844,291.233 622.395,292.178 620.005,293.245 617.665,294.448 615.386,295.906 613.298,297.702 611.725,299.573 610.753,301.199 610.162,302.788 609.82,304.737 609.851,307.253 610.055,309.967 610.102,312.407 609.893,314.488 609.355,316.354 608.488,318.096 607.172,319.698 605.342,321.107 602.981,322.166 600.337,322.784 597.627,322.953 594.959,322.717 592.359,322.227 589.777,321.538 587.249,320.716 584.771,319.77 582.331,318.791 579.937,317.832 577.572,316.958 575.186,316.18 572.724,315.48 570.265,314.881 567.784,314.369 565.33,313.97 562.822,313.657 560.308,313.432 557.724,313.3 555.178,313.26 552.615,313.29 550.056,313.389 547.46,313.551 544.888,313.766 542.291,314.023 539.736,314.334 537.18,314.665 534.585,315.032 531.97,315.412 529.444,315.798 526.869,316.185 524.249,316.578 521.706,316.968 519.117,317.369 516.57,317.749 514.007,318.137 511.415,318.533 508.854,318.917 506.28,319.317 503.677,319.702 501.099,320.079 498.577,320.455 495.967,320.837 493.383,321.211 490.82,321.575 488.233,321.929 485.673,322.282 483.118,322.619 480.552,322.963 477.958,323.308 475.381,323.66 472.843,324.041 470.301,324.526 467.751,325.213 465.181,326.199 462.962,327.361 461.293,328.508 459.643,329.914 457.822,331.792 456.122,333.929 454.706,336.076 453.474,338.197 452.226,340.348 450.909,342.436 449.454,344.432 447.865,346.292 446.13,348.035 444.248,349.661 442.255,351.138 440.14,352.473 437.959,353.632 435.686,354.63 433.331,355.46 430.91,356.112 428.459,356.581 426.001,356.869 423.531,356.982 421.05,356.932 418.537,356.712 416.048,356.322 413.573,355.766 411.166,355.054 408.809,354.194 406.491,353.189 404.196,352.053 401.919,350.84 399.575,349.57 397.25,348.368 394.967,347.289 392.658,346.328 390.291,345.486 387.902,344.783 385.445,344.207 382.949,343.774 380.49,343.492 378.053,343.356 375.481,343.365 372.912,343.529 370.374,343.849 367.86,344.32 365.348,344.955 362.866,345.757 360.416,346.724 358.054,347.834 355.831,349.052 353.745,350.362 351.766,351.767 349.888,353.252 348.087,354.844 346.273,356.611 344.45,358.481 342.597,360.396 340.706,362.245 338.793,363.945 336.871,365.469 334.953,366.805 332.968,368.022 330.903,369.123 328.661,370.141 326.233,371.059 323.674,371.842 321.09,372.459 318.431,372.909 315.869,373.186 313.26,373.318 310.649,373.347 308.071,373.287 305.463,373.144 302.889,372.883 300.242,372.456 297.634,371.839 295.117,371.038 292.707,370.062 290.449,368.949 288.274,367.673 286.27,366.299 284.376,364.795 282.571,363.15 280.903,361.403 279.316,359.488 277.872,357.476 276.525,355.329 275.238,353.067 273.959,350.765 272.633,348.522 271.219,346.381 269.751,344.431 268.207,342.642 266.52,340.931 264.7,339.317 262.786,337.845 260.771,336.502 258.603,335.255 256.186,334.074 253.718,333.074 251.15,332.223 248.661,331.559 246.179,331.005 243.698,330.508 241.201,330.038 238.681,329.551 236.215,329.059 233.726,328.521 231.171,327.967 228.705,327.396 226.18,326.818 223.574,326.214 221.134,325.669 218.527,325.07 215.894,324.509 213.448,323.971 210.971,323.445 208.497,322.981 206.015,322.49 203.494,322.07 200.924,321.66 198.353,321.287 195.761,320.96 193.242,320.659 190.685,320.404 188.079,320.148 185.49,319.923 182.871,319.722 180.306,319.559 177.721,319.386 175.096,319.242 172.567,319.134 169.927,319.023 167.383,318.945 164.752,318.887 162.145,318.849 159.647,318.826 157.043,318.824 154.395,318.806 151.799,318.825 149.191,318.888 146.561,318.91 143.982,318.949 141.317,318.997 138.768,319.063 136.208,319.128 133.557,319.164 130.943,319.25 128.352,319.321 125.833,319.378 123.255,319.475 120.593,319.549 117.951,319.622 115.374,319.723 112.772,319.807 110.197,319.913 107.577,320.027 105.03,320.114 102.39,320.221 99.853,320.328 97.246,320.432 94.59,320.54 92.055,320.643 89.397,320.762 86.897,320.863 84.311,320.968 81.59,321.106 78.955,321.201 76.421,321.35 73.902,321.445 71.196,321.584 68.612,321.786 65.972,321.993 63.379,322.336 60.815,322.74 58.147,323.364 55.625,324.098 53.185,325.033 50.869,326.158 48.761,327.453 46.78,329.018 45.055,330.735 43.544,332.664 42.261,334.768 41.252,337.032 40.539,339.36 40.106,341.771 40.0,344.156 40.181,346.568 40.655,349.01 41.413,351.352 42.428,353.524 43.688,355.61 45.19,357.57 46.921,359.388 48.846,361.043 50.937,362.517 53.201,363.8 55.643,364.883 58.216,365.744 60.83,366.351 63.43,366.721 66.128,366.874 68.729,366.819 71.433,366.555 74.124,366.095 76.716,365.476 79.288,364.686 81.741,363.765 84.185,362.691 86.533,361.501 88.832,360.19 91.09,358.796 93.265,357.39 95.392,356.016 97.658,354.582 99.829,353.229 102.073,351.892 104.331,350.612 106.444,349.468 108.779,348.285 111.168,347.163 113.531,346.134 115.899,345.184 118.285,344.311 120.636,343.535 123.046,342.808 125.492,342.155 128.036,341.563 130.576,341.057 133.104,340.632 135.631,340.29 138.103,340.032 140.625,339.84 143.159,339.73 145.696,339.706 148.265,339.737 150.883,339.867 153.403,340.066 155.945,340.36 158.537,340.735 161.0,341.158 163.469,341.679 165.934,342.264 168.351,342.912 170.826,343.681 173.213,344.479 175.642,345.376 177.988,346.318 180.41,347.346 182.664,348.327 184.981,349.339 187.472,350.429 189.889,351.414 192.224,352.321 194.758,353.212 197.247,354.029 199.676,354.727 202.173,355.411 204.682,356.005 207.21,356.528 209.751,356.997 212.296,357.397 214.833,357.75 217.337,358.055 219.916,358.381 222.405,358.746 225.012,359.25 227.637,359.929 230.154,360.786 232.417,361.776 234.617,362.983 236.534,364.264 238.359,365.736 240.04,367.343 241.646,369.152 243.202,371.206 244.63,373.429 245.9,375.735 247.094,378.082 248.209,380.254 249.415,382.384 250.715,384.388 252.17,386.329 253.764,388.165 255.491,389.883 257.361,391.505 259.411,393.032 261.532,394.387 263.805,395.632 266.279,396.751 268.708,397.652 271.245,398.398 273.791,398.976 276.448,399.423 279.036,399.711 281.601,399.884 284.26,399.956 286.944,399.95 289.525,399.852 292.112,399.659 294.706,399.397 297.326,399.038 300.006,398.618 302.596,398.125 305.15,397.542 307.639,396.911 310.063,396.237 312.542,395.524 315.004,394.689 317.489,393.855 320.002,392.936 322.483,392.012 324.838,391.083 327.183,390.13 329.642,389.147 331.964,388.16 334.352,387.151 336.672,386.173 339.091,385.155 341.482,384.117 343.874,383.159 346.244,382.173 348.637,381.201 351.077,380.258 353.535,379.337 355.901,378.511 358.469,377.633 361.014,376.843 363.571,376.082 366.019,375.424 368.452,374.794 370.922,374.186 373.377,373.659 375.97,373.138 378.428,372.664 381.044,372.253 383.64,371.85 386.172,371.554 388.687,371.27 391.256,371.051 393.729,370.857 396.258,370.749 398.946,370.62 401.431,370.551 403.913,370.499 406.537,370.435 409.295,370.391 411.887,370.25 414.612,370.12 417.05,369.949 419.556,369.764 422.183,369.496 424.753,369.198 427.229,368.841 429.735,368.45 432.374,368.03 434.989,367.472 437.416,366.964 440.039,366.398 442.415,365.736 444.994,365.079 447.47,364.343 449.845,363.581 452.25,362.787 454.71,361.928 457.144,360.986 459.411,360.077 461.753,359.059 464.112,358.013 466.39,356.961 468.617,355.879 471.058,354.586 473.212,353.465 475.609,352.161 477.95,350.885 480.226,349.63 482.407,348.42 484.478,347.259 486.895,345.983 489.29,344.747 491.602,343.56 493.769,342.453 496.155,341.354 498.774,340.206 501.196,339.205 503.442,338.274 505.716,337.397 508.125,336.561 510.507,335.762 512.986,334.95 515.664,334.143 518.075,333.517 520.447,332.889 523.276,332.227 525.873,331.652 527.998,331.304 530.374,330.832 533.147,330.415 535.992,330.018 538.423,329.732 540.861,329.557 543.305,329.316 546.111,329.157 548.771,329.063 551.217,329.022 553.78,329.018 556.392,329.039 559.031,329.143 561.656,329.307 564.127,329.503 566.739,329.719 569.253,329.996 571.629,330.326 574.431,330.735 577.009,331.135 579.535,331.589 582.017,332.078 584.502,332.555 587.156,333.075 589.781,333.591 592.301,334.048 594.895,334.429 597.412,334.689 600.031,334.82 602.658,334.772 605.208,334.498 607.703,334.086 609.985,333.504 612.165,332.795 614.434,331.878 616.682,330.733 618.945,329.358 621.057,327.885 623.052,326.233 624.977,324.449 626.83,322.567 628.517,320.785 630.246,318.988 632.048,317.305 633.895,315.684 635.824,314.214 637.93,312.755 640.126,311.411 642.308,310.219 644.609,309.131 647.063,308.096 649.563,307.219 652.042,306.465 654.589,305.865 657.2,305.356 659.843,305.011 662.284,304.796 664.886,304.678 667.558,304.691 670.113,304.796 672.521,304.973 674.971,305.281 677.385,305.653 679.749,306.164 682.25,306.756 684.76,307.447 687.291,308.248 689.883,309.16 692.355,310.124 694.663,311.069 696.966,312.066 699.372,313.215 701.82,314.447 703.895,315.542 706.124,316.753 708.471,318.045 710.883,319.405 713.111,320.66 715.11,321.845 717.394,323.194 719.837,324.527 722.118,325.719 724.355,326.896 726.496,327.997 729.018,329.118 731.688,330.267 733.898,331.145 736.153,332.008 738.47,332.868 741.092,333.741 743.781,334.585 746.136,335.217 748.314,335.839 750.832,336.439 753.662,337.056 756.41,337.578 758.606,337.92 760.959,338.277 763.682,338.622 766.315,338.837 768.848,339.044 771.265,339.171 773.95,339.251 776.503,339.265 778.945,339.204 781.633,339.141 784.269,339.016 786.967,338.781 789.32,338.561 791.852,338.318 794.55,337.974 797.174,337.598 799.609,337.225 802.3,336.76 804.863,336.283 807.411,335.782 809.868,335.236 812.377,334.689 814.956,334.045 817.422,333.437 820.019,332.731 822.416,332.004 825.067,331.217 827.533,330.407 829.778,329.705 832.416,328.778 834.978,327.857 837.305,326.995 839.666,326.124 842.142,325.161 844.543,324.05 847.019,323.033 849.325,322.16 851.76,320.953 854.092,319.785 856.313,318.923 858.77,317.712 861.084,316.493 863.213,315.34 865.575,314.202 867.974,312.854 870.052,311.635 872.242,310.403 874.543,309.13 876.91,307.684 878.964,306.34 881.089,305.006 883.286,303.64 885.58,302.193 887.746,300.571 889.829,299.148 891.815,297.771 893.995,296.078 895.941,294.497 897.938,293.054 900.083,291.296 902.09,289.574 903.961,287.958 905.881,286.383 907.881,284.556 909.816,282.786 911.511,281.232 913.552,279.338 915.473,277.355 917.219,275.616 919.026,273.884 920.972,271.821 922.695,270.05 924.158,268.341 926.148,266.133 928.049,264.131 929.493,262.348 931.056,260.345 932.919,258.172 934.714,256.087 936.084,254.259 937.704,252.135 939.415,250.004 940.984,247.906 942.504,245.977 943.882,243.995 945.681,241.744 947.393,239.55 948.962,237.44 950.434,235.362 951.955,233.265 953.521,231.024 954.951,228.79 956.21,226.551 957.425,224.223 958.5,221.815 959.361,219.318 959.843,216.973 960.0,214.651 959.874,212.264 959.26,210.058 958.456,207.982 957.281,206.025 955.759,204.281 953.965,202.765 951.897,201.572 949.743,200.717 947.401,200.229 944.788,200.044 942.158,200.079 939.601,200.315 936.987,200.682 934.532,201.243 931.971,201.771 929.497,202.362 926.96,203.052 924.26,203.69 921.779,204.364 919.374,204.924 917.003,205.494 914.509,206.094 911.894,206.741 909.22,207.4 906.84,207.95 904.316,208.531 901.802,209.108 899.256,209.713 896.649,210.288 894.066,210.92 891.629,211.473 889.09,212.05 886.683,212.524 883.975,213.09 881.817,213.605 879.137,214.215 876.495,214.75 873.938,215.398 871.424,215.914 868.839,216.463 866.232,217.075 863.727,217.61 861.254,218.249 858.825,218.857 856.14,219.482 853.519,220.132 851.226,220.68 848.774,221.294 846.104,222.002 843.371,222.686 841.1,223.248 838.683,223.867 836.2,224.534 833.638,225.211 830.834,225.916 828.47,226.504 825.983,227.275 823.949,227.774 820.902,228.592 818.356,229.288 816.033,229.916 813.989,230.547 811.022,231.326 808.319,232.078 806.121,232.724 803.761,233.417 800.851,234.26 798.541,234.975 796.608,235.473 793.583,236.354 791.186,237.085 788.514,237.911 786.764,238.408 783.718,239.362 781.522,240.172 778.726,240.96 778.444,240.934 774.464,242.369 770.633,243.033" fill="none" stroke="white" stroke-width="4"
            stroke-linejoin="round" stroke-linecap="round"/>
</svg>
