<?xml version="1.0" encoding="utf-8"?>
<svg xmlns="http://www.w3.org/2000/svg" width="1000" height="600">
  <polyline points="893.053,133.739 890.644,131.24 888.261,128.841 885.785,126.473 883.275,124.155 880.726,121.856 878.184,119.588 875.643,117.349 873.08,115.09 870.529,112.851 867.953,110.588 865.339,108.296 862.796,106.049 860.294,103.847 857.74,101.583 855.138,99.29 852.552,96.994 850.03,94.744 847.479,92.454 844.946,90.185 842.456,87.939 839.892,85.613 837.338,83.29 834.826,81.003 832.264,78.68 829.733,76.377 827.219,74.097 824.663,71.785 822.132,69.515 819.574,67.236 816.985,64.967 814.348,62.731 811.686,60.591 808.938,58.569 806.024,56.687 802.918,54.986 799.621,53.54 796.255,52.491 793.144,51.955 790.371,51.841 787.685,52.047 784.928,52.591 782.099,53.55 779.269,54.991 776.56,56.914 774.086,59.311 771.972,62.104 770.277,65.22 769.064,68.596 768.399,72.101 768.235,75.658 768.481,79.229 769.116,82.728 770.145,86.117 771.516,89.352 773.153,92.403 775.013,95.316 777.047,98.071 779.204,100.674 781.474,103.202 783.806,105.655 786.133,108.058 788.443,110.454 790.759,112.93 793.019,115.504 795.146,118.174 797.132,120.999 798.951,124.007 800.518,127.073 801.821,130.148 802.884,133.26 803.708,136.378 804.307,139.531 804.68,142.718 804.826,145.921 804.741,149.192 804.411,152.503 803.841,155.785 803.025,159.043 801.991,162.183 800.711,165.287 799.182,168.321 797.453,171.193 795.484,173.98 793.304,176.633 790.965,179.088 788.455,181.39 785.788,183.516 782.97,185.491 780.043,187.267 777.009,188.86 773.815,190.268 770.499,191.459 767.149,192.419 763.768,193.165 760.324,193.735 756.891,194.154 753.477,194.443 750.078,194.624 746.641,194.74 743.137,194.803 739.731,194.837 736.337,194.863 732.918,194.892 729.514,194.918 726.111,194.938 722.676,194.972 719.264,194.993 715.881,195.023 712.468,195.052 709.065,195.083 705.675,195.108 702.246,195.136 698.825,195.161 695.422,195.202 692.049,195.239 688.62,195.28 685.216,195.327 681.82,195.371 678.367,195.429 674.917,195.478 671.532,195.556 668.182,195.613 664.751,195.689 661.292,195.755 657.945,195.85 654.56,195.921 651.073,196.007 647.717,196.1 644.337,196.179 640.871,196.269 637.488,196.36 634.062,196.446 630.643,196.534 627.259,196.624 623.818,196.713 620.429,196.8 617.002,196.891 613.575,196.981 610.175,197.061 606.751,197.157 603.328,197.241 599.931,197.335 596.556,197.415 593.141,197.506 589.731,197.6 586.31,197.696 582.867,197.787 579.466,197.876 576.089,197.972 572.681,198.068 569.24,198.168 565.855,198.276 562.435,198.377 558.974,198.49 555.603,198.591 552.19,198.693 548.721,198.794 545.285,198.898 541.937,198.982 538.542,199.087 535.088,199.181 531.703,199.27 528.319,199.362 524.869,199.459 521.426,199.559 518.06,199.647 514.653,199.757 511.251,199.849 507.839,199.942 504.411,200.043 500.997,200.132 497.582,200.233 494.184,200.331 490.781,200.419 487.408,200.507 483.997,200.604 480.531,200.702 477.068,200.786 473.663,200.875 470.264,200.962 466.859,201.038 463.476,201.125 460.106,201.207 456.658,201.292 453.146,201.366 449.767,201.451 446.366,201.519 442.922,201.596 439.508,201.676 436.093,201.742 432.68,201.817 429.246,201.889 425.784,201.959 422.348,202.021 418.93,202.072 415.52,202.091 412.044,202.045 408.631,201.884 405.216,201.532 401.773,200.872 398.444,199.811 395.488,198.43 393.034,196.864 390.972,195.062 389.13,192.93 387.421,190.279 386.0,187.107 385.042,183.697 384.506,180.311 384.274,176.9 384.262,173.495 384.405,170.088 384.684,166.686 385.053,163.257 385.441,159.863 385.817,156.485 386.2,153.091 386.565,149.662 386.871,146.224 387.133,142.81 387.333,139.399 387.457,136.022 387.498,132.612 387.46,129.22 387.317,125.812 387.077,122.356 386.733,118.953 386.275,115.59 385.712,112.227 385.027,108.862 384.236,105.589 383.333,102.34 382.294,99.077 381.152,95.903 379.918,92.82 378.573,89.802 377.115,86.82 375.533,83.859 373.835,80.962 372.037,78.145 370.144,75.414 368.16,72.773 366.019,70.133 363.83,67.629 361.52,65.181 359.194,62.895 356.687,60.605 354.117,58.431 351.553,56.412 348.765,54.364 345.977,52.464 343.057,50.592 340.109,48.817 337.08,47.119 334.079,45.565 330.869,44.072 327.65,42.765 324.336,41.643 320.927,40.747 317.476,40.169 313.955,40.0 310.443,40.333 306.983,41.291 303.861,42.807 301.575,44.453 299.923,46.021 298.126,48.238 296.281,51.312 294.716,54.268 293.212,56.838 291.552,59.111 289.524,61.17 287.045,62.911 284.24,64.147 281.129,64.84 277.863,64.955 274.528,64.453 271.324,63.371 268.316,61.857 265.431,59.967 262.696,57.916 259.893,55.824 257.045,53.907 254.016,52.237 250.811,50.956 247.372,50.234 243.914,50.173 240.869,50.755 238.206,51.813 235.872,53.232 233.733,55.089 231.823,57.412 230.156,60.408 229.027,63.773 228.41,67.182 228.09,70.563 227.952,73.97 227.9,77.424 227.88,80.733 227.881,84.179 227.904,87.58 227.939,91.03 227.952,94.402 227.991,97.789 228.029,101.185 228.044,104.5 228.116,107.901 228.116,111.399 228.15,114.82 228.157,118.183 228.181,121.598 228.144,125.025 228.142,128.456 228.102,131.835 228.062,135.224 228.038,138.687 227.983,142.076 227.904,145.347 227.879,148.761 227.785,152.37 227.729,155.765 227.676,159.115 227.616,162.508 227.553,165.855 227.479,169.324 227.396,172.776 227.315,176.133 227.204,179.54 227.089,183.025 226.952,186.325 226.79,189.577 226.556,193.003 226.276,196.431 225.912,200.006 225.531,203.293 225.075,206.641 224.569,209.894 223.99,213.234 223.329,216.582 222.614,219.908 221.803,223.266 220.974,226.424 220.027,229.714 218.99,232.991 217.882,236.181 216.737,239.229 215.393,242.454 213.985,245.554 212.591,248.378 210.982,251.375 209.248,254.33 207.529,257.06 205.658,259.796 203.672,262.492 201.615,265.09 199.432,267.639 197.182,270.084 194.785,272.486 192.368,274.77 189.806,277.007 187.299,279.035 184.638,281.062 181.794,283.075 179.091,284.844 176.214,286.604 173.171,288.304 170.113,289.889 167.012,291.418 163.664,292.94 160.562,294.238 157.25,295.581 153.999,296.875 150.844,298.068 147.702,299.26 144.754,300.36 141.522,301.538 138.373,302.723 135.283,303.875 132.245,305.029 129.017,306.358 125.851,307.762 122.853,309.187 119.795,310.788 116.838,312.474 113.958,314.257 111.125,316.163 108.32,318.221 105.669,320.292 103.102,322.488 100.408,324.979 97.947,327.463 95.631,330.0 93.353,332.701 91.294,335.345 89.268,338.159 87.485,340.842 85.787,343.642 84.056,346.72 82.473,349.843 81.049,352.955 79.721,356.106 78.49,359.403 77.419,362.589 76.39,366.024 75.47,369.469 74.629,372.94 73.887,376.297 73.196,379.707 72.552,383.114 71.926,386.469 71.331,389.849 70.758,393.233 70.264,396.697 69.941,400.029 69.914,403.569 70.345,407.074 71.371,410.458 72.701,413.078 74.089,414.946 76.151,417.068 78.982,419.171 81.911,420.825 84.894,422.271 87.862,423.608 90.886,424.949 94.044,426.363 97.132,427.78 100.174,429.223 103.225,430.631 106.308,432.167 109.395,433.631 112.426,435.137 115.434,436.648 118.406,438.158 121.537,439.743 124.697,441.361 127.628,442.862 130.61,444.419 133.77,446.067 136.661,447.657 139.607,449.222 142.557,450.825 145.459,452.381 148.581,454.083 151.604,455.758 154.512,457.346 157.471,459.0 160.454,460.617 163.45,462.293 166.402,463.929 169.363,465.547 172.442,467.241 175.48,468.916 178.389,470.55 181.329,472.122 184.346,473.768 187.365,475.415 190.298,476.979 193.353,478.674 196.428,480.293 199.364,481.883 202.503,483.472 205.481,485.038 208.412,486.595 211.543,488.141 214.608,489.614 217.561,491.117 220.553,492.588 223.79,494.117 226.922,495.568 229.864,496.922 232.954,498.37 235.969,499.748 239.256,501.133 242.374,502.554 245.594,503.913 248.794,505.267 251.968,506.59 254.843,507.752 258.042,509.03 261.352,510.372 264.348,511.5 267.631,512.756 270.878,513.989 274.131,515.17 277.212,516.239 280.115,517.299 283.376,518.448 286.884,519.616 290.104,520.677 293.322,521.725 296.453,522.747 299.645,523.709 302.995,524.751 306.404,525.821 309.658,526.743 312.797,527.618 315.978,528.527 319.193,529.427 322.696,530.336 326.162,531.338 329.28,532.065 332.548,532.914 335.74,533.711 339.273,534.579 342.631,535.373 345.648,536.032 349.114,536.808 352.495,537.587 355.843,538.302 359.116,538.944 362.391,539.636 365.719,540.287 369.152,540.932 372.591,541.623 375.951,542.177 378.989,542.701 382.51,543.342 386.139,543.919 389.192,544.403 392.431,544.863 396.104,545.426 399.541,545.914 402.58,546.334 406.014,546.779 409.651,547.239 412.776,547.608 416.134,547.995 419.84,548.423 422.952,548.757 426.159,549.085 429.84,549.441 433.249,549.806 436.434,550.063 439.955,550.3 443.319,550.658 446.725,550.871 450.278,551.101 453.453,551.305 456.84,551.534 460.229,551.693 463.726,551.914 467.096,552.016 470.525,552.112 473.961,552.321 477.349,552.33 480.604,552.462 484.106,552.562 487.735,552.606 491.136,552.635 494.36,552.68 497.979,552.788 501.205,552.666 504.528,552.699 508.173,552.824 511.474,552.733 514.745,552.755 518.333,552.813 521.813,552.713 525.055,552.746 528.554,552.774 532.067,552.839 535.429,552.7 538.853,552.762 542.299,552.848 545.659,552.79 549.083,552.706 552.331,552.805 555.989,552.813 559.453,552.791 562.571,552.794 566.113,552.831 569.442,552.874 573.038,552.796 576.432,552.923 579.749,552.939 583.191,552.889 586.346,552.929 590.001,553.043 593.505,552.999 596.611,552.974 600.276,553.156 603.692,553.097 606.951,553.189 610.469,553.273 614.054,553.284 617.424,553.413 620.496,553.57 623.991,553.514 627.627,553.663 630.83,553.848 634.308,553.66 637.342,554.034 640.957,553.974 644.616,554.016 648.127,554.114 651.305,554.186 654.657,554.371 658.293,554.347 661.437,554.507 665.11,554.565 668.586,554.678 671.655,554.8 675.129,554.809 678.879,554.975 682.075,555.245 685.389,555.043 688.983,555.276 692.19,555.495 695.913,555.329 699.243,555.653 702.326,555.654 705.969,555.627 709.375,555.682 712.862,556.143 716.177,555.905 719.711,556.172 722.828,556.255 726.352,556.267 729.818,556.393 733.352,556.565 736.515,556.689 740.081,556.624 743.314,556.813 746.648,557.06 750.588,557.077 753.702,557.112 756.907,557.426 760.735,557.355 764.137,557.627 767.023,557.594 770.772,557.718 774.464,557.765 777.556,558.148 780.893,557.992 784.512,558.164 787.925,558.52 791.108,558.317 794.328,558.508 798.204,558.695 801.449,558.717 804.571,558.917 808.433,559.086 811.813,559.051 814.76,559.281 818.586,559.447 822.145,559.277 825.252,559.528 828.835,559.686 832.254,559.62 835.787,559.636 838.888,559.881 842.426,559.828 846.006,559.77 849.403,559.867 852.714,559.962 856.045,559.917 859.592,559.931 863.162,559.932 866.646,559.972 870.008,560.0 873.596,559.93 876.985,559.957 880.432,559.939 883.872,559.766 887.251,559.546 890.751,558.993 894.27,558.039 897.541,556.423 900.004,554.791 901.683,553.13 903.308,551.061 904.792,548.147 905.838,544.68 906.525,541.367 907.29,538.442 908.105,535.895 909.502,533.094 911.273,530.142 913.282,527.462 915.422,524.817 917.552,522.195 919.588,519.518 921.505,516.719 923.195,513.997 924.67,511.179 925.83,508.552 926.972,505.551 927.986,502.147 928.682,498.919 929.268,495.423 929.736,491.931 929.969,488.659 930.063,485.356 930.086,481.849 930.061,478.478 929.987,475.215 929.949,471.939 929.852,468.309 929.732,464.714 929.665,461.287 929.55,457.782 929.458,454.518 929.375,450.998 929.336,447.681 929.203,444.436 929.13,441.037 929.033,437.584 928.989,434.227 928.831,430.797 928.912,427.386 928.905,423.795 928.759,420.752 928.651,417.224 928.65,413.421 928.747,410.168 928.502,407.118 928.498,403.622 928.48,399.883 928.414,396.517 928.526,393.405 928.378,389.808 928.406,386.377 928.472,383.073 928.504,379.742 928.318,376.212 928.3,372.718 928.509,369.899 928.341,366.026 928.267,362.321 928.438,359.167 928.392,356.005 928.396,352.325 928.382,348.628 928.475,345.544 928.373,342.18 928.529,338.701 928.526,335.223 928.6,332.081 928.649,328.519 928.711,324.975 928.806,321.947 928.864,318.378 928.87,314.892 929.027,311.513 929.056,307.923 929.129,304.519 929.22,301.728 929.253,297.885 929.309,294.123 929.379,291.242 929.484,287.475 929.441,283.917 929.58,281.08 929.642,277.287 929.639,273.881 929.727,270.815 929.728,266.916 929.763,263.717 929.844,260.529 929.797,256.777 929.832,253.606 929.895,250.257 929.868,246.382 929.892,243.104 929.888,240.023 929.893,236.098 929.888,232.512 929.844,229.93 929.824,226.055 929.716,222.713 929.615,219.346 929.405,216.065 929.162,212.85 928.765,209.143 928.307,205.629 927.835,202.478 927.182,198.984 926.459,195.508 925.697,192.336 924.843,189.141 923.796,185.572 922.69,182.296 921.767,179.593 920.431,176.104 919.132,173.103 918.097,170.654 916.477,167.195 915.086,164.598 913.35,161.222 911.988,158.975 910.186,155.932 908.333,152.896 906.565,150.465 904.656,147.563 902.405,144.477 900.921,142.156 898.467,139.668 896.531,137.422 893.053,133.739" fill="none" stroke="white" stroke-width="4"
            stroke-linejoin="round" stroke-linecap="round"/>
</svg>
