<?xml version="1.0" encoding="utf-8"?>
<svg xmlns="http://www.w3.org/2000/svg" width="1000" height="600">
  <polyline points="564.864,470.932 562.366,472.287 559.942,473.644 557.452,475.03 554.983,476.409 552.541,477.77 550.06,479.131 547.619,480.491 545.157,481.871 542.645,483.285 540.193,484.638 537.753,486.021 535.279,487.426 532.812,488.769 530.396,490.165 527.908,491.514 525.459,492.9 522.963,494.316 520.5,495.66 518.045,497.07 515.574,498.434 513.119,499.838 510.682,501.209 508.277,502.58 505.783,503.987 503.286,505.387 500.845,506.805 498.383,508.206 495.951,509.577 493.521,510.961 491.075,512.348 488.647,513.733 486.12,515.149 483.658,516.57 481.192,517.926 478.743,519.319 476.313,520.705 473.838,522.073 471.418,523.449 468.953,524.833 466.458,526.229 463.989,527.633 461.534,528.992 459.097,530.392 456.663,531.745 454.189,533.202 451.707,534.539 449.251,535.966 446.801,537.346 444.298,538.733 441.875,540.105 439.431,541.513 436.941,542.858 434.532,544.259 432.014,545.639 429.502,547.052 427.051,548.432 424.592,549.769 422.096,551.151 419.671,552.461 417.125,553.767 414.55,555.028 411.948,556.224 409.274,557.295 406.548,558.232 403.787,559.002 400.976,559.547 398.187,559.902 395.443,560.0 392.754,559.9 390.112,559.551 387.542,558.953 385.058,558.111 382.693,557.047 380.452,555.792 378.34,554.318 376.382,552.655 374.565,550.843 372.93,548.83 371.48,546.681 370.215,544.403 369.19,541.986 368.384,539.471 367.811,536.875 367.47,534.167 367.401,531.387 367.564,528.579 367.994,525.745 368.678,522.865 369.6,520.061 370.684,517.405 371.938,514.843 373.295,512.393 374.777,509.982 376.371,507.629 378.023,505.348 379.757,503.141 381.573,500.928 383.392,498.77 385.28,496.593 387.147,494.439 388.996,492.266 390.828,490.071 392.623,487.831 394.361,485.582 396.015,483.358 397.64,481.061 399.204,478.761 400.734,476.322 402.171,473.847 403.496,471.325 404.72,468.738 405.786,466.069 406.677,463.28 407.337,460.473 407.742,457.677 407.872,454.924 407.746,452.232 407.387,449.577 406.798,447.009 405.978,444.508 404.944,442.14 403.699,439.855 402.292,437.711 400.676,435.677 398.922,433.81 397.003,432.093 394.821,430.468 392.526,429.044 390.068,427.798 387.464,426.728 384.712,425.843 381.902,425.15 379.088,424.637 376.268,424.27 373.407,424.025 370.608,423.907 367.808,423.888 364.991,423.957 362.121,424.097 359.277,424.281 356.472,424.496 353.668,424.708 350.838,424.955 348.068,425.163 345.229,425.374 342.399,425.527 339.605,425.64 336.796,425.682 333.999,425.642 331.171,425.506 328.383,425.264 325.675,424.923 323.05,424.478 320.408,423.927 317.87,423.275 315.357,422.547 312.786,421.651 310.247,420.677 307.746,419.58 305.227,418.361 302.695,416.995 300.252,415.565 297.853,414.034 295.456,412.393 293.199,410.718 290.977,409.004 288.78,407.2 286.614,405.371 284.496,403.519 282.404,401.661 280.272,399.762 278.224,397.903 276.114,395.988 274.017,394.077 271.932,392.176 269.857,390.267 267.809,388.397 265.724,386.484 263.608,384.56 261.52,382.673 259.439,380.794 257.339,378.895 255.295,377.059 253.18,375.157 251.049,373.236 248.963,371.366 246.885,369.515 244.782,367.629 242.697,365.772 240.558,363.861 238.45,361.993 236.35,360.135 234.213,358.244 232.116,356.39 230.014,354.526 227.902,352.652 225.769,350.771 223.672,348.92 221.565,347.044 219.438,345.147 217.309,343.231 215.201,341.318 213.116,339.389 211.067,337.46 209.056,335.463 207.096,333.383 205.26,331.257 203.516,329.003 201.85,326.599 200.346,324.097 199.078,321.641 197.998,319.135 197.136,316.64 196.46,314.114 195.969,311.558 195.675,309.021 195.548,306.483 195.618,303.861 195.882,301.228 196.34,298.629 197.031,295.992 197.951,293.299 199.095,290.641 200.421,288.111 201.911,285.652 203.537,283.297 205.237,281.006 207.021,278.823 208.894,276.668 210.836,274.607 212.838,272.636 214.973,270.739 217.246,268.933 219.63,267.284 222.103,265.808 224.651,264.529 227.256,263.454 229.822,262.611 232.379,261.979 234.932,261.548 237.483,261.304 240.051,261.236 242.589,261.349 245.157,261.635 247.768,262.126 250.344,262.803 252.909,263.688 255.568,264.808 258.177,266.097 260.706,267.517 263.145,269.045 265.484,270.652 267.729,272.328 269.954,274.116 272.107,275.958 274.186,277.855 276.239,279.833 278.202,281.81 280.12,283.844 282.036,285.945 283.931,288.046 285.835,290.2 287.679,292.33 289.537,294.47 291.433,296.655 293.295,298.82 295.155,300.945 297.03,303.094 298.924,305.2 300.884,307.329 302.819,309.363 304.803,311.384 306.835,313.387 308.847,315.298 310.971,317.206 313.16,319.038 315.411,320.753 317.79,322.364 320.333,323.818 322.98,324.995 325.61,325.758 328.228,326.072 330.703,325.922 333.073,325.343 335.293,324.342 337.241,322.985 338.884,321.35 340.281,319.401 341.356,317.181 342.074,314.707 342.409,311.93 342.379,309.046 342.056,306.164 341.514,303.331 340.803,300.576 339.954,297.868 339.021,295.206 338.01,292.565 336.984,289.974 335.926,287.423 334.809,284.83 333.649,282.254 332.48,279.664 331.274,277.126 330.055,274.57 328.763,272.066 327.528,269.577 326.258,267.061 324.931,264.486 323.595,261.957 322.297,259.413 320.973,256.898 319.721,254.423 318.392,251.896 317.138,249.41 315.845,246.811 314.639,244.311 313.4,241.724 312.197,239.172 311.062,236.656 309.927,234.148 308.775,231.492 307.654,228.906 306.54,226.267 305.456,223.674 304.407,221.101 303.368,218.49 302.369,215.922 301.346,213.155 300.431,210.478 299.596,207.724 298.867,204.944 298.295,202.155 297.874,199.278 297.656,196.447 297.644,193.682 297.876,190.821 298.343,188.138 299.046,185.595 299.997,183.135 301.173,180.795 302.569,178.6 304.17,176.572 305.925,174.754 307.903,173.054 310.031,171.571 312.301,170.319 314.69,169.299 317.117,168.539 319.671,168.016 322.286,167.746 324.94,167.734 327.583,167.966 330.218,168.432 332.911,169.161 335.575,170.151 338.11,171.369 340.678,172.895 342.994,174.53 345.207,176.313 347.293,178.18 349.296,180.092 351.213,182.076 353.178,184.121 355.135,186.104 357.035,187.981 359.05,189.86 361.086,191.688 363.165,193.443 365.386,195.2 367.561,196.823 369.826,198.406 372.206,199.958 374.589,201.407 376.961,202.769 379.398,204.064 381.911,205.294 384.451,206.448 386.932,207.484 389.388,208.438 392.026,209.382 394.716,210.272 397.484,211.138 400.157,211.933 402.756,212.705 405.395,213.493 407.931,214.294 410.71,215.248 413.253,216.257 415.964,217.487 418.537,218.834 420.95,220.267 423.141,221.734 425.163,223.245 427.14,224.894 429.035,226.657 430.817,228.5 432.539,230.472 434.165,232.573 435.726,234.859 437.172,237.279 438.49,239.793 439.669,242.423 440.686,245.054 441.566,247.713 442.272,250.44 442.865,253.15 443.35,255.926 443.76,258.79 444.056,261.613 444.292,264.474 444.52,267.342 444.74,270.113 445.016,272.918 445.379,275.862 445.841,278.82 446.405,281.644 447.064,284.355 447.878,287.113 448.844,289.794 450.057,292.51 451.448,295.04 453.012,297.291 454.892,299.434 456.909,301.235 459.018,302.739 461.235,303.988 463.485,304.959 465.924,305.72 468.39,306.226 470.889,306.478 473.471,306.466 476.041,306.171 478.734,305.593 481.466,304.711 484.17,303.546 486.666,302.209 489.139,300.656 491.5,298.932 493.7,297.119 495.758,295.197 497.832,293.076 499.751,290.911 501.494,288.764 503.213,286.516 504.937,284.128 506.505,281.795 507.959,279.493 509.49,276.937 510.998,274.331 512.354,271.796 513.583,269.402 514.818,266.889 516.016,264.32 517.135,261.738 518.229,259.143 519.332,256.394 520.347,253.642 521.242,251.015 522.124,248.339 522.933,245.741 523.749,243.086 524.469,240.48 525.153,237.805 525.812,235.041 526.458,232.26 527.022,229.569 527.515,226.927 527.999,224.201 528.423,221.49 528.82,218.796 529.198,215.919 529.509,213.198 529.757,210.412 529.982,207.494 530.151,204.523 530.261,201.804 530.348,199.181 530.37,196.505 530.402,193.684 530.347,190.782 530.275,187.921 530.165,185.108 529.945,182.228 529.775,179.515 529.584,176.973 529.32,174.256 528.939,171.194 528.616,168.3 528.236,165.588 527.861,162.898 527.448,160.091 526.978,157.324 526.524,154.446 526.014,151.487 525.543,148.689 525.107,146.169 524.652,143.468 524.183,140.66 523.721,137.808 523.244,134.823 522.809,131.889 522.433,129.213 522.077,126.574 521.741,123.878 521.377,120.899 521.064,118.11 520.824,115.528 520.62,112.76 520.485,109.842 520.449,106.776 520.518,103.904 520.693,101.146 521.008,98.219 521.401,95.551 521.942,92.753 522.631,89.917 523.385,87.319 524.211,84.894 525.091,82.607 526.129,80.18 527.457,77.464 528.773,75.079 530.033,73.018 531.406,70.976 533.092,68.701 534.977,66.404 536.953,64.218 538.921,62.223 541.042,60.271 543.157,58.48 545.241,56.841 547.637,55.127 550.035,53.544 552.586,51.989 555.108,50.53 557.469,49.229 559.817,47.985 562.25,46.763 564.907,45.517 567.595,44.364 570.297,43.342 573.111,42.417 575.914,41.639 578.523,41.045 581.1,40.6 583.858,40.258 586.623,40.062 589.21,40.0 591.739,40.061 594.321,40.25 596.84,40.552 599.617,41.026 602.357,41.654 605.357,42.529 608.071,43.467 610.407,44.39 613.11,45.6 615.775,46.934 618.144,48.216 620.444,49.594 622.96,51.129 625.51,52.753 627.982,54.299 630.096,55.607 632.288,56.994 634.937,58.659 637.479,60.293 639.675,61.734 641.956,63.308 644.351,65.062 646.542,66.809 648.65,68.637 650.708,70.619 652.725,72.753 654.527,74.902 656.101,77.004 657.582,79.21 659.01,81.661 660.332,84.251 661.302,86.428 662.06,88.375 662.919,90.974 663.661,93.747 664.236,96.592 664.643,99.479 664.859,102.295 664.925,105.133 664.862,108.049 664.692,110.937 664.401,113.655 664.017,116.264 663.562,119.061 662.967,121.824 662.322,124.694 661.634,127.433 660.879,130.191 660.117,132.798 659.314,135.418 658.515,138.249 657.662,141.014 656.77,143.83 656.037,146.375 655.199,149.12 654.44,151.732 653.583,154.322 652.749,157.159 651.915,160.074 651.125,162.725 650.365,165.382 649.652,168.002 648.893,170.915 648.198,173.752 647.613,176.173 647.026,178.908 646.417,181.936 645.912,184.782 645.53,187.386 645.232,190.121 645.015,193.177 644.959,196.028 645.058,198.825 645.338,201.762 645.798,204.612 646.381,207.139 647.148,209.726 648.029,212.145 649.042,214.489 650.208,216.792 651.561,219.122 653.076,221.393 654.523,223.3 656.305,225.397 658.405,227.548 660.635,229.558 662.801,231.328 665.003,232.936 667.408,234.547 669.875,236.053 672.366,237.469 674.909,238.817 677.407,240.087 679.952,241.325 682.527,242.56 684.847,243.662 687.397,244.811 690.217,246.082 692.881,247.342 695.323,248.371 697.82,249.44 700.394,250.634 702.946,251.818 705.645,253.003 708.337,254.086 710.784,255.255 713.189,256.319 715.956,257.499 718.611,258.721 721.127,259.82 723.596,260.888 726.276,262.095 728.911,263.26 731.399,264.39 734.13,265.573 736.622,266.685 739.114,267.835 741.82,268.99 744.485,270.214 746.786,271.281 749.369,272.437 752.045,273.68 754.729,274.949 756.951,276.0 759.766,277.325 762.424,278.59 764.607,279.689 767.258,280.944 769.861,282.208 772.443,283.51 774.964,284.761 777.357,285.949 779.99,287.317 782.671,288.747 785.168,290.158 787.48,291.58 789.84,293.173 792.186,294.968 794.449,296.96 796.494,299.055 798.221,301.128 799.768,303.332 801.096,305.618 802.225,308.039 803.136,310.559 803.785,313.002 804.217,315.483 804.442,318.05 804.452,320.582 804.23,323.223 803.778,325.803 803.062,328.417 802.13,330.952 801.011,333.299 799.655,335.602 798.012,337.911 796.119,340.146 794.14,342.158 791.969,344.109 789.76,345.871 787.472,347.495 785.082,349.04 782.633,350.491 780.042,351.934 777.63,353.263 775.279,354.546 772.781,355.871 770.474,357.129 767.971,358.449 765.46,359.787 762.782,361.213 760.217,362.593 757.574,363.99 755.415,365.186 753.136,366.508 750.557,367.868 747.896,369.32 745.587,370.665 743.093,371.953 740.54,373.409 738.147,374.813 735.733,376.022 733.043,377.559 730.879,378.823 728.476,380.135 725.801,381.567 723.324,383.015 720.999,384.216 718.588,385.665 716.037,387.024 713.265,388.56 711.353,389.737 708.721,391.142 706.038,392.639 703.556,393.994 701.537,395.127 698.926,396.639 696.189,398.067 693.843,399.45 691.54,400.691 688.957,402.181 686.296,403.659 684.436,404.686 681.435,406.35 678.935,407.697 676.633,409.092 674.182,410.343 671.666,411.82 669.344,413.15 666.854,414.424 664.122,416.053 662.137,417.085 659.423,418.654 656.726,420.209 654.656,421.218 652.183,422.66 649.592,424.112 647.078,425.415 644.745,426.752 642.324,428.083 639.773,429.468 637.174,431.005 634.546,432.45 632.517,433.552 629.627,435.171 627.394,436.408 624.718,437.909 622.059,439.401 620.112,440.486 617.401,442.031 615.412,443.151 612.532,444.767 610.208,446.01 607.825,447.406 606.014,448.411 602.63,450.337 600.365,451.593 597.939,452.959 595.047,454.547 593.385,455.503 590.591,457.039 588.09,458.439 585.529,459.856 582.889,461.302 581.154,462.287 578.952,463.51 575.913,465.209 572.561,467.072 571.341,467.749 570.833,468.032 564.864,470.932" fill="none" stroke="white" stroke-width="4"
            stroke-linejoin="round" stroke-linecap="round"/>
  <line x1="555.328" y1="453.352" x2="574.400" y2="488.512" stroke="red" stroke-width="3" stroke-linecap="round"/>
</svg>
