<?xml version="1.0" encoding="utf-8"?>
<svg xmlns="http://www.w3.org/2000/svg" width="1000" height="600">
  <polyline points="663.124,341.924 661.49,343.638 659.893,345.31 658.272,346.978 656.632,348.695 655.04,350.355 653.413,352.043 651.804,353.723 650.215,355.368 648.56,357.103 646.94,358.798 645.35,360.445 643.734,362.148 642.112,363.83 640.528,365.491 638.91,367.187 637.287,368.886 635.684,370.583 634.094,372.236 632.47,373.974 630.855,375.651 629.266,377.359 627.64,379.046 626.041,380.765 624.429,382.445 622.834,384.148 621.233,385.838 619.634,387.528 618.028,389.241 616.421,390.938 614.844,392.616 613.248,394.292 611.638,396.013 610.02,397.71 608.455,399.383 606.851,401.082 605.257,402.773 603.649,404.482 602.037,406.179 600.443,407.872 598.841,409.562 597.23,411.262 595.599,412.979 593.993,414.674 592.379,416.367 590.761,418.063 589.133,419.763 587.494,421.458 585.876,423.108 584.212,424.747 582.472,426.363 580.679,427.893 578.796,429.331 576.809,430.667 574.69,431.872 572.404,432.921 570.131,433.726 568.23,434.237 566.779,434.522 565.399,434.729 563.447,434.92 560.914,434.976 558.374,434.846 556.015,434.572 553.766,434.187 551.513,433.716 549.379,433.219 547.29,432.768 545.142,432.369 542.961,432.065 540.747,431.862 538.544,431.764 536.346,431.773 534.128,431.892 531.888,432.122 529.657,432.465 527.435,432.924 525.245,433.495 523.082,434.178 520.931,434.981 518.805,435.898 516.723,436.923 514.693,438.042 512.687,439.276 510.741,440.606 508.863,442.013 507.035,443.517 505.261,445.095 503.576,446.721 501.913,448.418 500.324,450.141 498.822,451.853 497.287,453.631 495.758,455.434 494.256,457.229 492.761,459.012 491.287,460.773 489.798,462.537 488.288,464.306 486.75,466.06 485.199,467.8 483.657,469.519 482.067,471.222 480.472,472.946 478.859,474.624 477.261,476.282 475.633,477.938 473.991,479.59 472.334,481.234 470.671,482.871 469.015,484.492 467.369,486.105 465.705,487.706 464.021,489.322 462.322,490.949 460.623,492.543 458.912,494.146 457.218,495.727 455.529,497.291 453.818,498.836 452.099,500.405 450.338,501.979 448.584,503.539 446.83,505.089 445.073,506.616 443.314,508.143 441.557,509.639 439.808,511.119 438.011,512.65 436.197,514.157 434.396,515.653 432.621,517.111 430.836,518.562 429.005,520.034 427.151,521.521 425.325,522.947 423.504,524.384 421.641,525.843 419.806,527.268 417.951,528.672 416.056,530.099 414.195,531.505 412.358,532.867 410.459,534.25 408.545,535.652 406.648,537.018 404.745,538.367 402.856,539.69 400.886,541.04 398.911,542.388 396.96,543.691 395.0,544.971 393.04,546.235 391.051,547.499 389.059,548.745 387.033,549.989 385.029,551.197 383.021,552.384 381.006,553.554 378.948,554.728 376.872,555.874 374.798,556.968 372.687,557.979 370.511,558.851 368.243,559.539 365.803,559.957 363.361,560.0 361.251,559.701 359.632,559.221 358.234,558.635 356.837,557.857 355.257,556.651 353.586,554.941 352.161,552.954 351.083,550.797 350.352,548.553 349.899,546.247 349.652,543.906 349.557,541.541 349.555,539.183 349.558,536.805 349.47,534.448 349.237,532.124 348.83,529.809 348.237,527.554 347.433,525.328 346.406,523.169 345.181,521.164 343.826,519.391 342.386,517.84 340.866,516.481 339.26,515.288 337.499,514.208 335.533,513.24 333.33,512.41 330.985,511.765 328.595,511.329 326.25,511.094 323.9,511.018 321.561,511.054 319.251,511.182 316.939,511.393 314.638,511.676 312.345,512.033 310.016,512.45 307.702,512.913 305.409,513.383 303.082,513.867 300.747,514.343 298.427,514.783 296.148,515.187 293.852,515.542 291.521,515.842 289.22,516.077 286.886,516.244 284.574,516.328 282.244,516.321 279.889,516.213 277.547,515.991 275.189,515.646 272.861,515.179 270.599,514.595 268.501,513.93 266.498,513.178 264.565,512.343 262.671,511.413 260.743,510.334 258.78,509.095 256.812,507.697 254.941,506.21 253.164,504.646 251.519,503.044 249.88,501.289 248.383,499.534 246.929,497.707 245.522,495.85 244.147,493.956 242.79,492.062 241.46,490.132 240.149,488.198 238.865,486.229 237.613,484.249 236.392,482.304 235.173,480.244 233.983,478.192 232.86,476.222 231.741,474.142 230.653,472.058 229.581,469.996 228.52,467.898 227.469,465.809 226.468,463.714 225.472,461.653 224.498,459.588 223.518,457.495 222.564,455.416 221.585,453.253 220.637,451.169 219.695,449.063 218.758,446.971 217.803,444.86 216.83,442.699 215.878,440.59 214.89,438.479 213.895,436.319 212.874,434.189 211.885,432.139 210.836,430.012 209.793,427.925 208.737,425.876 207.647,423.799 206.541,421.687 205.465,419.657 204.368,417.629 203.256,415.568 202.179,413.586 201.055,411.523 199.965,409.516 198.838,407.432 197.756,405.381 196.719,403.3 195.749,401.146 194.892,398.916 194.173,396.608 193.621,394.26 193.239,391.842 193.058,389.6 193.024,387.648 193.103,385.949 193.281,384.268 193.583,382.329 194.081,380.012 194.767,377.549 195.598,375.119 196.49,372.914 197.477,370.782 198.508,368.769 199.563,366.843 200.61,364.934 201.658,363.009 202.705,360.977 203.653,358.99 204.562,356.932 205.427,354.784 206.202,352.677 206.907,350.52 207.582,348.287 208.186,346.012 208.729,343.706 209.199,341.402 209.605,339.078 209.994,336.787 210.353,334.554 210.742,332.287 211.153,330.031 211.612,327.762 212.102,325.606 212.681,323.351 213.293,321.216 213.974,319.077 214.756,316.863 215.59,314.729 216.454,312.709 217.429,310.625 218.43,308.644 219.523,306.663 220.688,304.692 221.96,302.702 223.245,300.841 224.614,298.958 225.996,297.206 227.439,295.48 229.002,293.764 230.572,292.117 232.174,290.541 233.849,288.999 235.574,287.516 237.349,286.065 239.181,284.656 241.024,283.339 242.943,282.054 244.855,280.838 246.863,279.644 248.955,278.503 250.989,277.445 253.028,276.445 255.173,275.488 257.349,274.566 259.51,273.687 261.685,272.888 263.955,272.112 266.198,271.387 268.332,270.763 270.645,270.124 273.039,269.515 275.237,268.976 277.477,268.487 279.729,267.996 282.035,267.529 284.389,267.078 286.733,266.65 288.958,266.28 291.286,265.935 293.525,265.637 295.884,265.35 298.284,265.109 300.581,264.898 302.947,264.733 305.189,264.618 307.567,264.522 309.881,264.471 312.173,264.455 314.631,264.476 316.921,264.538 319.246,264.63 321.617,264.771 323.872,264.934 326.125,265.13 328.491,265.383 330.773,265.653 333.017,265.959 335.261,266.3 337.536,266.683 339.801,267.101 342.104,267.564 344.406,268.066 346.589,268.581 348.716,269.118 350.909,269.704 353.065,270.313 355.302,270.976 357.633,271.701 359.886,272.434 362.067,273.171 364.289,273.944 366.451,274.716 368.565,275.485 370.78,276.306 372.988,277.136 375.113,277.938 377.242,278.742 379.443,279.572 381.635,280.395 383.914,281.247 386.126,282.073 388.352,282.906 390.514,283.714 392.73,284.537 394.84,285.31 397.007,286.088 399.273,286.884 401.424,287.611 403.627,288.324 405.769,288.984 408.005,289.627 410.368,290.268 412.66,290.845 414.932,291.384 417.366,291.921 419.537,292.364 421.71,292.779 423.932,293.151 426.28,293.508 428.664,293.827 431.029,294.102 433.205,294.324 435.513,294.52 437.835,294.674 440.256,294.797 442.531,294.871 444.684,294.907 447.083,294.914 449.315,294.888 451.695,294.82 453.913,294.72 456.263,294.568 458.697,294.369 460.996,294.144 463.067,293.911 465.375,293.609 467.658,293.276 469.953,292.9 472.244,292.487 474.516,292.04 476.741,291.559 479.032,291.024 481.338,290.44 483.531,289.855 485.692,289.229 487.839,288.582 490.069,287.862 492.198,287.133 494.4,286.342 496.649,285.49 498.858,284.615 500.999,283.717 503.023,282.826 504.938,281.961 507.118,280.905 509.229,279.871 511.196,278.841 513.327,277.692 515.335,276.564 517.336,275.394 519.257,274.227 521.277,272.96 523.262,271.659 525.156,270.378 527.12,269.009 528.888,267.712 530.769,266.317 532.637,264.869 534.386,263.48 536.163,262.015 538.018,260.428 539.888,258.791 541.593,257.234 543.209,255.752 544.902,254.139 546.61,252.462 548.256,250.823 549.92,249.115 551.559,247.405 553.159,245.7 554.653,244.079 556.239,242.32 557.685,240.684 559.371,238.74 560.922,236.928 562.424,235.159 563.893,233.425 565.31,231.75 566.91,229.85 568.422,228.045 569.873,226.296 571.386,224.424 572.804,222.592 574.175,220.694 575.505,218.667 576.707,216.62 577.782,214.538 578.75,212.352 579.532,210.272 580.208,208.095 580.701,206.107 581.098,204.088 581.41,201.96 581.607,199.739 581.675,197.358 581.605,195.072 581.41,192.785 581.091,190.446 580.675,188.113 580.209,185.819 579.752,183.545 579.343,181.238 579.027,178.934 578.816,176.59 578.727,174.232 578.761,171.867 578.921,169.532 579.219,167.183 579.607,165.064 580.099,163.04 580.723,160.956 581.518,158.732 582.429,156.546 583.473,154.367 584.605,152.286 585.824,150.284 587.132,148.338 588.454,146.517 589.855,144.731 591.362,142.91 592.899,141.116 594.435,139.341 595.983,137.584 597.586,135.756 599.124,134.013 600.725,132.2 602.246,130.471 603.776,128.731 605.307,126.987 606.883,125.199 608.373,123.514 609.873,121.801 611.42,120.045 612.891,118.394 614.526,116.536 616.094,114.772 617.683,112.988 619.26,111.238 620.849,109.456 622.35,107.854 623.867,106.267 625.492,104.563 627.199,102.807 628.892,101.065 630.647,99.424 632.245,97.946 633.912,96.407 635.616,94.908 637.407,93.338 639.182,91.79 641.04,90.331 642.884,88.867 644.584,87.544 646.274,86.273 648.22,84.885 650.218,83.522 652.103,82.275 653.906,81.136 655.903,79.873 657.921,78.725 659.906,77.583 661.97,76.476 664.026,75.413 666.061,74.375 667.995,73.426 670.247,72.389 672.43,71.415 674.461,70.541 676.685,69.602 678.687,68.807 680.987,67.908 683.292,67.041 685.256,66.307 687.332,65.558 689.762,64.725 692.139,63.912 694.245,63.21 696.271,62.505 698.457,61.789 700.927,60.982 703.251,60.224 705.117,59.629 707.36,58.894 709.768,58.133 712.056,57.421 714.124,56.712 716.285,56.045 718.577,55.333 720.928,54.606 723.068,53.874 725.253,53.205 727.492,52.504 729.827,51.788 731.829,51.068 734.054,50.414 736.457,49.687 738.632,48.96 740.83,48.232 743.067,47.527 745.406,46.835 747.707,46.087 749.908,45.395 751.999,44.688 754.412,43.957 756.726,43.333 758.99,42.631 761.302,42.031 763.647,41.42 765.869,40.982 768.162,40.518 770.538,40.23 772.978,40.0 775.343,40.018 777.701,40.253 780.177,40.869 782.198,41.674 783.435,42.325 784.546,43.095 786.07,44.461 787.742,46.408 789.093,48.473 790.207,50.635 791.127,52.815 791.884,54.84 792.611,57.138 793.233,59.447 793.791,61.634 794.256,63.956 794.716,66.257 795.11,68.513 795.524,70.848 795.998,73.075 796.486,75.278 797.051,77.577 797.628,79.889 798.244,82.126 798.865,84.329 799.53,86.672 800.148,88.864 800.844,91.082 801.51,93.294 802.158,95.473 802.851,97.644 803.485,99.758 804.165,101.949 804.821,104.241 805.457,106.435 805.976,108.695 806.453,111.159 806.776,113.527 806.951,115.885 806.976,118.235 806.84,120.431 806.582,122.557 806.17,124.803 805.589,127.073 804.978,128.963 804.163,130.998 803.199,133.014 802.063,135.021 800.846,136.88 799.502,138.647 797.999,140.403 796.349,142.093 794.59,143.717 792.664,145.311 790.865,146.648 788.908,147.976 786.883,149.279 784.911,150.397 783.014,151.413 780.945,152.441 778.886,153.395 776.716,154.25 774.429,155.181 772.188,156.084 770.034,156.959 767.784,157.822 765.564,158.785 763.46,159.72 761.358,160.698 759.208,161.743 757.12,162.801 755.014,163.939 752.9,165.145 750.818,166.42 748.948,167.682 746.965,169.147 745.09,170.708 743.44,172.385 741.926,174.352 740.755,176.475 740.069,178.344 739.799,179.848 739.69,181.274 739.84,183.065 740.417,185.245 741.446,187.481 742.818,189.406 744.439,191.049 746.255,192.409 748.385,193.648 750.576,194.749 752.69,195.822 754.69,196.956 756.674,198.315 758.584,199.844 760.138,201.321 761.688,203.081 763.106,205.03 764.324,207.031 765.324,209.057 766.148,211.115 766.804,213.221 767.212,215.244 767.515,217.385 767.666,219.596 767.649,221.726 767.504,223.778 767.2,225.981 766.728,228.274 766.115,230.477 765.323,232.718 764.329,235.017 763.351,236.939 762.109,239.046 760.826,240.983 759.403,242.878 757.896,244.716 756.376,246.385 754.596,248.226 752.996,249.798 751.541,251.322 749.862,253.019 748.131,254.67 746.394,256.275 744.98,257.744 743.174,259.548 741.342,261.328 739.809,262.885 738.215,264.413 736.59,266.137 734.779,267.956 733.235,269.431 731.679,271.121 730.227,272.502 728.391,274.359 726.635,276.09 725.15,277.673 723.457,279.394 721.644,281.233 720.1,282.662 718.709,284.318 716.891,286.07 715.239,287.803 713.689,289.354 712.1,291.054 710.446,292.768 708.831,294.317 707.362,296.018 705.541,297.697 704.086,299.362 702.323,301.008 700.77,302.671 699.093,304.498 697.338,306.173 695.678,307.937 694.296,309.517 692.505,311.018 690.798,313.225 689.463,314.126 687.488,316.279 686.064,317.962 684.289,319.367 683.164,320.999 681.107,322.614 679.738,324.416 678.062,325.78 676.233,327.743 674.85,329.12 673.055,330.985 670.817,333.316 671.017,333.104 667.945,336.303 667.076,337.207 666.741,337.556 663.124,341.924" fill="none" stroke="white" stroke-width="4"
            stroke-linejoin="round" stroke-linecap="round"/>
  <line x1="648.648" y1="328.124" x2="677.600" y2="355.724" stroke="red" stroke-width="3" stroke-linecap="round"/>
</svg>
