<?xml version="1.0" encoding="utf-8"?>
<svg xmlns="http://www.w3.org/2000/svg" width="1000" height="600">
  <polyline points="317.106,486.095 317.408,484.174 317.664,482.313 317.953,480.42 318.25,478.541 318.518,476.672 318.834,474.767 319.129,472.852 319.415,470.985 319.743,469.076 320.018,467.165 320.332,465.264 320.656,463.373 320.938,461.512 321.257,459.554 321.578,457.631 321.87,455.788 322.184,453.887 322.487,451.947 322.798,450.008 323.11,448.138 323.397,446.266 323.708,444.404 323.987,442.539 324.297,440.582 324.605,438.647 324.905,436.736 325.21,434.84 325.519,432.881 325.822,430.977 326.111,429.073 326.4,427.188 326.688,425.297 326.974,423.425 327.278,421.52 327.562,419.614 327.846,417.722 328.133,415.828 328.421,413.928 328.708,412.02 328.994,410.118 329.283,408.164 329.569,406.315 329.836,404.452 330.123,402.537 330.411,400.591 330.694,398.669 330.978,396.737 331.257,394.822 331.528,392.97 331.797,391.106 332.08,389.194 332.357,387.276 332.631,385.36 332.905,383.439 333.186,381.515 333.449,379.623 333.716,377.722 334.002,375.845 334.268,373.936 334.53,372.008 334.806,370.085 335.062,368.206 335.327,366.297 335.604,364.395 335.878,362.442 336.133,360.553 336.394,358.668 336.656,356.756 336.928,354.807 337.188,352.897 337.449,351.031 337.701,349.161 337.963,347.243 338.228,345.287 338.492,343.384 338.747,341.469 339.006,339.595 339.257,337.692 339.522,335.749 339.781,333.811 340.035,331.943 340.289,330.026 340.535,328.13 340.795,326.248 341.04,324.333 341.29,322.46 341.536,320.586 341.791,318.617 342.047,316.643 342.285,314.812 342.536,312.908 342.773,310.972 343.036,309.052 343.271,307.186 343.511,305.279 343.756,303.309 344.008,301.422 344.245,299.564 344.483,297.644 344.718,295.685 344.985,293.775 345.212,291.893 345.435,290.006 345.696,288.052 345.942,286.126 346.177,284.244 346.391,282.344 346.649,280.438 346.895,278.506 347.106,276.628 347.349,274.725 347.602,272.764 347.839,270.866 348.053,268.972 348.299,267.071 348.544,265.132 348.765,263.251 349.003,261.383 349.243,259.418 349.493,257.464 349.705,255.626 349.945,253.725 350.196,251.73 350.42,249.839 350.657,247.975 350.891,246.018 351.125,244.122 351.366,242.232 351.597,240.288 351.832,238.369 352.064,236.502 352.307,234.566 352.527,232.644 352.772,230.771 353.011,228.836 353.238,226.899 353.473,225.032 353.712,223.086 353.957,221.114 354.176,219.288 354.419,217.404 354.656,215.413 354.88,213.553 355.12,211.675 355.36,209.712 355.585,207.807 355.832,205.916 356.067,203.957 356.29,202.086 356.538,200.146 356.768,198.245 357.002,196.326 357.232,194.431 357.478,192.492 357.711,190.596 357.935,188.68 358.181,186.75 358.41,184.863 358.637,182.959 358.875,181.026 359.106,179.13 359.34,177.221 359.566,175.296 359.805,173.397 360.06,171.439 360.282,169.54 360.51,167.695 360.762,165.726 360.997,163.833 361.217,161.976 361.485,159.966 361.706,158.057 361.928,156.219 362.188,154.251 362.424,152.267 362.65,150.459 362.888,148.525 363.13,146.612 363.35,144.763 363.592,142.817 363.842,140.856 364.065,139.026 364.312,137.063 364.55,135.14 364.785,133.273 365.033,131.336 365.254,129.402 365.501,127.532 365.747,125.596 365.954,123.699 366.221,121.78 366.456,119.874 366.677,117.959 366.936,116.03 367.174,114.162 367.405,112.22 367.65,110.299 367.9,108.447 368.135,106.509 368.39,104.546 368.649,102.656 368.896,100.771 369.153,98.855 369.41,96.912 369.691,94.975 369.951,93.092 370.229,91.157 370.511,89.251 370.8,87.367 371.092,85.402 371.413,83.462 371.732,81.554 372.067,79.633 372.42,77.738 372.776,75.854 373.177,73.933 373.635,72.009 374.141,70.148 374.758,68.285 375.463,66.45 376.3,64.649 377.303,62.867 378.487,61.15 379.896,59.52 381.336,58.197 382.5,57.314 383.431,56.734 384.337,56.25 385.406,55.775 386.757,55.304 388.492,54.917 390.425,54.704 392.345,54.699 394.251,54.871 396.148,55.169 398.045,55.527 399.939,55.851 401.868,56.105 403.839,56.186 405.835,56.043 407.758,55.648 409.457,55.042 410.811,54.343 411.922,53.598 412.986,52.697 414.156,51.437 415.354,49.88 416.486,48.284 417.682,46.76 418.973,45.336 420.327,44.115 421.596,43.155 422.783,42.403 424.115,41.713 425.778,41.05 427.695,40.503 429.698,40.153 431.684,40.0 433.653,40.002 435.604,40.134 437.534,40.349 439.478,40.652 441.429,41.037 443.335,41.48 445.208,41.993 447.078,42.557 448.928,43.174 450.76,43.828 452.575,44.535 454.382,45.252 456.205,46.02 458.0,46.788 459.748,47.566 461.521,48.355 463.304,49.178 465.061,50.0 466.765,50.828 468.507,51.681 470.28,52.568 471.993,53.453 473.702,54.333 475.404,55.245 477.095,56.168 478.772,57.098 480.494,58.072 482.188,59.052 483.825,60.033 485.47,61.002 487.093,61.986 488.757,62.991 490.416,63.998 492.072,65.016 493.726,66.012 495.354,67.004 497.001,68.006 498.658,69.007 500.28,70.013 501.966,71.032 503.579,71.988 505.214,73.015 506.867,74.018 508.517,75.01 510.128,76.017 511.791,77.047 513.426,78.055 515.062,79.082 516.694,80.094 518.322,81.116 519.959,82.129 521.571,83.139 523.22,84.13 524.861,85.183 526.494,86.199 528.139,87.207 529.748,88.227 531.376,89.263 533.007,90.268 534.648,91.308 536.277,92.325 537.926,93.342 539.556,94.387 541.152,95.39 542.784,96.415 544.445,97.46 546.061,98.497 547.665,99.485 549.274,100.507 550.917,101.563 552.567,102.58 554.205,103.627 555.79,104.649 557.393,105.683 559.067,106.733 560.677,107.78 562.295,108.821 563.9,109.874 565.519,110.936 567.107,111.992 568.713,113.038 570.289,114.064 571.901,115.138 573.532,116.215 575.145,117.288 576.737,118.354 578.371,119.448 579.967,120.523 581.533,121.594 583.139,122.674 584.71,123.754 586.301,124.836 587.875,125.925 589.469,127.019 591.047,128.131 592.653,129.253 594.229,130.355 595.788,131.468 597.339,132.582 598.858,133.661 600.384,134.78 601.981,135.916 603.522,137.047 605.073,138.168 606.652,139.324 608.223,140.458 609.767,141.61 611.341,142.758 612.899,143.895 614.48,145.058 616.017,146.183 617.576,147.31 619.143,148.476 620.694,149.596 622.236,150.721 623.838,151.862 625.426,152.954 627.069,154.011 628.759,154.985 630.531,155.842 632.426,156.563 634.409,157.115 636.455,157.401 638.243,157.422 639.653,157.269 640.811,157.001 641.945,156.595 643.192,155.991 644.635,155.024 646.113,153.696 647.383,152.229 648.498,150.673 649.539,149.053 650.593,147.437 651.733,145.844 652.991,144.439 654.417,143.228 655.908,142.383 657.192,141.914 658.372,141.685 659.728,141.639 661.417,141.881 663.304,142.547 665.057,143.54 666.567,144.76 667.928,146.134 669.186,147.643 670.328,149.161 671.445,150.741 672.524,152.341 673.607,153.942 674.684,155.534 675.782,157.14 676.873,158.704 677.962,160.283 679.067,161.895 680.17,163.519 681.224,165.158 682.198,166.802 683.118,168.549 683.919,170.389 684.537,172.274 684.904,174.146 685.009,175.869 684.883,177.448 684.541,178.948 683.94,180.435 683.131,181.787 682.137,182.956 681.022,183.92 679.723,184.761 678.096,185.516 676.259,186.066 674.33,186.414 672.355,186.583 670.432,186.623 668.53,186.56 666.581,186.407 664.656,186.201 662.767,185.931 660.844,185.634 658.947,185.311 657.085,184.937 655.192,184.583 653.324,184.2 651.454,183.82 649.56,183.44 647.645,183.042 645.764,182.638 643.871,182.248 641.969,181.868 640.078,181.452 638.248,181.102 636.416,180.701 634.561,180.324 632.669,179.926 630.794,179.525 628.907,179.131 627.012,178.741 625.146,178.348 623.199,177.962 621.306,177.554 619.434,177.186 617.47,176.804 615.629,176.459 613.731,176.097 611.768,175.747 609.902,175.412 608.061,175.106 606.208,174.801 604.234,174.471 602.392,174.183 600.451,173.895 598.476,173.592 596.576,173.329 594.692,173.066 592.855,172.804 590.946,172.546 589.05,172.306 587.167,172.094 585.148,171.925 583.121,171.848 581.056,171.893 579.111,172.055 577.234,172.337 575.236,172.768 573.341,173.326 571.653,173.933 570.107,174.593 568.762,175.253 567.373,176.004 565.861,176.944 564.383,177.993 562.918,179.19 561.45,180.554 560.086,181.988 558.87,183.424 557.733,184.892 556.602,186.445 555.487,188.026 554.384,189.58 553.268,191.115 552.17,192.561 550.933,194.07 549.753,195.436 548.573,196.717 547.225,198.062 545.788,199.382 544.411,200.541 543.039,201.615 541.647,202.607 540.241,203.548 538.667,204.534 536.984,205.551 535.387,206.505 533.697,207.557 531.939,208.671 530.376,209.715 528.78,210.854 527.267,212.016 525.942,213.091 524.511,214.357 523.152,215.673 521.918,216.96 520.771,218.256 519.64,219.647 518.564,221.078 517.504,222.614 516.528,224.176 515.673,225.691 514.806,227.41 514.067,229.055 513.396,230.753 512.792,232.518 512.237,234.428 511.765,236.392 511.403,238.274 511.121,240.176 510.906,242.081 510.763,243.864 510.654,245.779 510.556,247.77 510.472,249.707 510.371,251.747 510.258,253.675 510.1,255.572 509.918,257.377 509.645,259.354 509.314,261.245 508.889,263.146 508.39,265.006 507.793,266.891 507.153,268.632 506.384,270.455 505.541,272.215 504.6,273.959 503.646,275.546 502.651,277.049 501.618,278.454 500.455,279.921 499.288,281.258 498.092,282.53 496.886,283.71 495.549,284.926 494.05,286.16 492.614,287.241 491.159,288.248 489.619,289.214 487.9,290.206 486.078,291.194 484.347,292.102 482.747,292.956 480.987,293.899 479.464,294.744 477.947,295.644 476.438,296.578 475.01,297.536 473.611,298.536 472.156,299.649 470.703,300.858 469.236,302.2 467.869,303.533 466.698,304.775 465.334,306.345 464.024,307.939 462.864,309.522 461.749,311.076 460.759,312.58 459.733,314.267 458.738,315.979 457.857,317.647 456.924,319.331 456.044,321.1 455.25,322.607 454.356,324.358 453.44,326.287 452.602,327.98 451.842,329.705 451.062,331.544 450.312,333.196 449.674,334.858 448.925,336.807 448.159,338.78 447.488,340.487 446.925,342.323 446.206,344.296 445.654,345.913 445.101,347.827 444.463,349.757 443.939,351.531 443.433,353.394 442.871,355.138 442.444,357.013 441.939,358.8 441.422,360.777 441.015,362.556 440.509,364.386 440.128,366.294 439.724,367.942 439.291,369.926 438.892,371.845 438.526,373.697 438.179,375.558 437.779,377.475 437.477,379.287 437.109,381.299 436.803,383.153 436.476,385.02 436.176,386.93 435.85,388.784 435.573,390.702 435.294,392.717 434.995,394.49 434.711,396.472 434.417,398.286 434.149,400.328 433.907,402.125 433.635,403.959 433.359,406.064 433.119,407.863 432.871,409.765 432.582,411.923 432.376,413.477 432.122,415.566 431.905,417.416 431.675,419.246 431.419,421.405 431.171,423.073 430.984,425.064 430.693,427.076 430.513,428.857 430.239,430.802 430.041,432.474 429.792,434.602 429.534,436.628 429.303,438.481 429.08,440.409 428.86,442.29 428.614,444.112 428.406,446.009 428.16,447.904 427.908,449.835 427.687,451.869 427.406,453.846 427.18,455.575 426.925,457.694 426.655,459.654 426.41,461.473 426.161,463.39 425.883,465.401 425.606,467.259 425.34,469.102 425.024,471.109 424.706,473.017 424.317,474.975 423.838,476.938 423.308,478.712 422.613,480.598 421.756,482.477 420.779,484.23 419.692,485.83 418.644,487.129 417.663,488.181 416.663,489.124 415.36,490.173 413.689,491.277 411.886,492.228 410.105,492.974 408.228,493.584 406.285,494.068 404.361,494.43 402.447,494.688 400.536,494.863 398.617,494.965 396.743,495.005 394.839,494.978 392.884,494.899 390.963,494.781 389.02,494.608 387.081,494.413 385.191,494.203 383.124,493.975 381.125,493.772 379.181,493.596 377.217,493.464 375.303,493.384 373.36,493.375 371.356,493.457 369.378,493.659 367.415,494.012 365.525,494.551 363.684,495.347 361.93,496.522 360.498,498.007 359.593,499.501 359.101,500.898 358.904,502.128 358.905,503.32 359.11,504.633 359.589,506.03 360.472,507.534 361.665,509.117 362.876,510.647 363.989,512.196 364.924,513.727 365.652,515.181 366.202,516.562 366.65,518.035 366.979,519.585 367.164,521.267 367.19,523.092 367.07,525.028 366.849,527.041 366.578,528.983 366.301,530.779 366.027,532.546 365.753,534.365 365.502,536.182 365.236,538.17 364.98,540.088 364.722,541.894 364.428,543.797 364.1,545.654 363.694,547.489 363.144,549.412 362.458,551.259 361.531,553.098 360.333,554.84 359.163,556.126 357.999,557.129 356.836,557.934 355.654,558.588 354.108,559.225 352.315,559.695 350.517,559.949 348.56,560.0 346.604,559.846 344.751,559.507 342.675,558.902 340.797,558.175 339.137,557.383 337.49,556.46 335.703,555.295 334.142,554.143 332.578,552.862 331.103,551.528 329.715,550.14 328.374,548.687 327.073,547.132 325.894,545.597 324.844,544.116 323.74,542.432 322.763,540.741 321.885,539.108 321.022,537.375 320.281,535.872 319.524,534.056 318.853,532.151 318.222,530.24 317.78,528.66 317.25,527.018 316.727,524.84 316.47,522.999 316.186,521.473 315.832,519.422 315.591,517.241 315.52,515.847 315.238,514.091 315.184,511.736 315.087,509.308 315.201,507.272 314.991,506.173 315.231,503.948 315.417,501.383 315.141,500.347 315.687,498.275 315.929,495.719 316.327,495.198 315.971,492.533 316.329,489.783 316.437,488.976 317.106,486.095" fill="none" stroke="white" stroke-width="4"
            stroke-linejoin="round" stroke-linecap="round"/>
  <line x1="336.863" y1="489.201" x2="297.349" y2="482.989" stroke="red" stroke-width="3" stroke-linecap="round"/>
</svg>
