<?xml version="1.0" encoding="utf-8"?>
<svg xmlns="http://www.w3.org/2000/svg" width="1000" height="600">
  <polyline points="420.988,360.894 421.882,358.712 422.856,356.535 423.827,354.41 424.861,352.281 425.913,350.156 426.976,348.098 428.073,346.032 429.207,343.973 430.351,341.926 431.515,339.892 432.691,337.881 433.882,335.867 435.09,333.842 436.287,331.821 437.498,329.8 438.688,327.806 439.871,325.826 441.067,323.826 442.262,321.835 443.466,319.825 444.667,317.8 445.881,315.751 447.088,313.737 448.267,311.729 449.463,309.729 450.624,307.735 451.83,305.722 453.03,303.672 454.22,301.653 455.397,299.636 456.578,297.616 457.757,295.591 458.946,293.561 460.113,291.551 461.292,289.527 462.463,287.496 463.638,285.475 464.82,283.452 465.995,281.41 467.168,279.39 468.351,277.375 469.511,275.369 470.709,273.325 471.885,271.297 473.053,269.304 474.242,267.273 475.434,265.227 476.63,263.192 477.8,261.197 478.999,259.158 480.197,257.116 481.401,255.083 482.602,253.046 483.805,251.035 485.019,249.003 486.232,246.99 487.458,244.98 488.712,242.965 489.996,241.007 491.373,239.108 492.893,237.302 494.653,235.612 496.743,234.135 498.96,233.11 500.942,232.599 502.639,232.442 504.225,232.503 505.812,232.754 507.616,233.301 509.653,234.273 511.62,235.622 513.392,237.199 515.013,238.908 516.544,240.679 518.056,242.442 519.619,244.158 521.286,245.799 523.02,247.278 524.765,248.548 526.552,249.646 528.411,250.596 530.35,251.391 532.379,252.039 534.502,252.551 536.777,252.93 539.178,253.162 541.541,253.268 543.831,253.339 546.077,253.456 548.294,253.641 550.487,253.923 552.626,254.328 554.72,254.864 556.811,255.547 558.851,256.366 560.845,257.324 562.765,258.404 564.621,259.597 566.45,260.937 568.19,262.379 569.871,263.959 571.49,265.678 572.99,267.479 574.395,269.392 575.666,271.367 576.821,273.419 577.844,275.529 578.771,277.735 579.57,279.954 580.258,282.203 580.842,284.466 581.342,286.774 581.739,289.091 582.06,291.428 582.293,293.754 582.452,296.104 582.526,298.457 582.531,300.78 582.472,303.063 582.342,305.377 582.149,307.678 581.898,309.961 581.585,312.233 581.208,314.529 580.789,316.782 580.304,319.012 579.773,321.252 579.173,323.45 578.524,325.641 577.81,327.831 577.047,329.987 576.227,332.135 575.361,334.244 574.45,336.356 573.48,338.453 572.477,340.537 571.419,342.598 570.33,344.659 569.179,346.739 568.031,348.771 566.867,350.764 565.668,352.774 564.428,354.785 563.191,356.781 561.921,358.766 560.664,360.752 559.391,362.725 558.132,364.68 556.873,366.642 555.603,368.639 554.343,370.606 553.106,372.581 551.843,374.583 550.61,376.563 549.384,378.519 548.142,380.528 546.926,382.486 545.713,384.459 544.492,386.436 543.26,388.45 542.023,390.466 540.796,392.474 539.571,394.484 538.355,396.489 537.174,398.465 536.025,400.468 534.899,402.537 533.841,404.654 532.868,406.817 531.98,409.071 531.214,411.326 530.571,413.618 530.055,415.91 529.667,418.187 529.403,420.445 529.254,422.713 529.225,424.972 529.306,427.185 529.495,429.38 529.801,431.576 530.209,433.744 530.722,435.856 531.358,438.003 532.106,440.117 532.915,442.144 533.823,444.177 534.837,446.263 535.895,448.329 536.979,450.392 538.08,452.523 539.123,454.65 540.052,456.769 540.862,458.897 541.542,461.039 542.08,463.18 542.483,465.35 542.744,467.497 542.869,469.704 542.855,471.907 542.71,474.075 542.42,476.258 541.988,478.431 541.425,480.556 540.7,482.707 539.842,484.797 538.841,486.846 537.676,488.9 536.403,490.872 535.05,492.779 533.604,494.676 532.146,496.521 530.733,498.333 529.379,500.146 528.115,501.987 526.943,503.878 525.894,505.784 524.952,507.736 524.106,509.772 523.381,511.852 522.786,513.944 522.285,516.197 521.919,518.479 521.692,520.719 521.591,523.064 521.633,525.422 521.811,527.784 522.126,530.13 522.562,532.398 523.154,534.722 523.9,537.058 524.766,539.291 525.78,541.508 526.895,543.601 528.171,545.671 529.618,547.713 531.155,549.601 532.815,551.379 534.633,553.068 536.588,554.629 538.636,556.021 540.795,557.246 543.052,558.274 545.416,559.087 547.869,559.66 550.344,559.97 552.823,560.0 555.273,559.732 557.68,559.152 559.952,558.252 562.046,557.046 563.892,555.627 565.428,554.131 566.732,552.552 567.84,550.892 568.777,549.157 569.576,547.285 570.249,545.207 570.765,542.926 571.117,540.516 571.333,538.11 571.439,535.8 571.462,533.491 571.436,531.246 571.406,528.97 571.378,526.709 571.397,524.434 571.455,522.19 571.562,519.912 571.696,517.66 571.887,515.313 572.117,512.97 572.373,510.704 572.674,508.388 572.988,506.076 573.321,503.743 573.687,501.388 574.043,499.11 574.42,496.836 574.759,494.478 575.137,492.193 575.501,489.844 575.854,487.565 576.207,485.235 576.532,482.87 576.83,480.586 577.099,478.28 577.334,476.002 577.551,473.74 577.741,471.388 577.901,469.178 578.045,466.848 578.153,464.574 578.261,462.201 578.305,459.969 578.34,457.67 578.368,455.302 578.357,452.956 578.332,450.586 578.296,448.231 578.23,445.931 578.191,443.588 578.101,441.271 578.024,438.894 577.939,436.505 577.852,434.204 577.773,431.905 577.693,429.521 577.599,427.221 577.523,424.907 577.436,422.539 577.349,420.173 577.268,417.827 577.187,415.49 577.117,413.135 577.05,410.816 576.998,408.552 576.958,406.165 576.932,403.748 576.941,401.457 576.962,399.166 577.016,396.797 577.089,394.522 577.194,392.175 577.328,389.796 577.496,387.411 577.695,385.052 577.92,382.713 578.19,380.342 578.478,378.046 578.784,375.857 579.129,373.595 579.51,371.387 579.921,369.158 580.344,367.008 580.847,364.641 581.356,362.453 581.897,360.176 582.465,357.893 583.094,355.569 583.719,353.274 584.381,351.136 585.007,348.967 585.694,346.706 586.453,344.426 587.197,342.15 587.845,340.003 588.569,337.749 589.264,335.542 590.002,333.326 590.721,331.03 591.378,328.881 592.142,326.604 592.859,324.311 593.531,322.091 594.173,319.879 594.849,317.548 595.466,315.326 596.033,313.181 596.59,310.955 597.158,308.648 597.671,306.351 598.163,304.09 598.64,301.706 599.081,299.338 599.445,297.267 599.823,294.887 600.156,292.618 600.469,290.271 600.738,287.965 600.97,285.72 601.174,283.493 601.355,281.167 601.519,278.762 601.624,276.465 601.732,274.248 601.765,271.914 601.827,269.558 601.793,267.186 601.788,264.826 601.695,262.631 601.61,260.373 601.47,258.07 601.332,255.682 601.091,253.409 600.876,251.061 600.625,248.779 600.332,246.475 599.961,244.128 599.683,241.853 599.272,239.618 598.915,237.284 598.399,234.867 598.036,232.7 597.489,230.393 597.003,228.092 596.505,225.963 595.899,223.653 595.338,221.362 594.74,219.06 594.091,216.826 593.436,214.577 592.739,212.324 592.135,210.124 591.391,208.002 590.627,205.671 589.909,203.507 589.09,201.174 588.302,199.042 587.503,196.711 586.686,194.507 585.875,192.354 585.057,190.214 584.219,187.882 583.424,185.786 582.611,183.655 581.754,181.362 580.924,179.205 580.138,177.05 579.303,174.966 578.502,172.596 577.635,170.493 576.876,168.415 576.056,166.104 575.194,163.921 574.414,161.777 573.546,159.519 572.746,157.296 571.956,155.206 571.082,153.039 570.258,150.728 569.429,148.526 568.588,146.394 567.85,144.335 566.949,141.995 566.119,139.785 565.271,137.645 564.45,135.563 563.57,133.312 562.607,131.003 561.666,128.796 560.787,126.666 559.792,124.466 558.926,122.597 557.935,120.376 556.807,118.022 555.871,115.982 554.778,113.813 553.828,111.856 552.777,109.751 551.753,107.772 550.576,105.558 549.444,103.383 548.335,101.376 547.21,99.34 546.013,97.182 544.866,95.146 543.691,93.103 542.49,90.981 541.243,88.828 540.064,86.824 538.851,84.803 537.614,82.826 536.241,80.763 534.896,78.883 533.415,77.02 531.8,75.274 529.938,73.655 527.769,72.275 525.375,71.324 523.383,70.953 521.896,70.925 520.614,71.046 519.181,71.357 517.325,72.087 515.204,73.377 513.335,74.975 511.739,76.676 510.243,78.473 508.778,80.304 507.381,82.022 505.938,83.663 504.479,85.135 502.89,86.512 501.116,87.773 499.28,88.772 497.232,89.532 495.062,89.978 492.899,90.081 490.769,89.837 488.744,89.246 486.775,88.307 485.006,87.104 483.526,85.75 482.256,84.212 481.199,82.514 480.332,80.67 479.619,78.657 479.054,76.395 478.681,74.06 478.48,71.819 478.361,69.437 478.249,67.079 478.064,64.764 477.76,62.501 477.321,60.353 476.74,58.265 476.049,56.312 475.209,54.373 474.235,52.489 473.032,50.534 471.567,48.548 469.938,46.728 468.204,45.103 466.32,43.608 464.339,42.321 462.231,41.224 459.997,40.4 457.504,40.0 455.212,40.226 453.705,40.744 452.495,41.371 450.754,42.703 448.985,44.25 447.711,45.171 446.223,46.001 444.026,46.758 441.488,47.005 439.203,46.639 437.017,45.775 434.917,44.605 432.808,43.355 430.751,42.262 428.53,41.326 426.251,40.734 423.769,40.617 421.362,41.05 419.468,41.847 418.102,42.77 416.753,44.095 415.544,45.91 414.603,48.073 413.988,50.344 413.578,52.663 413.317,54.987 413.152,57.29 413.054,59.538 412.972,61.919 412.892,64.298 412.841,66.631 412.782,69.012 412.734,71.304 412.677,73.548 412.628,76.012 412.575,78.384 412.494,80.628 412.5,82.755 412.419,85.082 412.372,87.525 412.324,89.909 412.275,92.159 412.224,94.469 412.152,96.724 412.092,99.224 412.068,101.6 412.0,103.924 411.946,106.315 411.878,108.584 411.779,110.869 411.79,113.219 411.699,115.446 411.665,117.733 411.57,120.292 411.536,122.35 411.509,124.887 411.387,127.282 411.384,129.524 411.302,132.024 411.242,134.273 411.211,136.448 411.156,138.834 411.071,141.368 411.015,143.494 410.979,145.923 410.857,148.299 410.822,150.663 410.822,152.856 410.735,155.152 410.671,157.498 410.595,160.016 410.498,162.184 410.47,164.721 410.405,166.983 410.314,169.117 410.25,171.666 410.171,173.989 410.094,176.279 410.15,178.585 409.93,180.931 409.953,183.345 409.866,185.695 409.786,187.988 409.707,190.334 409.688,192.698 409.58,194.848 409.503,197.328 409.391,199.782 409.379,201.961 409.301,204.242 409.191,206.745 409.143,208.921 409.051,211.311 409.057,213.753 408.903,216.041 408.801,218.575 408.809,220.779 408.604,222.933 408.638,225.402 408.544,227.648 408.377,229.914 408.401,232.433 408.287,234.692 408.166,237.006 408.123,239.457 408.054,241.78 407.92,244.092 407.876,246.429 407.813,248.871 407.699,251.019 407.683,253.646 407.515,255.47 407.494,258.035 407.388,260.516 407.295,262.507 407.245,265.127 407.16,267.558 407.024,269.825 407.013,272.155 406.91,274.611 406.781,276.685 406.763,279.152 406.613,281.665 406.562,283.766 406.519,286.313 406.331,288.253 406.335,290.734 406.257,293.398 406.083,295.319 406.112,297.945 405.885,300.092 405.913,302.399 405.814,304.93 405.719,307.239 405.637,309.441 405.558,311.917 405.435,314.222 405.427,316.49 405.276,319.14 405.2,321.091 405.164,323.633 404.981,325.946 404.98,328.394 404.904,330.6 404.749,332.968 404.754,335.212 404.631,337.646 404.491,339.943 404.487,342.335 404.309,344.814 404.258,346.947 404.193,349.45 404.029,351.585 404.021,354.098 403.887,356.299 403.733,358.721 403.781,360.914 403.523,363.339 403.499,365.728 403.391,368.011 403.217,370.528 403.224,372.756 403.012,375.159 402.97,377.276 402.872,379.689 402.699,382.026 402.61,384.508 402.575,386.86 402.348,389.081 402.344,391.5 402.185,393.566 402.082,396.121 402.024,398.56 401.81,400.703 401.773,403.267 401.704,405.509 401.437,407.876 401.484,410.22 401.321,412.556 401.194,414.601 401.114,417.103 400.985,419.552 400.865,421.716 400.8,424.21 400.628,426.511 400.562,428.763 400.424,431.159 400.321,433.448 400.247,435.894 400.068,438.101 400.052,440.412 399.884,443.093 399.775,445.052 399.686,447.637 399.519,450.233 399.478,452.157 399.347,454.737 399.24,457.088 399.159,459.392 399.046,461.655 398.915,464.147 398.811,466.606 398.707,469.002 398.614,471.333 398.515,473.666 398.424,475.906 398.315,478.304 398.242,480.766 398.173,483.128 398.218,485.475 398.424,487.838 398.953,490.232 399.903,492.469 401.158,494.201 402.556,495.338 404.098,496.08 405.797,496.465 407.815,496.458 409.984,495.917 412.257,494.902 414.341,493.504 416.151,491.859 417.65,490.217 419.143,488.392 420.454,486.46 421.802,484.576 423.024,482.614 424.142,480.547 425.221,478.535 426.305,476.253 427.246,473.862 428.006,471.735 428.63,469.484 429.182,467.37 429.549,465.133 429.864,462.83 429.98,460.914 430.128,458.92 430.127,456.62 429.923,454.324 429.681,452.051 429.407,450.189 428.895,447.913 428.325,445.809 427.725,443.825 426.908,441.473 426.05,439.033 425.096,436.49 424.268,434.417 423.545,432.405 422.692,430.323 421.808,428.136 420.924,425.698 420.183,423.653 419.443,421.545 418.674,419.363 417.808,416.829 417.264,414.936 417.018,413.087 416.123,410.527 415.627,408.097 415.463,406.139 415.091,403.939 414.983,401.904 414.753,399.338 414.599,396.683 414.539,394.503 414.523,393.163 414.578,390.398 414.728,387.481 414.911,385.341 415.084,383.627 415.366,381.484 415.839,378.591 416.051,377.413 416.533,375.133 417.338,371.867 417.676,370.592 418.395,368.195 419.347,365.32 419.639,364.481 420.988,360.894" fill="none" stroke="white" stroke-width="4"
            stroke-linejoin="round" stroke-linecap="round"/>
</svg>
