<?xml version="1.0" encoding="utf-8"?>
<svg xmlns="http://www.w3.org/2000/svg" width="1000" height="600">
  <polyline points="626.889,558.229 623.996,558.521 621.183,558.749 618.347,558.962 615.492,559.193 612.601,559.368 609.658,559.558 606.8,559.672 603.991,559.773 601.087,559.864 598.159,559.937 595.307,560.0 592.421,559.929 589.587,559.965 586.612,559.953 583.753,559.84 580.904,559.765 578.005,559.66 575.112,559.502 572.242,559.342 569.408,559.157 566.505,558.917 563.661,558.685 560.812,558.421 557.915,558.119 555.085,557.811 552.201,557.472 549.363,557.107 546.547,556.721 543.62,556.357 540.738,555.914 537.98,555.528 535.127,555.054 532.227,554.638 529.41,554.15 526.516,553.678 523.579,553.193 520.688,552.706 517.884,552.236 515.099,551.769 512.36,551.306 509.669,550.851 507.02,550.392 504.496,549.921 501.793,549.399 498.852,548.764 495.952,547.992 493.052,547.017 490.15,545.785 487.42,544.318 485.098,542.776 483.334,541.383 482.118,540.274 480.984,539.136 479.748,537.788 478.173,535.827 476.565,533.384 475.152,530.721 473.951,527.956 472.983,525.224 472.168,522.425 471.495,519.59 470.956,516.783 470.523,513.934 470.166,511.099 469.831,508.251 469.516,505.466 469.199,502.59 468.889,499.757 468.579,496.92 468.261,494.042 467.933,491.126 467.614,488.305 467.262,485.442 466.904,482.541 466.53,479.719 466.158,476.858 465.719,474.045 465.305,471.261 464.862,468.466 464.374,465.668 463.871,462.892 463.323,460.075 462.807,457.283 462.223,454.552 461.63,451.716 461.015,448.904 460.438,446.144 459.778,443.327 459.128,440.515 458.491,437.733 457.87,434.944 457.247,432.211 456.612,429.433 456.001,426.602 455.394,423.783 454.833,420.96 454.209,418.136 453.666,415.29 453.12,412.479 452.562,409.612 452.019,406.797 451.51,403.992 451.0,401.18 450.499,398.469 449.999,395.682 449.484,392.867 449.009,390.161 448.47,387.407 447.905,384.545 447.358,381.723 446.763,378.921 446.144,376.115 445.519,373.308 444.853,370.512 444.17,367.702 443.423,364.866 442.69,362.043 441.936,359.349 441.16,356.623 440.347,353.853 439.529,351.206 438.697,348.596 437.832,345.972 436.903,343.29 435.975,340.677 434.985,337.997 433.95,335.252 432.917,332.594 431.859,329.912 430.775,327.205 429.724,324.557 428.669,321.89 427.617,319.208 426.596,316.548 425.62,313.879 424.651,311.172 423.721,308.414 422.825,305.665 422.019,303.042 421.206,300.308 420.416,297.573 419.705,294.891 418.979,292.096 418.316,289.352 417.681,286.626 417.093,283.801 416.52,281.01 416.004,278.259 415.52,275.463 415.038,272.645 414.62,269.851 414.196,266.985 413.763,264.03 413.377,261.204 412.956,258.351 412.557,255.497 412.157,252.727 411.726,249.864 411.292,246.996 410.833,244.139 410.322,241.223 409.788,238.396 409.171,235.528 408.466,232.657 407.686,229.841 406.797,227.052 405.825,224.342 404.717,221.61 403.515,218.964 402.195,216.363 400.763,213.814 399.234,211.352 397.606,208.973 395.887,206.694 394.05,204.484 392.07,202.332 390.015,200.317 387.865,198.418 385.648,196.661 383.313,195.016 380.916,193.517 378.473,192.164 375.99,190.945 373.548,189.908 371.115,189.042 368.606,188.301 365.948,187.679 363.212,187.199 360.404,186.87 357.57,186.708 354.725,186.714 351.888,186.89 349.079,187.244 346.222,187.785 343.484,188.469 340.744,189.329 338.11,190.349 335.556,191.555 333.073,192.947 330.726,194.461 328.468,196.099 326.248,197.885 324.154,199.72 322.095,201.602 320.041,203.519 317.954,205.443 315.807,207.396 313.638,209.287 311.358,211.111 308.977,212.825 306.456,214.408 303.871,215.782 301.27,216.932 298.752,217.866 296.439,218.573 294.14,219.108 291.775,219.463 289.183,219.635 286.383,219.631 283.631,219.427 280.826,219.0 277.995,218.349 275.208,217.508 272.434,216.474 269.811,215.331 267.239,214.075 264.652,212.704 262.107,211.246 259.632,209.633 257.218,207.86 254.963,206.063 252.731,204.242 250.531,202.364 248.379,200.465 246.227,198.505 244.124,196.532 242.024,194.571 239.847,192.589 237.733,190.712 235.54,188.828 233.305,186.989 231.12,185.206 228.823,183.388 226.565,181.645 224.317,179.945 221.993,178.205 219.595,176.481 217.338,174.829 215.052,173.19 212.663,171.517 210.277,169.798 207.931,168.159 205.566,166.48 203.194,164.808 200.859,163.121 198.559,161.462 196.236,159.771 193.872,158.035 191.542,156.31 189.268,154.598 186.998,152.875 184.708,151.092 182.436,149.297 180.172,147.461 177.968,145.617 175.834,143.674 173.818,141.556 171.99,139.197 170.499,136.606 169.505,134.072 168.966,131.712 168.778,129.379 168.941,127.012 169.51,124.637 170.495,122.347 171.866,120.192 173.595,118.183 175.624,116.435 177.844,114.968 180.255,113.77 182.896,112.803 185.68,111.998 188.525,111.311 191.332,110.727 194.11,110.177 196.788,109.626 199.382,109.025 201.91,108.336 204.526,107.489 207.197,106.499 209.916,105.369 212.614,104.144 215.207,102.874 217.733,101.583 220.274,100.258 222.772,98.918 225.183,97.565 227.557,96.174 229.995,94.506 232.236,92.418 233.86,90.043 234.68,87.655 234.792,85.301 234.262,83.16 233.186,81.367 231.589,79.982 229.536,79.104 227.15,78.878 224.513,79.445 221.957,80.858 219.733,82.703 217.696,84.677 215.763,86.77 213.884,88.936 211.935,91.122 209.91,93.213 207.781,95.14 205.47,96.889 203.006,98.343 200.324,99.479 197.626,100.189 195.013,100.486 192.696,100.416 190.427,100.064 188.237,99.464 186.133,98.601 184.03,97.38 181.91,95.64 180.013,93.456 178.429,91.031 176.991,88.503 175.615,85.917 174.369,83.373 173.186,80.757 172.04,78.064 170.963,75.334 169.961,72.504 169.08,69.557 168.409,66.636 168.003,63.762 167.891,60.773 168.137,57.887 168.781,55.008 169.827,52.284 171.146,49.945 172.546,48.122 173.877,46.742 175.315,45.481 177.227,44.123 179.718,42.771 182.582,41.66 185.503,40.894 188.317,40.441 191.219,40.173 194.11,40.031 197.024,40.0 199.863,40.076 202.715,40.243 205.663,40.505 208.579,40.815 211.487,41.174 214.299,41.547 217.143,41.946 219.972,42.363 222.846,42.796 225.668,43.223 228.542,43.711 231.361,44.191 234.275,44.707 237.108,45.229 239.982,45.748 242.777,46.292 245.561,46.846 248.477,47.445 251.33,48.048 254.124,48.687 256.999,49.303 259.706,49.921 262.456,50.616 265.36,51.3 268.019,51.961 270.839,52.691 273.811,53.489 276.478,54.187 279.302,54.953 282.156,55.727 284.991,56.543 287.504,57.26 290.346,58.1 293.155,58.946 295.909,59.792 298.59,60.646 301.392,61.539 304.217,62.473 306.897,63.395 309.551,64.336 312.353,65.328 314.934,66.332 317.742,67.4 320.278,68.391 322.88,69.459 325.826,70.736 328.468,71.909 330.931,73.059 333.483,74.308 336.056,75.587 338.496,76.879 341.179,78.338 343.737,79.804 346.186,81.304 348.756,82.89 351.026,84.393 353.473,86.092 355.851,87.767 358.074,89.447 360.328,91.225 362.416,92.903 364.654,94.784 366.883,96.757 368.958,98.666 370.973,100.545 372.932,102.517 374.977,104.646 376.791,106.554 378.548,108.564 380.534,110.89 382.422,113.122 384.019,115.179 385.806,117.557 387.512,119.883 389.245,122.316 390.869,124.658 392.334,126.937 393.976,129.516 395.521,131.974 397.05,134.467 398.392,136.941 399.792,139.303 401.221,141.964 402.617,144.593 403.863,146.938 405.228,149.639 406.554,152.036 407.967,154.739 409.259,157.295 410.616,159.96 411.84,162.369 413.168,165.019 414.454,167.646 415.642,169.933 416.912,172.702 418.251,175.356 419.506,177.84 420.662,180.577 421.985,182.936 423.032,185.649 424.43,188.442 425.492,191.088 426.753,193.664 427.691,196.08 428.898,198.821 429.95,201.212 430.986,204.114 432.232,206.993 433.159,209.471 434.257,212.264 435.229,214.916 436.154,217.641 437.137,219.964 437.919,222.628 438.931,225.494 439.743,228.273 440.669,231.036 441.506,233.939 442.309,236.789 443.096,239.448 443.805,242.197 444.544,244.912 445.236,247.832 445.868,250.523 446.447,253.022 447.174,256.149 447.832,259.025 448.353,261.602 448.992,264.778 449.498,267.348 450.072,270.28 450.61,273.295 451.065,275.824 451.593,278.695 452.051,281.515 452.566,284.48 453.039,287.377 453.525,290.29 453.978,293.03 454.461,295.838 454.988,298.758 455.545,301.642 456.198,304.504 456.996,307.286 458.061,310.179 459.357,312.89 460.923,315.36 462.364,317.101 463.705,318.377 465.535,319.843 468.026,321.523 470.48,323.289 472.253,324.892 473.33,326.068 474.329,327.349 475.565,329.36 476.578,331.966 477.082,334.708 477.09,337.432 476.751,339.968 476.245,342.686 475.686,345.484 475.174,348.21 474.746,350.646 474.401,353.075 474.051,355.817 473.773,358.751 473.528,361.649 473.366,364.565 473.297,367.438 473.288,370.229 473.318,373.133 473.465,376.06 473.633,378.955 473.848,381.764 474.082,384.592 474.368,387.506 474.641,390.281 474.948,393.157 475.215,395.911 475.538,398.789 475.814,401.754 476.166,404.685 476.498,407.536 476.793,410.232 477.103,413.113 477.433,416.169 477.758,419.0 478.074,421.809 478.39,424.766 478.714,427.412 479.017,430.329 479.342,433.389 479.636,436.126 479.964,438.764 480.281,441.834 480.561,444.614 480.898,447.297 481.218,450.297 481.524,453.174 481.827,456.046 482.157,458.797 482.465,461.71 482.786,464.508 483.129,467.378 483.505,470.508 483.886,473.421 484.255,476.011 484.702,478.828 485.288,481.952 485.936,484.813 486.661,487.474 487.566,490.271 488.661,493.119 489.831,495.74 491.184,498.369 492.425,500.506 493.89,502.757 495.469,504.925 497.274,507.172 498.962,509.079 501.012,511.169 503.181,513.163 505.345,514.967 507.545,516.65 510.115,518.449 512.675,520.037 514.939,521.342 517.66,522.725 520.525,524.038 523.181,525.098 525.704,526.034 528.487,527.0 531.675,527.975 534.188,528.676 536.978,529.415 539.881,530.09 542.708,530.67 545.739,531.236 548.368,531.658 551.287,532.027 554.433,532.338 557.179,532.516 560.154,532.61 562.999,532.601 565.842,532.501 568.71,532.301 571.664,532.006 574.442,531.624 577.23,531.133 580.394,530.468 582.876,529.852 585.585,529.082 588.16,528.251 590.812,527.316 593.245,526.374 595.733,525.297 598.508,524.004 600.819,522.811 603.468,521.343 605.955,519.86 608.385,518.363 610.625,517.036 612.823,515.704 614.723,514.585 616.752,513.44 618.791,512.302 621.369,511.0 623.853,509.714 626.765,508.441 629.388,507.315 631.935,506.256 634.91,505.134 637.578,504.206 640.349,503.202 643.3,502.291 645.81,501.546 648.674,500.717 651.486,499.985 654.232,499.324 657.1,498.628 659.909,498.059 662.722,497.5 665.831,496.947 668.535,496.516 671.404,496.129 674.423,495.85 677.346,495.732 680.323,495.801 683.27,496.071 686.279,496.57 689.24,497.295 691.915,498.147 694.002,498.915 695.809,499.643 697.255,500.325 698.962,501.15 701.139,502.277 703.807,503.598 706.53,504.836 708.903,505.786 711.08,506.524 712.976,507.067 715.006,507.57 717.801,508.121 720.758,508.465 723.733,508.582 726.693,508.453 729.699,508.085 732.595,507.519 735.245,506.848 738.042,505.999 740.647,505.122 743.441,504.107 746.065,503.107 748.899,501.964 751.438,500.872 754.025,499.701 756.73,498.377 759.415,496.919 761.765,495.549 764.281,493.964 766.76,492.266 768.922,490.675 771.444,488.708 773.649,486.838 775.849,484.834 777.909,482.834 779.89,480.815 781.813,478.684 783.645,476.574 785.586,474.189 787.414,471.809 789.078,469.535 790.556,467.436 792.153,465.096 793.672,462.813 795.226,460.466 796.778,458.108 798.359,455.734 800.096,453.181 801.951,450.667 803.796,448.458 805.559,446.662 807.505,445.067 809.667,443.79 811.835,442.986 814.097,442.618 816.158,442.668 817.902,443.038 819.777,443.773 822.051,445.241 824.132,447.399 825.735,449.885 826.962,452.575 827.949,455.334 828.82,458.249 829.531,460.954 830.195,463.738 830.868,466.765 831.465,469.794 831.893,472.692 832.109,475.469 832.105,478.277 831.824,481.207 831.172,484.243 830.167,487.122 828.712,489.997 827.143,492.315 825.773,493.908 824.457,495.198 822.966,496.421 820.682,497.957 818.023,499.419 815.495,500.615 812.88,501.691 810.539,502.591 807.796,503.586 805.155,504.602 802.605,505.568 800.005,506.666 797.466,507.784 794.614,509.114 792.046,510.238 789.701,511.34 787.398,512.487 784.564,513.811 781.886,515.072 779.37,516.253 776.889,517.391 774.247,518.55 771.88,519.67 768.956,520.98 766.271,522.299 763.875,523.177 760.976,524.394 758.715,525.262 756.021,526.54 753.327,527.393 750.972,528.514 747.884,529.658 744.998,530.404 742.741,531.686 739.609,532.6 737.136,533.405 734.521,534.645 732.22,534.841 729.0,536.393 726.091,537.443 723.457,537.844 720.864,539.142 717.693,539.93 716.443,540.442 712.789,541.482 709.96,542.032 707.204,543.117 704.403,543.406 701.544,544.625 698.56,545.378 696.299,546.025 692.538,546.532 692.354,547.352 687.407,547.779 685.305,548.279 681.837,549.073 679.905,549.51 676.401,550.271 674.319,550.717 670.757,551.45 669.337,551.736 665.214,552.537 661.784,553.174 660.184,553.464 656.565,554.093 654.953,554.368 650.9,555.024 649.275,555.281 648.461,555.406 642.568,556.263 639.029,556.737 637.382,556.95 634.487,557.298 632.004,557.595 626.889,558.229" fill="none" stroke="white" stroke-width="4"
            stroke-linejoin="round" stroke-linecap="round"/>
  <line x1="624.881" y1="538.330" x2="628.897" y2="578.128" stroke="red" stroke-width="3" stroke-linecap="round"/>
</svg>
