<?xml version="1.0" encoding="utf-8"?>
<svg xmlns="http://www.w3.org/2000/svg" width="1000" height="600">
  <polyline points="796.685,175.854 799.304,175.491 801.951,175.158 804.579,174.843 807.219,174.566 809.805,174.313 812.461,174.088 815.054,173.883 817.637,173.741 820.201,173.599 822.848,173.485 825.442,173.405 828.077,173.34 830.778,173.304 833.385,173.295 835.93,173.306 838.595,173.35 841.227,173.413 843.867,173.513 846.467,173.623 849.059,173.766 851.638,173.917 854.22,174.105 856.855,174.338 859.467,174.598 862.068,174.881 864.694,175.19 867.29,175.51 869.89,175.849 872.487,176.195 875.078,176.549 877.701,176.899 880.322,177.255 882.903,177.604 885.478,177.946 888.133,178.297 890.783,178.638 893.412,178.955 896.022,179.231 898.658,179.458 901.293,179.577 904.0,179.541 906.663,179.316 909.391,178.854 912.085,178.132 914.487,177.229 916.497,176.256 918.179,175.285 919.752,174.246 921.449,172.985 923.352,171.339 925.194,169.417 926.846,167.319 928.309,165.061 929.614,162.747 930.88,160.453 932.279,158.179 933.745,156.18 935.311,154.498 936.989,153.138 938.777,152.08 940.735,151.312 942.807,150.897 944.964,150.847 947.097,151.199 949.138,151.92 951.112,152.995 952.964,154.405 954.629,156.091 956.049,157.992 957.285,160.144 958.307,162.518 959.062,165.009 959.576,167.591 959.881,170.234 960.0,172.929 959.946,175.622 959.74,178.293 959.407,180.933 958.944,183.57 958.37,186.158 957.71,188.705 956.974,191.235 956.179,193.75 955.34,196.253 954.467,198.739 953.566,201.211 952.633,203.671 951.674,206.141 950.678,208.574 949.657,211.008 948.594,213.449 947.495,215.878 946.37,218.281 945.225,220.641 944.076,222.989 942.865,225.331 941.652,227.641 940.407,229.931 939.124,232.209 937.797,234.523 936.447,236.791 935.11,238.994 933.735,241.2 932.299,243.431 930.846,245.659 929.37,247.863 927.905,250.019 926.395,252.16 924.832,254.358 923.252,256.513 921.675,258.629 920.092,260.711 918.474,262.797 916.826,264.865 915.186,266.901 913.523,268.943 911.855,270.964 910.141,272.991 908.422,275.008 906.69,277.014 904.947,279.016 903.214,280.982 901.466,282.933 899.663,284.905 897.823,286.838 895.945,288.701 893.984,290.492 891.927,292.189 889.757,293.781 887.463,295.253 885.047,296.585 882.629,297.709 880.314,298.615 878.04,299.363 875.99,299.937 874.101,300.35 872.07,300.65 869.665,300.835 866.958,300.867 864.251,300.757 861.581,300.57 858.945,300.402 856.419,300.351 854.101,300.428 851.935,300.616 849.806,300.927 847.596,301.392 845.239,302.026 842.697,302.829 840.106,303.78 837.644,304.831 835.243,306.007 832.915,307.298 830.656,308.713 828.461,310.238 826.369,311.839 824.353,313.507 822.378,315.252 820.465,317.028 818.594,318.875 816.753,320.788 814.925,322.751 813.161,324.72 811.428,326.686 809.682,328.69 807.926,330.71 806.156,332.751 804.412,334.783 802.709,336.768 800.994,338.763 799.316,340.708 797.718,342.583 796.104,344.447 794.497,346.332 792.825,348.233 791.081,350.196 789.242,352.191 787.366,354.136 785.479,355.991 783.547,357.78 781.533,359.52 779.517,361.164 777.498,362.706 775.399,364.212 773.261,365.642 771.089,367.011 768.922,368.271 766.757,369.441 764.505,370.568 762.211,371.62 759.907,372.588 757.552,373.49 755.127,374.335 752.707,375.092 750.278,375.761 747.787,376.371 745.314,376.896 742.814,377.353 740.279,377.735 737.695,378.053 735.097,378.302 732.492,378.466 729.859,378.588 727.25,378.642 724.618,378.625 721.98,378.583 719.358,378.489 716.73,378.372 714.12,378.231 711.473,378.086 708.846,377.91 706.238,377.74 703.569,377.556 700.939,377.387 698.294,377.216 695.611,377.059 692.978,376.905 690.379,376.78 687.732,376.679 685.086,376.628 682.431,376.625 679.796,376.693 677.158,376.874 674.475,377.206 671.822,377.708 669.2,378.411 666.656,379.346 664.273,380.532 662.193,381.884 660.47,383.305 658.987,384.823 657.713,386.451 656.632,388.221 655.75,390.103 655.051,392.112 654.52,394.29 654.181,396.666 654.001,399.31 653.888,402.041 653.742,404.682 653.503,407.209 653.159,409.567 652.679,411.872 652.064,414.12 651.308,416.324 650.405,418.496 649.313,420.69 648.078,422.8 646.716,424.822 645.209,426.801 643.546,428.741 641.742,430.608 639.848,432.352 637.831,433.997 635.657,435.566 633.44,436.98 631.114,438.292 628.632,439.506 626.174,440.56 623.645,441.505 621.065,442.331 618.543,443.026 615.983,443.625 613.337,444.163 610.71,444.613 608.118,445.008 605.508,445.357 602.878,445.664 600.219,445.97 597.584,446.211 594.979,446.46 592.291,446.675 589.574,446.883 586.994,447.061 584.395,447.228 581.748,447.396 579.18,447.559 576.538,447.7 573.894,447.851 571.28,447.984 568.639,448.116 565.991,448.248 563.43,448.368 560.761,448.467 558.16,448.583 555.521,448.685 552.868,448.764 550.297,448.855 547.637,448.915 545.011,448.982 542.382,449.022 539.668,449.064 537.101,449.075 534.483,449.139 531.845,449.153 529.22,449.12 526.573,449.151 523.889,449.145 521.343,449.084 518.665,449.071 516.097,449.049 513.472,448.989 510.841,448.948 508.185,448.864 505.56,448.77 502.905,448.698 500.348,448.62 497.728,448.492 495.188,448.355 492.523,448.256 489.901,448.089 487.208,447.95 484.563,447.759 481.958,447.606 479.274,447.397 476.811,447.225 474.174,447.002 471.545,446.808 468.961,446.527 466.321,446.287 463.663,446.047 461.088,445.746 458.495,445.472 455.836,445.158 453.321,444.868 450.711,444.532 448.072,444.172 445.433,443.833 442.866,443.478 440.209,443.096 437.713,442.712 435.06,442.311 432.395,441.9 429.825,441.458 427.169,441.057 424.636,440.625 422.098,440.193 419.565,439.743 416.948,439.283 414.382,438.809 411.838,438.309 409.087,437.777 406.496,437.27 403.949,436.751 401.333,436.199 398.827,435.685 396.262,435.097 393.673,434.53 391.228,433.963 388.627,433.385 386.008,432.774 383.442,432.177 380.862,431.565 378.379,430.984 375.737,430.354 373.208,429.747 370.638,429.128 368.059,428.501 365.433,427.857 362.963,427.236 360.434,426.572 357.787,425.809 355.29,424.974 352.821,423.99 350.402,422.829 348.013,421.447 345.775,419.898 343.715,418.208 341.988,416.559 340.604,415.038 339.425,413.589 338.255,412.0 336.955,409.965 335.628,407.528 334.473,405.055 333.478,402.738 332.538,400.606 331.578,398.634 330.483,396.621 329.274,394.626 327.968,392.699 326.495,390.772 324.918,388.934 323.163,387.103 321.262,385.305 319.223,383.558 317.113,381.924 314.974,380.425 312.676,378.989 310.219,377.633 307.806,376.439 305.445,375.406 303.038,374.457 300.48,373.555 297.985,372.77 295.554,372.038 292.96,371.294 290.37,370.583 287.837,369.925 285.284,369.299 282.637,368.66 280.198,368.058 277.683,367.482 275.006,366.852 272.546,366.284 270.02,365.729 267.335,365.133 264.765,364.54 262.165,363.976 259.684,363.453 257.14,362.87 254.49,362.327 251.982,361.834 249.376,361.262 246.673,360.722 244.228,360.192 241.498,359.694 239.007,359.182 236.445,358.737 233.825,358.17 231.241,357.727 228.612,357.238 226.054,356.75 223.729,356.383 220.998,355.896 218.299,355.436 215.634,354.946 213.128,354.582 210.613,354.158 207.904,353.688 205.416,353.368 202.783,352.97 200.154,352.58 197.444,352.207 194.865,351.908 192.249,351.594 189.675,351.234 187.142,351.043 184.538,350.744 181.801,350.492 179.176,350.285 176.667,350.036 173.988,349.882 171.32,349.674 168.803,349.565 166.052,349.446 163.431,349.337 160.954,349.236 158.25,349.2 155.62,349.143 153.019,349.17 150.266,349.189 147.654,349.232 145.297,349.25 142.501,349.422 139.751,349.588 137.337,349.708 134.714,349.863 132.043,350.152 129.445,350.364 126.854,350.655 124.181,350.949 121.784,351.295 119.015,351.669 116.447,352.057 113.939,352.526 111.435,352.951 108.783,353.432 106.154,353.946 103.644,354.502 101.353,354.975 98.701,355.556 96.077,356.137 93.381,356.741 90.929,357.312 88.275,357.906 85.689,358.496 83.032,359.116 80.482,359.705 77.933,360.286 75.286,360.886 72.657,361.486 70.072,362.07 67.563,362.639 64.897,363.229 62.267,363.797 59.714,364.33 57.114,364.827 54.493,365.198 51.799,365.364 49.047,365.233 46.328,364.647 44.02,363.578 42.234,362.113 41.001,360.395 40.269,358.539 40.0,356.62 40.167,354.756 40.727,352.881 41.631,351.103 42.956,349.327 44.814,347.51 47.029,345.89 49.413,344.582 51.801,343.6 54.359,342.8 56.95,342.189 59.591,341.727 62.27,341.363 64.902,341.072 67.529,340.846 70.187,340.624 72.8,340.438 75.425,340.232 78.023,340.036 80.492,339.795 83.012,339.502 85.534,339.151 88.04,338.775 90.51,338.327 92.909,337.826 95.338,337.281 97.95,336.641 100.377,335.997 102.916,335.325 105.48,334.542 107.962,333.769 110.421,332.935 112.894,332.136 115.452,331.204 117.962,330.287 120.51,329.297 123.02,328.388 125.447,327.469 127.713,326.522 130.174,325.524 132.577,324.525 134.903,323.577 137.39,322.56 139.896,321.48 142.156,320.564 144.675,319.5 147.149,318.523 149.54,317.527 152.04,316.462 154.448,315.454 156.748,314.521 159.25,313.528 161.694,312.498 163.977,311.551 166.455,310.522 168.91,309.53 171.382,308.507 173.643,307.576 176.169,306.521 178.802,305.497 181.023,304.54 183.493,303.527 186.027,302.487 188.283,301.614 190.774,300.586 193.253,299.6 195.697,298.671 197.934,297.711 200.602,296.682 203.179,295.714 205.322,294.844 207.887,293.883 210.33,293.0 212.836,292.021 215.24,291.063 217.675,290.222 220.341,289.196 222.639,288.388 225.106,287.447 227.635,286.57 229.916,285.75 232.6,284.735 234.869,283.983 237.544,283.023 239.826,282.284 242.445,281.333 245.012,280.473 247.298,279.722 249.905,278.826 252.25,278.077 254.825,277.263 257.18,276.513 259.891,275.624 262.31,274.938 264.74,274.174 267.282,273.42 269.738,272.666 272.284,272.007 274.755,271.219 277.237,270.536 279.723,269.891 282.408,269.106 284.943,268.444 287.364,267.753 290.042,267.108 292.39,266.41 295.186,265.768 297.357,265.091 300.173,264.463 302.867,263.827 305.297,263.189 308.059,262.515 310.422,261.964 312.99,261.357 315.573,260.704 318.036,260.233 320.601,259.607 323.334,259.029 325.857,258.427 328.451,257.803 330.864,257.343 333.514,256.703 335.962,256.165 338.704,255.609 341.231,254.995 343.87,254.448 346.412,253.968 348.792,253.33 351.539,252.829 354.003,252.214 356.699,251.649 359.054,251.203 361.727,250.579 364.537,250.035 366.763,249.463 369.343,248.97 371.826,248.425 374.648,247.742 377.325,247.291 379.86,246.642 382.397,246.171 384.771,245.566 387.331,245.101 389.885,244.503 392.647,243.904 395.054,243.435 397.826,242.795 400.429,242.254 402.64,241.778 405.379,241.119 407.97,240.671 410.624,239.967 413.173,239.483 415.853,238.892 418.255,238.367 420.648,237.909 423.412,237.242 425.865,236.787 428.495,236.138 430.972,235.702 433.81,235.03 436.197,234.492 438.777,233.974 441.261,233.435 443.945,232.859 446.454,232.28 448.974,231.83 451.729,231.198 454.263,230.654 456.805,230.092 459.567,229.548 461.93,229.002 464.634,228.462 466.869,227.931 469.655,227.377 472.095,226.815 474.712,226.319 477.496,225.647 479.851,225.262 482.459,224.553 485.028,224.17 487.778,223.463 490.339,223.013 492.732,222.406 495.341,221.899 497.983,221.326 500.503,220.782 502.914,220.262 505.74,219.631 508.199,219.16 510.868,218.542 513.378,218.016 515.98,217.454 518.436,216.907 521.138,216.363 523.705,215.8 526.141,215.306 528.651,214.747 531.372,214.161 534.012,213.604 536.478,213.091 539.03,212.544 541.583,211.966 544.086,211.468 547.04,210.82 549.346,210.351 551.829,209.805 554.816,209.189 557.121,208.702 559.721,208.162 562.599,207.592 565.228,207.107 567.765,206.689 570.478,206.362 573.224,206.181 575.808,206.148 578.727,206.311 581.441,206.653 583.899,207.146 586.395,207.831 587.969,208.359 589.345,208.891 591.36,209.758 593.892,210.995 596.36,212.274 598.361,213.265 600.019,214.005 601.698,214.679 603.76,215.402 606.119,216.062 608.844,216.637 611.669,217.031 614.258,217.214 616.934,217.239 619.619,217.092 622.08,216.839 624.742,216.426 627.256,215.963 629.927,215.399 632.51,214.812 634.953,214.228 637.503,213.601 640.229,212.91 642.698,212.304 645.285,211.668 647.653,211.103 649.875,210.513 653.022,209.744 655.535,209.073 657.861,208.59 660.558,207.837 663.363,207.145 665.204,206.604 667.896,205.986 670.909,205.196 673.161,204.596 675.375,204.073 678.385,203.319 681.178,202.635 683.201,202.097 686.059,201.362 688.336,200.769 690.694,200.089 693.517,199.468 696.499,198.625 698.328,198.396 701.277,197.491 704.028,196.752 706.271,196.332 708.858,195.507 711.268,195.082 713.634,194.354 716.522,193.715 718.631,193.161 721.499,192.39 724.661,191.681 726.339,191.061 729.402,190.544 732.106,189.773 734.362,189.193 737.0,188.63 738.916,188.168 742.208,187.435 743.983,187.027 746.976,186.275 750.061,185.535 751.57,185.206 754.784,184.408 755.783,184.117 759.758,183.218 762.793,182.516 764.703,181.991 767.735,181.325 769.241,180.923 772.784,180.178 775.371,179.587 777.687,179.111 780.328,178.579 783.084,177.943 785.036,177.656 788.503,176.997 791.157,176.52 793.716,176.162 796.685,175.854" fill="none" stroke="white" stroke-width="4"
            stroke-linejoin="round" stroke-linecap="round"/>
  <line x1="799.431" y1="195.665" x2="793.939" y2="156.043" stroke="red" stroke-width="3" stroke-linecap="round"/>
</svg>
