<?xml version="1.0" encoding="utf-8"?>
<svg xmlns="http://www.w3.org/2000/svg" width="1000" height="600">
  <polyline points="746.763,554.996 743.805,554.724 740.915,554.518 737.901,554.271 734.9,554.019 731.944,553.793 729.045,553.561 726.088,553.306 723.138,553.087 720.162,552.853 717.152,552.578 714.204,552.326 711.131,552.098 708.246,551.862 705.237,551.587 702.225,551.363 699.291,551.134 696.355,550.863 693.36,550.62 690.315,550.373 687.393,550.082 684.486,549.841 681.469,549.602 678.503,549.292 675.498,549.051 672.51,548.769 669.569,548.553 666.583,548.288 663.627,547.998 660.663,547.728 657.733,547.505 654.662,547.239 651.674,546.929 648.788,546.695 645.795,546.411 642.796,546.129 639.833,545.88 636.866,545.579 633.875,545.323 630.921,545.053 627.932,544.736 624.962,544.475 621.957,544.186 619.04,543.923 616.066,543.609 613.119,543.371 610.132,543.054 607.172,542.763 604.123,542.508 601.156,542.225 598.266,541.895 595.267,541.625 592.358,541.36 589.338,541.055 586.321,540.741 583.378,540.519 580.429,540.213 577.474,539.934 574.506,539.649 571.549,539.385 568.535,539.126 565.488,538.834 562.575,538.567 559.613,538.303 556.706,538.041 553.659,537.753 550.708,537.533 547.749,537.197 544.807,536.999 541.794,536.687 538.841,536.463 535.899,536.171 532.865,535.902 529.9,535.649 526.908,535.376 523.971,535.097 520.964,534.841 518.039,534.594 515.095,534.297 512.119,534.099 509.082,533.768 506.112,533.51 503.152,533.216 500.172,532.974 497.204,532.698 494.186,532.429 491.311,532.199 488.291,531.91 485.297,531.688 482.355,531.389 479.381,531.149 476.379,530.866 473.448,530.622 470.508,530.379 467.5,530.068 464.545,529.847 461.547,529.569 458.482,529.3 455.556,529.049 452.627,528.819 449.652,528.543 446.621,528.293 443.712,528.004 440.714,527.795 437.687,527.538 434.728,527.248 431.724,527.043 428.744,526.818 425.761,526.544 422.728,526.33 419.805,526.068 416.823,525.86 413.786,525.618 410.832,525.357 407.846,525.159 404.889,524.942 401.867,524.782 398.91,524.494 395.904,524.252 392.928,524.047 389.906,523.83 386.894,523.629 383.924,523.441 380.96,523.205 377.967,522.848 374.97,522.209 372.065,521.153 369.608,519.635 367.881,517.929 366.746,516.003 366.001,513.543 365.39,510.706 364.523,508.061 363.333,505.958 361.692,504.343 359.369,503.146 356.467,502.499 353.426,502.449 350.426,502.862 347.536,503.492 344.644,504.208 341.732,504.958 338.88,505.729 336.027,506.512 333.13,507.324 330.263,508.11 327.398,508.877 324.495,509.625 321.61,510.289 318.679,510.926 315.782,511.476 312.896,511.967 310.008,512.385 307.079,512.736 304.109,513.057 301.15,513.309 298.215,513.495 295.265,513.639 292.344,513.731 289.437,513.796 286.474,513.812 283.441,513.777 280.386,513.716 277.418,513.609 274.456,513.47 271.502,513.323 268.529,513.133 265.509,512.927 262.563,512.72 259.596,512.503 256.619,512.265 253.657,512.007 250.736,511.737 247.8,511.451 244.837,511.128 241.831,510.765 238.864,510.367 235.879,509.914 232.905,509.429 229.968,508.896 227.1,508.295 224.195,507.659 221.331,506.956 218.468,506.2 215.584,505.364 212.81,504.481 210.001,503.53 207.217,502.494 204.478,501.416 201.742,500.264 199.057,499.055 196.429,497.798 193.757,496.451 191.186,495.082 188.588,493.611 186.039,492.097 183.553,490.548 181.073,488.906 178.643,487.234 176.26,485.5 173.933,483.716 171.683,481.919 169.473,480.073 167.247,478.118 165.063,476.142 162.958,474.112 160.88,472.047 158.836,469.912 156.836,467.716 154.887,465.48 152.954,463.169 151.093,460.861 149.316,458.538 147.556,456.135 145.856,453.702 144.228,451.247 142.644,448.73 141.086,446.152 139.574,443.552 138.126,440.959 136.739,438.273 135.411,435.617 134.141,432.942 132.942,430.267 131.773,427.563 130.654,424.831 129.559,422.02 128.547,419.23 127.558,416.393 126.63,413.565 125.772,410.742 124.921,407.855 124.115,404.956 123.376,402.043 122.673,399.185 122.011,396.279 121.389,393.351 120.799,390.389 120.281,387.45 119.777,384.55 119.3,381.646 118.873,378.697 118.463,375.69 118.098,372.725 117.76,369.746 117.461,366.823 117.171,363.816 116.889,360.806 116.626,357.832 116.391,354.907 116.154,351.901 115.981,348.926 115.76,345.965 115.575,342.934 115.4,339.948 115.217,337.07 115.051,334.098 114.907,331.075 114.735,328.08 114.574,325.085 114.41,322.159 114.27,319.142 114.125,316.099 113.971,313.14 113.872,310.212 113.726,307.184 113.595,304.247 113.463,301.256 113.338,298.215 113.198,295.296 113.094,292.305 112.948,289.274 112.823,286.37 112.694,283.355 112.547,280.355 112.449,277.426 112.311,274.397 112.17,271.408 112.016,268.457 111.908,265.472 111.777,262.422 111.65,259.462 111.52,256.426 111.405,253.425 111.28,250.403 111.154,247.442 111.059,244.437 110.932,241.451 110.803,238.444 110.654,235.424 110.47,232.498 110.19,229.52 109.682,226.513 108.916,223.544 107.81,220.749 106.46,218.391 104.955,216.446 103.248,214.771 101.058,213.136 98.493,211.481 96.11,209.834 94.168,208.234 92.471,206.522 90.806,204.413 89.217,201.86 87.885,199.106 86.799,196.248 85.936,193.436 85.202,190.621 84.516,187.768 83.844,184.937 83.152,182.017 82.457,179.156 81.752,176.273 80.989,173.373 80.188,170.475 79.357,167.647 78.503,164.794 77.602,161.99 76.698,159.161 75.748,156.283 74.812,153.518 73.887,150.781 72.882,147.889 71.906,145.054 70.929,142.252 69.922,139.432 68.945,136.642 67.952,133.898 66.952,131.047 65.92,128.156 64.96,125.428 63.953,122.583 62.946,119.728 61.968,116.936 60.986,114.075 60.025,111.308 59.085,108.552 58.132,105.735 57.159,102.78 56.265,99.897 55.474,97.119 54.771,94.201 54.197,91.111 53.836,88.084 53.678,85.158 53.699,82.197 53.969,79.28 54.473,76.422 55.162,73.772 56.117,71.013 57.248,68.419 58.549,65.971 60.032,63.611 61.737,61.312 63.623,59.14 65.609,57.167 67.806,55.291 70.086,53.62 72.553,52.059 75.208,50.645 78.027,49.389 80.778,48.367 83.795,47.456 86.803,46.75 89.651,46.215 92.672,45.804 95.589,45.489 98.613,45.243 101.573,45.043 104.547,44.866 107.532,44.734 110.486,44.607 113.492,44.494 116.394,44.342 119.288,44.169 122.356,43.955 125.317,43.747 128.319,43.481 131.245,43.218 134.234,42.922 137.191,42.637 140.016,42.355 143.068,42.047 146.114,41.733 149.024,41.442 151.932,41.155 155.04,40.854 157.924,40.593 160.99,40.334 164.039,40.126 167.121,40.0 169.929,40.015 173.019,40.236 176.102,40.694 178.976,41.376 181.707,42.29 184.105,43.336 186.494,44.616 188.699,46.032 190.981,47.76 193.223,49.743 195.384,51.949 197.373,54.276 199.236,56.781 200.849,59.248 202.344,61.784 203.787,64.384 205.206,67.023 206.508,69.569 207.872,72.25 209.264,75.009 210.618,77.751 211.945,80.459 213.259,83.036 214.53,85.56 215.894,88.167 217.26,90.759 218.678,93.483 220.12,96.179 221.523,98.805 222.941,101.455 224.377,104.129 225.806,106.792 227.254,109.436 228.678,112.079 230.046,114.556 231.401,117.073 232.819,119.673 234.285,122.333 235.74,124.955 237.144,127.538 238.573,130.152 240.06,132.829 241.537,135.518 242.982,138.088 244.41,140.667 245.851,143.279 247.33,145.847 248.737,148.371 250.238,150.984 251.717,153.471 253.186,156.045 254.727,158.627 256.152,161.077 257.783,163.747 259.35,166.372 260.943,168.934 262.533,171.513 264.092,173.979 265.673,176.383 267.233,178.811 268.908,181.317 270.644,183.874 272.423,186.441 274.073,188.84 275.722,191.047 277.45,193.463 279.193,195.808 281.008,198.239 282.803,200.638 284.644,203.017 286.502,205.463 288.347,207.769 290.171,210.021 292.043,212.392 293.879,214.626 295.795,217.0 297.607,219.242 299.547,221.512 301.564,223.961 303.517,226.145 305.43,228.493 307.307,230.627 309.146,232.807 311.234,235.194 313.31,237.651 315.15,239.769 317.022,241.824 318.912,244.149 320.961,246.427 323.01,248.869 324.819,250.998 326.784,253.149 328.69,255.433 330.854,257.881 332.695,260.035 334.665,262.134 336.529,264.487 338.513,266.77 340.612,268.939 342.486,271.292 344.363,273.5 346.363,275.74 348.332,277.988 350.301,280.229 352.322,282.56 354.197,284.756 356.096,286.935 358.112,289.178 360.155,291.555 362.101,293.783 363.993,295.95 365.952,298.224 367.918,300.461 369.981,302.796 371.827,304.893 373.807,307.195 375.751,309.401 377.742,311.732 379.808,314.012 381.726,316.208 383.624,318.32 385.585,320.762 387.638,322.974 389.581,325.169 391.594,327.466 393.404,329.641 395.396,331.907 397.406,334.156 399.359,336.45 401.349,338.711 403.113,340.947 405.135,343.115 407.117,345.407 409.05,347.699 411.028,350.022 413.008,352.258 414.857,354.418 416.799,356.701 418.817,359.111 420.785,361.3 422.6,363.436 424.702,365.858 426.573,368.064 428.616,370.44 430.623,372.731 432.619,375.01 434.656,377.305 436.652,379.467 438.788,381.612 440.987,383.593 443.387,385.485 445.919,387.231 448.428,388.686 450.85,389.88 453.261,390.799 455.818,391.588 458.641,392.265 461.611,392.765 464.601,392.973 467.455,393.104 470.49,393.033 473.395,392.986 476.359,393.042 479.222,393.258 481.948,393.624 484.772,394.165 487.439,394.827 490.329,395.74 493.032,396.781 495.591,397.96 498.119,399.302 500.536,400.775 503.005,402.47 505.216,404.164 507.481,406.069 509.655,407.984 512.033,410.07 514.31,411.951 516.623,413.715 519.05,415.403 521.134,416.736 523.414,418.074 525.888,419.385 528.536,420.63 531.441,421.838 534.382,422.922 537.179,423.812 540.038,424.62 542.946,425.296 546.024,425.88 548.972,426.347 552.073,426.722 555.124,427.011 558.026,427.288 560.861,427.536 563.811,427.791 566.802,428.052 569.859,428.316 572.799,428.566 575.608,428.728 578.61,429.059 581.587,429.29 584.64,429.564 587.571,429.832 590.52,430.12 593.561,430.408 596.523,430.583 599.205,430.868 602.233,431.105 605.44,431.467 608.512,431.661 611.321,431.919 614.44,432.194 617.33,432.424 620.178,432.738 623.113,432.936 626.185,433.235 629.28,433.501 632.03,433.668 635.179,434.007 638.207,434.379 640.833,434.46 643.883,434.729 646.984,435.084 649.883,435.269 652.861,435.594 656.038,435.86 658.894,436.101 661.568,436.283 664.752,436.647 667.984,436.826 670.472,437.208 673.486,437.377 676.778,437.585 679.537,437.835 682.605,438.277 685.776,438.383 688.628,438.649 691.505,439.015 694.595,439.226 697.36,439.529 700.493,439.831 703.475,439.927 706.264,440.381 709.414,440.633 712.511,440.886 715.287,441.054 718.25,441.581 721.257,441.59 724.3,442.046 727.119,442.416 730.211,442.607 733.177,442.862 735.896,443.369 739.208,443.467 742.222,443.799 745.06,444.264 747.892,444.444 750.898,444.683 753.872,445.207 756.766,445.367 759.847,445.626 762.775,446.048 765.757,446.451 768.704,446.608 771.705,446.913 774.643,447.369 777.835,447.598 780.609,447.817 783.383,448.292 786.582,448.466 789.658,448.714 792.451,449.28 795.657,449.404 798.316,449.657 801.297,450.054 804.471,450.392 807.384,450.518 810.303,451.099 813.073,451.054 816.058,451.579 819.155,451.894 822.238,452.201 825.059,452.394 828.065,452.854 830.971,452.949 834.064,453.372 837.044,453.675 840.001,454.014 842.712,454.03 845.823,454.508 848.909,454.988 851.815,454.908 854.726,455.412 857.585,455.604 860.817,455.918 863.757,456.221 866.508,456.517 869.752,456.779 872.669,457.081 875.659,457.404 878.594,457.738 881.618,457.875 884.508,458.281 887.429,458.541 890.497,458.699 893.319,459.234 896.394,459.348 899.492,459.618 902.512,460.077 905.497,460.437 908.145,460.668 911.379,461.25 914.438,461.874 917.312,462.581 920.206,463.453 922.967,464.536 925.666,465.77 928.26,467.135 930.767,468.751 933.025,470.423 935.087,472.237 937.051,474.29 938.814,476.341 940.385,478.64 941.85,481.016 943.162,483.593 944.142,486.314 944.971,488.965 945.592,491.736 946.106,494.521 946.271,497.403 946.322,500.44 946.109,503.465 945.723,506.462 945.158,509.371 944.437,512.219 943.49,515.159 942.324,518.097 940.996,520.858 939.463,523.602 937.876,526.128 936.158,528.528 934.444,530.768 932.533,532.925 930.313,535.256 928.072,537.384 925.586,539.505 922.992,541.545 920.431,543.342 917.974,544.916 915.552,546.318 913.181,547.638 910.095,549.179 907.058,550.569 904.399,551.604 901.686,552.622 899.203,553.412 896.137,554.445 893.059,555.321 889.901,556.112 887.302,556.638 884.691,557.249 881.603,557.828 878.325,558.344 875.467,558.606 872.802,558.922 869.316,559.203 866.54,559.404 863.808,559.544 860.743,559.6 857.478,559.735 854.761,559.787 851.68,559.904 848.759,559.894 845.661,559.908 842.56,560.0 839.685,559.781 836.982,559.852 833.621,559.804 830.565,559.666 827.745,559.592 824.667,559.505 821.7,559.474 818.535,559.188 815.81,559.134 812.589,559.079 809.882,558.788 806.916,558.652 803.694,558.6 800.605,558.411 797.954,558.164 794.858,558.008 791.714,557.913 788.948,557.771 786.081,557.459 782.986,557.418 780.213,557.402 777.383,557.073 773.884,556.79 771.07,556.795 768.556,556.523 765.01,556.264 762.116,556.204 759.433,555.691 756.652,555.777 756.269,556.035 750.844,555.319 746.763,554.996" fill="none" stroke="white" stroke-width="4"
            stroke-linejoin="round" stroke-linecap="round"/>
</svg>
