<?xml version="1.0" encoding="utf-8"?>
<svg xmlns="http://www.w3.org/2000/svg" width="1000" height="600">
  <polyline points="517.301,292.753 516.263,294.193 515.242,295.618 514.195,297.063 513.126,298.547 512.072,300.011 511.033,301.453 509.991,302.897 508.975,304.306 507.918,305.779 506.873,307.232 505.833,308.693 504.793,310.144 503.746,311.622 502.71,313.069 501.669,314.532 500.619,315.999 499.594,317.438 498.556,318.892 497.489,320.365 496.435,321.834 495.389,323.276 494.35,324.719 493.299,326.155 492.26,327.578 491.2,329.036 490.149,330.477 489.097,331.917 488.046,333.354 486.981,334.816 485.917,336.273 484.866,337.704 483.821,339.152 482.772,340.594 481.71,342.046 480.654,343.503 479.603,344.942 478.556,346.378 477.497,347.832 476.442,349.282 475.384,350.731 474.309,352.208 473.243,353.668 472.219,355.072 471.198,356.468 470.134,357.927 469.062,359.397 468.025,360.812 466.944,362.28 465.896,363.706 464.822,365.175 463.765,366.628 462.725,368.075 461.701,369.54 460.699,371.055 459.756,372.612 458.918,374.187 458.161,375.857 457.51,377.621 456.992,379.452 456.644,381.283 456.473,383.048 456.448,384.652 456.541,386.11 456.74,387.536 457.079,389.076 457.592,390.688 458.278,392.306 459.129,393.879 460.098,395.405 461.132,396.897 462.143,398.345 463.121,399.842 464.0,401.395 464.746,402.953 465.354,404.526 465.831,406.055 466.222,407.603 466.522,409.197 466.711,410.811 466.78,412.465 466.71,414.213 466.504,416.015 466.197,417.823 465.783,419.61 465.262,421.366 464.649,423.049 463.947,424.689 463.156,426.312 462.299,427.904 461.406,429.459 460.46,430.989 459.467,432.506 458.413,434.006 457.32,435.489 456.169,436.949 454.99,438.369 453.803,439.73 452.618,441.064 451.416,442.4 450.24,443.712 449.08,445.017 447.93,446.323 446.767,447.684 445.626,449.043 444.5,450.413 443.374,451.816 442.274,453.223 441.2,454.627 440.134,456.057 439.058,457.524 438.033,458.973 437.047,460.394 436.043,461.881 435.045,463.402 434.071,464.915 433.143,466.396 432.221,467.923 431.346,469.403 430.454,470.948 429.589,472.518 428.737,474.083 427.899,475.664 427.099,477.232 426.308,478.818 425.546,480.404 424.799,482.003 424.075,483.578 423.365,485.185 422.666,486.813 421.952,488.49 421.264,490.145 420.575,491.791 419.893,493.442 419.201,495.105 418.516,496.754 417.82,498.422 417.141,500.05 416.433,501.709 415.722,503.373 415.008,505.035 414.298,506.649 413.549,508.306 412.774,509.986 411.988,511.619 411.201,513.196 410.366,514.787 409.475,516.391 408.541,517.935 407.545,519.422 406.441,520.874 405.225,522.256 403.891,523.553 402.466,524.731 401.052,525.711 399.745,526.468 398.463,527.092 397.085,527.639 395.488,528.119 393.713,528.489 391.89,528.739 390.083,528.937 388.336,529.16 386.676,529.464 385.125,529.889 383.659,530.45 382.283,531.174 381.013,532.087 379.872,533.154 378.854,534.369 378.013,535.709 377.371,537.142 376.913,538.671 376.638,540.332 376.58,542.061 376.707,543.819 376.954,545.602 377.206,547.407 377.368,549.2 377.377,551.005 377.171,552.831 376.685,554.588 375.922,556.148 375.11,557.25 374.396,557.954 373.686,558.504 372.711,559.087 371.187,559.677 369.314,560.0 367.466,559.983 365.68,559.73 363.919,559.327 362.198,558.817 360.531,558.214 358.872,557.477 357.251,556.577 355.721,555.507 354.356,554.303 353.185,553.016 352.213,551.7 351.383,550.301 350.705,548.84 350.189,547.338 349.817,545.823 349.57,544.267 349.443,542.59 349.46,540.831 349.654,539.022 350.022,537.25 350.55,535.519 351.21,533.818 351.993,532.157 352.906,530.545 353.931,529.007 355.056,527.563 356.275,526.197 357.582,524.908 359.002,523.687 360.454,522.59 361.939,521.596 363.505,520.672 365.14,519.824 366.788,519.066 368.468,518.369 370.151,517.707 371.784,517.042 373.404,516.323 375.016,515.541 376.569,514.7 378.117,513.786 379.654,512.785 381.114,511.743 382.533,510.63 383.865,509.489 385.092,508.337 386.219,507.189 387.308,505.99 388.365,504.732 389.388,503.391 390.403,501.936 391.398,500.382 392.327,498.799 393.203,497.162 393.985,495.578 394.71,493.959 395.403,492.281 396.052,490.588 396.662,488.883 397.233,487.22 397.79,485.55 398.349,483.858 398.902,482.137 399.46,480.399 399.979,478.721 400.508,477.029 401.063,475.29 401.585,473.58 402.125,471.875 402.643,470.184 403.187,468.482 403.71,466.777 404.259,465.065 404.803,463.313 405.344,461.636 405.874,459.956 406.426,458.244 406.97,456.532 407.521,454.831 408.04,453.163 408.611,451.433 409.169,449.716 409.689,448.054 410.239,446.333 410.805,444.605 411.347,442.919 411.88,441.257 412.442,439.528 413.014,437.797 413.552,436.129 414.101,434.454 414.654,432.752 415.217,431.042 415.771,429.332 416.328,427.636 416.878,425.946 417.446,424.24 418.011,422.525 418.564,420.865 419.12,419.151 419.683,417.441 420.256,415.739 420.805,414.067 421.369,412.361 421.92,410.688 422.497,408.958 423.076,407.249 423.624,405.582 424.178,403.927 424.743,402.197 425.322,400.474 425.898,398.727 426.457,397.086 427.01,395.414 427.569,393.722 428.145,392.042 428.72,390.293 429.274,388.602 429.854,386.907 430.416,385.251 430.988,383.496 431.567,381.804 432.125,380.103 432.704,378.409 433.284,376.7 433.852,375.001 434.436,373.258 434.988,371.611 435.542,369.976 436.144,368.209 436.7,366.549 437.263,364.863 437.845,363.158 438.413,361.451 439.001,359.733 439.57,358.051 440.143,356.365 440.72,354.634 441.267,353.027 441.842,351.326 442.432,349.586 443.012,347.89 443.604,346.18 444.163,344.518 444.713,342.888 445.285,341.197 445.861,339.546 446.455,337.814 447.041,336.1 447.63,334.375 448.202,332.72 448.766,331.081 449.359,329.356 449.948,327.671 450.542,325.93 451.109,324.299 451.696,322.602 452.288,320.89 452.875,319.226 453.485,317.494 454.059,315.831 454.657,314.088 455.261,312.38 455.822,310.778 456.431,309.047 457.041,307.31 457.64,305.592 458.222,303.939 458.802,302.287 459.411,300.56 460.005,298.873 460.589,297.197 461.151,295.567 461.755,293.876 462.358,292.138 462.951,290.472 463.529,288.819 464.109,287.149 464.723,285.401 465.31,283.743 465.911,282.043 466.506,280.342 467.095,278.654 467.673,276.983 468.274,275.227 468.855,273.487 469.378,271.797 469.858,270.058 470.286,268.284 470.627,266.476 470.861,264.648 470.946,262.807 470.856,261.089 470.616,259.587 470.243,258.183 469.646,256.632 468.797,255.02 467.801,253.565 466.636,252.145 465.471,250.813 464.291,249.407 463.232,247.963 462.38,246.47 461.801,245.004 461.474,243.616 461.364,242.187 461.456,240.769 461.744,239.331 462.266,237.862 463.096,236.326 464.187,234.82 465.403,233.458 466.664,232.255 468.032,231.092 469.405,229.96 470.653,228.896 471.84,227.82 473.059,226.631 474.27,225.36 475.484,224.022 476.602,222.69 477.716,221.295 478.84,219.825 479.871,218.405 480.857,216.954 481.87,215.44 482.827,213.94 483.759,212.423 484.675,210.865 485.517,209.333 486.38,207.762 487.202,206.218 488.026,204.562 488.838,202.898 489.603,201.301 490.316,199.755 491.017,198.172 491.709,196.619 492.395,195.003 493.08,193.348 493.764,191.706 494.417,190.014 495.077,188.345 495.722,186.653 496.346,184.97 496.943,183.341 497.539,181.681 498.109,180.061 498.714,178.369 499.309,176.643 499.884,174.952 500.447,173.301 501.029,171.583 501.627,169.824 502.191,168.116 502.736,166.527 503.297,164.82 503.869,163.127 504.425,161.418 505.011,159.675 505.542,158.07 506.111,156.334 506.68,154.643 507.226,152.917 507.815,151.189 508.365,149.471 508.917,147.804 509.454,146.21 510.012,144.478 510.59,142.696 511.165,140.946 511.706,139.257 512.304,137.473 512.826,135.831 513.336,134.203 513.902,132.523 514.45,130.826 515.009,129.1 515.555,127.353 516.094,125.688 516.651,123.951 517.177,122.285 517.667,120.741 518.243,118.996 518.817,117.218 519.387,115.437 519.936,113.687 520.454,112.086 520.977,110.426 521.524,108.747 522.099,106.968 522.668,105.187 523.233,103.424 523.76,101.779 524.248,100.289 524.8,98.545 525.369,96.777 525.941,95.014 526.493,93.314 527.035,91.664 527.585,89.958 528.105,88.319 528.665,86.592 529.246,84.845 529.827,83.088 530.331,81.569 530.904,79.819 531.484,78.12 532.126,76.291 532.699,74.735 533.318,73.173 534.024,71.512 534.823,69.79 535.683,68.098 536.556,66.531 537.526,64.934 538.538,63.393 539.452,62.093 540.499,60.711 541.67,59.263 542.842,57.925 544.066,56.632 545.163,55.527 546.416,54.37 547.798,53.166 549.183,52.049 550.455,51.076 551.887,50.078 553.434,49.075 554.892,48.199 556.408,47.358 557.954,46.553 559.627,45.802 561.157,45.132 562.735,44.495 564.585,43.871 566.234,43.367 567.918,42.894 569.696,42.451 571.459,42.123 573.258,41.796 575.017,41.532 576.748,41.358 578.498,41.216 580.399,41.108 582.276,41.044 584.003,40.971 585.694,40.926 587.57,40.928 589.401,40.891 590.997,40.876 592.774,40.828 594.659,40.781 596.498,40.727 598.333,40.679 600.094,40.571 601.715,40.516 603.565,40.406 605.475,40.322 607.194,40.245 608.889,40.158 610.853,40.079 612.559,40.029 614.396,40.0 616.16,40.007 618.024,40.067 619.649,40.185 621.61,40.384 623.367,40.625 625.083,40.95 626.841,41.344 628.519,41.788 630.286,42.353 631.891,42.94 633.431,43.587 634.971,44.313 636.39,45.063 637.873,45.938 639.312,46.877 640.689,47.9 642.05,49.041 643.277,50.198 644.431,51.436 645.58,52.832 646.616,54.278 647.531,55.758 648.354,57.312 649.068,58.939 649.667,60.657 650.123,62.427 650.416,64.184 650.557,66.016 650.528,67.867 650.323,69.687 649.924,71.522 649.347,73.281 648.588,74.993 647.716,76.536 646.704,77.991 645.445,79.484 644.149,80.747 642.795,81.848 641.278,82.87 639.745,83.711 638.204,84.377 636.769,84.857 635.319,85.222 633.673,85.518 632.129,85.693 630.435,85.775 628.6,85.735 626.727,85.55 624.996,85.233 623.196,84.757 621.449,84.151 619.757,83.426 618.144,82.603 616.603,81.726 614.992,80.701 613.53,79.66 612.075,78.534 610.667,77.356 609.44,76.257 608.135,75.011 606.78,73.683 605.52,72.458 604.181,71.206 602.919,70.048 601.436,68.791 599.977,67.609 598.663,66.621 597.247,65.597 595.783,64.618 594.163,63.613 592.558,62.713 591.006,61.92 589.359,61.18 587.635,60.509 585.953,59.972 584.119,59.509 582.311,59.185 580.523,59.006 578.725,58.973 576.952,59.09 575.18,59.381 573.454,59.868 571.818,60.557 570.331,61.433 569.003,62.483 567.83,63.715 566.872,65.029 566.106,66.435 565.535,67.905 565.156,69.415 564.959,70.972 564.942,72.652 565.111,74.398 565.47,76.19 565.977,77.945 566.604,79.638 567.341,81.303 568.129,82.859 568.941,84.379 569.766,85.888 570.586,87.433 571.368,88.992 572.137,90.601 572.839,92.187 573.541,93.848 574.174,95.49 574.757,97.128 575.288,98.771 575.768,100.439 576.203,102.137 576.583,103.855 576.903,105.617 577.169,107.378 577.381,109.222 577.523,111.036 577.602,112.821 577.609,114.573 577.587,116.032 577.494,117.68 577.318,119.626 577.08,121.483 576.788,123.23 576.416,125.049 576.022,126.673 575.559,128.346 575.022,130.03 574.412,131.734 573.729,133.469 573.059,134.968 572.299,136.561 571.456,138.187 570.599,139.762 569.758,141.121 568.836,142.587 567.783,144.193 566.878,145.5 565.837,146.888 564.706,148.419 563.58,149.839 562.665,151.012 561.529,152.473 560.369,153.95 559.286,155.358 558.285,156.769 557.289,158.275 556.29,159.912 555.448,161.544 554.751,163.103 554.166,164.667 553.65,166.346 553.255,168.07 552.998,169.745 552.876,171.506 552.897,173.25 553.068,174.905 553.403,176.56 553.897,178.164 554.57,179.775 555.405,181.287 556.354,182.626 557.475,183.894 558.806,185.091 560.103,186.032 561.479,186.822 562.977,187.486 564.533,188.0 566.08,188.361 567.771,188.582 569.503,188.628 571.338,188.5 573.161,188.244 574.98,187.991 576.788,187.837 578.593,187.852 580.407,188.102 582.228,188.7 583.85,189.706 585.002,190.908 585.662,192.027 586.056,193.172 586.255,194.67 586.138,196.452 585.705,198.116 584.991,199.796 584.061,201.485 583.114,202.976 582.081,204.468 581.033,205.897 579.92,207.363 578.903,208.705 577.847,210.118 576.694,211.606 575.563,213.089 574.498,214.528 573.461,215.917 572.417,217.357 571.35,218.825 570.315,220.209 569.369,221.533 568.315,223.029 567.203,224.516 566.199,225.907 565.125,227.407 564.034,228.82 562.86,230.279 561.845,231.572 560.685,232.902 559.499,234.276 558.491,235.645 557.208,237.21 555.959,238.804 555.126,239.902 554.059,241.312 552.983,242.787 551.836,244.364 550.77,245.837 549.81,247.173 548.786,248.595 547.775,249.993 546.598,251.627 545.45,253.226 544.725,254.242 543.72,255.663 542.362,257.591 541.325,259.069 540.699,259.951 539.479,261.687 538.361,263.266 537.274,264.8 536.373,266.085 535.338,267.52 534.467,268.777 533.136,270.645 532.253,271.886 531.283,273.267 530.195,274.763 529.245,276.151 528.249,277.495 526.99,279.29 526.305,280.222 524.827,282.275 524.236,283.091 522.939,284.905 522.341,285.718 521.036,287.575 519.455,289.77 518.886,290.558 517.301,292.753" fill="none" stroke="white" stroke-width="4"
            stroke-linejoin="round" stroke-linecap="round"/>
  <line x1="501.077" y1="281.058" x2="533.525" y2="304.448" stroke="red" stroke-width="3" stroke-linecap="round"/>
</svg>
