<?xml version="1.0" encoding="utf-8"?>
<svg xmlns="http://www.w3.org/2000/svg" width="1000" height="600">
  <polyline points="627.813,425.632 623.633,426.816 619.195,428.101 614.726,429.323 610.456,430.535 606.278,431.746 601.946,432.95 597.536,434.216 593.196,435.469 588.978,436.687 584.596,437.876 580.237,439.19 575.941,440.373 571.721,441.573 567.483,442.802 563.218,444.022 558.807,445.268 554.382,446.55 550.119,447.762 545.826,448.995 541.465,450.235 537.174,451.462 532.912,452.681 528.64,453.934 524.291,455.183 519.973,456.426 515.698,457.622 511.366,458.865 507.085,460.138 502.782,461.355 498.362,462.595 494.047,463.86 489.7,465.108 485.341,466.352 481.03,467.598 476.814,468.777 472.476,470.023 468.144,471.274 463.796,472.522 459.528,473.76 455.286,474.985 451.005,476.206 446.732,477.427 442.415,478.679 438.092,479.948 433.693,481.164 429.327,482.452 425.011,483.673 420.763,484.95 416.414,486.151 412.158,487.423 407.839,488.648 403.581,489.887 399.24,491.099 394.953,492.397 390.615,493.604 386.29,494.899 381.95,496.147 377.656,497.437 373.327,498.66 369.021,499.955 364.713,501.2 360.485,502.437 356.072,503.743 351.715,505.04 347.442,506.298 343.139,507.548 338.929,508.836 334.682,510.104 330.41,511.406 326.068,512.688 321.727,514.035 317.359,515.333 313.102,516.634 308.746,517.982 304.606,519.248 300.336,520.532 295.982,521.917 291.664,523.228 287.399,524.555 283.121,525.879 278.89,527.172 274.567,528.508 270.35,529.821 266.05,531.136 261.667,532.509 257.363,533.834 253.103,535.171 248.834,536.487 244.473,537.835 240.104,539.201 235.838,540.512 231.597,541.836 227.234,543.177 222.982,544.465 218.819,545.735 214.598,547.027 210.324,548.299 205.96,549.603 201.572,550.895 197.295,552.136 192.954,553.381 188.616,554.604 184.314,555.781 179.933,556.896 175.518,557.898 171.059,558.75 166.577,559.399 162.05,559.821 157.365,560.0 152.629,559.907 147.878,559.528 143.161,558.86 138.913,558.008 135.366,557.088 132.121,556.075 129.053,554.988 125.741,553.69 122.153,552.109 118.236,550.14 114.274,547.835 110.372,545.218 106.628,542.361 103.145,539.367 99.827,536.158 96.775,532.914 93.964,529.545 91.133,525.958 88.388,522.277 85.77,518.675 83.158,514.946 80.584,511.181 78.138,507.461 75.779,503.615 73.517,499.678 71.432,495.719 69.432,491.579 67.567,487.35 65.853,483.128 64.274,478.675 62.878,474.149 61.725,469.853 60.774,465.738 60.005,461.813 59.372,457.979 58.857,454.095 58.44,449.907 58.153,445.516 58.009,440.863 58.016,436.241 58.179,431.763 58.483,427.239 58.92,422.674 59.496,418.177 60.202,413.786 61.013,409.321 61.905,404.881 62.853,400.478 63.853,396.034 64.875,391.636 65.939,387.23 67.033,382.9 68.221,378.516 69.533,374.175 71.024,369.911 72.778,365.671 74.896,361.552 77.556,357.625 80.693,354.277 83.993,351.815 87.166,350.222 90.227,349.289 93.24,348.842 96.4,348.83 99.892,349.337 103.807,350.581 107.891,352.702 111.676,355.58 114.934,358.977 117.604,362.592 119.927,366.405 122.012,370.4 123.862,374.458 125.594,378.616 127.346,382.758 129.214,386.819 131.282,390.79 133.599,394.645 136.16,398.332 138.937,401.816 141.923,405.102 144.988,408.069 148.147,410.792 151.409,413.29 154.73,415.55 158.14,417.613 161.656,419.486 165.35,421.194 169.103,422.685 173.019,423.976 177.112,425.074 181.363,425.939 185.842,426.602 190.501,427.013 195.171,427.17 199.776,427.096 204.371,426.772 208.967,426.245 213.451,425.519 217.865,424.626 222.143,423.617 226.386,422.504 230.707,421.264 235.092,419.982 239.358,418.714 243.672,417.406 247.963,416.069 252.211,414.717 256.543,413.361 260.785,411.977 264.979,410.628 269.31,409.22 273.548,407.84 277.752,406.435 282.069,405.038 286.364,403.62 290.663,402.227 294.968,400.831 299.296,399.44 303.571,398.067 307.797,396.724 312.02,395.376 316.227,394.079 320.426,392.77 324.761,391.431 329.155,390.094 333.511,388.754 337.79,387.485 341.981,386.252 346.285,384.955 350.639,383.652 354.993,382.378 359.22,381.115 363.495,379.863 367.922,378.604 372.123,377.331 376.429,376.103 380.792,374.866 385.014,373.571 389.43,372.38 393.69,371.096 398.017,369.861 402.345,368.648 406.586,367.406 410.94,366.193 415.197,364.946 419.55,363.757 423.927,362.498 428.197,361.344 432.538,360.142 436.875,358.925 441.224,357.783 445.522,356.598 449.908,355.402 454.177,354.28 458.556,353.091 462.817,351.963 467.168,350.808 471.522,349.678 475.771,348.522 480.231,347.351 484.561,346.228 488.873,345.047 493.228,343.9 497.639,342.745 501.955,341.572 506.239,340.45 510.652,339.257 515.019,338.074 519.362,336.907 523.681,335.731 527.983,334.528 532.333,333.313 536.586,332.114 540.979,330.857 545.332,329.59 549.609,328.31 553.974,326.944 558.229,325.497 562.492,323.845 566.659,321.96 570.751,319.677 574.466,316.882 577.505,313.539 579.492,310.149 580.569,306.973 580.985,303.909 580.867,301.013 580.22,298.174 578.862,295.165 576.584,291.985 573.216,288.879 569.073,286.301 564.777,284.431 560.4,283.019 556.077,281.94 551.616,281.063 547.162,280.36 542.741,279.79 538.237,279.294 533.801,278.844 529.446,278.437 524.97,278.039 520.483,277.647 516.033,277.259 511.534,276.897 507.206,276.53 502.801,276.187 498.375,275.83 493.927,275.48 489.25,275.108 484.839,274.817 480.48,274.506 475.986,274.245 471.424,274.061 466.98,273.925 462.468,273.862 457.962,273.875 453.581,273.961 449.132,274.126 444.463,274.388 439.84,274.746 435.483,275.17 431.006,275.701 426.559,276.318 422.287,276.996 417.89,277.79 413.706,278.637 409.62,279.546 405.437,280.563 401.169,281.682 397.122,282.842 393.049,284.104 388.87,285.497 384.71,286.956 380.737,288.411 376.72,290.052 372.393,291.891 368.301,293.709 364.187,295.626 360.24,297.505 356.249,299.51 352.298,301.57 348.439,303.699 344.444,305.918 340.569,308.12 336.713,310.381 332.83,312.714 328.991,315.003 325.009,317.333 321.237,319.57 317.248,321.858 313.291,324.07 309.278,326.221 305.397,328.248 301.417,330.186 297.272,332.066 293.022,333.822 288.878,335.37 284.733,336.719 280.283,337.973 275.625,339.027 270.991,339.846 266.592,340.388 262.334,340.698 258.203,340.799 254.158,340.708 250.353,340.452 246.268,339.997 242.254,339.383 238.254,338.548 234.018,337.454 230.055,336.233 225.75,334.651 221.59,332.903 217.547,330.971 213.372,328.73 209.465,326.364 205.664,323.88 202.021,321.302 198.365,318.516 194.883,315.673 191.446,312.739 188.081,309.716 184.842,306.583 181.712,303.246 178.784,299.683 176.044,295.716 173.768,291.526 172.097,287.138 171.2,282.931 170.917,279.02 171.149,275.228 171.789,271.823 172.797,268.592 174.251,265.317 176.131,262.186 178.527,259.14 181.378,256.29 184.804,253.603 188.59,251.218 192.674,249.074 196.918,247.233 201.185,245.689 205.397,244.402 209.648,243.302 214.19,242.304 218.57,241.484 222.931,240.789 227.384,240.156 231.847,239.573 236.128,239.085 240.539,238.625 245.174,238.206 249.69,237.912 254.142,237.582 258.606,237.356 263.1,237.056 267.606,236.839 272.21,236.632 276.669,236.427 281.18,236.236 285.817,236.032 290.185,235.853 294.421,235.679 299.038,235.494 303.583,235.317 308.114,235.111 312.698,234.908 317.18,234.705 321.532,234.482 325.851,234.237 330.33,233.965 334.775,233.679 339.206,233.366 343.766,232.979 348.133,232.56 352.695,232.111 357.169,231.59 361.572,231.046 365.93,230.453 370.387,229.792 374.857,229.083 379.381,228.274 383.55,227.433 387.783,226.466 392.161,225.332 396.676,224.018 401.089,222.586 405.353,221.014 409.574,219.304 413.657,217.484 417.808,215.454 421.628,213.419 425.392,211.25 429.078,208.957 432.378,206.738 435.873,204.217 439.344,201.539 442.666,198.821 445.69,196.133 448.698,193.322 451.804,190.172 454.688,187.09 457.388,184.011 460.226,180.49 463.192,176.617 465.832,172.816 468.209,169.219 470.426,165.547 472.512,161.964 474.743,157.92 476.77,153.899 478.606,150.027 480.517,145.795 482.368,141.627 484.09,137.549 485.755,133.486 487.465,129.442 489.371,125.078 491.157,120.966 492.91,117.046 494.69,113.083 496.725,108.881 498.777,104.642 500.618,100.931 502.651,96.846 504.861,92.691 506.824,88.998 508.941,85.248 511.196,81.286 513.801,77.048 516.44,73.013 519.066,69.306 521.851,65.72 524.72,62.368 527.933,58.985 531.36,55.784 535.011,52.784 538.808,50.069 542.815,47.602 546.996,45.434 551.339,43.581 555.46,42.197 559.938,41.057 564.539,40.303 569.141,40.0 573.866,40.18 578.109,40.744 582.014,41.637 585.492,42.757 588.8,44.142 592.005,45.807 595.113,47.765 598.121,50.022 601.232,52.803 604.484,56.274 607.394,59.998 609.907,63.827 612.119,67.864 613.951,71.93 615.609,76.111 617.145,80.391 618.533,84.507 619.838,88.672 621.081,93.017 622.199,97.301 623.185,101.516 624.208,106.014 625.127,110.476 625.998,114.845 626.837,119.203 627.726,123.603 628.627,127.971 629.671,132.406 630.777,136.722 632.032,141.121 633.422,145.485 634.878,149.587 636.487,153.702 638.116,157.464 639.874,161.236 641.771,164.901 644.008,168.813 646.338,172.517 648.82,176.139 651.3,179.435 653.919,182.63 656.745,185.828 659.612,188.809 662.716,191.757 666.04,194.671 669.419,197.37 672.907,199.919 676.327,202.304 680.026,204.561 683.797,206.654 687.927,208.847 691.912,210.717 696.336,212.507 700.694,214.149 704.637,215.508 709.061,216.791 713.534,217.942 717.974,218.976 722.196,219.813 726.748,220.593 731.251,221.353 735.605,222.04 739.996,222.625 744.745,223.288 749.201,223.977 753.542,224.576 757.996,225.184 762.513,225.763 766.995,226.256 771.478,226.69 775.988,226.971 780.624,227.04 785.303,226.814 789.919,226.18 794.428,225.004 798.577,223.251 802.077,221.108 805.065,218.611 807.607,215.755 809.642,212.673 811.184,209.381 812.199,206.093 812.808,202.377 812.908,198.684 812.499,195.071 811.486,191.063 809.882,186.938 807.888,182.975 805.551,179.148 802.85,175.418 799.917,171.913 796.713,168.562 793.272,165.35 790.065,162.675 786.594,160.01 782.864,157.403 779.188,155.064 775.253,152.745 771.044,150.451 766.991,148.33 762.839,146.178 758.9,144.09 754.904,141.852 751.38,139.748 747.691,137.383 743.788,134.612 740.091,131.707 736.718,128.775 733.535,125.632 730.324,121.997 727.695,118.471 725.03,114.126 723.127,110.038 721.851,106.308 720.903,102.11 720.394,98.181 720.273,94.561 720.494,90.726 721.082,86.975 722.035,83.185 723.406,79.403 725.14,75.792 727.317,72.235 729.946,68.778 732.942,65.529 736.023,62.731 739.295,60.239 742.897,57.971 746.852,55.928 751.211,54.183 755.601,52.856 759.775,51.955 764.239,51.276 768.399,50.938 773.06,50.853 777.173,51.031 781.781,51.534 785.547,52.149 790.067,53.194 794.502,54.473 799.037,56.078 802.455,57.478 806.988,59.539 811.328,61.802 815.283,64.028 819.343,66.566 823.085,69.041 826.675,71.596 830.249,74.335 833.781,77.041 837.263,80.053 840.992,82.997 844.047,85.782 847.343,88.518 850.858,91.581 854.14,94.443 857.658,97.363 861.409,100.671 864.099,103.204 867.932,106.311 871.254,109.289 874.317,111.937 878.261,115.274 881.193,117.99 884.573,120.75 888.041,123.958 891.569,127.284 894.392,129.881 897.715,133.071 901.004,136.57 904.19,139.821 906.998,143.245 910.176,146.907 912.932,150.398 915.457,153.997 917.946,157.441 920.612,161.494 922.23,164.455 925.01,169.085 926.937,172.907 928.577,176.369 930.521,180.538 932.288,184.836 933.631,188.665 935.351,193.341 936.498,197.378 937.633,201.355 938.741,205.821 939.548,209.784 940.305,214.039 940.901,217.913 941.451,222.616 941.714,226.48 941.969,231.065 941.991,235.034 941.934,239.163 941.722,243.139 941.398,247.903 940.737,252.902 940.179,256.72 939.391,260.839 938.599,264.379 937.368,269.129 936.127,273.468 934.984,276.811 933.361,281.344 931.723,285.407 929.966,289.434 928.244,292.705 926.395,296.639 923.906,300.932 921.533,304.954 919.367,308.302 916.695,312.145 913.971,315.777 911.227,319.297 908.188,322.944 905.578,325.65 902.702,328.909 899.161,332.218 896.501,334.92 892.388,338.229 889.574,340.773 885.466,343.435 881.657,346.587 878.151,348.673 874.505,351.177 870.343,353.413 866.153,355.818 861.913,357.784 857.476,359.84 853.168,361.611 849.272,363.264 845.2,364.408 840.574,366.487 836.253,367.188 832.19,369.211 827.914,370.075 823.187,371.666 819.919,372.727 815.104,373.966 811.03,375.282 807.394,376.285 801.917,377.897 797.792,378.803 793.419,380.331 788.573,381.412 784.614,382.32 781.116,383.665 776.597,384.538 772.151,386.337 769.33,386.936 763.146,388.836 760.304,389.617 754.378,391.199 752.168,391.819 745.714,393.558 742.255,394.505 738.052,395.602 733.077,397.079 728.417,398.177 727.791,398.639 719.738,400.573 716.374,400.989 711.645,402.91 707.473,403.511 702.207,405.442 698.344,405.898 693.28,407.822 690.527,408.418 684.636,410.088 681.635,411.203 677.078,412.401 672.969,413.647 667.657,415.278 664.089,415.897 660.032,417.399 654.998,418.426 656.804,418.36 647.446,420.533 645.085,421.192 637.794,423.233 635.97,423.745 627.813,425.632" fill="none" stroke="white" stroke-width="4"
            stroke-linejoin="round" stroke-linecap="round"/>
  <line x1="622.362" y1="406.389" x2="633.264" y2="444.875" stroke="red" stroke-width="3" stroke-linecap="round"/>
</svg>
