<?xml version="1.0" encoding="utf-8"?>
<svg xmlns="http://www.w3.org/2000/svg" width="1000" height="600">
  <polyline points="588.918,548.739 584.649,548.518 580.284,548.321 575.913,548.105 571.506,547.889 567.241,547.694 562.987,547.498 558.663,547.293 554.336,547.09 549.969,546.88 545.591,546.685 541.224,546.464 536.91,546.296 532.734,546.07 528.407,545.893 523.981,545.691 519.555,545.492 515.275,545.303 511.031,545.108 506.701,544.882 502.271,544.709 497.909,544.516 493.683,544.309 489.39,544.116 485.002,543.919 480.718,543.722 476.326,543.544 471.937,543.326 467.628,543.173 463.301,542.948 458.931,542.77 454.642,542.578 450.383,542.402 446.002,542.197 441.598,542.029 437.349,541.86 432.97,541.644 428.582,541.478 424.353,541.282 419.966,541.138 415.61,540.939 411.257,540.758 406.991,540.587 402.673,540.399 398.308,540.244 393.967,540.057 389.565,539.896 385.259,539.706 381.001,539.57 376.651,539.383 372.248,539.243 367.906,539.056 363.659,538.901 359.309,538.748 354.967,538.583 350.678,538.423 346.306,538.262 341.921,538.137 337.601,537.948 333.292,537.842 328.991,537.675 324.689,537.516 320.237,537.372 315.893,537.212 311.595,537.038 307.308,536.866 302.89,536.718 298.597,536.519 294.32,536.384 289.915,536.192 285.555,536.024 281.272,535.877 276.95,535.693 272.597,535.55 268.274,535.334 263.881,535.215 259.555,534.99 255.261,534.859 250.9,534.712 246.644,534.478 242.267,534.353 237.907,534.137 233.595,534.078 229.271,533.903 224.929,533.666 220.599,533.599 216.275,533.388 211.878,533.308 207.58,533.09 203.245,532.962 198.844,532.775 194.406,532.667 190.059,532.534 185.806,532.344 181.456,532.314 176.999,532.043 172.659,531.911 168.302,531.753 163.972,531.597 159.579,531.425 155.24,531.313 150.86,531.094 146.495,530.887 142.155,530.527 137.863,529.966 133.531,529.075 129.212,527.598 125.159,525.206 122.249,522.218 120.815,519.875 120.127,518.211 119.668,516.179 119.588,513.033 120.487,508.98 122.39,504.891 124.89,501.311 127.784,498.082 130.891,495.044 133.983,492.035 136.956,488.911 139.748,485.579 142.305,482.037 144.606,478.288 146.39,474.822 147.643,471.781 148.675,468.835 149.539,465.532 150.282,461.517 150.75,456.967 150.806,452.406 150.561,447.973 150.03,443.58 149.261,439.224 148.314,435.051 147.162,430.849 145.888,426.708 144.593,422.607 143.354,418.55 142.223,414.525 141.2,410.487 140.337,406.509 139.601,402.531 138.972,398.492 138.456,394.407 138.073,390.24 137.787,385.962 137.663,381.564 137.635,377.134 137.734,372.784 137.952,368.388 138.249,364.013 138.683,359.692 139.171,355.399 139.763,351.152 140.437,346.867 141.143,342.566 141.918,338.299 142.696,334.022 143.52,329.745 144.32,325.55 145.182,321.287 146.026,317.065 146.895,312.762 147.768,308.455 148.642,304.22 149.493,299.999 150.356,295.729 151.187,291.549 152.026,287.299 152.917,283.007 153.714,278.74 154.554,274.51 155.379,270.259 156.213,265.969 156.997,261.743 157.844,257.447 158.649,253.198 159.446,248.992 160.245,244.691 161.066,240.375 161.862,236.228 162.681,231.966 163.479,227.67 164.281,223.372 165.101,219.082 165.907,214.786 166.697,210.516 167.5,206.228 168.287,201.999 169.061,197.833 169.85,193.549 170.65,189.275 171.436,185.032 172.209,180.767 173.006,176.574 173.751,172.355 174.549,168.056 175.35,163.748 176.127,159.471 176.879,155.27 177.68,150.982 178.452,146.641 179.24,142.343 179.988,138.087 180.768,133.886 181.534,129.556 182.282,125.283 183.06,121.015 183.815,116.74 184.578,112.47 185.333,108.209 186.1,103.921 186.887,99.547 187.639,95.223 188.396,90.908 189.167,86.625 189.931,82.425 190.744,78.146 191.634,73.89 192.663,69.623 193.91,65.386 195.425,61.227 197.254,57.177 199.597,53.211 202.448,49.614 205.236,46.913 207.534,45.115 209.665,43.719 211.821,42.577 214.138,41.634 216.934,40.794 220.407,40.187 224.411,40.0 228.556,40.31 232.62,41.147 236.799,42.436 240.975,44.25 244.979,46.584 248.646,49.249 251.932,52.136 254.938,55.203 257.736,58.44 260.385,61.836 263.016,65.354 265.529,68.854 268.007,72.403 270.453,75.933 272.945,79.48 275.398,83.003 277.897,86.581 280.335,90.053 282.839,93.562 285.346,97.018 287.918,100.456 290.533,103.813 293.351,107.301 296.138,110.594 298.966,113.798 301.942,117.007 304.918,120.043 308.084,123.064 311.35,126.036 314.599,128.833 317.972,131.569 321.371,134.139 324.83,136.675 328.359,139.081 331.73,141.282 335.266,143.493 338.786,145.63 342.413,147.722 346.057,149.752 349.709,151.785 353.499,153.908 357.203,156.142 360.921,158.513 364.589,161.176 368.039,164.061 371.146,167.028 373.926,170.158 376.415,173.394 378.596,176.676 380.517,180.009 382.245,183.527 383.699,187.145 384.921,190.771 385.87,194.677 386.583,198.727 387.06,202.934 387.228,207.26 387.16,211.524 386.941,215.817 386.634,220.188 386.384,224.564 386.211,228.837 386.188,233.099 386.364,237.307 386.693,241.409 387.223,245.366 387.975,249.25 388.951,253.265 390.113,257.094 391.567,261.015 393.287,264.846 395.2,268.588 397.458,272.389 399.951,276.048 402.691,279.674 405.564,282.996 408.544,286.162 411.697,289.257 414.873,292.024 418.271,294.808 421.692,297.449 425.205,299.951 428.903,302.356 432.542,304.685 436.179,306.826 440.076,308.976 444.023,311.254 447.811,313.3 451.614,315.384 455.495,317.493 459.332,319.728 463.077,321.964 466.884,324.314 470.619,326.678 474.365,329.15 477.936,331.575 481.468,334.074 484.926,336.744 488.186,339.655 491.222,342.9 493.896,346.622 495.91,350.969 496.825,355.209 496.809,358.749 496.203,361.628 495.17,364.154 493.43,367.017 490.772,369.949 487.327,372.469 483.261,374.378 478.919,375.61 474.502,376.292 469.908,376.434 465.425,376.212 461.166,375.727 456.856,375.113 452.46,374.426 448.325,373.683 444.055,372.858 439.841,372.003 435.607,371.161 431.344,370.209 427.048,369.267 422.86,368.275 418.809,367.367 414.566,366.294 410.176,365.344 406.052,364.319 401.899,363.299 397.745,362.339 393.317,361.187 389.03,360.176 384.888,359.133 380.728,358.145 376.557,357.102 372.169,356.053 368.048,355.048 363.833,354.094 359.627,353.124 355.507,352.193 351.146,351.263 347.0,350.414 342.736,349.589 338.503,348.819 334.131,348.069 329.835,347.378 325.595,346.761 321.307,346.245 317.037,345.809 312.847,345.474 308.22,345.224 303.771,345.128 299.555,345.148 295.27,345.314 290.849,345.628 286.625,346.047 282.536,346.614 278.456,347.318 274.224,348.195 270.058,349.247 266.003,350.446 261.824,351.925 257.77,353.616 253.849,355.505 249.842,357.758 246.063,360.279 242.55,363.097 239.318,366.232 236.468,369.57 233.929,373.18 231.852,377.117 230.532,381.583 230.34,385.946 230.907,388.962 231.532,390.553 232.593,392.394 234.939,395.211 238.695,398.067 242.779,400.008 246.849,401.287 250.948,402.217 255.261,402.981 259.561,403.623 263.773,404.185 268.158,404.713 272.482,405.195 276.682,405.679 281.148,406.099 285.392,406.542 289.662,406.952 294.0,407.335 298.299,407.75 302.673,408.172 307.091,408.523 311.275,408.839 315.502,409.221 319.902,409.534 324.386,409.872 328.715,410.12 332.842,410.382 337.22,410.676 341.585,410.927 345.949,411.154 350.243,411.35 354.675,411.57 358.945,411.84 363.146,412.063 367.486,412.257 371.715,412.479 376.132,412.697 380.497,412.891 384.9,413.135 389.346,413.335 393.563,413.507 397.88,413.719 402.294,413.949 406.522,414.165 410.674,414.326 414.949,414.546 419.354,414.731 423.839,414.962 427.987,415.208 432.457,415.407 436.712,415.569 441.096,415.806 445.477,415.992 450.045,416.224 454.283,416.42 458.417,416.623 462.568,416.812 467.193,417.044 471.437,417.243 475.799,417.429 480.125,417.63 484.438,417.834 488.772,418.067 493.023,418.314 497.358,418.481 501.603,418.713 505.98,418.906 510.298,419.154 514.58,419.413 518.929,419.616 523.21,419.801 527.767,420.006 532.128,420.364 536.085,420.545 540.467,420.734 545.09,420.987 549.419,421.201 553.76,421.481 558.012,421.712 562.321,421.941 566.587,422.173 571.089,422.411 575.621,422.706 579.75,422.929 583.784,423.131 587.979,423.35 592.561,423.623 597.193,423.892 601.19,424.099 605.366,424.313 609.815,424.543 614.45,424.826 618.544,425.027 622.988,425.244 627.488,425.492 631.866,425.716 636.348,425.925 640.842,426.102 645.164,426.203 649.391,426.19 653.659,425.987 658.082,425.51 662.436,424.717 666.877,423.504 670.975,421.941 674.655,420.086 677.831,418.1 680.662,415.959 683.385,413.555 685.946,410.873 688.409,407.752 690.607,404.366 692.663,400.476 694.351,396.421 695.678,392.216 696.661,387.805 697.253,383.384 697.45,378.862 697.256,374.428 696.714,369.916 695.885,365.595 694.686,361.069 693.148,356.647 691.412,352.642 689.393,348.76 687.16,345.087 684.553,341.353 681.599,337.659 678.648,334.422 675.419,331.256 672.173,328.408 668.824,325.771 665.406,323.345 661.691,320.917 657.907,318.638 654.091,316.519 650.213,314.5 646.366,312.615 642.599,310.894 638.971,309.243 635.184,307.622 631.24,305.971 627.388,304.389 623.394,302.759 619.198,301.015 615.155,299.319 611.372,297.652 607.639,295.927 603.633,293.937 599.53,291.687 595.675,289.357 592.021,286.927 588.815,284.553 585.444,281.86 582.108,278.918 578.849,275.733 576.005,272.68 573.42,269.632 570.844,266.354 568.379,262.849 565.997,259.144 563.985,255.64 562.149,252.123 560.372,248.3 558.699,244.346 557.241,240.256 556.048,236.315 555.038,232.654 554.124,228.455 553.335,223.896 552.885,219.992 552.537,216.022 552.357,211.687 552.322,207.32 552.557,203.259 552.918,199.013 553.487,194.372 554.262,190.169 555.196,185.695 556.28,181.503 557.637,177.316 559.155,173.098 560.643,169.069 562.408,165.136 564.182,161.403 566.128,157.445 567.961,153.593 570.101,149.361 572.091,145.501 573.909,141.826 575.805,138.122 577.874,134.115 580.174,129.836 582.239,126.085 584.492,122.329 586.87,118.648 589.457,115.082 592.399,111.471 595.41,108.232 598.868,105.063 602.347,102.397 606.112,100.056 610.103,98.128 614.258,96.655 618.358,95.697 622.437,95.176 626.27,95.059 630.004,95.292 633.558,95.845 636.977,96.709 640.95,98.132 644.995,100.012 648.669,102.159 652.254,104.699 655.669,107.6 658.982,111.0 661.796,114.409 664.391,118.039 666.705,121.631 668.999,125.471 671.197,129.307 673.359,133.202 675.341,136.829 677.364,140.531 679.437,144.357 681.556,148.304 683.596,152.072 685.55,155.867 687.678,159.77 689.62,163.396 691.639,167.286 693.595,170.968 695.614,174.786 697.756,178.784 699.75,182.561 701.844,186.525 703.895,190.342 705.897,194.174 707.972,198.053 709.936,201.766 711.802,205.223 713.955,209.293 716.071,213.243 718.149,217.113 720.249,220.877 722.091,224.552 724.154,228.112 726.209,232.131 728.4,235.996 730.651,240.035 732.504,243.638 734.552,247.342 736.588,251.099 738.871,255.11 740.95,259.012 742.841,262.443 745.023,266.218 747.272,270.398 749.163,273.868 751.315,277.643 753.532,281.682 755.453,285.281 757.517,288.895 759.889,293.064 761.799,296.691 763.817,300.327 766.132,304.339 768.252,308.307 770.063,311.565 772.315,315.494 774.604,319.769 776.492,323.218 778.719,326.887 780.692,330.785 782.888,334.536 784.98,338.188 787.108,342.262 789.065,345.873 791.307,349.695 793.548,353.766 795.327,357.138 797.796,361.268 799.901,365.113 801.586,368.376 803.996,372.535 806.107,376.347 808.161,380.03 810.383,383.845 812.322,387.629 814.615,391.353 816.75,395.213 818.822,399.076 820.958,402.738 823.208,406.588 825.161,410.223 827.371,413.951 829.409,417.765 831.566,421.409 833.884,425.359 835.774,428.946 837.991,432.558 840.555,436.858 842.242,439.992 844.629,443.965 846.918,447.987 848.876,451.408 851.298,455.456 853.428,459.333 855.458,462.704 857.702,466.617 860.127,470.862 862.051,474.213 864.261,478.042 866.61,482.178 868.687,485.825 870.88,489.746 872.974,493.625 874.843,497.243 876.662,501.189 878.282,505.434 879.531,509.868 880.264,514.227 880.412,519.207 879.981,523.414 879.287,526.597 878.379,529.416 877.114,532.29 875.3,535.479 872.579,539.267 869.49,542.716 866.278,545.601 862.621,548.284 858.747,550.631 854.903,552.567 850.681,554.332 846.446,555.803 841.887,557.088 837.64,558.036 833.467,558.783 828.801,559.356 823.811,559.765 819.403,559.932 814.986,560.0 810.616,559.912 806.155,559.741 802.448,559.654 797.973,559.453 793.525,559.158 789.109,558.926 784.559,558.777 780.867,558.599 776.654,558.342 772.122,558.054 768.275,557.83 763.135,557.531 759.178,557.342 754.996,557.071 750.346,556.771 745.764,556.402 741.836,556.121 737.992,556.284 733.039,555.73 728.808,555.29 724.336,555.454 720.467,555.136 715.818,554.708 711.961,554.526 707.298,554.555 702.62,554.066 698.187,553.887 695.031,554.102 689.798,553.74 684.682,553.474 681.22,553.273 677.259,553.24 672.412,552.788 668.95,552.85 663.912,552.462 658.817,552.203 655.532,551.871 650.58,551.796 646.77,551.368 642.669,551.501 638.481,550.943 633.491,550.629 629.975,550.549 625.043,550.181 620.143,549.974 615.37,549.816 612.699,549.514 608.2,549.353 604.295,549.115 599.004,548.864 597.001,548.769 588.918,548.739" fill="none" stroke="white" stroke-width="4"
            stroke-linejoin="round" stroke-linecap="round"/>
</svg>
