<?xml version="1.0" encoding="utf-8"?>
<svg xmlns="http://www.w3.org/2000/svg" width="1000" height="600">
  <polyline points="639.63,257.128 640.35,259.914 641.072,262.707 641.792,265.499 642.492,268.255 643.214,271.07 643.933,273.887 644.63,276.662 645.339,279.486 646.04,282.297 646.745,285.059 647.435,287.873 648.164,290.743 648.853,293.488 649.572,296.325 650.292,299.117 650.998,301.925 651.705,304.706 652.424,307.501 653.143,310.36 653.825,313.121 654.544,315.9 655.239,318.732 655.96,321.517 656.654,324.348 657.37,327.19 658.06,329.948 658.76,332.732 659.441,335.548 660.138,338.35 660.835,341.176 661.512,343.92 662.219,346.74 662.901,349.527 663.615,352.373 664.319,355.176 665.033,358.007 665.74,360.813 666.433,363.557 667.141,366.352 667.858,369.192 668.574,372.019 669.266,374.797 669.967,377.608 670.664,380.403 671.348,383.199 672.042,386.031 672.711,388.796 673.378,391.562 674.047,394.358 674.722,397.172 675.412,400.035 676.093,402.844 676.776,405.655 677.471,408.492 678.167,411.324 678.854,414.128 679.539,416.934 680.231,419.765 680.92,422.588 681.612,425.435 682.295,428.256 682.969,431.06 683.631,433.835 684.299,436.666 684.952,439.483 685.573,442.242 686.18,445.068 686.751,447.904 687.266,450.777 687.698,453.682 688.019,456.569 688.223,459.476 688.297,462.516 688.231,465.45 688.031,468.311 687.695,471.151 687.224,473.968 686.623,476.725 685.906,479.39 685.045,482.06 684.06,484.646 682.976,487.098 681.759,489.524 680.388,491.897 678.898,494.178 677.239,496.417 675.454,498.537 673.524,500.537 671.457,502.422 669.304,504.125 667.017,505.674 664.583,507.069 662.008,508.283 659.384,509.282 656.71,510.049 653.939,510.604 651.045,510.929 648.165,511.009 645.328,510.839 642.492,510.408 639.686,509.697 636.966,508.715 634.404,507.528 631.998,506.11 629.713,504.386 627.624,502.377 625.846,500.206 624.325,497.814 623.107,495.169 622.277,492.425 621.823,489.614 621.768,486.757 622.155,483.964 622.973,481.347 624.19,478.98 625.77,476.906 627.575,475.229 629.56,473.908 631.675,472.948 633.919,472.313 636.367,471.99 638.985,472.069 641.723,472.453 644.548,472.975 647.458,473.388 650.358,473.529 653.009,473.355 655.386,472.846 657.574,471.986 659.578,470.762 661.37,469.171 662.814,467.311 663.875,465.168 664.489,462.846 664.63,460.45 664.32,457.943 663.536,455.444 662.246,452.995 660.504,450.74 658.44,448.747 656.053,447.028 653.466,445.639 650.773,444.573 647.944,443.752 645.077,443.202 642.216,442.911 639.374,442.834 636.563,442.964 633.799,443.286 631.102,443.765 628.47,444.384 625.88,445.138 623.275,446.028 620.616,447.09 617.989,448.273 615.358,449.603 612.789,451.042 610.281,452.57 607.819,454.202 605.456,455.883 603.182,457.615 600.945,459.447 598.732,461.36 596.579,463.27 594.459,465.19 592.336,467.135 590.203,469.099 588.125,471.072 586.027,473.026 583.926,474.995 581.807,476.985 579.71,478.942 577.595,480.931 575.491,482.886 573.385,484.871 571.261,486.864 569.078,488.887 567.019,490.814 564.903,492.761 562.723,494.781 560.644,496.694 558.478,498.648 556.31,500.598 554.187,502.518 552.057,504.39 549.861,506.323 547.669,508.204 545.458,510.09 543.197,511.956 540.956,513.775 538.717,515.519 536.36,517.329 534.114,518.997 531.819,520.63 529.498,522.237 527.161,523.826 524.831,525.319 522.505,526.755 520.09,528.194 517.658,529.588 515.125,530.987 512.558,532.346 509.981,533.665 507.283,534.985 504.668,536.243 502.054,537.426 499.438,538.601 496.791,539.732 494.135,540.829 491.399,541.93 488.701,542.984 485.977,544.033 483.285,545.054 480.574,546.06 477.802,547.093 475.07,548.087 472.363,549.074 469.654,550.042 466.939,551.01 464.173,551.993 461.469,552.955 458.688,553.937 455.941,554.909 453.204,555.871 450.458,556.83 447.724,557.763 444.967,558.646 442.128,559.393 439.197,559.894 436.181,560.0 433.173,559.493 430.689,558.413 428.859,556.993 427.552,555.43 426.528,553.554 425.903,551.325 425.738,548.694 426.058,545.845 426.844,542.917 427.991,540.173 429.414,537.582 431.037,535.124 432.788,532.794 434.687,530.503 436.617,528.342 438.679,526.215 440.82,524.162 442.971,522.246 445.226,520.353 447.566,518.529 449.867,516.817 452.223,515.176 454.726,513.538 457.254,511.969 459.696,510.512 462.258,509.072 464.807,507.712 467.39,506.365 469.937,505.075 472.583,503.752 475.192,502.485 477.775,501.272 480.384,500.022 483.056,498.743 485.628,497.518 488.165,496.312 490.776,495.071 493.426,493.77 496.059,492.502 498.715,491.181 501.154,489.951 503.715,488.642 506.375,487.26 508.91,485.906 511.475,484.521 513.922,483.173 516.441,481.772 518.982,480.321 521.528,478.799 523.987,477.255 526.48,475.58 528.889,473.83 531.065,472.093 533.284,470.115 535.444,467.975 537.454,465.759 539.269,463.513 541.017,461.11 542.542,458.744 543.983,456.225 545.246,453.729 546.394,451.126 547.467,448.358 548.382,445.539 549.126,442.796 549.705,440.115 550.15,437.436 550.49,434.678 550.675,431.909 550.721,429.002 550.637,426.207 550.425,423.542 550.09,420.774 549.608,418.05 549.006,415.295 548.273,412.65 547.46,410.16 546.477,407.579 545.286,404.855 544.005,402.302 542.703,399.986 541.277,397.691 539.72,395.428 538.024,393.192 536.182,391.04 534.248,388.915 532.266,386.96 530.155,385.076 528.058,383.39 525.793,381.71 523.337,380.06 520.877,378.605 518.302,377.211 515.64,375.917 513.014,374.757 510.41,373.675 507.687,372.548 505.006,371.39 502.432,370.224 499.837,368.944 497.371,367.603 494.844,366.086 492.402,364.463 490.072,362.723 487.869,360.875 485.745,358.855 483.836,356.776 482.163,354.676 480.613,352.444 479.234,350.126 478.021,347.712 476.943,345.104 476.115,342.623 475.441,340.006 474.97,337.374 474.709,334.813 474.642,332.055 474.765,329.422 475.107,326.678 475.618,324.127 476.368,321.501 477.328,318.93 478.467,316.517 479.834,314.095 481.314,311.87 482.986,309.757 484.876,307.729 486.846,305.916 488.998,304.233 491.417,302.633 493.91,301.266 496.506,300.081 499.134,299.058 501.831,298.058 504.628,297.004 507.36,295.91 510.016,294.729 512.628,293.397 515.094,291.863 517.452,289.982 519.505,287.752 521.118,285.313 522.224,282.864 522.907,280.529 523.259,278.258 523.33,275.853 523.117,273.464 522.554,270.906 521.591,268.203 520.263,265.58 518.619,263.077 516.753,260.799 514.722,258.777 512.407,256.886 510.011,255.263 507.538,253.859 504.819,252.602 502.011,251.59 499.103,250.801 496.455,250.299 493.938,250.004 491.474,249.865 489.0,249.868 486.478,250.039 483.633,250.416 480.588,251.042 477.726,251.837 474.993,252.794 472.25,253.96 469.625,255.255 467.156,256.644 464.699,258.119 462.289,259.635 459.894,261.171 457.514,262.708 455.112,264.277 452.651,265.9 450.165,267.545 447.779,269.116 445.426,270.663 443.012,272.25 440.598,273.829 438.134,275.403 435.733,276.961 433.264,278.507 430.825,280.03 428.3,281.618 425.844,283.175 423.472,284.622 421.063,286.122 418.566,287.657 416.149,289.114 413.548,290.701 411.025,292.221 408.63,293.719 406.163,295.209 403.595,296.73 401.252,298.173 398.834,299.631 396.28,301.141 393.824,302.64 391.246,304.155 388.669,305.702 386.176,307.213 383.746,308.639 381.312,310.064 378.916,311.493 376.456,312.951 374.005,314.402 371.479,315.881 368.942,317.39 366.489,318.807 363.946,320.283 361.348,321.827 358.838,323.293 356.403,324.735 353.804,326.237 351.382,327.667 348.832,329.16 346.427,330.58 343.974,332.016 341.369,333.537 338.868,335.017 336.405,336.478 333.851,338.016 331.365,339.609 328.995,341.376 326.785,343.462 324.937,345.894 323.598,348.667 323.001,350.978 322.827,352.77 322.894,354.744 323.381,357.078 324.501,359.727 326.185,362.217 328.155,364.37 330.184,366.39 332.075,368.462 333.666,370.594 334.907,372.81 335.822,375.094 336.379,377.43 336.605,379.817 336.495,382.223 335.989,384.868 335.051,387.594 333.707,390.203 331.998,392.64 329.942,394.91 327.663,396.894 325.191,398.573 322.527,399.944 319.682,401.021 316.706,401.795 313.772,402.253 310.719,402.432 307.643,402.32 304.676,401.928 301.754,401.276 298.895,400.384 296.19,399.284 293.628,397.99 291.236,396.553 288.983,394.955 286.841,393.208 284.799,391.295 282.907,389.255 281.23,387.193 279.704,385.069 278.217,382.677 276.948,380.326 275.798,377.854 274.804,375.272 273.957,372.61 273.263,369.87 272.74,367.037 272.418,364.404 272.233,361.577 272.212,358.691 272.351,355.979 272.614,353.313 273.1,350.438 273.763,347.447 274.536,344.67 275.461,342.026 276.638,339.176 277.923,336.544 279.257,334.096 280.764,331.65 282.555,329.068 284.444,326.637 286.37,324.43 288.291,322.367 290.439,320.301 292.545,318.504 294.76,316.687 297.161,314.902 299.644,313.152 302.092,311.499 304.704,309.74 307.057,308.165 309.188,306.707 311.676,305.185 314.057,303.606 316.48,302.006 319.108,300.352 321.475,298.823 323.766,297.421 326.323,295.737 328.681,294.163 331.106,292.734 333.869,290.953 336.008,289.567 338.239,288.123 340.909,286.47 343.484,284.807 345.786,283.301 348.157,281.838 350.668,280.219 353.123,278.673 355.553,277.081 357.862,275.63 360.34,274.065 362.892,272.416 365.262,270.902 367.624,269.37 370.144,267.755 372.466,266.253 374.947,264.732 377.371,263.076 379.671,261.68 382.329,260.011 384.863,258.274 387.038,256.902 389.535,255.359 392.038,253.662 394.37,252.188 396.881,250.591 399.285,248.993 401.765,247.442 404.146,245.802 406.482,244.36 408.862,242.856 411.198,241.139 413.962,239.556 416.172,238.073 418.571,236.396 420.967,234.973 423.499,233.258 425.957,231.606 428.199,230.219 430.705,228.543 433.261,226.874 435.498,225.41 438.061,223.658 440.425,222.246 442.828,220.647 445.341,218.843 447.69,217.473 450.067,215.837 452.537,214.213 454.89,212.706 457.269,211.075 459.771,209.49 462.08,208.053 464.486,206.281 467.071,204.763 469.394,203.163 471.876,201.441 474.249,200.099 476.531,198.414 479.193,196.673 481.357,195.374 483.902,193.536 486.233,192.161 488.619,190.478 491.269,188.685 493.484,187.379 495.957,185.593 498.416,184.047 500.765,182.566 503.297,180.741 505.581,179.43 507.869,177.789 510.442,176.089 512.804,174.593 515.283,172.873 517.553,171.428 520.141,169.742 522.465,168.145 524.915,166.605 527.325,164.947 529.847,163.33 532.087,161.811 534.507,160.247 537.022,158.647 539.213,157.006 541.918,155.41 544.184,153.808 546.643,152.241 548.904,150.73 551.438,149.022 554.025,147.393 556.084,145.974 558.608,144.288 561.217,142.598 563.472,141.167 566.006,139.384 568.342,137.89 570.769,136.267 573.153,134.653 575.457,133.21 577.973,131.438 580.347,129.895 582.752,128.31 585.265,126.648 587.584,125.094 589.937,123.585 592.461,121.801 594.778,120.378 597.203,118.692 599.808,116.966 601.969,115.584 604.531,113.775 606.766,112.428 609.272,110.619 611.769,109.008 614.014,107.492 616.322,105.95 618.998,104.154 621.044,102.846 623.703,101.006 626.01,99.553 628.502,97.864 630.875,96.239 633.263,94.669 635.552,93.157 638.148,91.419 640.465,89.892 642.963,88.218 645.184,86.726 647.519,85.212 650.232,83.348 652.567,81.825 654.937,80.227 657.372,78.604 659.865,76.986 662.137,75.423 664.516,73.854 666.816,72.327 669.357,70.616 671.754,69.001 674.264,67.375 676.623,65.719 679.008,64.219 681.444,62.54 683.905,60.902 686.4,59.245 688.988,57.535 691.383,55.923 693.691,54.397 696.101,52.798 698.485,51.22 701.031,49.524 703.557,47.859 705.972,46.284 708.395,44.707 710.898,43.123 713.521,41.635 716.223,40.513 719.347,40.0 722.158,40.425 723.883,41.234 724.82,41.922 725.899,43.032 727.173,45.305 727.788,48.463 727.474,51.537 726.589,54.406 725.326,57.174 723.827,59.783 722.165,62.249 720.392,64.59 718.42,66.918 716.478,69.039 714.387,71.109 712.226,73.082 710.063,74.914 707.696,76.774 705.289,78.521 702.889,80.189 700.403,81.854 698.033,83.351 695.491,84.974 693.235,86.378 690.714,87.916 688.093,89.505 685.612,91.01 683.06,92.587 680.545,94.139 678.516,95.353 676.047,96.832 673.481,98.484 670.83,100.087 668.186,101.717 666.053,103.055 663.689,104.482 661.335,106.006 658.696,107.679 656.042,109.388 653.858,110.834 651.496,112.417 649.065,114.038 646.544,115.759 644.312,117.279 641.958,118.907 639.592,120.541 636.966,122.366 634.614,124.013 632.46,125.569 630.19,127.222 627.711,129.149 625.361,131.169 623.404,133.06 621.309,135.397 619.563,137.767 618.081,140.19 616.921,142.553 616.111,144.619 615.423,146.852 614.763,149.762 614.395,152.551 614.208,155.672 614.233,158.262 614.463,161.192 614.889,164.212 615.419,166.985 616.097,169.767 616.873,172.904 617.623,175.742 618.28,178.216 618.89,180.599 619.693,183.483 620.546,186.585 621.385,189.731 622.081,192.291 622.829,194.907 623.403,197.452 624.201,200.307 625.054,203.598 625.735,205.824 626.37,208.94 627.182,212.076 627.868,214.582 628.689,217.613 629.253,220.024 630.266,222.133 631.068,225.406 631.816,228.349 632.646,230.908 633.524,233.995 634.299,236.927 634.955,239.315 635.801,242.549 636.112,243.754 637.164,247.765 637.92,250.712 638.587,253.251 639.63,257.128" fill="none" stroke="white" stroke-width="4"
            stroke-linejoin="round" stroke-linecap="round"/>
  <line x1="620.266" y1="262.132" x2="658.994" y2="252.124" stroke="red" stroke-width="3" stroke-linecap="round"/>
</svg>
