<?xml version="1.0" encoding="utf-8"?>
<svg xmlns="http://www.w3.org/2000/svg" width="1000" height="600">
  <polyline points="678.94,536.442 675.929,534.191 672.893,531.903 669.844,529.597 666.845,527.335 663.829,525.069 660.775,522.781 657.732,520.486 654.695,518.224 651.649,515.942 648.575,513.665 645.503,511.37 642.499,509.136 639.437,506.899 636.375,504.644 633.286,502.373 630.221,500.126 627.17,497.896 624.101,495.656 621.02,493.417 617.966,491.235 614.865,488.974 611.747,486.784 608.699,484.556 605.578,482.367 602.52,480.179 599.41,477.97 596.278,475.752 593.178,473.553 590.067,471.372 587.012,469.199 583.848,467.009 580.703,464.821 577.613,462.67 574.502,460.532 571.403,458.366 568.248,456.199 565.115,454.039 562.002,451.888 558.873,449.72 555.728,447.544 552.678,445.426 549.552,443.244 546.397,441.019 543.311,438.835 540.225,436.61 537.161,434.382 534.097,432.085 531.086,429.717 528.148,427.253 525.378,424.737 522.623,422.036 519.95,419.197 517.428,416.239 514.972,413.129 512.731,409.961 510.799,407.033 509.088,404.141 507.507,401.229 505.989,398.227 504.577,395.06 503.24,391.614 502.058,388.087 501.033,384.44 500.174,380.768 499.47,376.983 498.915,373.136 498.537,369.33 498.329,365.48 498.285,361.584 498.405,357.782 498.677,353.993 499.07,350.245 499.573,346.472 500.106,342.672 500.696,338.916 501.238,335.132 501.744,331.373 502.177,327.63 502.496,323.875 502.717,320.126 502.771,316.547 502.703,312.858 502.474,309.11 502.16,305.614 501.655,301.987 501.005,298.428 500.202,294.799 499.258,291.295 498.183,287.846 496.944,284.396 495.564,280.986 494.042,277.648 492.414,274.402 490.588,271.096 488.634,267.887 486.554,264.742 484.372,261.68 482.057,258.692 479.647,255.756 477.131,252.898 474.574,250.139 471.912,247.373 469.217,244.631 466.515,241.917 463.81,239.196 461.137,236.487 458.515,233.821 455.85,231.067 453.242,228.319 450.607,225.473 448.055,222.633 445.581,219.798 443.106,216.9 440.666,213.959 438.293,210.978 435.973,207.852 433.846,204.656 431.885,201.234 430.246,197.606 429.113,193.814 428.583,189.92 428.609,186.414 429.007,183.539 429.647,181.063 430.555,178.729 431.994,176.147 434.173,173.344 436.99,170.694 440.168,168.459 443.562,166.702 447.163,165.398 450.868,164.521 454.695,163.95 458.549,163.532 462.459,163.091 466.338,162.502 470.075,161.647 473.681,160.393 477.12,158.61 480.264,156.168 482.759,153.185 484.352,150.145 485.24,147.247 485.576,144.499 485.455,141.818 484.853,138.937 483.601,135.782 481.53,132.52 478.754,129.504 475.611,126.993 472.3,124.995 468.813,123.335 465.18,121.91 461.49,120.671 457.783,119.583 454.04,118.62 450.239,117.756 446.454,116.968 442.645,116.263 438.834,115.676 434.981,115.238 431.135,114.976 427.279,114.89 423.376,114.983 419.506,115.263 415.708,115.731 411.896,116.4 408.095,117.274 404.402,118.315 401.068,119.425 398.049,120.577 395.092,121.84 392.203,123.221 389.086,124.873 385.746,126.822 382.485,128.92 379.252,131.182 376.152,133.543 373.213,135.987 370.345,138.532 367.589,141.17 364.932,143.896 362.318,146.722 359.772,149.579 357.331,152.408 354.906,155.265 352.434,158.187 349.983,161.134 347.552,164.108 345.131,167.068 342.729,170.014 340.37,172.936 337.996,175.849 335.593,178.802 333.183,181.765 330.771,184.723 328.354,187.679 325.944,190.605 323.521,193.506 321.091,196.434 318.661,199.32 316.185,202.22 313.716,205.144 311.239,208.037 308.762,210.908 306.33,213.794 303.851,216.679 301.387,219.569 298.913,222.464 296.449,225.376 293.965,228.262 291.515,231.156 289.07,234.014 286.63,236.86 284.139,239.754 281.665,242.657 279.206,245.557 276.71,248.455 274.25,251.313 271.772,254.187 269.284,257.09 266.841,259.948 264.314,262.862 261.81,265.794 259.422,268.576 256.886,271.488 254.36,274.455 251.915,277.264 249.475,280.048 246.966,282.928 244.441,285.79 241.894,288.705 239.387,291.562 236.861,294.42 234.409,297.219 231.887,300.103 229.343,302.964 226.855,305.804 224.317,308.672 221.834,311.501 219.317,314.343 216.778,317.219 214.226,320.101 211.74,322.943 209.242,325.752 206.781,328.63 204.267,331.483 201.792,334.372 199.263,337.321 196.77,340.179 194.278,343.066 191.844,345.87 189.424,348.745 186.967,351.643 184.512,354.685 182.13,357.64 179.754,360.694 177.539,363.822 175.496,366.976 173.453,370.379 171.696,373.898 170.145,377.474 168.885,381.127 167.902,384.814 167.261,388.524 166.913,392.241 166.92,395.888 167.313,399.564 168.094,403.174 169.195,406.555 170.639,409.821 172.402,412.927 174.317,415.686 176.33,418.101 178.559,420.323 181.081,422.413 183.963,424.376 187.402,426.236 191.007,427.729 194.681,428.856 198.425,429.657 202.155,430.179 205.959,430.537 209.726,430.836 213.599,431.177 217.313,431.66 220.82,432.329 224.136,433.224 227.341,434.386 230.36,435.79 233.286,437.56 235.947,439.67 238.321,442.131 240.358,444.953 241.999,448.11 243.131,451.45 243.746,454.965 243.792,458.573 243.26,462.071 242.236,465.326 240.681,468.553 238.708,471.464 236.467,473.962 233.876,476.222 231.046,478.181 228.071,479.745 224.894,480.98 221.533,481.867 218.025,482.429 214.468,482.678 210.666,482.633 206.823,482.293 203.019,481.698 199.189,480.851 195.431,479.825 191.862,478.672 188.24,477.336 184.741,475.915 181.252,474.367 177.799,472.778 174.453,471.149 171.067,469.413 167.759,467.677 164.374,465.82 160.993,463.959 157.691,462.058 154.403,460.132 151.091,458.122 147.795,456.069 144.67,454.04 141.475,451.865 138.368,449.674 135.334,447.439 132.41,445.185 129.497,442.818 126.577,440.332 123.75,437.835 120.966,435.236 118.348,432.674 115.679,429.922 113.152,427.186 110.753,424.465 108.266,421.509 105.995,418.665 103.743,415.683 101.574,412.672 99.476,409.597 97.477,406.501 95.548,403.365 93.706,400.15 92.011,397.031 90.381,393.909 88.805,390.648 87.247,387.286 85.838,384.008 84.456,380.608 83.171,377.121 81.878,373.566 80.685,369.917 79.517,366.186 78.491,362.43 77.585,358.811 76.659,354.994 75.832,351.257 75.073,347.536 74.407,343.905 73.747,340.059 73.17,336.267 72.591,332.529 72.052,328.706 71.547,324.953 71.07,321.125 70.608,317.299 70.145,313.508 69.718,309.914 69.266,306.178 68.842,302.434 68.378,298.588 67.92,294.85 67.528,291.137 67.018,287.449 66.612,283.509 66.189,279.785 65.767,276.111 65.289,272.145 64.831,268.297 64.417,264.61 63.956,260.885 63.542,257.13 63.054,253.299 62.604,249.585 62.161,245.868 61.664,242.066 61.192,238.174 60.743,234.495 60.257,230.731 59.758,226.861 59.293,223.162 58.818,219.413 58.325,215.456 57.849,211.737 57.385,208.03 56.89,204.155 56.45,200.513 56.011,196.832 55.593,192.888 55.248,189.122 54.996,185.325 54.862,181.405 54.887,177.478 55.08,173.599 55.412,169.841 55.94,165.921 56.63,162.023 57.427,158.471 58.363,155.008 59.431,151.558 60.675,148.138 62.02,144.88 63.548,141.658 65.218,138.48 67.006,135.458 68.975,132.44 71.034,129.579 73.228,126.818 75.627,124.062 78.223,121.339 80.953,118.743 83.718,116.32 86.698,113.96 89.906,111.661 93.328,109.453 96.675,107.508 100.003,105.766 103.574,104.12 107.154,102.617 110.812,101.287 114.385,100.07 118.131,98.857 121.701,97.771 125.424,96.729 129.189,95.697 132.95,94.761 136.731,93.856 140.373,93.017 144.08,92.278 147.686,91.56 151.624,90.834 155.303,90.182 158.972,89.584 162.836,89.012 166.845,88.466 170.592,87.984 174.072,87.565 177.897,87.118 181.734,86.723 185.309,86.416 189.178,86.113 193.252,85.782 197.082,85.504 200.875,85.263 204.681,84.974 208.321,84.777 212.001,84.569 215.753,84.325 219.644,84.096 223.47,83.86 227.413,83.64 231.109,83.398 234.979,83.19 238.712,82.946 242.331,82.702 246.122,82.495 249.905,82.261 253.634,82.024 257.357,81.771 261.334,81.48 265.191,81.186 268.939,80.863 272.766,80.498 276.64,80.088 280.173,79.647 283.883,79.123 287.898,78.482 291.75,77.786 295.566,77.001 299.22,76.192 302.765,75.306 306.436,74.29 310.186,73.182 313.667,72.059 317.145,70.869 320.683,69.573 323.927,68.309 327.196,66.976 330.616,65.533 333.987,64.077 337.41,62.609 340.875,61.151 344.423,59.698 348.097,58.316 351.891,57.055 355.517,56.028 359.052,55.174 362.609,54.492 366.208,53.962 369.512,53.601 372.833,53.362 376.162,53.249 379.721,53.287 383.361,53.498 387.171,53.899 391.046,54.493 394.769,55.231 398.551,56.12 402.115,57.123 405.621,58.169 409.284,59.254 412.855,60.324 416.646,61.385 420.47,62.34 424.133,63.119 427.705,63.698 431.49,64.11 434.991,64.309 438.84,64.313 442.618,64.101 446.206,63.693 449.498,63.135 452.922,62.379 456.35,61.429 459.653,60.326 462.97,59.032 466.2,57.553 469.413,55.864 472.604,53.994 475.897,51.992 479.174,50.0 482.484,48.058 485.913,46.212 489.219,44.623 492.725,43.177 496.184,42.019 499.61,41.136 503.091,40.507 506.433,40.137 509.953,40.0 513.316,40.095 516.871,40.429 520.329,40.992 523.59,41.761 527.105,42.866 530.352,44.149 533.567,45.699 536.917,47.637 540.15,49.834 543.317,52.341 546.235,54.996 548.963,57.778 551.606,60.794 553.884,63.676 556.026,66.662 558.136,69.864 560.104,73.047 562.066,76.191 564.036,79.287 566.177,82.425 568.311,85.395 570.432,88.176 572.722,90.98 575.056,93.661 577.495,96.311 580.229,99.08 582.86,101.621 585.7,104.125 588.649,106.623 591.583,108.967 594.719,111.289 597.838,113.518 601.059,115.659 604.343,117.734 607.544,119.72 610.609,121.419 613.921,123.267 617.435,125.17 620.948,126.993 624.228,128.637 627.594,130.362 631.155,132.094 634.53,133.7 637.769,135.272 641.238,136.96 644.65,138.571 648.351,140.305 651.985,142.0 655.218,143.567 658.603,145.162 662.004,146.772 665.261,148.326 668.766,149.963 672.222,151.612 675.775,153.332 678.911,154.821 682.366,156.404 686.08,158.155 689.79,159.874 692.883,161.465 696.196,162.968 699.723,164.681 703.115,166.209 706.539,167.854 710.086,169.51 713.654,171.278 716.788,172.796 720.181,174.226 723.766,176.029 727.509,177.864 730.481,179.309 733.931,180.804 737.316,182.461 740.966,184.145 744.4,185.853 747.877,187.469 751.274,189.094 754.731,190.633 758.041,192.237 761.634,193.914 764.931,195.52 768.462,197.186 772.07,198.918 775.237,200.321 778.538,201.947 782.321,203.725 785.636,205.314 789.016,206.862 792.478,208.459 795.703,210.112 799.006,211.636 802.814,213.382 806.434,215.16 809.412,216.717 812.755,218.119 816.626,220.048 820.015,221.714 822.967,223.105 826.791,224.975 830.359,226.698 833.405,228.174 836.849,229.891 840.348,231.613 843.801,233.38 847.246,235.131 850.787,236.959 853.87,238.479 857.437,240.358 860.775,242.078 863.9,243.853 867.636,245.752 870.789,247.525 873.993,249.368 877.499,251.247 880.812,253.169 884.095,255.086 887.352,256.875 890.629,258.858 893.932,260.825 897.354,262.761 900.3,264.647 903.813,266.752 907.249,268.854 910.171,270.664 913.518,272.835 916.869,275.097 919.892,277.241 922.682,279.37 925.606,281.835 928.626,284.731 931.606,287.951 934.189,291.203 936.293,294.253 938.09,297.276 939.644,300.245 941.117,303.555 942.337,306.799 943.415,310.423 944.222,314.015 944.781,317.777 945.094,321.53 945.138,325.121 944.962,328.474 944.531,331.787 943.984,335.209 943.098,338.462 942.047,341.832 940.655,345.409 939.128,348.647 937.396,351.73 935.358,354.915 933.136,357.933 930.713,360.786 927.997,363.617 925.321,366.113 922.254,368.656 919.014,371.038 915.934,373.07 912.574,375.089 909.099,376.978 905.938,378.697 902.766,380.303 899.313,382.137 895.877,383.948 892.893,385.652 889.841,387.474 886.405,389.479 883.229,391.432 879.766,393.676 876.704,395.657 873.856,397.63 870.617,399.782 867.533,401.852 864.35,404.02 861.213,406.301 858.315,408.415 855.119,410.78 852.268,412.85 849.229,415.176 846.049,417.723 842.994,420.132 840.175,422.352 837.394,424.72 834.472,427.11 831.304,429.818 828.534,432.205 825.799,434.537 822.988,437.096 819.92,439.719 816.883,442.424 813.998,444.955 811.416,447.169 808.62,449.695 805.53,452.396 802.683,454.832 800.001,457.266 797.132,459.788 794.12,462.503 791.343,465.09 788.718,467.903 786.241,470.997 784.211,474.487 782.719,478.275 782.066,481.687 781.961,484.223 782.224,486.825 782.959,489.807 784.296,493.061 786.209,496.349 788.402,499.642 790.377,502.788 792.033,505.929 793.22,509.099 794.102,512.193 794.47,515.127 794.668,518.134 794.359,521.4 793.524,524.976 792.113,528.856 790.337,532.449 788.28,535.584 785.748,538.806 783.051,541.622 780.267,544.13 777.206,546.553 774.039,548.808 770.78,550.844 767.42,552.701 763.732,554.436 759.756,555.977 755.676,557.305 751.912,558.281 748.517,558.976 744.923,559.496 741.345,559.851 737.607,560.0 733.908,559.994 730.102,559.755 726.235,559.311 722.803,558.775 719.643,558.11 716.634,557.339 713.17,556.286 709.221,554.884 705.031,553.167 701.289,551.406 697.889,549.639 695.442,548.209 692.411,546.396 689.098,544.223 686.097,542.085 684.744,541.108 678.94,536.442" fill="none" stroke="white" stroke-width="4"
            stroke-linejoin="round" stroke-linecap="round"/>
</svg>
