<?xml version="1.0" encoding="utf-8"?>
<svg xmlns="http://www.w3.org/2000/svg" width="1000" height="600">
  <polyline points="512.056,43.165 509.897,43.511 507.714,43.863 505.539,44.226 503.359,44.586 501.187,44.95 499.014,45.303 496.807,45.657 494.598,46.006 492.393,46.35 490.205,46.685 488.005,47.021 485.817,47.35 483.658,47.673 481.481,47.993 479.261,48.311 477.035,48.638 474.858,48.952 472.685,49.261 470.473,49.579 468.258,49.889 466.082,50.194 463.897,50.498 461.683,50.807 459.475,51.108 457.268,51.402 455.063,51.72 452.872,52.002 450.683,52.289 448.522,52.596 446.303,52.877 444.078,53.162 441.903,53.462 439.675,53.735 437.488,54.03 435.293,54.307 433.1,54.587 430.905,54.875 428.685,55.15 426.493,55.435 424.283,55.709 422.075,55.989 419.893,56.264 417.688,56.54 415.491,56.812 413.294,57.092 411.061,57.364 408.873,57.646 406.671,57.913 404.477,58.193 402.259,58.461 400.071,58.74 397.872,59.006 395.671,59.284 393.463,59.549 391.255,59.828 389.034,60.098 386.797,60.376 384.599,60.653 382.405,60.939 380.159,61.238 377.906,61.559 375.641,61.916 373.38,62.339 371.169,62.852 368.989,63.495 366.867,64.279 364.837,65.22 362.899,66.35 361.133,67.64 359.674,68.939 358.559,70.118 357.57,71.342 356.562,72.815 355.562,74.585 354.643,76.586 353.869,78.703 353.238,80.863 352.719,82.905 352.235,84.836 351.683,86.734 351.034,88.575 350.284,90.361 349.388,92.146 348.37,93.874 347.249,95.53 346.014,97.182 344.703,98.82 343.313,100.511 341.89,102.299 340.548,104.139 339.437,105.965 338.608,107.78 338.075,109.599 337.859,111.274 337.92,112.857 338.242,114.424 338.854,116.006 339.834,117.642 341.13,119.154 342.715,120.474 344.627,121.617 346.749,122.535 348.91,123.222 351.085,123.74 353.273,124.133 355.482,124.424 357.723,124.625 359.965,124.734 362.207,124.756 364.483,124.694 366.789,124.554 369.053,124.331 371.262,124.039 373.492,123.673 375.712,123.236 377.871,122.751 380.027,122.198 382.148,121.593 384.235,120.943 386.327,120.253 388.405,119.507 390.503,118.734 392.569,117.932 394.638,117.124 396.717,116.283 398.774,115.44 400.802,114.601 402.829,113.758 404.873,112.905 406.907,112.051 408.972,111.196 411.027,110.34 413.063,109.494 415.111,108.659 417.165,107.84 419.236,107.027 421.324,106.249 423.439,105.479 425.559,104.753 427.672,104.059 429.803,103.395 431.951,102.772 434.154,102.167 436.332,101.611 438.491,101.104 440.726,100.623 442.969,100.189 445.197,99.814 447.431,99.495 449.696,99.239 451.941,99.06 454.161,98.968 456.436,98.987 458.709,99.15 460.972,99.496 463.22,100.068 465.386,100.853 467.264,101.729 468.798,102.602 470.314,103.633 471.927,104.943 473.458,106.44 474.847,108.076 476.124,109.885 477.256,111.805 478.215,113.849 478.964,115.996 479.518,118.195 479.933,120.454 480.204,122.738 480.336,125.018 480.359,127.254 480.304,129.461 480.19,131.685 480.049,133.904 479.892,136.097 479.721,138.301 479.55,140.524 479.368,142.734 479.186,144.938 479.001,147.159 478.82,149.376 478.64,151.575 478.466,153.779 478.293,156.001 478.128,158.224 477.97,160.424 477.813,162.616 477.664,164.838 477.512,167.062 477.369,169.251 477.226,171.466 477.083,173.679 476.944,175.901 476.812,178.12 476.67,180.34 476.544,182.556 476.414,184.765 476.283,186.975 476.167,189.16 476.042,191.386 475.914,193.633 475.802,195.865 475.677,198.079 475.556,200.277 475.439,202.451 475.321,204.649 475.204,206.853 475.083,209.068 474.968,211.286 474.839,213.504 474.719,215.707 474.592,217.916 474.458,220.154 474.323,222.378 474.176,224.647 474.019,226.88 473.875,229.056 473.684,231.251 473.482,233.437 473.264,235.669 473.018,237.915 472.77,240.124 472.49,242.298 472.174,244.464 471.835,246.697 471.451,248.922 471.076,251.09 470.634,253.306 470.173,255.444 469.701,257.581 469.189,259.729 468.671,261.851 468.13,263.985 467.562,266.116 466.977,268.187 466.351,270.305 465.687,272.377 465.01,274.416 464.287,276.441 463.533,278.509 462.745,280.553 461.95,282.544 461.098,284.59 460.236,286.583 459.341,288.611 458.422,290.638 457.475,292.613 456.473,294.644 455.454,296.661 454.424,298.643 453.359,300.586 452.313,302.479 451.226,304.386 450.099,306.319 448.978,308.21 447.797,310.168 446.626,312.049 445.445,313.95 444.277,315.813 443.092,317.642 441.88,319.53 440.668,321.376 439.432,323.245 438.204,325.104 436.983,326.955 435.726,328.803 434.519,330.645 433.284,332.491 432.068,334.336 430.852,336.171 429.618,338.044 428.412,339.857 427.202,341.739 425.952,343.651 424.791,345.494 423.596,347.369 422.447,349.211 421.233,351.149 420.052,353.061 418.906,354.925 417.747,356.828 416.579,358.755 415.432,360.672 414.277,362.606 413.147,364.53 412.023,366.502 410.949,368.478 409.969,370.482 409.133,372.51 408.431,374.698 407.93,376.92 407.671,379.088 407.662,381.091 407.849,382.874 408.225,384.649 408.862,386.56 409.804,388.549 411.02,390.491 412.413,392.279 413.927,393.908 415.512,395.395 417.246,396.832 419.024,398.167 420.85,399.445 422.72,400.653 424.629,401.79 426.622,402.881 428.645,403.925 430.719,404.913 432.75,405.859 434.809,406.782 436.929,407.744 438.947,408.65 440.957,409.569 442.984,410.498 445.044,411.459 447.066,412.415 449.06,413.38 451.04,414.349 453.01,415.325 454.975,416.32 456.955,417.351 458.903,418.428 460.793,419.64 462.592,421.086 464.138,422.805 465.183,424.579 465.741,426.266 465.967,427.842 465.931,429.556 465.495,431.517 464.591,433.561 463.299,435.517 461.826,437.304 460.319,438.881 458.714,440.383 457.033,441.808 455.292,443.144 453.484,444.395 451.585,445.597 449.642,446.755 447.622,447.94 445.665,449.123 443.744,450.351 441.839,451.678 440.077,453.023 438.384,454.44 436.675,456.002 435.015,457.649 433.509,459.274 432.113,460.923 430.687,462.788 429.418,464.653 428.29,466.564 427.261,468.646 426.44,470.767 425.856,472.916 425.52,475.056 425.413,477.021 425.502,478.907 425.788,480.777 426.292,482.717 427.064,484.779 428.057,486.766 429.27,488.694 430.621,490.476 432.094,492.132 433.721,493.726 435.388,495.163 437.187,496.537 439.13,497.856 440.993,499.0 442.893,500.095 444.915,501.202 446.851,502.245 448.823,503.276 450.713,504.273 452.754,505.349 454.773,506.386 456.706,507.401 458.557,508.36 460.554,509.408 462.472,510.413 464.448,511.447 466.428,512.505 468.404,513.532 470.411,514.6 472.394,515.648 474.349,516.677 476.286,517.693 478.231,518.726 480.217,519.78 482.103,520.816 483.979,521.804 485.95,522.827 487.962,523.953 489.933,524.982 491.884,526.035 493.842,527.103 495.941,528.222 497.806,529.223 499.702,530.276 501.618,531.309 503.498,532.329 505.492,533.458 507.469,534.56 509.4,535.6 511.34,536.707 513.293,537.801 515.251,538.919 517.152,540.029 519.085,541.126 520.936,542.235 522.89,543.408 524.752,544.534 526.567,545.657 528.495,546.841 530.327,547.987 532.205,549.175 534.096,550.357 536.023,551.586 537.878,552.752 539.773,553.936 541.706,555.11 543.715,556.255 545.705,557.271 547.798,558.183 549.983,558.951 552.036,559.488 553.941,559.823 555.979,560.0 558.136,559.973 560.363,559.707 562.559,559.187 564.774,558.378 566.798,557.373 568.651,556.2 570.395,554.835 572.047,553.26 573.494,551.606 574.769,549.864 575.942,547.955 576.945,545.988 577.803,543.992 578.547,541.98 579.244,539.916 579.907,537.907 580.59,535.885 581.376,533.841 582.406,531.745 583.724,529.772 585.048,528.275 586.117,527.318 587.384,526.381 589.176,525.38 591.281,524.563 593.421,524.025 595.623,523.704 597.856,523.531 600.072,523.446 602.217,523.371 604.338,523.24 606.452,522.991 608.522,522.607 610.544,522.065 612.472,521.384 614.305,520.574 616.148,519.581 618.038,518.364 619.81,517.027 621.459,515.593 623.049,514.011 624.507,512.359 625.897,510.555 627.162,508.706 628.349,506.819 629.484,504.97 630.625,503.154 631.88,501.277 633.22,499.412 634.608,497.653 636.007,496.016 637.539,494.367 639.121,492.813 640.785,491.329 642.535,489.924 644.329,488.626 646.105,487.475 647.9,486.426 649.843,485.38 651.897,484.307 653.936,483.234 655.858,482.135 657.76,480.86 659.443,479.447 660.863,477.772 661.787,475.918 662.141,474.249 662.043,472.64 661.489,470.974 660.47,469.34 658.91,467.824 657.042,466.638 655.039,465.724 652.94,464.989 650.801,464.388 648.57,463.881 646.319,463.448 644.154,463.066 641.96,462.709 639.729,462.343 637.502,461.987 635.363,461.641 633.276,461.3 631.028,460.948 628.862,460.61 626.646,460.271 624.415,459.901 622.287,459.566 620.07,459.213 617.936,458.883 615.729,458.537 613.517,458.186 611.387,457.851 609.231,457.491 607.092,457.152 604.774,456.786 602.538,456.403 600.345,456.05 598.128,455.688 596.069,455.368 593.875,454.991 591.747,454.604 589.45,454.229 587.308,453.901 585.185,453.502 582.99,453.164 580.621,452.75 578.456,452.384 576.42,451.994 574.336,451.647 572.018,451.28 569.811,450.818 567.632,450.498 565.408,450.085 563.385,449.657 561.276,449.281 559.046,448.866 556.844,448.407 554.707,447.984 552.525,447.526 550.25,447.004 548.245,446.58 546.108,446.113 543.862,445.531 541.558,445.004 539.632,444.507 537.369,443.935 535.015,443.309 533.013,442.801 530.942,442.193 528.658,441.552 526.587,440.962 524.56,440.335 522.386,439.684 520.153,438.988 518.23,438.37 515.979,437.657 513.715,436.905 511.802,436.251 509.638,435.525 507.412,434.771 505.311,434.036 503.271,433.321 501.108,432.566 498.979,431.822 496.808,431.046 494.714,430.28 492.649,429.487 490.657,428.653 488.581,427.643 486.641,426.494 484.79,425.105 483.253,423.561 482.145,422.017 481.355,420.437 480.821,418.734 480.531,416.699 480.592,414.382 481.084,411.957 481.94,409.655 483.06,407.559 484.322,405.699 485.762,403.924 487.187,402.356 488.739,400.796 490.459,399.16 492.112,397.623 493.651,396.2 495.238,394.714 496.779,393.271 498.425,391.679 500.02,390.152 501.643,388.562 503.257,386.964 504.768,385.432 506.314,383.879 507.843,382.259 509.372,380.656 510.866,379.027 512.364,377.363 513.825,375.684 515.219,374.019 516.602,372.333 517.99,370.552 519.301,368.838 520.632,367.01 521.977,365.098 523.23,363.21 524.4,361.371 525.487,359.567 526.586,357.69 527.739,355.596 528.724,353.697 529.611,351.892 530.545,349.916 531.442,347.845 532.13,346.182 532.94,344.107 533.725,341.913 534.35,340.088 534.941,338.228 535.644,335.734 536.283,333.321 536.718,331.715 537.171,329.442 537.684,326.847 538.047,324.856 538.352,322.852 538.689,320.413 538.942,318.102 539.192,316.124 539.394,313.771 539.49,311.476 539.76,309.638 539.884,307.122 539.948,305.12 540.17,302.926 540.243,300.444 540.301,298.45 540.438,296.355 540.474,293.78 540.586,291.86 540.69,289.612 540.667,287.192 540.762,285.22 540.854,282.889 540.823,280.363 540.983,278.866 540.971,276.186 540.932,273.823 541.164,272.024 541.078,269.529 541.155,267.231 541.298,265.413 541.253,262.735 541.388,260.761 541.4,258.457 541.419,256.344 541.527,254.051 541.527,251.756 541.563,249.639 541.737,247.512 541.644,245.122 541.825,242.93 541.824,240.755 541.849,238.443 541.994,236.483 541.98,234.069 542.095,231.881 542.199,229.696 542.21,227.436 542.349,225.318 542.38,222.916 542.474,220.688 542.569,218.604 542.615,216.239 542.74,214.207 542.791,211.846 542.891,209.572 543.0,207.534 543.069,205.279 543.191,202.786 543.296,200.66 543.387,198.518 543.505,196.264 543.624,194.07 543.762,191.809 543.92,189.633 544.124,187.242 544.431,184.895 544.897,182.705 545.627,180.535 546.649,178.477 547.86,176.75 549.108,175.402 550.321,174.376 551.797,173.372 553.648,172.43 555.639,171.703 557.875,171.081 559.941,170.507 561.99,169.829 563.699,169.135 565.455,168.264 567.195,167.214 568.713,166.112 570.267,164.765 571.642,163.347 572.94,161.762 574.282,159.813 575.44,157.784 576.382,155.754 577.14,153.677 577.734,151.53 578.149,149.444 578.459,147.226 578.662,145.06 578.809,142.808 578.906,140.427 578.947,138.255 578.979,135.992 579.0,133.652 579.038,131.375 579.073,129.506 579.133,127.418 579.194,124.931 579.312,122.714 579.355,120.689 579.538,118.262 579.705,116.199 579.753,114.071 579.91,111.674 580.053,109.478 580.245,107.408 580.414,105.074 580.519,102.992 580.721,100.484 580.877,98.43 581.072,96.26 581.194,94.09 581.353,91.924 581.536,89.688 581.693,87.264 581.822,85.07 581.955,82.72 582.047,80.935 582.064,78.589 582.007,76.109 581.832,73.823 581.492,71.483 581.124,69.615 580.56,67.512 579.791,65.221 579.111,63.53 578.304,61.836 577.352,60.089 576.06,58.04 574.783,56.254 573.864,55.142 572.292,53.351 570.326,51.438 568.603,49.955 566.923,48.65 565.175,47.395 563.406,46.332 561.293,45.205 559.352,44.203 557.557,43.441 554.818,42.522 552.737,41.896 550.074,41.196 547.984,40.824 546.513,40.543 544.058,40.282 541.597,40.067 539.923,40.108 537.697,40.0 535.091,40.179 532.259,40.551 531.112,40.671 528.461,41.008 525.517,41.416 523.228,41.753 522.274,41.898 519.156,42.396 516.354,42.858 515.67,42.971 512.056,43.165" fill="none" stroke="white" stroke-width="4"
            stroke-linejoin="round" stroke-linecap="round"/>
  <line x1="508.891" y1="23.417" x2="515.221" y2="62.913" stroke="red" stroke-width="3" stroke-linecap="round"/>
</svg>
