<?xml version="1.0" encoding="utf-8"?>
<svg xmlns="http://www.w3.org/2000/svg" width="1000" height="600">
  <polyline points="216.006,397.907 213.012,399.941 210.038,401.969 207.114,403.961 204.119,405.996 201.13,408.019 198.201,410.009 195.215,412.034 192.215,414.074 189.249,416.082 186.301,418.074 183.297,420.106 180.285,422.14 177.314,424.142 174.344,426.136 171.353,428.156 168.361,430.161 165.38,432.156 162.405,434.147 159.399,436.158 156.442,438.108 153.464,440.082 150.418,442.091 147.436,444.05 144.436,446.02 141.429,447.992 138.425,449.951 135.393,451.907 132.357,453.875 129.332,455.823 126.3,457.777 123.261,459.735 120.195,461.701 117.132,463.661 114.108,465.594 111.056,467.54 107.989,469.47 104.912,471.371 101.748,473.159 98.326,474.66 94.575,475.548 90.857,475.375 88.207,474.371 86.913,473.425 86.215,472.735 85.409,471.707 84.376,469.713 83.614,466.406 83.715,462.53 84.523,458.801 85.741,455.289 87.211,451.973 88.808,448.761 90.438,445.64 92.109,442.489 93.787,439.346 95.46,436.213 97.155,433.052 98.849,429.929 100.516,426.831 102.2,423.724 103.908,420.589 105.605,417.459 107.32,414.332 109.046,411.177 110.786,408.065 112.547,404.923 114.341,401.804 116.173,398.709 118.055,395.595 119.96,392.517 121.879,389.48 123.853,386.467 125.871,383.476 127.912,380.496 129.994,377.545 132.096,374.634 134.237,371.741 136.397,368.898 138.594,366.098 140.835,363.365 143.156,360.617 145.479,357.974 147.829,355.386 150.298,352.773 152.777,350.229 155.289,347.727 157.891,345.216 160.487,342.757 163.103,340.334 165.786,337.855 168.494,335.436 171.131,333.045 173.783,330.658 176.457,328.243 179.1,325.868 181.767,323.451 184.467,321.019 187.124,318.606 189.793,316.207 192.432,313.796 195.028,311.431 197.732,308.978 200.425,306.532 203.095,304.082 205.721,301.677 208.355,299.255 210.986,296.825 213.602,294.362 216.21,291.867 218.762,289.371 221.287,286.827 223.784,284.244 226.249,281.595 228.648,278.916 231.064,276.125 233.396,273.33 235.622,270.58 237.78,267.828 239.872,265.056 241.934,262.252 243.99,259.395 246.024,256.544 248.139,253.605 250.287,250.721 252.53,247.871 254.897,245.061 257.26,242.462 259.747,239.942 262.271,237.594 264.93,235.339 267.593,233.276 270.338,231.327 273.242,229.441 276.286,227.637 279.35,225.979 282.513,224.413 285.722,222.965 288.977,221.621 292.301,220.379 295.751,219.195 299.236,218.114 302.681,217.094 306.056,216.12 309.469,215.123 312.713,214.115 315.994,212.991 319.192,211.812 322.496,210.477 325.763,209.052 329.057,207.519 332.266,205.901 335.529,204.162 338.649,202.385 341.735,200.542 344.747,198.641 347.732,196.696 350.725,194.661 353.692,192.583 356.626,190.506 359.561,188.427 362.503,186.315 365.462,184.187 368.371,182.105 371.234,180.036 374.107,178.014 377.023,175.908 379.98,173.81 382.897,171.734 385.865,169.625 388.806,167.534 391.741,165.509 394.661,163.471 397.647,161.408 400.674,159.366 403.648,157.409 406.63,155.485 409.611,153.577 412.718,151.657 415.76,149.805 418.78,148.057 421.888,146.304 425.012,144.598 428.159,142.942 431.321,141.371 434.546,139.806 437.743,138.291 441.029,136.805 444.314,135.34 447.61,133.908 450.938,132.48 454.239,131.127 457.604,129.79 461.007,128.495 464.301,127.253 467.696,126.016 471.148,124.812 474.521,123.65 477.854,122.509 481.237,121.374 484.694,120.234 488.153,119.106 491.487,118.006 494.933,116.907 498.411,115.761 501.789,114.686 505.179,113.575 508.601,112.474 512.078,111.38 515.436,110.258 518.824,109.166 522.288,108.069 525.763,106.909 529.135,105.825 532.53,104.728 535.95,103.603 539.352,102.449 542.769,101.355 546.151,100.189 549.552,99.136 552.993,97.967 556.403,96.842 559.781,95.747 563.29,94.636 566.67,93.465 570.027,92.369 573.505,91.26 576.833,90.138 580.309,89.02 583.834,87.822 587.121,86.768 590.501,85.654 593.904,84.47 597.427,83.346 600.732,82.248 604.169,81.064 607.666,79.927 611.044,78.832 614.482,77.706 617.753,76.56 621.201,75.474 624.653,74.316 628.079,73.194 631.413,72.099 634.839,70.953 638.402,69.782 641.709,68.697 645.146,67.525 648.573,66.409 651.976,65.281 655.352,64.17 658.769,63.021 662.13,61.851 665.533,60.773 669.018,59.626 672.339,58.463 675.82,57.275 679.199,56.21 682.561,55.009 686.012,53.86 689.331,52.79 692.785,51.565 696.155,50.445 699.598,49.267 703.075,48.101 706.449,47.002 709.874,45.797 713.282,44.631 716.68,43.533 720.176,42.458 723.723,41.485 727.241,40.747 730.87,40.206 734.52,40.0 738.006,40.183 741.368,40.703 744.532,41.639 747.531,42.904 750.387,44.541 753.146,46.624 755.756,48.959 758.295,51.443 760.869,53.825 763.582,56.014 766.362,57.846 769.314,59.355 772.34,60.492 775.57,61.281 779.024,61.705 782.609,61.716 786.154,61.316 789.692,60.483 793.079,59.293 796.429,57.854 799.745,56.359 803.144,54.941 806.525,53.784 809.91,52.93 813.567,52.341 817.19,52.084 820.665,52.146 824.182,52.53 827.467,53.201 830.572,54.129 833.71,55.355 836.786,56.882 839.799,58.712 842.763,60.842 845.546,63.218 848.185,65.794 850.61,68.45 852.908,71.212 855.098,74.095 857.214,77.013 859.305,79.913 861.338,82.858 863.335,85.735 865.443,88.802 867.464,91.707 869.477,94.561 871.601,97.513 873.686,100.346 875.856,103.288 878.011,106.16 880.148,109.027 882.364,111.932 884.556,114.806 886.682,117.58 888.901,120.448 891.132,123.307 893.339,126.147 895.528,128.936 897.715,131.734 899.951,134.614 902.167,137.491 904.372,140.433 906.477,143.347 908.502,146.35 910.451,149.522 912.204,152.705 913.688,155.894 914.893,159.219 915.807,162.631 916.321,165.977 916.386,169.224 915.993,172.473 915.065,175.657 913.653,178.592 911.701,181.339 909.345,183.658 906.582,185.507 903.503,186.822 900.239,187.575 897.017,187.775 893.691,187.444 890.4,186.599 887.234,185.287 884.167,183.503 881.271,181.307 878.679,178.829 876.341,176.097 874.273,173.196 872.411,170.111 870.734,166.875 869.227,163.639 867.699,160.302 866.137,156.983 864.511,153.784 862.755,150.655 860.875,147.604 858.885,144.798 856.42,141.896 853.709,139.291 850.871,137.061 847.948,135.171 845.032,133.629 842.023,132.395 838.769,131.428 835.479,130.804 831.971,130.496 828.386,130.519 824.757,130.847 821.156,131.476 817.606,132.399 814.282,133.499 811.051,134.737 807.656,136.069 804.373,137.431 801.085,138.807 797.707,140.229 794.404,141.59 791.032,142.978 787.677,144.324 784.441,145.552 781.126,146.778 777.572,148.066 774.099,149.263 770.951,150.283 767.553,151.363 764.06,152.473 760.803,153.407 757.508,154.311 754.044,155.259 750.422,156.216 746.919,157.095 743.439,157.913 739.95,158.697 736.41,159.523 732.891,160.284 729.414,161.013 725.877,161.825 722.495,162.511 718.879,163.302 715.357,164.035 712.013,164.733 708.308,165.525 704.694,166.281 701.384,166.987 697.775,167.731 694.258,168.468 690.85,169.173 687.386,169.919 683.802,170.667 680.446,171.381 676.856,172.147 673.242,172.938 669.789,173.717 666.364,174.538 662.766,175.492 659.369,176.536 655.998,177.742 652.639,179.154 649.286,180.798 646.176,182.587 643.294,184.469 640.547,186.512 637.875,188.781 635.463,191.099 633.172,193.591 631.092,196.15 629.097,198.941 627.201,201.97 625.502,205.102 624.051,208.23 622.695,211.687 621.584,215.167 620.692,218.7 619.99,222.39 619.565,225.849 619.344,229.434 619.322,233.014 619.499,236.678 619.88,240.384 620.452,244.147 621.212,247.655 622.131,251.117 623.29,254.617 624.55,257.97 626.013,261.253 627.609,264.416 629.333,267.535 631.109,270.378 633.047,273.227 635.194,276.091 637.521,278.891 639.958,281.545 642.424,284.003 644.992,286.361 647.735,288.645 650.63,290.886 653.506,292.888 656.415,294.778 659.467,296.574 662.639,298.348 665.794,299.906 669.213,301.491 672.641,302.921 676.11,304.29 679.442,305.51 682.644,306.603 685.847,307.642 689.353,308.76 692.758,309.779 696.172,310.81 699.786,311.878 703.317,312.896 706.73,313.893 710.249,314.945 713.827,316.006 717.291,317.051 720.77,318.054 724.146,319.089 727.497,320.098 730.824,321.156 734.285,322.226 737.815,323.355 741.397,324.511 744.816,325.652 748.087,326.729 751.506,327.898 754.893,329.051 758.278,330.221 761.709,331.414 764.952,332.581 768.363,333.811 771.77,335.137 775.15,336.606 778.35,338.193 781.571,340.043 784.653,342.101 787.54,344.35 790.101,346.699 792.378,349.175 794.51,351.974 796.22,354.806 797.661,357.935 798.757,361.148 799.502,364.387 799.913,367.754 799.964,371.181 799.648,374.574 798.95,378.081 797.949,381.348 796.698,384.527 795.345,387.733 793.944,391.162 792.678,394.545 791.679,397.868 790.931,401.339 790.491,404.898 790.387,408.074 790.569,411.343 791.039,414.644 791.823,418.011 792.875,421.171 794.186,424.211 795.862,427.278 797.959,430.35 800.258,433.144 802.758,435.72 805.496,438.183 808.403,440.491 811.246,442.498 814.115,444.326 817.237,446.13 820.51,447.861 823.864,449.442 827.211,450.882 830.527,452.245 833.943,453.62 837.21,454.982 840.477,456.392 843.798,457.907 846.909,459.424 850.107,461.084 853.22,462.784 856.441,464.617 859.582,466.495 862.675,468.453 865.768,470.611 868.564,472.843 871.214,475.391 873.566,478.176 875.448,480.98 876.969,483.986 878.112,487.219 878.806,490.319 879.144,493.523 879.128,497.002 878.706,500.522 877.888,504.024 876.672,507.537 875.151,510.875 873.437,513.977 871.463,517.145 869.53,519.981 867.464,522.886 865.341,525.856 863.173,528.889 861.098,531.767 859.078,534.527 856.852,537.443 854.561,540.228 852.107,542.926 849.624,545.377 846.91,547.754 844.073,549.936 841.195,551.861 838.26,553.554 835.004,555.161 831.644,556.547 828.437,557.629 825.082,558.531 821.726,559.216 818.392,559.691 814.879,559.958 811.349,560.0 807.92,559.859 804.247,559.491 800.605,558.895 797.119,558.124 793.455,557.108 789.941,555.982 786.49,554.732 783.239,553.465 780.1,552.144 776.807,550.702 773.48,549.127 770.206,547.505 767.09,545.887 763.787,544.024 760.632,542.183 757.547,540.277 754.609,538.402 751.628,536.405 748.783,534.433 745.802,532.302 742.813,530.08 739.99,527.878 737.11,525.577 734.393,523.354 731.687,521.088 729.052,518.783 726.275,516.297 723.561,513.706 720.977,511.34 718.49,508.957 715.796,506.256 713.383,503.876 710.879,501.19 708.455,498.637 706.072,496.037 703.623,493.276 701.394,490.697 698.925,487.813 696.729,485.184 694.381,482.265 692.259,479.512 690.132,476.721 687.959,473.718 685.888,470.836 683.94,467.915 682.112,465.045 680.188,462.147 678.211,459.047 676.275,455.764 674.379,452.589 672.684,449.732 670.854,446.523 669.109,443.479 667.351,440.283 665.496,437.07 663.709,433.905 662.048,430.943 660.208,427.72 658.349,424.507 656.653,421.56 654.757,418.348 652.969,415.359 651.019,412.242 649.152,409.264 647.29,406.432 645.072,403.154 643.127,400.384 641.058,397.54 638.837,394.632 636.514,391.69 634.529,389.257 632.141,386.499 629.506,383.569 627.216,381.092 624.826,378.677 622.069,375.999 619.473,373.567 616.991,371.315 614.329,369.083 611.405,366.699 608.522,364.413 606.009,362.592 603.194,360.563 599.912,358.368 596.867,356.414 593.768,354.475 590.996,352.844 587.461,350.92 584.141,349.205 580.998,347.62 578.276,346.267 574.423,344.557 571.101,343.118 568.152,341.844 564.884,340.456 561.168,338.938 557.986,337.64 554.918,336.394 551.393,334.99 547.941,333.647 544.511,332.38 541.346,331.29 537.93,330.235 534.151,329.22 530.498,328.38 527.273,327.766 523.806,327.245 520.123,326.813 516.747,326.548 513.276,326.402 509.681,326.372 506.117,326.491 502.964,326.719 499.394,327.068 495.433,327.603 491.812,328.266 488.724,328.948 485.418,329.707 481.522,330.833 478.038,331.978 474.623,333.118 471.725,334.21 468.056,335.655 464.192,337.24 461.462,338.329 458.324,339.629 454.755,341.212 451.261,342.732 448.25,344.036 444.945,345.51 441.62,347.02 438.235,348.486 435.002,349.968 431.683,351.447 428.645,352.776 425.347,354.237 421.665,355.839 418.583,357.224 415.267,358.636 411.795,360.041 408.559,361.267 405.502,362.528 401.831,363.796 398.573,364.919 395.374,366.11 391.845,367.106 388.479,368.139 384.841,369.145 381.481,370.118 378.119,370.959 374.327,371.833 371.08,372.551 367.671,373.28 363.892,373.979 360.56,374.607 357.059,375.171 353.138,375.786 349.604,376.298 346.357,376.778 342.498,377.264 338.818,377.779 335.282,378.27 331.789,378.727 328.086,379.229 324.35,379.734 320.692,380.228 317.024,380.674 313.554,381.084 309.911,381.325 306.145,381.336 302.555,380.888 299.211,379.786 296.651,378.139 294.931,376.411 293.603,374.319 292.537,371.254 291.988,367.806 291.289,364.341 290.019,361.474 288.269,359.496 286.231,358.123 283.464,357.265 279.945,357.303 276.274,358.255 272.962,359.567 269.837,361.239 266.737,363.078 263.564,365.054 260.581,366.989 257.705,368.849 254.466,371.116 251.641,373.0 248.814,374.935 245.992,376.972 242.932,379.129 239.698,381.411 236.762,383.375 234.037,385.308 231.442,387.057 228.81,388.773 225.41,390.704 222.145,392.95 220.135,394.331 216.006,397.907" fill="none" stroke="white" stroke-width="4"
            stroke-linejoin="round" stroke-linecap="round"/>
</svg>
