<?xml version="1.0" encoding="utf-8"?>
<svg xmlns="http://www.w3.org/2000/svg" width="1000" height="600">
  <polyline points="457.095,157.934 458.5,156.693 459.932,155.434 461.357,154.19 462.777,152.945 464.225,151.682 465.652,150.445 467.081,149.206 468.519,147.953 469.965,146.71 471.4,145.459 472.824,144.232 474.255,142.986 475.707,141.726 477.143,140.48 478.569,139.233 480.012,137.994 481.45,136.747 482.879,135.494 484.316,134.26 485.766,133.02 487.196,131.771 488.634,130.545 490.08,129.31 491.521,128.066 492.96,126.809 494.423,125.564 495.846,124.333 497.281,123.09 498.718,121.828 500.14,120.585 501.592,119.319 503.045,118.083 504.47,116.843 505.905,115.598 507.328,114.355 508.759,113.117 510.203,111.858 511.653,110.59 513.113,109.342 514.572,108.141 516.026,106.939 517.422,105.647 518.882,104.406 520.28,103.135 521.686,101.888 523.104,100.601 524.543,99.324 525.958,98.058 527.371,96.825 528.797,95.545 530.225,94.289 531.629,93.029 533.049,91.777 534.462,90.519 535.898,89.244 537.344,87.966 538.776,86.696 540.174,85.441 541.587,84.218 543.023,82.921 544.451,81.67 545.848,80.412 547.3,79.146 548.729,77.859 550.14,76.612 551.545,75.363 552.971,74.081 554.399,72.807 555.808,71.532 557.24,70.272 558.646,69.024 560.054,67.765 561.475,66.505 562.9,65.234 564.357,63.943 565.789,62.684 567.185,61.44 568.594,60.215 570.017,58.973 571.464,57.707 572.906,56.454 574.332,55.223 575.762,53.995 577.215,52.792 578.7,51.6 580.219,50.423 581.795,49.273 583.385,48.173 584.981,47.146 586.609,46.137 588.272,45.203 589.949,44.336 591.641,43.529 593.341,42.799 595.07,42.141 596.805,41.572 598.567,41.087 600.376,40.687 602.217,40.375 604.064,40.157 605.95,40.03 607.878,40.0 609.804,40.08 611.745,40.285 613.655,40.615 615.545,41.083 617.377,41.693 619.117,42.442 620.811,43.366 622.415,44.46 623.886,45.716 625.176,47.066 626.278,48.47 627.223,49.954 628.026,51.545 628.681,53.241 629.151,54.953 629.424,56.653 629.513,58.402 629.419,60.188 629.157,61.929 628.731,63.624 628.111,65.342 627.317,67.043 626.386,68.653 625.297,70.209 624.057,71.696 622.684,73.08 621.216,74.364 619.716,75.544 618.179,76.659 616.592,77.716 614.972,78.708 613.302,79.656 611.603,80.553 609.895,81.413 608.18,82.266 606.461,83.135 604.754,84.02 603.083,84.932 601.429,85.889 599.806,86.882 598.207,87.915 596.63,88.983 595.115,90.073 593.613,91.236 592.127,92.494 590.727,93.81 589.399,95.206 588.164,96.669 587.063,98.157 586.067,99.699 585.17,101.294 584.375,102.912 583.693,104.532 583.11,106.192 582.616,107.939 582.224,109.752 581.93,111.604 581.715,113.462 581.527,115.364 581.303,117.279 581.029,119.136 580.659,120.946 580.169,122.723 579.557,124.447 578.819,126.087 577.967,127.627 577.001,129.101 575.895,130.522 574.681,131.862 573.374,133.113 571.944,134.297 570.391,135.397 568.759,136.396 567.068,137.265 565.314,138.026 563.519,138.685 561.697,139.232 559.864,139.706 558.026,140.156 556.181,140.633 554.344,141.186 552.556,141.835 550.864,142.58 549.247,143.439 547.68,144.426 546.227,145.493 544.866,146.644 543.596,147.883 542.413,149.212 541.309,150.643 540.303,152.171 539.414,153.753 538.653,155.376 537.989,157.085 537.429,158.87 536.983,160.708 536.653,162.574 536.428,164.467 536.296,166.382 536.227,168.279 536.161,170.163 536.056,172.05 535.874,173.91 535.603,175.743 535.223,177.553 534.734,179.32 534.12,181.051 533.373,182.723 532.493,184.323 531.473,185.863 530.334,187.31 529.089,188.645 527.731,189.874 526.279,190.977 524.758,191.945 523.181,192.777 521.519,193.483 519.785,194.051 518.054,194.47 516.298,194.734 514.478,194.844 512.647,194.805 510.811,194.639 508.935,194.346 507.072,193.926 505.239,193.386 503.46,192.748 501.702,192.026 499.934,191.297 498.182,190.62 496.376,190.031 494.515,189.55 492.632,189.202 490.73,188.992 488.847,188.92 487.025,188.976 485.186,189.156 483.397,189.454 481.631,189.88 479.884,190.429 478.222,191.078 476.595,191.831 474.993,192.694 473.433,193.681 471.936,194.778 470.517,195.981 469.153,197.283 467.852,198.706 466.631,200.225 465.53,201.777 464.517,203.395 463.573,205.092 462.747,206.805 461.995,208.578 461.318,210.38 460.698,212.219 460.147,214.045 459.661,215.911 459.231,217.836 458.878,219.708 458.594,221.602 458.369,223.513 458.189,225.441 458.081,227.36 458.045,229.25 458.083,231.178 458.181,233.091 458.348,235.005 458.573,236.885 458.861,238.745 459.207,240.589 459.617,242.419 460.091,244.257 460.624,246.072 461.203,247.843 461.85,249.617 462.553,251.372 463.327,253.146 464.132,254.815 464.982,256.466 465.906,258.131 466.882,259.759 467.918,261.361 468.989,262.934 470.083,264.424 471.227,265.901 472.403,267.32 473.64,268.759 474.952,270.161 476.247,271.489 477.602,272.784 478.984,274.039 480.433,275.302 481.923,276.513 483.431,277.696 484.933,278.841 486.454,279.958 487.94,281.058 489.519,282.192 491.108,283.338 492.633,284.439 494.157,285.566 495.65,286.674 497.184,287.817 498.664,288.946 500.206,290.134 501.714,291.307 503.187,292.479 504.671,293.703 506.088,294.965 507.47,296.319 508.763,297.738 509.942,299.203 511.004,300.691 511.942,302.165 512.804,303.726 513.622,305.445 514.324,307.178 514.931,308.998 515.444,310.89 515.833,312.745 516.139,314.651 516.376,316.528 516.563,318.448 516.753,320.325 516.914,322.201 517.095,324.11 517.268,326.046 517.441,327.958 517.604,329.904 517.727,331.792 517.773,333.671 517.68,335.633 517.404,337.521 516.915,339.303 516.23,340.905 515.431,342.234 514.447,343.497 513.193,344.735 511.723,345.857 510.044,346.85 508.284,347.639 506.436,348.264 504.602,348.785 502.77,349.232 500.906,349.627 499.056,349.983 497.204,350.328 495.376,350.676 493.473,351.028 491.596,351.383 489.702,351.748 487.853,352.108 486.058,352.489 484.162,352.902 482.255,353.308 480.441,353.705 478.546,354.137 476.763,354.542 474.881,354.967 473.042,355.392 471.197,355.834 469.301,356.283 467.485,356.71 465.676,357.137 463.816,357.604 461.993,358.047 460.178,358.482 458.267,358.945 456.378,359.399 454.537,359.825 452.725,360.238 450.886,360.63 449.003,360.982 447.042,361.278 445.21,361.485 443.328,361.625 441.367,361.682 439.479,361.655 437.601,361.547 435.812,361.367 434.012,361.114 432.163,360.767 430.347,360.346 428.511,359.83 426.791,359.286 425.0,358.66 423.196,357.977 421.349,357.234 419.603,356.526 417.892,355.815 416.076,355.069 414.301,354.35 412.54,353.677 410.706,353.093 408.822,352.676 406.912,352.521 405.13,352.736 403.614,353.312 402.43,354.182 401.563,355.316 401.043,356.568 400.847,357.965 400.986,359.443 401.513,360.99 402.484,362.579 403.788,364.032 405.263,365.327 406.794,366.456 408.423,367.506 410.049,368.443 411.723,369.328 413.416,370.173 415.094,370.995 416.781,371.838 418.489,372.698 420.171,373.575 421.819,374.444 423.528,375.379 425.184,376.292 426.774,377.188 428.429,378.147 430.06,379.128 431.673,380.132 433.269,381.181 434.797,382.257 436.293,383.388 437.762,384.579 439.182,385.813 440.569,387.13 441.91,388.501 443.11,389.828 444.303,391.253 445.425,392.704 446.503,394.22 447.526,395.783 448.474,397.378 449.354,398.992 450.165,400.644 450.904,402.321 451.595,404.06 452.212,405.802 452.769,407.606 453.24,409.357 453.677,411.246 454.025,413.084 454.334,414.981 454.575,416.892 454.757,418.781 454.875,420.723 454.933,422.614 454.983,424.435 454.96,426.364 454.93,428.303 454.845,430.251 454.72,432.103 454.566,434.061 454.38,435.94 454.168,437.812 453.909,439.683 453.619,441.548 453.291,443.393 452.897,445.291 452.495,447.21 452.022,449.168 451.559,450.933 451.059,452.704 450.51,454.529 449.954,456.23 449.31,458.109 448.654,459.866 447.933,461.7 447.191,463.446 446.379,465.236 445.554,466.938 444.741,468.52 443.875,470.118 442.928,471.764 441.906,473.446 440.833,475.109 439.755,476.681 438.619,478.25 437.53,479.677 436.426,481.046 435.244,482.446 433.992,483.859 432.557,485.379 431.228,486.705 429.94,487.959 428.623,489.164 427.214,490.386 425.688,491.637 424.219,492.801 422.603,493.99 421.05,495.08 419.576,496.047 418.012,497.043 416.439,497.989 414.815,498.915 413.176,499.776 411.419,500.687 409.633,501.562 407.921,502.372 406.351,503.093 404.656,503.852 402.889,504.644 401.151,505.42 399.299,506.252 397.532,507.047 395.746,507.857 394.161,508.573 392.559,509.316 390.713,510.172 388.884,511.039 387.183,511.869 385.513,512.727 383.849,513.653 382.235,514.657 380.615,515.79 379.112,516.998 377.725,518.284 376.46,519.655 375.359,521.043 374.405,522.434 373.469,524.035 372.643,525.73 371.963,527.443 371.393,529.262 370.953,531.144 370.657,533.048 370.504,534.913 370.487,536.824 370.603,538.775 370.849,540.762 371.197,542.62 371.686,544.574 372.264,546.408 372.986,548.256 373.803,549.964 374.783,551.626 375.955,553.233 377.225,554.634 378.584,555.854 380.023,556.91 381.547,557.815 383.187,558.579 384.798,559.156 386.452,559.582 388.148,559.862 389.975,560.0 391.778,559.972 393.477,559.802 395.294,559.465 397.147,558.975 398.948,558.346 400.678,557.59 402.398,556.687 403.972,555.709 405.494,554.609 407.012,553.345 408.495,551.944 409.86,550.526 411.123,549.072 412.279,547.625 413.405,546.147 414.525,544.637 415.617,543.152 416.708,541.613 417.769,540.088 418.812,538.551 419.928,536.898 421.0,535.293 422.014,533.74 423.115,532.104 424.184,530.484 425.241,528.878 426.262,527.286 427.304,525.621 428.312,523.988 429.292,522.384 430.279,520.786 431.217,519.206 432.134,517.605 433.093,515.966 434.051,514.275 435.077,512.487 435.966,510.84 436.881,509.257 437.742,507.609 438.607,506.024 439.557,504.191 440.458,502.469 441.281,500.814 442.047,499.286 442.945,497.486 443.717,495.876 444.642,493.967 445.47,492.225 446.13,490.693 446.926,488.988 447.777,487.157 448.593,485.358 449.284,483.662 450.016,481.953 450.814,480.079 451.54,478.294 452.163,476.791 452.885,474.965 453.648,472.978 454.257,471.425 454.948,469.574 455.618,467.81 456.266,465.945 456.962,464.025 457.582,462.46 458.118,460.697 458.812,458.726 459.45,456.994 460.01,455.307 460.633,453.426 461.276,451.529 461.887,449.856 462.406,448.142 463.043,446.264 463.698,444.321 464.325,442.525 464.807,440.9 465.482,439.025 466.128,437.103 466.627,435.396 467.224,433.705 467.86,431.86 468.475,429.911 469.031,428.179 469.626,426.412 470.217,424.545 470.809,422.704 471.397,420.966 471.971,419.083 472.618,417.143 473.174,415.595 473.71,413.764 474.357,411.85 474.952,410.064 475.493,408.287 476.079,406.456 476.713,404.669 477.27,402.927 477.838,401.051 478.471,399.349 479.015,397.507 479.606,395.635 480.238,393.829 480.792,392.088 481.362,390.236 482.022,388.384 482.543,386.587 483.174,384.729 483.764,382.96 484.325,381.081 484.945,379.264 485.471,377.689 486.081,375.699 486.682,373.95 487.206,372.238 487.848,370.24 488.466,368.427 488.958,366.823 489.594,364.813 490.227,362.97 490.703,361.327 491.337,359.354 491.963,357.507 492.35,355.96 492.978,353.889 493.458,352.07 493.871,350.221 494.286,348.341 494.674,346.47 494.967,344.516 495.148,342.631 495.299,340.935 495.373,339.005 495.385,337.113 495.318,335.368 495.22,333.556 495.033,331.65 494.757,329.745 494.404,327.923 494.047,326.11 493.488,324.091 492.985,322.31 492.38,320.584 491.772,318.827 490.977,316.973 490.209,315.268 489.349,313.467 488.471,311.664 487.509,310.056 486.601,308.36 485.602,306.788 484.595,305.222 483.481,303.593 482.403,302.084 481.18,300.398 479.969,298.95 478.828,297.54 477.528,296.003 476.241,294.578 474.854,293.159 473.657,291.85 472.259,290.484 470.876,289.17 469.591,287.865 468.225,286.589 466.696,285.146 465.326,283.957 463.935,282.62 462.507,281.32 461.166,280.1 459.761,278.719 458.28,277.443 456.94,276.168 455.705,275.029 454.19,273.634 452.615,272.138 451.242,270.894 450.03,269.727 448.589,268.307 447.234,267.024 445.836,265.631 444.431,264.207 443.023,262.769 441.698,261.381 440.454,260.004 439.181,258.476 438.016,256.873 436.983,255.299 436.146,253.555 435.564,251.682 435.373,249.957 435.502,248.375 435.879,246.708 436.619,244.972 437.605,243.391 438.517,241.888 439.284,240.231 439.745,238.623 439.909,237.138 439.867,235.61 439.568,233.985 438.967,232.26 438.092,230.457 437.155,228.884 436.077,227.322 434.942,225.8 433.84,224.343 432.753,222.829 431.761,221.283 430.885,219.698 430.068,217.971 429.39,216.179 428.869,214.456 428.447,212.714 428.093,210.867 427.851,208.913 427.748,207.128 427.699,205.322 427.778,203.553 427.905,201.973 428.111,200.132 428.41,198.359 428.87,196.319 429.414,194.402 430.024,192.46 430.701,190.609 431.329,189.031 432.17,187.337 433.024,185.677 433.992,183.93 435.22,181.824 436.159,180.432 436.954,179.279 438.027,177.717 439.39,175.86 440.473,174.425 441.807,172.855 442.694,171.762 444.236,169.992 445.657,168.457 446.709,167.392 448.156,165.936 449.692,164.439 451.377,162.846 451.906,162.355 453.579,160.837 454.181,160.296 457.095,157.934" fill="none" stroke="white" stroke-width="4"
            stroke-linejoin="round" stroke-linecap="round"/>
</svg>
