<?xml version="1.0" encoding="utf-8"?>
<svg xmlns="http://www.w3.org/2000/svg" width="1000" height="600">
  <polyline points="547.641,530.819 548.794,529.187 549.943,527.558 551.094,525.945 552.233,524.346 553.39,522.743 554.543,521.132 555.698,519.546 556.885,517.904 558.055,516.308 559.231,514.712 560.408,513.106 561.573,511.524 562.765,509.905 563.941,508.315 565.124,506.714 566.306,505.119 567.489,503.523 568.678,501.919 569.86,500.334 571.049,498.732 572.233,497.139 573.405,495.542 574.602,493.965 575.798,492.343 576.971,490.765 578.174,489.174 579.359,487.547 580.549,485.973 581.723,484.38 582.919,482.783 584.091,481.202 585.282,479.609 586.469,478.004 587.656,476.427 588.844,474.829 590.015,473.239 591.219,471.644 592.404,470.045 593.606,468.412 594.791,466.848 595.959,465.263 597.157,463.645 598.364,462.036 599.541,460.467 600.694,458.898 601.893,457.294 603.104,455.686 604.303,454.081 605.513,452.474 606.687,450.903 607.886,449.309 609.076,447.726 610.252,446.158 611.449,444.564 612.651,442.959 613.851,441.371 615.046,439.777 616.258,438.169 617.437,436.602 618.614,435.053 619.834,433.437 621.025,431.865 622.223,430.301 623.421,428.73 624.63,427.152 625.839,425.588 627.033,424.035 628.244,422.459 629.483,420.848 630.708,419.27 631.92,417.702 633.122,416.145 634.324,414.586 635.529,413.026 636.755,411.438 637.949,409.901 639.156,408.324 640.395,406.719 641.612,405.136 642.812,403.556 644.034,401.944 645.226,400.355 646.399,398.77 647.561,397.162 648.701,395.513 649.787,393.835 650.8,392.116 651.748,390.318 652.603,388.39 653.286,386.372 653.717,384.263 653.768,382.11 653.375,380.109 652.702,378.559 651.924,377.416 651.24,376.677 650.609,376.133 649.715,375.54 648.22,374.9 646.163,374.459 644.024,374.387 641.953,374.586 639.968,374.967 638.063,375.481 636.19,376.118 634.353,376.845 632.543,377.655 630.767,378.533 629.004,379.466 627.26,380.41 625.519,381.348 623.753,382.271 621.969,383.174 620.186,384.025 618.385,384.839 616.555,385.625 614.731,386.359 612.901,387.037 611.016,387.658 609.089,388.201 607.176,388.64 605.225,388.985 603.277,389.227 601.353,389.367 599.454,389.414 597.599,389.366 595.694,389.22 593.776,388.977 591.913,388.644 590.09,388.226 588.292,387.723 586.494,387.124 584.728,386.438 583.008,385.67 581.336,384.835 579.711,383.927 578.089,382.917 576.49,381.816 574.949,380.654 573.467,379.421 572.005,378.092 570.586,376.688 569.236,375.231 567.939,373.706 566.719,372.15 565.549,370.545 564.437,368.901 563.366,367.19 562.355,365.465 561.401,363.746 560.467,361.995 559.554,360.213 558.646,358.439 557.728,356.657 556.819,354.895 555.874,353.126 554.9,351.377 553.908,349.68 552.869,348.005 551.779,346.345 550.63,344.713 549.431,343.117 548.165,341.545 546.854,340.031 545.478,338.55 544.052,337.124 542.603,335.777 541.15,334.517 539.685,333.334 538.204,332.219 536.687,331.151 535.142,330.137 533.557,329.172 531.93,328.25 530.223,327.336 528.441,326.389 526.698,325.422 524.972,324.383 523.262,323.256 521.634,322.082 520.078,320.859 518.592,319.589 517.225,318.325 515.966,317.069 514.759,315.775 513.563,314.396 512.401,312.94 511.284,311.417 510.16,309.779 509.024,308.095 507.872,306.448 506.653,304.844 505.379,303.323 504.072,301.914 502.751,300.621 501.428,299.438 500.055,298.308 498.633,297.232 497.166,296.22 495.599,295.249 493.916,294.324 492.118,293.456 490.26,292.674 488.353,291.978 486.428,291.363 484.522,290.821 482.637,290.315 480.799,289.806 478.962,289.253 477.19,288.655 475.501,288.004 473.804,287.251 472.143,286.409 470.533,285.47 468.975,284.429 467.459,283.28 465.965,281.997 464.555,280.623 463.248,279.174 462.032,277.635 460.921,276.019 459.922,274.331 459.046,272.59 458.293,270.79 457.659,268.918 457.173,267.069 456.829,265.268 456.605,263.426 456.501,261.597 456.508,259.828 456.615,258.034 456.837,256.201 457.178,254.355 457.648,252.487 458.235,250.628 458.926,248.815 459.709,247.007 460.582,245.191 461.513,243.376 462.392,241.634 463.23,239.857 464.032,238.031 464.772,236.162 465.418,234.269 465.971,232.308 466.391,230.371 466.69,228.315 466.83,226.249 466.813,224.328 466.677,222.598 466.45,221.012 466.107,219.329 465.616,217.569 464.967,215.786 464.157,214.009 463.192,212.259 462.11,210.594 460.939,209.014 459.674,207.497 458.309,206.042 456.839,204.642 455.35,203.371 453.771,202.14 452.154,200.957 450.53,199.792 448.961,198.629 447.386,197.356 445.92,196.004 444.611,194.576 443.459,193.054 442.476,191.433 441.707,189.752 441.155,188.037 440.798,186.288 440.631,184.466 440.667,182.662 440.898,180.92 441.319,179.242 441.927,177.586 442.696,176.017 443.616,174.533 444.692,173.084 445.836,171.654 447.031,170.125 448.228,168.486 449.323,166.783 450.182,165.19 450.806,163.803 451.35,162.364 451.844,160.781 452.286,158.943 452.625,156.893 452.806,154.858 452.831,152.817 452.713,150.804 452.483,148.79 452.178,146.822 451.805,144.893 451.34,142.901 450.856,141.0 450.346,139.089 449.804,137.171 449.262,135.238 448.721,133.347 448.173,131.444 447.623,129.577 447.046,127.665 446.436,125.728 445.791,123.827 445.12,121.95 444.396,120.079 443.624,118.233 442.815,116.415 441.946,114.61 441.043,112.853 440.09,111.14 439.156,109.555 438.244,108.109 437.201,106.555 436.155,105.072 434.994,103.526 433.721,101.912 432.431,100.406 431.087,98.898 429.697,97.416 428.331,96.033 426.925,94.679 425.41,93.283 423.96,92.013 422.433,90.713 420.908,89.446 419.317,88.172 417.785,86.942 416.196,85.731 414.633,84.539 413.072,83.34 411.454,82.106 409.907,80.909 408.267,79.701 406.748,78.523 405.183,77.347 403.575,76.087 402.022,74.894 400.504,73.674 398.915,72.429 397.366,71.196 395.76,69.93 394.231,68.719 392.648,67.452 391.108,66.199 389.538,64.944 388.065,63.74 386.537,62.502 385.003,61.254 383.433,59.985 381.862,58.696 380.283,57.397 378.731,56.143 377.185,54.871 375.595,53.577 374.111,52.351 372.5,51.041 370.929,49.761 369.398,48.509 367.8,47.221 366.198,45.941 364.612,44.71 362.98,43.51 361.307,42.41 359.487,41.394 357.52,40.563 355.423,40.052 353.249,40.0 351.215,40.509 349.589,41.418 348.726,42.143 348.25,42.665 347.58,43.621 346.83,45.227 346.348,47.236 346.232,49.351 346.385,51.417 346.715,53.461 347.15,55.342 347.694,57.246 348.302,59.123 348.944,60.983 349.617,62.849 350.293,64.706 351.001,66.59 351.677,68.41 352.379,70.241 353.062,72.029 353.773,73.905 354.503,75.79 355.199,77.652 355.892,79.503 356.596,81.398 357.257,83.216 357.942,85.078 358.597,86.902 359.261,88.833 359.938,90.728 360.586,92.596 361.251,94.477 361.862,96.301 362.506,98.231 363.136,100.089 363.768,101.96 364.382,103.835 364.974,105.651 365.574,107.485 366.179,109.36 366.805,111.295 367.411,113.251 368.015,115.178 368.597,117.091 369.211,119.052 369.795,120.975 370.374,122.82 370.934,124.73 371.493,126.622 372.062,128.498 372.61,130.392 373.159,132.264 373.717,134.138 374.261,135.988 374.779,137.843 375.368,139.9 375.916,141.871 376.463,143.774 376.974,145.645 377.506,147.512 378.001,149.35 378.545,151.306 379.088,153.303 379.608,155.245 380.124,157.144 380.638,159.026 381.131,160.924 381.674,162.942 382.174,164.81 382.656,166.69 383.151,168.534 383.613,170.375 384.129,172.409 384.674,174.546 385.154,176.469 385.596,178.292 386.045,180.045 386.532,182.007 387.036,184.039 387.494,186.026 387.978,187.995 388.417,189.963 388.854,191.819 389.288,193.617 389.741,195.527 390.183,197.607 390.673,199.615 391.105,201.515 391.481,203.276 391.888,205.149 392.361,207.195 392.787,209.211 393.217,211.224 393.625,213.122 393.994,214.985 394.398,216.918 394.844,219.005 395.234,220.919 395.617,222.876 395.994,224.776 396.399,226.706 396.709,228.379 397.09,230.392 397.516,232.562 397.929,234.574 398.231,236.385 398.583,238.277 398.933,240.283 399.317,242.256 399.676,244.257 400.024,246.215 400.359,248.185 400.706,250.099 401.047,252.022 401.371,253.964 401.697,255.989 402.076,257.889 402.383,259.814 402.715,261.767 403.032,263.802 403.403,265.87 403.719,267.713 404.028,269.706 404.318,271.648 404.666,273.587 404.943,275.497 405.265,277.541 405.575,279.591 405.851,281.501 406.185,283.426 406.444,285.456 406.697,287.528 406.999,289.401 407.255,291.202 407.54,293.262 407.762,295.269 407.998,297.173 408.306,299.086 408.557,301.178 408.807,303.149 409.039,305.061 409.294,307.002 409.54,309.157 409.795,310.948 409.992,312.864 410.263,314.98 410.477,317.019 410.735,318.878 410.973,320.772 411.212,322.892 411.458,324.959 411.665,326.651 411.896,328.719 412.167,330.845 412.387,332.728 412.622,334.717 412.854,336.608 413.096,338.663 413.354,340.807 413.593,342.698 413.835,344.671 414.082,346.668 414.318,348.633 414.572,350.656 414.828,352.698 415.101,354.752 415.368,356.756 415.658,358.749 415.985,360.764 416.394,362.784 416.939,364.768 417.661,366.647 418.659,368.466 420.038,370.14 421.565,371.343 422.661,371.916 423.289,372.153 423.878,372.34 424.948,372.574 426.868,372.655 429.101,372.275 431.026,371.577 432.783,370.704 434.464,369.647 436.048,368.468 437.574,367.166 439.04,365.767 440.397,364.342 441.738,362.843 443.031,361.29 444.323,359.732 445.63,358.154 446.882,356.639 448.305,355.048 449.718,353.539 451.1,352.154 452.579,350.758 454.042,349.472 455.595,348.212 457.233,346.994 459.006,345.81 460.736,344.79 462.517,343.899 464.426,343.137 466.448,342.571 468.562,342.271 470.576,342.319 472.269,342.64 473.575,343.101 474.702,343.672 475.776,344.385 476.917,345.369 478.111,346.749 479.196,348.525 479.987,350.525 480.419,352.448 480.569,354.388 480.45,356.456 480.079,358.5 479.478,360.497 478.681,362.386 477.701,364.158 476.664,365.686 475.567,367.028 474.34,368.326 472.933,369.612 471.259,370.934 469.629,372.063 467.987,373.091 466.36,374.037 464.658,374.963 462.995,375.85 461.353,376.728 459.706,377.648 457.902,378.718 456.217,379.798 454.57,380.942 452.993,382.117 451.47,383.36 449.959,384.729 448.442,386.294 447.099,387.912 445.971,389.589 444.986,391.552 444.301,393.654 444.007,395.734 444.111,397.833 444.664,399.893 445.661,401.746 446.879,403.106 448.0,403.947 449.076,404.514 450.263,404.938 451.889,405.255 453.945,405.298 456.005,404.952 457.965,404.324 459.808,403.545 461.514,402.679 463.26,401.651 464.981,400.521 466.562,399.37 468.092,398.159 469.611,396.882 471.111,395.531 472.544,394.165 474.113,392.701 475.614,391.308 477.14,389.968 478.675,388.686 480.218,387.497 481.822,386.341 483.417,385.278 485.143,384.221 486.91,383.248 488.664,382.381 490.524,381.575 492.507,380.839 494.485,380.23 496.242,379.789 498.191,379.412 500.036,379.163 501.993,379.011 503.972,378.97 505.913,379.035 507.647,379.187 509.461,379.435 511.322,379.786 513.321,380.298 515.213,380.901 517.126,381.626 518.895,382.431 520.621,383.299 522.28,384.276 523.915,385.368 525.227,386.309 526.601,387.41 528.029,388.666 529.375,390.014 530.73,391.483 531.976,392.999 533.048,394.397 534.21,396.155 535.333,398.035 536.194,399.732 537.004,401.453 537.791,403.367 538.488,405.423 538.981,407.249 539.421,409.132 539.758,410.998 540.047,413.091 540.181,415.089 540.231,416.874 540.226,418.909 540.103,421.035 539.852,423.046 539.549,424.841 539.171,426.815 538.68,428.754 538.1,430.662 537.459,432.403 536.671,434.333 535.793,436.264 535.009,437.759 534.054,439.395 532.765,441.411 531.656,443.043 530.64,444.32 529.38,445.873 527.813,447.587 526.575,448.882 525.319,450.065 523.585,451.62 521.979,452.933 520.562,453.952 518.862,455.146 517.127,456.276 515.471,457.286 513.785,458.234 511.984,459.256 510.175,460.205 508.375,461.214 506.731,462.148 504.934,463.176 503.134,464.273 501.601,465.274 499.946,466.37 498.128,467.677 496.69,468.76 495.11,470.039 493.568,471.374 492.089,472.769 490.681,474.239 489.391,475.737 488.092,477.445 486.982,479.132 486.01,480.865 485.214,482.565 484.532,484.332 484.059,485.842 483.683,487.377 483.393,489.024 483.208,490.844 483.151,492.927 483.251,495.014 483.496,497.083 483.855,499.119 484.352,501.176 484.968,503.208 485.61,504.962 486.332,506.707 487.183,508.582 488.014,510.383 488.876,512.105 489.791,513.944 490.793,515.903 491.723,517.746 492.491,519.164 493.427,520.982 494.31,522.823 495.234,524.726 495.987,526.295 496.866,528.14 497.707,529.974 498.547,531.784 499.284,533.467 500.149,535.319 501.048,537.303 501.851,539.132 502.65,540.888 503.447,542.627 504.292,544.494 505.218,546.492 506.091,548.347 506.969,550.129 507.867,551.824 508.891,553.515 510.171,555.271 511.63,556.845 513.187,558.086 514.808,559.002 516.219,559.541 517.436,559.824 518.527,559.96 519.603,560.0 520.906,559.917 522.687,559.57 524.933,558.695 526.698,557.644 528.19,556.515 529.707,555.148 531.19,553.594 532.438,552.131 533.467,550.818 534.732,549.134 535.991,547.452 537.31,545.641 538.435,544.027 539.376,542.644 540.604,540.855 541.808,539.132 542.94,537.511 544.153,535.769 545.374,534.017 545.787,533.425 547.641,530.819" fill="none" stroke="white" stroke-width="4"
            stroke-linejoin="round" stroke-linecap="round"/>
  <line x1="563.976" y1="542.359" x2="531.306" y2="519.279" stroke="red" stroke-width="3" stroke-linecap="round"/>
</svg>
