<?xml version="1.0" encoding="utf-8"?>
<svg xmlns="http://www.w3.org/2000/svg" width="1000" height="600">
  <polyline points="443.111,488.421 440.397,487.353 437.777,486.306 435.097,485.275 432.363,484.174 429.692,483.145 427.027,482.139 424.452,481.097 421.74,480.036 418.941,478.993 416.299,477.914 413.657,476.915 411.04,475.894 408.304,474.829 405.614,473.801 402.995,472.785 400.342,471.734 397.607,470.698 394.924,469.668 392.261,468.646 389.583,467.602 386.855,466.585 384.21,465.574 381.475,464.539 378.824,463.531 376.131,462.509 373.456,461.524 370.803,460.49 368.095,459.522 365.388,458.532 362.718,457.496 360.009,456.531 357.259,455.507 354.648,454.512 351.976,453.558 349.252,452.531 346.588,451.538 343.952,450.563 341.11,449.515 338.38,448.51 335.781,447.543 333.023,446.504 330.317,445.516 327.658,444.522 324.98,443.54 322.349,442.537 319.653,441.541 316.879,440.491 314.116,439.468 311.444,438.479 308.808,437.448 306.063,436.429 303.399,435.38 300.791,434.366 298.111,433.229 295.486,432.034 292.888,430.716 290.369,429.256 287.863,427.562 285.48,425.721 283.351,423.778 281.416,421.714 279.726,419.582 278.303,417.362 277.107,415.053 276.182,412.616 275.543,410.088 275.205,407.522 275.21,404.942 275.536,402.406 276.195,399.956 277.156,397.632 278.392,395.482 279.902,393.505 281.63,391.698 283.584,390.079 285.677,388.698 287.875,387.526 290.209,386.568 292.65,385.807 295.256,385.233 298.03,384.882 300.834,384.751 303.745,384.831 306.707,385.094 309.587,385.545 312.463,386.151 315.289,386.911 318.032,387.768 320.738,388.699 323.423,389.752 326.082,390.823 328.706,391.971 331.299,393.143 333.884,394.361 336.42,395.583 338.968,396.807 341.568,398.061 344.184,399.264 346.778,400.489 349.436,401.614 352.129,402.722 354.735,403.732 357.405,404.668 360.109,405.565 362.76,406.38 365.509,407.142 368.32,407.867 371.093,408.488 373.881,409.063 376.669,409.572 379.534,410.005 382.272,410.377 385.008,410.671 387.876,410.914 390.665,411.091 393.45,411.23 396.284,411.329 399.109,411.42 401.964,411.5 404.798,411.592 407.664,411.705 410.487,411.875 413.355,412.137 416.281,412.53 419.2,413.076 422.116,413.8 424.943,414.688 427.532,415.688 429.899,416.775 432.135,417.955 434.338,419.265 436.538,420.725 438.652,422.293 440.717,424.005 442.659,425.805 444.543,427.762 446.399,429.929 448.158,432.235 449.801,434.65 451.289,437.096 452.689,439.652 454.013,442.262 455.261,444.837 456.472,447.411 457.673,450.039 458.893,452.678 460.138,455.321 461.425,457.893 462.748,460.333 464.152,462.641 465.616,464.719 467.15,466.542 468.835,468.156 470.714,469.572 472.817,470.764 475.155,471.658 477.685,472.166 480.326,472.214 483.015,471.76 485.58,470.834 487.958,469.473 490.07,467.737 491.866,465.697 493.327,463.409 494.452,460.966 495.265,458.363 495.805,455.616 496.078,452.804 496.116,449.955 495.95,447.048 495.602,444.109 495.098,441.224 494.447,438.372 493.691,435.607 492.843,432.875 491.947,430.212 490.995,427.558 489.992,424.834 488.975,422.151 487.96,419.452 486.945,416.795 485.921,414.108 484.909,411.429 483.915,408.755 482.962,406.118 482.009,403.403 481.118,400.694 480.242,397.986 479.464,395.231 478.706,392.514 478.032,389.778 477.375,386.994 476.811,384.209 476.288,381.432 475.829,378.657 475.43,375.863 475.073,373.028 474.779,370.211 474.533,367.347 474.344,364.48 474.216,361.621 474.139,358.861 474.122,356.074 474.168,353.187 474.273,350.351 474.416,347.536 474.624,344.742 474.891,341.91 475.194,339.057 475.546,336.252 475.934,333.414 476.376,330.617 476.831,327.774 477.33,324.93 477.812,322.148 478.315,319.417 478.817,316.584 479.324,313.738 479.815,310.93 480.284,308.077 480.729,305.175 481.128,302.402 481.491,299.555 481.796,296.635 482.05,293.828 482.249,290.966 482.392,288.073 482.472,285.203 482.499,282.322 482.454,279.483 482.34,276.624 482.171,273.894 481.926,271.075 481.612,268.233 481.23,265.461 480.771,262.663 480.253,259.925 479.654,257.159 479.002,254.47 478.279,251.773 477.506,249.149 476.648,246.481 475.717,243.814 474.703,241.122 473.624,238.481 472.468,235.823 471.265,233.227 470.01,230.658 468.669,228.104 467.294,225.564 465.89,223.106 464.426,220.611 462.965,218.171 461.488,215.732 460.024,213.306 458.556,210.84 457.115,208.358 455.712,205.844 454.33,203.278 453.055,200.778 451.814,198.244 450.623,195.672 449.486,193.068 448.43,190.524 447.406,187.893 446.42,185.191 445.505,182.521 444.654,179.855 443.879,177.229 443.16,174.575 442.477,171.883 441.843,169.152 441.26,166.353 440.721,163.523 440.24,160.692 439.797,157.818 439.414,154.966 439.078,152.074 438.795,149.195 438.561,146.362 438.373,143.451 438.241,140.577 438.127,137.683 438.084,134.799 438.052,131.949 438.06,129.095 438.092,126.268 438.137,123.412 438.207,120.557 438.294,117.657 438.385,114.768 438.483,111.867 438.591,109.118 438.714,106.166 438.864,103.313 439.049,100.456 439.302,97.599 439.64,94.696 440.077,91.824 440.627,88.943 441.291,86.086 442.05,83.331 442.937,80.563 443.95,77.814 445.055,75.163 446.284,72.553 447.581,70.085 449.023,67.618 450.482,65.352 452.103,63.073 453.862,60.824 455.694,58.694 457.556,56.722 459.622,54.732 461.705,52.915 463.843,51.23 466.16,49.588 468.474,48.12 470.876,46.759 473.362,45.512 475.828,44.418 478.497,43.388 481.109,42.527 483.804,41.778 486.519,41.169 489.224,40.692 491.943,40.34 494.732,40.11 497.546,40.0 500.368,40.023 503.199,40.179 506.029,40.448 508.924,40.865 511.629,41.363 514.429,42.02 517.208,42.798 520.005,43.712 522.631,44.721 525.423,45.918 528.007,47.173 530.615,48.58 533.1,50.007 535.49,51.525 537.818,53.049 540.254,54.755 542.554,56.433 544.818,58.15 547.122,59.907 549.485,61.729 551.751,63.4 554.055,65.075 556.362,66.688 558.746,68.277 561.17,69.81 563.618,71.31 566.078,72.704 568.702,74.157 571.237,75.464 573.731,76.702 576.26,77.874 578.812,79.007 581.509,80.137 584.113,81.166 586.746,82.187 589.426,83.208 592.103,84.249 594.844,85.341 597.45,86.435 600.091,87.615 602.686,88.862 605.183,90.162 607.827,91.653 610.264,93.164 612.659,94.784 615.029,96.57 617.318,98.477 619.534,100.539 621.623,102.7 623.429,104.775 625.007,106.781 626.355,108.666 627.561,110.512 628.783,112.572 630.053,114.936 631.253,117.473 632.387,120.189 633.369,122.919 634.245,125.853 634.922,128.646 635.477,131.59 635.869,134.477 636.121,137.481 636.22,140.455 636.181,143.397 635.995,146.388 635.71,149.274 635.26,152.226 634.724,155.151 634.055,158.116 633.372,160.773 632.53,163.657 631.666,166.373 630.667,169.24 629.559,172.174 628.409,174.927 627.259,177.536 625.988,180.238 624.636,182.93 623.262,185.535 621.786,188.162 620.242,190.754 618.653,193.244 616.925,195.722 615.126,198.038 613.175,200.269 611.047,202.402 608.804,204.345 606.437,206.085 603.855,207.647 601.051,208.969 598.269,209.924 595.592,210.524 593.208,210.798 591.087,210.85 588.94,210.724 586.809,210.436 584.643,209.966 582.292,209.232 579.81,208.2 577.322,206.889 574.822,205.27 572.555,203.484 570.408,201.455 568.439,199.262 566.621,196.885 564.961,194.337 563.533,191.741 562.302,189.067 561.233,186.203 560.379,183.281 559.749,180.46 559.285,177.585 558.978,174.658 558.809,171.772 558.759,168.957 558.761,166.088 558.757,163.152 558.713,160.152 558.582,157.175 558.386,154.353 558.051,151.495 557.633,148.721 557.099,145.94 556.429,143.082 555.62,140.243 554.642,137.369 553.558,134.674 552.27,131.908 550.926,129.411 549.392,126.933 547.662,124.52 545.797,122.288 543.733,120.19 541.581,118.341 539.317,116.714 537.058,115.387 534.644,114.255 532.16,113.361 529.699,112.728 527.25,112.328 524.711,112.157 522.21,112.222 519.708,112.537 517.271,113.093 514.924,113.873 512.654,114.858 510.443,116.056 508.35,117.44 506.394,118.982 504.526,120.723 502.672,122.742 500.956,124.911 499.385,127.219 497.9,129.779 496.609,132.424 495.451,135.288 494.485,138.236 493.787,140.847 493.211,143.559 492.705,146.568 492.339,149.424 492.067,152.217 491.87,155.025 491.739,157.953 491.682,160.893 491.669,163.815 491.724,166.711 491.806,169.405 491.922,172.361 492.048,175.21 492.205,178.112 492.332,181.123 492.524,183.971 492.713,186.833 492.913,189.725 493.141,192.62 493.389,195.4 493.633,198.235 493.93,201.069 494.213,203.855 494.518,206.729 494.88,209.67 495.201,212.581 495.546,215.524 495.919,218.464 496.363,221.499 496.777,224.291 497.112,226.812 497.553,229.511 498.018,232.43 498.482,235.52 498.982,238.389 499.41,240.946 499.989,243.872 500.484,246.645 501.082,249.445 501.535,252.335 502.169,255.173 502.772,257.926 503.283,260.623 503.939,263.416 504.571,266.327 505.285,269.165 505.936,271.883 506.594,274.612 507.355,277.491 508.112,280.237 508.869,282.851 509.646,285.665 510.502,288.639 511.226,291.246 512.076,293.661 512.999,296.584 513.996,299.647 514.833,302.202 515.774,304.838 516.769,307.426 517.729,310.161 518.729,312.928 519.732,315.387 520.827,318.174 521.892,320.823 522.989,323.584 524.148,326.196 525.243,328.66 526.391,331.384 527.653,334.122 528.798,336.59 529.934,339.081 531.242,341.767 532.502,344.359 533.744,346.848 535.07,349.491 536.417,352.104 537.735,354.648 539.074,357.208 540.402,359.746 541.748,362.255 543.081,364.807 544.424,367.369 545.713,369.815 547.003,372.334 548.364,375.028 549.63,377.662 550.76,380.259 551.748,382.921 552.562,385.746 553.126,388.753 553.364,391.925 553.264,394.712 552.952,396.973 552.516,398.895 551.977,400.708 551.137,402.873 549.897,405.364 548.314,407.889 546.399,410.362 544.593,412.496 542.975,414.498 541.561,416.451 540.373,418.415 539.396,420.504 538.687,422.672 538.272,424.898 538.168,427.237 538.419,429.718 539.049,432.165 540.029,434.469 541.311,436.564 542.925,438.521 544.679,440.147 546.757,441.626 548.941,442.821 551.393,443.82 554.015,444.59 556.837,445.146 559.822,445.472 562.674,445.576 565.61,445.507 568.509,445.303 571.295,444.995 574.115,444.573 577.03,444.062 579.88,443.5 582.62,442.893 585.267,442.26 588.002,441.552 590.806,440.779 593.514,440.043 596.445,439.192 599.219,438.366 602.049,437.552 604.811,436.725 607.481,435.934 610.067,435.151 612.951,434.306 615.773,433.467 618.605,432.646 621.261,431.923 624.094,431.137 626.998,430.374 629.734,429.673 632.315,429.018 635.079,428.343 637.998,427.664 640.952,427.003 643.676,426.423 646.246,425.821 649.271,425.199 651.924,424.656 654.639,424.083 657.644,423.488 660.368,422.97 663.153,422.41 666.093,421.849 669.001,421.321 671.717,420.857 674.469,420.447 677.458,420.094 680.464,419.848 683.433,419.757 686.384,419.833 689.266,420.089 691.963,420.518 694.787,421.188 697.319,422.001 699.944,423.06 702.434,424.295 704.667,425.596 706.966,427.17 709.03,428.788 710.908,430.47 712.669,432.299 714.456,434.4 716.037,436.55 717.565,438.956 718.924,441.461 720.107,444.05 721.188,446.87 722.088,449.792 722.769,452.549 723.324,455.407 723.728,458.1 724.042,460.792 724.281,463.693 724.489,466.814 724.594,469.616 724.721,472.339 724.771,475.252 724.795,478.255 724.733,481.351 724.611,484.005 724.423,486.949 724.14,489.827 723.779,492.621 723.306,495.506 722.743,498.482 722.068,501.433 721.366,503.956 720.527,506.749 719.496,509.718 718.46,512.322 717.469,514.708 716.111,517.549 714.817,520.012 713.486,522.36 711.887,524.921 710.255,527.349 708.85,529.282 707.051,531.555 705.343,533.616 703.319,535.794 701.271,537.869 699.461,539.577 697.263,541.514 695.014,543.321 693.063,544.847 690.777,546.448 688.316,548.032 686.094,549.452 683.58,550.796 681.171,552.027 678.765,553.137 676.15,554.244 673.816,555.128 670.894,556.099 668.104,556.942 665.863,557.605 662.894,558.209 660.014,558.842 657.708,559.163 654.608,559.515 652.283,559.744 649.198,559.935 646.02,559.99 643.847,560.0 640.67,559.897 637.525,559.728 635.152,559.364 631.806,558.974 629.227,558.752 626.465,557.96 623.157,557.382 621.25,556.694 618.002,555.859 615.087,554.959 612.862,554.18 609.719,553.186 607.514,552.301 604.691,551.364 601.456,550.064 599.309,549.358 596.398,548.12 593.576,547.123 591.012,546.118 588.426,545.111 585.922,544.146 582.9,542.974 580.093,541.869 577.737,540.967 574.916,539.826 572.456,538.903 569.536,537.811 566.996,536.728 564.305,535.732 561.57,534.595 559.129,533.524 556.191,532.521 553.447,531.218 550.924,530.469 548.294,529.242 545.741,528.471 543.195,527.283 540.275,526.467 537.692,525.281 535.1,524.143 532.38,523.466 529.499,521.999 526.773,521.13 524.11,520.065 521.674,519.015 518.787,518.056 516.244,516.846 513.455,515.866 511.614,514.94 508.407,513.604 505.932,512.641 503.325,511.594 500.049,510.35 497.558,509.314 495.036,508.375 491.864,507.122 490.483,506.597 487.192,505.281 484.796,504.346 482.13,503.283 478.465,501.849 476.655,501.137 473.403,499.867 471.961,499.304 468.381,497.907 465.315,496.697 463.302,495.902 459.66,494.483 456.585,493.284 454.99,492.662 452.025,491.507 450.2,490.796 449.287,490.44 443.111,488.421" fill="none" stroke="white" stroke-width="4"
            stroke-linejoin="round" stroke-linecap="round"/>
</svg>
