<?xml version="1.0" encoding="utf-8"?>
<svg xmlns="http://www.w3.org/2000/svg" width="1000" height="600">
  <polyline points="349.777,334.662 360.030,334.267 362.910,334.176 376.389,333.720 380.766,333.599 392.863,333.234 398.853,333.052 409.797,332.718 417.400,332.506 426.962,332.232 436.294,331.959 444.358,331.686 455.417,331.382 461.983,331.170 474.886,330.775 479.840,330.623 494.355,330.228 498.042,330.107 516.704,329.530 518.663,329.469 537.095,328.923 554.030,328.437 555.758,328.376 574.651,327.799 574.651,327.799 593.544,327.253 595.272,327.222 612.667,326.676 616.123,326.585 630.178,326.159 636.975,325.977 649.416,325.582 658.057,325.340 668.886,325.006 679.369,324.702 688.239,324.398 699.760,324.064 706.211,323.821 717.731,323.366 721.878,323.184 733.283,322.698 735.818,322.546 747.223,321.878 748.490,321.787 759.895,320.846 760.010,320.815 770.033,319.570 770.724,319.449 778.673,317.931 779.940,317.627 785.815,315.896 787.313,315.319 791.114,313.558 792.497,312.677 794.570,310.977 795.607,309.823 796.529,308.335 796.990,306.878 797.220,305.602 797.105,303.841 796.990,302.748 796.414,300.622 796.183,299.772 795.262,297.252 795.031,296.645 793.649,293.821 793.534,293.487 791.921,290.116 791.921,290.086 790.078,286.594 789.847,286.290 787.889,282.950 787.313,282.282 785.009,279.215 784.433,278.578 783.050,277.059 781.783,275.845 779.018,273.142 777.751,272.049 774.410,269.195 772.567,267.737 769.457,265.156 767.037,263.304 764.157,261.087 761.047,258.871 758.512,257.018 754.365,254.498 752.522,253.375 746.186,250.247 744.573,249.549 735.587,246.391 734.550,246.057 722.224,243.051 722.224,243.020 707.708,240.500 706.326,240.318 691.695,238.496 688.700,238.192 674.991,236.795 670.383,236.401 658.172,235.247 652.066,234.700 641.352,233.607 633.864,232.848 624.879,231.815 616.008,230.753 608.750,229.720 596.193,227.716 593.544,227.200 580.641,224.498 579.489,224.194 567.163,220.702 567.163,220.672 554.836,215.995 553.914,215.631 546.887,211.653 545.735,210.864 541.357,207.038 540.321,205.793 538.593,202.240 538.247,200.509 538.477,197.321 539.053,195.104 540.321,192.341 541.588,189.699 542.970,187.452 544.813,184.385 546.081,182.594 548.385,179.102 549.306,177.735 551.841,173.788 552.532,172.847 555.527,168.413 555.873,167.928 559.098,162.978 561.978,158.423 562.324,157.968 565.319,152.927 565.319,152.927 567.854,147.856 567.969,147.401 569.582,142.755 569.697,141.814 570.273,138.079 570.273,136.227 570.158,132.886 569.927,130.548 569.697,127.664 569.236,124.840 569.006,122.441 568.545,119.192 568.315,117.218 567.623,113.301 567.508,111.995 567.163,109.050 567.163,108.260 566.241,103.524 566.241,102.977 565.319,97.754 565.319,97.724 564.167,92.410 563.937,91.954 562.670,87.126 562.324,86.215 561.172,81.813 560.711,80.416 559.444,76.529 558.753,74.677 557.716,71.488 556.910,69.424 556.103,67.025 555.066,64.808 554.260,62.986 552.993,60.618 552.302,59.403 551.034,57.672 550.574,57.004 548.500,54.727 548.039,54.180 545.274,51.842 545.044,51.599 541.588,49.292 541.588,49.261 537.556,47.136 537.095,46.984 532.832,45.223 531.911,44.919 527.418,43.522 525.805,43.128 521.312,42.126 518.893,41.700 514.746,41.002 512.787,40.759 507.719,40.273 505.069,40.121 500.576,40.000 497.235,40.030 493.434,40.182 489.632,40.486 486.752,40.789 482.605,41.336 480.992,41.609 476.153,42.581 475.116,42.824 470.163,44.130 469.702,44.251 464.633,45.921 464.633,45.921 459.910,47.804 459.449,47.986 455.763,49.899 454.956,50.324 451.846,52.267 450.118,53.421 448.274,54.848 446.316,56.367 444.934,57.672 442.975,59.555 441.938,60.648 439.865,62.956 439.174,63.836 437.100,66.600 436.639,67.237 434.335,70.456 434.105,70.790 431.455,74.464 431.455,74.464 428.460,78.199 428.114,78.533 424.773,82.055 423.967,82.754 420.396,85.942 419.128,87.005 415.557,89.920 413.599,91.378 410.258,93.928 407.724,95.780 404.728,97.997 401.618,100.244 399.083,102.127 395.282,104.768 393.208,106.317 388.946,109.384 387.448,110.568 382.494,114.091 381.458,114.880 375.928,118.888 375.352,119.283 369.246,123.777 369.131,123.807 362.910,128.392 362.219,128.848 356.574,132.947 355.307,133.828 350.238,137.593 348.395,138.899 343.787,142.269 341.367,144.030 337.796,146.581 334.110,149.192 331.230,151.379 326.967,154.446 324.548,156.207 319.709,159.729 317.866,161.065 312.337,165.073 311.069,165.984 304.848,170.478 304.272,170.934 297.360,175.914 297.360,175.914 290.563,180.954 289.987,181.410 283.651,185.995 282.499,186.906 276.624,191.096 274.781,192.493 269.597,196.228 267.062,198.080 262.454,201.359 259.344,203.698 255.312,206.552 251.510,209.376 248.169,211.744 243.676,215.054 241.027,216.967 235.843,220.793 233.769,222.220 227.894,226.502 226.511,227.473 220.060,232.271 219.254,232.757 212.111,238.071 211.996,238.071 204.623,243.415 204.047,243.901 197.250,248.729 195.983,249.700 189.877,254.073 187.919,255.531 182.504,259.448 179.970,261.391 175.131,264.822 171.906,267.251 167.759,270.197 163.727,273.142 160.270,275.571 156.930,278.061 152.898,280.976 148.866,283.952 145.409,286.381 140.686,289.873 137.921,291.817 132.507,295.794 130.433,297.222 124.328,301.685 123.636,302.171 116.148,307.606 108.660,313.042 106.702,314.530 101.172,318.507 98.753,320.329 94.260,323.518 91.034,325.977 86.772,328.983 82.855,331.838 79.284,334.236 73.063,338.700 71.565,339.702 65.344,344.439 64.653,344.895 59.123,349.510 59.008,349.510 54.170,353.670 53.824,354.004 50.483,357.223 50.023,357.830 47.834,360.350 47.258,361.170 45.875,363.265 45.299,364.237 44.262,365.786 43.686,366.818 42.880,368.002 42.189,369.156 41.613,370.037 40.922,371.221 40.576,371.859 40.115,373.134 40.000,373.559 40.230,374.804 40.230,375.047 41.152,376.322 41.267,376.444 43.571,377.628 43.571,377.628 47.142,378.509 47.603,378.569 51.751,378.994 52.672,379.055 56.819,379.177 58.317,379.207 62.004,379.146 63.040,379.146 67.188,379.055 68.800,379.025 72.832,378.903 75.021,378.873 78.823,378.782 81.818,378.721 85.505,378.630 89.421,378.569 92.071,378.509 97.601,378.478 99.444,378.478 104.859,378.812 105.895,378.934 110.273,380.057 110.619,380.209 113.383,382.092 113.383,382.092 115.227,384.187 115.457,384.369 117.070,386.252 117.531,386.646 119.144,388.347 119.720,388.954 121.332,390.564 122.254,391.383 123.752,392.871 125.019,394.055 126.401,395.422 127.784,396.606 128.820,397.639 130.779,399.400 131.931,400.523 134.465,402.740 135.387,403.620 139.419,406.778 139.419,406.809 144.027,410.088 144.488,410.361 149.326,413.459 150.363,414.036 155.317,416.890 157.045,417.801 161.883,420.352 165.800,422.265 169.026,423.935 173.864,426.182 176.629,427.518 182.620,430.099 184.924,431.131 192.181,434.046 193.794,434.745 202.549,437.994 203.471,438.358 213.839,441.880 213.839,441.911 225.014,445.433 226.166,445.767 236.880,448.895 239.184,449.502 249.437,452.235 253.123,453.146 262.800,455.545 267.869,456.729 276.624,458.763 283.191,460.221 289.642,461.709 298.743,463.743 304.042,464.927 314.641,467.265 318.673,468.176 330.654,470.848 333.534,471.486 347.012,474.492 348.510,474.826 363.486,478.166 363.601,478.197 378.923,481.598 382.955,482.478 394.360,484.999 399.890,486.213 409.912,488.460 416.824,490.009 425.465,491.952 433.874,493.835 441.247,495.474 454.150,498.329 457.145,498.997 471.545,502.185 473.158,502.549 489.171,506.072 489.286,506.102 505.875,509.716 507.258,510.019 522.464,513.238 525.344,513.845 539.399,516.639 543.892,517.519 556.679,519.979 562.900,521.133 574.305,523.228 582.254,524.625 592.276,526.356 602.184,528.026 610.709,529.422 622.344,531.275 629.256,532.338 642.965,534.342 648.380,535.101 664.162,537.196 667.849,537.682 685.820,539.868 687.779,540.111 707.939,542.479 707.939,542.479 729.597,545.000 731.555,545.212 750.218,547.368 753.674,547.733 768.765,549.372 777.981,550.314 788.926,551.437 798.833,552.439 805.169,553.107 817.150,554.322 821.412,554.777 833.163,555.992 835.697,556.265 847.678,557.480 848.946,557.632 861.157,558.816 861.272,558.846 872.562,559.666 873.484,559.696 883.737,560.000 885.695,559.970 895.026,559.727 898.022,559.545 906.086,558.998 909.887,558.634 916.569,557.935 920.947,557.358 926.246,556.599 931.084,555.688 935.001,554.929 939.609,553.806 942.835,552.895 950.553,550.071 952.973,549.069 956.659,546.761 957.235,546.275 959.424,543.573 959.654,543.299 960.000,540.293 960.000,540.293 958.502,537.287 958.272,537.014 955.392,534.342 954.586,533.795 950.784,531.457 949.286,530.698 944.793,528.724 942.259,527.752 937.536,526.082 933.734,524.928 929.011,523.592 923.827,522.287 919.334,521.254 912.537,519.858 908.390,519.129 899.634,517.732 896.294,517.276 887.884,516.214 883.161,515.698 873.138,514.726 869.106,514.422 854.360,513.390 851.134,513.177 834.085,512.114 832.702,512.054 818.648,511.325 817.150,511.234 802.750,510.596 799.755,510.475 786.391,510.019 781.783,509.867 769.802,509.564 763.696,509.412 752.868,509.199 745.034,509.017 735.587,508.835 726.141,508.653 718.192,508.501 707.132,508.258 700.681,508.137 687.779,507.863 682.825,507.772 668.194,507.408 664.853,507.347 648.495,506.801 646.882,506.740 629.256,505.768 629.256,505.768 611.976,504.220 610.478,504.037 595.041,502.094 592.046,501.669 578.567,499.634 574.075,498.936 562.094,496.962 556.334,495.930 546.657,494.108 539.745,492.742 531.565,491.072 523.616,489.341 517.280,487.853 509.101,485.727 504.954,484.422 497.696,481.658 495.277,480.535 489.171,477.013 488.019,476.223 483.411,472.245 483.065,471.851 479.264,467.903 479.264,467.903 475.923,464.350 475.577,464.047 473.504,461.223 473.388,461.192 472.236,458.277 472.121,457.974 472.121,455.484 472.121,454.968 472.467,452.903 472.582,452.204 473.158,450.534 473.388,449.714 473.964,448.561 474.656,447.437 475.462,446.556 476.844,445.342 477.881,444.735 480.416,443.581 481.568,443.216 485.485,442.245 486.637,442.062 492.627,441.334 493.318,441.273 500.922,440.726 502.189,440.635 508.640,440.362 510.714,440.271 516.819,440.210 519.815,440.210 525.460,440.362 529.492,440.484 534.560,440.666 539.629,440.787 544.122,440.878 550.113,440.848 553.684,440.787 560.135,440.362 562.670,440.149 569.351,439.299 570.964,439.087 577.991,437.902 578.798,437.781 585.940,436.293 586.056,436.293 592.852,434.714 593.313,434.562 598.843,432.953 599.765,432.589 603.566,430.949 604.488,430.342 606.907,428.672 607.713,427.761 608.866,426.121 609.442,424.906 610.133,423.418 610.594,421.900 610.939,420.594 611.170,418.742 611.285,417.649 611.054,415.432 610.824,414.613 609.787,412.700 609.096,411.758 607.137,410.027 606.331,409.420 602.875,407.446 602.069,407.052 596.769,405.108 596.309,404.956 590.318,403.347 589.627,403.195 583.406,401.799 582.024,401.525 575.803,400.462 573.614,400.098 567.623,399.309 564.398,398.944 558.522,398.458 554.145,398.155 548.615,397.912 542.855,397.760 537.901,397.730 530.759,397.730 526.612,397.821 518.202,398.003 514.976,398.124 504.954,398.458 502.650,398.549 489.977,399.066 488.941,399.096 478.457,399.552 476.153,399.612 464.748,400.037 460.831,400.159 450.463,400.523 445.164,400.705 435.718,401.039 428.921,401.252 420.626,401.586 412.332,401.950 405.304,402.315 395.282,402.801 389.522,403.135 377.886,403.742 373.509,403.985 360.260,404.653 357.265,404.835 342.174,405.594 340.676,405.685 324.202,406.201 324.202,406.232 307.959,405.959 306.461,405.867 291.139,404.744 288.144,404.440 274.435,402.952 270.173,402.406 259.229,400.796 256.694,400.341 245.980,398.246 242.755,397.456 234.806,395.088 231.119,393.752 224.899,391.292 220.751,389.501 215.798,387.375 210.959,385.219 207.618,383.792 201.167,380.968 198.633,379.875 189.647,375.897 181.122,371.798 180.431,371.434 174.095,367.729 173.058,367.031 168.795,363.903 167.759,362.931 165.109,360.350 164.187,359.166 162.920,357.041 162.459,355.613 162.229,353.913 162.344,352.334 162.575,350.968 163.381,349.146 163.842,348.265 164.763,347.202 165.224,346.747 167.989,344.895 168.680,344.439 172.943,342.708 173.403,342.526 179.740,341.008 181.122,340.795 187.343,339.884 189.532,339.641 195.637,339.065 199.093,338.822 204.393,338.457 206.121,338.366 208.079,338.245 212.802,337.971 217.641,337.668 224.092,337.334 227.779,337.121 235.612,336.787 238.608,336.635 248.169,336.362 250.358,336.301 261.763,336.119 262.915,336.089 276.048,335.907 288.605,335.785 289.757,335.755 303.927,335.542 303.927,335.542 318.557,335.330 319.940,335.330 333.764,335.117 336.529,335.056 349.201,334.631 351.275,334.571" fill="none" stroke="black" stroke-width="2"
            stroke-linejoin="round" stroke-linecap="round"/>
</svg>
