<?xml version="1.0" encoding="utf-8"?>
<svg xmlns="http://www.w3.org/2000/svg" width="1000" height="600">
  <polyline points="729.372,491.949 727.157,492.539 721.323,493.917 716.153,495.230 710.319,496.542 702.861,498.380 701.458,498.642 691.710,501.070 683.513,502.973 680.411,503.761 673.543,505.401 665.346,507.370 654.047,510.126 649.838,511.111 641.641,513.079 634.404,514.851 623.917,517.345 623.548,517.410 605.086,521.873 596.372,523.907 593.270,524.695 582.562,527.254 571.411,529.944 564.617,531.585 553.835,534.210 552.137,534.604 542.241,537.097 540.616,537.491 528.948,540.379 526.290,540.969 509.526,545.169 506.794,545.825 496.308,548.450 483.680,551.469 483.458,551.469 473.415,553.963 472.085,554.225 465.218,555.866 460.934,556.850 458.793,557.309 453.106,558.425 450.448,558.884 444.614,559.672 441.143,560.000 436.269,560.000 425.783,558.688 425.340,558.688 422.607,558.031 421.795,557.703 417.364,555.669 412.490,553.241 409.093,550.813 406.878,548.844 404.441,546.153 403.850,545.432 400.896,540.904 399.567,538.804 394.471,530.076 394.102,529.551 391.222,524.891 386.939,518.657 384.871,515.901 383.985,514.851 380.883,510.848 379.554,509.207 376.231,504.811 372.317,499.758 371.800,499.036 368.107,494.245 363.455,487.945 358.581,481.449 356.292,478.299 354.593,476.133 351.934,472.524 346.470,465.240 345.288,463.534 340.193,456.709 337.017,452.312 336.500,451.721 326.605,438.465 325.866,437.350 321.140,430.984 320.475,430.131 316.340,424.553 314.124,421.666 304.819,409.132 299.650,402.044 294.333,394.695 290.862,389.773 289.607,388.001 287.317,384.654 284.511,380.520 281.114,375.270 277.865,370.283 276.757,368.445 272.031,360.767 271.218,359.389 260.067,340.162 259.403,338.980 255.637,332.418 253.347,328.349 249.729,321.853 247.070,317.193 244.338,312.337 242.861,309.712 238.135,300.984 237.691,300.197 234.073,293.372 231.045,287.794 226.910,280.050 225.728,277.819 221.962,270.732 219.303,265.679 217.309,261.938 212.657,253.079 209.998,247.961 206.380,241.267 205.789,240.151 197.592,225.649 191.684,216.002 190.946,214.821 185.850,207.471 181.715,201.630 178.391,197.168 176.176,194.215 172.779,189.818 166.945,182.600 162.736,177.809 153.431,167.966 147.523,162.191 141.763,156.810 138.809,154.119 132.606,148.344 129.947,145.916 125.295,141.716 123.522,140.076 114.882,132.463 108.236,126.689 97.602,117.501 90.217,111.070 85.712,107.264 75.521,98.667 74.709,98.011 71.607,95.386 68.579,92.827 65.256,90.005 63.853,88.824 57.280,83.311 55.877,82.130 53.514,80.162 51.446,78.324 51.446,78.324 47.311,74.518 47.237,74.452 43.249,69.727 43.175,69.662 41.329,66.906 40.738,64.674 40.665,64.412 40.000,61.524 40.148,57.915 40.222,57.915 41.182,55.159 42.585,53.190 42.880,52.731 44.209,51.484 44.800,50.893 46.203,49.909 48.049,48.925 50.265,47.875 50.634,47.744 52.480,47.087 54.622,46.562 55.951,46.169 57.280,45.906 58.979,45.512 63.336,44.856 63.705,44.791 69.539,44.069 71.976,43.741 74.635,43.478 77.219,43.150 78.179,43.084 79.878,42.887 86.524,42.231 89.478,41.903 93.245,41.641 95.460,41.444 99.522,41.247 100.777,41.116 108.457,40.722 110.008,40.591 117.836,40.328 120.938,40.197 131.498,40.000 131.719,40.000 139.252,40.066 141.541,40.066 146.563,40.131 147.154,40.131 161.185,40.656 161.406,40.722 170.785,41.181 182.822,42.100 185.333,42.297 193.309,42.953 201.284,43.872 215.980,45.578 217.605,45.775 228.904,47.284 232.817,47.875 240.202,48.859 244.338,49.515 245.593,49.712 261.027,52.140 262.357,52.403 273.877,54.306 281.705,55.684 285.767,56.406 293.447,57.784 294.776,58.046 304.450,59.818 309.250,60.671 323.577,63.165 335.983,65.396 346.691,67.299 349.276,67.759 352.451,68.284 364.119,70.384 372.686,71.827 379.480,72.812 384.575,73.534 393.806,74.780 403.480,76.027 408.650,76.683 416.847,77.668 430.435,79.374 430.804,79.440 443.063,80.949 444.023,81.015 455.617,82.327 459.088,82.655 470.461,83.771 473.932,84.033 480.578,84.624 484.123,84.821 498.301,85.608 500.517,85.674 511.299,86.068 514.843,86.133 524.296,86.396 525.256,86.396 538.918,86.855 545.860,87.052 549.109,87.052 561.885,87.380 568.679,87.511 574.660,87.708 579.608,87.774 579.756,87.839 586.993,87.905 590.390,87.971 593.861,88.168 596.889,88.299 602.427,88.824 603.904,89.021 607.597,89.808 609.886,90.464 611.437,90.989 614.538,92.171 616.754,93.155 620.446,95.255 621.037,95.714 625.025,99.258 625.985,100.242 627.979,103.655 628.348,104.770 629.160,107.461 629.456,108.773 629.825,112.120 629.973,114.154 629.825,117.436 629.677,118.682 629.234,120.454 628.643,122.489 628.200,123.539 626.723,126.754 625.985,128.198 621.776,135.023 620.963,136.270 613.652,144.997 613.578,145.129 611.437,147.491 608.557,150.379 607.671,151.297 604.790,153.988 603.683,155.038 599.030,158.910 598.366,159.435 593.787,162.781 591.202,164.553 586.845,167.244 582.119,169.934 574.291,173.872 566.611,177.284 566.463,177.415 560.555,179.844 550.955,182.731 550.217,182.862 542.315,184.831 531.533,187.259 528.284,187.981 519.422,189.162 514.770,189.621 509.969,189.884 498.892,190.081 493.206,189.818 491.212,189.687 491.064,189.687 476.073,188.440 471.125,187.915 464.258,187.193 460.934,186.668 455.987,186.012 444.835,184.372 442.472,183.978 430.287,181.943 426.890,181.353 421.056,180.369 416.404,179.581 413.450,179.122 404.810,177.678 399.714,176.956 390.188,175.578 385.388,175.053 374.089,173.937 370.766,173.806 364.932,173.544 361.018,173.544 356.218,173.741 346.839,174.791 343.590,175.119 336.648,176.037 328.968,178.859 323.134,181.747 315.823,185.553 312.795,187.390 310.063,190.212 309.989,190.343 304.155,196.577 303.269,197.824 302.161,199.465 300.167,203.402 297.213,210.555 296.401,212.590 295.219,216.921 294.776,223.680 294.776,225.189 294.628,230.045 294.702,230.899 295.219,237.133 295.441,238.314 298.025,249.798 298.468,251.636 304.819,266.795 304.967,267.057 307.109,270.994 311.392,277.491 319.072,288.713 319.294,288.975 323.651,295.275 326.088,298.753 334.802,311.222 335.614,312.337 342.039,320.934 344.254,323.690 349.054,329.399 352.156,332.812 354.815,335.437 364.710,344.033 366.335,345.346 371.357,348.561 371.726,348.758 380.514,353.221 381.548,353.680 388.120,355.780 395.505,356.961 401.856,357.224 402.373,357.158 408.945,356.502 417.438,354.533 422.607,353.024 428.146,351.121 435.457,347.052 436.417,346.593 437.672,345.805 443.358,342.065 451.260,336.093 453.476,334.321 463.741,326.118 465.144,325.068 468.615,322.181 474.227,317.653 482.646,310.762 484.270,309.515 488.406,306.365 489.292,305.644 497.711,299.606 500.443,297.834 507.606,293.503 508.566,292.978 517.945,288.188 522.819,286.482 535.742,282.741 538.401,282.085 544.235,280.838 549.404,280.379 555.534,279.919 569.860,278.738 573.257,278.541 580.199,278.476 580.790,278.410 597.332,278.016 602.058,277.951 606.194,277.819 621.849,277.622 622.145,277.622 634.256,277.426 636.250,277.426 650.207,277.294 663.943,277.229 673.248,277.163 675.611,277.163 681.076,277.163 694.294,277.032 696.731,277.032 716.227,276.769 725.384,276.704 730.775,276.572 731.735,276.507 747.317,276.179 753.299,276.047 763.342,275.851 771.392,275.588 771.613,275.588 781.140,275.260 783.872,275.194 793.472,274.932 798.125,274.801 810.384,274.472 810.679,274.472 820.427,274.210 822.642,274.144 832.834,274.013 834.975,273.948 844.428,273.948 846.495,273.948 854.619,274.144 862.890,274.538 871.825,275.129 873.745,275.260 884.010,276.704 890.066,278.016 891.764,278.344 897.303,279.919 899.961,280.838 911.777,286.547 915.322,288.582 919.679,291.666 923.445,295.275 926.694,298.556 928.319,300.262 931.864,304.462 936.959,312.731 938.215,314.831 940.726,319.818 941.390,324.281 941.538,324.740 944.197,334.321 944.418,334.977 947.003,344.755 947.815,347.708 949.514,354.664 949.809,355.517 954.683,369.889 955.717,372.908 956.898,376.123 957.341,377.633 958.006,380.126 959.778,389.182 959.926,392.267 960.000,392.923 959.262,401.651 959.188,401.848 958.154,407.622 957.858,408.607 954.092,418.385 952.320,421.797 950.991,423.766 944.713,430.262 944.566,430.328 940.504,433.281 938.067,434.791 933.267,437.153 925.882,440.565 922.190,442.140 921.230,442.468 913.771,445.422 913.033,445.750 897.155,451.262 896.491,451.524 889.401,453.493 888.663,453.756 882.016,455.528 881.721,455.528 865.917,459.465 863.111,460.187 859.493,460.974 855.579,461.893 851.517,462.746 841.252,465.174 840.957,465.174 828.403,468.193 823.603,469.374 815.848,471.212 801.227,474.821 801.005,474.821 795.614,476.133 788.820,477.774 784.463,478.758 779.294,480.071 770.875,482.105 769.398,482.433 757.361,485.255 756.548,485.517 744.363,488.470 743.034,488.733 733.655,491.030 730.628,491.752" fill="none" stroke="white" stroke-width="4"
            stroke-linejoin="round" stroke-linecap="round"/>
</svg>
