<?xml version="1.0" encoding="utf-8"?>
<svg xmlns="http://www.w3.org/2000/svg" width="1000" height="600">
  <polyline points="839.872,190.656 844.599,189.077 844.688,189.042 852.625,186.447 856.638,185.150 860.741,183.782 876.258,178.662 876.793,178.452 880.182,177.329 881.565,176.909 889.591,174.243 894.407,172.700 896.012,172.139 901.185,170.491 906.268,168.843 908.319,168.176 914.250,166.142 915.454,165.722 921.919,163.477 922.499,163.302 927.627,161.619 927.672,161.619 932.398,160.181 933.736,159.830 934.182,159.725 937.705,158.778 938.507,158.533 943.055,157.235 943.724,157.025 947.247,155.762 947.559,155.657 949.833,154.675 951.126,153.974 952.330,153.237 953.713,152.325 954.159,152.010 955.318,151.203 957.280,149.064 958.395,147.310 959.153,145.978 959.643,144.996 959.911,144.014 959.955,143.172 960.000,141.384 960.000,141.173 959.732,139.315 959.108,137.176 958.974,136.755 957.904,134.195 957.637,133.739 957.458,133.318 955.853,130.372 955.140,129.180 953.713,126.655 952.464,124.516 951.884,123.429 947.336,114.977 946.935,114.311 945.240,110.979 944.839,110.278 943.278,107.472 942.565,106.140 941.049,103.510 940.157,101.896 938.908,99.792 936.768,96.040 935.609,94.076 933.290,89.938 933.245,89.938 930.838,85.589 929.188,82.784 928.563,81.592 926.512,77.874 926.468,77.839 924.149,73.736 922.321,70.440 921.830,69.633 920.091,66.617 919.734,65.916 918.174,63.110 917.683,62.304 915.142,57.745 914.116,55.991 911.708,51.643 911.396,51.152 910.237,49.153 909.122,47.154 908.497,46.102 907.784,45.015 907.427,44.559 906.268,43.191 905.733,42.560 905.287,42.139 904.083,41.298 902.255,40.456 899.668,40.000 899.624,40.000 896.725,40.070 895.700,40.175 894.451,40.386 892.445,40.807 889.903,41.403 889.680,41.438 887.807,41.929 885.756,42.525 884.552,42.876 883.705,43.156 880.985,43.963 880.762,44.033 878.488,44.734 877.730,44.980 875.277,45.751 872.646,46.558 870.105,47.294 866.404,48.381 862.881,49.434 861.454,49.819 858.466,50.661 857.218,51.012 850.975,52.835 849.147,53.361 847.230,53.922 844.509,54.729 841.477,55.606 840.140,55.991 834.699,57.605 827.520,59.709 827.431,59.744 821.545,61.497 817.398,62.690 815.704,63.180 815.169,63.321 804.556,66.512 804.021,66.652 799.116,68.125 796.574,68.862 789.529,70.931 789.484,70.966 782.751,72.930 781.146,73.385 771.291,76.331 767.100,77.559 765.316,78.120 761.303,79.417 760.277,79.698 752.697,82.118 751.493,82.538 743.868,85.098 733.656,88.640 732.943,88.851 727.057,90.850 724.025,91.902 715.775,94.707 712.922,95.654 708.373,97.232 697.582,100.879 696.691,101.160 693.168,102.352 691.295,102.984 685.855,104.842 680.281,106.736 674.217,108.770 673.503,109.050 667.305,111.120 661.107,113.224 661.062,113.259 654.820,115.363 652.189,116.275 644.519,118.905 642.245,119.676 639.213,120.728 631.722,123.359 631.632,123.394 618.969,127.847 612.057,130.302 608.311,131.565 601.890,133.809 600.062,134.475 591.768,137.351 586.863,139.104 585.659,139.490 581.958,140.788 579.283,141.699 576.786,142.611 574.066,143.558 571.345,144.505 569.651,145.066 564.434,146.925 563.052,147.451 560.822,148.222 560.510,148.363 557.478,149.485 556.898,149.660 554.044,150.747 553.509,150.993 547.445,154.465 547.133,154.745 545.750,156.253 545.304,157.340 544.858,159.094 544.948,160.602 545.304,161.689 545.483,162.074 546.330,164.038 546.419,164.214 547.222,165.616 547.534,166.178 548.203,167.230 548.827,168.247 550.343,170.561 550.655,170.982 551.101,171.683 553.286,175.295 553.910,176.488 554.668,177.890 555.516,179.960 556.006,181.082 557.076,183.642 557.924,185.676 558.771,187.955 559.172,188.902 560.109,191.006 561.758,194.268 562.739,196.267 564.166,198.862 565.816,201.667 565.995,202.018 568.046,205.419 569.071,207.173 569.874,208.470 570.900,210.119 571.390,211.066 572.416,212.819 572.951,213.836 573.753,215.309 574.556,216.887 575.403,218.640 575.537,218.851 576.161,220.289 576.429,220.885 576.830,222.077 577.098,222.849 577.499,224.322 577.544,224.672 577.722,226.075 577.767,226.426 577.722,227.758 577.677,227.934 577.187,229.652 577.098,229.827 575.359,232.177 575.359,232.177 573.486,233.580 573.486,233.580 569.473,235.544 569.250,235.649 567.020,236.455 566.842,236.525 564.523,237.297 563.943,237.507 562.204,238.033 561.357,238.314 558.592,239.121 556.363,239.752 552.394,240.874 552.394,240.874 549.630,241.716 548.114,242.172 546.642,242.663 543.030,243.890 541.113,244.556 533.577,247.186 533.131,247.362 530.857,248.133 529.608,248.554 522.741,250.763 522.697,250.763 517.480,252.517 516.989,252.692 513.199,254.060 513.154,254.060 506.377,256.760 502.274,258.549 501.026,259.145 497.726,260.688 493.178,262.827 491.171,263.774 488.629,264.966 485.196,266.615 483.724,267.281 480.068,268.999 475.207,271.138 473.112,272.015 471.150,272.857 469.277,273.628 466.289,274.961 463.658,276.188 460.671,277.661 458.887,278.608 455.810,280.607 455.587,280.747 453.447,282.360 452.421,283.272 450.727,285.096 450.237,285.797 448.765,288.988 448.408,289.900 448.542,290.742 448.720,291.408 449.701,294.845 450.370,296.002 450.638,296.458 451.797,298.247 452.466,299.299 453.135,300.456 454.071,302.244 454.250,302.665 454.696,304.559 454.696,304.769 454.696,306.277 454.205,307.189 454.071,307.435 453.402,308.417 453.224,308.627 450.905,310.626 450.415,311.012 449.880,311.327 449.434,311.573 448.810,311.923 446.580,313.221 445.644,313.712 444.038,314.518 443.325,314.869 441.853,315.571 441.363,315.781 439.535,316.693 439.223,316.833 433.738,319.639 433.114,319.989 431.598,320.796 428.565,322.619 428.075,322.935 422.769,326.267 420.494,327.704 418.978,328.651 416.927,329.914 414.207,331.562 413.137,332.193 410.372,333.841 406.047,336.366 402.703,338.330 400.830,339.452 399.002,340.540 397.263,341.592 393.428,343.871 388.478,346.817 385.892,348.395 384.688,349.096 381.745,350.850 381.344,351.095 370.731,357.443 370.151,357.793 364.265,361.335 361.144,363.229 359.048,364.492 353.831,367.578 352.404,368.419 348.792,370.558 345.492,372.487 345.091,372.698 344.333,373.153 339.294,376.169 337.154,377.502 334.612,379.080 333.096,380.062 332.873,380.202 329.484,382.412 328.637,382.938 325.828,384.586 324.758,385.182 321.503,386.795 321.190,386.936 320.254,387.286 319.362,387.567 318.961,387.672 317.668,387.988 317.445,387.988 315.037,388.093 314.368,388.023 312.272,387.146 311.648,386.725 310.845,386.024 309.597,384.726 309.508,384.621 308.705,383.464 307.902,382.131 307.590,381.640 307.055,380.623 306.520,379.571 306.208,378.975 305.539,377.502 305.227,376.731 304.558,375.258 304.201,374.276 303.086,371.610 302.730,370.593 301.838,368.244 301.481,367.157 300.679,365.158 300.188,363.720 299.698,362.493 298.761,359.897 297.334,356.285 297.022,355.444 295.595,351.691 294.837,349.868 293.722,346.992 293.455,346.361 292.697,344.257 292.429,343.661 291.002,339.943 291.002,339.908 290.244,337.839 289.531,335.946 289.174,334.929 288.862,334.227 288.282,332.544 288.059,332.088 286.945,329.072 286.632,328.371 286.231,327.213 285.741,326.126 285.295,325.250 283.734,322.690 283.377,322.234 281.415,321.392 280.880,321.252 277.135,319.919 276.198,319.603 274.771,319.077 273.344,318.692 272.898,318.551 268.662,317.429 268.662,317.394 265.719,316.868 265.363,316.798 262.732,316.482 259.878,316.237 258.629,316.132 257.024,316.062 252.922,315.816 252.654,315.781 250.514,315.606 250.023,315.535 248.284,315.360 247.080,315.150 245.698,314.904 245.252,314.764 243.245,314.238 240.704,313.256 240.481,313.151 238.117,311.643 236.958,310.731 236.512,309.995 236.289,309.574 235.576,307.645 235.264,306.523 235.085,304.594 235.085,302.560 234.862,300.351 234.862,300.316 233.569,297.580 233.346,297.230 231.786,296.318 231.161,296.072 228.664,295.441 228.397,295.406 225.944,295.161 225.409,295.125 223.135,295.090 221.663,295.125 220.058,295.196 217.829,295.371 217.516,295.371 214.663,295.651 214.083,295.722 210.248,296.213 207.974,296.633 206.190,296.984 203.693,297.580 199.011,298.948 190.940,301.578 188.666,302.350 185.679,303.507 185.322,303.647 182.334,304.664 180.595,305.260 178.009,306.137 177.117,306.418 173.951,307.435 172.524,307.890 168.779,309.118 167.485,309.574 164.498,310.626 162.358,311.432 155.223,314.238 155.178,314.238 151.834,315.606 148.891,316.833 148.891,316.833 145.012,318.411 141.266,319.919 139.705,320.515 137.654,321.287 134.444,322.549 133.418,322.935 128.112,325.004 125.213,326.196 118.658,328.967 116.250,329.984 113.174,331.316 111.881,331.913 110.052,332.754 105.415,334.893 104.300,335.419 99.306,337.699 97.611,338.470 94.847,339.733 89.719,341.942 85.215,343.871 82.941,344.818 79.106,346.536 77.456,347.343 76.252,348.044 67.914,355.339 66.755,356.566 65.149,358.670 63.990,360.985 63.990,361.020 62.073,364.947 61.270,366.631 57.301,376.450 56.766,377.853 53.377,386.936 53.199,387.497 51.192,392.582 49.899,395.562 49.542,396.404 47.313,401.664 47.090,402.226 44.370,409.204 44.370,409.239 42.898,413.588 41.873,417.480 41.516,418.918 40.000,436.593 40.089,438.066 40.535,444.659 40.981,449.533 41.694,457.459 41.784,458.336 42.319,463.000 42.319,463.385 42.854,468.365 42.898,468.400 43.255,472.433 43.389,473.976 43.434,476.151 43.344,479.938 43.255,481.411 43.121,482.814 42.809,485.584 42.765,486.180 42.453,488.670 42.274,490.459 42.096,491.651 41.917,493.685 41.873,493.930 41.694,498.033 41.650,498.244 41.650,500.138 41.650,500.278 41.828,501.470 41.873,501.996 42.274,503.434 42.720,504.451 43.032,504.837 43.746,505.714 44.771,506.485 44.860,506.590 45.797,507.151 47.135,507.748 47.937,508.028 50.211,508.905 51.950,509.536 52.753,509.887 53.556,510.202 55.607,511.044 55.919,511.149 58.238,512.061 58.416,512.166 60.824,513.183 62.474,513.849 64.035,514.516 70.946,517.321 71.749,517.602 73.800,518.443 76.431,519.496 81.559,521.494 81.603,521.494 85.706,523.108 85.750,523.108 89.630,524.616 93.152,526.018 93.687,526.194 98.994,528.403 99.038,528.403 103.453,530.262 105.459,531.173 110.587,533.418 112.193,534.189 115.225,535.592 117.856,536.820 120.531,538.082 122.761,539.064 128.691,541.729 131.188,542.781 133.463,543.693 133.507,543.693 140.419,546.499 142.960,547.516 144.922,548.392 148.401,549.900 154.376,552.671 154.822,552.846 157.586,554.108 158.879,554.705 162.001,556.002 162.045,556.002 167.575,558.001 167.931,558.106 170.473,558.808 171.588,559.053 175.467,559.649 177.162,559.895 179.837,560.000 181.844,559.719 182.379,559.614 184.876,558.913 184.921,558.878 186.927,557.931 188.443,556.879 188.800,556.598 190.004,555.511 190.851,554.670 192.010,553.442 193.036,552.074 195.712,548.112 195.756,548.077 196.960,546.218 197.228,545.797 198.877,543.202 199.323,542.536 200.929,539.976 201.642,538.818 202.712,537.170 204.630,534.119 205.432,532.857 207.171,529.946 207.439,529.560 208.821,527.246 210.070,525.212 210.382,524.756 214.707,517.953 215.109,517.286 216.446,515.217 217.249,514.130 219.657,510.904 221.440,508.624 222.511,507.257 226.435,502.487 228.798,499.927 230.894,497.753 234.104,494.562 235.174,493.545 242.264,487.723 242.755,487.373 247.036,484.251 250.335,481.937 251.406,481.200 253.189,479.973 256.712,477.623 256.801,477.553 261.037,474.678 264.604,472.223 268.306,469.593 273.032,466.051 274.370,464.964 281.103,459.212 282.084,458.371 285.919,455.214 287.703,453.917 292.073,450.796 298.137,446.307 302.105,442.800 304.157,440.170 307.412,435.295 307.635,434.875 309.285,431.824 310.266,429.684 313.387,421.408 313.788,420.286 314.725,417.516 315.215,415.411 315.750,413.483 316.954,408.924 316.999,408.854 318.203,404.610 318.247,404.540 320.120,399.315 320.299,398.894 323.019,394.019 325.560,390.758 329.083,387.286 329.484,386.936 331.000,385.708 335.192,382.657 339.829,379.746 341.256,378.905 348.792,374.661 352.315,372.698 355.882,370.629 356.997,369.997 367.297,363.755 367.387,363.685 372.247,360.739 376.974,357.864 378.267,357.092 382.191,354.742 388.835,350.780 389.816,350.183 398.244,345.098 402.480,342.574 407.162,339.803 408.366,339.102 412.557,336.577 417.908,333.385 419.157,332.649 428.744,326.757 429.234,326.442 435.254,322.935 438.108,321.392 443.414,318.727 446.313,317.394 454.696,314.063 454.829,313.992 466.735,310.030 470.570,308.802 478.864,306.277 478.953,306.242 482.654,305.085 487.069,303.682 490.993,302.455 494.025,301.473 500.936,299.299 506.867,297.405 509.498,296.563 518.594,293.653 523.054,292.215 525.907,291.303 536.119,287.936 539.285,286.919 540.533,286.499 542.986,285.727 548.114,284.044 559.529,280.291 561.625,279.625 563.765,278.924 565.950,278.222 570.052,276.890 573.887,275.627 579.149,273.874 584.767,272.015 585.392,271.805 591.991,269.595 594.042,268.929 597.743,267.667 599.794,267.000 603.540,265.738 608.490,264.125 615.000,261.950 617.230,261.214 625.211,258.549 625.969,258.303 632.703,256.059 643.717,252.412 644.385,252.201 649.736,250.413 654.864,248.694 657.718,247.748 661.731,246.415 667.171,244.591 670.382,243.539 675.599,241.786 675.688,241.751 682.332,239.541 683.180,239.261 689.199,237.227 692.098,236.280 699.634,233.825 699.723,233.790 705.698,231.861 712.208,229.827 720.993,227.232 721.840,226.952 732.051,224.041 734.905,223.199 739.632,221.797 742.619,220.920 745.696,220.008 751.270,218.360 758.761,216.151 762.418,215.063 769.552,212.959 778.426,210.399 783.465,208.926 786.541,208.015 787.389,207.734 794.166,205.700 796.976,204.788 809.238,200.755 810.888,200.229 817.487,197.950 822.526,196.302 835.993,191.883 836.884,191.602 846.472,188.411" fill="none" stroke="white" stroke-width="4"
            stroke-linejoin="round" stroke-linecap="round"/>
</svg>
