<?xml version="1.0" encoding="utf-8"?>
<svg xmlns="http://www.w3.org/2000/svg" width="1000" height="600">
  <polyline points="111.104,405.339 124.594,424.028 137.241,440.969 145.954,452.612 155.509,465.155 162.254,474.150 166.330,479.546 180.241,497.586 188.532,507.980 195.980,516.775 199.633,520.823 210.454,531.616 218.744,538.462 229.424,545.608 233.359,547.757 244.038,552.654 254.016,555.902 267.787,558.751 277.623,559.700 285.774,560.000 296.313,559.600 309.803,557.801 312.051,557.401 319.077,555.752 331.724,552.155 339.453,549.656 351.117,546.008 363.342,542.610 373.741,540.261 384.701,538.562 391.728,537.913 415.757,538.512 428.825,540.111 445.688,542.660 452.995,543.809 473.793,546.708 492.060,548.906 518.057,550.955 547.286,551.805 576.655,550.955 592.253,550.056 623.168,546.458 638.625,543.959 666.308,537.963 690.338,530.917 701.439,526.919 723.782,516.875 734.602,510.728 744.860,503.633 757.086,492.639 763.550,485.093 773.808,471.151 783.223,457.559 789.265,449.164 794.746,441.418 801.210,432.024 810.765,417.782 816.105,409.787 828.190,391.997 835.778,381.103 847.020,365.412 860.229,347.073 865.709,339.527 873.157,329.433 878.075,322.687 891.285,304.797 897.889,295.952 905.618,285.658 913.909,274.465 919.811,266.669 926.275,258.024 936.392,245.182 943.559,236.137 948.899,229.391 955.925,219.646 960.000,208.203 959.719,203.106 958.173,198.159 953.817,191.912 948.618,187.515 940.608,183.317 929.085,179.420 911.941,175.472 898.732,173.323 886.788,171.924 862.337,169.825 844.210,168.626 823.553,167.876 808.517,167.726 794.886,167.676 777.461,167.876 752.589,168.926 736.569,170.075 720.831,171.874 705.233,174.273 688.511,177.471 666.027,182.968 640.312,190.713 608.413,203.606 601.106,207.204 589.161,213.300 568.786,223.644 551.361,232.339 530.002,243.083 514.122,251.078 502.881,256.825 484.332,266.669 469.436,274.565 451.871,283.809 431.776,294.453 411.401,305.197 393.273,314.442 378.378,320.988 359.829,327.334 346.339,330.832 322.309,335.130 294.205,337.678 278.748,338.328 256.967,338.328 239.120,337.428 220.290,335.230 204.973,332.631 193.591,330.233 184.316,327.734 172.091,323.636 153.823,315.491 139.068,305.597 133.447,300.300 126.702,291.755 123.611,286.858 120.660,281.211 117.006,272.616 116.585,270.967 115.320,263.821 116.023,258.074 117.709,253.577 120.660,249.179 125.719,244.332 132.042,240.634 139.209,238.286 147.921,236.886 160.568,236.437 166.470,236.637 173.777,237.336 178.977,238.036 187.127,239.335 199.774,241.634 210.594,243.682 220.852,245.481 231.813,247.081 246.427,248.530 260.761,248.929 264.274,248.879 273.548,248.330 287.179,246.231 293.081,244.682 297.156,243.333 305.025,239.385 308.538,236.087 310.646,231.739 310.787,228.741 308.117,223.144 301.512,216.998 298.421,214.799 288.022,208.953 278.607,204.605 263.852,198.758 255.842,195.810 234.202,187.515 222.820,182.618 210.173,176.571 201.741,172.124 186.143,162.130 177.150,154.434 172.513,149.387 170.686,146.738 168.578,142.491 168.016,139.243 168.297,135.745 171.107,129.548 176.026,125.551 180.663,123.502 189.937,121.353 198.228,120.803 205.816,120.903 213.264,121.553 223.803,123.152 231.532,124.851 237.856,126.500 246.849,129.398 252.329,131.347 260.761,134.695 266.944,137.394 273.267,140.342 281.839,144.490 292.519,149.287 309.522,156.183 318.656,159.431 331.443,162.879 353.505,166.677 362.639,167.676 383.015,169.175 408.871,170.025 437.116,169.425 442.175,169.076 470.842,166.077 492.060,162.529 505.972,159.431 521.992,154.834 539.276,148.437 552.204,142.341 570.191,132.247 580.590,125.950 588.178,121.353 597.593,115.756 618.952,102.864 626.540,98.017 640.452,88.972 648.040,83.225 650.991,80.127 651.834,79.077 653.521,75.779 652.115,67.234 650.570,65.685 646.776,62.787 639.890,59.039 628.789,55.441 618.952,53.042 607.991,50.944 596.890,49.145 574.969,46.196 566.678,45.147 547.567,43.048 535.341,41.999 507.658,40.450 488.828,40.050 469.436,40.000 452.995,40.350 426.577,41.499 403.812,42.948 377.113,45.197 350.133,47.945 328.352,50.594 308.538,53.442 281.558,57.890 248.254,64.636 231.251,68.683 221.414,71.332 188.532,81.776 173.918,87.373 152.137,97.367 146.094,100.565 135.836,106.512 121.644,116.156 113.353,122.602 105.062,129.948 98.176,136.594 87.497,148.837 79.065,160.630 73.585,169.425 63.608,185.566 59.673,192.112 55.598,199.508 49.696,212.101 47.307,217.997 43.091,232.589 41.124,243.133 40.000,258.074 40.422,268.668 41.827,279.262 43.935,289.006 46.183,296.102 50.399,307.696 51.663,310.344 57.003,321.887 62.484,332.531 68.667,343.225 72.601,349.421 78.363,358.316 83.702,366.312 91.712,377.905 96.631,385.001 102.392,392.996" fill="none" stroke="white" stroke-width="4"
            stroke-linejoin="round" stroke-linecap="round"/>
</svg>
