<?xml version="1.0" encoding="utf-8"?>
<svg xmlns="http://www.w3.org/2000/svg" width="1000" height="600">
  <polyline points="816.785,236.352 811.335,240.300 803.496,246.133 798.620,249.723 790.589,255.646 785.618,259.325 774.910,267.177 768.600,271.889 760.856,277.587 753.782,282.837 745.942,288.625 734.756,296.882 725.483,303.747 717.452,309.670 710.760,314.605 704.737,319.092 699.287,323.131 693.168,327.662 683.704,334.707 678.063,338.745 665.634,347.719 657.699,353.328 642.498,364.097 632.269,371.321 627.106,374.956 619.744,380.116 610.758,386.397 604.065,391.109 596.513,396.403 587.430,402.775 580.547,407.531 569.839,415.025 559.036,422.563 551.292,427.992 545.077,432.300 536.282,438.447 531.310,441.992 514.006,454.780 509.608,458.190 501.004,465.100 494.981,469.991 483.413,479.548 478.919,483.362 470.410,490.586 465.439,494.804 458.747,500.368 450.907,506.694 446.796,509.790 438.096,516.027 434.081,518.719 429.587,521.501 422.800,525.405 417.924,527.963 412.092,530.700 408.172,532.360 404.539,533.751 399.281,535.456 387.808,538.193 383.124,538.866 379.873,539.135 365.724,539.091 358.362,538.328 353.678,537.565 350.618,537.026 344.500,535.770 336.278,534.020 331.019,532.854 323.467,531.373 318.591,530.565 314.193,529.982 307.405,529.443 302.816,529.309 294.307,529.668 283.504,531.014 272.892,533.033 266.009,534.693 258.360,536.847 251.668,538.866 244.402,541.289 238.666,543.219 227.862,546.718 215.051,550.532 206.925,552.686 198.129,554.795 187.900,556.814 172.794,558.878 163.903,559.596 156.446,559.955 150.327,560.000 137.421,559.686 129.390,559.103 119.256,557.981 113.615,557.173 106.254,555.872 93.156,552.911 89.619,551.968 80.058,548.917 70.498,545.103 66.578,543.219 62.849,541.199 58.069,538.283 51.377,533.033 48.604,530.206 44.589,524.912 42.964,521.771 41.434,517.867 40.096,511.226 40.000,507.143 40.191,503.688 41.338,497.496 42.868,492.336 45.258,486.323 48.413,479.862 50.421,476.183 55.010,469.183 60.173,462.542 64.188,458.055 70.689,451.459 77.094,445.716 81.397,442.036 82.831,440.825 94.590,431.357 100.422,426.736 105.776,422.563 109.600,419.556 117.153,413.544 126.044,406.544 132.258,401.653 146.121,391.243 153.673,385.859 158.358,382.673 160.270,381.372 166.198,377.289 173.177,372.622 178.531,369.212 182.355,366.969 191.055,362.437 198.512,359.296 204.344,357.322 211.896,355.392 217.442,354.315 224.229,353.463 229.010,353.149 235.415,353.014 240.578,353.194 245.167,353.553 253.006,354.629 260.463,356.200 265.722,357.636 268.972,358.757 271.936,359.969 275.665,361.719 281.783,365.174 286.372,368.315 288.858,370.334 290.866,372.218 294.881,377.020 296.697,379.936 298.036,382.987 298.801,385.321 299.374,389.808 299.279,392.590 298.514,396.314 295.837,402.416 292.969,406.589 288.284,411.749 284.365,415.204 275.665,421.441 269.163,425.838 263.810,429.338 258.743,432.569 249.469,438.537 239.335,445.088 231.113,450.337 226.237,453.433 221.744,456.395 216.007,460.119 211.610,463.036 208.359,465.234 202.814,469.138 198.512,472.413 194.497,475.779 190.768,479.458 187.231,484.080 186.179,485.785 185.127,488.881 184.840,490.586 185.032,492.650 186.275,495.566 187.900,497.586 190.194,499.515 192.489,500.951 198.034,503.239 202.145,504.361 205.587,505.034 214.956,505.976 219.067,506.066 227.480,505.707 237.805,504.541 244.784,503.329 248.800,502.521 254.918,501.175 264.001,498.977 270.693,497.272 301.191,489.688 310.847,487.490 321.746,485.246 332.262,483.137 341.536,481.343 347.941,480.041 355.112,478.561 363.142,476.766 379.204,472.548 389.529,469.407 399.568,465.907 410.658,461.465 426.815,453.703 432.742,450.382 439.722,446.209 452.915,437.505 455.879,435.530 464.292,429.787 468.976,426.556 478.059,419.871 480.831,417.358 484.464,413.364 486.281,410.358 487.046,407.801 487.141,406.006 486.376,402.461 485.038,399.948 481.118,395.910 477.772,393.666 470.984,390.481 466.682,388.820 463.049,387.564 457.026,385.590 454.636,384.827 445.171,381.417 437.523,378.052 431.404,374.731 423.947,369.661 420.505,366.296 418.019,363.379 411.423,354.854 407.025,349.245 404.444,346.014 400.619,341.303 397.656,337.624 394.692,334.213 390.007,329.278 383.602,323.310 382.741,322.547 375.189,315.637 370.791,311.644 366.584,307.785 361.900,303.477 359.318,301.054 354.251,295.535 350.714,289.523 350.427,288.536 349.662,284.138 349.662,281.805 350.140,278.081 351.383,273.100 351.861,271.799 353.773,267.357 356.163,263.364 357.884,260.985 360.561,257.755 364.959,253.582 369.166,250.306 377.005,245.595 381.977,243.307 389.816,240.345 400.524,237.294 410.658,234.871 423.278,232.134 430.448,230.563 445.362,227.333 465.535,222.980 474.426,221.051 489.149,217.820 500.048,215.442 510.373,213.199 517.257,211.718 525.096,209.968 537.620,207.231 547.563,205.077 563.242,201.622 573.472,199.289 582.172,197.225 589.629,195.340 605.691,191.212 620.031,187.533 629.783,185.065 638.674,182.822 659.611,177.527 670.797,174.700 679.975,172.367 695.176,168.508 707.987,165.277 721.945,161.912 730.072,160.072 741.640,157.649 752.348,155.541 759.135,154.239 766.401,152.848 775.293,151.188 784.757,149.349 789.538,148.361 800.341,145.849 805.695,144.323 813.343,141.496 817.072,139.612 820.800,136.875 823.190,133.868 823.860,132.298 824.051,128.843 822.999,125.657 820.991,122.651 818.123,119.779 815.446,117.760 813.247,116.324 810.762,114.933 806.364,112.869 803.591,111.792 801.010,110.940 792.119,108.741 781.411,107.215 777.205,106.857 770.226,106.453 759.422,106.318 749.479,106.722 748.332,106.812 738.198,107.799 731.410,108.741 726.534,109.638 720.416,110.895 713.723,112.510 703.398,115.472 693.551,118.657 685.425,121.350 679.019,123.324 671.944,125.164 665.921,126.510 658.751,127.856 649.286,129.202 638.770,130.099 633.320,130.279 625.959,130.279 620.605,130.009 613.721,129.292 604.161,127.272 597.755,124.894 593.453,122.651 590.872,120.856 589.151,119.330 587.239,117.311 585.805,115.247 584.753,112.824 584.084,108.292 585.136,103.402 587.526,99.139 588.195,98.197 592.402,93.710 598.711,88.908 610.375,82.492 615.825,80.114 622.134,77.601 625.767,76.210 632.651,73.653 637.622,71.858 646.800,68.493 660.185,63.198 671.657,58.576 678.732,55.794 684.277,53.641 693.073,50.365 700.052,48.032 704.641,46.551 711.907,44.577 717.548,43.320 726.726,41.705 737.051,40.494 744.890,40.045 746.898,40.000 755.407,40.000 761.717,40.224 775.006,41.256 780.551,41.885 786.000,42.692 801.201,45.474 810.953,47.673 817.167,49.243 820.035,49.961 827.779,52.070 837.053,54.717 842.789,56.422 849.290,58.397 856.556,60.595 867.837,63.961 876.155,66.429 884.377,68.896 894.129,71.858 905.697,75.492 909.617,76.838 921.854,81.281 932.275,85.902 936.195,87.876 944.799,92.947 947.763,95.190 952.830,100.126 955.889,104.299 958.757,110.446 960.000,115.606 960.000,119.196 958.757,124.580 957.419,127.945 955.507,131.311 952.734,134.990 948.814,139.118 946.902,140.958 943.174,144.188 936.673,149.438 933.231,152.086 928.259,155.720 922.141,160.117 916.404,164.245 911.529,167.745 904.550,172.771 896.519,178.604 895.467,179.322 883.517,187.982 876.633,192.962 871.757,196.462 865.161,201.218 856.747,207.276 850.437,211.763 839.347,219.840 828.066,228.051 822.808,231.910" fill="none" stroke="black" stroke-width="2"
            stroke-linejoin="round" stroke-linecap="round"/>
</svg>
