<?xml version="1.0" encoding="utf-8"?>
<svg xmlns="http://www.w3.org/2000/svg" width="1000" height="600">
  <polyline points="446.150,503.813 445.111,503.425 438.710,500.751 434.385,499.026 426.945,495.965 423.485,494.628 414.921,491.135 412.412,490.100 402.810,486.176 401.252,485.529 390.439,481.131 389.920,480.915 378.501,476.215 377.982,476.000 366.996,471.472 365.439,470.825 355.317,466.729 352.636,465.651 343.552,461.899 339.746,460.347 331.701,457.026 326.857,455.043 319.850,452.197 313.881,449.739 307.912,447.281 302.981,445.254 295.974,442.365 289.832,439.864 283.776,437.406 276.510,434.431 271.579,432.404 263.188,428.954 259.295,427.359 249.173,423.219 246.319,422.055 235.505,417.613 233.862,416.967 221.837,412.094 221.318,411.878 208.602,406.876 207.910,406.617 195.712,401.874 193.896,401.184 182.909,396.829 179.882,395.665 170.020,391.741 165.781,390.102 157.044,386.695 151.680,384.626 144.068,381.650 137.493,379.106 132.130,377.036 123.133,373.587 118.981,371.991 108.427,367.895 105.486,366.730 94.153,362.246 92.596,361.599 82.388,357.416 81.956,357.244 72.959,353.406 72.527,353.233 65.173,349.870 64.222,349.395 58.772,346.679 57.474,345.989 53.495,343.747 52.024,342.841 49.170,340.944 47.699,339.823 45.796,338.227 44.412,336.933 43.201,335.640 42.076,334.131 41.384,333.052 40.606,331.328 40.346,330.551 40.000,328.740 40.000,328.180 40.519,326.153 40.606,325.851 42.076,323.825 42.076,323.738 44.412,321.884 44.585,321.798 47.440,320.289 47.959,320.116 50.986,318.952 51.938,318.693 55.139,317.917 56.696,317.658 59.810,317.141 61.973,316.882 64.914,316.580 67.682,316.408 70.364,316.235 73.824,316.149 76.160,316.106 80.485,316.106 82.388,316.106 87.492,316.278 88.963,316.321 95.278,316.580 96.143,316.623 103.583,317.141 103.842,317.141 112.060,317.788 112.579,317.831 119.846,318.564 121.922,318.822 128.929,319.599 132.130,319.987 138.358,320.806 141.819,321.323 146.490,322.013 153.410,323.178 156.611,323.738 164.656,325.291 166.906,325.722 176.075,327.705 177.373,328.007 187.581,330.508 187.927,330.595 198.480,333.570 199.086,333.742 208.861,336.890 210.332,337.408 219.329,340.469 221.751,341.375 229.709,344.307 233.083,345.601 239.917,348.361 244.243,350.129 250.212,352.586 255.488,354.786 260.592,356.942 266.821,359.658 271.060,361.469 278.326,364.617 281.614,366.040 288.015,368.843 292.254,370.697 299.693,373.932 302.981,375.355 311.545,379.063 313.881,380.098 323.569,384.237 324.953,384.798 335.161,388.981 335.507,389.110 345.456,392.862 346.061,393.077 354.712,395.923 356.009,396.355 363.276,398.338 365.266,398.856 371.494,400.192 374.176,400.710 379.453,401.486 382.740,401.874 387.065,402.133 390.439,402.262 393.553,402.176 397.879,401.917 400.647,401.572 405.145,400.839 406.443,400.537 411.460,399.157 412.066,398.899 416.737,396.958 416.824,396.872 420.803,394.500 421.063,394.371 423.831,391.870 424.263,391.482 426.080,389.110 426.512,388.463 427.551,386.135 427.897,385.143 428.243,382.944 428.329,381.607 427.983,379.624 427.551,377.856 426.858,376.088 425.907,374.018 425.042,372.595 423.312,370.137 422.360,368.973 419.851,366.170 418.986,365.350 415.699,362.159 415.094,361.642 411.028,357.977 410.768,357.804 406.010,353.794 405.837,353.621 401.425,349.740 401.166,349.568 396.581,344.954 396.408,344.738 392.602,340.038 392.083,339.262 389.401,334.820 389.142,334.260 388.709,333.096 388.190,331.673 386.719,327.490 386.287,325.075 386.027,321.841 386.287,318.995 386.806,316.149 387.930,312.699 388.969,310.414 391.564,306.533 392.861,304.808 396.927,300.496 398.138,299.245 403.415,294.459 404.107,293.726 409.990,288.422 410.163,288.206 416.737,282.773 417.170,282.514 422.879,277.771 424.523,276.520 429.627,272.165 431.789,270.268 436.028,266.344 438.623,264.015 442.516,260.436 446.669,256.685 450.648,253.019 454.800,249.354 457.309,246.982 461.980,242.843 464.056,240.902 469.333,236.073 470.804,234.693 476.859,229.303 477.724,228.483 484.299,222.489 484.559,222.231 491.566,215.935 491.998,215.633 498.659,209.596 499.697,208.734 505.666,203.257 507.396,201.791 512.933,196.875 515.355,194.806 520.372,190.580 523.487,188.251 527.985,184.974 532.224,181.999 536.463,178.980 540.096,176.522 545.200,173.116 549.785,170.183 554.110,167.380 560.598,163.154 562.242,161.990 568.124,157.592 568.989,156.902 574.180,151.900 574.439,151.684 578.591,146.380 578.764,146.122 581.446,140.990 581.706,140.214 582.657,135.298 582.744,134.004 582.571,129.865 582.138,128.054 580.841,124.087 579.543,121.629 577.899,118.524 576.861,116.756 575.737,114.988 573.315,111.797 571.498,109.382 568.470,105.501 567.519,104.208 563.712,99.206 563.107,98.429 558.954,92.824 558.781,92.565 554.889,86.485 554.716,86.183 551.774,80.663 551.428,79.887 549.871,75.316 549.612,74.152 549.006,70.401 549.006,68.891 549.179,65.873 549.612,64.105 550.390,61.647 551.428,59.663 552.553,57.809 554.283,55.696 555.494,54.316 558.003,52.160 559.214,51.168 562.674,48.969 563.712,48.366 567.951,46.253 568.730,45.951 574.180,44.010 574.439,43.924 580.754,42.329 581.014,42.285 587.502,41.294 587.848,41.251 595.460,40.517 595.893,40.517 604.543,40.000 605.841,40.086 613.367,40.862 615.357,41.121 622.104,41.984 624.959,42.458 630.842,43.579 634.388,44.398 639.406,45.563 643.731,46.813 647.970,48.064 653.074,49.789 656.534,50.953 662.330,53.195 664.925,54.230 671.413,56.990 673.230,57.766 680.410,61.086 681.448,61.561 689.061,65.442 689.407,65.571 697.538,69.797 697.971,70.056 704.805,73.721 706.622,74.756 712.937,78.162 715.618,79.672 721.155,82.690 724.528,84.631 729.459,87.304 733.698,89.719 737.850,91.961 742.522,94.592 745.550,96.187 750.307,98.861 752.297,99.982 756.882,102.612 758.093,103.302 762.937,106.364 763.110,106.536 767.003,109.253 767.436,109.684 770.118,112.056 770.723,112.746 772.453,114.945 772.972,115.894 773.751,117.877 774.010,119.085 774.183,120.723 773.837,122.146 773.318,123.483 772.367,125.078 771.588,126.113 769.425,128.399 769.079,128.701 766.917,130.814 766.311,131.374 763.889,133.789 763.630,134.134 761.726,137.023 761.726,137.109 760.775,140.343 760.688,140.559 760.429,143.793 760.429,145.000 760.861,147.415 761.121,148.968 761.726,151.081 762.505,153.107 763.543,155.134 764.927,157.678 765.965,159.360 767.782,162.378 768.647,163.758 770.723,167.380 771.329,168.372 773.751,172.555 774.097,173.159 776.346,177.945 776.519,178.118 778.855,182.861 779.633,184.586 781.623,188.035 782.921,190.105 784.997,192.736 787.073,194.935 789.322,196.918 792.350,199.204 794.512,200.584 798.319,202.869 800.222,203.818 805.066,206.017 806.537,206.535 812.506,208.346 813.457,208.561 820.811,209.984 821.157,210.027 829.288,210.976 829.721,211.019 838.112,211.493 839.323,211.580 847.195,211.838 851.001,212.011 856.538,212.183 861.296,212.485 866.054,212.787 871.417,213.348 874.964,213.779 880.500,214.814 882.922,215.374 888.459,217.013 890.016,217.487 895.552,219.643 896.331,219.945 901.608,222.576 901.867,222.662 906.625,225.551 906.798,225.724 910.518,228.785 910.951,229.303 913.459,232.364 914.411,234.003 915.449,236.288 915.968,238.401 916.314,240.471 916.314,243.058 916.228,244.826 915.535,248.017 915.189,249.440 913.805,253.149 913.373,254.184 911.210,258.453 910.951,259.056 908.182,263.886 908.096,264.058 905.155,269.190 904.982,269.492 902.559,274.019 901.867,275.313 899.964,279.496 899.272,281.350 898.234,285.188 897.629,287.646 897.110,291.052 897.110,294.157 897.456,297.132 897.715,300.884 898.148,303.299 899.186,307.482 899.964,309.336 902.300,314.252 903.165,315.588 906.712,320.849 907.317,321.582 912.421,327.188 912.681,327.360 919.688,332.923 920.034,333.225 927.733,338.270 928.858,339.046 936.038,343.617 937.854,344.911 943.650,349.180 945.813,351.034 949.965,354.872 952.041,357.244 954.723,360.564 956.626,363.410 958.097,366.170 958.875,368.541 959.567,371.732 959.913,374.578 960.000,377.295 959.048,381.650 958.702,382.814 956.453,387.472 956.021,388.118 951.609,393.250 951.436,393.422 945.380,398.468 944.948,398.769 938.114,403.168 936.903,403.858 930.069,407.652 928.079,408.687 921.504,412.008 918.563,413.517 912.854,416.363 910.086,417.743 906.366,419.597 901.954,421.796 897.456,424.125 892.006,426.928 888.459,428.739 882.230,431.930 880.241,432.965 872.109,437.061 870.984,437.665 861.988,442.279 861.728,442.451 852.299,447.324 850.050,448.488 842.783,452.197 839.583,453.835 833.181,457.199 829.115,459.312 823.579,462.244 818.648,464.831 813.976,467.332 806.450,471.386 804.374,472.507 795.897,477.121 794.685,477.768 785.516,482.942 785.256,483.115 776.519,488.117 776.087,488.375 768.906,492.688 767.868,493.291 762.332,496.569 760.861,497.345 756.363,499.889 754.460,500.794 750.567,502.606 748.145,503.554 744.858,504.848 742.954,505.452 739.148,506.616 736.726,507.176 733.439,507.866 730.411,508.254 727.556,508.556 724.009,508.643 721.760,508.599 717.694,508.211 716.051,507.996 711.812,507.220 710.774,506.961 706.449,505.667 705.843,505.495 701.172,503.727 701.085,503.684 696.414,501.571 696.154,501.441 691.829,499.199 691.137,498.811 687.157,496.525 685.946,495.835 682.313,493.636 680.669,492.644 677.209,490.488 674.960,489.152 672.278,487.427 668.818,485.357 666.482,483.891 662.157,481.390 660.254,480.226 655.063,477.336 653.679,476.474 647.624,473.067 646.759,472.550 639.838,468.755 639.579,468.583 631.966,464.529 631.534,464.314 624.008,460.519 622.796,459.959 616.049,456.811 614.146,456.034 608.350,453.706 605.841,452.887 600.737,451.377 597.536,450.601 593.125,449.696 589.232,449.135 585.598,448.704 581.187,448.445 578.418,448.359 573.920,448.531 572.017,448.661 567.259,449.221 565.961,449.394 561.290,450.386 560.598,450.515 556.100,451.981 555.927,452.024 552.034,453.835 551.861,453.965 548.920,455.905 548.574,456.250 546.497,458.104 546.065,458.665 544.767,460.476 544.421,461.295 543.816,463.020 543.643,464.141 543.643,465.694 543.989,467.117 544.421,468.453 545.373,470.135 546.151,471.213 548.487,473.628 548.833,473.930 552.293,476.517 552.380,476.603 556.792,479.234 557.138,479.406 561.896,481.735 562.761,482.123 567.000,483.977 568.903,484.796 573.228,486.435 575.910,487.470 579.803,488.850 583.263,490.187 586.896,491.437 591.394,493.033 594.509,494.111 599.872,496.008 602.381,496.914 608.782,499.199 610.599,499.889 618.990,503.037 619.423,503.209 627.381,506.443 628.506,506.918 635.340,510.066 637.070,510.971 642.174,513.817 643.645,514.766 646.326,516.663 648.229,518.129 650.911,520.544 652.728,522.571 654.198,524.641 655.409,527.055 656.102,528.737 656.621,531.497 656.794,532.747 656.534,535.766 656.361,536.628 655.496,539.216 655.063,540.380 653.333,543.096 652.814,543.873 649.960,546.676 649.527,547.107 645.634,549.823 645.548,549.953 640.876,552.497 640.530,552.583 635.599,554.653 634.734,554.912 629.630,556.464 628.073,556.809 623.142,557.887 620.893,558.275 616.135,558.965 613.021,559.310 608.696,559.698 604.976,559.871 601.516,560.000 597.017,559.957 593.990,559.828 588.194,559.353 585.598,559.094 578.851,558.016 577.813,557.844 569.595,555.947 569.335,555.903 560.944,553.402 560.512,553.230 552.639,550.427 551.515,549.953 544.335,547.150 542.432,546.331 536.030,543.700 533.348,542.493 527.552,539.992 524.006,538.396 518.902,536.197 514.490,534.170 510.078,532.187 504.715,529.686 501.081,528.047 494.853,525.158 491.998,523.864 484.559,520.501 482.482,519.595 474.351,515.930 473.140,515.413 464.143,511.445 463.710,511.273 452.984,506.659 452.465,506.400 446.323,503.770" fill="none" stroke="black" stroke-width="2"
            stroke-linejoin="round" stroke-linecap="round"/>
</svg>
