<?xml version="1.0" encoding="utf-8"?>
<svg xmlns="http://www.w3.org/2000/svg" width="1000" height="600">
  <polyline points="722.832,105.484 720.591,105.639 711.577,106.207 710.711,106.259 705.720,106.517 701.239,106.775 699.049,106.879 696.044,107.033 690.086,107.395 684.076,107.705 682.650,107.808 677.761,108.066 671.141,108.479 667.627,108.686 660.955,108.893 655.506,109.099 645.015,109.409 644.099,109.461 638.547,109.667 636.409,109.771 624.950,110.184 624.848,110.184 617.260,110.287 615.630,110.235 610.334,110.132 603.306,109.616 598.773,109.151 592.611,108.273 589.403,107.705 581.815,106.207 577.944,105.381 574.736,104.606 564.143,102.127 559.254,100.888 554.212,99.648 551.411,98.925 544.994,97.376 537.304,95.414 534.096,94.587 530.378,93.761 525.184,92.522 519.582,91.282 508.123,89.010 505.577,88.648 503.234,88.338 501.604,88.132 492.947,87.202 491.979,87.099 480.826,86.479 479.349,86.428 472.779,86.273 469.673,86.273 452.714,86.273 452.052,86.324 446.959,86.376 446.450,86.428 437.640,86.686 431.528,86.944 428.829,87.151 413.602,88.390 410.546,88.648 405.352,89.165 404.792,89.268 397.611,90.094 397.509,90.094 388.699,91.231 386.865,91.437 378.717,92.522 377.240,92.728 370.976,93.554 365.272,94.381 355.290,95.775 355.188,95.775 346.378,97.015 343.934,97.428 340.623,97.944 338.739,98.202 332.577,99.287 331.864,99.442 324.836,101.043 322.239,101.663 316.433,103.160 314.854,103.728 312.461,104.555 310.016,105.329 309.099,105.639 305.382,106.827 305.382,106.827 301.868,107.911 301.460,108.066 295.298,110.029 294.483,110.287 291.428,111.268 289.900,111.733 288.474,112.198 286.437,112.818 284.603,113.386 280.325,114.832 278.390,115.606 276.710,116.329 274.927,117.672 274.673,117.827 274.469,118.034 271.413,121.545 271.260,121.752 269.529,125.212 268.765,127.639 268.001,130.067 267.033,133.320 266.270,135.851 266.270,135.851 265.709,137.607 265.353,138.588 263.570,142.254 263.214,142.823 262.501,143.959 260.515,146.541 258.070,149.226 256.186,150.982 254.709,152.118 253.996,152.635 251.093,154.701 249.413,155.785 245.899,158.006 244.371,158.935 239.380,161.879 239.380,161.879 237.496,162.964 235.000,164.410 234.440,164.771 232.759,165.804 224.764,170.555 224.713,170.555 220.079,173.447 219.009,174.170 215.699,176.391 214.935,176.959 211.523,179.696 209.078,181.865 208.722,182.278 204.087,187.959 203.273,188.992 200.930,192.194 199.249,196.222 197.874,199.372 195.939,203.865 194.971,206.293 194.462,207.739 193.291,210.941 192.069,214.142 191.305,216.260 189.420,221.373 189.013,222.509 187.434,226.692 185.499,232.011 185.244,232.631 183.105,238.467 182.545,239.913 179.999,246.833 178.471,250.964 177.351,254.011 177.147,254.579 174.193,262.481 174.193,262.533 172.105,268.058 171.392,270.021 169.050,276.270 168.846,276.838 167.216,281.279 166.249,283.913 164.619,288.354 163.906,290.368 162.429,294.242 160.443,299.613 159.985,300.852 157.947,306.378 156.521,310.200 155.146,313.970 154.281,316.294 151.276,324.453 149.443,329.256 148.068,332.923 147.609,334.059 146.438,337.209 144.706,341.702 142.975,346.040 141.956,348.571 137.373,359.571 136.914,360.655 133.910,367.834 131.618,373.515 130.600,376.355 130.039,377.956 129.377,379.970 127.442,390.557 127.391,391.125 127.646,399.285 127.697,399.337 128.410,404.449 128.562,405.172 129.836,411.628 130.294,413.694 130.854,415.914 131.363,417.928 131.618,419.168 132.637,423.557 133.095,425.726 133.350,426.811 133.757,428.928 134.317,434.248 134.368,437.191 134.063,438.792 133.655,440.187 133.350,441.220 132.586,443.027 131.720,444.525 129.937,447.055 129.734,447.365 127.697,449.586 127.136,450.051 125.048,451.910 124.081,452.788 123.368,453.459 122.044,454.699 119.090,457.332 118.581,457.797 115.882,460.121 113.794,461.877 111.298,464.046 111.298,464.046 109.872,465.286 106.867,467.868 103.150,471.070 103.099,471.121 100.196,473.600 97.395,476.027 96.529,476.750 92.659,480.056 91.029,481.398 87.566,484.394 87.159,484.755 78.603,492.863 78.195,493.225 75.038,496.478 72.695,498.802 71.371,500.145 64.852,506.704 62.561,509.028 60.473,511.145 55.991,515.690 55.991,515.690 53.496,518.220 52.834,518.943 51.459,520.389 49.931,522.094 46.570,526.225 44.023,529.582 43.361,530.615 43.157,531.028 42.546,532.216 41.375,534.798 41.222,535.108 40.509,537.432 40.458,537.742 40.051,540.324 40.000,541.770 40.255,544.559 40.255,544.817 40.764,547.037 40.815,547.037 41.782,549.671 43.870,552.822 44.023,553.080 46.417,555.404 47.537,556.230 48.250,556.798 49.065,557.263 50.033,557.779 53.445,559.070 54.056,559.277 55.737,559.587 57.010,559.793 59.098,560.000 59.149,560.000 61.797,560.000 62.102,559.948 64.802,559.793 65.667,559.690 67.195,559.535 71.066,558.864 71.728,558.709 73.968,558.244 75.038,557.986 83.186,555.972 83.645,555.869 86.293,555.197 89.247,554.371 89.960,554.216 93.321,553.338 95.154,552.822 98.617,551.944 99.636,551.685 103.761,550.652 106.358,549.981 108.701,549.465 111.145,548.897 116.900,547.760 119.243,547.296 124.539,546.418 127.646,545.901 130.905,545.488 133.706,545.178 137.169,544.765 141.396,544.300 145.674,543.784 152.447,543.061 154.841,542.803 155.605,542.751 163.957,541.770 165.179,541.667 171.036,540.995 171.851,540.892 182.392,539.756 182.902,539.704 190.235,538.826 196.754,538.051 198.995,537.793 205.870,536.967 209.435,536.554 212.796,536.192 216.463,535.831 219.773,535.573 224.204,535.263 231.130,535.056 234.847,535.004 244.116,535.004 248.751,535.056 251.399,535.263 252.112,535.263 257.968,535.676 262.654,536.037 271.923,537.019 275.487,537.432 279.307,537.897 287.099,538.774 291.071,539.188 296.011,539.859 299.016,540.220 301.511,540.479 304.312,540.789 309.099,541.357 310.423,541.512 317.655,542.235 321.577,542.596 326.364,542.803 327.179,542.803 328.604,542.803 333.035,542.751 335.480,542.390 337.517,541.925 341.285,541.047 344.647,539.962 346.938,538.568 348.313,537.793 350.299,536.450 351.114,535.831 354.170,533.094 355.749,531.338 357.378,529.324 359.314,526.432 359.365,526.380 361.300,522.971 362.064,521.525 363.693,518.375 363.948,517.910 366.138,513.521 366.698,512.436 367.869,510.061 369.856,505.671 370.925,503.140 372.402,499.577 373.166,497.718 374.388,493.793 374.490,493.380 375.712,488.474 376.578,484.652 377.393,479.694 377.546,478.042 378.004,472.309 378.106,471.018 378.157,465.079 378.055,462.187 377.902,458.985 377.749,457.281 377.240,452.013 376.833,448.295 376.069,442.821 375.763,440.755 375.203,437.656 374.082,431.717 373.828,430.529 372.300,423.248 372.147,422.473 370.925,417.257 370.212,413.952 368.175,405.069 367.360,401.196 366.647,398.252 365.476,392.933 364.610,389.163 363.642,384.928 362.267,378.679 360.943,372.947 360.383,370.261 359.568,366.491 359.568,366.388 358.499,361.224 358.295,360.294 357.531,355.853 357.175,352.289 357.022,350.946 356.971,347.796 357.073,346.299 358.855,337.054 359.263,335.608 362.777,327.294 363.642,325.589 364.203,324.557 365.578,321.871 365.985,321.148 367.920,317.688 369.397,315.054 370.314,313.505 371.740,311.232 372.860,309.528 373.726,308.289 374.643,306.998 376.120,305.139 377.087,304.054 379.073,302.143 379.226,301.988 381.925,300.026 382.231,299.871 383.097,299.406 385.134,298.631 385.185,298.580 388.902,297.960 390.074,297.908 392.314,298.012 392.976,298.167 396.898,298.941 397.865,299.096 400.514,299.768 402.754,300.439 402.856,300.491 403.824,300.749 405.555,301.214 406.421,301.369 410.445,302.246 410.852,302.298 413.602,302.815 414.671,302.970 417.523,303.228 421.598,303.589 424.195,303.744 426.741,303.796 427.709,303.796 431.630,303.847 434.890,303.847 436.723,303.847 439.880,303.847 440.441,303.847 447.825,303.744 448.385,303.693 452.052,303.693 453.325,303.693 457.145,303.641 458.774,303.589 463.154,303.641 468.756,303.589 468.909,303.538 476.803,303.486 477.465,303.486 483.576,303.434 485.970,303.434 488.771,303.383 492.335,303.383 496.053,303.331 498.294,303.331 500.840,303.279 503.132,303.279 508.072,303.228 509.447,303.176 514.998,303.176 522.077,303.073 523.605,303.021 528.392,302.918 529.207,302.866 536.337,302.608 541.175,302.195 543.772,301.988 549.883,301.420 552.073,301.214 556.045,300.852 562.309,300.284 564.550,300.077 570.050,299.561 570.560,299.561 578.199,298.941 582.578,298.580 589.606,297.960 590.727,297.908 596.125,297.444 596.227,297.392 604.630,296.721 606.056,296.566 611.149,296.204 611.913,296.101 614.357,295.946 621.232,295.430 622.811,295.326 624.237,295.223 625.459,295.171 625.765,295.120 628.311,295.068 629.024,295.016 630.959,295.120 632.844,295.275 634.066,295.584 636.765,296.927 637.172,297.185 640.075,299.768 641.501,301.162 642.163,301.885 642.214,302.040 643.335,303.279 644.048,304.002 645.321,305.242 645.423,305.397 646.696,306.481 647.154,306.894 648.784,307.979 648.835,307.979 650.515,308.857 651.992,309.322 654.335,309.941 655.455,310.045 658.409,309.632 659.020,309.477 659.886,309.270 661.006,309.063 661.719,308.857 663.706,308.289 665.081,307.824 666.965,307.204 668.187,306.791 669.002,306.481 669.970,306.068 671.752,305.345 673.025,304.777 674.146,304.312 678.373,302.298 678.423,302.246 680.155,301.420 682.192,300.387 684.688,299.096 685.553,298.631 687.285,297.702 693.498,294.397 693.753,294.242 695.841,293.106 697.725,292.124 699.558,291.143 699.864,290.988 703.276,289.181 703.938,288.819 709.082,286.134 709.540,285.875 713.309,283.965 718.809,281.279 722.068,279.730 723.087,279.213 723.952,278.852 728.638,276.683 733.781,274.307 735.360,273.533 740.147,271.209 740.911,270.796 744.018,269.143 747.583,267.129 749.110,266.199 752.319,264.237 755.324,262.326 756.444,261.551 763.115,257.058 764.796,255.870 769.940,252.152 772.130,250.500 774.116,249.002 778.445,245.697 780.482,244.147 784.709,240.791 785.880,239.861 789.954,236.452 794.181,232.786 796.167,230.978 801.311,226.072 802.839,224.471 810.783,216.311 810.834,216.208 816.589,209.908 817.658,208.720 823.057,202.574 823.515,202.109 825.501,199.889 829.015,195.861 833.395,190.954 833.904,190.283 838.895,184.757 839.404,184.241 843.682,179.386 845.923,176.907 848.011,174.480 854.071,167.766 854.122,167.663 860.285,160.846 864.511,156.147 866.090,154.546 870.012,150.517 872.711,147.987 874.340,146.438 879.229,142.513 882.998,139.724 883.762,139.259 889.364,135.799 893.082,133.837 896.188,132.391 904.489,128.879 905.763,128.311 909.684,126.761 912.536,125.574 916.712,123.921 919.818,122.630 921.193,122.062 925.420,120.306 928.170,119.118 930.615,118.188 932.856,117.207 936.268,115.813 937.541,115.245 942.532,113.179 943.958,112.559 944.875,112.146 945.588,111.836 948.745,110.287 948.745,110.235 950.935,108.996 952.565,107.911 953.736,106.930 954.602,106.207 956.995,103.367 957.148,103.057 958.268,101.198 958.727,100.217 959.185,98.925 959.694,96.292 960.000,93.968 960.000,93.658 959.949,90.921 959.847,89.939 959.694,88.700 959.236,86.273 958.981,85.137 958.523,83.432 957.708,80.695 957.046,78.526 956.639,77.287 955.926,75.014 955.620,74.136 955.366,73.465 954.347,70.573 953.838,69.282 953.379,68.043 952.565,66.235 950.680,62.103 949.102,59.211 948.745,58.643 947.828,57.249 945.486,53.737 943.551,51.310 943.041,50.742 941.259,48.883 938.865,46.817 938.305,46.352 936.879,45.371 934.027,43.615 933.212,43.150 931.328,42.324 930.921,42.169 926.897,40.826 925.166,40.413 924.198,40.207 921.143,40.000 920.990,40.052 918.647,40.207 916.763,40.620 916.712,40.620 914.471,41.291 913.249,41.704 911.619,42.479 910.957,42.737 909.582,43.460 905.508,45.474 903.929,46.352 899.244,48.831 898.735,49.089 893.438,51.723 893.336,51.723 891.910,52.446 890.230,53.169 885.595,55.080 885.493,55.080 881.776,56.681 880.146,57.352 874.646,59.728 873.627,60.141 867.618,62.723 865.581,63.601 860.183,65.873 859.062,66.390 855.090,68.043 851.067,69.747 850.710,69.953 844.803,72.432 841.492,73.827 840.270,74.291 834.261,76.925 833.599,77.183 829.015,79.094 828.557,79.352 821.580,82.296 820.867,82.554 816.844,84.310 811.038,86.738 806.607,88.700 801.718,90.766 798.612,92.108 797.899,92.367 793.010,94.381 792.908,94.381 781.449,98.616 781.398,98.616 776.102,100.217 771.824,101.301 769.278,101.921 765.815,102.695 761.689,103.315 754.712,103.986 750.944,104.348 743.203,104.864 739.180,104.813 737.856,104.864 728.943,105.123 728.841,105.123 723.087,105.536 722.985,105.536" fill="none" stroke="white" stroke-width="4"
            stroke-linejoin="round" stroke-linecap="round"/>
</svg>
