<?xml version="1.0" encoding="utf-8"?>
<svg xmlns="http://www.w3.org/2000/svg" width="1000" height="600">
  <polyline points="752.217,449.002 748.106,447.618 743.994,446.235 729.130,441.439 723.596,439.619 720.117,438.482 716.006,437.117 700.825,432.208 700.509,432.113 692.602,429.517 684.380,426.806 680.901,425.631 673.310,423.186 672.362,422.864 662.083,419.528 652.912,416.533 645.321,414.050 641.684,412.837 637.889,411.586 632.039,409.728 623.816,406.999 623.499,406.885 607.845,401.236 604.998,400.194 599.780,397.976 595.669,396.024 595.510,395.929 591.399,394.109 584.600,391.077 578.591,388.404 572.265,385.580 568.787,384.101 567.363,383.476 561.038,380.709 559.931,380.273 556.452,378.699 553.922,377.619 550.760,376.292 547.281,374.738 545.541,373.999 541.904,372.444 540.481,371.914 533.365,369.374 532.733,369.165 525.933,367.213 525.301,367.042 521.664,366.170 520.557,365.943 518.027,365.469 512.018,364.465 510.911,364.294 506.800,363.801 504.902,363.593 498.577,363.043 496.679,362.929 487.350,362.569 482.289,362.398 478.652,362.323 473.909,362.436 473.118,362.474 465.844,362.645 465.053,362.645 455.565,362.872 453.668,362.929 446.078,363.062 441.808,363.119 432.162,363.081 426.153,362.948 423.307,362.853 416.666,362.474 415.242,362.323 407.810,361.337 407.178,361.242 403.541,360.598 403.066,360.181 402.750,360.048 400.853,359.044 400.853,358.930 400.536,358.266 400.536,357.527 401.011,356.674 401.801,355.480 401.801,355.272 403.541,353.509 403.699,353.319 404.648,352.561 405.280,352.182 407.652,350.533 408.285,350.002 411.922,347.936 413.345,347.140 414.452,346.590 416.349,345.491 417.614,344.809 420.619,343.254 422.674,341.946 423.623,341.340 426.311,339.217 426.628,338.895 428.842,336.431 428.842,336.279 429.632,334.763 429.632,333.967 429.316,332.261 428.683,330.593 427.893,329.645 426.311,327.636 424.414,325.778 422.516,323.750 420.777,322.196 419.828,321.362 418.089,319.789 414.768,316.775 414.768,316.718 411.447,313.609 410.340,312.605 409.550,311.809 408.127,310.596 405.122,307.809 404.806,307.525 401.011,304.056 400.220,303.374 398.006,301.270 396.899,300.227 392.788,296.380 390.732,294.617 389.151,293.101 388.044,291.925 387.886,291.774 385.830,289.613 385.514,289.082 384.407,287.850 384.091,287.300 382.509,284.173 382.035,283.775 379.347,281.747 376.659,280.628 374.919,280.098 372.389,279.510 367.171,278.866 365.273,278.676 354.837,277.823 349.935,277.539 345.507,277.292 330.643,276.572 329.694,276.515 316.411,275.814 312.774,275.586 306.923,275.226 298.226,274.582 292.850,274.070 275.614,272.232 269.921,271.530 265.651,270.772 264.545,270.564 255.531,268.858 254.899,268.725 246.360,266.735 243.513,265.939 240.509,265.010 238.769,264.365 235.923,263.228 234.184,262.394 231.179,260.518 230.863,260.176 228.807,256.840 228.807,256.784 228.333,255.438 229.598,253.713 230.547,253.050 237.346,248.785 239.718,247.742 243.039,246.946 243.513,246.813 253.950,244.368 257.745,243.610 267.707,241.563 269.921,241.070 276.562,239.364 278.302,238.853 282.413,237.298 285.576,235.346 286.050,234.967 286.999,232.029 286.841,230.209 286.050,228.617 283.994,227.404 278.460,224.485 275.455,223.044 268.340,219.784 266.758,219.235 256.954,216.334 246.834,214.212 239.402,213.093 225.486,212.051 209.832,211.160 205.878,210.913 191.647,209.776 190.540,209.662 180.736,208.336 178.680,207.976 170.773,206.194 166.662,204.791 163.499,203.028 160.021,199.711 159.388,198.347 159.072,197.039 158.914,194.650 159.072,194.594 159.388,192.471 160.179,190.689 161.444,188.793 164.923,186.140 165.555,185.837 168.560,184.301 170.615,183.581 178.047,181.420 178.522,181.268 189.433,179.127 189.907,179.089 199.237,177.705 204.613,177.061 216.947,175.810 222.640,175.298 240.983,173.895 258.536,172.720 279.409,171.317 292.692,170.370 304.393,169.062 314.355,167.602 315.937,167.356 324.160,165.517 325.266,165.233 331.592,163.015 335.070,161.234 336.494,160.362 336.810,160.191 339.656,158.542 346.614,153.709 349.302,152.268 350.725,151.529 356.892,148.686 358.157,148.117 367.961,144.118 368.436,143.909 376.026,140.895 376.817,140.630 381.244,138.621 383.616,137.502 386.305,136.024 389.942,133.636 391.839,132.233 393.104,130.944 394.053,130.053 397.216,126.831 398.481,125.656 399.587,124.348 401.959,121.713 403.066,120.178 403.541,119.590 404.648,117.922 407.494,113.108 407.968,112.369 408.285,111.118 408.443,110.530 409.392,107.365 409.392,104.465 408.917,101.337 408.759,101.110 408.127,98.513 407.652,96.996 407.336,95.537 406.387,93.168 406.229,92.542 405.122,89.604 404.490,87.822 403.857,86.628 402.434,82.799 401.169,79.767 399.746,76.127 398.639,73.834 398.481,73.474 397.690,71.427 396.899,69.891 395.950,67.768 394.685,65.702 392.314,62.745 391.997,62.366 391.048,61.551 387.411,58.557 383.774,55.922 380.928,53.704 379.031,52.737 377.133,51.903 371.598,49.420 371.124,49.231 368.120,47.866 365.590,47.241 362.269,46.577 350.883,44.341 349.618,44.113 345.349,43.450 341.712,43.071 340.763,42.976 331.592,42.028 327.164,41.668 308.505,40.531 306.291,40.417 299.017,40.133 292.850,40.038 290.478,40.019 278.302,40.000 273.400,40.057 263.438,40.379 263.121,40.398 253.950,40.872 247.941,41.346 233.709,42.597 225.328,43.620 222.008,44.170 217.422,45.004 214.575,45.573 208.567,47.165 203.981,48.624 200.186,50.463 198.762,51.524 198.604,51.771 197.339,52.870 196.391,55.732 196.232,55.865 196.707,58.196 196.707,58.367 198.762,61.134 198.921,61.229 201.293,63.087 204.613,64.546 213.943,68.223 216.789,69.228 222.166,70.669 227.700,71.730 238.769,73.834 243.829,74.763 252.685,76.450 254.424,76.791 266.126,79.179 267.549,79.463 274.032,80.980 275.614,81.397 286.841,84.543 292.534,86.420 295.064,87.841 299.491,90.457 302.496,92.618 305.500,95.670 306.923,98.115 307.240,98.437 307.872,99.991 308.030,101.166 308.030,103.991 307.398,105.621 306.291,107.402 305.026,108.710 303.286,110.208 302.179,110.966 297.910,113.506 294.273,115.269 293.799,115.458 282.571,119.647 276.562,121.505 269.605,123.514 260.591,125.807 258.852,126.281 245.727,129.674 240.825,130.944 235.923,132.290 231.653,133.655 230.072,134.204 224.696,136.024 222.482,136.896 219.003,138.298 214.259,140.782 213.943,140.933 209.990,143.530 208.883,144.288 205.720,146.790 205.404,146.942 202.083,149.046 200.818,149.709 198.604,150.790 194.651,151.908 190.856,152.590 190.065,152.761 178.364,154.543 174.569,154.960 162.867,155.926 160.969,156.040 154.012,156.438 147.528,156.628 122.860,157.063 119.856,157.120 100.089,157.784 97.085,158.030 56.920,164.361 56.762,164.437 50.437,166.749 48.697,167.678 45.060,170.142 43.795,171.090 43.004,172.057 42.846,172.189 41.265,174.464 40.949,175.241 40.316,177.269 40.316,178.065 40.000,179.430 40.000,181.420 40.000,182.103 40.791,185.837 41.265,187.069 43.004,189.609 44.111,190.897 44.744,191.466 48.065,194.271 53.125,197.247 53.757,197.664 59.134,200.280 63.245,201.872 70.835,204.734 75.263,206.213 78.109,207.066 79.849,207.559 86.806,209.662 92.183,211.198 105.466,214.875 105.940,215.008 121.753,219.538 125.706,220.751 128.553,221.604 137.250,224.599 138.989,225.224 145.156,227.707 147.212,228.579 150.217,230.001 158.123,234.303 160.653,235.744 162.393,237.203 163.341,238.132 164.923,239.630 165.713,240.521 169.034,245.998 169.508,247.515 170.141,249.657 170.141,250.263 170.615,251.836 171.090,253.334 172.197,255.608 172.671,256.404 176.308,260.707 177.415,261.750 179.471,263.475 185.163,267.493 187.061,268.516 191.805,270.999 193.544,271.815 199.079,274.051 201.293,274.866 209.515,277.577 209.832,277.672 219.003,280.268 222.798,281.254 233.235,283.756 250.945,287.452 251.578,287.566 272.451,291.679 279.409,293.082 288.264,295.129 294.431,296.626 303.761,299.014 310.560,300.929 311.193,301.156 328.587,307.506 330.485,308.264 333.015,309.401 334.754,310.425 337.126,311.733 340.447,313.723 345.981,317.723 346.930,318.519 350.567,322.082 351.042,322.537 352.781,324.774 353.255,325.266 354.520,327.768 355.627,330.157 355.785,333.171 355.311,337.568 354.995,338.231 353.414,341.397 352.781,342.079 349.618,345.794 348.670,346.761 345.349,349.358 343.926,350.628 339.814,353.926 339.498,354.172 336.968,357.300 336.652,358.702 336.810,359.328 337.284,360.560 337.601,360.844 341.238,362.967 341.396,363.081 346.140,364.730 350.883,365.753 363.534,367.895 371.124,369.070 378.714,370.094 384.249,370.682 384.723,370.720 399.429,372.388 404.331,372.918 415.242,374.112 421.251,374.814 433.269,376.501 441.808,378.055 444.180,378.548 447.501,379.325 455.565,381.846 457.937,382.850 465.211,387.039 465.844,387.456 468.058,388.954 468.848,390.717 469.955,394.564 470.113,394.944 469.165,396.915 468.374,397.673 464.895,400.383 464.105,400.819 460.626,402.506 458.886,403.189 453.826,405.008 448.450,406.695 436.274,409.918 428.683,411.775 427.418,412.097 419.354,414.012 410.815,416.040 408.759,416.495 389.467,421.044 389.151,421.139 374.445,424.740 373.654,424.892 366.222,426.787 364.325,427.242 352.465,430.445 350.251,431.090 346.772,432.076 339.498,434.426 336.652,435.393 332.224,437.023 330.010,437.951 320.839,442.652 320.206,442.937 314.830,446.481 313.565,448.642 313.249,449.002 311.983,451.675 311.509,453.324 311.825,456.129 311.983,456.527 314.672,461.550 314.830,461.626 315.779,462.801 319.416,465.947 324.001,468.772 329.694,472.221 333.805,474.401 336.968,475.993 338.549,476.676 349.460,482.002 352.781,483.556 358.316,486.134 363.692,488.674 368.278,490.645 376.026,493.867 376.342,494.076 380.296,495.668 385.514,497.507 398.639,501.961 399.113,502.075 404.490,503.724 409.550,505.032 412.080,505.638 422.200,508.027 430.581,509.827 442.124,512.140 444.971,512.708 466.002,516.386 469.007,516.897 480.550,518.698 488.298,519.873 499.526,521.465 508.539,522.735 527.831,525.256 542.537,527.019 560.564,529.104 563.568,529.426 578.116,531.037 590.134,532.364 613.379,535.018 616.226,535.321 621.918,535.985 644.056,538.354 671.413,541.235 679.003,541.993 692.128,543.263 705.411,544.476 717.429,545.538 726.126,546.353 743.836,547.945 751.901,548.646 766.291,549.954 793.647,552.399 797.284,552.702 811.674,553.991 816.260,554.427 833.970,556.001 836.342,556.228 847.411,557.195 848.202,557.289 858.955,558.256 859.429,558.275 864.806,558.787 868.917,559.071 883.307,559.791 886.470,559.924 893.902,560.000 895.957,559.981 904.180,559.962 906.868,559.943 916.989,559.659 920.784,559.488 930.113,558.920 931.537,558.806 936.122,558.408 939.759,558.029 946.717,557.100 947.508,556.967 952.252,556.057 952.410,556.020 957.786,554.370 959.051,553.726 959.526,553.271 959.842,552.399 960.000,551.016 959.842,550.826 958.261,549.177 956.047,547.926 955.730,547.680 951.145,545.310 950.512,545.045 948.457,543.908 946.559,542.903 945.452,542.221 941.815,540.249 940.866,539.662 938.336,538.392 933.750,535.719 932.644,535.075 929.639,533.236 928.216,532.288 925.370,530.488 924.263,529.881 920.626,527.834 919.993,527.493 916.989,525.730 915.882,525.048 910.822,522.299 909.873,521.863 906.552,520.044 905.920,519.778 902.441,517.864 900.227,516.689 895.167,513.959 894.376,513.561 889.316,510.851 887.735,510.017 885.521,508.861 880.303,505.960 879.828,505.809 876.191,503.875 872.238,501.923 871.289,501.336 868.285,499.800 862.592,496.616 861.485,496.066 858.955,494.626 855.634,492.806 853.104,491.290 848.677,488.920 840.928,484.618 836.817,482.495 836.342,482.172 831.915,479.955 831.915,479.879 827.329,477.661 824.957,476.448 819.106,473.946 805.981,468.525 804.400,467.900 797.442,465.113 790.485,462.573 787.638,461.550 784.792,460.469 778.151,458.062 777.992,457.967 770.877,455.428 761.547,452.205 758.701,451.182 750.478,448.433" fill="none" stroke="black" stroke-width="2"
            stroke-linejoin="round" stroke-linecap="round"/>
</svg>
