<?xml version="1.0" encoding="utf-8"?>
<svg xmlns="http://www.w3.org/2000/svg" width="1000" height="600">
  <polyline points="819.662,529.405 823.624,527.832 832.975,524.204 834.956,523.457 842.563,520.603 851.280,517.296 857.857,514.815 867.525,511.214 872.200,509.454 881.867,505.799 891.139,502.359 898.508,499.558 902.550,498.037 909.761,495.317 912.851,494.170 916.179,492.916 922.202,490.702 927.669,488.648 930.522,487.608 934.880,485.981 937.654,484.967 942.963,482.860 946.687,481.153 947.401,480.753 950.016,479.126 951.680,477.552 952.551,476.459 952.947,475.552 953.106,473.151 952.234,471.391 951.363,470.404 951.125,470.164 948.827,468.457 946.925,467.390 943.676,465.976 939.952,464.722 935.910,463.655 931.552,462.802 926.639,462.082 923.628,461.761 920.062,461.441 915.466,461.148 911.662,460.988 908.176,460.935 904.214,460.935 900.965,460.988 892.407,461.468 887.969,461.868 884.245,462.295 880.045,462.908 873.626,464.002 863.959,466.003 860.789,466.723 856.193,467.870 850.250,469.497 848.110,470.137 842.167,472.057 838.522,473.284 834.956,474.485 831.469,475.632 829.409,476.272 821.881,478.592 819.108,479.366 812.214,480.806 808.489,481.447 804.052,482.033 800.248,482.407 789.867,482.994 784.717,483.074 781.151,482.994 776.713,482.834 769.740,482.380 765.540,482.033 763.955,481.873 754.525,480.753 748.028,479.713 744.224,479.019 740.579,478.326 734.873,477.045 731.862,476.299 727.821,475.125 721.244,472.938 719.500,472.217 716.885,471.124 713.161,469.363 711.022,468.216 705.158,464.322 702.543,461.788 701.116,460.001 699.531,457.334 698.501,455.093 697.233,451.652 696.441,449.038 695.728,446.558 695.252,444.744 694.539,441.463 693.826,437.862 693.351,435.488 692.875,432.794 692.162,429.140 691.686,426.659 691.053,422.685 690.498,418.684 690.181,416.523 689.705,412.255 688.992,406.227 688.517,402.653 688.358,400.999 687.962,397.932 687.645,395.371 687.328,392.650 687.011,389.903 686.615,386.676 686.060,381.768 685.664,377.660 685.268,373.979 684.792,369.951 684.555,367.604 684.317,365.070 683.762,359.789 683.287,354.934 683.049,352.587 682.574,348.266 682.098,343.945 681.385,337.009 680.830,331.355 680.276,325.993 679.642,320.419 678.770,311.910 678.612,310.149 678.136,305.481 677.740,301.880 677.264,297.159 676.551,290.251 676.234,287.343 675.759,282.916 675.283,278.621 674.808,273.687 674.412,269.606 674.095,266.645 673.857,264.618 673.461,260.857 673.382,259.923 673.223,258.083 672.906,255.015 672.589,252.188 672.351,250.241 672.272,249.360 672.034,247.333 672.034,245.466 672.589,242.692 673.223,241.172 674.332,239.304 676.234,236.957 677.185,236.024 678.849,234.663 680.513,233.543 682.177,232.556 683.525,231.916 685.347,231.196 688.517,230.209 691.053,229.649 694.539,229.142 696.758,228.928 703.731,228.555 709.040,228.475 712.923,228.448 715.538,228.448 719.738,228.448 725.364,228.422 730.436,228.422 735.507,228.422 739.469,228.422 748.424,228.395 755.714,228.368 759.518,228.368 767.283,228.342 773.702,228.315 785.747,228.288 795.177,228.262 805.003,228.262 816.017,228.235 821.960,228.208 823.545,228.182 831.707,227.995 838.601,227.675 848.586,226.928 859.680,225.808 871.883,224.181 877.113,223.354 882.977,222.287 890.822,220.713 897.478,219.299 904.293,217.726 910.791,215.992 916.972,214.098 922.043,212.338 923.707,211.751 933.850,207.456 935.910,206.549 941.378,203.775 943.201,202.708 948.589,199.294 950.887,197.560 952.947,195.800 954.849,193.986 957.068,191.425 958.970,188.518 959.762,186.491 960.000,185.024 959.921,183.770 959.366,182.170 958.653,180.916 957.464,179.556 956.830,178.969 956.672,178.916 955.245,177.849 953.344,176.702 949.223,175.101 947.797,174.701 943.438,173.874 941.140,173.554 938.367,173.261 936.386,173.047 932.345,172.594 928.145,171.981 925.609,171.500 922.598,170.674 920.458,169.953 918.953,169.313 916.734,168.060 915.783,167.286 915.070,166.512 914.594,165.686 914.357,163.338 915.070,162.005 915.783,161.071 916.972,159.977 919.824,157.924 923.073,155.896 927.115,153.522 928.937,152.482 931.235,151.068 935.752,147.868 937.020,146.694 937.733,145.840 938.684,144.320 939.080,143.173 939.239,142.026 939.080,141.093 938.922,140.559 938.446,139.412 936.941,137.678 934.880,136.238 932.820,135.251 930.760,134.584 927.115,133.757 925.926,133.597 921.726,133.144 917.130,132.957 912.296,132.877 910.315,132.877 904.848,132.930 900.172,132.957 897.240,133.011 892.248,133.037 891.456,133.037 882.660,133.091 879.094,133.091 871.566,133.171 863.800,133.224 856.351,133.251 847.952,133.331 841.454,133.384 835.273,133.437 825.685,133.491 819.504,133.544 813.244,133.597 808.410,133.624 800.724,133.677 795.097,133.704 781.943,133.784 776.000,133.784 768.868,133.784 761.578,133.784 750.167,133.757 746.601,133.757 736.220,133.731 728.296,133.704 720.293,133.731 713.557,133.704 699.135,133.704 694.222,133.704 677.344,133.544 663.476,133.197 651.352,132.584 643.428,132.130 638.436,131.837 625.519,130.903 615.297,129.916 608.641,129.143 600.162,128.076 585.819,125.995 579.717,124.955 573.299,123.755 567.990,122.608 562.522,121.328 558.164,120.181 551.587,118.340 546.357,116.633 540.730,114.659 536.768,113.112 532.252,111.218 528.844,109.645 525.357,107.964 520.207,105.270 516.007,102.736 512.916,100.789 510.698,99.269 506.894,96.575 503.962,94.414 500.713,92.013 496.513,88.973 493.502,86.759 488.351,82.944 485.340,80.810 482.012,78.410 478.446,76.009 473.137,72.702 467.115,69.394 463.707,67.740 457.368,64.966 451.187,62.592 448.889,61.739 443.104,59.792 437.320,57.978 432.803,56.671 430.425,55.977 424.482,54.404 417.271,52.670 412.992,51.710 406.494,50.403 397.223,48.722 388.269,47.335 380.820,46.322 365.526,44.641 353.402,43.548 346.350,43.014 342.942,42.774 332.403,42.054 326.222,41.654 324.717,41.547 320.834,41.307 312.751,40.800 309.264,40.560 305.144,40.320 299.914,40.080 293.258,40.000 291.435,40.053 288.503,40.267 285.730,40.640 282.243,41.387 278.598,42.481 277.251,42.987 275.904,43.574 274.002,44.561 272.496,45.601 271.070,46.908 270.040,48.109 269.089,49.576 268.217,50.936 267.662,51.763 266.236,53.417 264.572,54.991 262.670,56.591 259.659,58.885 257.519,60.432 255.538,61.819 253.003,63.606 250.546,65.313 247.931,67.180 243.414,70.461 237.471,74.756 235.649,76.009 230.894,79.210 227.328,81.477 226.377,82.064 223.287,84.011 217.344,87.586 213.857,89.613 209.816,92.013 206.725,93.800 201.575,96.841 192.224,102.443 188.420,104.763 183.349,107.964 179.545,110.391 176.059,112.605 172.017,115.219 165.836,119.114 158.863,123.435 154.742,126.022 148.641,129.836 147.611,130.503 143.886,132.904 139.686,135.785 133.981,139.812 129.702,142.960 122.966,148.161 117.816,152.322 114.804,154.856 111.635,157.603 108.941,160.057 103.235,165.686 98.639,170.834 92.220,178.329 90.953,179.823 86.594,184.944 83.187,188.945 79.780,192.973 76.927,196.547 72.885,201.855 69.161,207.083 66.467,211.111 63.773,215.352 60.841,220.260 58.543,224.607 56.482,228.582 54.264,233.356 52.758,236.850 51.569,239.811 49.668,245.039 49.351,245.999 47.766,251.254 46.102,257.522 44.834,263.631 43.883,269.979 43.170,278.861 43.090,281.582 43.011,290.731 43.011,295.105 43.090,302.307 43.090,303.107 43.249,307.455 43.407,315.591 43.566,320.392 43.566,323.406 43.724,330.021 43.804,333.649 43.962,340.104 44.121,345.358 44.200,348.399 44.279,353.067 44.279,357.975 44.279,362.269 44.200,367.604 44.121,371.285 43.962,380.567 43.883,382.408 43.724,393.477 43.566,399.932 43.487,405.987 43.328,413.963 43.249,417.937 43.090,428.260 43.011,431.860 42.853,440.769 42.773,447.144 42.457,455.440 42.219,463.949 42.060,468.003 41.902,471.177 41.823,474.885 41.585,482.247 41.426,486.088 41.268,489.929 41.030,496.117 40.951,498.278 40.872,501.772 40.792,504.146 40.634,507.507 40.475,512.148 40.396,515.509 40.317,517.909 40.238,519.883 40.158,521.910 40.079,523.591 40.000,525.911 40.000,527.298 40.000,529.459 40.396,532.766 41.030,534.980 41.664,536.341 43.170,538.421 43.804,539.141 45.071,540.155 46.498,541.249 48.558,542.502 51.252,543.863 52.599,544.423 56.007,545.596 58.622,546.263 60.999,546.743 63.059,547.063 66.784,547.490 69.082,547.677 72.806,547.864 77.085,548.077 77.878,548.104 86.674,548.904 88.892,549.251 92.854,550.024 95.786,550.691 103.631,552.745 106.405,553.492 110.050,554.479 114.171,555.546 118.608,556.559 121.619,557.199 125.027,557.786 128.830,558.320 137.864,559.146 149.354,559.547 170.353,559.787 176.693,559.867 183.190,559.947 189.054,560.000 197.850,559.920 203.318,559.867 209.182,559.813 220.117,559.733 227.645,559.653 237.392,559.573 240.720,559.547 249.120,559.467 259.580,559.387 268.851,559.306 280.658,559.200 287.790,559.146 296.269,559.066 304.431,558.986 313.940,558.906 328.045,558.773 340.407,558.666 356.889,558.480 369.805,558.346 378.997,558.240 387.793,558.160 395.401,558.106 417.113,557.973 424.086,557.919 440.410,557.946 450.870,557.973 459.032,557.999 467.194,557.999 486.608,558.160 501.426,558.213 506.894,558.213 524.486,558.213 534.550,558.213 544.851,558.186 554.835,558.160 564.503,558.133 572.586,558.106 587.483,558.026 598.339,557.946 604.520,557.893 612.603,557.866 624.489,557.786 634.632,557.653 646.994,557.466 656.424,557.333 664.744,557.199 668.231,557.146 683.683,556.826 687.090,556.746 694.301,556.479 709.516,555.652 724.968,554.265 732.417,553.385 738.043,552.611 747.790,551.011 758.567,548.904 764.906,547.543 769.423,546.530 777.902,544.423 783.845,542.716 789.550,540.822 791.056,540.315 800.010,537.114 805.320,535.087" fill="none" stroke="black" stroke-width="2"
            stroke-linejoin="round" stroke-linecap="round"/>
</svg>
