<?xml version="1.0" encoding="utf-8"?>
<svg xmlns="http://www.w3.org/2000/svg" width="1000" height="600">
  <polyline points="291.350,434.592 287.455,431.188 283.486,427.749 277.974,422.891 276.357,421.508 269.963,415.906 262.614,409.524 258.572,405.978 250.708,399.135 246.960,395.909 240.713,390.413 234.833,385.272 231.820,382.684 227.998,379.315 221.604,373.713 217.268,369.955 213.299,366.480 207.199,361.126 204.112,358.432 200.144,354.992 192.059,348.149 188.458,345.065 184.343,341.626 178.463,336.626 174.421,333.152 168.909,328.471 165.234,325.387 157.885,319.111 153.255,315.211 145.391,308.509 143.994,307.304 133.705,298.582 124.592,290.817 120.770,287.590 115.111,282.804 106.880,275.819 100.192,270.110 89.756,261.636 86.301,258.871 79.466,253.304 72.925,247.950 64.621,240.895 60.725,237.207 58.227,234.832 55.066,231.605 50.289,226.677 47.202,223.273 45.292,220.933 42.719,217.104 41.029,213.664 40.294,211.041 40.000,207.779 40.441,205.226 41.102,203.240 42.499,200.687 43.895,199.021 45.218,197.886 47.276,196.291 49.848,194.695 52.200,193.454 55.507,191.894 57.933,190.972 61.828,189.696 64.915,188.880 68.516,188.065 74.616,187.108 79.760,186.647 88.506,186.505 91.813,186.611 98.060,187.143 102.250,187.710 107.394,188.632 113.715,190.050 119.300,191.504 124.886,193.135 130.030,194.731 133.558,195.830 138.262,197.354 144.656,199.411 148.330,200.581 153.548,202.247 161.265,204.694 165.675,206.112 171.775,207.991 177.949,209.941 182.652,211.395 185.224,212.211 191.324,214.125 197.351,215.933 200.658,216.926 203.892,217.848 211.829,219.905 216.827,220.933 219.914,221.429 224.470,221.996 230.497,222.351 236.670,222.280 243.358,221.713 249.017,220.826 252.398,220.082 257.322,218.699 259.895,217.813 263.275,216.465 267.244,214.515 271.360,211.821 273.932,209.551 276.063,206.892 277.827,203.417 278.415,201.219 278.783,198.737 278.856,197.142 278.783,190.086 278.636,187.391 278.562,185.654 278.415,182.179 278.268,179.555 278.048,175.762 277.680,169.628 277.533,166.508 277.386,162.501 277.386,159.558 277.754,153.885 278.709,150.269 279.738,147.574 281.428,144.560 284.515,140.341 288.851,135.944 295.319,130.910 300.684,127.364 308.621,122.577 313.104,119.918 319.351,116.443 322.291,114.883 331.698,109.955 335.741,107.828 341.179,104.920 347.279,101.658 348.235,101.126 352.865,98.680 364.771,92.369 373.076,87.901 374.692,87.050 379.984,84.214 388.583,79.605 397.255,74.995 406.662,70.031 412.762,66.769 419.083,63.366 427.976,58.685 428.931,58.189 438.044,53.332 438.779,52.941 443.630,50.424 451.273,46.595 459.064,43.439 462.665,42.411 469.059,41.099 474.865,40.390 481.700,40.000 489.490,40.071 497.281,40.603 503.528,41.418 507.790,42.198 511.906,43.120 515.434,44.077 523.812,46.808 528.589,48.651 532.999,50.460 537.482,52.374 542.259,54.537 546.375,56.523 553.871,60.458 558.648,63.366 561.368,65.422 564.675,68.436 567.982,72.691 568.938,74.534 569.966,77.229 570.628,80.420 570.481,83.788 569.011,87.476 567.762,89.142 565.924,90.950 561.662,94.035 556.223,97.049 553.945,98.184 548.212,100.914 543.803,103.006 539.246,105.098 537.115,106.126 534.175,107.473 528.883,109.920 525.796,111.373 520.358,113.926 517.124,115.415 508.599,119.457 504.410,121.549 500.294,123.641 495.443,126.265 491.181,128.569 486.992,130.803 482.435,133.285 478.025,135.625 475.232,137.185 472.513,138.781 467.369,142.043 464.943,143.745 460.975,146.723 459.652,147.858 457.741,149.630 456.418,150.978 454.654,153.353 454.140,154.594 453.772,156.828 454.213,158.743 455.316,160.445 457.447,162.182 459.872,163.317 462.665,164.274 464.649,164.735 468.618,165.479 472.513,165.869 474.571,165.940 479.569,165.834 482.214,165.728 488.682,165.125 491.475,164.735 495.664,164.097 501.837,162.997 505.659,162.288 509.554,161.579 511.098,161.296 514.331,160.693 524.841,158.707 532.484,157.254 536.674,156.473 549.829,153.814 554.312,152.892 560.853,151.510 566.586,150.304 572.833,148.850 578.124,147.645 580.844,147.042 591.868,144.525 604.362,141.724 609.653,140.589 618.032,138.816 624.646,137.434 633.906,135.483 640.006,134.207 651.839,131.831 657.939,130.661 663.965,129.598 669.110,128.782 676.019,127.896 682.192,127.435 686.455,127.329 693.878,127.577 698.655,128.002 706.372,129.243 711.149,130.378 714.676,131.441 718.204,132.682 722.761,134.703 726.289,136.653 728.714,138.320 732.462,141.653 734.740,144.915 735.916,148.602 735.990,150.694 734.887,154.736 732.242,158.317 729.890,160.515 728.126,161.969 723.496,164.806 717.322,167.607 712.619,169.628 707.548,171.897 698.728,176.329 692.922,179.555 686.308,183.704 683.662,185.441 678.664,189.093 674.990,191.930 670.506,195.653 667.567,198.205 665.362,200.297 662.202,203.524 659.115,206.892 655.220,211.821 652.500,215.756 649.928,220.046 648.605,222.493 647.209,225.117 643.902,229.513 641.697,231.924 634.788,237.278 633.171,238.306 626.924,241.462 620.530,243.731 614.724,245.220 603.480,247.312 598.335,248.092 592.235,248.943 584.592,249.971 576.728,250.858 567.100,251.815 556.591,252.737 546.301,253.588 543.435,253.836 536.380,254.474 527.340,255.325 519.623,256.141 515.948,256.566 508.158,257.984 502.425,259.651 497.207,261.991 494.561,263.622 492.283,265.359 490.225,267.345 489.784,267.806 487.726,270.820 487.065,272.451 486.624,273.940 486.404,275.748 486.698,277.095 487.286,278.726 488.388,280.464 489.564,281.917 491.695,283.797 494.929,286.137 498.604,288.477 504.704,291.916 507.643,293.512 510.804,295.107 515.507,297.341 520.284,299.397 527.046,302.021 534.248,304.574 544.611,307.978 554.312,310.850 560.412,312.481 564.087,313.438 569.452,314.714 574.376,315.849 582.975,317.657 588.781,318.792 595.983,320.068 601.569,320.955 607.816,321.912 612.887,322.586 622.662,323.756 631.922,324.677 639.345,325.280 646.033,325.670 653.529,325.989 662.055,326.167 667.787,326.238 677.268,326.273 690.497,326.131 698.728,325.918 708.503,325.564 720.703,324.997 732.977,324.358 742.310,323.827 754.069,323.188 758.773,322.905 769.944,322.266 782.732,321.557 784.128,321.451 791.478,321.061 798.754,320.635 805.662,320.175 812.571,319.678 820.655,319.075 826.314,318.614 833.664,318.118 846.452,317.586 855.271,317.622 860.121,317.764 866.589,318.189 871.293,318.650 878.715,319.678 889.446,321.876 893.929,323.082 898.265,324.394 903.703,326.308 908.481,328.223 913.037,330.315 919.211,333.612 923.547,336.272 929.647,340.562 932.807,343.044 935.894,345.561 937.731,347.157 941.039,350.064 945.522,354.390 948.461,357.262 950.666,359.566 951.328,360.311 956.546,366.906 957.648,368.714 959.045,371.870 960.000,377.791 959.559,381.017 958.530,383.854 958.163,384.634 956.472,387.399 953.386,391.158 950.960,393.604 947.800,396.512 945.889,398.178 941.112,402.043 933.248,407.787 929.720,410.198 923.400,414.630 919.064,417.644 914.728,420.622 911.273,423.033 908.260,425.125 904.438,427.784 901.866,429.415 902.234,429.131 899.661,430.727 894.296,433.351 888.270,435.549 881.214,437.286 878.348,437.818 872.248,438.775 867.030,439.343 860.048,439.520 854.903,439.449 848.142,439.201 843.438,438.953 838.588,438.669 831.606,438.173 825.065,437.605 815.657,436.613 804.266,435.372 793.168,434.166 779.939,432.641 772.590,431.826 763.771,430.869 754.731,429.947 748.263,429.309 738.930,428.422 728.861,427.394 722.761,426.827 714.089,426.047 710.561,425.763 703.946,425.196 693.951,424.451 687.998,424.061 684.397,423.848 682.119,423.742 676.680,423.600 669.331,423.707 665.288,423.990 661.614,424.380 653.015,425.834 648.679,426.862 644.931,427.961 641.623,429.060 636.258,431.223 630.893,433.953 627.953,435.762 625.087,437.676 621.486,440.335 618.840,442.392 614.063,446.363 612.152,448.029 608.698,451.291 606.420,453.596 602.304,457.815 598.409,461.928 595.248,465.261 591.721,468.949 587.605,473.274 583.122,477.954 580.329,480.933 575.772,485.719 570.922,490.612 568.129,493.413 563.646,497.774 558.722,502.526 556.003,505.078 552.989,507.950 549.535,511.177 544.684,515.751 538.364,521.636 532.999,526.529 527.928,531.139 522.783,535.783 516.977,540.818 514.037,543.300 511.318,545.463 508.305,547.768 505.733,549.505 503.528,550.888 501.984,551.774 495.149,555.036 492.063,556.206 489.049,557.128 486.330,557.837 478.907,559.185 473.101,559.787 468.912,560.000 463.179,560.000 458.549,559.787 455.095,559.504 451.714,559.078 448.334,558.546 444.365,557.766 439.073,556.348 435.252,555.107 432.238,553.937 430.034,552.909 426.285,551.065 423.640,549.505 417.907,545.569 412.762,541.421 409.529,538.584 407.544,536.776 403.429,533.018 402.473,532.096 397.549,527.593 391.082,521.743 387.921,519.013 383.291,514.935 379.470,511.531 377.338,509.688 370.871,504.050 367.123,500.753 362.933,497.101 357.642,492.562 353.600,489.088 349.190,485.258 345.148,481.677 341.988,478.983 338.533,475.933 332.507,470.721 327.142,466.041 324.643,463.843 318.102,458.099 314.868,455.192 309.724,450.653 307.151,448.384 304.138,445.760 298.185,440.548 294.363,437.215" fill="none" stroke="black" stroke-width="2"
            stroke-linejoin="round" stroke-linecap="round"/>
</svg>
