<?xml version="1.0" encoding="utf-8"?>
<svg xmlns="http://www.w3.org/2000/svg" width="1000" height="600">
  <polyline points="416.668,434.006 410.351,431.231 408.538,430.366 401.283,427.083 400.971,426.934 395.905,424.666 394.529,424.009 379.708,417.325 377.206,416.161 371.953,413.803 370.452,413.087 364.198,410.252 356.256,406.641 346.938,402.433 343.873,401.031 339.808,399.210 332.554,395.898 320.109,390.288 316.857,388.825 312.917,387.065 301.597,381.962 296.970,379.873 291.279,377.306 287.839,375.754 284.337,374.143 283.274,373.636 276.144,370.084 274.581,369.279 270.704,367.070 268.265,365.339 265.575,363.251 264.950,362.713 262.699,360.236 261.761,352.418 261.823,351.970 263.011,348.896 263.074,348.837 264.012,346.927 264.575,345.823 265.888,343.376 267.514,340.182 267.702,339.884 268.202,338.601 268.265,337.914 268.577,332.155 268.515,331.946 268.390,330.215 267.889,328.962 267.764,328.574 266.951,326.127 265.826,323.590 265.138,322.516 262.886,319.502 261.823,318.278 257.696,314.757 256.445,313.832 251.880,310.728 248.690,308.729 245.876,307.267 245.563,307.117 239.059,303.954 236.182,302.641 231.992,300.851 226.426,298.612 226.239,298.553 221.298,296.494 218.297,295.270 211.980,292.614 211.167,292.256 208.165,290.973 204.788,289.510 202.412,288.466 199.660,287.242 194.782,285.004 190.717,283.154 185.089,280.528 180.398,278.290 179.273,277.782 176.646,276.529 165.327,270.949 163.075,269.815 153.695,264.980 146.940,261.459 145.064,260.504 141.750,258.684 140.311,257.878 130.868,252.626 130.680,252.506 123.926,248.627 118.923,245.702 117.047,244.568 105.102,237.197 104.039,236.541 100.037,234.004 96.722,231.826 95.471,230.990 87.091,225.439 86.841,225.260 81.776,221.799 79.774,220.396 75.897,217.680 70.769,214.040 70.581,213.890 66.641,211.085 63.577,208.847 59.199,205.684 56.448,203.684 55.009,202.640 52.132,200.491 49.944,198.820 47.067,196.582 45.879,195.627 45.566,195.329 43.377,193.240 41.814,191.360 41.251,190.524 40.125,187.898 40.000,187.301 40.063,183.839 40.188,183.511 40.750,182.138 41.188,181.541 42.001,180.616 43.565,179.363 43.877,179.154 45.253,178.438 47.129,177.632 50.006,176.797 51.444,176.498 54.384,176.021 57.010,175.752 58.136,175.633 64.703,175.155 65.391,175.125 72.082,174.678 73.458,174.588 79.899,174.320 82.026,174.200 86.966,173.962 90.593,173.723 93.720,173.514 95.096,173.335 102.226,172.350 104.539,171.932 106.228,171.544 109.292,170.798 112.232,169.903 113.733,169.396 115.546,168.650 120.237,166.232 120.362,166.113 122.738,164.293 122.863,164.203 124.864,161.995 125.427,161.189 126.053,160.294 126.866,158.145 127.428,154.415 127.428,153.848 126.991,150.386 126.803,149.760 126.240,147.492 125.677,145.373 125.427,144.567 124.989,142.985 124.176,140.598 123.739,139.195 123.238,137.733 122.926,136.778 121.737,133.496 120.049,128.064 120.049,127.945 119.611,126.304 119.486,124.991 118.923,119.440 118.861,119.171 118.861,118.037 120.549,110.577 121.175,108.906 123.113,105.862 123.926,104.847 126.803,101.743 128.929,100.013 129.180,99.804 132.494,97.536 134.245,96.432 142.375,92.433 142.750,92.254 148.379,89.926 151.193,88.852 156.384,86.912 158.760,86.017 161.449,85.032 164.451,83.987 169.642,82.167 172.769,81.123 175.270,80.287 178.460,79.272 182.462,77.989 187.215,76.557 193.344,74.826 193.719,74.677 199.973,72.976 201.036,72.707 209.604,70.588 211.417,70.200 224.550,67.276 228.928,66.380 232.180,65.694 232.430,65.664 244.125,63.187 246.189,62.770 251.942,61.576 253.443,61.277 265.888,58.651 267.514,58.293 274.143,56.921 277.958,56.085 282.211,55.190 291.967,52.981 299.471,51.251 299.784,51.191 307.101,49.341 310.290,48.505 317.607,46.416 321.360,45.282 322.235,45.043 329.114,42.954 330.302,42.626 334.743,41.552 335.243,41.432 343.811,40.358 348.314,40.000 352.003,40.090 355.818,40.806 356.569,40.955 360.008,41.731 368.826,43.909 371.578,44.775 376.143,46.476 379.020,47.550 379.583,47.759 383.585,49.042 391.340,51.042 393.716,51.579 400.345,52.653 407.475,53.578 413.916,54.354 423.359,55.339 428.800,55.787 434.053,56.234 439.244,56.712 439.619,56.771 451.001,57.965 451.439,57.995 459.256,58.980 459.694,59.039 469.638,60.531 475.766,61.636 476.204,61.725 483.459,63.247 489.775,64.769 493.402,65.813 501.907,68.678 504.534,69.603 511.288,72.528 515.791,74.826 519.918,77.034 522.670,78.646 528.111,82.107 529.487,83.062 530.487,83.808 535.115,87.389 536.366,88.404 541.869,93.626 543.495,95.447 545.934,98.222 546.372,98.819 548.936,102.221 549.436,102.937 551.125,105.563 552.188,107.354 555.065,112.666 557.817,118.962 558.880,121.260 560.005,123.737 561.256,127.288 561.381,127.646 563.508,136.002 564.070,139.166 563.883,141.165 563.633,143.881 562.945,151.311 562.945,151.610 562.444,154.952 562.069,157.131 561.381,161.577 560.818,164.203 560.506,165.844 559.380,169.813 559.130,170.530 557.316,174.439 556.066,176.498 554.252,179.005 553.376,180.199 549.374,185.302 546.685,188.912 544.558,191.807 540.243,198.193 537.617,201.954 535.365,205.206 532.864,208.698 532.301,209.444 529.362,213.174 527.611,215.203 524.234,218.874 522.670,220.545 519.918,223.291 519.731,223.470 514.978,228.841 514.165,229.886 510.538,236.123 508.974,240.360 507.911,243.733 507.411,245.434 507.098,248.865 506.973,250.925 507.036,254.028 507.911,261.847 507.911,262.056 509.412,269.069 510.538,273.426 510.663,273.724 511.288,275.753 516.166,286.019 516.917,287.362 519.856,291.838 520.857,293.211 526.673,300.134 526.798,300.313 530.738,304.432 538.555,312.011 539.493,312.847 541.744,314.936 543.808,316.518 545.371,317.771 550.187,321.471 553.189,323.560 559.130,327.350 559.380,327.529 567.635,332.215 574.827,335.855 582.832,339.765 585.459,341.078 588.210,342.331 591.337,343.674 600.593,347.673 605.346,349.702 610.661,351.970 613.413,353.044 613.788,353.164 626.671,358.237 626.984,358.386 637.240,362.146 637.803,362.325 644.432,364.593 651.937,366.921 652.499,367.040 659.879,368.801 662.568,369.308 668.259,370.144 672.199,370.234 678.703,370.174 687.208,369.875 692.149,369.607 694.025,369.428 704.594,368.741 737.677,368.324 739.303,368.473 750.247,370.055 751.372,370.263 755.187,371.248 757.814,372.054 761.754,373.337 764.818,374.471 766.319,375.038 772.948,377.664 775.825,378.858 781.141,381.036 782.829,381.753 788.333,384.021 794.586,386.527 795.524,386.856 800.340,388.736 800.965,389.034 808.845,392.108 811.034,393.003 813.223,393.869 816.913,395.361 820.102,396.644 822.979,397.808 835.049,402.732 837.300,403.657 845.055,406.820 845.743,407.119 850.996,409.357 860.314,413.654 862.691,414.788 867.318,417.145 868.256,417.712 877.074,422.935 877.262,423.054 879.889,424.755 885.204,428.545 888.331,431.022 896.336,437.766 898.713,439.915 902.215,443.645 903.403,445.048 908.218,450.807 909.156,452.001 912.096,455.821 913.096,457.134 915.911,460.894 916.536,461.700 919.225,465.370 921.226,468.205 922.540,469.996 924.103,472.294 928.731,479.038 928.981,479.366 933.796,486.499 934.172,487.066 936.986,491.273 937.486,492.049 943.552,500.912 943.678,501.092 947.743,507.120 949.181,509.358 950.619,511.715 952.120,514.282 952.245,514.491 953.934,517.833 954.372,518.728 955.310,521.205 955.560,521.742 956.623,524.697 956.998,525.741 957.999,528.009 958.311,528.696 958.812,530.009 958.812,530.098 959.812,533.172 959.937,533.799 960.000,535.768 960.000,536.126 959.500,537.887 959.124,538.782 958.249,539.976 957.186,541.050 956.373,541.617 954.372,542.602 954.184,542.632 948.493,544.184 948.305,544.213 945.116,544.840 943.115,545.139 936.548,546.123 935.860,546.213 931.983,546.750 930.670,546.899 926.542,547.496 922.977,547.944 922.164,548.063 917.537,548.660 916.786,548.749 912.096,549.376 906.030,550.092 902.152,550.570 894.648,551.405 893.709,551.495 888.769,552.032 886.830,552.271 883.954,552.569 881.452,552.868 875.761,553.554 874.635,553.703 865.567,554.867 863.128,555.166 859.063,555.673 846.868,557.105 845.743,557.284 839.614,558.180 837.675,558.418 831.859,559.164 826.043,559.642 821.853,559.910 815.662,560.000 812.222,559.851 805.843,559.433 800.840,558.747 799.089,558.299 791.647,556.180 791.397,556.091 788.395,554.987 786.081,554.002 782.016,552.092 780.390,551.256 775.450,548.332 774.637,547.795 768.821,543.646 766.382,541.796 764.818,540.364 763.630,539.260 760.816,536.634 758.189,534.097 752.998,529.024 752.811,528.815 750.935,526.995 749.809,525.801 749.184,525.144 745.807,521.683 744.806,520.638 742.742,518.519 737.426,513.595 735.863,512.253 732.736,510.074 732.611,509.985 730.672,508.552 729.922,508.015 728.171,506.881 725.544,505.359 723.043,504.285 719.165,503.061 718.227,502.793 717.352,502.584 715.851,502.464 715.225,502.434 709.597,502.434 709.472,502.434 706.658,502.793 704.281,503.270 703.030,503.598 701.092,504.135 700.029,504.553 696.026,506.374 695.588,506.553 693.650,507.716 693.525,507.746 690.710,509.656 690.585,509.716 690.335,509.955 688.959,510.969 688.459,511.417 686.645,512.849 685.207,514.073 680.266,517.743 680.079,517.833 673.888,520.907 671.511,521.862 669.760,522.488 664.882,523.980 664.632,524.010 658.128,525.592 653.750,526.517 648.747,526.935 642.994,527.114 640.617,527.144 634.614,526.905 626.359,525.890 625.858,525.801 621.731,525.144 619.104,524.607 614.664,523.622 610.224,522.429 609.286,522.130 599.467,518.370 597.403,517.564 595.840,516.938 593.714,515.983 591.337,514.879 580.393,509.925 580.080,509.805 569.949,505.031 569.324,504.732 565.446,502.912 563.570,502.046 560.568,500.644 557.817,499.361 549.749,495.601 548.248,494.884 543.308,492.587 537.179,489.692 535.115,488.737 531.488,487.066 522.357,482.798 521.232,482.261 511.413,477.665 510.538,477.248 505.410,474.890 495.028,470.026 493.965,469.519 489.775,467.519 481.645,463.729 480.707,463.252 474.641,460.476 468.324,457.492 466.949,456.865 456.129,451.971 455.066,451.464 445.873,447.346 443.747,446.331 435.054,442.422 428.738,439.587 427.174,438.871 426.174,438.393 421.296,436.065 416.418,433.857" fill="none" stroke="black" stroke-width="2"
            stroke-linejoin="round" stroke-linecap="round"/>
</svg>
