<?xml version="1.0" encoding="utf-8"?>
<svg xmlns="http://www.w3.org/2000/svg" width="1000" height="600">
  <polyline points="176.096,43.021 181.000,43.524 183.292,43.726 191.380,44.682 192.845,44.833 201.761,45.991 202.462,46.042 212.269,47.301 214.243,47.603 222.204,48.610 225.134,49.012 232.330,49.969 236.279,50.523 242.583,51.328 247.487,51.983 252.900,52.688 260.670,53.695 263.281,53.997 272.197,55.155 273.853,55.356 283.724,56.615 284.425,56.665 295.124,57.974 295.379,58.025 305.887,59.284 307.160,59.485 316.777,60.593 319.006,60.895 327.731,61.902 330.979,62.304 338.685,63.211 342.952,63.765 349.830,64.570 355.243,65.225 361.102,65.879 367.343,66.634 372.438,67.239 381.354,68.346 385.812,68.850 396.639,70.159 397.403,70.209 409.057,71.569 409.376,71.619 420.775,72.928 422.113,73.129 432.557,74.287 434.977,74.589 444.466,75.546 445.931,75.697 456.439,76.704 458.987,76.956 468.539,77.862 472.169,78.215 480.640,78.919 485.416,79.373 492.867,80.027 498.663,80.531 505.095,81.084 512.992,81.840 518.787,82.343 527.003,83.098 531.142,83.451 540.377,84.357 542.415,84.508 554.005,85.616 554.897,85.666 567.443,86.824 567.698,86.875 579.989,87.982 581.390,88.133 592.599,89.090 595.146,89.342 605.208,90.248 608.966,90.600 617.945,91.406 622.913,91.909 630.683,92.614 636.796,93.269 643.420,93.923 650.743,94.679 656.220,95.232 664.691,96.139 669.021,96.592 678.701,97.599 681.886,97.901 692.776,99.059 694.814,99.260 706.850,100.569 707.678,100.620 720.670,101.929 720.989,101.979 733.598,103.288 735.127,103.490 746.590,104.648 749.329,104.899 759.646,105.957 763.339,106.309 771.809,107.215 779.006,107.971 784.483,108.575 792.953,109.431 797.347,109.884 807.155,110.891 810.403,111.243 819.128,112.149 823.522,112.603 835.877,113.861 836.641,113.962 849.124,115.271 849.442,115.271 860.332,116.379 861.606,116.479 870.458,117.386 872.433,117.537 879.565,118.292 882.113,118.544 887.717,119.249 890.647,119.601 895.041,120.205 898.225,120.658 900.964,121.162 904.848,121.917 906.759,122.370 910.644,123.428 911.917,123.830 915.802,125.240 916.503,125.542 920.260,127.355 920.579,127.506 924.145,129.671 924.209,129.721 927.075,131.987 927.329,132.239 929.495,134.605 929.877,135.159 931.342,137.424 932.042,138.834 932.743,140.395 933.379,142.057 933.762,143.366 934.080,145.279 934.207,146.336 934.271,148.652 934.271,149.458 934.016,152.126 933.953,152.630 933.316,155.600 933.316,155.852 932.488,159.225 932.424,159.276 931.787,162.649 931.660,163.002 931.405,165.922 931.342,166.576 931.533,168.993 931.660,169.849 932.297,171.863 932.743,172.920 933.634,174.531 934.462,175.689 935.481,176.948 936.627,178.207 937.646,179.113 939.366,180.372 940.321,180.976 942.614,182.235 943.378,182.688 946.180,184.047 946.690,184.349 949.874,186.061 950.129,186.212 953.377,188.377 953.440,188.428 956.179,190.895 956.434,191.197 958.153,193.865 958.472,194.469 959.363,196.785 959.618,198.044 959.936,200.209 960.000,201.871 960.000,203.734 959.745,206.352 959.682,207.308 959.045,210.430 958.917,211.084 957.898,214.609 957.835,214.911 956.561,218.939 956.497,219.040 955.033,223.269 954.778,223.772 953.249,227.851 952.804,228.807 951.148,232.583 950.447,234.043 948.791,237.618 947.772,239.682 946.180,242.854 944.970,245.070 943.633,247.537 941.786,250.658 940.321,253.176 937.965,256.902 936.818,258.865 933.889,263.195 932.934,264.655 929.304,269.640 928.667,270.596 924.336,276.235 924.081,276.638 919.305,282.781 919.114,282.932 914.401,288.923 913.764,289.628 909.243,295.318 908.096,296.627 903.893,301.662 902.237,303.575 898.416,308.156 897.206,309.566 892.876,314.903 891.156,316.967 887.335,321.801 885.106,324.570 881.858,328.900 879.119,332.324 876.317,336.050 873.133,340.279 870.840,343.451 867.147,348.385 865.300,350.902 861.033,356.642 859.695,358.505 854.919,364.899 854.537,365.453 848.742,373.156 848.550,373.308 842.882,380.910 841.099,383.176 836.960,388.765 834.603,391.785 830.910,396.669 827.980,400.445 824.796,404.624 821.166,409.156 818.555,412.579 814.351,417.816 812.186,420.534 806.900,426.778 805.181,428.892 798.939,436.143 797.857,437.452 791.807,444.500 791.425,444.954 785.629,451.650 784.419,452.959 780.280,457.641 778.751,459.253 775.440,462.978 773.593,464.942 770.982,467.862 769.007,469.926 767.160,472.091 765.123,474.357 763.913,475.918 762.384,477.781 761.747,478.737 760.028,481.204 759.518,482.060 757.926,484.679 757.735,485.182 756.461,488.002 756.398,488.203 755.570,491.123 755.506,491.174 755.251,493.741 755.251,493.943 755.379,496.662 755.379,496.712 756.016,499.229 756.270,499.934 757.162,501.596 757.735,502.452 758.881,503.710 759.837,504.617 760.983,505.573 762.384,506.530 763.530,507.184 765.377,508.141 766.396,508.594 768.689,509.551 769.198,509.802 772.192,511.061 772.446,511.162 775.631,512.672 775.694,512.672 778.433,514.334 778.688,514.485 780.725,516.096 781.108,516.448 782.509,518.009 782.891,518.613 783.719,520.074 783.973,520.879 784.356,522.239 784.483,523.246 784.547,524.404 784.292,525.562 784.101,526.468 783.337,528.129 783.209,528.431 781.808,530.093 781.744,530.244 779.898,532.006 779.834,532.006 777.669,533.718 777.350,533.869 775.121,535.380 774.484,535.682 772.128,537.041 771.173,537.545 768.944,538.803 767.606,539.508 765.505,540.666 763.721,541.623 761.747,542.730 758.690,544.392 757.671,544.996 753.850,547.060 753.150,547.514 748.628,550.232 748.373,550.434 744.488,552.800 743.852,553.203 739.839,555.469 739.648,555.620 735.636,557.533 735.509,557.583 731.688,558.943 731.178,559.043 727.803,559.698 726.338,559.849 724.236,560.000 722.517,559.950 720.797,559.899 718.887,559.648 717.549,559.446 715.512,558.892 714.875,558.691 712.646,557.684 712.264,557.483 710.098,556.022 709.971,555.922 707.997,554.059 707.933,554.009 706.468,551.844 706.022,551.139 705.258,549.477 704.812,548.470 704.367,546.909 703.984,545.600 703.793,544.191 703.602,542.529 703.602,541.270 703.539,539.206 703.602,538.149 703.730,535.732 703.857,534.926 704.176,531.956 704.303,531.402 704.876,527.827 704.940,527.626 705.831,523.548 705.831,523.397 706.850,519.167 706.978,518.563 708.124,513.881 708.379,512.672 709.461,508.242 709.780,506.580 710.671,502.905 711.117,500.740 711.945,497.316 712.582,494.497 713.283,491.476 713.983,488.002 714.620,485.434 715.575,481.204 716.085,479.090 716.913,475.314 717.613,472.595 718.696,468.164 719.269,465.949 720.543,460.763 720.989,459.101 722.453,453.110 722.772,452.053 724.364,445.306 724.491,444.903 726.147,437.552 726.147,437.301 727.675,430.302 727.803,429.396 729.077,423.606 729.268,422.246 729.713,418.017 729.713,415.651 729.650,412.076 729.522,409.407 729.268,406.638 728.694,403.718 728.058,401.603 726.720,398.331 725.892,396.720 723.727,393.246 722.963,392.188 719.970,388.714 719.396,388.160 715.257,384.737 715.002,384.535 710.035,381.212 709.844,381.112 704.558,378.242 703.857,377.889 698.762,375.321 696.406,374.113 692.903,372.200 690.101,370.538 687.235,368.675 683.987,366.410 681.631,364.648 678.065,361.727 676.409,360.217 672.779,356.592 671.696,355.383 667.939,351.053 667.302,350.248 663.481,345.112 663.226,344.810 658.959,339.322 658.832,339.171 653.991,334.136 653.355,333.532 648.451,329.404 647.177,328.447 642.210,325.174 640.235,324.016 635.523,321.549 633.994,320.844 628.390,318.579 626.097,317.773 620.875,316.263 617.754,315.457 612.978,314.450 609.093,313.796 604.826,313.292 599.604,312.839 595.783,312.637 589.860,312.486 586.931,312.486 580.116,312.386 578.015,312.386 570.882,312.184 570.372,312.184 562.539,311.580 562.284,311.530 555.343,310.523 554.515,310.372 548.656,309.012 547.318,308.610 542.606,307.049 540.950,306.294 537.256,304.431 534.326,302.618 532.352,301.158 529.486,298.691 528.149,297.432 525.283,294.411 524.455,293.455 521.589,289.930 521.144,289.276 518.341,285.046 518.214,284.795 515.603,280.062 515.476,279.911 513.183,275.077 512.864,274.473 510.444,269.942 509.744,268.834 507.133,264.806 505.986,263.246 503.439,259.822 502.038,258.211 499.809,255.995 497.771,254.233 495.287,252.370 491.912,250.054 489.173,248.342 484.524,245.825 482.168,244.617 476.564,241.998 474.717,241.193 468.157,238.373 466.947,237.870 460.897,235.453 458.987,234.698 451.981,232.029 450.771,231.576 442.810,228.757 442.365,228.606 433.640,225.736 433.321,225.635 424.533,223.067 423.386,222.715 415.107,220.651 413.006,220.147 405.427,218.385 400.587,217.277 395.556,216.220 389.760,215.012 386.385,214.407 378.616,212.998 376.132,212.595 367.280,211.135 365.687,210.933 355.816,209.524 355.052,209.423 342.442,207.812 342.124,207.761 331.234,206.503 329.960,206.352 321.044,205.395 318.751,205.143 309.835,204.338 306.396,203.985 298.436,203.280 293.914,202.878 286.972,202.273 281.368,201.770 275.381,201.266 268.694,200.662 263.727,200.259 255.894,199.555 251.945,199.253 243.029,198.397 240.291,198.195 231.438,197.390 229.910,197.289 221.058,196.483 220.485,196.433 211.887,195.678 211.632,195.627 204.117,194.973 203.226,194.872 197.112,194.268 195.711,194.117 190.807,193.513 189.088,193.211 185.203,192.506 183.229,192.002 180.172,191.247 177.943,190.492 175.650,189.636 173.294,188.478 171.574,187.622 169.027,186.061 167.817,185.306 164.760,182.839 164.569,182.688 161.767,179.868 161.703,179.768 159.474,176.797 159.283,176.394 157.754,173.424 157.245,171.964 156.481,169.648 156.099,167.684 155.716,165.972 155.334,163.153 155.143,161.692 155.016,158.218 154.952,157.161 155.080,153.234 155.080,152.328 155.589,145.430 155.589,144.977 156.099,139.640 156.162,139.489 156.481,134.051 156.544,133.397 156.735,128.815 156.799,127.758 156.926,124.032 156.926,122.672 156.799,119.853 156.735,118.292 156.417,116.077 156.162,114.365 155.716,112.653 155.271,110.790 154.825,109.531 153.997,107.668 153.487,106.863 152.277,105.151 151.768,104.698 149.985,103.238 149.603,102.986 147.310,101.828 147.119,101.727 144.508,100.871 144.444,100.871 141.769,100.519 141.515,100.519 139.158,100.569 138.649,100.670 136.675,100.972 135.974,101.224 134.318,101.778 133.554,102.180 132.280,102.785 131.707,103.137 130.306,103.993 129.223,104.748 128.332,105.252 126.994,106.108 126.230,106.611 124.574,107.668 124.001,108.071 121.836,109.280 121.390,109.531 118.397,110.941 118.015,111.092 114.894,112.149 114.130,112.301 111.391,112.804 109.863,112.955 107.316,113.207 105.341,113.257 103.112,113.257 99.992,113.056 98.909,113.005 95.215,112.502 94.515,112.452 91.267,111.847 90.948,111.847 86.172,111.092 86.045,111.042 81.141,110.387 80.568,110.287 75.600,109.682 74.454,109.531 69.805,109.078 68.149,108.877 64.264,108.474 61.335,108.122 59.169,107.870 56.049,107.366 54.520,107.064 51.400,106.208 50.444,105.906 47.579,104.597 47.069,104.295 44.649,102.382 44.458,102.231 42.611,99.764 42.611,99.713 41.337,97.095 41.274,96.793 40.509,94.427 40.446,93.873 40.064,91.758 40.064,91.003 40.000,89.090 40.064,88.033 40.255,86.270 40.573,84.810 40.892,83.199 41.401,81.437 41.783,80.128 42.675,78.013 43.121,76.905 44.394,74.388 44.840,73.582 46.751,70.763 47.069,70.209 49.744,66.936 49.871,66.685 53.247,63.211 53.374,63.110 57.259,59.737 57.832,59.334 61.526,56.565 63.118,55.558 66.875,53.292 69.168,52.084 72.798,50.271 75.919,48.962 79.358,47.603 83.242,46.344 86.299,45.387 91.267,44.129 93.878,43.474 99.864,42.316 101.839,41.964 110.118,40.906 110.372,40.906 118.715,40.252 119.798,40.252 127.504,40.000 129.414,40.000 136.420,40.050 140.878,40.201 145.590,40.403 150.876,40.755 154.825,41.007 161.257,41.561 164.250,41.813 170.046,42.417 172.020,42.568 176.159,43.021" fill="none" stroke="black" stroke-width="2"
            stroke-linejoin="round" stroke-linecap="round"/>
</svg>
