<?xml version="1.0" encoding="utf-8"?>
<svg xmlns="http://www.w3.org/2000/svg" width="1000" height="600">
  <polyline points="420.318,122.152 422.845,124.454 430.921,131.801 437.580,137.732 439.429,139.414 444.731,144.195 449.786,148.798 453.978,152.605 461.068,158.979 467.726,164.998 473.090,169.779 478.083,174.293 478.947,175.090 486.036,181.464 493.804,188.458 496.147,190.494 500.401,194.300 518.402,209.792 518.526,209.881 522.533,213.422 525.615,216.078 537.082,225.727 543.925,231.216 553.974,238.740 554.036,238.829 562.975,245.468 568.894,249.894 574.319,254.055 578.511,257.242 583.751,261.314 585.724,262.731 588.313,264.590 591.519,266.980 598.486,272.469 601.013,274.593 603.849,277.337 605.575,279.196 609.028,282.826 610.631,284.685 613.775,288.846 614.576,290.262 615.809,292.918 617.535,297.964 618.213,302.125 618.337,305.134 618.275,305.666 617.967,309.561 617.597,312.394 617.412,313.279 617.165,314.164 615.932,317.882 614.699,320.538 614.206,321.600 613.220,323.371 611.679,326.027 611.370,326.646 609.213,330.099 608.658,330.984 607.918,332.046 606.007,334.791 604.466,337.181 601.445,341.607 601.383,341.607 599.410,344.528 597.314,347.538 596.636,348.689 595.280,350.725 594.108,352.673 592.937,354.443 591.457,357.188 587.697,365.066 587.204,366.129 584.429,373.830 583.505,378.080 583.381,378.876 583.258,378.611 583.011,380.912 581.902,389.499 581.655,392.244 581.285,396.493 581.409,398.529 581.470,401.362 581.409,412.516 581.347,415.526 580.915,422.077 580.052,429.513 579.991,430.133 578.943,436.595 577.956,441.464 577.895,441.553 575.983,449.343 574.565,453.504 571.298,462.002 571.051,462.799 568.770,467.756 564.886,473.776 563.715,475.458 562.790,476.697 561.249,478.645 557.365,483.248 553.974,486.612 551.817,488.648 544.542,494.580 540.350,497.678 535.664,500.688 533.198,502.193 530.486,503.698 526.109,505.822 519.266,508.832 515.073,510.249 511.868,511.222 504.716,512.816 499.106,513.878 491.338,514.675 485.481,514.586 485.297,514.498 472.350,512.993 467.048,512.108 460.698,510.249 458.047,509.275 454.410,507.858 449.046,505.380 433.881,495.907 432.894,495.199 428.949,492.278 426.051,489.888 424.140,488.294 413.721,479.265 410.639,476.432 401.514,468.110 397.631,464.569 393.808,461.117 388.321,456.071 386.040,453.946 378.211,446.776 377.348,445.979 366.374,435.887 366.189,435.710 355.339,425.707 348.681,419.687 344.673,416.057 343.009,414.552 336.967,409.064 330.001,402.778 322.603,396.227 318.472,392.509 313.972,388.526 308.115,383.391 306.574,381.975 296.586,374.362 296.463,374.185 291.470,371.263 289.373,370.024 281.975,367.191 271.742,365.686 269.522,365.420 261.076,367.280 260.090,367.722 256.206,369.139 252.815,370.998 243.013,377.814 240.855,379.408 237.588,382.860 237.218,383.303 233.519,387.552 228.032,393.837 223.285,399.237 216.010,406.762 208.489,411.985 207.749,412.428 198.872,415.703 194.001,416.765 186.973,417.031 183.089,416.323 181.610,415.880 178.835,414.818 174.951,412.870 174.335,412.428 166.135,405.523 165.642,405.080 161.820,400.654 161.327,400.123 153.929,389.499 152.757,387.818 145.791,377.283 143.942,374.627 135.742,364.093 135.680,363.916 130.995,359.489 128.036,357.188 121.624,353.292 119.405,352.230 115.768,350.725 107.013,349.663 105.225,349.840 100.848,350.548 95.916,352.053 91.416,353.824 87.840,355.417 87.285,355.683 79.826,359.755 79.271,360.109 73.476,364.093 72.181,365.066 68.359,368.519 67.742,369.050 63.797,373.388 62.441,374.981 58.618,380.204 58.557,380.293 54.611,386.844 53.563,388.791 51.159,393.749 51.159,393.837 48.631,399.680 48.384,400.388 46.227,406.408 45.610,408.267 44.624,411.631 41.849,423.670 41.356,425.884 40.616,429.867 40.370,433.674 40.062,441.464 40.000,442.792 40.123,448.281 40.185,448.281 40.678,454.035 41.480,459.346 42.528,463.418 45.302,471.740 46.473,474.130 48.939,477.848 49.247,478.202 51.590,480.681 54.549,482.629 55.166,483.071 58.803,484.311 60.776,484.399 63.550,484.133 67.373,483.514 69.099,483.071 71.503,482.186 73.229,481.566 77.730,480.061 81.860,478.822 83.586,478.291 87.779,477.406 92.464,476.609 95.177,476.343 102.944,475.901 104.301,475.989 114.720,476.786 114.905,476.786 118.480,476.874 124.768,478.910 137.653,484.399 139.626,485.373 146.346,488.560 147.024,488.825 152.942,491.570 153.559,491.924 159.724,494.757 164.718,496.970 179.020,502.370 179.760,502.724 186.418,504.406 189.069,504.671 199.180,505.114 200.105,505.114 209.537,504.494 223.531,502.901 223.778,502.812 229.881,502.104 233.272,501.573 235.985,501.307 249.918,499.803 253.247,499.448 259.782,499.094 262.309,499.094 274.393,498.740 275.441,498.652 280.496,498.563 282.469,498.475 289.004,498.475 295.847,498.298 302.320,498.209 305.341,498.121 313.848,497.943 314.896,497.855 319.644,497.855 326.548,497.678 329.384,497.678 340.235,497.501 346.954,497.589 355.770,498.032 355.894,498.032 365.573,499.271 371.368,500.511 371.553,500.511 388.815,506.619 389.000,506.619 401.453,512.550 407.988,516.003 411.563,517.862 415.571,519.898 427.407,525.829 429.688,526.980 435.607,529.724 437.395,530.609 450.403,536.452 455.026,538.577 463.472,542.206 469.637,544.685 470.439,545.039 477.529,547.695 481.474,549.111 489.674,551.767 490.845,552.121 502.127,554.954 512.237,557.256 517.724,558.318 523.088,558.849 523.951,558.938 529.808,559.469 534.308,559.734 542.199,560.000 553.111,559.823 554.098,559.823 564.208,559.115 571.421,558.495 574.504,558.141 579.312,557.521 587.512,556.282 591.827,555.574 600.212,553.892 602.123,553.538 615.193,549.997 617.227,549.465 627.954,545.836 636.523,542.383 637.510,542.029 645.833,538.400 651.258,536.010 659.704,531.937 670.246,526.891 670.431,526.714 687.076,518.747 696.262,514.232 706.126,509.452 709.640,507.681 730.539,497.501 730.663,497.412 738.924,493.340 745.335,489.976 755.631,484.222 765.063,479.088 770.797,475.724 776.530,472.271 776.653,472.094 785.839,466.428 789.785,463.861 800.635,456.868 805.999,453.415 812.719,448.900 814.198,447.926 822.213,442.349 828.439,438.100 836.515,432.434 843.297,427.743 846.318,425.618 851.496,421.723 853.161,420.572 861.854,413.933 867.710,409.418 872.272,405.611 875.786,402.601 877.081,401.539 881.581,397.555 882.198,397.024 888.610,390.650 889.288,389.942 892.493,386.136 893.110,385.427 896.994,380.204 898.227,378.522 900.816,373.742 901.063,373.122 902.974,368.962 903.159,368.342 904.700,363.561 904.947,362.765 905.687,358.781 905.995,355.683 905.933,353.381 905.748,351.433 905.317,349.309 904.392,346.742 902.049,341.873 901.371,340.545 899.891,338.066 899.152,337.092 898.720,336.473 896.994,334.259 896.069,333.020 894.775,331.427 893.603,330.010 891.076,327.000 889.966,325.761 887.808,323.194 885.157,320.007 885.095,319.918 881.335,314.784 881.273,314.695 878.376,310.003 877.081,307.525 875.170,303.187 873.875,299.646 873.629,298.849 872.396,293.980 872.149,292.298 871.656,286.898 871.594,284.154 871.656,280.436 872.272,275.744 872.396,274.593 872.889,272.114 873.382,270.432 874.245,267.334 874.862,265.564 875.540,263.616 876.834,260.606 878.376,257.596 879.300,256.180 882.568,251.665 883.246,250.780 886.328,248.035 890.212,245.468 891.260,244.937 893.788,243.521 894.775,243.432 895.514,243.344 898.473,242.635 898.905,242.547 903.714,242.016 905.563,241.927 909.386,241.750 914.194,241.573 917.215,241.485 921.592,241.219 924.613,240.599 927.202,239.891 929.607,238.829 936.881,234.225 939.101,232.543 940.827,230.507 942.245,228.737 945.512,224.842 945.574,224.665 948.533,220.238 950.691,216.255 954.082,209.792 956.116,205.277 957.102,202.533 957.164,202.356 957.287,201.648 957.472,201.117 958.089,199.081 958.397,197.930 959.507,192.530 959.692,190.228 959.938,184.385 960.000,183.235 959.815,180.490 959.507,179.517 958.520,177.126 956.918,173.939 956.856,173.851 952.910,169.513 952.109,168.274 950.937,165.264 950.383,162.343 950.259,161.015 950.259,159.067 950.444,157.385 950.506,156.500 950.937,152.251 951.184,149.949 951.369,147.736 951.801,144.726 952.232,142.070 952.479,140.388 953.157,135.873 953.527,133.395 953.773,131.624 954.020,129.854 954.390,127.109 955.253,121.355 955.746,118.168 956.054,115.424 956.424,112.060 956.733,109.493 957.102,105.509 957.226,104.004 957.287,102.322 957.287,98.515 956.918,94.266 956.856,93.558 956.116,90.017 955.869,89.309 954.760,86.565 953.712,84.794 952.972,83.820 950.629,81.607 949.951,80.899 948.410,79.837 947.423,79.305 945.389,78.420 944.834,78.243 941.813,77.269 941.197,77.181 938.053,76.561 937.621,76.561 934.785,76.296 933.860,76.207 928.928,76.296 927.326,76.473 923.873,76.650 917.523,76.738 916.414,76.738 913.701,76.650 912.468,76.561 904.269,76.473 901.556,76.473 897.487,76.296 892.678,75.941 888.610,75.587 887.068,75.587 881.212,75.322 873.382,75.145 873.197,75.145 862.408,74.968 861.545,74.968 855.380,74.879 854.024,74.879 845.455,74.791 839.906,74.614 833.310,74.525 826.775,74.348 826.528,74.348 811.671,74.082 808.650,74.082 805.321,73.994 804.334,73.905 796.012,73.728 795.827,73.728 785.469,73.551 783.127,73.551 773.633,73.374 767.776,73.197 765.926,73.197 756.309,72.932 756.124,72.932 748.664,72.755 746.383,72.755 733.745,72.312 726.779,72.046 721.045,71.692 714.141,71.338 709.517,70.984 695.769,70.099 694.967,70.010 684.980,69.391 683.932,69.391 677.829,69.125 662.416,68.771 661.060,68.771 654.525,68.682 652.737,68.594 646.018,68.505 641.949,68.328 637.510,68.151 631.530,67.797 629.372,67.709 622.097,67.177 621.851,67.177 607.117,66.115 604.466,65.850 599.904,65.495 599.657,65.495 591.026,64.876 590.224,64.787 581.162,64.079 579.436,63.902 564.886,62.840 562.605,62.751 555.516,62.131 554.283,62.043 543.987,61.246 543.802,61.246 533.137,60.361 531.287,60.184 523.088,59.564 519.635,59.299 512.053,58.767 504.655,58.148 489.735,57.263 480.056,56.731 475.741,56.554 469.144,56.289 467.048,56.289 457.184,55.935 451.451,55.846 445.163,55.669 442.697,55.669 435.299,55.403 429.627,55.315 417.112,54.872 407.433,54.695 403.857,54.518 398.000,54.430 385.116,54.076 383.328,53.987 374.080,53.810 372.786,53.721 358.668,53.367 353.797,53.190 345.413,53.013 341.468,52.836 331.973,52.571 324.391,52.394 314.342,52.128 311.197,52.039 299.422,51.685 298.251,51.685 289.250,51.508 283.640,51.331 273.283,50.977 271.248,50.889 265.577,50.623 256.822,50.092 247.575,49.207 243.383,48.764 237.464,47.879 221.559,45.577 220.572,45.400 210.955,44.072 206.208,43.364 205.715,43.275 201.214,42.656 197.269,42.125 195.666,41.859 190.117,41.062 190.056,41.062 185.062,40.531 182.288,40.266 181.795,40.177 178.527,40.089 176.431,40.000 172.547,40.089 169.218,40.443 167.738,40.620 166.197,40.974 162.375,41.771 160.772,42.302 159.477,42.744 153.990,46.285 153.990,46.374 152.757,47.790 152.449,48.233 150.846,50.889 150.415,51.862 149.675,53.721 148.442,59.387 148.442,59.476 148.257,62.751 148.380,64.522 148.442,64.610 148.750,67.531 148.874,68.328 149.367,70.541 149.552,70.984 150.723,74.614 150.785,74.879 151.463,76.561 152.079,77.712 152.264,78.066 154.730,82.138 155.963,83.997 156.826,85.148 159.292,88.069 159.601,88.424 161.758,90.814 161.820,90.902 164.841,93.824 165.396,94.266 168.232,96.391 170.636,98.161 173.657,100.375 173.780,100.463 176.986,102.765 181.178,105.863 181.795,106.306 186.233,109.670 187.466,110.555 189.871,112.326 190.919,112.945 202.324,118.965 202.447,119.053 205.653,120.204 207.811,120.381 211.818,120.824 213.051,120.912 217.305,121.001 222.730,120.558 223.901,120.381 231.423,118.788 232.286,118.611 237.773,116.575 240.362,115.335 243.259,113.830 245.910,112.326 252.260,108.696 253.062,108.253 258.055,105.332 262.864,102.499 271.988,97.276 272.173,97.188 286.044,89.751 289.805,87.981 293.936,86.387 303.430,83.466 306.512,82.581 308.238,82.227 314.465,81.253 316.068,81.164 324.021,80.545 324.945,80.545 333.515,80.279 334.501,80.279 346.646,81.519 351.085,82.138 356.633,83.378 360.332,84.971 361.627,85.414 369.518,88.689 372.231,90.106 381.478,95.417 389.739,100.197 391.527,101.083 399.912,105.598 401.638,106.483 409.159,111.883 416.434,118.434 419.023,120.912 421.366,123.037 422.229,123.922" fill="none" stroke="white" stroke-width="4"
            stroke-linejoin="round" stroke-linecap="round"/>
</svg>
