<?xml version="1.0" encoding="utf-8"?>
<svg xmlns="http://www.w3.org/2000/svg" width="1000" height="600">
  <polyline points="42.463,389.020 41.847,385.598 40.862,378.646 40.862,377.777 40.000,371.694 40.000,370.065 40.739,360.723 40.862,359.256 42.339,349.806 42.463,349.643 43.571,344.048 44.063,341.659 46.403,333.457 48.249,328.135 49.481,325.093 52.559,318.412 52.805,317.869 57.115,309.668 58.715,306.898 59.823,305.214 60.808,303.748 61.916,301.901 64.502,298.045 65.118,297.176 67.088,294.677 67.457,294.297 70.043,291.255 70.412,290.767 72.752,288.594 72.875,288.540 76.815,285.933 78.908,284.846 83.587,283.163 90.851,281.859 90.974,281.805 97.623,280.882 102.671,280.393 108.828,279.904 110.921,279.741 114.738,279.469 128.897,278.872 130.375,278.818 134.684,278.655 136.531,278.600 141.087,278.437 150.814,278.057 150.937,278.003 156.601,277.786 173.223,276.971 176.301,276.808 186.397,276.102 187.382,276.048 198.956,275.124 204.989,274.527 212.131,273.875 214.839,273.604 224.566,272.572 229.491,272.028 237.248,271.214 241.312,270.725 253.009,269.476 264.706,268.172 271.601,267.412 277.511,266.814 288.715,265.565 289.208,265.511 309.031,263.230 312.971,262.795 324.299,261.329 336.365,260.297 338.951,260.079 359.390,258.559 359.759,258.504 374.288,257.853 378.597,257.744 385.000,257.472 391.526,257.255 413.812,255.734 414.058,255.680 424.524,254.431 429.449,253.670 452.473,249.054 454.320,248.619 466.510,245.795 470.819,244.872 478.699,243.133 484.732,241.939 494.582,240.038 499.015,239.277 523.640,235.638 524.010,235.584 547.650,233.357 552.329,232.977 573.383,231.673 573.630,231.619 585.819,231.022 598.009,230.315 607.736,229.772 617.709,229.012 618.817,228.958 631.868,227.654 635.808,227.165 643.196,226.079 651.322,224.558 661.049,222.494 663.266,221.951 674.839,218.475 675.455,218.258 681.488,215.977 682.104,215.705 688.999,212.555 689.491,212.283 695.525,208.536 698.233,206.472 700.327,204.571 703.035,201.529 703.528,200.769 706.606,194.034 706.729,193.925 707.222,189.580 707.222,188.548 706.360,184.312 706.237,183.388 704.882,180.184 703.897,178.772 699.095,172.634 698.726,172.037 696.263,169.593 693.431,167.529 692.939,167.149 686.660,162.640 686.660,162.586 679.641,158.295 679.518,158.187 671.761,153.950 670.037,153.136 664.497,150.203 660.926,148.247 659.941,147.650 653.908,143.468 653.415,143.196 649.968,139.937 648.367,137.276 647.752,135.918 647.505,133.148 647.752,131.139 649.106,128.151 649.352,127.771 654.893,121.253 658.217,118.212 660.064,116.963 660.187,116.854 664.004,114.138 664.127,114.084 674.839,107.621 678.533,105.665 678.903,105.502 683.581,103.221 686.783,101.592 695.032,97.518 704.882,92.630 705.498,92.358 716.456,86.221 719.165,84.537 726.799,79.703 732.463,76.119 735.910,73.783 738.619,71.991 746.499,67.103 752.532,63.626 759.673,59.499 764.475,56.783 767.677,55.154 768.415,54.773 774.695,51.460 777.650,49.939 781.959,47.767 790.332,44.019 790.455,43.965 793.287,42.879 796.242,41.792 801.906,40.597 802.521,40.543 809.416,40.272 810.278,40.217 817.543,41.249 818.035,41.304 821.729,42.281 822.222,42.444 827.762,44.671 828.624,45.105 831.087,46.463 831.825,47.604 833.919,50.048 834.781,51.134 835.150,51.840 837.243,55.425 837.612,55.914 838.351,57.489 840.321,60.422 841.922,62.812 844.754,66.451 846.970,69.166 848.571,70.959 851.279,73.675 855.958,78.020 856.697,78.617 859.775,81.007 862.853,83.179 862.976,83.179 864.454,84.157 866.670,85.298 871.965,87.742 874.304,88.828 876.274,89.534 877.875,89.860 880.214,90.349 883.539,90.838 884.277,90.838 891.172,90.620 893.512,90.132 894.989,88.828 895.112,88.665 895.728,87.362 895.728,87.253 895.728,85.787 895.728,85.406 895.482,84.863 894.866,83.723 893.881,82.365 893.881,82.310 892.650,80.790 891.296,79.866 890.680,79.377 889.079,78.291 887.602,77.205 886.001,76.336 885.509,76.173 884.031,75.413 882.923,74.924 880.707,73.783 880.091,73.566 876.028,71.719 874.673,71.067 874.304,70.796 869.872,68.623 865.070,66.342 863.100,65.365 861.868,64.007 861.622,63.735 859.775,60.639 859.036,59.553 859.036,57.598 859.529,56.946 860.268,55.860 861.006,54.719 862.976,53.090 863.346,52.872 867.532,50.645 869.625,49.939 872.580,49.016 875.166,48.256 878.121,47.387 881.445,46.681 882.184,46.518 887.725,45.377 887.848,45.377 887.355,45.486 894.251,44.182 895.359,43.965 906.933,42.118 911.981,41.304 917.152,40.869 918.876,40.760 928.726,40.109 931.065,40.000 939.438,40.109 942.885,40.489 943.378,40.489 947.441,41.358 949.042,41.847 952.243,43.096 952.859,43.476 954.706,44.671 955.814,45.703 957.168,47.115 957.537,47.930 959.138,51.460 959.507,52.166 960.000,56.186 959.877,56.294 960.000,56.946 959.877,57.652 959.754,59.987 959.754,60.585 959.507,63.681 959.507,64.496 958.769,68.841 958.153,72.751 958.030,73.457 957.168,77.694 957.168,78.128 956.552,80.409 956.183,82.745 955.814,84.103 955.444,86.493 954.459,92.413 954.090,95.563 953.967,96.595 953.597,99.908 953.474,100.940 952.982,105.883 952.859,107.566 951.258,114.627 950.766,116.311 946.949,125.381 945.471,128.368 941.285,134.615 939.930,136.570 939.561,137.113 929.218,150.366 929.218,150.420 925.401,154.982 921.461,159.382 919.122,161.934 912.227,169.158 908.903,172.526 905.578,175.730 898.437,182.248 897.575,182.954 891.911,187.353 890.926,188.059 879.845,195.337 868.887,201.203 866.670,202.235 864.331,203.321 850.171,208.916 848.817,209.405 836.012,213.370 834.288,213.858 815.080,218.475 802.891,221.191 798.458,222.114 784.914,224.884 780.728,225.753 761.028,229.990 757.211,230.859 739.973,234.769 736.156,235.638 722.243,238.734 704.390,242.645 702.789,242.971 696.017,244.383 679.026,247.804 676.933,248.185 658.833,251.498 640.610,254.648 628.298,256.495 611.429,258.722 607.243,259.265 594.561,260.677 587.420,261.383 566.488,263.121 563.287,263.338 549.866,264.153 547.527,264.262 546.296,264.316 538.908,264.642 525.487,265.294 520.193,265.565 513.667,265.837 502.832,266.380 502.709,266.380 496.060,266.760 488.796,267.249 486.579,267.520 482.639,268.064 477.468,269.204 473.651,270.671 469.834,273.386 469.588,273.549 467.987,274.961 466.633,275.993 463.062,278.220 460.353,279.632 456.413,280.827 453.458,281.370 449.764,281.805 448.533,281.859 445.086,282.076 440.899,282.076 440.161,282.022 437.698,282.022 436.097,281.914 433.512,281.751 431.296,281.533 427.602,281.153 419.106,280.230 417.259,280.013 411.226,279.578 407.286,279.415 403.715,279.361 396.943,279.415 396.081,279.469 383.399,280.175 376.874,280.610 369.240,281.099 361.975,281.642 355.696,282.022 350.401,282.402 343.753,282.783 340.305,283.000 333.656,283.434 326.515,283.814 318.142,284.303 316.665,284.358 308.046,284.846 306.569,284.901 296.226,285.498 295.980,285.498 269.138,286.856 267.661,286.910 259.781,287.291 249.315,287.779 223.458,288.811 223.212,288.811 211.022,289.192 202.773,289.409 180.980,290.061 180.857,290.061 172.607,290.386 168.421,290.930 167.066,291.147 161.526,291.962 159.556,292.396 143.549,297.447 142.810,297.719 138.994,299.240 136.531,300.597 135.546,301.141 130.252,304.128 128.651,305.051 122.125,309.505 116.831,313.959 115.476,315.045 112.768,317.652 110.428,320.313 110.305,320.531 105.749,326.831 105.257,327.537 105.011,327.917 102.548,332.534 101.563,334.924 100.332,338.400 100.086,339.106 99.101,342.093 98.608,344.700 98.239,345.841 97.869,347.796 97.254,351.055 97.131,352.956 96.884,355.943 96.884,355.997 96.884,359.365 97.254,362.026 97.500,363.819 98.116,365.720 98.485,366.752 100.332,370.010 100.948,371.042 103.410,373.432 105.011,374.681 110.551,377.560 113.137,378.755 114.615,379.407 120.278,382.340 124.342,385.490 126.065,387.391 130.128,392.225 131.852,394.560 135.177,399.014 138.994,404.717 139.732,405.640 143.796,412.810 144.288,413.516 146.258,417.535 146.874,419.056 148.474,422.749 148.721,423.238 150.567,428.506 150.691,428.506 151.799,432.308 151.799,432.580 152.414,434.644 152.661,435.730 153.399,438.826 153.892,441.216 154.507,443.388 154.631,444.692 155.123,448.222 155.123,449.091 155.123,451.481 155.123,452.785 155.123,453.545 154.631,455.989 154.384,456.912 153.030,459.085 142.195,464.571 141.825,464.734 139.240,466.309 138.378,467.286 136.900,470.545 136.777,470.980 136.654,472.229 136.777,473.695 136.900,473.695 137.147,475.922 137.393,476.900 137.516,477.606 138.132,479.724 138.378,480.322 138.870,481.517 140.102,483.906 140.102,484.178 141.456,486.405 142.072,487.600 142.810,488.577 144.165,490.424 144.904,491.402 146.381,493.140 146.751,493.737 148.844,495.964 150.937,498.245 152.168,499.386 155.123,502.210 155.246,502.210 156.847,503.568 159.556,505.849 162.511,508.022 162.757,508.293 166.574,510.900 169.406,512.584 172.607,514.485 172.853,514.702 175.316,516.169 178.887,518.015 181.965,519.536 182.950,520.079 185.166,521.057 189.722,523.121 195.755,525.619 197.602,526.271 205.851,529.421 208.560,530.345 209.422,530.671 212.254,531.594 220.257,534.201 220.626,534.364 225.059,535.722 227.891,536.591 230.846,537.568 237.002,539.524 237.618,539.687 240.819,540.773 240.942,540.773 247.837,543.326 247.960,543.326 251.039,544.629 253.132,545.715 253.870,546.150 255.717,547.562 255.840,548.051 255.840,549.463 255.717,549.735 254.732,550.712 254.363,550.930 253.501,551.364 252.639,551.744 250.546,552.559 248.207,553.319 246.852,553.700 245.128,554.188 243.405,554.677 242.050,555.057 239.957,555.655 237.987,556.144 237.002,556.361 236.879,556.361 234.663,556.795 233.924,556.958 232.446,557.176 231.708,557.284 229.738,557.502 227.275,557.773 226.906,557.827 224.443,558.045 222.473,558.262 221.119,558.371 220.380,558.425 218.410,558.588 216.440,558.751 214.716,558.859 210.899,559.185 211.146,559.131 213.731,558.914 213.485,558.968 209.422,559.240 205.605,559.457 203.266,559.565 202.527,559.620 201.296,559.674 198.464,559.783 197.602,559.837 196.001,559.837 194.647,559.891 192.923,559.891 190.091,560.000 185.782,560.000 185.412,560.000 181.842,559.891 180.980,559.837 176.301,559.674 175.562,559.620 172.730,559.403 169.898,559.077 169.160,559.022 164.358,558.208 162.388,557.827 161.895,557.665 160.294,557.284 158.201,556.524 158.201,556.470 155.369,555.112 154.877,554.732 153.030,553.428 151.922,552.287 151.060,551.364 150.691,550.712 148.844,547.834 148.844,547.779 147.612,545.607 147.243,544.792 146.258,542.728 145.027,540.284 145.027,540.230 143.919,538.492 140.840,534.853 137.270,531.322 136.531,530.562 133.084,527.901 130.252,526.163 129.390,525.565 125.080,522.849 120.278,519.699 116.831,517.418 111.167,513.779 110.551,513.290 105.134,509.217 103.164,507.533 94.668,498.951 94.545,498.788 88.266,491.293 87.527,490.098 84.941,486.676 80.632,480.756 79.893,479.724 75.953,473.804 63.148,453.273 62.778,452.785 58.469,445.235 58.100,444.692 54.160,437.142 53.544,435.621 51.204,429.973 50.343,428.018 49.234,424.541 48.249,421.554 45.787,410.203 44.802,405.586 44.063,400.915 43.694,399.068 42.955,393.746 42.339,389.944" fill="none" stroke="black" stroke-width="2"
            stroke-linejoin="round" stroke-linecap="round"/>
</svg>
