<?xml version="1.0" encoding="utf-8"?>
<svg xmlns="http://www.w3.org/2000/svg" width="1000" height="600">
  <polyline points="882.474,472.764 883.926,474.649 885.233,476.835 887.410,481.206 888.427,484.758 888.427,484.895 888.717,488.310 888.572,488.446 888.427,491.889 888.136,492.927 886.539,498.173 886.104,499.211 884.942,501.779 883.345,504.538 881.894,506.970 880.732,508.691 878.555,512.434 877.974,513.254 876.522,515.631 874.780,518.609 874.635,518.691 873.328,521.450 872.167,525.138 872.021,526.750 871.876,527.734 872.457,530.029 873.473,531.067 876.667,533.772 876.958,533.990 880.442,535.712 881.748,536.121 892.782,539.154 896.266,539.892 904.832,541.258 909.913,541.941 916.591,542.815 920.947,543.334 928.061,544.072 936.771,544.973 945.192,545.848 949.402,546.476 950.273,546.613 953.322,547.186 954.338,547.378 956.080,547.815 958.548,548.580 960.000,549.946 959.710,551.394 959.710,551.776 958.839,553.060 956.806,553.935 955.499,554.590 955.354,554.618 954.048,555.301 950.999,556.175 944.321,557.678 943.885,557.814 938.804,558.607 937.062,558.743 935.174,558.880 927.335,559.454 921.382,559.672 918.479,559.781 911.365,559.918 909.913,559.945 900.622,560.000 896.992,560.000 886.975,559.973 875.215,559.809 872.167,559.781 851.261,559.235 846.470,559.044 833.259,558.415 825.274,557.978 820.628,557.705 808.869,557.022 791.302,555.929 789.705,555.847 779.252,555.164 775.332,554.891 758.927,553.662 756.169,553.443 740.199,552.022 729.746,550.984 719.874,549.946 709.131,548.689 707.969,548.553 696.064,547.105 691.273,546.503 679.659,545.001 667.319,543.334 661.657,542.569 652.220,541.258 646.558,540.466 636.976,539.072 631.460,538.253 616.361,535.985 597.052,533.062 584.567,531.149 580.647,530.548 562.790,527.843 561.193,527.597 549.869,525.821 541.449,524.401 536.658,523.554 525.624,521.368 516.478,519.210 506.896,515.904 506.460,515.767 503.121,514.538 503.557,513.145 503.992,511.751 504.864,509.565 505.444,508.527 505.880,508.145 507.186,505.577 507.332,505.413 506.315,501.533 506.025,500.987 503.847,498.883 503.267,498.473 500.798,497.134 499.347,496.397 493.830,494.402 490.781,493.555 488.168,492.818 479.312,490.687 475.102,489.649 472.489,489.075 470.456,488.556 459.132,485.878 457.245,485.468 450.712,483.993 449.405,483.638 444.469,482.518 441.420,481.753 437.500,480.878 427.773,478.693 423.418,477.791 414.127,475.824 412.675,475.578 406.142,474.267 398.738,472.955 391.769,471.726 386.397,470.852 373.186,468.775 372.896,468.748 359.249,466.699 356.055,466.234 347.780,465.005 334.859,463.065 329.342,462.191 311.340,459.049 310.178,458.830 294.209,454.869 287.676,452.711 283.320,451.044 275.045,447.164 270.835,444.951 268.367,443.476 265.754,441.673 261.834,438.340 261.834,438.230 259.511,434.706 258.785,431.346 258.785,431.236 258.640,429.378 258.640,427.302 258.785,424.625 259.075,422.521 259.801,419.324 259.946,418.231 260.963,414.297 261.398,413.095 262.124,410.718 262.414,410.308 262.850,409.079 263.285,405.910 263.285,405.117 261.108,400.254 260.527,399.407 259.366,398.424 258.640,398.014 257.188,397.112 253.994,395.391 252.833,394.845 249.784,393.752 247.171,392.987 245.138,392.468 240.492,391.484 239.186,391.266 228.297,389.872 227.571,389.818 220.748,389.381 216.247,389.217 212.328,389.107 209.714,389.080 197.084,389.135 195.777,389.162 193.454,389.189 187.357,389.299 180.388,389.381 179.517,389.408 173.129,389.435 172.984,389.435 165.435,389.435 158.321,389.326 152.369,389.162 147.287,388.943 139.448,388.424 138.722,388.370 130.447,387.550 128.414,387.331 118.832,386.020 112.590,384.982 109.541,384.381 103.153,383.015 100.249,382.332 93.136,380.419 92.990,380.365 87.183,378.507 84.860,377.578 76.440,373.780 74.553,372.769 71.939,371.076 70.052,369.464 68.310,367.770 65.842,365.447 65.552,365.092 63.083,362.114 63.083,362.060 60.470,358.098 59.744,357.169 58.438,355.257 57.857,354.218 56.550,351.978 55.679,350.257 54.082,347.607 52.195,344.082 51.324,342.361 50.308,339.793 49.727,338.782 48.566,336.187 48.275,335.504 46.533,331.405 46.098,330.094 44.355,325.695 44.065,324.712 42.758,320.067 41.887,317.035 41.452,315.259 40.871,312.226 40.145,304.194 40.000,303.210 40.145,300.041 40.581,296.599 40.726,295.232 41.307,291.872 41.887,289.659 42.613,287.145 43.194,285.916 44.791,281.517 45.662,279.714 47.404,276.299 48.275,274.988 50.308,271.354 50.453,271.026 53.792,266.190 53.937,266.081 56.696,262.529 57.276,261.764 59.890,258.978 60.035,258.650 63.955,254.688 66.858,251.792 67.584,251.246 70.923,248.213 75.714,244.197 76.004,244.088 83.263,238.268 85.441,236.629 89.216,233.678 89.506,233.405 91.684,231.657 94.297,229.635 97.055,227.258 97.926,226.602 99.814,224.881 102.572,222.668 104.024,221.466 108.525,218.297 108.960,218.051 111.138,216.657 112.735,215.783 115.638,214.444 121.881,212.423 123.042,212.013 126.962,211.111 128.414,210.920 134.366,210.210 136.544,209.936 142.787,209.472 153.385,208.980 153.675,208.980 160.644,208.680 160.934,208.680 169.645,208.188 171.823,208.024 176.033,207.696 187.647,206.549 191.422,206.111 196.648,205.483 204.488,204.254 205.504,204.062 211.747,202.888 217.554,201.631 220.893,200.784 225.974,199.472 231.056,197.697 235.701,195.866 239.331,194.282 243.977,191.959 244.122,191.905 249.058,188.927 251.381,187.479 255.010,184.883 258.495,182.370 260.672,180.594 265.463,176.960 267.931,174.911 268.802,174.365 274.609,169.857 276.061,168.572 277.223,167.644 279.836,165.267 280.562,164.720 283.756,161.578 286.079,159.338 287.095,158.109 288.982,156.196 293.047,151.661 293.773,150.868 296.096,148.000 296.241,147.945 298.564,145.022 299.871,143.465 301.613,141.252 302.339,140.432 304.807,137.071 306.694,134.312 308.291,131.635 308.581,131.170 310.614,127.290 311.049,126.498 311.920,124.832 313.517,119.285 313.663,119.203 314.243,116.034 314.389,115.952 314.824,112.756 315.260,108.220 315.405,107.619 315.405,104.723 315.550,102.647 315.114,97.429 314.824,94.779 314.534,94.041 313.227,90.680 312.792,89.751 310.469,86.036 305.823,80.954 301.613,77.129 299.725,75.381 290.289,67.977 290.289,67.922 287.240,65.518 286.659,65.053 282.594,61.747 281.868,61.037 279.110,58.797 278.384,58.086 275.335,55.382 273.158,53.442 272.432,52.704 271.270,51.475 269.964,50.081 269.819,49.863 269.383,49.508 268.367,47.705 268.076,47.240 267.931,45.519 267.931,45.410 269.238,43.907 269.964,43.333 271.125,42.787 274.029,42.022 278.094,41.120 280.417,40.765 283.611,40.492 287.966,40.219 289.418,40.109 292.757,40.000 293.483,40.000 301.613,40.164 301.903,40.164 305.968,40.519 306.694,40.574 310.178,41.011 310.469,41.038 315.405,42.022 316.566,42.295 317.002,42.432 319.179,43.115 320.486,43.552 322.373,44.289 322.809,44.453 324.116,45.000 326.584,46.202 326.729,46.257 328.181,47.103 328.616,47.322 332.246,50.081 332.681,50.519 333.552,51.256 334.568,52.595 334.714,52.650 335.875,54.699 336.456,55.710 336.601,55.792 337.472,57.923 338.633,60.901 339.214,61.993 340.230,63.742 340.376,64.097 343.570,67.758 343.715,67.867 344.150,68.305 347.054,70.518 350.103,72.539 354.313,74.862 356.781,76.200 362.298,78.905 362.588,79.096 367.089,81.118 368.395,81.746 377.687,85.872 382.042,87.839 385.526,89.342 386.978,90.025 399.899,95.789 400.770,96.199 406.577,98.740 412.675,101.418 412.675,101.500 420.514,104.805 420.660,104.915 434.016,110.679 438.371,112.592 445.195,115.542 449.695,117.400 454.777,119.559 457.245,120.679 467.988,125.405 468.859,125.733 473.940,128.083 477.134,129.449 481.054,131.252 485.555,133.219 495.427,137.754 503.121,141.279 509.074,144.120 515.026,147.044 516.333,147.617 521.414,150.104 524.463,151.606 529.108,154.038 533.899,156.633 539.706,159.830 548.417,164.884 551.466,166.851 554.224,168.518 561.774,173.381 565.113,175.703 568.162,177.725 571.356,180.075 575.421,183.025 576.146,183.626 581.518,187.479 583.405,188.954 588.487,192.861 595.455,198.270 597.197,199.773 598.794,201.002 604.166,205.237 605.182,206.030 609.683,209.718 614.329,213.543 618.974,217.231 619.991,218.023 624.056,221.275 624.781,221.876 628.701,225.018 630.443,226.548 636.251,231.192 636.831,231.547 642.058,235.782 644.381,237.749 646.703,239.552 656.140,247.230 658.463,248.978 661.367,251.382 664.851,254.196 670.077,258.595 677.481,264.660 681.111,267.693 685.031,270.862 693.016,277.529 699.113,282.446 702.452,285.206 703.904,286.353 705.211,287.501 710.147,291.271 713.050,293.539 716.825,296.626 722.777,301.216 727.278,304.849 728.875,306.024 732.359,308.811 737.440,312.773 743.393,317.499 744.699,318.565 751.087,323.674 751.958,324.302 755.733,327.335 758.201,329.411 762.992,333.127 763.863,333.919 767.057,336.433 768.218,337.498 770.832,339.930 771.122,340.257 772.864,342.334 773.590,343.973 773.880,344.547 773.880,346.022 773.445,347.334 771.993,348.754 771.267,349.246 769.815,349.929 764.589,351.896 763.718,352.169 760.234,353.235 758.201,353.836 752.684,355.612 752.104,355.830 748.474,357.442 746.296,358.972 744.264,360.857 744.119,360.912 743.538,362.743 743.538,362.934 743.538,364.409 743.828,366.130 743.973,366.513 744.990,368.644 745.280,369.136 746.587,370.857 746.877,371.349 748.910,373.425 753.120,377.113 754.426,378.261 757.475,380.447 758.056,380.774 763.718,384.599 766.621,386.512 771.267,389.463 771.848,389.900 773.880,391.238 775.768,392.413 778.091,393.998 778.962,394.517 783.607,397.604 788.253,400.910 790.866,402.741 791.883,403.505 795.948,406.374 799.577,409.052 801.029,410.144 803.207,411.784 808.578,415.800 812.643,418.751 815.547,420.909 821.209,425.062 821.935,425.554 827.451,429.597 827.887,430.034 833.694,434.050 838.485,437.547 842.115,440.116 843.857,441.400 846.470,443.203 851.261,446.700 852.422,447.465 860.988,453.721 863.020,455.306 867.231,458.530 867.231,458.612 871.441,461.863 873.328,463.502 877.829,467.600 878.264,468.010 883.200,473.939 884.507,475.524 884.507,475.633" fill="none" stroke="white" stroke-width="4"
            stroke-linejoin="round" stroke-linecap="round"/>
</svg>
