<?xml version="1.0" encoding="utf-8"?>
<svg xmlns="http://www.w3.org/2000/svg" width="1000" height="600">
  <polyline points="47.832,441.821 48.491,439.904 48.564,439.736 49.662,435.398 49.881,434.823 50.833,430.893 51.126,429.886 52.077,426.339 52.517,424.925 53.322,421.786 53.834,419.988 54.566,417.256 55.225,415.027 55.810,412.678 56.542,410.018 56.981,408.077 57.860,404.985 58.226,403.451 59.251,399.904 59.470,398.802 60.495,394.847 60.641,394.152 61.886,389.742 61.886,389.479 63.130,384.781 63.203,384.614 64.374,380.084 64.594,379.485 65.619,375.362 65.911,374.332 66.863,370.641 67.522,368.340 67.961,366.351 68.839,363.212 69.205,361.606 69.937,358.850 70.450,356.836 71.401,353.649 71.767,352.067 72.792,348.424 73.011,347.274 74.109,343.200 74.256,342.504 75.500,337.975 75.500,337.711 76.744,332.918 76.818,332.750 78.062,328.101 78.281,327.501 79.306,323.283 79.599,322.253 80.551,318.466 80.990,316.980 81.868,313.625 82.380,311.708 83.112,308.808 83.771,306.435 84.357,303.966 85.162,301.162 85.674,299.125 86.553,295.890 86.919,294.284 87.943,290.593 88.236,289.419 89.334,285.273 89.480,284.578 90.725,280.024 90.798,279.712 92.335,273.865 92.408,273.673 93.506,268.999 93.726,268.376 94.824,263.895 95.117,262.816 96.068,259.029 96.507,257.543 97.386,254.164 97.898,252.295 98.557,249.563 99.142,247.358 99.582,245.368 100.021,243.883 100.240,242.828 100.826,240.623 101.045,239.497 101.851,236.693 101.851,236.525 102.583,233.960 102.656,233.889 103.241,231.899 103.461,231.468 104.046,229.910 104.339,229.383 105.071,228.209 105.364,227.873 106.462,226.747 106.974,226.339 108.072,225.476 108.877,225.021 110.049,224.374 111.220,223.895 112.391,223.415 113.855,222.960 114.953,222.672 117.075,222.289 118.100,222.121 120.735,221.809 121.540,221.738 124.761,221.594 125.273,221.546 128.787,221.330 128.933,221.306 132.081,220.947 132.227,220.947 134.642,220.419 134.935,220.348 136.619,219.700 136.985,219.533 138.009,218.838 138.375,218.550 138.961,217.879 139.254,217.496 139.473,216.920 139.620,216.465 139.693,215.962 139.766,215.386 139.693,214.955 139.620,214.260 139.473,213.901 139.107,213.062 138.961,212.774 138.375,211.744 138.229,211.552 137.351,210.354 137.277,210.258 136.179,208.868 136.179,208.820 134.862,207.358 134.716,207.166 133.471,205.680 133.178,205.297 132.007,203.859 131.568,203.283 130.470,201.917 129.811,201.102 128.787,199.808 127.982,198.730 127.250,197.747 126.152,196.189 125.566,195.374 124.615,193.913 123.883,192.834 122.785,191.084 122.272,190.174 121.028,187.513 120.955,187.346 119.857,184.398 119.857,184.302 119.125,181.306 119.125,180.923 118.686,178.119 118.686,177.424 118.539,174.835 118.539,173.206 118.466,171.456 118.612,169.467 118.686,168.005 118.978,165.632 119.052,164.458 119.491,161.726 119.637,160.863 120.442,157.747 120.516,157.196 121.613,153.697 121.613,153.481 123.004,149.718 123.077,149.575 125.127,145.141 125.420,144.614 127.396,141.330 127.982,140.515 130.324,137.472 131.349,136.297 133.764,133.637 135.374,132.103 137.863,129.802 141.010,127.262 142.621,126.016 146.720,123.164 148.037,122.277 153.015,119.161 153.966,118.634 160.188,115.255 160.627,115.039 168.020,111.564 168.239,111.444 175.925,108.209 177.023,107.801 185.148,104.853 187.124,104.182 194.590,101.857 197.591,100.971 204.618,99.005 208.717,97.927 214.133,96.561 220.355,95.099 225.039,94.044 230.529,92.870 236.458,91.696 243.192,90.425 248.169,89.539 256.294,88.197 260.320,87.549 269.689,86.183 272.690,85.776 283.450,84.410 285.353,84.170 297.577,82.900 298.235,82.828 309.288,81.845 309.727,81.821 322.610,80.863 324.293,80.767 335.931,80.024 338.786,79.880 349.399,79.305 353.498,79.113 362.867,78.658 368.211,78.442 376.409,78.107 382.996,77.867 389.950,77.627 397.782,77.412 403.491,77.244 412.641,77.028 417.179,76.908 427.573,76.621 430.793,76.525 442.212,76.213 444.408,76.141 459.706,75.734 460.584,75.710 474.272,75.374 474.711,75.374 487.959,75.063 489.643,75.039 501.720,74.799 504.648,74.751 515.408,74.560 519.653,74.512 529.169,74.344 534.658,74.272 542.929,74.152 549.663,74.080 556.690,73.984 564.376,73.889 569.719,73.793 579.527,73.697 581.138,73.673 590.946,73.577 591.532,73.553 600.095,73.457 600.827,73.457 604.780,73.409 606.098,73.409 612.246,73.289 613.124,73.289 618.980,73.146 620.298,73.122 624.982,72.906 626.666,72.810 630.472,72.546 632.521,72.379 635.596,72.091 637.938,71.851 640.353,71.564 642.842,71.228 644.525,70.941 647.673,70.342 648.185,70.222 651.113,69.431 651.333,69.359 653.895,68.328 653.968,68.304 655.944,66.962 656.603,66.483 658.213,65.357 659.165,64.757 660.848,63.919 662.312,63.319 664.069,62.696 666.923,61.881 667.948,61.618 671.608,60.851 672.340,60.707 676.951,59.964 677.244,59.916 682.514,59.269 682.661,59.269 688.370,58.718 689.102,58.670 694.665,58.262 696.055,58.167 701.325,57.831 703.448,57.711 708.499,57.448 711.427,57.304 716.038,57.016 719.771,56.777 723.870,56.489 728.554,56.105 732.068,55.794 737.704,55.267 740.485,54.979 746.780,54.356 749.269,54.092 760.321,52.990 762.078,52.798 770.496,51.911 770.715,51.887 779.865,50.785 781.036,50.641 789.380,49.587 791.503,49.323 799.042,48.340 801.970,47.981 808.777,47.118 812.730,46.639 818.878,45.920 823.782,45.368 829.052,44.769 835.128,44.122 839.519,43.643 846.400,42.876 849.767,42.516 857.233,41.750 859.429,41.534 866.675,40.887 867.919,40.791 875.678,40.336 876.191,40.312 884.608,40.000 884.901,40.024 892.806,40.336 893.831,40.407 901.004,40.839 902.688,41.007 908.690,41.654 910.886,41.989 915.790,42.828 918.498,43.379 922.450,44.290 925.452,45.129 928.379,46.040 931.454,47.190 933.576,48.029 936.577,49.539 937.968,50.282 940.823,52.175 941.628,52.774 944.043,55.075 944.482,55.458 946.605,58.167 946.752,58.310 948.362,61.282 948.362,61.402 949.533,64.326 949.606,64.733 950.558,67.442 950.704,68.137 951.363,70.629 951.582,71.636 952.168,73.865 952.388,75.183 952.827,77.148 953.120,78.778 953.412,80.192 953.778,82.469 954.071,83.595 954.510,85.680 954.876,87.046 955.315,88.987 955.608,89.946 956.340,92.654 956.633,93.493 957.511,96.561 957.731,97.040 958.609,100.132 958.682,100.300 959.414,103.295 959.414,103.415 959.927,106.099 959.927,106.459 960.000,108.712 959.780,109.742 959.341,111.204 958.756,112.403 958.024,113.601 956.853,114.967 955.828,115.878 953.705,117.292 952.607,117.939 949.460,119.449 948.435,119.880 944.043,121.390 943.311,121.630 937.602,123.140 937.309,123.212 930.356,124.697 930.063,124.769 922.963,126.064 921.938,126.255 915.131,127.406 913.374,127.717 907.006,128.724 904.444,129.155 898.662,130.066 895.222,130.641 890.098,131.480 885.779,132.199 881.314,132.966 876.117,133.901 872.384,134.548 866.163,135.650 863.162,136.177 856.062,137.448 853.793,137.855 844.936,139.413 843.472,139.652 834.176,141.306 833.664,141.378 823.782,143.176 823.416,143.247 814.706,144.877 812.510,145.285 804.605,146.794 801.384,147.418 794.284,148.736 791.942,149.167 783.817,150.653 780.450,151.276 773.204,152.594 768.885,153.385 762.444,154.584 757.028,155.590 751.538,156.597 745.170,157.795 740.632,158.634 733.166,160.048 729.579,160.743 721.162,162.421 718.600,162.948 709.304,164.913 707.767,165.249 697.519,167.597 697.007,167.717 686.394,170.377 685.954,170.497 676.000,173.134 674.609,173.493 665.606,175.938 663.264,176.561 655.212,178.718 651.991,179.605 644.891,181.618 640.719,182.816 634.644,184.566 629.593,186.028 624.397,187.513 618.394,189.215 614.076,190.437 607.122,192.427 603.755,193.385 595.777,195.638 593.361,196.333 584.505,198.874 583.041,199.281 573.159,202.109 572.647,202.253 562.180,205.201 561.741,205.321 551.786,208.173 550.395,208.556 541.392,211.120 539.050,211.768 530.925,214.092 527.705,215.027 520.531,217.064 516.286,218.262 510.064,220.036 504.941,221.498 500.622,222.744 493.595,224.733 490.155,225.716 483.787,227.513 479.688,228.688 473.832,230.365 470.612,231.276 460.730,234.080 457.803,234.919 448.141,237.675 446.604,238.107 436.649,240.935 436.137,241.078 425.670,244.074 425.230,244.194 415.202,247.046 413.812,247.430 404.735,250.018 402.393,250.689 394.342,252.990 391.267,253.877 384.753,255.722 380.947,256.800 376.043,258.191 373.188,259.005 370.553,259.772 366.527,260.947 363.599,261.809 359.208,263.104 357.304,263.703 352.913,265.093 351.668,265.500 347.277,267.058 346.618,267.298 342.665,268.975 342.519,269.071 339.445,270.941 338.859,271.396 337.322,273.050 336.810,273.769 336.151,275.446 335.931,276.477 335.858,278.035 335.638,279.305 335.565,280.599 335.785,282.205 336.004,283.331 336.004,285.129 335.931,285.992 335.492,288.077 335.346,288.724 334.175,291.072 333.955,291.456 331.759,294.044 331.613,294.188 328.392,296.920 328.246,297.040 324.732,299.317 323.708,299.868 319.901,301.833 318.145,302.600 314.046,304.278 312.582,304.805 307.238,306.603 304.896,307.370 299.919,308.999 297.137,309.982 293.478,311.444 290.696,312.762 288.134,314.200 285.572,315.998 284.035,317.340 281.766,319.712 280.888,320.863 279.058,323.619 278.619,324.458 277.228,327.573 277.082,328.101 276.057,331.648 276.057,331.839 275.105,335.602 275.032,335.746 274.081,339.389 273.934,339.892 272.910,343.223 272.617,344.062 271.665,347.154 271.226,348.496 270.421,351.564 269.982,353.217 269.396,355.566 268.811,357.531 268.225,359.593 267.566,361.989 267.127,363.691 266.322,366.447 265.956,367.789 265.004,370.977 264.785,371.959 263.760,375.578 263.614,376.177 262.443,380.180 262.443,380.395 261.198,384.661 261.125,384.829 260.027,388.975 259.807,389.527 258.783,393.289 258.417,394.344 257.392,398.226 256.953,399.641 256.148,402.612 255.635,404.386 254.977,407.022 254.318,409.203 253.805,411.049 252.927,414.044 252.561,415.482 251.829,418.119 251.317,419.964 250.438,422.960 250.072,424.422 249.121,427.873 248.828,428.928 247.657,432.786 247.511,433.433 246.266,437.699 246.266,437.963 244.949,442.493 244.875,442.636 243.704,447.046 243.485,447.621 242.460,451.576 242.167,452.558 241.142,456.129 240.703,457.519 239.898,460.659 239.313,462.457 238.581,465.213 237.922,467.418 237.336,469.742 236.531,472.379 236.019,474.296 235.140,477.316 234.774,478.826 233.823,482.301 233.530,483.379 232.432,487.022 232.286,487.645 231.115,491.648 231.115,491.887 229.870,496.441 229.797,496.585 228.553,500.995 228.333,501.570 227.308,505.548 226.942,506.531 225.918,510.078 225.479,511.468 224.600,514.632 224.015,516.429 223.209,519.185 222.478,521.414 221.746,523.739 220.794,526.303 220.208,528.125 219.111,530.857 218.598,532.151 217.207,534.955 216.768,535.842 214.865,538.933 214.572,539.461 212.230,542.457 212.157,542.624 209.302,545.596 209.156,545.692 206.228,548.137 206.082,548.280 202.202,550.749 201.983,550.845 197.518,552.978 196.786,553.241 191.808,554.991 190.344,555.374 185.221,556.693 183.025,557.148 178.048,558.083 174.973,558.538 170.216,559.113 166.117,559.449 161.871,559.736 156.674,559.928 153.015,560.000 147.086,559.928 144.158,559.832 137.351,559.449 135.228,559.305 127.616,558.538 126.298,558.418 118.173,557.292 117.588,557.220 106.535,555.207 104.559,554.775 98.484,553.289 96.141,552.642 90.798,551.084 87.870,550.102 83.625,548.616 79.087,546.842 76.964,545.956 72.279,543.751 70.889,543.056 66.131,540.419 65.326,539.964 60.422,536.729 59.836,536.297 56.030,533.325 55.152,532.558 52.151,529.802 51.126,528.676 48.857,526.159 47.759,524.673 46.148,522.421 45.051,520.527 43.953,518.586 43.001,516.381 42.415,514.919 41.757,512.810 41.537,512.019 40.878,508.592 40.732,507.993 40.366,504.134 40.293,503.919 40.146,500.395 40.073,499.820 40.073,495.866 40.000,495.674 40.073,491.480 40.146,491.288 40.293,487.262 40.366,486.687 40.659,483.020 40.732,482.205 40.952,479.545 41.098,478.274 41.464,475.231 41.757,473.457 42.049,470.869 42.415,468.712 42.781,466.483 43.294,463.895 43.587,462.073 44.172,459.101 44.465,457.663 45.197,454.260 45.417,453.206 46.222,449.395 46.368,448.748 47.466,444.530 47.466,444.290 47.832,441.821" fill="none" stroke="white" stroke-width="4"
            stroke-linejoin="round" stroke-linecap="round"/>
</svg>
