<?xml version="1.0" encoding="utf-8"?>
<svg xmlns="http://www.w3.org/2000/svg" width="1000" height="600">
  <polyline points="506.638,326.043 506.201,325.744 501.616,322.249 498.777,320.033 494.672,317.007 489.389,313.000 487.598,311.679 483.450,308.525 482.271,307.715 478.341,305.030 476.550,303.836 469.913,299.872 464.803,296.675 461.572,294.715 455.808,291.134 450.000,287.511 447.336,285.807 435.677,278.603 433.057,276.984 432.402,276.600 424.847,271.826 421.266,269.652 418.603,268.033 415.415,265.987 411.004,262.918 409.170,261.469 403.275,256.439 401.048,254.521 395.721,249.833 393.799,248.128 387.162,242.416 386.026,241.521 380.218,237.131 379.214,236.449 374.629,233.593 371.616,231.974 368.777,230.482 367.424,229.800 364.192,228.351 361.223,227.157 358.515,226.134 354.410,224.941 354.017,224.813 349.694,224.046 348.603,224.046 342.664,224.472 341.965,224.557 341.048,224.813 340.437,225.154 337.555,226.348 334.847,227.711 330.480,230.439 329.127,231.249 326.987,232.741 324.629,234.233 319.825,237.216 317.598,238.623 314.672,239.816 311.790,240.754 303.974,242.630 299.476,242.757 295.109,242.033 294.236,241.862 293.100,241.692 291.921,241.351 288.821,240.456 287.336,239.944 282.314,237.984 278.734,236.236 277.817,235.767 274.760,234.148 268.996,230.823 267.904,230.141 263.974,227.669 259.825,224.898 259.127,224.430 256.638,222.597 254.541,220.934 252.009,218.931 249.258,216.672 244.454,212.623 244.017,212.282 239.520,208.531 239.520,208.531 234.891,204.823 233.974,204.141 229.607,200.859 223.144,196.256 220.131,194.167 218.952,193.357 216.507,191.695 214.236,190.203 205.371,184.492 204.803,184.108 201.135,181.849 195.328,178.525 195.328,178.525 190.175,175.711 186.070,173.580 183.144,172.089 178.996,170.043 174.672,167.997 166.856,164.374 162.052,162.200 157.948,160.410 155.677,159.387 149.301,156.531 143.057,153.718 142.489,153.462 136.812,150.862 133.755,149.541 121.310,144.384 120.262,144.000 116.681,142.551 116.332,142.423 110.437,139.567 108.079,138.161 105.415,136.200 104.716,135.603 101.616,132.321 101.092,131.639 99.651,129.423 97.729,125.544 97.249,123.925 95.895,118.384 95.502,115.570 95.459,114.164 95.284,111.138 94.454,103.721 94.279,102.656 93.668,100.610 92.838,99.075 92.576,98.607 90.611,95.495 88.777,93.492 87.860,92.725 84.716,90.380 83.493,89.613 82.489,89.187 82.489,89.187 78.734,87.780 78.384,87.738 74.803,87.098 74.192,87.013 70.306,86.885 69.913,86.885 64.236,87.397 63.493,87.482 62.358,87.652 56.594,88.505 55.459,88.633 52.751,88.974 49.825,89.144 47.817,89.144 47.162,89.016 44.017,88.079 42.620,87.226 42.271,86.757 41.310,85.393 40.742,84.328 40.306,82.836 40.175,82.410 40.000,79.852 40.000,79.298 40.087,76.826 40.087,76.272 40.175,74.993 40.262,74.056 40.262,73.843 40.655,70.987 40.742,69.708 40.786,69.026 41.441,64.252 41.441,63.954 41.659,62.292 41.921,60.885 41.965,60.885 42.489,58.413 42.620,57.816 43.231,55.728 44.017,53.767 46.376,49.377 47.162,48.056 48.472,46.266 50.655,44.646 51.048,44.433 55.109,42.003 55.153,42.003 57.555,41.023 59.825,40.511 59.869,40.511 64.367,40.000 64.410,40.000 67.467,40.043 69.476,40.341 76.376,41.748 78.341,42.259 80.480,43.282 80.961,43.495 86.638,46.436 89.389,48.056 90.655,49.079 91.135,49.420 95.371,52.830 95.808,53.213 101.048,58.626 101.790,59.436 104.192,62.249 105.808,64.551 108.297,68.216 111.048,72.436 114.236,77.423 116.332,80.790 116.550,81.131 118.166,83.731 119.782,86.289 121.616,89.102 122.533,90.551 125.764,95.197 127.074,96.774 134.410,104.446 135.197,105.170 136.987,106.620 139.039,107.813 141.354,109.092 145.022,110.925 146.550,111.607 157.380,115.570 158.079,115.826 162.358,117.318 166.594,118.682 168.952,119.449 169.607,119.662 181.834,123.456 183.057,123.797 186.070,124.734 189.913,125.928 192.882,126.823 196.245,127.846 200.218,129.082 206.987,131.128 207.729,131.341 220.699,135.262 220.742,135.305 225.808,136.839 229.214,137.862 241.092,141.528 242.576,141.954 248.122,143.659 252.707,145.066 253.362,145.279 259.520,147.197 265.764,149.200 267.031,149.626 270.786,150.905 275.939,152.652 283.450,155.252 286.987,156.489 290.393,157.639 291.878,158.151 298.384,160.410 304.498,162.498 307.380,163.521 310.131,164.459 317.249,166.889 320.131,167.911 322.969,168.849 332.969,172.259 335.197,173.026 342.227,175.370 345.895,176.521 349.476,177.672 353.930,179.079 366.332,183.085 368.646,183.810 378.952,187.177 381.921,188.157 384.148,188.839 388.952,190.374 393.057,191.695 400.917,194.252 410.218,197.279 413.275,198.259 414.716,198.728 417.118,199.495 425.197,202.052 428.341,203.075 431.965,204.226 439.476,206.656 444.803,208.403 450.000,210.151 456.725,212.538 458.253,213.134 462.664,214.754 467.118,216.502 471.572,218.207 473.100,218.803 477.511,220.508 481.965,222.256 484.934,223.407 492.402,226.348 495.371,227.456 501.354,229.672 505.895,231.334 508.908,232.400 513.493,234.020 519.563,236.108 521.048,236.620 527.817,238.964 528.559,239.262 532.314,240.498 538.341,242.544 542.052,243.738 546.681,245.230 547.904,245.528 555.459,247.361 556.026,247.446 563.537,248.511 564.454,248.511 570.262,248.043 573.624,247.531 573.843,247.531 576.201,246.679 576.943,246.252 581.223,243.823 582.183,243.226 584.978,241.308 586.507,240.200 588.384,238.964 592.402,236.449 593.406,235.895 596.681,234.616 596.812,234.574 598.210,234.233 598.253,234.190 597.904,234.233 598.253,234.190 602.576,234.062 605.371,234.062 607.031,234.318 608.515,234.957 609.913,235.639 611.921,236.620 613.275,237.515 614.148,238.154 615.677,239.475 616.114,239.816 617.948,241.692 618.734,242.459 619.869,243.738 620.873,244.803 622.271,246.380 622.489,246.593 623.930,248.256 624.192,248.469 626.288,250.600 626.550,250.813 630.524,254.351 631.397,255.033 635.502,257.889 638.646,259.934 640.830,261.213 641.135,261.426 643.799,263.046 646.288,264.623 647.642,265.433 655.590,270.377 656.550,270.974 660.830,273.616 662.271,274.511 667.773,278.092 672.227,280.734 676.594,283.036 677.598,283.548 681.397,285.338 683.843,286.361 685.895,287.170 687.555,287.852 693.624,290.154 694.716,290.538 698.122,291.774 703.799,293.862 704.934,294.289 710.699,296.420 721.135,300.256 722.445,300.767 727.773,302.770 729.694,303.452 739.258,306.990 741.921,307.928 744.192,308.780 747.424,309.931 754.061,312.275 755.371,312.744 760.393,314.407 761.048,314.620 766.157,316.197 766.769,316.367 773.930,318.541 774.541,318.711 779.825,320.289 785.022,321.823 785.721,322.036 792.926,324.167 793.624,324.380 798.253,325.744 798.952,325.957 804.934,327.705 810.306,329.325 814.978,330.731 816.987,331.328 822.402,332.905 828.865,334.823 830.568,335.334 841.441,338.574 842.140,338.787 847.249,340.279 848.253,340.577 854.934,342.538 857.817,343.433 863.275,345.095 863.974,345.308 870.873,347.354 871.528,347.525 879.913,349.997 881.266,350.423 884.017,351.233 890.044,353.023 898.646,355.666 898.646,355.666 904.105,357.328 908.865,359.203 918.122,363.508 923.013,366.534 924.148,367.302 929.825,371.862 932.314,374.249 936.376,378.639 939.214,382.007 942.052,386.184 944.803,390.872 949.782,399.993 951.048,402.636 952.489,406.515 953.537,409.711 955.415,417.298 955.721,419.344 956.594,425.823 957.031,429.787 958.079,441.807 958.210,442.872 958.646,446.751 958.908,449.436 959.258,454.892 959.345,456.511 959.389,462.990 959.389,466.400 959.476,470.875 959.520,474.328 959.607,484.089 959.694,487.370 959.825,495.895 959.913,498.879 960.000,504.675 960.000,506.849 960.000,511.879 959.913,513.925 959.651,518.016 959.039,521.810 958.297,524.921 956.332,530.207 956.070,530.803 953.013,536.089 951.354,538.390 947.205,543.036 942.358,547.341 941.878,547.810 937.948,550.751 936.245,551.902 934.978,552.669 930.568,555.226 926.201,557.230 925.240,557.613 920.437,559.062 919.432,559.275 913.668,560.000 913.624,560.000 911.266,559.957 907.948,559.574 905.240,559.062 900.699,557.528 900.306,557.400 897.380,555.993 895.459,554.928 894.279,554.203 893.188,553.479 888.297,549.557 887.555,548.875 884.585,545.466 882.664,542.439 882.227,541.715 881.004,539.030 880.699,538.134 879.694,534.639 879.520,533.830 879.170,531.016 879.127,529.567 879.782,522.193 879.869,521.767 880.524,518.570 881.572,515.374 883.231,510.643 884.410,507.616 884.629,507.190 886.507,503.354 888.472,499.987 889.913,497.984 891.441,495.938 892.402,494.744 895.371,491.036 896.026,490.269 899.170,486.518 900.524,485.026 904.541,480.380 906.288,478.420 909.694,474.456 914.105,469.511 914.367,469.213 915.939,467.593 917.424,465.548 918.210,464.141 921.223,457.620 922.664,454.295 923.231,452.761 924.192,448.456 924.279,448.115 924.672,444.407 924.760,441.338 924.803,435.370 924.672,433.111 924.585,432.259 924.236,430.213 923.712,427.570 923.581,427.187 922.402,423.990 921.965,423.138 919.956,420.069 919.782,419.856 918.210,418.193 917.293,417.384 915.459,416.105 914.629,415.593 912.358,414.570 908.341,413.505 907.991,413.462 905.895,413.164 903.231,413.377 902.751,413.462 901.048,413.718 899.869,413.931 897.336,414.698 896.463,414.954 893.406,416.190 892.533,416.531 890.873,417.341 889.127,418.108 887.991,418.705 886.245,419.557 884.672,420.239 883.886,420.623 882.533,421.220 878.646,422.967 877.074,423.607 872.052,425.439 871.354,425.652 867.991,426.718 867.380,426.889 859.258,428.934 857.511,429.318 856.463,429.531 856.114,429.574 850.087,430.554 846.245,431.023 839.738,431.833 834.061,432.387 829.520,432.685 828.253,432.685 821.616,432.728 816.594,432.643 816.114,432.600 813.275,432.515 810.655,432.131 808.603,431.705 799.869,429.318 798.734,428.977 795.590,427.741 793.144,426.548 792.664,426.292 788.166,423.990 785.328,422.498 776.070,417.511 775.502,417.213 772.183,415.252 770.655,414.315 765.895,411.203 762.227,408.561 760.218,407.069 756.288,404.000 752.402,400.931 749.301,398.587 745.284,396.115 744.017,395.518 736.507,392.833 734.236,392.108 731.179,391.554 728.428,391.511 724.498,391.384 723.712,391.426 719.651,391.895 717.904,392.279 711.878,394.495 711.528,394.666 706.856,397.777 706.594,397.990 704.978,399.482 704.410,400.036 701.092,404.043 700.262,405.151 699.214,406.984 698.777,407.751 697.031,411.502 696.550,412.610 695.808,414.443 695.546,415.508 695.109,417.085 694.716,418.790 694.323,423.820 694.716,426.462 695.240,429.062 695.764,431.492 696.463,433.495 696.769,434.859 696.900,438.056 696.725,438.780 695.764,442.105 695.284,443.213 694.716,443.938 693.930,444.833 693.624,445.174 692.838,445.941 691.441,447.049 689.913,447.816 688.035,448.669 687.686,448.754 686.638,448.925 686.376,448.967 684.934,448.967 684.367,448.925 682.227,448.370 681.048,447.902 679.563,447.177 679.083,446.921 677.031,445.685 676.419,445.344 675.197,444.577 673.712,443.554 670.044,440.997 669.476,440.570 666.157,438.098 663.843,436.308 661.616,434.561 660.175,433.410 657.467,431.321 657.118,431.066 653.843,428.466 653.319,428.039 650.786,426.079 650.306,425.695 645.284,421.902 643.450,420.495 641.135,418.875 638.035,416.659 632.314,412.610 627.948,409.498 625.109,407.495 623.974,406.685 619.913,403.830 615.764,400.931 614.891,400.334 609.214,396.285 608.384,395.689 605.546,393.685 602.664,391.682 598.297,388.570 597.773,388.187 594.105,385.672 592.314,384.436 582.533,377.787 579.083,375.443 572.489,370.967 572.140,370.711 567.642,367.685 564.148,365.298 556.114,359.885 549.825,355.623 543.799,351.574 542.052,350.380 539.214,348.462 537.686,347.397 532.314,343.816 531.790,343.433 525.764,339.384 524.192,338.318 518.166,334.141 516.419,332.990 513.493,330.944 511.528,329.580 509.651,328.174 508.035,326.980" fill="none" stroke="black" stroke-width="2"
            stroke-linejoin="round" stroke-linecap="round"/>
</svg>
