<?xml version="1.0" encoding="utf-8"?>
<svg xmlns="http://www.w3.org/2000/svg" width="1000" height="600">
  <polyline points="279.695,368.717 279.283,368.354 274.057,362.462 272.407,360.739 266.356,354.212 265.393,353.169 258.655,345.826 258.242,345.509 251.229,337.803 250.954,337.441 243.940,330.098 242.978,329.010 236.927,322.392 235.277,320.579 229.638,314.641 227.300,312.148 222.487,306.890 219.599,303.672 215.336,299.093 211.761,295.150 208.048,291.252 203.785,286.538 200.759,283.365 195.809,277.925 193.471,275.478 187.833,269.358 186.732,268.271 179.857,260.656 179.444,260.293 172.018,252.361 171.743,251.998 164.592,244.338 163.629,243.250 157.303,236.360 155.653,234.501 149.877,228.291 147.540,225.708 142.314,220.268 139.151,217.005 134.338,212.336 130.075,208.302 125.812,204.313 120.861,199.599 117.423,196.335 111.647,190.851 108.897,188.358 102.571,182.238 100.508,180.335 93.907,174.079 91.019,171.269 83.181,163.518 82.906,163.201 76.580,155.722 76.305,155.314 71.629,147.109 71.079,145.886 66.954,138.633 65.854,136.729 62.141,130.338 60.765,127.800 57.740,122.632 56.090,119.641 53.614,115.561 51.689,112.207 50.039,109.351 48.664,106.904 47.564,105.136 45.501,101.374 44.401,99.561 42.200,95.391 41.650,94.212 40.138,89.770 40.000,89.135 40.275,84.874 40.275,84.693 43.025,80.478 43.300,80.296 48.939,76.398 50.176,75.809 59.253,72.137 62.278,71.140 72.042,67.831 78.093,65.882 82.631,64.432 90.332,62.392 94.182,61.531 106.009,59.672 109.584,59.128 126.499,56.726 127.324,56.635 141.901,54.278 144.102,53.916 156.478,51.332 159.916,50.607 171.193,48.023 178.756,46.346 186.182,44.759 195.259,43.128 201.584,42.176 213.686,41.088 219.324,40.725 233.764,40.136 237.889,40.000 254.942,40.000 257.555,40.000 273.232,40.181 277.082,40.227 290.559,40.725 292.484,40.816 308.574,42.266 309.124,42.312 326.176,44.351 327.139,44.487 340.891,46.210 342.954,46.482 354.093,47.796 356.981,48.159 365.644,49.111 369.082,49.564 375.821,50.380 379.809,50.924 385.034,51.604 389.297,52.284 392.873,52.918 396.861,53.780 399.199,54.324 402.912,55.457 404.287,55.955 407.450,57.361 408.138,57.723 410.338,59.400 410.475,59.627 411.988,61.576 411.988,61.621 411.851,63.661 411.851,63.797 410.338,65.656 410.063,65.973 407.862,67.469 407.175,67.922 404.837,69.055 403.187,69.780 400.161,70.732 397.274,71.639 394.111,72.455 389.985,73.497 386.960,74.132 382.146,75.265 379.809,75.764 374.445,77.078 372.795,77.441 366.744,78.937 365.782,79.163 358.768,81.022 358.356,81.067 350.380,83.061 350.105,83.152 345.016,84.240 343.916,84.467 334.978,86.234 332.640,86.733 324.389,88.274 320.951,88.954 313.387,90.404 310.774,90.948 302.523,92.716 299.223,93.577 292.897,95.391 289.321,96.705 284.646,98.654 281.208,100.603 278.182,102.552 275.294,105.181 273.782,106.994 272.132,110.439 271.581,111.980 270.756,115.561 270.756,116.559 272.132,120.638 272.407,121.273 275.707,126.259 275.845,126.440 279.420,131.607 279.695,131.925 282.858,136.729 283.546,137.545 286.709,141.851 287.534,142.713 289.596,145.115 291.109,146.702 294.960,150.645 297.435,153.047 300.873,156.311 303.898,159.257 306.786,162.113 310.499,165.694 312.837,168.096 317.100,172.266 318.475,173.626 323.976,179.066 324.801,179.881 331.127,186.001 331.265,186.227 337.728,192.709 338.141,193.072 344.466,199.327 345.429,200.279 351.205,205.990 352.855,207.577 358.081,212.789 360.419,215.056 365.094,219.725 368.120,222.626 372.245,226.705 375.821,230.241 379.121,233.640 383.109,237.810 385.722,240.621 390.123,245.607 391.910,247.873 395.348,252.315 397.411,255.262 401.124,260.429 402.774,262.695 407.037,268.543 408.138,270.129 412.951,276.702 413.638,277.653 419.001,284.906 419.139,285.178 424.640,292.748 425.052,293.201 430.141,300.317 430.966,301.360 435.366,307.298 436.604,308.839 440.042,313.644 441.555,315.593 444.167,319.355 445.818,321.576 448.018,324.522 450.356,327.151 452.419,329.508 455.031,332.047 456.682,333.588 459.845,336.262 461.220,337.350 464.520,339.979 465.345,340.614 468.783,342.971 469.196,343.243 473.046,345.192 473.184,345.237 478.685,346.688 479.097,346.778 483.635,347.685 485.010,347.866 489.136,348.229 491.061,348.546 494.637,348.999 496.837,348.863 499.725,348.365 502.475,348.365 504.951,348.319 507.564,347.957 509.214,347.594 512.102,346.960 513.339,346.597 516.502,345.645 517.190,345.328 520.215,343.968 520.490,343.696 523.378,341.792 523.378,341.702 525.578,339.254 525.716,339.163 527.229,336.353 527.504,335.945 528.741,333.271 528.879,333.135 530.117,330.007 530.392,329.554 531.629,326.698 532.317,325.293 533.142,323.208 533.830,321.395 534.380,319.536 534.930,317.225 535.342,315.593 535.617,312.692 535.892,311.287 536.167,307.751 536.305,306.663 536.442,302.538 536.580,301.858 536.855,297.008 536.993,296.782 537.405,291.524 537.405,291.252 537.955,286.084 537.955,285.314 538.368,280.464 538.368,279.149 538.918,274.662 539.055,272.758 539.330,268.724 539.468,266.231 539.605,262.695 539.330,259.613 539.055,256.531 538.230,252.768 537.680,250.185 536.580,245.833 536.305,244.383 534.517,238.898 534.242,238.037 530.392,232.008 530.117,231.736 523.928,225.345 523.241,224.711 516.227,218.863 515.127,218.002 507.976,212.608 505.913,211.248 498.075,206.625 494.499,204.721 486.386,200.596 481.435,198.149 474.284,194.658 468.371,191.667 462.457,188.720 455.719,185.321 451.181,183.009 444.305,179.247 441.280,177.479 436.191,174.215 433.028,171.949 428.628,168.096 426.978,166.328 423.952,162.022 423.265,160.798 422.439,155.994 422.439,155.268 424.502,149.829 424.502,149.603 429.178,144.073 430.691,142.849 435.779,139.086 438.529,137.545 444.993,134.327 449.531,132.378 455.994,129.613 461.495,127.392 466.445,125.262 472.221,122.904 475.659,121.409 481.297,118.961 483.635,117.873 489.549,115.335 491.061,114.655 496.700,112.162 497.387,111.844 502.613,109.805 502.750,109.714 509.214,107.584 509.626,107.493 515.952,105.816 517.052,105.635 522.828,104.592 524.616,104.411 529.567,103.912 532.729,103.776 536.993,103.685 540.843,103.821 544.831,104.003 549.369,104.411 552.532,104.773 557.758,105.680 560.096,106.133 565.321,107.448 566.834,107.810 572.060,109.533 572.885,109.805 577.836,111.935 578.111,112.026 582.511,114.609 582.649,114.745 586.224,117.420 587.187,118.417 589.387,120.457 590.487,121.771 592.275,123.539 593.513,125.171 594.750,126.712 595.575,128.072 596.951,130.021 597.776,131.834 598.738,133.602 599.564,135.868 600.251,137.364 601.214,140.174 601.626,141.398 602.451,144.662 602.864,145.568 604.239,149.965 604.239,150.237 605.614,154.679 605.752,155.404 606.990,159.620 607.265,160.798 608.640,164.787 609.052,166.600 610.290,170.227 610.978,172.402 612.078,175.802 613.315,179.972 614.553,184.006 615.653,187.768 616.341,189.990 617.578,194.250 618.266,196.154 619.641,201.140 620.191,202.500 621.842,208.211 622.117,209.027 624.042,215.464 624.179,215.690 625.967,221.810 626.242,222.807 628.167,228.699 628.580,230.331 630.505,235.635 631.330,237.765 633.943,242.026 636.143,244.745 640.269,248.598 644.670,251.862 649.758,254.990 656.634,258.706 661.997,261.109 672.036,265.188 676.987,266.911 689.088,270.990 692.801,272.033 707.928,275.840 710.404,276.339 729.656,280.010 730.619,280.146 751.659,283.591 752.622,283.773 771.049,286.855 771.874,286.946 791.540,290.345 792.502,290.572 811.205,293.790 813.955,294.289 830.182,297.144 834.445,297.915 847.785,300.272 853.286,301.269 864.287,303.128 870.200,304.170 878.176,305.530 885.190,306.799 892.066,307.978 899.904,309.474 904.993,310.471 913.106,312.284 916.682,313.100 924.933,315.411 927.271,316.046 935.384,318.947 936.622,319.355 944.185,322.800 944.460,322.891 950.374,326.517 950.511,326.743 954.499,330.279 954.912,330.868 957.387,334.132 957.800,335.084 959.175,337.985 959.450,339.254 959.862,341.656 960.000,343.107 960.000,344.738 959.450,346.733 959.037,348.047 957.525,350.223 956.837,351.175 954.362,353.441 953.674,354.031 949.686,356.206 949.136,356.478 943.498,358.609 943.360,358.654 935.934,360.513 935.384,360.603 926.445,362.008 924.933,362.235 915.306,363.278 912.556,363.595 903.892,364.456 900.179,364.864 892.891,365.635 888.353,366.133 881.889,366.858 875.976,367.584 871.575,368.082 869.650,368.309 867.312,368.536 861.399,369.170 854.248,369.895 845.859,370.711 840.496,371.165 831.007,371.980 826.744,372.343 814.780,373.476 811.342,373.748 797.178,375.017 795.115,375.199 779.163,376.831 778.613,376.876 761.836,378.961 760.873,379.097 745.333,381.409 739.833,382.315 728.831,384.310 722.093,385.715 713.291,387.845 705.728,389.930 698.990,392.061 691.013,395.007 686.063,397.047 678.087,400.854 674.786,402.577 667.085,407.109 665.297,408.379 658.697,413.501 657.871,414.271 652.646,420.391 652.508,420.617 648.933,426.782 648.383,427.779 645.495,433.536 644.670,434.986 642.332,439.609 641.232,441.423 639.306,445.094 638.069,447.179 636.419,450.080 635.043,452.347 634.081,454.522 632.843,456.925 632.293,458.556 631.330,461.276 631.193,462.409 630.780,464.766 630.780,465.446 630.368,468.075 630.368,468.483 630.368,471.339 630.505,471.475 631.880,473.968 631.880,474.059 634.493,476.053 634.631,476.144 637.794,478.183 637.931,478.274 642.194,479.815 642.882,479.997 648.245,481.130 649.758,481.356 654.984,482.127 657.321,482.399 662.272,482.897 665.297,483.124 669.423,483.396 672.723,483.532 676.024,483.668 679.874,483.668 682.625,483.668 687.025,483.441 689.088,483.351 694.176,482.897 695.689,482.762 701.327,481.900 702.290,481.764 708.753,480.314 709.028,480.268 716.042,478.274 716.317,478.138 723.193,475.826 724.155,475.418 730.481,473.197 732.132,472.563 737.907,470.523 740.245,469.616 745.471,467.849 748.634,466.715 752.759,465.401 759.498,463.089 761.423,462.409 768.436,459.644 769.537,459.236 777.238,455.565 777.650,455.429 786.039,451.395 786.451,451.168 794.565,447.270 795.665,446.681 802.954,443.326 804.741,442.420 810.792,439.655 813.130,438.476 818.081,436.210 820.831,434.850 824.957,433.082 828.395,431.632 831.833,430.227 835.821,428.776 838.709,427.824 843.522,426.510 845.859,425.966 853.286,424.697 853.698,424.651 862.224,423.835 862.637,423.835 871.025,423.609 872.263,423.654 879.552,423.971 881.339,424.153 887.803,424.969 891.653,425.785 901.417,428.187 908.018,430.181 916.269,432.901 919.982,434.578 922.320,436.074 925.483,438.159 927.546,439.609 930.571,442.103 931.809,443.236 934.559,446.182 935.384,447.043 937.722,450.579 938.135,451.123 939.922,455.202 940.060,455.384 941.710,459.826 941.710,460.052 942.810,464.449 942.810,465.084 942.260,469.118 941.710,470.206 939.510,473.696 937.859,475.192 934.146,477.866 927.958,480.858 924.520,482.263 914.069,485.753 911.043,486.750 899.079,490.422 897.429,491.011 884.777,495.000 884.365,495.181 873.913,498.626 873.226,498.808 861.674,503.386 859.886,504.066 849.297,508.326 846.410,509.460 836.921,513.312 832.795,514.899 823.994,518.389 818.493,520.520 810.792,523.602 803.916,526.231 797.315,528.860 789.064,531.987 783.564,534.118 773.525,537.653 768.987,539.240 756.747,542.911 753.172,543.909 737.907,547.535 735.707,548.033 717.142,551.433 716.454,551.569 696.239,554.470 695.139,554.561 679.599,556.283 676.712,556.555 658.146,558.232 652.783,558.595 635.868,559.456 628.442,559.683 613.178,560.000 603.552,560.000 590.350,559.819 578.523,559.411 567.384,558.912 553.770,557.960 544.831,557.235 529.704,555.649 522.966,554.878 506.463,552.476 501.925,551.750 484.460,548.487 481.848,547.988 463.695,543.682 463.007,543.546 445.680,538.605 444.855,538.288 430.416,533.166 427.115,531.806 417.489,527.273 413.913,525.098 407.037,520.248 403.462,517.211 398.786,512.950 395.486,509.142 392.323,505.380 388.885,500.847 386.547,497.856 382.559,492.779 380.634,490.467 375.958,484.711 374.583,483.079 369.357,476.597 368.532,475.645 362.619,468.438 362.344,468.166 356.293,460.687 356.018,460.279 350.105,453.208 349.280,452.120 343.916,445.729 343.641,445.275 337.728,438.250 336.903,437.162 331.540,430.771 330.164,429.003 325.351,423.246 323.426,420.798 319.163,415.676 316.688,412.549 312.975,408.107 308.712,402.894 306.649,400.492 301.698,394.463 300.323,392.831 295.647,386.984 294.822,386.077 288.634,378.689 288.359,378.417 281.895,371.301 281.620,370.938 277.770,366.632" fill="none" stroke="black" stroke-width="2"
            stroke-linejoin="round" stroke-linecap="round"/>
</svg>
