<?xml version="1.0" encoding="utf-8"?>
<svg xmlns="http://www.w3.org/2000/svg" width="1000" height="600">
  <polyline points="63.011,347.374 63.353,343.030 63.353,342.196 63.923,338.290 64.378,333.945 64.720,331.663 65.176,327.670 65.859,321.394 66.315,317.532 66.885,311.827 67.112,308.711 67.682,303.533 67.796,302.304 68.707,294.361 68.821,293.088 69.505,287.295 70.188,281.634 71.555,270.706 72.011,266.932 72.808,260.525 73.492,254.995 73.492,253.942 74.973,238.933 74.973,237.968 75.542,231.999 75.884,228.445 76.454,222.608 76.568,221.511 77.251,215.718 77.251,214.533 78.276,203.254 78.504,200.577 79.074,195.574 79.302,191.756 79.416,190.703 79.757,185.832 79.985,183.462 80.669,177.318 81.010,172.227 81.922,161.124 82.150,159.456 82.947,150.153 83.061,147.739 83.517,143.131 83.744,140.279 84.884,124.041 84.998,122.680 85.453,116.405 85.909,109.383 85.909,108.549 86.706,98.104 86.934,96.700 87.618,87.660 87.845,84.412 88.187,80.814 88.643,75.723 88.985,73.572 89.668,67.341 90.010,65.059 90.238,62.952 90.579,61.284 90.693,61.153 91.833,55.404 91.947,54.746 92.174,53.912 93.655,50.971 95.592,47.987 95.706,47.899 98.326,45.530 99.351,44.959 102.313,43.379 105.161,42.282 106.414,41.799 108.920,41.141 110.743,40.790 118.831,40.000 119.059,40.000 123.730,40.044 126.236,40.483 128.058,40.878 132.387,41.668 132.501,41.755 135.235,42.458 135.691,42.545 138.539,43.423 139.906,43.818 142.070,44.608 143.323,45.003 145.374,45.793 148.450,46.934 151.070,48.031 154.260,49.304 156.880,50.445 159.728,51.586 159.955,51.630 162.576,52.639 165.310,53.692 168.158,54.614 173.512,56.282 174.879,56.589 184.676,58.651 187.182,59.134 196.295,60.319 198.118,60.495 205.523,61.065 206.092,61.065 214.408,61.284 228.078,60.933 229.901,60.846 243.343,60.100 247.330,59.792 258.039,58.959 259.520,58.827 270.114,57.818 286.290,55.887 288.227,55.623 294.264,54.789 306.112,53.473 313.061,53.034 324.794,52.332 332.883,52.025 340.857,52.156 343.591,52.200 360.679,52.420 362.843,52.420 376.855,52.858 377.538,52.902 388.133,53.341 399.638,53.912 406.132,54.351 413.992,54.833 425.498,55.755 431.535,56.194 459.901,58.432 462.407,58.651 470.381,59.266 478.242,59.836 492.937,61.021 495.329,61.197 505.696,62.031 511.164,62.426 518.341,62.996 520.733,63.172 537.707,64.532 540.099,64.708 553.997,65.805 556.389,65.980 569.604,66.990 570.287,67.077 586.122,68.262 606.969,69.886 623.829,71.159 624.626,71.247 639.208,72.344 651.511,73.309 660.054,73.924 673.611,74.977 688.078,76.074 693.318,76.513 703.913,77.259 732.506,79.365 740.367,79.980 750.277,80.682 763.150,81.560 774.200,82.350 792.313,83.622 804.616,84.544 807.008,84.676 831.045,86.387 846.196,87.396 847.107,87.484 859.866,88.362 875.359,89.415 880.599,89.810 897.003,90.995 904.066,91.566 908.623,92.048 912.382,92.531 925.483,94.330 928.559,94.857 930.723,95.252 941.545,97.797 945.077,98.719 947.241,99.421 952.368,101.528 952.937,101.879 956.013,103.766 957.380,105.521 959.544,110.085 959.886,110.787 960.000,112.104 959.658,113.113 958.177,116.624 957.038,118.950 953.962,122.593 951.000,124.699 949.747,125.533 945.874,127.903 945.646,128.034 941.090,130.229 939.495,130.931 930.723,134.354 925.027,136.373 920.243,137.865 917.053,138.830 910.674,140.673 902.472,142.912 901.332,143.219 899.737,143.658 893.472,145.369 884.017,147.871 877.068,149.758 869.094,151.952 864.879,153.137 858.499,155.024 857.018,155.463 841.867,160.027 836.171,161.826 832.982,162.880 821.818,166.829 818.514,168.102 807.464,172.622 806.895,172.842 801.085,175.475 794.022,178.898 790.946,180.434 780.579,186.051 779.782,186.534 773.175,190.264 764.517,195.706 755.176,201.631 753.239,202.859 748.341,206.063 744.126,207.862 728.861,214.138 725.215,215.411 707.330,219.667 704.141,220.282 701.179,220.896 690.471,221.906 685.458,222.169 671.560,222.696 664.725,222.915 661.991,222.827 657.548,222.696 654.359,222.696 628.158,222.520 627.474,222.520 620.297,222.520 613.462,222.739 595.007,223.793 592.729,223.968 581.451,225.109 573.477,226.294 569.376,226.952 566.300,227.479 558.326,228.971 557.756,229.103 545.111,232.043 544.542,232.175 529.277,236.871 527.682,237.441 519.024,240.776 512.645,243.848 511.620,244.419 504.101,248.325 498.405,251.485 493.848,254.249 482.684,261.183 481.545,261.885 475.508,265.791 470.609,268.995 467.192,271.277 464.572,273.032 459.104,276.455 455.116,278.737 446.345,283.565 444.864,284.355 439.282,287.163 438.484,287.558 432.902,290.192 428.460,292.166 423.903,293.834 417.979,295.721 415.929,296.292 412.169,297.213 408.410,297.696 406.929,297.872 404.765,298.091 397.018,298.486 392.689,298.530 389.500,298.486 386.766,297.784 386.196,297.652 381.981,296.292 379.931,295.370 379.247,295.019 379.019,294.975 375.146,292.474 375.032,292.342 371.045,288.875 370.931,288.787 369.222,286.769 369.222,286.681 368.197,285.233 367.855,284.486 367.172,282.819 367.058,282.731 366.602,280.493 366.602,280.361 366.488,277.772 366.488,277.201 366.716,274.919 366.716,274.393 367.628,270.970 368.083,269.346 368.311,268.468 369.222,266.449 369.792,264.870 371.045,261.842 371.842,260.218 373.096,257.672 374.007,256.092 376.855,250.914 377.880,248.983 378.564,247.930 379.361,246.394 382.323,241.391 384.373,237.748 385.740,235.203 387.677,231.692 387.791,231.473 390.069,227.347 392.917,222.739 394.056,221.028 396.563,217.034 397.930,214.708 400.436,210.452 401.803,207.994 403.626,204.703 408.410,195.618 408.524,195.223 410.916,190.440 411.828,188.465 413.309,185.130 415.245,179.951 417.524,173.237 417.979,171.481 418.663,168.453 418.891,167.444 419.460,158.842 418.663,155.682 416.498,148.836 414.562,145.194 412.055,142.824 411.486,142.253 407.727,138.304 401.005,132.994 400.208,132.423 396.563,130.185 394.626,129.044 389.842,126.586 387.677,125.665 377.880,121.803 377.424,121.671 367.286,118.731 365.805,118.380 361.932,117.634 356.691,116.756 350.996,116.229 349.059,116.098 345.414,116.098 344.616,116.098 337.439,116.888 336.642,116.975 333.338,117.677 330.946,118.643 330.149,119.038 327.756,120.179 325.250,121.890 324.681,122.373 322.630,124.392 321.605,125.489 320.693,126.718 318.529,130.316 318.529,130.404 317.276,133.081 317.048,133.652 316.365,135.276 314.884,139.576 314.656,140.103 312.833,146.422 312.719,146.861 308.504,164.503 308.049,166.522 307.593,169.945 307.023,172.973 306.909,174.158 306.340,177.098 305.315,183.989 304.745,187.368 304.289,190.922 304.289,191.142 303.720,194.872 303.036,198.953 302.353,203.737 302.353,204.088 301.100,212.514 300.986,214.182 300.416,217.824 300.416,218.790 299.846,223.486 299.733,225.065 299.277,228.532 298.707,233.448 298.366,235.642 297.682,241.391 297.568,241.742 296.999,247.008 296.771,248.237 295.290,259.779 295.176,260.964 294.378,267.722 294.037,271.365 293.467,276.368 292.897,281.941 292.556,284.223 291.986,289.270 291.758,290.982 291.417,294.712 289.936,305.990 289.936,306.298 288.455,317.752 288.341,319.112 286.974,328.855 286.860,330.303 285.493,341.143 285.265,343.074 284.695,347.682 284.468,349.525 283.784,354.923 283.442,357.424 283.101,359.575 281.847,367.518 281.278,371.950 280.139,380.157 279.683,383.887 279.113,387.969 278.772,391.962 278.658,392.269 278.658,400.871 278.886,403.636 279.569,406.225 280.480,408.990 280.936,410.131 281.961,412.501 283.328,414.739 284.354,416.406 288.796,421.102 289.708,421.760 297.796,426.588 302.580,428.694 308.618,430.055 308.960,430.143 311.010,430.625 319.896,432.425 324.339,433.083 337.895,434.707 338.351,434.794 347.008,435.453 347.350,435.497 360.679,435.716 361.248,435.716 372.298,435.277 374.235,435.146 393.259,433.127 393.601,433.127 403.626,431.547 409.777,430.230 426.409,426.456 428.460,425.886 435.067,423.867 438.257,422.770 445.547,420.137 449.421,418.557 457.850,414.695 460.926,413.203 468.217,409.165 474.710,404.777 477.444,402.714 479.950,400.695 483.596,397.580 484.393,396.921 489.861,391.962 491.228,390.646 524.151,364.270 527.454,362.339 533.036,359.443 537.593,357.293 539.871,356.283 548.073,352.904 552.972,351.105 559.693,348.910 569.034,346.365 573.705,345.268 582.704,343.381 594.780,341.143 596.944,340.792 608.791,339.036 609.475,338.905 623.031,337.281 636.132,336.228 638.410,336.052 651.055,335.525 651.966,335.525 676.800,336.052 686.142,336.447 689.445,336.666 699.242,337.588 704.938,338.422 725.899,341.889 737.860,343.908 743.784,345.005 748.341,345.970 751.417,346.541 763.150,348.867 768.504,349.832 787.528,353.343 789.693,353.694 796.756,355.011 804.047,356.415 814.869,358.521 824.666,360.847 830.020,362.164 833.437,363.129 843.690,366.465 844.032,366.552 852.689,370.370 852.917,370.546 857.132,373.179 861.005,377.173 862.942,379.367 864.195,381.254 864.765,383.975 864.765,384.151 865.106,386.696 864.081,391.348 863.626,392.182 861.917,394.464 859.638,396.833 858.044,398.018 852.006,401.793 851.095,402.319 845.513,405.128 842.551,406.181 840.842,406.796 835.260,408.770 834.235,409.165 826.944,411.447 823.071,412.545 821.362,412.983 807.692,416.406 804.502,417.109 795.047,419.171 789.807,420.181 787.984,420.576 783.086,421.541 777.618,422.682 771.466,423.911 758.138,426.588 755.518,427.071 751.644,427.861 751.417,427.948 741.050,429.967 734.215,431.371 724.076,433.346 722.481,433.697 714.621,435.233 704.255,437.384 697.306,438.788 694.344,439.446 684.775,441.377 682.952,441.772 672.699,443.879 658.460,446.863 656.523,447.214 647.182,449.189 641.372,450.418 619.955,454.938 619.044,455.114 607.766,457.527 603.893,458.317 587.261,461.916 586.464,462.047 578.831,463.715 550.010,469.815 547.959,470.298 532.125,473.677 522.214,475.827 517.885,476.749 510.367,478.329 498.747,480.830 496.127,481.445 482.001,484.429 471.293,486.755 465.141,488.072 459.104,489.344 452.155,490.880 443.383,492.723 422.422,497.244 417.865,498.165 403.398,501.325 399.638,502.159 389.728,504.221 382.779,505.757 379.133,506.504 358.172,511.024 354.071,511.858 345.755,513.701 327.187,517.738 326.275,517.914 305.087,522.478 302.239,523.136 279.455,528.095 267.836,530.684 263.051,531.694 252.912,533.976 249.039,534.854 239.242,536.960 228.648,539.330 219.876,541.217 210.535,543.323 188.321,548.151 184.220,549.072 175.676,550.916 168.385,552.452 156.652,554.822 153.804,555.348 147.994,556.445 138.539,557.850 131.362,558.683 128.856,558.947 112.224,559.824 107.098,560.000 104.250,560.000 99.921,559.824 96.959,559.561 90.693,558.947 88.871,558.727 84.086,557.762 83.061,557.499 74.175,554.514 73.834,554.427 69.391,552.452 68.024,551.837 64.492,549.906 61.644,548.370 60.277,547.493 57.657,545.913 54.240,543.367 53.328,542.665 50.253,539.944 50.139,539.769 47.063,536.477 45.012,533.274 43.190,530.289 42.164,528.183 41.709,526.735 41.595,526.164 40.797,523.443 40.342,520.064 40.000,515.544 40.000,514.842 40.114,511.111 40.114,510.892 40.684,504.221 41.139,500.842 41.595,497.463 41.595,497.288 42.392,492.767 42.506,492.460 43.645,485.526 43.873,483.420 44.898,476.486 45.810,471.307 46.265,468.060 46.379,466.963 46.949,463.057 46.949,462.311 47.632,457.966 47.632,457.747 48.316,453.314 48.430,453.007 49.000,448.180 49.000,447.960 49.911,442.343 49.911,441.728 50.367,438.481 50.594,437.515 51.506,430.187 52.189,426.017 52.417,424.481 52.531,423.472 53.101,419.566 53.442,417.328 54.240,411.623 54.354,410.526 54.581,409.078 54.581,408.858 55.037,405.742 55.493,402.231 55.607,401.617 56.062,398.018 56.404,395.473 56.518,394.815 56.860,392.050 57.088,390.733 57.771,385.818 57.885,384.853 58.796,378.050 59.252,375.330 59.708,371.906 59.708,371.248 60.505,365.148 60.505,364.841 61.075,360.628 61.644,356.283 61.872,355.406 62.100,352.860 62.214,352.685" fill="none" stroke="black" stroke-width="2"
            stroke-linejoin="round" stroke-linecap="round"/>
</svg>
