<?xml version="1.0" encoding="utf-8"?>
<svg xmlns="http://www.w3.org/2000/svg" width="1000" height="600">
  <polyline points="574.164,456.921 565.488,458.167 562.017,458.599 548.211,460.516 547.833,460.612 535.837,462.290 532.367,462.770 523.238,463.968 516.146,464.975 509.582,465.886 498.416,467.468 497.737,467.564 487.400,469.002 484.458,469.386 470.198,471.352 469.670,471.448 456.467,473.269 452.770,473.797 443.792,475.043 436.549,476.050 429.382,477.009 416.631,478.831 413.387,479.262 399.429,481.180 398.977,481.276 386.000,483.050 382.001,483.625 371.061,485.160 362.837,486.310 355.821,487.269 344.353,488.851 343.523,488.947 329.188,490.913 326.698,491.296 317.871,492.495 312.665,493.214 304.894,494.269 294.256,495.755 289.880,496.330 276.526,498.200 275.847,498.296 263.097,499.926 257.363,500.741 247.177,502.228 237.520,503.666 231.862,504.481 219.790,506.159 217.979,506.399 205.002,508.125 203.569,508.316 191.648,508.892 189.309,508.892 181.689,508.460 174.371,507.597 170.071,506.782 161.620,504.721 159.357,504.097 151.888,501.125 151.284,500.741 136.421,491.968 134.384,490.625 130.763,487.173 130.612,487.077 126.689,482.139 125.632,480.653 123.671,476.961 122.539,474.228 122.086,472.646 121.105,467.564 121.105,467.276 121.332,461.859 121.407,460.900 122.614,455.674 122.765,455.434 125.255,450.208 125.783,449.297 128.650,445.606 129.631,444.599 132.875,441.914 135.365,440.188 138.383,438.510 141.250,437.216 143.287,436.448 147.814,434.962 147.889,434.962 153.548,433.716 155.057,433.476 159.055,432.949 161.696,432.757 164.110,432.661 167.732,432.661 168.788,432.661 172.711,432.901 173.767,433.044 179.275,434.003 182.293,434.914 185.839,436.305 189.460,438.366 190.743,439.181 193.308,441.866 193.459,442.010 194.968,444.982 195.119,445.510 195.572,446.852 195.572,448.339 195.421,449.537 194.591,452.606 194.214,453.564 192.705,456.249 192.629,456.345 190.969,458.742 190.517,459.270 188.781,461.331 187.801,462.674 186.744,464.448 185.688,466.749 185.462,467.564 185.386,469.722 185.386,470.057 186.065,472.742 186.443,473.845 187.348,475.379 188.555,476.865 189.536,477.824 192.026,479.838 192.101,479.934 194.968,481.420 195.647,481.755 197.307,482.475 198.816,483.002 200.853,483.481 204.550,484.201 205.380,484.297 208.247,484.392 208.322,484.440 211.265,484.680 214.282,484.105 220.318,482.043 228.693,477.680 231.862,475.043 238.954,466.509 239.255,466.126 242.047,461.571 242.424,460.708 243.782,457.256 244.763,453.660 245.140,451.311 245.065,446.517 245.065,445.845 243.480,440.859 243.330,440.524 239.029,433.668 237.973,432.469 233.521,428.346 230.730,426.332 227.184,423.647 222.355,420.148 221.450,419.428 214.358,414.155 213.528,413.579 207.643,409.216 207.341,408.929 199.948,403.367 198.363,402.264 192.176,397.566 188.630,394.977 184.481,391.813 179.351,388.025 177.389,386.491 171.429,382.272 171.202,382.080 165.468,377.861 164.110,376.806 157.697,371.916 153.925,369.087 149.851,366.067 144.569,362.183 142.080,360.361 134.460,354.608 133.328,353.793 123.293,346.314 121.558,345.019 115.371,340.369 111.825,337.732 107.148,334.328 101.112,329.629 98.849,327.568 92.662,320.616 92.436,320.232 88.512,313.328 86.853,310.212 83.986,304.651 81.194,299.281 79.534,295.973 75.762,288.781 75.234,287.630 71.084,279.720 70.556,278.809 66.406,270.802 65.577,269.220 62.332,262.891 60.672,259.679 59.541,257.378 57.126,252.823 56.749,252.056 53.656,246.159 53.279,245.536 51.242,241.460 50.487,240.070 49.431,238.008 48.375,235.995 47.620,234.557 45.809,231.152 45.734,231.009 44.225,228.084 43.848,227.365 43.018,225.735 42.641,225.064 41.962,223.865 41.207,222.331 40.830,221.084 40.075,218.208 40.000,218.112 40.226,216.338 40.528,215.762 42.037,213.845 43.471,212.454 44.829,211.639 47.017,210.680 47.620,210.489 50.412,209.770 50.487,209.722 54.259,209.530 56.447,209.578 59.013,209.961 63.992,211.687 67.764,213.269 81.948,219.598 82.628,219.934 91.455,224.728 92.813,225.495 97.868,228.420 100.508,230.098 102.923,231.680 108.204,235.420 109.034,236.043 115.221,241.029 115.598,241.317 121.256,246.303 122.237,247.310 126.538,251.816 128.801,254.261 131.668,257.378 135.139,261.357 135.893,262.172 141.174,268.165 141.778,268.884 147.210,275.021 149.172,277.275 152.114,280.727 153.095,281.877 159.131,288.637 160.866,290.651 165.166,295.541 168.184,299.041 171.957,303.308 175.578,307.431 176.936,308.966 183.198,315.965 183.349,316.205 189.913,323.732 191.799,325.842 196.628,330.780 200.551,334.184 204.550,337.109 210.963,341.136 212.245,341.903 216.018,343.917 217.376,344.492 227.637,348.759 230.730,349.862 238.350,352.163 243.858,353.457 250.950,354.800 257.740,355.711 261.965,356.190 271.999,356.622 273.810,356.670 287.843,356.046 289.277,355.903 297.651,354.896 303.234,353.793 308.365,352.642 316.438,350.389 318.550,349.766 327.302,346.410 327.528,346.266 337.261,341.472 339.826,339.937 345.636,336.102 349.332,333.129 351.445,331.403 357.254,325.554 357.632,325.171 363.139,317.979 364.196,316.541 368.647,310.787 371.137,307.479 374.381,303.260 376.041,301.007 380.266,294.966 384.566,289.788 389.998,284.658 399.731,276.747 401.768,275.405 408.558,272.576 408.785,272.480 416.480,270.083 418.291,269.508 421.686,268.645 424.629,268.117 428.552,267.590 436.549,266.727 437.153,266.727 446.885,266.775 448.545,266.823 454.430,267.398 457.448,267.830 461.220,268.549 466.049,269.651 469.595,270.706 475.404,272.672 476.913,273.295 483.175,276.268 483.326,276.364 488.155,279.384 490.645,281.158 493.512,283.555 496.680,286.672 497.963,288.158 501.283,292.713 501.509,292.952 504.829,297.555 505.357,298.370 507.167,300.767 509.506,304.027 511.921,307.335 517.956,315.774 518.786,316.876 523.087,322.246 523.464,322.630 526.029,324.547 527.010,325.075 529.123,326.034 531.461,326.897 532.367,327.184 536.969,328.143 537.120,328.143 542.929,328.335 544.589,328.191 548.437,327.616 551.002,326.944 554.171,325.794 555.982,324.835 558.320,323.253 561.489,320.856 562.696,319.897 566.620,316.732 566.846,316.589 572.354,312.322 573.334,311.554 576.428,309.061 578.465,307.431 582.765,304.123 586.085,301.438 588.575,299.329 592.121,295.973 592.875,295.110 593.705,289.692 593.630,289.404 585.859,278.665 583.369,275.692 579.219,271.090 574.919,266.583 573.108,264.713 568.053,259.152 567.751,258.912 562.621,253.398 561.489,252.152 556.359,246.590 553.567,243.426 551.228,240.885 546.400,235.563 545.721,234.796 540.289,228.899 539.534,228.132 533.197,221.228 530.782,218.591 527.312,214.804 523.917,211.112 522.559,209.578 515.391,201.859 515.165,201.619 508.978,194.955 507.092,192.989 502.113,187.667 498.642,183.880 496.001,180.955 493.738,178.510 489.136,173.524 484.911,168.969 483.175,167.099 479.780,163.456 479.554,163.216 472.311,155.305 470.048,152.860 464.993,147.394 461.598,143.751 459.032,140.922 454.807,136.319 454.581,136.032 448.922,129.991 447.866,128.888 444.396,125.100 442.509,123.087 440.321,120.690 437.530,117.717 436.474,116.566 433.229,113.210 433.079,113.067 430.740,110.573 429.759,109.519 428.175,107.841 426.666,106.211 424.930,104.293 423.572,102.902 422.516,101.800 420.856,100.026 420.479,99.546 418.065,97.341 417.914,97.245 412.859,95.423 411.350,95.136 408.936,95.088 406.219,95.663 405.012,96.094 401.089,97.629 400.938,97.725 398.373,99.067 397.619,99.498 393.695,102.279 391.583,103.765 389.847,105.252 388.037,106.882 387.660,107.265 384.340,109.998 383.887,110.286 380.492,112.204 380.341,112.347 376.569,114.217 374.834,114.553 363.743,115.703 357.330,115.416 351.294,113.690 346.088,110.717 344.730,109.902 341.863,107.985 341.712,107.889 337.110,104.245 336.205,103.430 333.413,100.601 331.980,98.923 330.395,96.814 328.434,93.649 327.679,92.067 325.868,87.321 325.642,86.697 324.812,82.670 324.661,80.992 324.737,77.876 324.963,74.759 325.340,72.937 326.698,68.623 327.076,67.903 329.716,63.061 330.848,61.431 334.394,57.595 337.336,54.959 340.354,52.801 345.786,49.493 347.522,48.678 355.595,45.418 355.821,45.322 364.271,43.068 367.062,42.493 373.400,41.486 381.775,40.479 385.245,40.240 395.355,40.000 395.959,40.048 406.295,40.623 408.030,40.767 414.066,41.534 417.612,42.110 422.893,43.164 430.438,45.034 432.022,45.514 443.038,49.445 444.245,49.924 452.770,54.096 455.939,55.917 460.994,59.226 465.521,62.725 468.312,65.171 474.273,71.068 475.253,72.027 482.496,79.122 483.326,79.937 489.588,86.218 492.229,88.855 496.831,93.457 501.132,97.725 503.621,100.170 509.280,105.827 510.261,106.834 517.277,113.834 519.390,115.943 524.068,120.546 527.538,123.998 532.819,129.224 538.101,134.498 541.345,137.614 547.984,144.134 550.248,146.483 556.736,153.052 556.962,153.339 561.791,158.038 562.923,159.093 568.506,164.702 572.203,168.394 575.522,171.798 583.218,179.325 584.274,180.428 591.743,187.763 592.649,188.578 599.439,195.482 602.306,198.311 607.135,203.201 612.039,207.996 613.774,209.770 621.922,217.920 622.224,218.112 629.844,225.687 632.032,227.796 638.747,234.461 641.765,237.481 647.499,243.474 649.309,245.248 655.345,251.289 658.665,254.501 662.965,258.768 668.926,264.569 671.491,267.158 679.941,275.453 680.318,275.884 688.542,283.987 690.126,285.521 696.162,291.706 699.784,295.254 704.386,299.856 710.422,305.753 712.836,308.198 719.022,314.383 719.777,315.054 724.077,319.417 726.265,321.479 731.019,326.321 736.375,331.595 743.392,338.691 746.485,341.711 752.068,347.273 757.500,352.595 760.669,355.807 767.686,362.711 768.742,363.813 777.192,372.252 778.248,373.210 785.642,380.642 788.811,383.710 792.810,387.642 799.373,394.162 801.109,395.936 809.257,403.990 809.559,404.278 818.084,412.764 820.499,415.161 826.308,420.963 830.684,425.278 833.098,427.723 840.794,435.394 841.171,435.777 848.565,443.065 850.149,444.647 857.317,451.743 861.165,455.578 865.390,459.797 867.653,462.051 873.840,468.283 878.593,472.982 882.365,476.769 888.703,483.050 889.080,483.434 897.681,491.920 899.341,493.550 904.999,499.255 908.243,502.467 912.393,506.590 917.599,511.720 918.429,512.583 923.861,517.953 924.540,518.624 929.746,523.850 931.783,525.864 934.650,528.741 937.064,531.138 938.422,532.528 941.591,535.549 941.968,535.980 944.760,538.713 945.665,539.576 947.551,541.494 948.909,542.836 949.966,543.891 951.776,545.665 952.229,546.144 954.492,548.398 954.643,548.493 956.228,550.076 957.058,550.891 957.737,551.658 958.567,552.569 958.944,553.000 960.000,554.726 960.000,554.822 959.246,557.171 959.170,557.507 958.793,557.938 958.189,558.226 957.058,558.658 953.662,559.856 952.531,560.000 949.211,559.856 948.381,559.664 944.382,558.514 944.307,558.514 939.856,557.363 937.441,556.500 927.709,552.713 920.918,549.932 917.297,548.350 913.525,546.576 912.167,545.952 904.924,542.884 904.773,542.788 899.793,539.864 898.360,538.809 894.286,535.261 891.343,532.576 889.004,530.467 885.232,527.110 883.949,526.008 877.989,520.542 877.838,520.398 873.840,516.755 871.350,514.549 866.219,509.994 862.523,506.734 859.731,504.241 855.581,500.454 854.299,499.303 847.509,493.262 847.282,493.070 840.190,486.646 838.153,484.824 834.305,481.420 829.854,477.393 827.968,475.715 822.158,470.297 821.781,469.961 814.010,462.866 812.652,461.619 808.125,457.496 805.711,455.338 802.467,452.366 798.468,448.626 797.714,447.955 792.885,443.640 792.357,443.161 787.981,439.181 786.397,437.647 783.756,435.154 781.115,432.949 778.927,431.558 773.571,429.305 772.741,429.161 768.365,429.545 767.309,429.640 758.934,430.935 758.029,431.079 751.917,431.942 749.277,432.373 743.694,433.188 738.261,434.051 735.244,434.483 728.680,435.442 727.397,435.585 716.684,437.216 715.476,437.407 706.046,438.702 702.198,439.277 695.408,440.188 688.919,441.147 679.564,442.394 675.640,442.969 668.247,443.928 660.928,444.982 656.326,445.606 646.216,447.044 644.632,447.236 632.183,448.962 631.579,449.010 619.583,450.640 616.641,451.071 605.928,452.558 595.289,454.044 589.480,454.811 578.918,456.297" fill="none" stroke="black" stroke-width="2"
            stroke-linejoin="round" stroke-linecap="round"/>
</svg>
