<?xml version="1.0" encoding="utf-8"?>
<svg xmlns="http://www.w3.org/2000/svg" width="1000" height="600">
  <polyline points="90.732,399.373 90.823,399.283 91.733,398.890 97.927,396.144 101.024,394.846 104.029,393.578 109.403,391.405 113.228,389.775 116.507,388.447 120.333,386.787 122.154,386.033 127.801,383.528 131.718,381.777 133.904,380.811 136.545,379.695 141.736,377.250 146.473,375.107 148.932,373.930 152.302,372.421 159.770,369.071 161.501,368.226 166.692,365.871 167.148,365.690 174.799,362.220 176.529,361.405 184.089,357.934 188.005,356.153 197.842,351.505 199.208,350.841 205.948,347.551 208.498,346.314 214.965,343.115 216.422,342.360 227.716,336.746 228.263,336.505 235.094,333.155 239.283,331.132 241.378,330.227 244.110,328.899 251.852,325.368 258.319,322.531 264.786,319.844 270.433,317.581 272.983,316.615 280.725,313.748 281.089,313.627 287.920,311.333 289.104,310.971 294.022,309.462 306.865,306.142 310.144,305.357 314.789,304.482 317.976,303.969 325.536,302.822 327.813,302.490 335.099,301.645 336.557,301.524 351.039,300.317 351.494,300.287 360.602,299.834 370.712,299.593 373.080,299.532 378.454,299.472 382.825,299.442 386.287,299.442 390.749,299.442 398.218,299.562 399.675,299.562 407.781,299.743 414.430,299.985 419.075,300.166 424.904,300.438 427.546,300.558 442.756,301.222 444.396,301.313 460.608,301.735 462.247,301.766 469.807,301.826 486.384,301.735 489.389,301.675 495.765,301.524 499.590,301.313 503.051,301.132 516.349,300.136 516.895,300.106 527.825,298.989 531.559,298.506 538.481,297.540 542.033,296.997 547.954,296.031 553.145,295.005 558.610,293.828 568.629,291.564 573.547,290.417 576.917,289.391 577.373,289.270 594.678,283.958 595.133,283.808 602.328,281.393 604.879,280.548 619.907,275.598 621.182,275.206 628.833,272.821 629.653,272.580 638.578,269.864 639.853,269.471 648.961,266.876 650.783,266.332 655.610,264.974 660.164,263.737 662.441,263.133 666.449,262.107 672.551,260.537 673.280,260.387 678.654,259.240 681.295,258.877 687.944,258.153 689.401,258.032 693.773,257.821 695.594,257.791 699.602,257.761 703.336,257.881 708.164,258.123 708.983,258.183 710.714,258.395 717.818,259.360 719.457,259.662 722.281,260.296 724.376,260.869 725.651,261.201 728.019,261.986 729.294,262.469 731.571,263.405 732.391,263.857 735.123,265.578 735.488,265.940 736.945,267.117 737.673,267.932 738.220,268.445 739.040,269.501 739.404,270.015 740.042,271.252 740.224,271.825 741.317,274.753 741.317,274.904 741.863,276.654 742.136,277.590 742.410,278.586 742.592,279.129 743.320,280.638 743.594,281.031 744.322,282.268 745.780,283.657 745.871,283.687 747.874,285.256 748.148,285.498 751.062,287.158 751.609,287.369 755.616,289.029 758.167,289.965 760.261,290.538 763.176,291.323 764.906,291.715 768.550,292.379 768.732,292.439 771.555,292.802 772.375,292.862 778.204,293.013 779.024,292.983 782.576,292.621 785.399,292.168 786.310,291.957 792.139,290.448 792.959,290.206 796.056,289.120 798.879,288.033 799.244,287.882 801.430,286.916 801.976,286.614 806.075,284.532 807.350,283.808 808.716,282.962 808.807,282.902 810.993,281.393 811.084,281.333 813.999,278.978 814.454,278.616 817.186,275.960 817.551,275.628 818.553,274.542 818.826,274.240 820.465,272.308 820.921,271.765 821.832,270.558 823.289,268.475 824.564,266.363 825.019,265.487 825.930,263.646 825.930,263.525 826.659,261.443 826.750,261.292 827.205,255.497 827.114,254.893 826.841,253.173 826.568,252.600 825.293,249.461 824.837,248.404 822.924,245.386 821.923,244.330 817.004,239.652 816.913,239.471 813.999,237.267 811.904,235.970 808.078,233.676 805.346,232.257 798.151,228.726 794.325,227.096 789.771,225.315 786.948,224.289 782.940,222.961 777.931,221.331 774.925,220.486 769.734,218.947 765.635,217.830 760.352,216.412 748.785,213.424 745.871,212.700 737.765,210.677 734.941,209.923 727.655,208.021 718.273,205.486 709.348,203.072 700.877,200.717 698.145,199.933 691.405,198.061 684.847,196.160 681.750,195.315 675.284,193.444 673.098,192.840 660.164,189.188 655.792,187.920 650.601,186.472 645.956,185.113 643.041,184.329 634.662,181.914 628.924,180.284 623.914,178.866 618.450,177.327 611.801,175.395 607.338,174.127 596.499,171.019 587.665,168.453 579.194,165.948 571.999,163.866 565.168,161.904 558.610,159.972 550.322,157.558 546.587,156.501 536.842,153.634 536.204,153.483 531.559,152.125 515.893,147.537 515.074,147.326 499.408,142.859 493.579,141.169 479.188,137.004 478.733,136.853 469.078,134.076 464.980,132.839 457.238,130.605 452.684,129.217 443.029,126.320 442.483,126.169 426.817,121.551 426.362,121.370 415.159,118.140 411.607,117.175 408.328,116.269 407.964,116.209 398.764,113.734 395.030,112.828 393.573,112.466 387.562,111.199 387.288,111.108 376.268,109.056 376.086,108.995 370.803,108.150 366.978,107.637 359.964,106.762 354.591,106.219 353.589,106.158 350.674,105.917 338.925,105.494 337.012,105.434 333.369,105.404 331.092,105.434 330.545,105.434 322.622,105.524 321.255,105.524 317.248,105.645 314.333,105.856 305.407,106.852 303.768,107.033 301.309,107.396 300.489,107.547 298.576,107.879 294.387,108.693 293.931,108.784 288.831,110.233 284.914,111.500 282.546,112.436 281.180,113.251 281.089,113.281 277.446,115.303 276.080,116.148 273.620,117.929 273.438,118.050 270.797,120.495 270.433,120.977 269.795,122.064 269.340,123.030 268.702,124.992 268.156,127.316 268.156,127.406 267.882,129.187 267.700,130.002 267.609,131.028 267.427,131.843 267.063,133.593 266.972,133.714 266.334,136.068 265.696,137.245 264.786,138.724 263.602,139.992 263.328,140.264 261.416,141.712 260.141,142.527 258.501,143.433 255.495,144.791 252.581,145.907 252.490,145.938 250.668,146.571 245.659,147.930 245.477,148.020 242.016,148.775 240.832,148.986 233.454,150.163 232.270,150.284 230.175,150.525 227.625,150.676 224.802,150.797 221.158,150.857 220.885,150.887 217.515,150.797 214.509,150.616 209.773,150.133 206.494,149.680 202.396,148.775 202.123,148.714 197.477,147.447 196.749,147.235 192.923,145.847 191.557,145.183 190.191,144.489 188.916,143.825 188.643,143.674 186.366,142.225 185.546,141.652 183.087,139.328 182.905,139.177 181.265,136.883 181.174,136.762 180.263,134.831 180.172,134.227 180.081,131.360 180.081,131.028 180.263,129.790 180.810,128.100 181.083,127.225 181.356,126.621 182.176,125.052 183.360,123.211 185.910,120.163 186.457,119.438 187.823,118.140 188.369,117.597 189.007,117.054 192.195,114.277 196.658,110.987 197.842,110.052 201.849,107.365 203.580,106.219 206.950,104.076 209.409,102.536 211.777,101.058 213.052,100.363 216.786,98.100 216.969,97.979 222.160,95.142 223.071,94.689 231.177,90.675 232.634,89.951 237.644,87.778 238.464,87.355 241.833,85.906 245.386,84.518 256.406,80.262 258.774,79.387 264.604,77.395 270.979,75.463 271.343,75.343 277.355,73.471 279.632,72.777 288.649,70.242 289.013,70.121 298.394,67.677 303.495,66.469 313.240,64.236 320.071,62.727 326.720,61.610 328.724,61.308 349.126,58.169 351.130,57.868 364.701,56.147 366.067,55.996 375.721,54.970 377.725,54.759 387.379,53.853 396.761,53.038 403.136,52.525 410.423,52.012 413.793,51.771 460.335,49.507 469.169,49.175 487.476,48.541 489.571,48.481 509.336,47.787 510.064,47.757 524.910,47.274 533.017,47.002 542.398,46.700 552.872,46.308 553.418,46.278 564.348,45.885 572.090,45.614 583.657,45.161 589.213,44.980 596.955,44.708 603.057,44.437 610.799,44.135 624.825,43.592 626.829,43.501 638.032,43.018 650.692,42.475 655.701,42.264 657.705,42.143 671.549,41.539 675.010,41.419 688.308,40.875 688.855,40.845 705.067,40.332 705.704,40.332 716.634,40.091 717.272,40.091 725.924,40.000 729.476,40.030 736.763,40.121 741.317,40.302 746.873,40.573 759.168,41.509 759.715,41.539 769.460,42.505 773.468,42.928 780.937,43.893 785.946,44.799 787.221,45.010 799.881,47.606 800.428,47.757 809.262,49.990 816.093,52.012 818.188,52.646 822.287,54.034 826.932,55.815 827.205,55.906 833.945,59.045 834.674,59.467 838.408,61.580 841.140,63.361 845.512,66.349 846.514,67.103 849.429,69.457 849.611,69.638 852.981,72.657 854.529,74.196 858.172,78.150 858.355,78.270 859.812,79.991 861.360,82.013 865.459,87.446 865.550,87.657 867.007,89.830 867.463,90.403 871.288,96.259 871.652,96.802 873.019,99.096 875.204,103.291 875.478,103.804 876.935,107.003 877.481,108.331 879.394,113.281 880.669,116.360 881.307,118.412 881.580,119.257 882.309,121.853 883.037,124.297 883.311,125.444 884.130,128.553 884.130,128.825 885.405,135.857 885.496,136.581 886.043,140.686 886.225,142.889 886.316,145.364 886.498,147.296 886.498,148.805 887.045,154.932 887.136,155.656 887.773,160.697 888.684,165.284 889.595,169.027 890.506,171.049 892.327,174.882 892.874,175.818 895.606,180.224 895.880,180.496 899.887,185.777 902.164,188.705 903.713,190.124 905.352,191.844 908.449,194.892 908.995,195.375 913.094,199.118 915.189,201.019 917.283,202.740 918.832,204.037 921.564,206.301 927.393,211.311 928.395,212.247 929.488,213.364 929.944,213.816 932.038,216.170 932.494,216.593 934.315,219.068 935.591,221.331 936.592,224.078 936.592,224.289 936.957,227.398 936.866,227.911 936.410,230.477 935.682,232.650 935.135,234.129 933.405,237.448 932.221,239.591 930.945,241.644 930.126,242.821 929.670,243.515 927.667,246.262 927.484,246.443 925.481,249.219 924.023,251.272 923.841,251.634 922.384,253.807 921.655,255.014 920.653,256.795 920.016,258.153 919.378,259.541 918.650,261.715 918.285,263.133 918.194,263.737 917.921,266.695 918.285,268.777 919.196,271.493 919.834,273.063 920.562,273.848 920.744,274.119 922.748,276.443 923.477,277.047 927.302,280.125 927.393,280.246 930.763,282.480 930.854,282.600 934.498,284.713 935.408,285.196 939.143,287.278 940.418,288.033 942.877,289.331 943.423,289.663 946.976,291.745 947.522,292.017 950.072,293.677 951.712,294.914 954.808,297.269 955.264,297.601 957.359,299.774 958.269,301.011 959.362,303.154 959.454,303.667 960.000,306.353 960.000,307.742 958.998,310.096 958.269,311.243 957.085,313.114 955.810,314.472 955.264,314.925 954.991,315.136 951.712,317.732 949.799,319.211 948.615,320.056 946.429,321.293 944.516,322.319 941.055,324.040 938.960,324.915 933.405,327.058 929.670,328.325 926.938,329.080 923.295,330.016 921.929,330.348 917.101,331.404 914.551,331.917 903.530,333.969 900.343,334.543 895.971,335.297 893.694,335.690 886.863,336.927 878.757,338.678 877.026,339.100 872.927,340.187 866.552,342.058 865.550,342.390 860.541,343.990 857.899,344.895 852.434,346.797 852.070,346.948 846.423,348.970 843.417,350.117 837.862,352.380 836.586,352.924 828.571,356.606 827.114,357.300 824.382,358.749 823.016,359.473 818.370,362.038 815.456,363.729 814.454,364.332 808.625,367.863 807.532,368.527 801.065,372.753 799.699,373.658 794.052,377.461 792.595,378.427 785.399,383.317 784.033,384.192 779.844,387.089 778.568,387.995 775.381,390.168 772.102,392.462 769.187,394.423 767.548,395.600 761.901,399.524 761.081,400.098 757.802,402.421 756.800,403.085 753.066,405.711 752.155,406.315 748.239,409.031 744.869,411.355 737.400,416.577 737.036,416.818 732.664,419.776 729.021,422.281 727.199,423.518 722.554,426.718 721.734,427.291 715.996,431.215 714.266,432.362 707.344,437.100 699.602,442.352 693.500,446.577 693.317,446.758 690.221,448.871 686.395,451.467 686.213,451.648 680.475,455.571 679.109,456.567 672.187,461.276 667.633,464.324 662.532,467.886 658.889,470.330 655.792,472.473 654.973,472.986 649.053,477.061 641.584,481.980 639.034,483.761 635.026,486.357 631.747,488.530 629.106,490.341 625.099,492.967 623.095,494.325 615.990,499.003 615.444,499.335 606.882,504.858 604.059,506.578 603.148,507.212 597.957,510.472 592.674,513.882 587.665,516.991 587.209,517.233 578.739,522.363 576.553,523.752 574.003,525.261 571.999,526.468 570.177,527.494 565.077,530.482 560.341,533.108 557.517,534.708 553.327,536.911 551.597,537.847 549.684,538.782 546.587,540.261 540.303,543.098 536.933,544.577 535.476,545.151 533.836,545.784 533.745,545.845 527.187,548.350 526.003,548.742 523.089,549.738 521.267,550.342 516.076,551.851 511.795,553.088 510.884,553.300 505.146,554.628 504.873,554.658 499.317,555.805 498.315,555.986 488.934,557.525 484.926,558.068 481.556,558.491 481.101,558.551 478.733,558.763 477.458,558.913 474.179,559.215 470.536,559.487 466.255,559.698 460.608,559.940 456.782,560.000 455.963,560.000 450.225,559.940 448.859,559.940 444.396,559.819 438.384,559.427 430.369,558.763 428.274,558.581 424.904,558.159 424.813,558.159 418.347,557.253 417.436,557.103 410.514,555.865 408.146,555.382 407.964,555.352 403.227,554.296 401.133,553.783 396.579,552.575 395.941,552.394 391.478,551.036 391.205,550.945 388.381,550.040 387.562,549.768 380.640,547.203 379.911,546.931 376.905,545.634 374.993,544.728 374.355,544.456 369.892,542.253 369.619,542.132 366.613,540.472 364.883,539.507 358.598,535.674 354.773,533.319 351.039,530.965 350.947,530.905 348.944,529.698 348.124,529.185 345.756,527.766 342.477,525.925 339.927,524.597 330.728,519.919 329.908,519.496 323.441,516.508 323.168,516.387 313.058,511.830 311.965,511.347 308.413,509.748 307.502,509.325 305.407,508.389 296.664,504.496 296.390,504.345 286.827,500.150 285.552,499.606 282.728,498.339 277.355,496.015 274.896,494.959 266.607,491.578 261.416,489.496 260.323,489.073 255.678,487.292 254.038,486.659 250.304,485.180 248.300,484.395 244.475,483.007 240.376,481.467 232.634,478.570 231.359,478.147 227.534,476.699 224.802,475.642 218.699,473.379 217.970,473.047 213.690,471.538 213.599,471.477 208.680,469.817 208.498,469.757 206.585,469.123 204.308,468.368 201.030,467.463 199.481,467.040 194.654,465.954 194.199,465.833 191.193,465.290 189.918,465.048 183.360,464.113 180.628,463.781 177.258,463.600 175.436,463.509 172.066,463.449 171.884,463.449 167.694,463.388 166.966,463.388 162.229,463.479 159.133,463.630 157.767,463.751 153.759,464.203 153.577,464.234 150.662,464.686 149.752,464.867 147.292,465.380 145.744,465.743 143.376,466.286 141.372,466.769 138.458,467.493 137.547,467.735 133.904,468.580 132.173,468.972 129.258,469.515 128.621,469.606 125.889,469.938 124.796,470.059 120.333,470.391 119.604,470.451 115.870,470.602 115.596,470.602 110.860,470.481 108.765,470.421 106.397,470.270 103.301,470.059 97.836,469.515 96.652,469.425 90.549,468.640 87.088,468.036 86.906,468.036 83.992,467.523 80.257,466.558 77.434,465.712 74.064,464.686 69.874,463.026 68.235,462.332 65.047,460.974 64.865,460.883 60.766,459.163 59.309,458.559 44.554,447.996 43.461,446.547 43.188,446.185 41.275,442.774 41.093,442.412 40.364,439.877 40.364,439.394 40.000,434.957 40.091,434.806 40.455,432.603 42.368,428.438 42.732,427.593 45.920,423.549 46.376,423.156 48.653,421.044 49.654,420.319 54.300,417.150 56.030,416.033 59.127,414.253 61.313,413.015 68.144,409.635 71.423,408.126 72.789,407.462 78.891,404.655 81.624,403.478 90.458,399.464 95.195,397.351" fill="none" stroke="white" stroke-width="4"
            stroke-linejoin="round" stroke-linecap="round"/>
</svg>
