<?xml version="1.0" encoding="utf-8"?>
<svg xmlns="http://www.w3.org/2000/svg" width="1000" height="600">
  <polyline points="952.457,301.880 948.749,281.232 946.768,269.781 945.425,261.973 943.955,253.413 942.932,247.109 942.165,242.482 940.823,234.270 939.608,226.578 938.394,218.770 937.563,213.333 936.412,205.410 935.709,200.436 935.133,196.735 933.024,181.639 931.745,172.617 931.554,171.345 930.723,164.925 929.764,157.985 927.910,143.352 927.335,138.436 926.440,131.554 925.545,124.324 924.522,116.459 923.947,112.237 923.116,106.684 921.901,100.554 920.559,94.365 919.664,90.953 918.577,87.425 917.554,84.880 915.828,81.410 915.509,81.005 913.399,77.767 911.162,75.222 908.924,73.140 905.856,71.058 902.468,69.380 897.098,67.703 893.199,66.778 891.601,66.489 886.743,65.563 878.113,63.655 874.213,62.440 870.442,60.763 864.561,57.119 860.981,54.517 856.826,51.336 853.310,48.560 848.899,45.321 846.215,43.586 845.511,43.123 841.612,41.272 839.311,40.463 836.115,40.000 831.959,40.116 829.211,40.694 825.887,41.966 824.097,42.950 822.051,44.569 819.558,47.229 817.832,49.716 817.321,50.700 816.234,52.897 814.764,56.541 813.421,61.399 812.846,63.713 812.271,66.778 811.823,69.670 811.504,73.255 811.376,75.106 811.312,80.658 811.504,84.418 811.951,88.640 813.485,97.489 814.252,100.554 816.170,107.089 817.576,111.022 818.983,114.724 820.581,118.714 823.394,125.308 826.270,131.612 829.658,138.899 832.727,145.492 834.580,149.541 836.882,154.515 838.160,157.291 841.420,164.867 843.210,169.205 844.744,173.080 846.854,178.574 849.475,186.266 851.009,191.471 852.415,196.735 853.822,202.865 854.141,204.311 855.100,210.384 855.548,213.912 855.803,217.324 856.187,224.669 856.187,225.768 855.931,232.940 855.228,238.260 854.653,240.747 852.671,246.184 851.073,249.076 848.196,252.835 846.470,254.512 845.575,255.264 838.608,259.602 837.137,260.238 831.959,262.204 831.320,262.378 827.165,263.592 819.942,265.154 814.252,266.079 811.248,266.484 803.193,267.178 800.381,267.352 795.075,267.467 791.943,267.525 785.359,267.467 779.925,267.236 777.112,267.063 771.487,266.600 763.241,265.964 756.273,265.385 746.556,264.576 733.835,263.535 729.489,263.188 724.566,262.841 718.941,262.378 709.928,261.742 700.147,260.990 693.627,260.527 687.107,260.065 678.669,259.544 672.532,259.139 666.971,258.734 661.409,258.329 655.081,257.867 648.560,257.404 615.703,255.033 609.630,254.570 603.494,254.107 597.996,253.645 591.092,253.066 577.924,251.678 569.550,250.579 562.582,249.423 555.678,248.035 549.414,246.589 541.167,244.275 535.031,242.193 521.606,236.815 514.383,233.402 505.242,228.833 491.626,221.604 485.106,218.076 475.325,212.697 468.805,209.053 460.878,204.716 454.614,201.246 450.011,198.643 443.810,195.231 437.226,191.356 431.089,187.712 424.122,183.664 417.601,179.789 412.168,176.492 407.054,173.427 400.789,169.610 396.187,166.776 391.392,163.768 387.941,161.802 381.548,158.852 377.840,157.348 371.448,155.151 369.019,154.399 364.097,153.242 358.791,152.490 354.828,152.317 349.714,153.011 347.093,153.705 343.193,155.382 338.463,158.447 336.801,159.778 333.988,162.264 329.578,166.776 326.253,170.593 324.272,173.080 321.140,177.128 319.286,179.731 317.240,182.680 315.770,184.820 313.660,188.001 311.679,191.356 308.546,197.024 306.053,201.766 303.177,207.492 301.067,211.887 298.382,217.555 295.122,224.438 293.844,226.983 293.013,228.544 290.712,232.593 288.730,235.658 287.132,237.856 285.534,239.880 282.977,242.367 279.461,244.680 274.539,245.953 272.429,245.721 269.489,244.854 267.379,243.871 265.142,242.540 261.754,240.111 258.494,237.277 257.279,236.178 255.233,234.096 253.444,232.303 251.654,230.337 250.183,228.718 248.713,226.925 244.878,222.240 242.129,219.117 239.956,216.572 236.695,212.928 232.732,208.591 229.855,205.583 229.152,204.889 223.335,199.279 217.838,194.421 215.409,192.397 211.445,189.563 210.486,188.985 206.779,186.845 200.642,184.069 198.724,183.317 195.081,182.160 191.629,181.350 186.643,180.598 184.533,180.541 181.273,180.714 177.246,181.524 173.794,182.680 170.598,184.069 166.442,186.324 163.246,188.580 159.091,192.397 155.192,196.735 150.973,202.055 149.119,204.600 147.265,207.261 143.558,212.928 140.553,217.960 136.782,224.553 135.759,226.346 132.243,232.593 127.065,241.788 123.997,247.399 120.737,253.066 118.371,257.231 114.408,263.997 111.659,268.740 108.527,274.003 106.162,277.936 102.646,283.777 100.089,287.826 97.596,291.932 94.144,297.484 90.181,304.135 87.048,309.456 83.596,315.240 76.948,325.997 72.538,332.764 70.875,335.077 63.844,344.909 58.410,352.197 55.342,356.476 51.698,361.971 48.694,366.482 46.009,370.646 45.178,371.919 43.132,375.273 41.470,378.685 40.447,381.635 40.000,385.279 40.000,389.790 40.959,396.267 41.534,398.581 43.708,404.654 45.434,408.124 48.758,413.213 50.484,415.353 53.744,418.650 56.556,421.021 58.794,422.640 61.159,424.202 69.086,428.250 71.195,429.176 78.163,431.663 80.784,432.472 87.048,434.439 89.477,435.306 92.546,436.752 94.847,438.314 98.427,442.247 102.262,450.575 103.477,454.971 104.372,458.730 104.819,461.101 105.778,466.017 106.162,468.273 107.057,473.131 107.568,475.502 109.550,482.732 111.787,487.011 114.472,490.250 115.814,491.523 118.371,493.836 121.312,496.207 125.595,499.562 128.727,501.933 131.028,503.552 137.996,508.642 140.745,510.666 145.987,514.599 148.224,516.334 151.676,519.110 157.429,523.968 162.479,528.769 167.146,533.858 170.214,537.791 172.515,540.972 174.113,543.286 177.437,547.912 179.419,550.573 181.337,552.828 183.063,554.621 184.086,555.489 185.684,556.761 187.985,558.265 189.519,558.959 191.629,559.653 193.738,560.000 197.254,559.479 198.724,558.785 199.875,558.091 201.089,556.993 202.560,555.431 203.902,553.465 204.733,551.961 206.076,548.953 207.354,545.252 207.610,544.211 208.633,540.278 209.783,534.668 210.486,531.256 210.870,528.942 211.893,522.754 212.404,519.168 213.171,513.327 213.810,509.047 214.450,504.593 215.281,499.620 215.664,497.248 217.007,488.747 218.285,481.575 219.052,477.237 219.308,475.907 220.203,470.586 222.121,459.597 222.696,456.301 225.956,438.372 227.107,432.357 228.002,427.846 228.705,424.202 230.239,416.452 232.221,407.487 233.947,399.448 234.906,395.689 236.951,387.476 240.147,375.273 241.554,370.241 243.599,362.954 244.814,358.790 247.307,350.751 249.480,344.157 252.101,336.523 253.763,331.839 255.425,327.154 257.343,322.122 259.900,315.587 262.777,308.357 265.781,301.070 267.507,296.848 268.913,293.551 270.959,288.982 272.941,284.702 274.347,282.042 276.137,278.803 278.502,275.564 280.931,273.020 283.041,271.400 285.278,270.244 290.648,269.087 293.588,269.145 295.889,269.550 300.428,270.938 303.113,272.152 306.693,274.061 310.592,276.490 312.382,277.704 315.898,280.249 318.774,282.331 319.414,282.852 325.167,287.247 326.893,288.577 329.450,290.602 334.244,294.477 336.417,296.270 338.655,298.120 343.833,302.574 348.052,306.217 352.718,310.324 357.385,314.256 362.563,318.536 366.845,322.006 373.877,327.559 378.160,330.740 380.909,332.764 384.553,335.366 391.265,339.878 398.872,344.447 403.027,346.702 411.401,350.577 420.798,354.047 427.957,356.072 435.309,357.633 448.349,359.310 453.143,359.715 462.285,360.236 468.357,360.583 475.773,361.045 489.644,361.855 503.708,362.723 511.570,363.185 514.830,363.359 522.118,363.822 529.469,364.226 540.272,364.920 547.815,365.325 551.907,365.615 562.262,366.193 567.888,366.540 573.449,366.829 581.951,367.234 587.640,367.523 601.959,368.159 609.950,368.448 617.941,368.680 625.164,368.738 631.492,368.853 639.547,368.969 645.364,369.142 651.501,369.316 660.706,369.547 671.253,369.779 675.664,369.952 687.426,370.531 688.705,370.646 696.184,371.109 698.485,371.282 701.426,371.572 707.626,372.323 711.462,373.017 713.827,373.596 715.809,374.232 719.964,376.372 723.608,380.073 725.653,384.874 726.740,388.575 727.571,391.583 728.338,393.896 728.849,395.284 729.744,397.424 730.703,399.564 733.452,404.480 735.753,408.008 738.885,411.767 742.082,414.775 743.744,416.105 748.986,419.517 751.606,420.790 755.698,422.409 759.341,423.508 762.410,424.260 768.930,425.532 773.021,426.111 777.240,426.573 780.820,426.805 785.359,427.094 792.135,427.267 795.650,427.325 802.171,427.383 808.563,427.383 818.088,427.556 824.480,427.730 826.973,427.788 832.982,427.961 838.160,428.135 843.849,428.424 849.155,428.655 858.936,429.176 869.994,429.870 877.793,430.333 888.341,430.853 897.546,430.969 903.043,430.737 907.135,430.275 911.226,429.639 918.705,427.614 922.796,425.879 927.079,423.508 930.083,421.484 935.837,416.683 941.718,410.437 944.019,407.545 947.343,402.861 950.028,398.523 951.754,395.342 954.119,390.310 958.594,375.042 959.808,365.267 960.000,361.740 960.000,354.163 959.744,349.131 959.361,344.100 958.785,338.894 957.954,332.706 956.804,325.708 955.270,317.264 954.503,313.100" fill="none" stroke="black" stroke-width="2"
            stroke-linejoin="round" stroke-linecap="round"/>
</svg>
