<?xml version="1.0" encoding="utf-8"?>
<svg xmlns="http://www.w3.org/2000/svg" width="1000" height="600">
  <polyline points="327.405,124.906 326.896,124.625 324.279,123.218 321.299,121.658 318.028,119.945 315.557,118.615 311.777,116.595 309.814,115.572 305.598,113.321 304.145,112.554 299.057,109.869 298.112,109.357 293.532,106.902 292.006,106.084 286.482,103.168 286.046,102.938 279.722,99.613 279.649,99.562 273.398,96.212 272.671,95.828 266.929,92.785 265.621,92.095 260.387,89.333 258.497,88.310 253.845,85.829 252.464,85.113 247.158,82.300 245.196,81.277 240.471,78.745 237.927,77.364 233.711,75.139 229.277,72.761 226.951,71.559 222.226,69.052 220.700,68.234 216.048,65.753 215.176,65.293 211.614,63.400 210.233,62.659 204.854,59.743 203.982,59.257 200.275,57.186 200.057,57.058 196.859,55.140 196.786,55.114 194.097,53.375 193.806,53.196 191.843,51.815 191.480,51.508 190.099,50.332 189.735,49.923 188.790,48.951 188.645,48.670 187.991,47.596 187.845,47.212 187.555,46.291 187.555,45.831 187.555,45.064 187.773,44.475 188.136,43.836 188.500,43.427 189.154,42.813 189.881,42.353 190.753,41.867 191.989,41.407 193.006,41.074 194.751,40.691 195.623,40.511 197.876,40.230 198.530,40.153 201.511,40.000 201.656,40.000 204.418,40.026 205.145,40.077 208.052,40.256 208.489,40.307 211.614,40.588 212.414,40.665 215.176,40.972 216.266,41.125 218.883,41.458 220.409,41.688 222.735,42.020 224.770,42.327 227.024,42.660 229.422,43.043 231.312,43.350 233.566,43.734 236.037,44.143 238.872,44.629 241.052,45.013 244.614,45.652 246.431,45.984 250.792,46.777 252.246,47.033 257.262,47.954 258.279,48.133 263.803,49.130 265.693,49.462 272.889,50.792 274.125,50.997 281.176,52.250 281.612,52.327 289.462,53.759 289.680,53.810 297.530,55.242 298.548,55.447 305.889,56.802 307.706,57.160 314.466,58.465 317.083,59.002 323.189,60.280 326.678,61.022 331.984,62.173 336.272,63.145 340.852,64.193 346.012,65.446 349.792,66.367 355.607,67.901 358.660,68.669 365.347,70.484 367.601,71.073 373.634,72.761 376.614,73.579 383.083,75.446 385.263,76.060 392.750,78.361 394.131,78.770 402.272,81.481 402.854,81.660 411.067,84.550 412.012,84.908 419.717,87.619 419.935,87.721 428.367,90.765 429.385,91.148 436.944,93.910 438.616,94.550 445.158,96.928 447.629,97.874 453.953,100.202 457.296,101.480 462.748,103.475 466.964,105.086 471.616,106.825 475.032,108.130 480.556,110.176 484.772,111.812 489.497,113.577 494.512,115.521 498.437,117.004 504.252,119.306 507.378,120.482 515.737,123.781 516.318,123.986 525.186,127.540 525.404,127.643 534.127,131.095 535.144,131.504 543.285,134.599 543.503,134.701 552.734,137.975 553.825,138.358 562.693,141.044 564.801,141.632 573.378,143.550 577.085,144.240 586.607,145.698 591.695,146.568 599.327,147.949 604.633,149.176 609.866,150.608 615.318,152.399 619.098,153.831 624.331,156.311 626.730,157.667 631.455,161.017 632.908,162.142 637.124,165.902 637.851,166.618 641.267,170.812 641.485,171.119 643.375,174.878 643.739,175.569 645.556,180.070 645.701,180.351 648.609,185.006 648.681,185.108 653.333,189.353 654.714,190.376 661.184,194.468 663.364,195.772 668.452,198.586 671.214,200.120 675.794,202.575 677.974,203.752 683.208,206.488 686.188,207.971 691.131,210.324 695.056,212.140 699.344,214.109 703.996,216.232 707.558,217.894 712.791,220.400 715.626,221.730 720.205,223.904 723.694,225.592 728.928,228.149 731.690,229.479 739.177,233.111 739.686,233.366 747.463,237.330 747.608,237.433 755.095,241.371 755.967,241.832 762.437,245.437 763.818,246.230 768.906,249.299 770.868,250.527 775.520,253.570 777.919,255.232 781.699,257.943 783.443,259.273 787.441,262.419 789.549,264.183 792.747,266.971 795.073,269.170 797.472,271.600 800.016,274.260 801.906,276.280 804.014,278.556 806.340,281.011 808.811,283.696 810.701,285.717 813.608,288.837 815.135,290.422 818.478,293.977 819.641,295.154 824.148,299.910 824.221,300.013 828.436,304.437 828.945,304.974 832.870,309.194 833.743,310.166 837.377,313.951 837.886,314.539 841.738,318.529 843.919,320.830 846.245,323.311 848.789,326.047 850.751,328.093 853.732,331.264 855.331,332.876 858.747,336.482 859.910,337.684 863.762,341.699 864.562,342.466 867.978,346.072 869.141,347.274 872.994,351.315 873.720,352.082 878.009,356.583 878.372,356.915 882.952,361.749 883.024,361.851 887.604,366.557 888.113,367.094 892.183,371.365 893.055,372.337 896.762,376.147 897.271,376.710 901.342,380.930 902.286,381.927 905.921,385.712 907.229,387.118 910.500,390.469 912.245,392.310 915.007,395.225 917.187,397.527 919.586,399.982 922.130,402.616 924.020,404.586 926.927,407.680 928.454,409.317 930.925,412.028 932.815,414.074 936.522,418.038 937.249,418.779 941.465,423.178 941.756,423.485 946.044,427.858 946.117,427.960 949.896,431.822 950.260,432.257 953.240,435.454 953.313,435.556 956.002,438.753 956.220,439.111 958.037,441.643 958.328,442.205 959.419,444.430 959.637,445.249 960.000,447.141 959.927,448.087 959.709,449.340 959.273,450.236 958.474,451.591 957.093,452.998 956.148,453.765 952.877,455.683 951.786,456.271 948.007,457.882 947.352,458.189 942.555,459.928 942.264,460.056 937.322,461.821 936.231,462.179 932.452,463.611 931.071,464.148 928.236,465.503 926.782,466.245 924.965,467.473 924.165,468.061 922.784,469.621 922.203,470.516 921.694,472.025 921.330,473.201 921.330,474.480 921.621,475.886 922.130,476.961 923.075,478.597 923.656,479.441 925.110,481.334 925.764,481.999 927.436,483.687 928.454,484.582 930.634,486.577 931.434,487.241 933.905,489.543 934.414,489.978 936.958,492.586 937.176,492.791 939.357,495.732 939.357,495.809 940.520,498.699 940.520,499.031 940.447,501.589 940.229,502.100 939.066,504.044 938.412,504.862 936.595,506.934 935.214,508.008 932.888,509.670 930.707,510.949 928.236,512.279 925.328,513.608 923.002,514.580 919.949,515.654 916.460,516.780 912.245,517.956 909.046,518.800 903.449,520.130 901.414,520.616 894.436,522.227 893.128,522.534 885.278,524.350 884.769,524.503 876.337,526.523 876.119,526.549 868.196,528.493 867.687,528.646 858.965,530.845 858.674,530.897 850.170,533.096 849.080,533.352 841.375,535.423 839.267,535.960 831.199,538.134 828.364,538.876 822.258,540.564 818.769,541.484 813.172,543.019 810.410,543.735 804.086,545.525 800.452,546.497 794.928,548.057 790.421,549.284 785.769,550.563 779.227,552.225 777.192,552.737 770.359,554.271 769.196,554.553 762.000,556.010 761.564,556.113 754.514,557.468 754.296,557.494 748.117,558.542 747.754,558.619 741.430,559.463 741.212,559.463 735.542,559.872 734.816,559.898 729.727,560.000 728.419,559.923 723.694,559.540 722.968,559.463 718.461,558.900 717.371,558.721 713.664,557.980 712.283,557.622 709.375,556.752 707.776,556.215 705.668,555.371 704.142,554.681 702.833,553.939 701.452,553.018 700.653,552.353 699.780,551.561 699.126,550.717 698.545,549.694 698.327,548.926 698.181,547.724 698.327,547.136 698.835,545.755 699.126,545.295 700.362,543.735 700.653,543.453 702.688,541.714 702.906,541.612 705.450,540.052 706.031,539.796 709.593,538.160 709.884,538.057 714.609,536.369 714.681,536.318 720.133,534.707 720.787,534.503 726.166,533.122 727.401,532.789 732.635,531.613 733.362,531.434 739.613,530.155 741.067,529.848 747.027,528.748 749.280,528.314 754.732,527.367 757.785,526.779 762.509,525.910 765.926,525.219 769.560,524.477 773.776,523.506 776.974,522.738 781.408,521.511 783.661,520.871 787.078,519.695 789.476,518.774 792.747,517.240 794.274,516.473 797.181,514.631 797.981,514.043 799.870,511.818 800.161,511.409 801.033,509.261 801.179,508.596 801.106,506.166 801.033,505.732 799.943,502.995 799.870,502.816 797.835,499.875 797.254,499.210 795.146,496.908 794.564,496.269 793.474,495.067 792.238,494.121 789.912,492.382 787.368,490.361 786.423,489.594 783.007,486.781 782.426,486.270 779.518,483.814 778.573,483.022 775.230,480.157 774.648,479.646 771.014,476.398 770.796,476.193 766.943,472.664 766.798,472.562 763.309,469.007 762.873,468.572 759.965,465.248 759.311,464.455 756.912,461.386 756.549,460.926 754.005,457.473 753.351,456.629 751.170,453.432 750.298,452.205 748.408,449.366 747.318,447.755 745.646,445.223 744.338,443.203 743.029,441.029 742.012,439.367 740.485,436.784 739.249,434.712 737.941,432.487 736.415,429.981 735.324,428.139 733.580,425.224 732.708,423.766 730.672,420.442 730.018,419.368 727.256,414.943 727.111,414.815 724.494,410.468 724.131,409.931 721.659,405.967 721.005,405.020 718.679,401.491 717.661,400.136 715.190,397.067 713.591,395.456 710.901,393.077 708.430,391.236 705.523,389.343 701.961,387.374 699.126,385.993 694.038,383.922 691.421,382.950 686.697,381.415 683.062,380.392 676.666,378.832 673.395,378.142 665.763,376.812 664.164,376.582 653.624,375.508 652.825,375.457 640.177,374.996 639.886,374.971 628.329,374.792 627.602,374.792 615.391,374.715 615.027,374.715 603.397,374.817 601.944,374.843 591.404,375.226 588.933,375.354 579.919,376.070 576.503,376.454 568.580,377.605 564.292,378.321 557.241,379.753 553.243,380.623 543.867,382.975 539.651,384.126 534.127,385.916 529.765,387.400 525.259,389.139 520.534,391.108 517.263,392.643 512.393,395.098 510.140,396.402 505.270,399.317 503.816,400.340 500.036,403.102 498.292,404.535 494.512,407.706 493.422,408.780 489.787,412.437 489.206,413.127 485.572,417.270 485.354,417.577 481.428,421.976 481.283,422.078 477.503,426.375 476.995,426.886 473.433,430.774 472.561,431.669 469.435,435.147 468.199,436.451 465.437,439.546 463.838,441.259 461.440,443.970 459.404,446.093 457.369,448.369 455.043,450.849 453.371,452.793 451.263,455.069 449.155,457.422 446.975,459.749 445.448,461.463 442.759,464.276 441.741,465.350 438.325,468.700 437.744,469.314 434.109,472.434 433.891,472.664 429.748,475.656 429.603,475.707 425.532,478.086 425.241,478.265 420.153,480.567 419.935,480.618 414.556,482.638 413.830,482.843 408.523,484.428 407.215,484.735 402.490,485.860 400.600,486.193 395.948,486.935 393.259,487.241 389.043,487.625 386.863,487.727 381.702,487.906 378.794,487.983 374.360,488.060 370.799,487.881 367.019,487.574 361.495,487.088 359.823,486.909 354.008,485.988 352.918,485.809 346.085,484.454 345.576,484.377 338.235,482.945 338.090,482.894 331.257,481.769 330.748,481.717 322.971,480.822 322.825,480.797 314.975,480.336 314.103,480.285 307.125,480.132 305.453,480.183 298.693,480.720 297.676,480.797 290.480,481.513 288.808,481.717 282.557,482.715 280.303,483.124 275.143,484.249 272.453,484.940 268.237,486.167 265.112,487.241 261.768,488.469 258.497,489.824 256.026,490.899 253.264,492.203 250.356,493.661 247.376,495.272 245.559,496.269 240.762,499.236 240.398,499.440 235.674,502.586 235.601,502.637 231.167,505.834 230.731,506.192 226.733,509.133 225.861,509.798 222.299,512.534 220.991,513.532 217.647,515.936 216.702,516.626 212.777,519.311 211.396,520.258 207.980,522.432 205.290,524.094 203.255,525.270 200.348,526.958 198.821,527.777 195.623,529.439 194.533,529.976 190.753,531.613 190.026,531.920 186.392,533.198 185.156,533.582 180.868,534.758 179.995,534.963 174.762,535.986 174.326,536.063 168.438,536.855 167.275,536.958 162.768,537.265 161.097,537.367 156.881,537.495 154.191,537.316 149.757,536.907 146.487,536.651 142.925,536.395 139.145,535.986 136.165,535.628 132.894,535.142 129.332,534.605 125.625,533.965 122.282,533.326 115.522,531.817 112.396,531.152 107.962,530.206 106.363,529.899 100.984,528.646 98.077,527.956 91.680,526.268 89.718,525.782 83.612,524.196 82.449,523.915 75.544,521.818 75.035,521.690 68.493,519.465 67.694,519.158 61.297,516.677 59.989,516.064 55.119,513.736 54.465,513.353 49.595,510.488 48.577,509.772 45.015,507.010 43.925,505.936 41.672,503.404 40.945,501.947 40.145,499.619 40.000,497.676 40.073,495.527 40.363,493.916 41.090,491.461 41.890,489.492 42.907,487.420 44.289,485.119 45.452,483.456 47.559,480.848 48.722,479.544 51.630,476.628 52.575,475.707 56.355,472.434 57.081,471.846 60.934,468.981 62.242,468.061 67.112,464.915 67.985,464.353 73.945,460.926 74.308,460.695 81.068,457.089 82.595,456.322 88.192,453.535 90.445,452.461 95.678,450.057 98.658,448.727 103.528,446.630 107.962,444.788 112.687,442.845 117.557,440.901 121.119,439.546 126.934,437.346 129.841,436.272 136.674,433.843 138.854,433.075 146.705,430.390 148.086,429.930 157.026,427.014 157.608,426.835 167.348,423.869 167.638,423.766 176.434,421.234 177.015,421.081 187.409,418.319 187.700,418.242 197.295,415.889 199.621,415.327 208.779,413.204 212.341,412.411 220.918,410.621 225.497,409.700 232.548,408.294 236.110,407.578 244.251,405.967 248.830,405.046 255.881,403.614 261.550,402.437 267.510,401.210 274.270,399.829 279.213,398.831 286.991,397.220 290.988,396.427 299.856,394.637 302.764,394.049 310.614,392.412 314.539,391.594 323.261,389.650 326.024,389.011 337.145,386.249 337.508,386.147 347.902,383.282 349.211,382.899 358.151,380.060 360.186,379.344 367.964,376.659 370.799,375.610 377.195,373.104 380.539,371.646 385.627,369.293 388.026,368.091 393.404,365.253 396.239,363.590 400.455,361.007 403.653,358.885 406.997,356.634 410.486,354.102 413.103,352.235 416.882,349.269 418.845,347.785 422.988,344.410 424.369,343.310 428.876,339.499 429.748,338.809 434.545,334.564 434.909,334.282 439.851,329.730 440.796,328.758 444.431,325.127 445.594,323.771 448.138,320.677 449.373,318.835 451.191,315.971 452.281,313.746 453.008,311.726 453.371,309.271 453.444,306.611 453.081,303.874 452.499,301.752 450.755,297.916 449.664,296.023 446.611,292.264 445.521,291.087 441.378,287.047 440.578,286.305 435.781,282.034 435.490,281.727 431.056,277.917 430.257,277.252 425.169,273.083 424.878,272.802 419.426,268.378 419.208,268.250 413.975,263.979 413.321,263.442 408.523,259.606 407.360,258.685 403.145,255.207 402.490,254.644 397.911,250.808 395.876,249.069 392.823,246.435 390.352,244.287 387.880,242.011 385.191,239.453 383.374,237.586 380.684,234.645 379.521,233.136 377.123,229.607 376.396,228.482 373.924,224.543 373.561,223.853 371.090,219.633 370.944,219.352 368.618,215.183 368.545,215.081 367.237,212.677 367.019,212.268 365.202,208.713 364.766,207.895 363.457,205.107 362.949,204.084 361.931,201.859 361.131,200.171 360.623,198.995 359.823,197.230 359.532,196.412 358.951,195.133 358.587,194.264 357.933,192.857 357.642,192.218 357.061,190.888 356.988,190.632 356.334,189.046 356.334,188.944 355.753,187.358 355.680,187.307 355.316,185.824 355.316,185.645 354.953,184.392 354.953,184.341 354.662,183.113 354.662,182.960 354.590,181.988 354.590,181.758 354.590,180.991 354.662,180.709 354.735,180.070 354.808,179.712 354.880,179.200 354.953,178.945 355.026,178.382 355.171,178.049 355.316,177.589 355.462,177.206 355.534,176.847 355.680,176.438 355.898,176.157 356.116,175.697 356.334,175.492 356.697,175.006 356.916,174.878 357.279,174.469 357.570,174.290 358.151,173.804 358.442,173.676 359.169,173.165 359.387,173.088 360.405,172.525 360.550,172.500 361.931,171.988 361.931,171.963 363.457,171.579 363.603,171.528 365.202,171.196 365.565,171.119 367.164,170.914 367.746,170.838 369.272,170.710 370.145,170.659 371.598,170.607 372.689,170.556 373.997,170.556 375.378,170.531 376.468,170.556 378.067,170.531 378.940,170.531 380.321,170.480 381.484,170.454 383.301,170.352 383.955,170.326 385.918,170.121 386.281,170.096 388.244,169.789 388.389,169.789 390.206,169.380 390.206,169.354 391.660,168.894 391.805,168.868 393.114,168.331 393.114,168.306 394.059,167.718 394.131,167.641 394.931,167.053 395.076,166.899 395.512,166.336 395.585,166.106 395.730,165.595 395.730,165.288 395.803,164.802 395.730,164.546 395.658,163.984 395.512,163.651 395.294,163.140 395.004,162.705 394.713,162.270 394.277,161.708 393.913,161.324 393.259,160.659 392.896,160.352 391.878,159.534 391.587,159.278 390.497,158.536 389.988,158.153 388.534,157.232 388.098,156.951 386.208,155.877 385.845,155.672 383.446,154.393 383.301,154.291 380.466,152.808 380.321,152.782 377.413,151.222 376.977,151.043 373.997,149.483 373.197,149.099 370.363,147.616 369.200,147.054 366.510,145.647 364.838,144.829 362.367,143.473 360.332,142.476 358.224,141.325 355.680,139.970 353.790,138.921 351.609,137.745 348.993,136.389 345.867,134.727 344.341,133.908 342.524,132.962 341.724,132.553 337.435,130.226 336.490,129.740 331.402,127.003 330.966,126.799 326.896,124.753" fill="none" stroke="black" stroke-width="2"
            stroke-linejoin="round" stroke-linecap="round"/>
</svg>
