<?xml version="1.0" encoding="utf-8"?>
<svg xmlns="http://www.w3.org/2000/svg" width="1000" height="600">
  <polyline points="759.064,230.489 765.166,238.332 774.295,250.071 777.183,253.864 789.014,269.038 798.003,280.623 803.546,287.748 810.160,296.207 816.774,304.767 822.969,312.713 829.723,321.427 835.498,328.809 840.761,335.576 848.680,345.777 857.762,357.465 863.910,365.461 869.267,372.433 877.325,382.890 884.917,392.733 894.186,404.677 902.942,416.006 913.935,430.205 920.502,438.663 928.234,448.762 935.407,458.091 947.377,474.136 951.989,480.698 956.972,490.489 959.953,502.997 960.000,515.710 957.438,528.474 954.224,540.008 952.874,543.340 949.194,549.543 946.353,552.618 939.180,557.386 935.547,558.718 928.141,560.000 923.623,559.897 919.291,559.180 912.910,556.822 906.762,552.516 902.384,547.697 897.307,540.008 895.071,536.112 889.295,525.398 886.547,520.067 882.076,511.353 879.793,506.893 873.505,495.820 867.730,487.157 860.324,478.084 856.598,474.495 850.915,470.241 844.721,467.114 839.830,465.576 834.706,464.602 828.465,464.038 817.519,463.013 811.697,461.526 806.341,459.014 799.587,453.991 793.765,447.326 790.597,441.585 786.778,429.539 783.611,417.082 782.633,413.391 780.630,405.804 778.767,400.268 772.060,389.657 767.215,384.941 755.478,378.021 750.960,376.688 741.970,375.406 735.263,375.047 726.786,374.432 716.073,372.433 710.065,369.972 700.889,363.770 695.160,358.182 689.850,351.006 686.869,345.162 684.773,338.395 684.121,331.731 685.053,323.734 686.450,319.018 687.708,315.481 691.853,304.460 694.228,297.950 696.837,290.670 698.840,284.468 700.377,274.369 698.746,263.450 696.464,257.812 694.182,253.711 683.096,241.767 676.902,238.127 670.381,234.846 665.164,232.181 656.920,228.387 646.393,224.901 641.875,223.876 635.308,222.543 624.083,221.262 616.630,221.159 609.830,221.416 607.082,221.621 593.062,224.338 585.703,227.157 574.757,232.386 570.984,234.539 564.836,238.383 560.085,241.715 549.232,251.814 541.733,261.502 536.051,269.909 531.207,277.035 525.478,285.442 513.694,301.948 508.943,308.202 505.124,313.174 499.953,319.377 493.759,323.632 485.468,325.887 473.078,328.245 469.771,328.809 458.872,330.757 449.696,332.141 441.918,332.603 436.468,332.346 432.695,331.885 428.597,330.860 424.684,328.860 421.889,326.400 421.424,325.836 419.048,322.299 416.906,317.634 415.229,311.739 414.530,306.920 414.158,303.229 413.692,298.872 412.341,289.338 410.618,280.879 408.894,272.011 407.311,264.014 406.286,258.837 405.261,253.454 404.516,249.763 403.305,243.561 400.510,229.361 399.206,222.748 396.738,209.215 394.548,196.810 392.778,184.712 392.406,180.406 392.825,166.771 395.247,155.288 396.318,151.751 399.066,144.420 401.768,137.961 404.376,132.118 406.565,126.940 408.382,121.968 409.500,117.354 409.500,111.049 408.941,108.896 408.196,107.256 401.395,101.822 398.275,101.719 395.014,102.642 393.524,103.411 391.614,104.846 390.496,105.974 388.540,108.435 386.444,111.920 384.208,116.483 382.997,119.148 380.389,124.633 378.246,128.888 375.452,134.373 374.147,136.834 369.862,144.472 363.388,155.442 360.780,159.696 357.193,165.591 353.001,171.948 348.297,178.151 340.751,186.301 337.072,189.685 331.715,194.042 327.616,196.964 322.726,199.783 312.060,203.730 295.944,206.396 288.771,207.062 279.735,207.421 271.770,207.114 265.715,206.498 258.356,205.319 248.295,203.013 237.629,199.834 228.313,196.400 214.386,190.607 201.950,184.763 193.753,179.996 185.928,174.357 176.100,166.258 165.713,155.339 155.279,140.935 151.740,134.886 145.126,120.481 141.912,112.279 135.298,95.106 130.826,83.521 125.656,71.731 122.582,65.272 118.809,57.942 115.409,52.764 112.847,49.791 106.326,44.665 96.825,40.923 86.717,40.000 84.435,40.000 70.043,41.794 66.829,42.614 58.305,45.741 51.738,49.637 49.083,51.841 43.307,59.890 41.071,66.041 40.000,76.652 41.490,85.777 43.773,92.390 45.869,97.003 50.154,103.975 54.020,108.793 56.814,111.972 60.541,115.868 64.546,119.712 70.555,124.941 76.983,130.221 83.597,135.603 89.000,139.858 95.986,145.241 100.225,148.368 103.951,151.084 115.036,158.825 122.489,163.797 131.292,169.436 138.512,173.845 146.523,178.612 153.323,182.610 159.658,186.199 173.910,193.837 179.872,196.861 187.977,200.757 192.076,202.551 203.021,207.216 212.896,211.163 225.006,215.828 236.511,220.134 247.363,224.132 253.139,226.285 262.594,229.823 275.077,234.436 286.908,238.793 293.615,241.254 300.322,243.715 308.520,246.739 356.168,264.373 365.996,268.013 374.380,271.088 385.792,275.292 394.176,278.419 404.097,282.058 413.273,285.493 420.166,288.056 430.413,290.619 438.751,290.465 451.606,286.672 455.518,285.134 463.064,281.905 474.569,276.061 484.629,269.909 490.778,265.706 503.074,256.171 509.828,250.122 516.908,243.151 523.848,235.974 529.623,229.976 535.446,223.979 542.851,216.033 547.882,210.446 556.638,200.757 561.482,195.477 568.143,188.147 571.683,184.507 575.502,180.970 578.949,178.304 582.582,176.151 586.727,174.409 590.267,173.537 592.876,173.281 597.533,174.050 599.629,175.075 603.635,178.612 605.684,180.611 607.594,182.098 612.578,184.097 617.981,183.994 620.915,183.174 623.011,182.149 625.899,180.201 627.995,178.253 630.324,175.793 632.094,173.845 637.776,168.462 640.851,166.053 643.599,164.310 648.536,162.157 650.678,161.542 656.175,160.568 661.065,160.209 667.633,160.363 676.669,161.593 678.252,161.952 684.075,163.592 690.595,165.899 699.259,169.641 704.056,172.307 706.199,173.588 716.586,180.970 722.501,186.250 731.863,196.246 754.640,224.799" fill="none" stroke="black" stroke-width="2"
            stroke-linejoin="round" stroke-linecap="round"/>
</svg>
