<?xml version="1.0" encoding="utf-8"?>
<svg xmlns="http://www.w3.org/2000/svg" width="1000" height="600">
  <polyline points="98.746,375.254 100.572,376.738 104.124,379.410 106.051,380.894 110.262,384.011 111.733,385.149 115.589,387.970 117.567,389.503 122.031,392.769 123.503,393.907 128.576,397.618 129.540,398.409 135.272,402.664 135.678,403.010 141.918,407.661 142.070,407.760 148.310,412.411 149.071,412.906 154.753,417.210 156.122,418.200 161.297,422.108 163.275,423.543 167.892,427.056 170.428,428.936 174.538,432.053 177.734,434.428 181.285,437.100 185.140,439.970 188.133,442.196 192.648,445.560 195.033,447.342 200.207,451.201 201.983,452.537 207.817,456.940 208.984,457.781 215.579,462.630 216.086,463.026 223.138,468.369 223.290,468.468 230.291,473.663 231.102,474.257 237.494,479.007 238.915,480.046 244.698,484.400 247.184,486.280 253.576,491.029 256.518,493.206 260.881,496.472 264.331,499.045 268.186,501.964 272.346,505.031 275.542,507.406 280.362,511.018 282.848,512.948 288.225,517.153 290.051,518.588 295.835,522.892 296.443,523.338 304.154,529.077 304.256,529.127 311.561,534.569 312.271,535.113 318.105,539.912 319.221,540.853 323.584,544.514 324.142,544.959 328.708,548.620 329.621,549.363 333.172,552.183 334.339,553.123 337.129,555.201 338.499,556.141 340.680,557.427 342.355,558.169 344.232,558.813 346.312,559.307 347.884,559.604 350.116,559.901 351.283,560.000 353.566,559.852 354.327,559.753 356.661,558.961 357.117,558.763 359.451,557.031 359.654,556.784 361.277,554.805 361.531,554.310 362.444,552.331 362.647,551.539 362.951,549.659 363.002,548.571 363.002,546.889 362.900,545.503 362.748,544.069 362.545,542.386 362.444,541.149 362.140,539.170 361.987,538.181 361.581,535.855 361.480,535.064 360.821,531.749 360.770,531.650 360.060,528.434 359.907,527.989 358.893,524.723 358.588,523.931 357.269,520.765 356.305,518.736 355.240,516.510 353.972,513.937 353.059,511.958 351.486,508.742 350.725,507.109 349.000,503.547 348.645,502.706 346.312,497.511 346.159,497.066 344.029,491.425 343.978,491.326 342.355,486.626 342.152,486.032 340.528,480.293 340.478,480.145 338.956,473.812 338.803,473.069 338.296,467.132 338.245,465.747 338.702,460.107 338.956,457.930 339.970,452.883 340.528,450.112 341.644,445.808 342.710,442.493 344.181,438.980 346.007,435.121 347.631,432.301 350.218,427.996 351.689,425.918 355.139,421.416 356.407,420.030 361.074,415.479 362.038,414.687 367.821,410.086 368.278,409.789 374.822,405.385 374.924,405.286 381.620,401.229 382.432,400.735 389.179,397.271 390.650,396.480 396.433,393.610 398.513,392.521 403.637,389.899 406.427,388.415 410.892,386.089 414.189,384.061 417.791,381.735 421.596,378.915 424.538,376.788 428.952,373.522 431.235,371.840 437.272,367.041 437.728,366.695 443.359,361.054 443.461,360.906 447.824,354.276 448.280,353.484 452.136,346.657 452.998,345.172 456.397,339.482 457.615,337.355 460.253,332.902 462.333,329.637 464.970,326.074 467.862,322.611 470.348,320.088 474.153,316.822 476.436,315.239 481.813,312.369 483.741,311.479 490.082,308.708 491.300,308.114 497.235,304.354 497.692,304.008 502.663,298.516 503.526,297.229 506.773,291.836 507.736,289.907 509.715,285.108 510.476,282.337 511.592,277.735 512.454,274.272 513.418,270.512 514.331,266.455 515.194,263.338 516.868,258.835 517.883,256.510 520.318,251.661 521.231,250.127 524.579,245.427 525.289,244.586 529.855,239.985 530.210,239.638 535.486,235.334 535.588,235.284 540.965,231.574 541.574,231.227 546.647,228.358 547.814,227.764 552.532,225.637 554.307,224.944 558.670,223.460 561.054,222.915 564.961,222.272 568.055,222.124 571.556,222.124 575.310,222.470 578.201,222.866 582.463,223.905 584.695,224.548 589.717,226.379 591.442,227.022 597.276,229.545 598.341,229.990 604.125,233.009 604.581,233.206 610.669,236.521 610.770,236.620 616.554,239.193 617.873,239.688 623.250,241.271 625.127,241.766 629.845,242.706 632.229,243.052 636.085,243.201 638.824,242.953 641.919,242.162 645.216,240.776 647.804,239.391 651.558,237.165 653.486,235.928 657.443,233.305 658.762,232.316 662.719,228.902 663.479,228.160 667.538,223.657 667.842,223.311 671.850,218.166 671.901,218.067 675.959,213.366 676.822,212.426 678.597,210.546 679.865,209.161 682.199,206.687 683.822,204.955 685.649,203.273 687.627,201.739 689.301,200.700 691.889,199.315 693.309,198.672 696.251,197.633 697.317,197.336 700.817,196.792 701.527,196.742 705.637,196.792 706.093,196.841 709.644,197.336 710.405,197.534 713.500,198.424 714.565,198.870 717.203,200.008 718.573,200.799 720.754,202.135 722.428,203.372 724.255,204.708 726.183,206.242 727.654,207.479 729.734,209.656 730.850,210.843 733.488,213.564 734.452,214.356 737.952,216.582 738.713,216.879 743.329,218.512 743.685,218.561 748.453,219.254 749.975,219.353 753.881,219.205 755.961,219.106 759.462,218.759 761.998,218.512 765.144,218.116 768.948,217.671 771.891,217.176 775.797,216.384 777.826,215.890 782.291,214.801 783.863,214.356 789.089,213.069 790.154,212.773 796.191,211.288 796.647,211.140 803.293,209.458 803.445,209.458 810.040,207.578 810.801,207.380 816.737,205.351 818.106,204.856 823.484,202.531 825.462,201.690 830.282,199.463 832.920,198.276 837.130,196.247 840.225,194.615 843.573,192.537 848.037,188.925 849.509,187.589 854.430,182.988 855.343,182.048 860.416,176.754 860.822,176.308 866.098,170.322 866.199,170.223 871.221,164.088 871.779,163.395 876.396,157.755 877.411,156.468 881.621,151.422 883.143,149.541 886.897,144.990 889.941,141.279 892.224,138.508 895.572,134.550 897.348,132.472 901.406,127.673 902.827,125.990 907.443,120.548 908.356,119.460 913.379,113.374 913.784,112.879 919.162,106.150 919.263,106.002 924.133,100.114 925.250,98.828 929.866,93.534 931.489,91.654 935.446,87.003 937.374,84.776 940.469,81.214 942.701,78.740 945.136,76.069 947.419,73.496 949.093,71.616 951.325,68.993 952.390,67.657 954.267,65.035 954.876,64.145 956.500,61.225 956.804,60.681 958.224,57.812 958.326,57.564 959.391,54.645 959.391,54.596 960.000,51.874 960.000,51.578 959.949,49.153 959.848,48.658 959.239,46.630 958.884,45.987 957.920,44.552 957.210,43.859 956.043,42.870 954.978,42.226 953.862,41.633 952.543,41.138 951.579,40.792 950.057,40.445 949.296,40.247 947.064,40.049 946.911,40.000 944.426,40.000 944.324,40.049 941.788,40.148 941.433,40.198 938.998,40.445 937.881,40.594 936.106,40.841 934.635,41.088 933.011,41.385 931.185,41.831 929.815,42.127 927.532,42.721 926.315,43.068 923.525,43.958 922.561,44.255 919.111,45.442 918.452,45.640 914.292,47.125 914.038,47.224 910.335,48.559 909.827,48.757 905.312,50.341 904.247,50.736 900.036,52.221 898.464,52.814 894.507,54.200 892.325,54.991 888.673,56.278 886.897,56.921 882.687,58.356 880.302,59.197 876.497,60.533 873.454,61.572 870.105,62.710 866.402,63.996 863.561,64.936 859.097,66.470 856.763,67.212 851.589,68.944 849.864,69.488 843.928,71.467 842.812,71.814 836.065,73.990 835.608,74.139 828.303,76.415 828.100,76.514 820.795,78.542 819.933,78.790 813.186,80.670 811.613,81.115 805.474,82.797 803.141,83.441 797.662,84.925 794.618,85.766 789.748,87.052 785.892,88.091 781.733,89.180 777.218,90.367 773.819,91.258 768.390,92.693 765.600,93.385 759.310,94.969 757.230,95.463 750.127,97.245 748.808,97.541 740.844,99.520 740.286,99.619 731.661,101.697 731.459,101.747 722.986,103.726 721.972,103.973 714.210,105.755 712.384,106.200 705.383,107.734 702.745,108.327 696.454,109.713 692.954,110.504 688.236,111.494 683.112,112.632 679.206,113.423 673.220,114.660 670.074,115.304 663.175,116.738 660.841,117.184 653.283,118.717 651.811,118.965 643.238,120.647 642.578,120.746 633.193,122.527 632.990,122.577 623.757,124.259 622.641,124.457 614.321,125.941 612.343,126.287 604.784,127.623 601.943,128.118 595.247,129.206 591.543,129.850 585.659,130.790 581.042,131.581 576.020,132.373 570.541,133.264 566.381,133.907 559.989,134.946 556.691,135.391 549.386,136.331 546.951,136.578 538.682,137.568 537.160,137.716 528.029,138.755 527.369,138.805 517.527,139.844 517.274,139.893 507.635,140.833 506.468,140.982 497.742,141.823 495.713,142.021 487.850,142.763 484.908,143.060 477.958,143.654 474.102,144.049 468.014,144.594 462.992,145.138 457.564,145.633 451.831,146.177 447.621,146.573 441.026,147.265 437.677,147.562 430.271,148.304 427.937,148.502 420.632,149.294 419.364,149.393 411.957,150.036 411.500,150.036 405.413,150.580 404.703,150.679 399.579,151.125 398.463,151.273 394.506,151.669 393.085,151.817 389.889,152.164 388.317,152.411 386.084,152.906 385.070,153.203 382.787,154.044 381.569,154.637 379.743,155.676 378.323,156.567 376.953,157.507 375.634,158.596 374.822,159.387 373.706,160.773 373.300,161.515 372.489,163.395 372.336,163.989 371.829,166.215 371.829,166.611 371.778,168.986 371.829,169.134 372.286,171.608 372.286,171.707 373.047,174.082 373.148,174.379 374.061,176.556 374.264,177.100 375.431,179.178 375.837,180.019 377.054,181.899 377.765,183.037 379.033,184.769 380.098,186.204 381.366,187.737 382.838,189.420 384.055,190.657 386.034,192.636 387.150,193.675 389.585,196.099 390.447,196.891 393.440,199.661 394.100,200.206 398.412,204.213 398.716,204.461 402.775,208.221 402.825,208.320 406.935,212.228 407.341,212.674 410.334,215.593 411.095,216.434 414.341,220.095 415.457,221.530 417.994,224.894 419.211,226.676 420.683,229.001 421.900,231.376 422.661,233.108 423.524,235.829 423.879,237.214 424.386,240.232 424.538,241.172 424.690,243.547 424.690,244.735 424.437,247.258 424.335,248.049 423.574,250.672 423.422,251.117 422.154,253.838 422.052,253.987 420.277,256.559 420.226,256.658 418.298,258.786 418.045,259.033 416.066,260.567 415.559,260.864 413.530,261.755 412.109,262.150 410.587,262.398 408.862,262.645 407.493,262.695 405.210,262.794 404.246,262.794 402.876,262.843 402.369,262.794 399.528,262.695 398.970,262.596 395.825,262.002 395.622,261.903 392.020,260.567 391.918,260.567 388.469,258.885 388.063,258.687 385.171,256.658 384.461,256.114 381.823,253.690 380.808,252.799 378.526,250.424 377.257,249.088 375.329,246.763 373.960,244.784 372.590,242.409 371.068,239.688 369.901,237.560 368.024,234.295 367.111,232.563 365.031,228.655 364.372,227.319 361.835,222.915 361.328,222.074 357.675,217.522 357.422,217.176 353.515,213.069 353.059,212.624 349.457,209.309 348.645,208.666 345.449,206.143 344.282,205.401 341.543,203.817 340.072,203.125 337.687,202.135 336.521,201.789 333.730,201.096 332.310,200.898 330.179,200.750 328.556,200.849 326.831,200.997 324.954,201.393 323.635,201.690 321.758,202.382 320.896,202.729 318.613,204.015 318.460,204.114 316.380,205.846 316.330,205.895 314.757,207.775 314.554,208.023 313.641,209.952 313.489,210.447 313.184,212.228 313.134,212.921 313.286,214.603 313.387,215.593 313.641,217.028 313.895,218.166 314.301,219.353 314.808,220.788 315.315,221.827 316.025,223.460 316.482,224.251 317.598,226.131 318.055,226.725 319.526,228.951 319.881,229.347 321.758,232.019 321.910,232.167 324.142,235.136 324.193,235.235 326.628,238.303 327.389,239.292 329.317,241.667 330.382,243.052 332.208,245.328 333.680,247.159 335.404,249.187 337.332,251.513 338.854,253.245 341.188,256.065 342.405,257.549 344.993,261.062 345.551,261.804 348.544,266.554 348.797,266.900 351.841,272.343 351.841,272.491 354.226,277.983 354.428,278.676 356.103,284.365 356.103,284.514 357.675,290.896 357.777,291.638 358.538,297.576 358.588,299.010 358.791,304.601 358.690,306.679 358.335,311.479 357.878,314.200 356.914,318.455 355.849,321.770 354.530,325.332 352.805,329.241 351.435,332.061 349.051,336.118 347.631,338.147 343.876,342.599 342.557,343.935 337.890,348.042 336.926,348.735 330.687,352.247 330.331,352.445 325.055,354.969 324.903,355.068 318.004,357.987 315.772,358.729 310.546,360.362 307.655,361.054 302.988,361.945 299.183,362.242 294.972,362.341 290.356,362.093 286.855,361.796 281.478,361.054 278.738,360.609 272.803,359.422 270.875,358.927 264.382,356.799 263.215,356.304 256.163,353.237 255.707,352.940 248.655,348.982 248.452,348.932 241.806,344.430 241.045,343.886 235.871,338.988 233.690,336.613 230.392,332.556 227.856,329.488 225.725,326.618 222.732,322.166 221.362,319.791 218.775,314.942 217.862,313.210 214.260,307.273 213.549,306.086 210.303,300.742 209.237,298.912 205.483,293.073 204.722,291.935 200.055,286.147 199.751,285.701 194.881,280.160 194.728,280.061 190.112,275.460 189.503,275.014 184.937,271.501 183.821,270.809 179.560,268.186 177.886,267.395 173.980,265.713 171.747,265.020 168.247,264.228 165.406,263.931 162.159,263.833 158.659,264.030 155.970,264.278 152.064,264.822 150.035,265.218 145.773,266.455 144.302,266.950 139.533,269.028 138.570,269.423 133.091,272.046 132.634,272.194 126.648,274.965 126.546,275.064 120.510,277.785 119.850,278.131 114.219,280.655 112.951,281.298 107.776,283.574 105.848,284.464 101.130,286.443 98.492,287.532 94.231,289.214 89.615,291.045 87.179,291.985 81.853,294.112 80.077,294.805 74.243,297.180 73.127,297.576 66.989,300.099 66.431,300.396 62.220,302.177 61.307,302.622 57.959,304.107 56.335,304.948 53.799,306.284 51.516,307.768 50.349,308.510 48.117,310.341 47.356,310.934 45.631,312.666 44.769,313.507 43.196,315.536 42.689,316.179 41.370,318.554 41.116,318.999 40.254,321.819 40.203,322.017 40.000,325.085 40.051,325.184 40.507,328.053 40.812,328.944 41.522,330.873 42.029,331.912 42.892,333.496 43.703,334.733 44.616,336.019 45.733,337.454 46.544,338.493 47.914,340.126 48.624,340.868 50.653,342.946 50.806,343.094 53.494,345.469 53.596,345.568 56.538,347.794 56.944,348.091 59.785,350.169 60.495,350.664 63.285,352.594 64.401,353.336 67.141,355.117 68.714,356.107 71.250,357.640 73.381,358.877 75.714,360.312 78.403,361.895 80.483,363.231 83.781,365.260 85.505,366.348 89.412,368.773 90.680,369.614 94.840,372.434 95.601,372.978 98.848,375.304" fill="none" stroke="black" stroke-width="2"
            stroke-linejoin="round" stroke-linecap="round"/>
</svg>
