<?xml version="1.0" encoding="utf-8"?>
<svg xmlns="http://www.w3.org/2000/svg" width="1000" height="600">
  <polyline points="180.615,229.511 181.277,228.449 183.830,224.139 187.612,218.143 190.827,212.896 194.043,207.899 197.825,201.715 200.378,197.593 204.823,190.410 206.809,187.224 211.820,178.979 213.239,176.793 218.913,167.611 219.764,166.362 225.626,156.805 226.005,156.243 232.151,146.311 233.097,144.812 238.676,135.755 240.567,132.632 246.903,122.013 248.983,118.141 252.388,111.457 254.184,107.459 256.643,102.025 258.629,97.091 260.615,92.468 262.790,87.159 264.208,83.786 266.383,78.352 267.423,76.041 270.071,70.419 270.827,68.983 273.664,63.611 274.137,62.861 277.825,57.489 278.014,57.302 282.175,52.492 282.270,52.368 284.350,51.306 285.674,50.244 289.267,47.246 291.348,45.934 294.279,44.435 297.116,43.248 299.953,42.186 303.452,41.312 305.910,40.812 310.071,40.250 311.962,40.062 316.690,40.000 318.109,40.000 323.404,40.437 324.161,40.500 329.551,41.624 329.835,41.624 334.563,43.061 335.225,43.248 339.480,45.059 339.669,45.122 344.208,48.308 344.397,48.557 348.180,52.180 348.652,52.805 351.300,56.490 351.868,57.614 353.475,61.300 353.853,63.049 354.421,66.547 354.421,68.920 354.137,72.168 353.475,75.166 352.908,77.477 351.300,81.850 350.544,83.724 348.085,88.721 347.423,90.032 344.397,95.654 344.019,96.404 340.331,102.775 340.236,102.962 336.265,109.771 335.130,111.457 331.726,116.766 330.118,119.140 326.809,123.950 324.634,127.073 321.702,131.320 319.054,135.255 316.596,138.941 313.570,143.688 311.773,146.748 308.747,152.370 307.612,154.868 305.154,161.489 304.681,163.301 303.452,171.046 303.452,172.108 303.546,181.165 303.641,181.415 304.965,190.909 304.965,191.471 306.383,199.841 306.478,201.091 306.856,207.649 306.667,210.710 306.005,214.583 304.870,217.768 303.452,220.579 301.087,223.889 299.196,225.888 295.225,229.261 293.239,230.635 287.660,233.759 286.052,234.508 278.771,237.444 277.730,237.756 269.031,240.442 268.747,240.505 259.480,242.753 258.913,242.941 250.213,244.939 248.700,245.314 241.040,247.063 238.771,247.625 232.624,249.124 230.165,249.749 225.059,251.311 219.953,253.122 214.374,255.183 210.969,256.995 209.551,258.056 206.619,260.430 205.485,261.554 203.215,264.615 202.837,265.427 201.418,269.050 201.324,269.550 201.135,273.672 201.229,273.797 202.270,277.920 202.270,278.169 204.255,281.792 204.634,282.354 207.187,285.353 207.943,286.227 211.064,288.726 212.482,289.787 215.887,291.661 218.156,292.786 221.466,294.097 224.492,295.159 227.612,295.909 231.489,296.658 234.137,296.971 238.865,297.595 241.135,297.595 247.092,296.846 248.889,296.533 256.454,295.222 257.589,294.972 266.005,293.223 266.288,293.160 274.894,291.349 275.366,291.286 283.688,289.538 284.728,289.350 290.402,288.038 291.915,287.664 297.589,286.102 298.913,285.790 307.518,283.541 309.976,282.979 317.920,281.043 321.418,280.231 328.605,278.607 333.239,277.670 339.858,276.295 345.721,275.171 351.395,274.172 358.582,273.047 363.404,272.360 372.104,271.361 375.981,270.986 386.099,270.237 388.842,270.049 400.284,269.612 400.757,269.550 414.090,269.362 414.846,269.425 427.707,269.737 429.693,269.862 441.513,270.549 444.823,270.861 455.414,271.861 462.600,272.673 469.504,273.485 477.920,274.609 483.593,275.296 493.428,276.670 497.872,277.170 509.314,278.544 512.340,278.856 523.877,280.043 525.579,280.168 539.764,281.043 540.236,281.043 554.988,281.168 555.839,281.168 569.835,280.356 572.009,280.168 584.586,278.482 588.085,277.920 599.243,275.608 603.972,274.484 613.522,271.736 619.385,269.862 627.423,267.051 636.879,263.491 641.040,261.804 651.442,257.557 654.374,256.370 666.005,251.685 667.707,250.998 680.567,246.189 681.135,246.001 695.035,241.629 695.792,241.441 708.936,238.256 709.409,238.131 724.444,235.632 725.201,235.570 738.251,234.258 740.426,234.133 753.475,233.384 757.163,233.259 768.889,232.884 774.090,232.822 784.586,232.634 791.300,232.634 800.284,232.572 808.322,232.634 815.981,232.634 826.005,232.759 831.111,232.822 843.499,233.071 846.903,233.134 860.236,233.696 862.128,233.759 876.028,234.758 876.501,234.758 889.929,236.444 890.686,236.632 902.411,239.193 904.208,239.755 914.232,243.003 916.879,244.127 925.201,247.938 928.511,249.874 935.035,253.996 938.723,256.932 943.546,261.055 947.234,264.990 950.449,268.862 953.759,273.922 955.650,277.232 958.014,283.354 958.865,286.102 959.905,293.410 960.000,295.409 959.338,303.904 959.149,305.153 956.028,315.584 955.934,315.897 951.111,324.579 950.733,325.141 943.924,333.261 942.695,334.573 935.887,341.756 933.901,343.755 927.849,349.939 925.201,352.625 920.000,358.059 916.690,361.494 912.151,366.304 908.085,370.614 904.303,374.674 899.669,379.858 896.832,383.294 891.820,389.477 889.740,392.163 884.539,399.409 883.215,401.408 877.636,409.715 876.974,410.777 871.206,419.522 871.111,419.709 865.248,427.954 864.870,428.454 859.291,435.325 858.345,436.387 853.522,440.947 851.158,442.758 846.147,446.006 842.553,447.817 837.258,449.941 831.962,451.565 826.667,452.752 819.669,453.939 815.035,454.438 806.714,455.126 803.121,455.250 793.664,455.438 791.111,455.375 780.426,455.126 779.007,455.063 767.187,454.376 766.809,454.314 754.515,453.064 753.759,453.002 742.128,451.315 740.236,451.065 729.740,449.067 726.714,448.442 717.352,446.193 713.286,445.132 705.248,442.695 700.142,441.009 693.712,438.511 688.511,436.324 685.012,434.575 683.310,433.638 682.080,432.826 677.163,430.078 674.894,428.704 669.882,425.456 668.747,424.581 664.208,420.959 663.735,420.396 660.047,416.336 659.953,416.149 657.400,412.089 657.210,411.902 656.265,408.404 656.265,408.279 656.454,404.468 656.643,403.656 658.061,400.908 659.007,399.659 661.655,396.911 663.546,395.286 666.383,393.038 669.125,391.164 671.962,389.415 675.650,387.416 678.203,386.105 682.837,383.981 685.012,383.044 690.686,380.795 691.631,380.420 699.385,377.922 699.669,377.797 708.369,375.423 708.842,375.298 717.825,373.362 719.433,373.112 727.849,371.613 728.794,371.488 730.402,371.363 733.050,371.051 741.277,370.052 746.099,369.614 752.719,368.990 758.676,368.490 764.539,367.928 771.631,367.241 776.170,366.679 783.830,365.679 787.045,365.117 794.894,363.805 796.974,363.368 804.917,361.744 806.052,361.432 814.090,359.371 814.374,359.246 821.844,356.810 822.222,356.685 828.369,353.936 829.504,353.249 836.312,348.565 837.541,347.565 839.811,344.879 840.567,343.505 842.080,340.320 842.553,338.321 843.026,335.572 843.026,333.136 842.837,330.700 841.986,327.765 841.324,325.828 840.095,323.455 838.771,321.144 836.596,318.458 834.988,316.646 831.678,313.711 830.165,312.461 825.721,309.588 824.397,308.776 818.156,305.965 817.305,305.590 809.551,303.279 809.267,303.154 795.934,300.906 794.988,300.781 783.262,299.282 781.466,299.157 773.333,298.470 769.645,298.220 762.459,297.658 757.920,297.345 751.773,296.783 746.005,296.346 740.426,295.909 733.239,295.471 728.605,295.159 720.095,294.722 716.407,294.535 706.478,294.285 703.830,294.222 692.482,294.222 690.875,294.222 677.920,294.535 677.541,294.535 663.924,295.159 663.073,295.222 649.929,295.971 647.754,296.159 635.745,297.095 632.246,297.470 621.371,298.532 616.548,299.094 606.903,300.344 600.757,301.218 592.340,302.467 584.681,303.717 577.494,304.966 568.416,306.590 562.553,307.652 552.151,309.713 547.612,310.587 535.792,313.148 532.671,313.835 519.433,316.959 517.636,317.396 503.073,321.081 502.600,321.144 487.281,324.891 486.430,325.141 472.719,328.077 472.340,328.139 458.251,330.950 457.305,331.138 442.364,334.198 439.905,334.760 426.572,337.696 422.884,338.571 412.104,341.132 407.565,342.318 399.338,344.505 394.232,345.941 387.707,347.815 381.655,349.626 376.548,351.126 370.969,352.874 368.511,353.686 362.080,355.810 360.473,356.310 353.853,358.559 353.002,358.808 346.099,360.995 345.910,360.995 339.385,362.494 339.007,362.619 333.617,363.181 332.766,363.181 328.322,362.556 326.052,362.244 323.026,361.557 320.378,360.495 318.014,359.058 314.610,356.872 312.435,355.311 308.369,352.750 306.667,351.750 302.222,349.814 301.087,349.314 295.792,347.815 295.130,347.628 288.983,346.753 288.794,346.691 282.459,346.441 282.080,346.503 276.407,346.941 275.461,347.128 270.733,348.002 269.409,348.377 265.532,349.564 263.924,350.189 260.993,351.563 259.196,352.500 257.116,353.874 255.319,355.373 253.901,356.810 252.199,358.746 251.253,360.120 250.307,362.119 249.740,364.055 249.267,366.679 249.173,368.428 249.362,371.863 249.740,373.425 250.780,377.859 251.158,378.796 252.104,381.732 252.293,382.169 253.901,387.604 253.995,387.729 255.697,393.413 255.792,393.850 257.400,399.659 257.589,400.658 259.007,405.593 259.574,407.841 260.804,412.401 261.560,415.399 262.695,419.584 263.641,423.395 264.681,427.017 265.816,431.640 266.667,434.638 268.085,440.135 268.747,442.571 270.449,449.004 270.922,450.753 272.813,458.061 273.097,459.061 275.272,467.181 275.366,467.493 277.636,476.175 277.730,476.675 280.000,485.045 280.284,486.357 282.364,493.977 282.837,496.038 284.634,502.597 285.296,505.408 286.525,510.530 286.998,512.653 287.470,515.339 287.849,518.650 288.227,522.085 288.132,525.958 287.849,528.394 286.809,532.579 286.241,534.453 283.877,538.950 283.121,540.199 279.054,544.947 278.487,545.634 272.435,550.193 272.246,550.381 264.681,554.441 264.113,554.628 256.170,557.314 255.887,557.439 245.863,559.313 245.201,559.375 234.610,560.000 230.638,560.000 222.600,559.875 217.400,559.625 210.402,559.313 204.161,559.001 198.487,558.751 191.111,558.438 186.478,558.251 177.872,557.876 174.279,557.689 164.444,556.939 162.931,556.814 150.638,555.315 150.260,555.315 137.589,553.067 136.832,552.879 126.714,550.631 125.012,550.131 114.043,547.258 111.017,546.321 101.749,543.198 97.778,541.636 89.929,538.201 85.201,535.765 78.960,532.329 73.759,528.956 68.936,525.646 63.452,521.211 59.953,518.213 54.563,512.591 52.293,510.092 47.376,503.222 46.147,501.348 42.364,493.415 41.891,492.353 40.095,483.296 40.000,483.046 40.757,472.927 40.946,472.303 43.499,462.933 44.066,461.434 47.943,453.439 49.267,451.378 54.184,444.070 57.210,439.635 63.357,429.953 66.099,425.581 68.842,420.646 71.678,415.899 74.326,411.214 77.730,405.468 79.905,401.658 82.837,396.723 85.485,392.101 88.983,386.229 91.158,382.357 95.225,375.548 96.927,372.550 101.466,364.805 102.695,362.681 107.896,353.936 108.558,352.687 114.326,342.943 114.421,342.631 120.284,332.574 120.757,331.950 126.714,321.581 127.754,319.957 132.104,312.274 134.090,308.901 138.061,302.030 140.520,297.720 144.113,291.724 147.139,286.414 150.165,281.292 153.759,275.046 156.312,270.861 160.662,263.303 162.459,260.368 165.957,254.371 167.092,252.497 172.388,243.315 173.239,241.941 179.102,231.885 179.385,231.510 181.087,229.074" fill="none" stroke="black" stroke-width="2"
            stroke-linejoin="round" stroke-linecap="round"/>
</svg>
