<?xml version="1.0" encoding="utf-8"?>
<svg xmlns="http://www.w3.org/2000/svg" width="1000" height="600">
  <polyline points="412.041,370.298 414.124,369.363 416.205,368.427 418.277,367.498 420.328,366.587 422.401,365.663 424.503,364.73 426.56,363.799 428.638,362.886 430.754,361.944 432.82,361.009 434.884,360.1 436.973,359.153 439.039,358.236 441.107,357.3 443.187,356.369 445.274,355.435 447.344,354.499 449.414,353.562 451.492,352.642 453.539,351.708 455.619,350.769 457.704,349.821 459.785,348.884 461.854,347.944 463.916,347.014 465.981,346.068 468.032,345.122 470.097,344.181 472.164,343.227 474.22,342.279 476.272,341.33 478.339,340.369 480.411,339.402 482.479,338.433 484.544,337.463 486.607,336.481 488.687,335.498 490.744,334.518 492.768,333.552 494.799,332.58 496.828,331.606 498.883,330.616 500.959,329.614 503.019,328.619 505.09,327.614 507.151,326.611 509.196,325.61 511.246,324.599 513.278,323.594 515.309,322.569 517.357,321.508 519.379,320.406 521.349,319.248 523.259,317.988 525.11,316.581 526.9,314.969 528.531,313.192 529.904,311.339 530.995,309.488 531.844,307.667 532.509,305.852 533.014,304.017 533.373,302.112 533.569,300.089 533.583,297.945 533.381,295.65 532.951,293.294 532.324,291.006 531.534,288.809 530.61,286.727 529.565,284.738 528.41,282.784 527.207,280.861 525.981,278.95 524.724,277.026 523.488,275.153 522.239,273.293 520.955,271.377 519.7,269.486 518.446,267.592 517.197,265.684 515.978,263.806 514.748,261.883 513.519,259.946 512.313,258.036 511.105,256.129 509.88,254.217 508.643,252.32 507.369,250.459 506.008,248.619 504.564,246.829 503.018,245.104 501.357,243.445 499.611,241.886 497.829,240.468 496.032,239.195 494.22,238.049 492.37,237.006 490.49,236.068 488.644,235.246 486.74,234.504 484.687,233.82 482.558,233.217 480.416,232.721 478.158,232.305 475.87,232.007 473.656,231.828 471.377,231.744 469.065,231.745 466.844,231.781 464.58,231.83 462.323,231.857 460.056,231.84 457.795,231.769 455.534,231.622 453.291,231.384 451.148,231.069 449.002,230.654 446.858,230.141 444.766,229.536 442.695,228.829 440.654,228.022 438.672,227.125 436.743,226.14 434.848,225.069 433.006,223.912 431.226,222.675 429.511,221.364 427.855,219.979 426.249,218.506 424.707,216.963 423.255,215.369 421.861,213.706 420.515,211.955 419.238,210.149 418.07,208.323 416.964,206.433 415.911,204.416 414.953,202.397 414.102,200.372 413.325,198.215 412.612,196.034 412.019,193.817 411.493,191.578 411.064,189.34 410.728,187.055 410.433,184.77 410.222,182.501 410.062,180.227 409.902,177.95 409.764,175.723 409.629,173.516 409.495,171.278 409.331,169.022 409.153,166.778 408.95,164.57 408.71,162.379 408.436,160.173 408.128,157.943 407.79,155.719 407.426,153.526 407.021,151.32 406.58,149.082 406.122,146.893 405.626,144.744 405.095,142.551 404.526,140.344 403.926,138.164 403.31,136.018 402.675,133.871 401.997,131.697 401.288,129.516 400.549,127.353 399.788,125.191 399.005,123.032 398.207,120.897 397.403,118.797 396.568,116.677 395.706,114.552 394.828,112.441 393.931,110.321 393.041,108.256 392.141,106.215 391.206,104.123 390.256,102.035 389.314,99.963 388.358,97.895 387.404,95.835 386.452,93.799 385.509,91.739 384.534,89.665 383.57,87.596 382.618,85.545 381.658,83.495 380.703,81.438 379.732,79.368 378.764,77.286 377.797,75.228 376.835,73.171 375.865,71.086 374.887,69.003 373.903,66.901 372.923,64.815 371.958,62.762 370.982,60.688 369.992,58.6 369.001,56.531 367.998,54.477 366.956,52.428 365.847,50.407 364.627,48.431 363.262,46.528 361.681,44.707 359.887,43.085 357.953,41.787 355.894,40.836 353.796,40.248 351.724,40.0 349.764,40.053 347.987,40.348 346.389,40.828 344.923,41.468 343.519,42.29 342.148,43.323 340.802,44.611 339.48,46.221 338.287,48.129 337.284,50.243 336.499,52.48 335.921,54.756 335.521,57.025 335.259,59.311 335.116,61.61 335.077,63.909 335.123,66.193 335.243,68.477 335.418,70.736 335.632,72.975 335.867,75.248 336.111,77.506 336.352,79.755 336.578,82.006 336.804,84.252 336.992,86.509 337.16,88.771 337.298,91.021 337.42,93.287 337.52,95.534 337.598,97.786 337.674,100.073 337.734,102.335 337.784,104.576 337.831,106.842 337.868,109.114 337.908,111.369 337.936,113.657 337.976,115.915 338.001,118.182 338.022,120.467 338.06,122.711 338.084,125.003 338.117,127.272 338.142,129.553 338.175,131.825 338.209,134.04 338.222,136.345 338.263,138.638 338.285,140.865 338.31,143.144 338.342,145.438 338.363,147.716 338.394,149.966 338.425,152.237 338.44,154.53 338.464,156.795 338.492,159.038 338.515,161.282 338.542,163.558 338.562,165.843 338.581,168.117 338.612,170.4 338.634,172.68 338.663,174.967 338.692,177.237 338.715,179.491 338.742,181.765 338.777,184.046 338.801,186.313 338.827,188.599 338.853,190.871 338.882,193.102 338.902,195.39 338.939,197.682 338.954,199.958 338.982,202.204 339.005,204.481 339.041,206.785 339.055,209.05 339.083,211.318 339.117,213.582 339.139,215.851 339.167,218.111 339.202,220.39 339.229,222.685 339.256,224.934 339.288,227.217 339.315,229.51 339.36,231.773 339.377,234.007 339.417,236.254 339.447,238.563 339.49,240.878 339.518,243.133 339.54,245.397 339.598,247.66 339.589,249.902 339.656,252.185 339.676,254.467 339.71,256.766 339.744,259.031 339.769,261.312 339.802,263.593 339.81,265.852 339.872,268.141 339.863,270.403 339.912,272.661 339.921,274.914 339.951,277.2 339.97,279.47 339.996,281.744 340.01,284.044 340.047,286.323 340.052,288.588 340.071,290.847 340.113,293.129 340.112,295.403 340.136,297.664 340.152,299.929 340.194,302.193 340.182,304.471 340.214,306.74 340.23,309.031 340.241,311.302 340.235,313.559 340.285,315.856 340.259,318.114 340.282,320.38 340.301,322.673 340.31,324.932 340.299,327.203 340.355,329.474 340.321,331.775 340.363,334.046 340.366,336.316 340.389,338.61 340.37,340.85 340.438,343.127 340.405,345.409 340.45,347.679 340.426,349.947 340.444,352.226 340.475,354.487 340.456,356.713 340.485,359.013 340.479,361.3 340.493,363.557 340.507,365.84 340.513,368.102 340.536,370.358 340.516,372.624 340.541,374.902 340.55,377.144 340.537,379.414 340.562,381.702 340.537,383.972 340.518,386.248 340.531,388.527 340.492,390.818 340.495,393.092 340.454,395.382 340.462,397.66 340.421,399.935 340.401,402.232 340.386,404.545 340.376,406.841 340.35,409.136 340.332,411.425 340.298,413.717 340.295,416.012 340.263,418.322 340.238,420.616 340.219,422.882 340.191,425.193 340.177,427.489 340.162,429.765 340.178,432.061 340.231,434.364 340.412,436.66 340.796,438.945 341.517,441.247 342.727,443.409 344.159,444.908 345.356,445.673 346.534,446.155 348.155,446.466 350.223,446.352 352.367,445.736 354.428,444.855 356.507,443.961 358.695,443.272 360.93,442.935 362.847,442.939 364.333,443.151 365.901,443.545 367.875,444.326 369.916,445.538 371.728,447.009 373.356,448.645 374.812,450.399 376.162,452.242 377.44,454.129 378.667,456.024 379.875,457.929 381.063,459.831 382.248,461.719 383.45,463.616 384.686,465.468 385.962,467.296 387.292,469.102 388.646,470.874 390.048,472.613 391.468,474.32 392.92,475.998 394.409,477.662 395.936,479.296 397.504,480.935 399.104,482.521 400.713,484.06 402.359,485.596 404.043,487.093 405.743,488.546 407.467,489.982 409.218,491.386 410.997,492.748 412.801,494.09 414.601,495.376 416.44,496.645 418.334,497.891 420.194,499.093 422.123,500.297 424.081,501.457 426.015,502.579 427.968,503.678 429.967,504.753 431.965,505.806 433.938,506.817 435.994,507.826 438.033,508.816 440.064,509.773 442.161,510.706 444.249,511.652 446.314,512.523 448.398,513.38 450.532,514.249 452.682,515.088 454.797,515.904 456.897,516.708 459.024,517.499 461.164,518.285 463.282,519.066 465.406,519.83 467.551,520.597 469.696,521.357 471.829,522.104 473.976,522.863 476.151,523.624 478.319,524.364 480.457,525.113 482.599,525.84 484.724,526.566 486.87,527.295 489.063,528.049 491.225,528.782 493.334,529.503 495.463,530.216 497.638,530.935 499.812,531.673 501.948,532.354 504.079,533.065 506.285,533.793 508.473,534.452 510.594,535.156 512.783,535.872 514.97,536.508 517.08,537.209 519.3,537.878 521.462,538.552 523.593,539.194 525.838,539.866 527.985,540.535 530.142,541.141 532.336,541.812 534.484,542.424 536.677,543.039 538.859,543.658 541.031,544.238 543.225,544.86 545.411,545.437 547.6,546.025 549.811,546.571 551.994,547.162 554.206,547.692 556.389,548.241 558.612,548.751 560.824,549.299 563.05,549.791 565.254,550.317 567.464,550.8 569.684,551.311 571.887,551.782 574.132,552.271 576.359,552.732 578.594,553.211 580.833,553.639 583.076,554.098 585.314,554.487 587.58,554.918 589.822,555.295 592.066,555.683 594.311,556.021 596.549,556.387 598.805,556.683 601.092,557.002 603.351,557.257 605.613,557.524 607.874,557.792 610.128,558.016 612.378,558.269 614.626,558.493 616.918,558.734 619.182,558.949 621.43,559.16 623.693,559.375 626.009,559.583 628.286,559.765 630.536,559.894 632.845,559.986 635.16,560.0 637.471,559.918 639.825,559.737 642.143,559.435 644.431,558.992 646.656,558.414 648.714,557.706 650.679,556.858 652.514,555.875 654.196,554.789 655.767,553.585 657.21,552.293 658.548,550.894 659.776,549.393 660.918,547.776 661.921,546.055 662.82,544.222 663.571,542.284 664.174,540.27 664.595,538.199 664.831,536.069 664.923,533.915 664.798,531.792 664.5,529.636 664.015,527.539 663.344,525.487 662.501,523.463 661.492,521.525 660.323,519.696 659.004,517.93 657.549,516.279 655.976,514.758 654.298,513.347 652.508,512.065 650.616,510.901 648.632,509.866 646.564,508.971 644.447,508.225 642.278,507.624 640.035,507.165 637.751,506.847 635.43,506.677 633.084,506.64 630.813,506.727 628.515,506.936 626.243,507.243 624.017,507.643 621.739,508.145 619.506,508.695 617.297,509.278 615.107,509.894 612.924,510.532 610.744,511.195 608.586,511.885 606.398,512.585 604.204,513.298 602.057,514.002 599.904,514.7 597.733,515.42 595.59,516.126 593.438,516.828 591.249,517.538 589.071,518.234 586.914,518.914 584.745,519.567 582.557,520.198 580.367,520.793 578.139,521.37 575.93,521.905 573.734,522.408 571.517,522.868 569.285,523.287 567.063,523.644 564.897,523.939 562.709,524.179 560.488,524.36 558.248,524.479 555.968,524.531 553.639,524.513 551.32,524.423 549.04,524.261 546.775,524.024 544.507,523.703 542.257,523.308 540.01,522.832 537.787,522.282 535.605,521.657 533.452,520.958 531.345,520.189 529.224,519.327 527.072,518.357 524.955,517.307 522.933,516.205 520.993,515.045 519.15,513.852 517.422,512.643 515.784,511.41 514.155,510.087 512.507,508.65 510.894,507.138 509.288,505.52 507.697,503.811 506.159,502.058 504.676,500.268 503.251,498.453 501.88,496.616 500.559,494.74 499.302,492.826 498.109,490.867 497.001,488.845 496.01,486.74 495.193,484.559 494.619,482.249 494.38,479.827 494.481,477.783 494.735,476.346 495.119,475.042 495.796,473.463 496.878,471.614 498.363,469.776 500.107,468.198 501.98,466.925 503.979,465.848 506.062,464.925 508.165,464.099 510.248,463.248 512.324,462.283 514.312,461.167 516.122,459.917 517.766,458.53 519.204,457.046 520.452,455.474 521.555,453.786 522.524,451.982 523.341,450.073 523.996,448.011 524.45,445.753 524.644,443.387 524.575,441.024 524.272,438.696 523.762,436.466 523.087,434.31 522.285,432.179 521.348,430.079 520.232,428.037 518.901,426.079 517.333,424.238 515.701,422.694 514.13,421.478 512.55,420.457 510.86,419.535 508.929,418.653 506.846,417.894 504.651,417.317 502.328,416.951 499.955,416.818 497.583,416.917 495.27,417.23 492.989,417.739 490.757,418.401 488.581,419.158 486.418,419.997 484.285,420.898 482.189,421.872 480.154,422.897 478.156,423.978 476.173,425.11 474.228,426.269 472.26,427.506 470.339,428.762 468.462,430.037 466.556,431.355 464.683,432.674 462.809,433.991 460.953,435.292 459.078,436.595 457.2,437.877 455.295,439.141 453.373,440.365 451.397,441.556 449.415,442.675 447.407,443.731 445.32,444.743 443.233,445.661 441.116,446.491 438.938,447.242 436.68,447.899 434.46,448.433 432.233,448.854 429.943,449.171 427.712,449.372 425.497,449.462 423.323,449.443 421.213,449.317 419.161,449.087 417.222,448.774 415.357,448.384 413.409,447.887 411.391,447.275 409.284,446.536 407.133,445.658 404.946,444.639 402.876,443.54 400.916,442.378 399.012,441.122 397.138,439.751 395.327,438.352 393.606,436.888 391.879,435.378 390.209,433.819 388.575,432.289 386.921,430.712 385.281,429.154 383.614,427.594 381.967,426.069 380.307,424.518 378.604,422.922 376.945,421.336 375.258,419.605 373.665,417.813 372.164,415.896 370.84,413.916 369.694,411.828 368.761,409.636 368.096,407.428 367.696,405.099 367.594,402.899 367.771,400.783 368.16,398.999 368.717,397.354 369.491,395.646 370.575,393.785 371.999,391.853 373.647,390.062 375.394,388.499 377.223,387.109 379.135,385.843 381.094,384.668 383.088,383.573 385.09,382.553 387.126,381.566 389.162,380.599 391.078,379.728 393.272,378.757 395.372,377.771 397.296,376.842 399.375,375.67 401.527,374.657 403.561,373.704 405.627,372.741 407.723,371.779 408.858,371.265 412.041,370.298" fill="none" stroke="white" stroke-width="4"
            stroke-linejoin="round" stroke-linecap="round"/>
  <line x1="420.231" y1="388.544" x2="403.851" y2="352.052" stroke="red" stroke-width="3" stroke-linecap="round"/>
</svg>
