<?xml version="1.0" encoding="utf-8"?>
<svg xmlns="http://www.w3.org/2000/svg" width="1000" height="600">
  <polyline points="611.61,157.07 612.236,159.213 612.867,161.361 613.479,163.508 614.093,165.635 614.716,167.778 615.332,169.924 615.954,172.058 616.578,174.197 617.195,176.357 617.817,178.508 618.436,180.651 619.058,182.8 619.682,184.952 620.307,187.109 620.922,189.247 621.555,191.354 622.174,193.485 622.807,195.603 623.431,197.728 624.066,199.883 624.713,202.052 625.343,204.175 625.959,206.262 626.603,208.417 627.247,210.606 627.897,212.753 628.527,214.851 629.15,216.983 629.78,219.087 630.408,221.197 631.038,223.379 631.676,225.536 632.324,227.645 632.956,229.795 633.59,231.929 634.228,234.035 634.881,236.214 635.539,238.379 636.188,240.502 636.835,242.618 637.463,244.72 638.121,246.864 638.771,249.011 639.436,251.138 640.082,253.262 640.737,255.379 641.4,257.557 642.071,259.661 642.711,261.771 643.37,263.908 644.029,266.033 644.699,268.201 645.365,270.337 646.006,272.425 646.654,274.536 647.322,276.674 647.984,278.783 648.643,280.938 649.306,283.087 649.971,285.222 650.643,287.366 651.301,289.504 651.957,291.632 652.608,293.729 653.263,295.859 653.932,298.002 654.591,300.154 655.257,302.322 655.908,304.45 656.562,306.598 657.215,308.758 657.848,310.887 658.49,313.043 659.107,315.185 659.705,317.326 660.278,319.508 660.793,321.695 661.216,323.908 661.519,326.156 661.675,328.414 661.651,330.749 661.405,333.155 660.967,335.338 660.442,337.103 659.892,338.531 659.269,339.873 658.438,341.386 657.28,343.169 655.848,345.089 654.297,346.879 652.672,348.493 650.992,349.949 649.274,351.282 647.506,352.543 645.717,353.772 643.917,354.984 642.107,356.21 640.275,357.444 638.457,358.68 636.64,359.917 634.787,361.183 632.967,362.433 631.15,363.688 629.298,364.964 627.476,366.229 625.649,367.496 623.824,368.772 621.995,370.057 620.147,371.341 618.343,372.616 616.551,373.859 614.742,375.124 612.922,376.396 611.089,377.673 609.246,378.956 607.41,380.234 605.548,381.511 603.701,382.788 601.884,384.042 600.048,385.303 598.231,386.564 596.405,387.801 594.556,389.067 592.695,390.341 590.853,391.571 588.998,392.841 587.159,394.08 585.309,395.324 583.454,396.566 581.61,397.787 579.753,399.026 577.883,400.249 576.011,401.5 574.144,402.713 572.293,403.91 570.445,405.108 568.581,406.299 566.676,407.51 564.799,408.695 562.95,409.881 561.065,411.056 559.13,412.238 557.234,413.407 555.37,414.539 553.462,415.696 551.554,416.836 549.656,417.988 547.733,419.113 545.833,420.235 543.934,421.342 542.011,422.447 540.073,423.557 538.134,424.651 536.198,425.736 534.262,426.806 532.317,427.872 530.368,428.943 528.405,430.005 526.421,431.069 524.479,432.108 522.551,433.116 520.568,434.161 518.575,435.196 516.602,436.222 514.659,437.217 512.693,438.215 510.674,439.245 508.663,440.268 506.67,441.277 504.697,442.268 502.726,443.273 500.776,444.259 498.796,445.272 496.75,446.32 494.743,447.334 492.806,448.315 490.845,449.298 488.849,450.319 486.836,451.35 484.863,452.367 482.879,453.361 480.918,454.383 478.946,455.419 476.913,456.482 474.924,457.53 473.015,458.532 471.092,459.575 469.081,460.651 467.128,461.732 465.196,462.791 463.25,463.899 461.283,465.007 459.376,466.12 457.485,467.235 455.56,468.389 453.662,469.56 451.784,470.704 449.922,471.879 448.056,473.083 446.208,474.251 444.377,475.478 442.494,476.74 440.654,477.985 438.861,479.237 437.086,480.522 435.318,481.815 433.53,483.13 431.769,484.484 430.022,485.835 428.301,487.191 426.594,488.561 424.869,489.969 423.185,491.386 421.51,492.785 419.816,494.273 418.137,495.746 416.542,497.193 414.942,498.681 413.347,500.174 411.74,501.673 410.137,503.233 408.557,504.774 407.039,506.319 405.496,507.862 403.924,509.497 402.359,511.108 400.862,512.691 399.355,514.304 397.855,515.891 396.335,517.502 394.814,519.132 393.284,520.787 391.753,522.417 390.23,524.078 388.689,525.745 387.2,527.351 385.68,528.965 384.148,530.614 382.641,532.229 381.131,533.863 379.583,535.511 378.062,537.159 376.534,538.789 375.011,540.424 373.48,542.056 371.961,543.68 370.422,545.317 368.894,546.94 367.381,548.56 365.84,550.183 364.297,551.807 362.729,553.409 361.139,554.99 359.48,556.483 357.679,557.847 355.664,559.017 353.436,559.792 351.349,560.0 349.773,559.818 348.604,559.462 347.411,558.858 346.042,557.831 344.585,556.226 343.306,554.209 342.359,552.126 341.627,549.992 341.056,547.816 340.605,545.635 340.245,543.454 339.924,541.254 339.652,539.03 339.4,536.807 339.185,534.58 338.994,532.34 338.815,530.112 338.68,527.893 338.573,525.67 338.475,523.442 338.397,521.196 338.367,518.948 338.344,516.728 338.325,514.507 338.348,512.25 338.381,510.032 338.442,507.819 338.512,505.544 338.616,503.322 338.691,501.115 338.839,498.866 338.924,496.621 339.06,494.406 339.205,492.224 339.34,490.007 339.5,487.788 339.659,485.599 339.827,483.385 340.019,481.147 340.188,478.926 340.391,476.695 340.589,474.476 340.829,472.32 341.034,470.132 341.284,467.88 341.528,465.688 341.774,463.499 342.036,461.304 342.289,459.108 342.564,456.911 342.813,454.708 343.114,452.534 343.387,450.318 343.716,448.093 343.994,445.928 344.297,443.717 344.594,441.516 344.904,439.343 345.239,437.134 345.528,434.894 345.858,432.698 346.186,430.514 346.46,428.285 346.792,426.095 347.099,423.921 347.393,421.721 347.691,419.488 347.997,417.271 348.335,415.067 348.635,412.846 348.948,410.633 349.236,408.458 349.546,406.252 349.869,404.018 350.178,401.797 350.476,399.581 350.8,397.391 351.093,395.219 351.411,393.011 351.72,390.774 352.048,388.547 352.355,386.38 352.66,384.24 352.971,382.043 353.303,379.832 353.612,377.606 353.937,375.371 354.255,373.143 354.589,370.93 354.902,368.79 355.189,366.609 355.522,364.378 355.852,362.128 356.154,359.909 356.477,357.743 356.77,355.583 357.074,353.369 357.397,351.109 357.69,348.869 357.981,346.707 358.211,344.561 358.503,342.322 358.765,340.069 359.01,337.888 359.213,335.681 359.448,333.443 359.653,331.239 359.799,329.085 359.975,326.845 360.129,324.597 360.236,322.433 360.35,320.232 360.479,317.926 360.57,315.698 360.625,313.549 360.722,311.296 360.78,309.057 360.81,306.888 360.859,304.655 360.917,302.409 360.946,300.223 360.985,297.993 361.023,295.747 361.039,293.546 361.069,291.283 361.102,289.056 361.12,286.828 361.139,284.524 361.159,282.286 361.176,280.118 361.201,277.888 361.208,275.609 361.235,273.352 361.25,271.135 361.272,268.884 361.291,266.633 361.316,264.377 361.344,262.124 361.375,259.904 361.417,257.646 361.477,255.402 361.566,253.171 361.7,250.935 361.929,248.693 362.289,246.461 362.825,244.191 363.557,241.956 364.465,239.851 365.537,237.964 366.751,236.294 368.101,234.836 369.528,233.624 371.025,232.618 372.682,231.744 374.443,231.051 376.245,230.584 378.198,230.307 380.369,230.252 382.644,230.436 384.926,230.862 387.168,231.519 389.287,232.361 391.314,233.357 393.287,234.485 395.177,235.691 397.023,236.987 398.828,238.384 400.576,239.839 402.269,241.354 403.947,242.96 405.535,244.601 407.055,246.277 408.536,248.024 409.945,249.796 411.277,251.588 412.57,253.449 413.8,255.353 414.973,257.295 416.082,259.31 417.119,261.313 418.088,263.334 419.022,265.406 419.889,267.482 420.675,269.531 421.421,271.615 422.112,273.719 422.754,275.838 423.35,277.968 423.897,280.132 424.401,282.325 424.857,284.502 425.228,286.614 425.593,288.732 425.919,290.936 426.182,293.113 426.416,295.266 426.597,297.448 426.725,299.613 426.81,301.776 426.847,303.957 426.843,306.14 426.793,308.324 426.707,310.519 426.578,312.717 426.411,314.889 426.208,317.084 425.96,319.289 425.701,321.466 425.387,323.682 425.057,325.896 424.704,328.107 424.341,330.29 423.973,332.452 423.586,334.676 423.2,336.886 422.81,339.032 422.415,341.224 422.016,343.483 421.634,345.683 421.27,347.799 420.899,350.02 420.531,352.266 420.186,354.464 419.846,356.67 419.523,358.845 419.209,361.042 418.908,363.265 418.631,365.488 418.389,367.705 418.193,369.93 418.058,372.215 417.997,374.49 418.016,376.727 418.128,379.019 418.339,381.34 418.649,383.589 419.057,385.806 419.566,387.979 420.177,390.054 420.912,392.109 421.765,394.136 422.702,396.039 423.753,397.885 424.922,399.675 426.173,401.364 427.518,402.987 428.95,404.512 430.477,405.961 432.08,407.324 433.723,408.565 435.465,409.732 437.313,410.808 439.185,411.747 441.085,412.579 443.042,413.297 445.048,413.887 447.108,414.375 449.191,414.748 451.316,414.984 453.448,415.102 455.591,415.111 457.769,415.0 459.96,414.762 462.16,414.416 464.355,413.966 466.537,413.416 468.699,412.763 470.822,412.029 472.931,411.207 475.018,410.304 477.034,409.344 479.002,408.333 480.936,407.275 482.85,406.18 484.75,405.057 486.657,403.9 488.572,402.732 490.484,401.562 492.395,400.392 494.286,399.237 496.169,398.108 498.071,396.966 499.981,395.825 501.89,394.708 503.824,393.566 505.737,392.436 507.647,391.297 509.552,390.154 511.439,388.987 513.325,387.755 515.159,386.483 516.982,385.115 518.776,383.648 520.499,382.095 522.142,380.455 523.658,378.767 525.035,377.06 526.34,375.245 527.535,373.348 528.588,371.436 529.517,369.482 530.323,367.521 531.02,365.531 531.592,363.509 532.053,361.423 532.397,359.327 532.611,357.266 532.714,355.187 532.711,353.086 532.601,351.007 532.379,348.938 532.045,346.865 531.604,344.834 531.058,342.831 530.398,340.811 529.606,338.775 528.698,336.77 527.693,334.834 526.594,332.949 525.366,331.071 524.011,329.221 522.571,327.439 521.023,325.695 519.394,324.022 517.779,322.494 516.166,321.068 514.54,319.68 512.912,318.282 511.319,316.891 509.722,315.449 508.133,313.934 506.64,312.436 505.174,310.888 503.722,309.261 502.335,307.617 500.96,305.921 499.671,304.21 498.398,302.455 497.187,300.658 496.019,298.838 494.9,296.972 493.83,295.1 492.813,293.171 491.821,291.22 490.896,289.238 490.004,287.245 489.185,285.225 488.377,283.188 487.655,281.1 486.929,279.0 486.297,276.877 485.676,274.75 485.111,272.578 484.604,270.406 484.105,268.237 483.694,266.043 483.279,263.797 482.922,261.539 482.615,259.351 482.316,257.154 482.075,254.908 481.851,252.7 481.665,250.506 481.493,248.253 481.363,245.993 481.239,243.773 481.142,241.584 481.058,239.376 480.984,237.109 480.926,234.872 480.88,232.668 480.832,230.444 480.782,228.226 480.75,226.002 480.703,223.774 480.647,221.551 480.59,219.35 480.53,217.157 480.46,214.929 480.392,212.699 480.319,210.481 480.239,208.246 480.165,206.008 480.088,203.764 480.007,201.529 479.93,199.288 479.841,197.057 479.754,194.85 479.67,192.654 479.58,190.452 479.483,188.218 479.386,185.979 479.29,183.736 479.19,181.475 479.096,179.253 478.989,177.03 478.884,174.787 478.783,172.555 478.671,170.306 478.566,168.071 478.453,165.878 478.349,163.732 478.238,161.516 478.121,159.243 478.002,156.984 477.885,154.768 477.763,152.537 477.634,150.273 477.516,148.079 477.387,145.899 477.268,143.686 477.141,141.441 477.01,139.18 476.88,136.916 476.754,134.706 476.629,132.541 476.507,130.325 476.381,128.093 476.253,125.844 476.125,123.59 475.999,121.367 475.885,119.157 475.762,116.912 475.64,114.695 475.521,112.491 475.406,110.251 475.301,108.024 475.206,105.809 475.125,103.566 475.075,101.315 475.069,99.097 475.125,96.811 475.255,94.523 475.459,92.323 475.764,90.062 476.163,87.759 476.656,85.524 477.246,83.354 477.935,81.235 478.704,79.196 479.542,77.248 480.464,75.344 481.465,73.515 482.54,71.744 483.693,70.023 484.921,68.355 486.221,66.74 487.604,65.168 489.092,63.621 490.659,62.125 492.287,60.692 494.037,59.292 495.861,57.963 497.779,56.688 499.77,55.492 501.823,54.381 503.824,53.403 505.828,52.527 507.926,51.703 510.048,50.964 512.129,50.289 514.271,49.641 516.399,48.984 518.505,48.35 520.65,47.678 522.773,47.011 524.88,46.343 526.989,45.677 529.099,44.992 531.22,44.31 533.386,43.617 535.546,42.934 537.696,42.277 539.799,41.674 541.949,41.124 544.157,40.654 546.391,40.298 548.714,40.068 551.053,40.0 553.354,40.101 555.599,40.367 557.573,40.729 559.348,41.16 561.018,41.682 562.734,42.344 564.551,43.21 566.419,44.248 568.347,45.485 570.258,46.869 572.013,48.313 573.704,49.899 575.278,51.559 576.742,53.295 578.086,55.069 579.347,56.906 580.586,58.87 581.738,60.838 582.817,62.817 583.84,64.813 584.861,66.945 585.792,69.004 586.652,71.032 587.51,73.109 588.354,75.299 589.12,77.411 589.804,79.463 590.502,81.66 591.173,83.824 591.808,85.958 592.458,88.018 593.119,90.299 593.748,92.561 594.329,94.699 594.924,96.75 595.537,98.996 596.122,101.094 596.71,103.197 597.313,105.401 597.93,107.504 598.535,109.658 599.125,111.797 599.757,113.969 600.335,116.061 600.947,118.162 601.556,120.282 602.175,122.496 602.82,124.711 603.408,126.782 604.002,128.866 604.654,131.109 605.279,133.296 605.861,135.319 606.459,137.377 607.139,139.694 607.767,141.875 608.353,143.925 608.941,145.982 609.535,148.046 610.234,150.478 610.823,152.53 611.192,153.815 611.61,157.07" fill="none" stroke="white" stroke-width="4"
            stroke-linejoin="round" stroke-linecap="round"/>
</svg>
