<?xml version="1.0" encoding="utf-8"?>
<svg xmlns="http://www.w3.org/2000/svg" width="1000" height="600">
  <polyline points="425.291,112.272 424.617,110.513 423.921,108.783 423.241,107.043 422.56,105.312 421.876,103.562 421.189,101.798 420.494,100.011 419.814,98.262 419.11,96.511 418.419,94.745 417.731,92.991 417.045,91.234 416.345,89.464 415.659,87.715 414.977,85.969 414.28,84.201 413.61,82.472 412.922,80.747 412.219,78.963 411.514,77.173 410.821,75.415 410.126,73.65 409.443,71.924 408.757,70.183 408.06,68.427 407.365,66.666 406.653,64.891 405.947,63.095 405.237,61.335 404.536,59.582 403.817,57.814 403.104,56.035 402.388,54.285 401.659,52.539 400.915,50.775 400.133,49.031 399.268,47.337 398.261,45.683 397.055,44.13 395.663,42.783 394.274,41.78 392.967,41.069 391.582,40.533 389.938,40.157 388.041,40.0 386.077,40.082 384.189,40.37 382.348,40.814 380.53,41.364 378.74,41.977 376.945,42.644 375.162,43.355 373.449,44.076 371.728,44.828 370.012,45.607 368.313,46.38 366.605,47.166 364.888,47.958 363.18,48.749 361.457,49.538 359.743,50.324 358.044,51.098 356.319,51.867 354.593,52.639 352.873,53.402 351.153,54.157 349.414,54.919 347.696,55.671 345.984,56.401 344.253,57.149 342.521,57.881 340.784,58.622 339.048,59.353 337.304,60.093 335.543,60.83 333.798,61.566 332.045,62.304 330.291,63.039 328.539,63.774 326.79,64.514 325.039,65.259 323.282,66.018 321.55,66.801 319.839,67.658 318.201,68.658 316.662,69.934 315.461,71.354 314.737,72.602 314.243,73.929 313.945,75.728 313.981,77.705 314.308,79.578 314.811,81.406 315.408,83.186 316.051,84.937 316.722,86.69 317.41,88.445 318.104,90.2 318.804,91.955 319.5,93.705 320.194,95.444 320.885,97.187 321.585,98.944 322.278,100.704 322.965,102.433 323.649,104.179 324.345,105.935 325.035,107.69 325.727,109.443 326.415,111.184 327.106,112.937 327.801,114.686 328.496,116.451 329.185,118.189 329.883,119.949 330.583,121.715 331.272,123.459 331.969,125.204 332.66,126.943 333.35,128.71 334.05,130.447 334.745,132.196 335.45,133.98 336.151,135.748 336.843,137.495 337.544,139.247 338.239,141.0 338.939,142.75 339.63,144.476 340.314,146.201 341.009,147.952 341.709,149.705 342.429,151.472 343.135,153.22 343.825,154.962 344.538,156.708 345.242,158.444 345.964,160.224 346.677,161.957 347.374,163.691 348.097,165.448 348.813,167.18 349.527,168.932 350.253,170.671 350.959,172.41 351.688,174.159 352.402,175.913 353.125,177.635 353.846,179.394 354.579,181.137 355.289,182.862 356.034,184.62 356.761,186.356 357.485,188.08 358.212,189.807 358.946,191.547 359.694,193.301 360.421,195.025 361.15,196.759 361.896,198.511 362.641,200.264 363.373,201.981 364.098,203.706 364.842,205.453 365.576,207.178 366.32,208.921 367.062,210.679 367.804,212.408 368.536,214.127 369.279,215.855 370.016,217.603 370.747,219.32 371.477,221.031 372.235,222.797 372.979,224.562 373.705,226.27 374.453,228.018 375.194,229.771 375.918,231.477 376.654,233.199 377.386,234.951 378.123,236.694 378.85,238.414 379.581,240.135 380.314,241.892 381.061,243.657 381.788,245.386 382.532,247.148 383.27,248.916 384.0,250.655 384.747,252.422 385.482,254.174 386.218,255.92 386.961,257.672 387.709,259.426 388.454,261.174 389.21,262.921 389.995,264.669 390.81,266.385 391.733,268.062 392.823,269.669 394.124,271.119 395.475,272.224 396.709,272.94 398.114,273.459 399.918,273.781 401.879,273.812 403.785,273.589 405.64,273.2 407.455,272.691 409.254,272.098 411.017,271.448 412.761,270.739 414.496,269.974 416.206,269.181 417.902,268.35 419.603,267.48 421.274,266.594 422.929,265.696 424.584,264.796 426.237,263.903 427.933,263.001 429.631,262.13 431.319,261.3 433.055,260.488 434.803,259.703 436.529,258.945 438.275,258.198 440.045,257.47 441.834,256.789 443.65,256.238 445.573,255.913 447.416,255.93 448.866,256.221 450.158,256.722 451.634,257.606 453.081,258.917 454.267,260.446 455.235,262.076 456.066,263.767 456.809,265.478 457.508,267.213 458.19,268.978 458.861,270.747 459.505,272.498 460.15,274.258 460.799,276.042 461.435,277.813 462.067,279.572 462.699,281.336 463.341,283.113 463.993,284.897 464.638,286.66 465.299,288.409 465.991,290.192 466.708,291.968 467.43,293.7 468.176,295.429 468.953,297.168 469.736,298.865 470.534,300.542 471.375,302.271 472.223,303.958 473.082,305.639 473.958,307.3 474.85,308.96 475.781,310.637 476.706,312.282 477.656,313.93 478.629,315.584 479.611,317.212 480.61,318.828 481.644,320.426 482.736,321.988 483.93,323.492 485.283,324.914 486.797,326.163 488.396,327.096 489.951,327.67 491.443,327.95 492.958,327.986 494.532,327.766 496.193,327.28 497.937,326.657 499.79,326.118 501.669,325.868 503.148,325.933 504.43,326.21 506.011,326.857 507.637,327.931 509.032,329.23 510.243,330.655 511.369,332.172 512.442,333.716 513.5,335.266 514.555,336.812 515.621,338.364 516.683,339.907 517.751,341.455 518.829,343.013 519.899,344.549 520.975,346.086 522.061,347.625 523.148,349.16 524.234,350.683 525.337,352.21 526.434,353.727 527.545,355.245 528.677,356.779 529.809,358.304 530.928,359.791 532.05,361.28 533.194,362.8 534.321,364.304 535.456,365.768 536.595,367.28 537.748,368.775 538.903,370.287 540.079,371.79 541.222,373.283 542.363,374.753 543.525,376.25 544.681,377.737 545.835,379.228 546.993,380.723 548.157,382.22 549.321,383.722 550.487,385.22 551.651,386.718 552.823,388.223 553.995,389.728 555.166,391.234 556.331,392.728 557.49,394.225 558.642,395.732 559.757,397.239 560.809,398.802 561.731,400.58 562.249,402.27 562.352,403.7 562.088,405.252 561.366,406.804 560.174,408.182 558.607,409.284 556.899,410.099 555.133,410.745 553.342,411.311 551.528,411.831 549.721,412.306 547.886,412.748 546.04,413.167 544.194,413.573 542.35,413.969 540.512,414.363 538.671,414.768 536.831,415.192 535.002,415.65 533.178,416.144 531.367,416.659 529.565,417.194 527.754,417.751 525.938,418.326 524.126,418.919 522.327,419.547 520.557,420.276 518.848,421.187 517.315,422.285 516.165,423.369 515.176,424.593 514.239,426.141 513.469,427.801 512.818,429.558 512.316,431.391 511.996,433.172 511.809,434.95 511.676,436.824 511.526,438.709 511.234,440.594 510.667,442.389 509.883,443.891 508.965,445.107 507.853,446.194 506.453,447.21 504.839,448.103 503.133,448.915 501.417,449.782 499.799,450.835 498.424,452.085 497.456,453.316 496.793,454.492 496.223,455.971 495.841,457.856 495.784,459.819 495.962,461.741 496.3,463.61 496.744,465.427 497.261,467.228 497.822,469.005 498.423,470.782 499.061,472.562 499.727,474.336 500.418,476.106 501.135,477.857 501.878,479.61 502.637,481.362 503.404,483.09 504.176,484.787 504.952,486.501 505.745,488.23 506.52,489.936 507.295,491.626 508.076,493.329 508.864,495.057 509.656,496.783 510.435,498.49 511.209,500.17 512.0,501.89 512.789,503.611 513.579,505.319 514.373,507.041 515.169,508.753 515.974,510.462 516.776,512.158 517.605,513.864 518.453,515.576 519.312,517.274 520.177,518.944 521.062,520.61 521.969,522.277 522.89,523.924 523.836,525.562 524.804,527.18 525.804,528.782 526.842,530.369 527.922,531.93 529.044,533.447 530.209,534.92 531.436,536.357 532.705,537.745 533.987,539.063 535.298,540.333 536.637,541.547 538.01,542.715 539.455,543.853 540.941,544.937 542.478,545.969 544.067,546.959 545.688,547.902 547.36,548.798 549.07,549.648 550.796,550.441 552.542,551.181 554.298,551.867 556.077,552.508 557.867,553.102 559.681,553.694 561.493,554.272 563.299,554.833 565.108,555.384 566.914,555.898 568.747,556.406 570.57,556.876 572.397,557.324 574.255,557.738 576.125,558.123 577.99,558.475 579.869,558.782 581.754,559.067 583.653,559.307 585.524,559.513 587.327,559.677 589.105,559.805 590.894,559.905 592.721,559.96 594.587,560.0 596.502,559.997 598.389,559.966 600.247,559.934 602.17,559.869 604.056,559.813 605.906,559.769 607.798,559.723 609.708,559.694 611.6,559.675 613.457,559.649 615.351,559.641 617.271,559.629 619.177,559.619 621.077,559.616 622.984,559.611 624.897,559.602 626.802,559.591 628.694,559.578 630.584,559.564 632.5,559.549 634.409,559.538 636.272,559.524 638.126,559.495 639.985,559.415 641.859,559.189 643.711,558.707 645.247,558.058 646.586,557.278 648.048,556.178 649.397,554.783 650.478,553.259 651.423,551.648 652.313,549.996 653.179,548.325 654.031,546.659 654.875,544.997 655.719,543.333 656.57,541.662 657.436,539.981 658.294,538.321 659.151,536.677 660.023,535.01 660.897,533.345 661.769,531.689 662.649,530.027 663.524,528.371 664.404,526.719 665.282,525.068 666.166,523.411 667.052,521.75 667.942,520.091 668.828,518.436 669.731,516.769 670.622,515.113 671.515,513.479 672.412,511.832 673.326,510.177 674.234,508.536 675.146,506.9 676.073,505.242 677.013,503.575 677.928,501.948 678.858,500.295 679.793,498.618 680.717,496.952 681.617,495.305 682.52,493.628 683.409,491.924 684.249,490.212 684.997,488.439 685.591,486.579 685.962,484.667 686.055,482.788 685.892,481.098 685.526,479.573 684.96,478.089 684.177,476.631 683.112,475.141 681.765,473.707 680.274,472.468 678.7,471.41 677.06,470.495 675.362,469.684 673.612,468.939 671.841,468.235 670.071,467.555 668.304,466.885 666.549,466.219 664.786,465.535 663.023,464.834 661.279,464.12 659.546,463.368 657.828,462.599 656.138,461.808 654.437,460.981 652.753,460.103 651.103,459.194 649.477,458.234 647.886,457.228 646.366,456.19 644.89,455.13 643.46,454.018 642.083,452.876 640.731,451.679 639.4,450.417 638.064,449.08 636.763,447.704 635.501,446.307 634.257,444.896 633.029,443.461 631.814,442.038 630.597,440.607 629.367,439.16 628.153,437.739 626.934,436.307 625.712,434.87 624.486,433.433 623.259,431.997 622.025,430.549 620.808,429.133 619.585,427.714 618.324,426.268 617.069,424.844 615.814,423.451 614.53,422.067 613.222,420.723 611.868,419.413 610.441,418.126 608.986,416.907 607.483,415.746 605.914,414.627 604.327,413.588 602.772,412.657 601.22,411.8 599.636,411.001 598.028,410.263 596.369,409.576 594.632,408.934 592.844,408.343 591.024,407.813 589.202,407.325 587.387,406.886 585.566,406.461 583.747,406.036 581.931,405.584 580.086,405.072 578.282,404.516 576.45,403.869 574.682,403.171 572.953,402.408 571.236,401.573 569.599,400.701 568.092,399.824 566.629,398.905 565.124,397.886 563.652,396.806 562.23,395.683 560.801,394.469 559.383,393.173 558.025,391.849 556.71,390.487 555.448,389.097 554.219,387.661 553.03,386.2 551.865,384.7 550.719,383.19 549.592,381.689 548.466,380.169 547.367,378.691 546.228,377.148 545.097,375.624 543.966,374.084 542.868,372.597 541.74,371.082 540.622,369.552 539.503,368.047 538.394,366.543 537.276,365.018 536.138,363.483 535.036,361.976 533.92,360.46 532.799,358.899 531.691,357.382 530.588,355.885 529.483,354.326 528.393,352.782 527.313,351.27 526.233,349.723 525.128,348.17 524.084,346.6 523.012,345.056 521.932,343.48 520.885,341.915 519.857,340.348 518.831,338.773 517.84,337.209 516.856,335.618 515.874,334.005 514.924,332.421 514.01,330.833 513.108,329.24 512.184,327.547 511.28,325.849 510.434,324.176 509.6,322.527 508.789,320.879 507.977,319.159 507.176,317.43 506.392,315.708 505.633,313.981 504.9,312.252 504.18,310.558 503.449,308.78 502.699,306.977 501.967,305.214 501.287,303.544 500.592,301.82 499.873,300.104 499.147,298.359 498.4,296.524 497.675,294.741 496.992,293.061 496.263,291.287 495.582,289.607 494.899,287.9 494.18,286.093 493.422,284.287 492.714,282.537 492.027,280.804 491.356,279.103 490.668,277.394 489.929,275.578 489.189,273.741 488.477,271.945 487.797,270.304 487.137,268.601 486.402,266.801 485.728,265.091 485.008,263.34 484.288,261.579 483.622,259.856 482.886,258.064 482.209,256.301 481.488,254.586 480.814,252.867 480.129,251.124 479.451,249.332 478.732,247.542 478.036,245.827 477.31,244.003 476.647,242.277 475.976,240.632 475.261,238.839 474.561,237.081 473.835,235.253 473.155,233.532 472.479,231.858 471.717,229.986 471.103,228.376 470.346,226.536 469.685,224.781 468.938,222.992 468.267,221.278 467.552,219.494 466.893,217.786 466.192,215.967 465.522,214.337 464.821,212.509 464.112,210.77 463.422,209.007 462.704,207.299 462.039,205.552 461.312,203.753 460.58,201.971 459.837,200.175 459.166,198.497 458.435,196.652 457.775,194.956 457.086,193.261 456.432,191.539 455.683,189.679 454.979,187.891 454.337,186.271 453.609,184.361 452.976,182.775 452.312,181.05 451.574,179.188 450.899,177.405 450.247,175.73 449.54,173.978 448.905,172.348 448.153,170.356 447.399,168.527 446.775,166.814 446.104,165.169 445.424,163.395 444.711,161.6 444.034,159.802 443.326,158.061 442.67,156.345 441.992,154.575 441.306,152.892 440.596,151.123 439.963,149.385 439.209,147.575 438.533,145.83 437.883,144.148 437.23,142.394 436.483,140.522 435.869,138.913 435.144,137.133 434.392,135.107 433.661,133.416 433.106,131.804 432.427,130.115 431.669,128.359 430.816,126.368 430.182,124.749 429.494,122.994 428.768,121.139 428.04,119.283 427.379,117.596 426.718,115.909 426.321,114.897 425.291,112.272" fill="none" stroke="white" stroke-width="4"
            stroke-linejoin="round" stroke-linecap="round"/>
  <line x1="443.967" y1="105.116" x2="406.615" y2="119.428" stroke="red" stroke-width="3" stroke-linecap="round"/>
</svg>
