<?xml version="1.0" encoding="utf-8"?>
<svg xmlns="http://www.w3.org/2000/svg" width="1000" height="600">
  <polyline points="639.393,525.712 643.471,524.705 647.695,523.682 651.793,522.691 655.832,521.711 659.928,520.709 664.038,519.709 668.158,518.702 672.374,517.686 676.522,516.646 680.56,515.657 684.634,514.676 688.86,513.653 693.063,512.604 697.175,511.567 701.253,510.59 705.333,509.617 709.461,508.559 713.63,507.538 717.788,506.533 721.877,505.544 725.917,504.481 730.04,503.482 734.128,502.48 738.272,501.44 742.418,500.357 746.578,499.345 750.624,498.337 754.692,497.303 758.92,496.233 763.093,495.177 767.192,494.173 771.214,493.126 775.364,492.084 779.561,491.019 783.649,490.011 787.704,488.951 791.943,487.884 796.106,486.814 800.168,485.797 804.225,484.742 808.374,483.68 812.555,482.606 816.709,481.536 820.722,480.493 824.823,479.424 829.039,478.325 833.262,477.213 837.429,476.099 841.459,475.021 845.542,473.904 849.727,472.735 853.914,471.531 858.065,470.288 862.195,468.978 866.259,467.604 870.416,466.092 874.526,464.456 878.525,462.688 882.497,460.701 886.343,458.503 890.026,456.098 893.588,453.426 896.912,450.529 899.933,447.411 902.585,444.09 904.874,440.475 906.626,436.816 907.909,433.099 908.741,429.415 909.144,425.836 909.113,422.305 908.684,418.876 907.946,415.614 906.913,412.374 905.542,409.139 903.756,405.942 901.54,402.773 899.024,399.669 896.318,396.579 893.586,393.475 890.909,390.178 888.371,386.667 886.083,383.011 884.103,379.284 882.487,375.625 881.201,372.07 880.243,368.726 879.514,365.396 878.994,361.922 878.676,358.323 878.546,354.607 878.629,350.519 879.019,346.261 879.708,341.951 880.672,337.644 881.852,333.401 883.189,329.339 884.649,325.426 886.23,321.553 887.842,317.804 889.402,314.118 890.877,310.446 892.251,306.711 893.507,302.879 894.63,298.965 895.608,295.021 896.446,291.019 897.125,287.03 897.649,283.004 898.023,278.978 898.245,274.956 898.296,270.946 898.189,266.813 897.923,262.731 897.483,258.654 896.89,254.576 896.153,250.549 895.282,246.563 894.232,242.59 893.02,238.631 891.695,234.766 890.162,230.832 888.505,227.055 886.775,223.335 884.843,219.635 882.864,216.145 880.704,212.6 878.441,209.192 876.065,205.833 873.541,202.542 870.869,199.279 868.168,196.201 865.37,193.163 862.429,190.242 859.393,187.33 856.296,184.588 853.066,181.89 849.758,179.283 846.338,176.761 842.875,174.318 839.359,172.013 835.818,169.804 832.121,167.646 828.347,165.557 824.524,163.554 820.625,161.63 816.728,159.805 812.813,158.106 808.848,156.462 804.863,154.926 800.811,153.455 796.789,152.126 792.735,150.798 788.567,149.569 784.449,148.349 780.446,147.242 776.348,146.134 772.129,145.053 767.899,143.948 763.791,142.904 759.73,141.875 755.588,140.874 751.479,139.842 747.331,138.87 743.168,137.875 739.078,136.903 734.965,135.927 730.827,134.939 726.689,133.946 722.602,132.967 718.465,131.974 714.343,130.965 710.234,129.963 706.178,128.982 702.09,127.974 698.007,126.967 693.86,125.946 689.647,124.886 685.502,123.877 681.334,122.814 677.173,121.758 673.096,120.737 669.042,119.698 665.023,118.717 660.788,117.628 656.614,116.552 652.487,115.498 648.371,114.45 644.334,113.425 640.217,112.384 636.076,111.294 631.92,110.219 627.807,109.183 623.693,108.091 619.525,107.029 615.454,105.964 611.339,104.933 607.12,103.856 603.026,102.788 598.988,101.782 594.858,100.762 590.721,99.643 586.562,98.646 582.492,97.585 578.327,96.539 574.176,95.499 570.127,94.411 565.979,93.41 561.831,92.288 557.808,91.322 553.705,90.264 549.535,89.153 545.44,88.17 541.406,87.045 537.219,86.049 533.122,84.933 529.048,83.944 524.889,82.813 520.752,81.787 516.678,80.674 512.532,79.676 508.428,78.564 504.367,77.446 500.281,76.451 496.263,75.336 492.033,74.224 488.017,73.105 483.869,72.073 479.637,70.866 475.554,69.781 471.544,68.716 467.344,67.588 463.253,66.502 459.187,65.303 455.134,64.301 451.044,63.1 446.82,62.037 442.774,60.882 438.686,59.717 434.482,58.659 430.454,57.48 426.371,56.409 422.332,55.266 418.162,54.191 413.986,53.076 409.897,51.908 405.791,50.809 401.661,49.716 397.456,48.576 393.225,47.47 389.181,46.336 385.011,45.283 380.87,44.197 376.752,43.167 372.544,42.205 368.302,41.358 364.083,40.707 359.809,40.227 355.395,40.0 351.03,40.008 346.705,40.339 342.532,40.941 338.629,41.839 334.943,42.936 331.436,44.266 328.041,45.824 324.799,47.587 321.642,49.609 318.678,51.794 315.948,54.132 313.285,56.661 310.699,59.485 308.223,62.515 305.868,65.891 303.67,69.542 301.677,73.405 299.931,77.364 298.427,81.348 297.133,85.398 296.023,89.466 295.045,93.6 294.18,97.803 293.444,102.034 292.829,106.245 292.336,110.492 291.943,114.761 291.637,119.087 291.474,123.422 291.448,127.677 291.5,131.9 291.715,136.245 292.093,140.665 292.561,144.915 293.186,149.093 293.95,153.275 294.786,157.331 295.757,161.286 296.827,165.221 298.085,169.191 299.401,173.095 300.82,176.881 302.391,180.694 304.079,184.457 305.852,188.094 307.672,191.659 309.692,195.25 311.759,198.756 314.036,202.253 316.413,205.805 318.884,209.243 321.449,212.537 324.054,215.775 326.815,218.979 329.733,222.172 332.683,225.231 335.698,228.189 338.816,231.095 341.984,233.913 345.245,236.639 348.595,239.33 351.938,241.86 355.343,244.439 358.853,246.91 362.253,249.372 365.806,251.807 369.289,254.24 372.777,256.616 376.325,259.051 379.882,261.428 383.357,263.748 386.876,266.115 390.441,268.48 394.017,270.811 397.537,273.148 401.067,275.475 404.665,277.803 408.185,280.14 411.774,282.476 415.361,284.796 418.991,287.172 422.485,289.493 425.975,291.795 429.53,294.109 433.121,296.474 436.587,298.758 440.132,301.119 443.726,303.499 447.232,305.846 450.73,308.182 454.263,310.571 457.855,312.976 461.378,315.359 464.879,317.734 468.365,320.109 471.862,322.487 475.376,324.892 478.889,327.311 482.337,329.716 485.84,332.067 489.336,334.518 492.785,336.916 496.246,339.321 499.736,341.759 503.257,344.225 506.773,346.699 510.212,349.168 513.719,351.638 517.21,354.181 520.632,356.748 523.94,359.337 527.268,362.117 530.46,364.892 533.547,367.789 536.583,370.884 539.531,374.087 542.244,377.328 544.746,380.656 547.1,384.002 549.163,387.361 551.151,390.873 552.913,394.425 554.517,398.047 555.969,401.853 557.224,405.728 558.286,409.691 559.18,413.774 559.795,417.921 560.192,421.964 560.389,426.122 560.302,430.308 560.043,434.52 559.493,438.717 558.792,442.816 557.829,446.904 556.653,450.856 555.308,454.793 553.745,458.614 552.007,462.406 550.038,466.106 547.958,469.645 545.757,473.021 543.342,476.299 540.875,479.379 538.306,482.29 535.539,485.154 532.684,487.887 529.648,490.546 526.502,493.057 523.257,495.391 519.751,497.669 516.1,499.829 512.32,501.865 508.476,503.681 504.509,505.389 500.445,506.938 496.33,508.314 492.143,509.535 487.991,510.603 483.813,511.54 479.59,512.424 475.36,513.241 471.143,514.028 466.968,514.78 462.745,515.508 458.497,516.217 454.209,516.881 449.928,517.495 445.611,517.988 441.302,518.394 436.976,518.57 432.654,518.538 428.293,518.264 424.042,517.689 419.901,516.72 415.987,515.281 412.477,513.375 409.478,511.11 407.007,508.578 405.083,505.839 403.546,502.871 402.522,499.769 401.803,496.447 401.542,492.945 401.734,489.288 402.419,485.459 403.603,481.578 405.161,477.759 407.017,473.928 408.937,470.113 410.838,466.255 412.608,462.408 414.167,458.582 415.509,454.754 416.612,450.988 417.427,447.385 417.957,443.762 418.208,440.121 418.036,436.416 417.5,432.698 416.501,429.039 415.086,425.555 413.186,422.253 410.88,419.206 408.245,416.558 405.206,414.169 401.858,412.172 398.293,410.618 394.637,409.531 390.982,408.844 387.214,408.563 383.459,408.603 379.755,409.043 375.875,409.805 371.972,410.971 368.112,412.421 364.282,414.217 360.477,416.269 356.763,418.586 353.183,421.094 349.82,423.685 346.552,426.416 343.369,429.268 340.284,432.187 337.316,435.143 334.365,438.167 331.48,441.161 328.506,444.177 325.594,447.184 322.597,450.092 319.616,452.957 316.464,455.691 313.37,458.429 310.174,461.045 306.964,463.581 303.52,466.049 300.104,468.473 296.562,470.788 292.951,473.01 289.302,475.074 285.563,477.07 281.627,478.999 277.581,480.849 273.499,482.525 269.562,483.981 265.488,485.314 261.345,486.489 257.133,487.497 252.752,488.31 248.442,488.835 244.063,489.075 239.745,488.943 235.41,488.303 231.425,487.109 227.867,485.364 224.855,483.114 222.403,480.496 220.581,477.773 219.262,474.859 218.386,471.88 217.934,468.777 217.928,465.284 218.481,461.616 219.622,457.801 221.414,453.916 223.664,450.217 226.228,446.768 229.04,443.582 232.094,440.524 235.269,437.68 238.568,434.933 241.866,432.365 245.267,429.876 248.765,427.367 252.23,424.906 255.662,422.378 259.012,419.813 262.29,417.146 265.419,414.397 268.611,411.421 271.559,408.437 274.382,405.324 277.004,402.168 279.524,398.816 281.85,395.374 284.022,391.843 286.026,388.228 287.804,384.524 289.373,380.811 290.781,376.958 292.005,373.061 292.972,369.208 293.764,365.331 294.368,361.273 294.804,357.233 294.978,353.25 294.972,349.153 294.783,345.034 294.391,340.933 293.867,337.069 293.101,332.998 292.199,329.153 291.159,325.357 289.947,321.688 288.518,317.804 286.878,313.909 285.185,310.278 283.336,306.697 281.209,303.09 278.944,299.499 276.568,296.061 274.012,292.762 271.411,289.616 268.567,286.413 265.657,283.397 262.585,280.457 259.284,277.547 255.977,274.775 252.682,272.234 249.175,269.767 245.574,267.28 241.946,264.981 238.169,262.694 234.614,260.629 230.93,258.479 227.167,256.41 223.527,254.188 219.737,252.093 216.318,250.003 212.553,247.81 209.008,245.605 205.413,243.422 201.838,241.184 198.156,238.94 194.579,236.628 190.847,234.348 187.295,232.098 183.634,229.819 179.928,227.541 176.289,225.29 172.57,223.021 168.849,220.862 165.012,218.755 161.073,216.851 157.075,215.232 152.935,213.896 148.75,212.994 144.547,212.558 140.561,212.614 136.858,213.057 133.36,213.845 130.135,214.883 127.118,216.199 124.009,217.913 120.887,220.045 117.756,222.587 114.813,225.546 112.024,228.806 109.479,232.408 107.189,236.2 105.184,240.035 103.408,243.886 101.759,247.881 100.276,251.796 98.901,255.815 97.613,259.848 96.455,263.948 95.424,268.153 94.483,272.239 93.673,276.436 92.936,280.599 92.333,284.872 91.816,289.173 91.408,293.347 91.117,297.484 90.978,301.651 90.856,305.656 90.86,309.83 90.968,313.903 91.112,318.111 91.384,322.371 91.78,326.63 92.231,330.796 92.723,334.886 93.361,339.053 94.002,343.165 94.727,347.571 95.552,351.595 96.403,355.636 97.267,359.813 98.284,364.097 99.36,368.128 100.441,372.177 101.56,376.249 102.754,380.361 104.034,384.256 105.326,388.319 106.683,392.316 108.14,396.289 109.56,400.139 111.034,404.084 112.598,407.946 114.335,411.91 116.058,415.886 117.802,419.702 119.594,423.535 121.559,427.473 123.451,431.103 125.484,434.873 127.58,438.505 129.719,442.114 132.019,445.854 134.221,449.209 136.581,452.749 138.936,456.159 141.459,459.571 143.966,462.888 146.488,465.97 149.135,469.262 151.889,472.377 154.934,475.744 157.564,478.539 160.297,481.315 163.36,484.245 166.332,486.994 169.495,489.605 172.511,492.23 175.789,494.73 179.115,497.205 182.503,499.68 185.937,501.899 189.315,504.015 192.91,506.296 196.45,508.236 200.304,510.341 203.912,512.267 207.736,514.112 211.595,515.829 215.281,517.519 219.269,519.246 223.15,520.85 227.078,522.249 231.076,523.755 235.105,525.147 239.203,526.475 243.247,527.696 247.642,529.016 251.657,530.098 255.783,531.211 259.86,532.297 264.006,533.229 267.95,534.197 272.199,535.212 276.011,536.11 280.335,537.224 284.504,538.135 288.609,539.003 292.933,539.988 297.194,540.981 301.095,541.827 305.169,542.781 309.542,543.804 313.495,544.536 317.549,545.463 321.703,546.391 326.142,547.394 330.293,548.196 334.275,549.034 338.153,549.781 342.933,550.738 347.003,551.436 351.184,552.277 355.413,552.978 359.437,553.661 363.957,554.444 367.953,555.071 372.23,555.705 376.386,556.149 380.856,556.614 384.6,556.988 388.555,557.614 393.673,558.203 397.252,558.486 401.627,558.779 406.172,559.081 410.265,559.274 414.299,559.509 419.468,559.706 423.009,559.811 428.325,559.916 432.315,559.906 435.937,560.0 439.821,559.955 444.358,559.9 448.495,559.78 452.045,559.747 456.107,559.526 460.004,559.413 464.536,559.097 468.938,558.796 473.256,558.504 477.052,558.184 481.206,557.831 485.771,557.345 489.849,556.907 493.613,556.406 497.849,555.954 502.329,555.408 506.449,554.797 510.61,554.188 514.711,553.594 518.477,552.905 523.14,552.122 526.953,551.536 531.191,550.732 535.11,549.86 539.687,549.045 543.934,548.133 548.292,547.321 552.403,546.312 556.382,545.504 560.217,544.554 563.961,543.7 568.78,542.63 572.861,541.641 576.953,540.764 580.622,539.686 585.577,538.397 588.896,537.606 593.704,536.459 597.686,535.506 602.528,534.348 605.756,533.573 609.701,532.625 613.288,531.762 618.13,530.596 622.166,529.622 626.201,528.647 631.364,527.397 633.73,526.823 639.393,525.712" fill="none" stroke="white" stroke-width="4"
            stroke-linejoin="round" stroke-linecap="round"/>
</svg>
