<?xml version="1.0" encoding="utf-8"?>
<svg xmlns="http://www.w3.org/2000/svg" width="1000" height="600">
  <polyline points="412.043,114.737 414.639,116.451 417.299,118.2 419.896,119.939 422.465,121.632 425.09,123.343 427.729,125.06 430.295,126.761 432.867,128.426 435.541,130.156 438.186,131.907 440.794,133.571 443.365,135.239 446.013,136.947 448.661,138.661 451.235,140.377 453.854,142.03 456.471,143.724 459.131,145.442 461.757,147.135 464.321,148.801 466.928,150.5 469.596,152.176 472.255,153.896 474.953,155.63 477.562,157.319 480.085,158.942 482.662,160.627 485.343,162.307 488.035,164.033 490.682,165.746 493.271,167.421 495.864,169.094 498.432,170.741 501.025,172.392 503.695,174.151 506.384,175.848 509.047,177.553 511.695,179.266 514.272,180.92 516.868,182.612 519.505,184.277 522.093,185.952 524.694,187.612 527.327,189.322 529.982,191.031 532.657,192.737 535.316,194.448 537.901,196.112 540.471,197.765 543.09,199.445 545.743,201.137 548.377,202.829 550.967,204.525 553.605,206.219 556.261,207.914 558.92,209.637 561.584,211.333 564.179,212.998 566.774,214.664 569.382,216.342 572.055,218.047 574.705,219.763 577.288,221.418 579.855,223.064 582.461,224.723 585.098,226.433 587.776,228.147 590.442,229.847 593.053,231.538 595.701,233.206 598.358,234.923 601.013,236.613 603.614,238.294 606.217,239.97 608.849,241.638 611.442,243.296 614.024,244.936 616.61,246.571 619.24,248.214 621.922,249.902 624.664,251.613 627.39,253.293 630.047,254.951 632.703,256.611 635.336,258.247 637.949,259.874 640.579,261.511 643.238,263.174 645.889,264.817 648.49,266.437 651.121,268.081 653.767,269.733 656.38,271.37 659.052,273.028 661.729,274.731 664.409,276.402 667.095,278.096 669.789,279.778 672.437,281.441 675.037,283.07 677.636,284.698 680.237,286.355 682.916,288.019 685.583,289.675 688.202,291.302 690.829,292.949 693.455,294.6 696.101,296.253 698.761,297.915 701.444,299.577 704.1,301.248 706.789,302.898 709.459,304.587 712.078,306.215 714.695,307.878 717.362,309.502 719.992,311.149 722.655,312.81 725.315,314.476 727.951,316.113 730.568,317.745 733.21,319.391 735.876,321.04 738.555,322.707 741.299,324.401 743.953,326.056 746.594,327.681 749.311,329.345 751.967,330.986 754.618,332.631 757.313,334.302 760.006,335.985 762.678,337.684 765.299,339.385 767.873,341.13 770.472,342.986 772.956,344.975 775.279,347.106 777.461,349.432 779.393,351.906 781.029,354.462 782.34,357.02 783.355,359.562 784.135,362.208 784.664,364.884 784.93,367.549 784.943,370.3 784.696,373.125 784.201,375.964 783.459,378.891 782.478,381.873 781.307,384.815 780.033,387.682 778.743,390.508 777.508,393.318 776.416,396.103 775.498,398.88 774.768,401.66 774.225,404.455 773.869,407.26 773.703,410.144 773.731,413.127 773.958,416.105 774.384,419.05 775.023,422.03 775.876,425.046 776.933,428.045 778.197,431.002 779.62,433.836 781.185,436.54 782.903,439.158 784.737,441.675 786.641,444.089 788.618,446.459 790.678,448.862 792.737,451.24 794.71,453.61 796.676,456.063 798.535,458.575 800.276,461.148 801.907,463.812 803.402,466.527 804.741,469.275 805.94,472.069 806.995,474.902 807.914,477.807 808.687,480.749 809.307,483.679 809.787,486.671 810.12,489.662 810.304,492.658 810.341,495.652 810.233,498.621 809.981,501.602 809.588,504.559 809.044,507.512 808.35,510.495 807.512,513.42 806.551,516.25 805.458,519.022 804.233,521.742 802.866,524.432 801.372,527.062 799.761,529.611 798.053,532.05 796.241,534.4 794.27,536.722 792.174,538.982 789.992,541.128 787.721,543.168 785.343,545.114 782.876,546.955 780.323,548.685 777.612,550.341 774.835,551.868 772.065,553.229 769.19,554.479 766.242,555.611 763.255,556.611 760.22,557.474 757.172,558.204 754.087,558.807 750.944,559.295 747.746,559.655 744.564,559.887 741.402,560.0 738.234,559.992 735.072,559.88 731.904,559.662 728.749,559.34 725.608,558.936 722.471,558.42 719.352,557.822 716.242,557.126 713.137,556.351 710.129,555.531 707.129,554.639 704.124,553.665 701.16,552.635 698.208,551.533 695.264,550.387 692.355,549.157 689.455,547.882 686.589,546.548 683.736,545.156 680.891,543.688 678.156,542.209 675.405,540.691 672.706,539.098 670.031,537.518 667.332,535.849 664.654,534.168 662.009,532.499 659.373,530.805 656.744,529.105 654.129,527.403 651.535,525.704 648.939,524.0 646.338,522.284 643.725,520.565 641.107,518.852 638.531,517.166 635.912,515.459 633.269,513.757 630.625,512.049 627.999,510.367 625.385,508.714 622.715,507.011 620.068,505.359 617.454,503.72 614.779,502.032 612.113,500.385 609.515,498.766 606.931,497.158 604.249,495.481 601.552,493.807 598.866,492.127 596.227,490.468 593.609,488.812 590.97,487.116 588.328,485.381 585.752,483.615 583.213,481.762 580.69,479.772 578.284,477.697 575.982,475.503 573.757,473.143 571.716,470.708 569.855,468.185 568.234,465.661 566.81,463.082 565.569,460.386 564.571,457.659 563.823,454.934 563.308,452.133 563.042,449.291 563.037,446.454 563.288,443.621 563.794,440.826 564.568,437.993 565.591,435.228 566.864,432.577 568.391,430.009 570.157,427.534 572.139,425.192 574.286,423.027 576.614,421.011 579.119,419.142 581.739,417.458 584.474,415.954 587.315,414.629 590.262,413.491 593.256,412.555 596.33,411.801 599.496,411.23 602.63,410.861 605.834,410.67 609.078,410.669 612.246,410.848 615.428,411.215 618.643,411.757 621.797,412.469 624.903,413.348 627.975,414.393 630.961,415.574 633.895,416.891 636.745,418.322 639.498,419.825 642.215,421.451 644.844,423.14 647.424,424.911 649.98,426.754 652.47,428.66 654.939,430.595 657.374,432.564 659.785,434.532 662.236,436.518 664.659,438.501 667.078,440.486 669.52,442.5 671.962,444.488 674.411,446.479 676.844,448.426 679.276,450.326 681.794,452.252 684.318,454.132 686.857,455.957 689.464,457.793 692.036,459.556 694.643,461.294 697.327,463.032 699.986,464.695 702.685,466.294 705.46,467.833 708.295,469.268 711.196,470.564 714.201,471.715 717.227,472.666 720.286,473.395 723.24,473.833 726.074,473.967 728.893,473.76 731.642,473.178 734.157,472.23 736.468,470.903 738.58,469.211 740.396,467.284 741.942,465.109 743.218,462.678 744.2,460.029 744.877,457.261 745.26,454.319 745.334,451.182 745.128,448.001 744.68,444.822 744.018,441.687 743.182,438.646 742.214,435.697 741.138,432.802 739.967,429.924 738.743,427.085 737.464,424.239 736.169,421.413 734.846,418.614 733.499,415.797 732.141,412.977 730.788,410.185 729.435,407.405 728.077,404.607 726.718,401.826 725.329,399.02 723.921,396.226 722.543,393.431 721.106,390.652 719.629,387.861 718.165,385.087 716.646,382.38 715.081,379.698 713.497,376.976 711.852,374.309 710.17,371.695 708.444,369.086 706.691,366.498 704.884,363.955 703.034,361.453 701.141,358.995 699.189,356.558 697.19,354.155 695.154,351.805 693.059,349.479 690.916,347.18 688.749,344.947 686.514,342.759 684.25,340.603 681.939,338.5 679.577,336.409 677.171,334.371 674.732,332.376 672.264,330.445 669.8,328.573 667.281,326.691 664.721,324.831 662.161,323.01 659.565,321.203 656.961,319.419 654.36,317.678 651.709,315.945 649.014,314.255 646.297,312.654 643.515,311.166 640.637,309.824 637.629,308.654 634.528,307.71 631.399,307.056 628.381,306.727 625.458,306.69 622.566,306.937 619.784,307.431 617.162,308.128 614.617,309.045 612.067,310.202 609.524,311.598 606.972,313.254 604.454,315.174 602.057,317.3 599.819,319.55 597.742,321.842 595.776,324.165 593.804,326.549 591.881,328.851 589.982,331.053 588.006,333.213 585.948,335.325 583.814,337.374 581.575,339.369 579.22,341.335 576.783,343.223 574.271,345.057 571.693,346.819 569.064,348.498 566.366,350.115 563.58,351.665 560.821,353.075 558.027,354.465 555.196,355.761 552.364,357.05 549.504,358.292 546.68,359.524 543.781,360.767 540.907,361.983 538.095,363.185 535.239,364.382 532.342,365.609 529.421,366.834 526.527,368.046 523.67,369.242 520.806,370.437 517.94,371.633 515.055,372.831 512.185,374.021 509.323,375.195 506.439,376.35 503.548,377.487 500.673,378.558 497.71,379.563 494.67,380.477 491.598,381.269 488.471,381.932 485.326,382.447 482.186,382.806 479.075,383.006 476.024,383.053 473.013,382.95 470.019,382.703 467.045,382.311 464.113,381.777 461.206,381.096 458.344,380.276 455.556,379.33 452.78,378.233 450.064,377.008 447.432,375.658 444.853,374.181 442.304,372.563 439.783,370.795 437.331,368.903 434.962,366.903 432.678,364.798 430.485,362.597 428.342,360.282 426.257,357.813 424.271,355.256 422.434,352.655 420.716,350.014 419.102,347.33 417.589,344.61 416.135,341.857 414.726,339.079 413.343,336.285 411.974,333.446 410.634,330.64 409.307,327.843 407.994,325.017 406.685,322.187 405.384,319.352 404.088,316.512 402.792,313.657 401.495,310.815 400.219,307.969 398.941,305.138 397.648,302.305 396.377,299.435 395.069,296.62 393.805,293.75 392.492,290.91 391.226,288.05 389.929,285.192 388.662,282.384 387.401,279.551 386.109,276.683 384.851,273.833 383.518,270.952 382.265,268.122 381.025,265.302 379.697,262.418 378.446,259.603 377.192,256.762 375.847,253.855 374.595,251.018 373.362,248.272 372.044,245.371 370.722,242.413 369.453,239.62 368.225,236.883 366.941,234.04 365.587,231.124 364.291,228.24 363.02,225.431 361.748,222.677 360.464,219.84 359.109,216.941 357.783,214.06 356.481,211.218 355.175,208.409 353.872,205.615 352.587,202.827 351.282,200.001 349.92,197.142 348.584,194.266 347.258,191.457 345.915,188.634 344.571,185.784 343.249,182.981 341.919,180.196 340.589,177.411 339.253,174.618 337.89,171.76 336.498,168.874 335.139,166.052 333.784,163.245 332.412,160.407 331.028,157.563 329.623,154.676 328.261,151.876 326.894,149.094 325.504,146.262 324.102,143.449 322.675,140.648 321.199,137.859 319.635,135.081 317.978,132.388 316.161,129.764 314.146,127.227 311.955,124.898 309.524,122.762 307.018,120.99 304.498,119.606 302.08,118.592 299.721,117.874 297.374,117.413 295.006,117.192 292.481,117.214 289.77,117.524 286.951,118.183 284.067,119.24 281.188,120.741 278.484,122.651 276.095,124.876 274.047,127.359 272.299,130.073 270.83,132.966 269.643,135.982 268.728,139.117 268.092,142.326 267.727,145.509 267.603,148.773 267.716,152.017 268.037,155.132 268.566,158.266 269.283,161.345 270.164,164.333 271.179,167.214 272.325,170.013 273.595,172.763 274.952,175.399 276.446,178.056 278.022,180.649 279.648,183.183 281.33,185.71 283.036,188.221 284.746,190.716 286.482,193.314 288.173,195.962 289.791,198.674 291.296,201.445 292.678,204.303 293.886,207.182 294.9,210.075 295.696,212.941 296.282,215.864 296.64,218.828 296.739,221.795 296.565,224.739 296.123,227.569 295.392,230.391 294.366,233.169 293.054,235.845 291.507,238.321 289.761,240.558 287.764,242.64 285.516,244.538 283.047,246.207 280.509,247.577 277.9,248.67 275.144,249.529 272.281,250.125 269.395,250.455 266.516,250.539 263.677,250.397 260.849,250.025 257.936,249.396 255.04,248.526 252.258,247.445 249.514,246.123 246.766,244.531 244.138,242.748 241.634,240.806 239.217,238.711 236.889,236.499 234.701,234.257 232.613,231.958 230.585,229.585 228.613,227.164 226.677,224.723 224.776,222.29 222.88,219.856 220.95,217.404 219.001,214.929 217.075,212.514 215.129,210.061 213.187,207.613 211.254,205.169 209.327,202.716 207.411,200.24 205.553,197.781 203.729,195.266 201.956,192.669 200.285,190.043 198.678,187.303 197.157,184.461 195.759,181.584 194.529,178.723 193.44,175.811 192.504,172.908 191.703,170.0 191.041,167.114 190.497,164.182 190.08,161.224 189.813,158.322 189.673,155.419 189.659,152.462 189.784,149.444 190.038,146.473 190.417,143.564 190.931,140.618 191.593,137.63 192.391,134.625 193.337,131.599 194.43,128.599 195.644,125.648 196.968,122.779 198.364,120.005 199.863,117.27 201.455,114.566 203.141,111.881 204.87,109.237 206.595,106.656 208.272,104.162 210.024,101.552 211.799,98.906 213.534,96.313 215.213,93.766 216.952,91.141 218.658,88.519 220.332,85.917 222.025,83.306 223.724,80.688 225.418,78.091 227.154,75.462 228.879,72.872 230.646,70.302 232.454,67.75 234.295,65.305 236.292,62.816 238.406,60.379 240.557,58.102 242.783,55.954 245.205,53.831 247.72,51.843 250.266,50.031 252.85,48.389 255.478,46.899 258.105,45.577 260.845,44.369 263.667,43.297 266.474,42.383 269.266,41.627 272.205,40.999 275.202,40.526 278.186,40.205 281.152,40.037 284.125,40.0 287.177,40.112 290.168,40.335 293.221,40.708 296.26,41.22 299.319,41.889 302.49,42.728 305.657,43.725 308.637,44.824 311.513,46.019 314.43,47.358 317.235,48.807 319.993,50.363 322.644,51.965 325.146,53.541 327.709,55.188 330.357,56.913 332.969,58.659 335.674,60.483 338.237,62.263 340.734,63.947 343.314,65.739 345.808,67.514 348.413,69.224 351.068,71.05 353.603,72.85 356.178,74.589 358.772,76.367 361.291,78.073 363.919,79.884 366.399,81.69 368.964,83.627 371.432,85.494 373.797,87.481 376.304,89.324 378.782,91.286 381.32,93.138 383.719,95.021 386.05,96.905 388.662,98.886 391.279,100.714 393.877,102.494 396.375,104.2 399.027,105.845 401.666,107.575 404.314,109.305 406.97,111.034 408.448,111.995 412.043,114.737" fill="none" stroke="white" stroke-width="4"
            stroke-linejoin="round" stroke-linecap="round"/>
  <line x1="401.023" y1="131.427" x2="423.063" y2="98.047" stroke="red" stroke-width="3" stroke-linecap="round"/>
</svg>
