<?xml version="1.0" encoding="utf-8"?>
<svg xmlns="http://www.w3.org/2000/svg" width="1000" height="600">
  <polyline points="728.27,337.171 726.582,339.172 724.916,341.194 723.169,343.232 721.445,345.283 719.753,347.324 718.029,349.345 716.306,351.39 714.612,353.447 712.923,355.481 711.203,357.504 709.507,359.542 707.764,361.639 706.047,363.715 704.382,365.728 702.668,367.77 700.957,369.818 699.257,371.866 697.548,373.928 695.874,375.962 694.128,378.06 692.389,380.15 690.696,382.186 688.992,384.236 687.256,386.343 685.552,388.387 683.861,390.444 682.158,392.481 680.489,394.535 678.741,396.604 677.039,398.707 675.321,400.762 673.639,402.812 671.954,404.862 670.215,406.954 668.478,409.073 666.764,411.156 665.079,413.2 663.386,415.27 661.662,417.347 659.97,419.407 658.278,421.471 656.576,423.549 654.924,425.568 653.218,427.652 651.523,429.724 649.844,431.77 648.176,433.798 646.484,435.86 644.768,437.966 643.063,440.045 641.372,442.098 639.673,444.141 637.982,446.239 636.277,448.306 634.573,450.373 632.873,452.447 631.17,454.498 629.485,456.551 627.789,458.627 626.073,460.727 624.356,462.822 622.674,464.886 620.983,466.943 619.273,469.008 617.645,471.033 615.939,473.123 614.242,475.198 612.567,477.274 610.897,479.36 609.187,481.443 607.467,483.554 605.766,485.655 604.082,487.74 602.395,489.833 600.672,491.932 598.986,494.03 597.313,496.078 595.67,498.112 593.981,500.203 592.285,502.308 590.612,504.381 588.936,506.452 587.254,508.536 585.556,510.628 583.874,512.724 582.177,514.826 580.464,516.937 578.806,518.989 577.102,521.095 575.394,523.207 573.703,525.298 571.986,527.41 570.297,529.502 568.588,531.599 566.885,533.695 565.21,535.746 563.492,537.857 561.767,539.967 560.087,542.024 558.383,544.092 556.646,546.179 554.891,548.247 553.112,550.266 551.195,552.274 549.153,554.164 546.969,555.898 544.661,557.406 542.186,558.644 539.649,559.493 537.148,559.935 534.862,560.0 532.854,559.784 530.978,559.34 529.103,558.644 527.327,557.728 525.725,556.638 524.157,555.269 522.615,553.539 521.233,551.509 520.051,549.239 519.071,546.746 518.32,544.101 517.812,541.451 517.508,538.757 517.378,536.056 517.378,533.367 517.486,530.631 517.689,527.937 517.983,525.258 518.372,522.578 518.854,519.911 519.416,517.271 520.03,514.649 520.707,512.041 521.423,509.429 522.194,506.822 523.011,504.237 523.872,501.677 524.776,499.148 525.722,496.637 526.732,494.125 527.764,491.645 528.835,489.229 529.963,486.796 531.135,484.375 532.344,482.031 533.591,479.665 534.909,477.308 536.253,474.992 537.62,472.72 539.024,470.488 540.454,468.277 541.931,466.103 543.429,463.936 544.984,461.781 546.553,459.645 548.137,457.533 549.739,455.449 551.398,453.335 553.091,451.226 554.732,449.175 556.463,447.116 558.177,445.061 559.885,443.031 561.614,441.024 563.347,439.005 565.1,437.0 566.862,434.968 568.624,432.967 570.385,430.943 572.164,428.936 573.923,426.929 575.727,424.904 577.474,422.897 579.233,420.898 580.974,418.9 582.739,416.86 584.501,414.821 586.202,412.843 587.975,410.775 589.733,408.707 591.422,406.712 593.165,404.637 594.892,402.584 596.618,400.52 598.345,398.438 600.049,396.381 601.764,394.274 603.46,392.137 605.074,390.018 606.667,387.794 608.169,385.531 609.57,383.209 610.867,380.818 612.059,378.336 613.086,375.86 613.945,373.365 614.623,370.874 615.104,368.423 615.391,365.958 615.458,363.45 615.287,360.997 614.898,358.639 614.267,356.279 613.407,353.986 612.3,351.785 610.995,349.75 609.543,347.932 607.821,346.184 605.932,344.619 603.98,343.283 601.861,342.144 599.563,341.201 597.191,340.492 594.78,340.011 592.282,339.744 589.675,339.707 586.994,339.871 584.361,340.205 581.731,340.716 579.094,341.426 576.552,342.301 574.084,343.333 571.698,344.494 569.367,345.78 567.091,347.169 564.84,348.643 562.631,350.16 560.431,351.68 558.195,353.19 555.963,354.627 553.671,356.007 551.312,357.304 548.93,358.485 546.512,359.55 544.008,360.514 541.462,361.352 538.957,362.05 536.519,362.607 534.112,363.041 531.782,363.359 529.428,363.571 526.951,363.679 524.449,363.675 521.911,363.554 519.246,363.304 516.553,362.928 513.908,362.439 511.235,361.821 508.571,361.076 505.98,360.232 503.473,359.294 501.013,358.259 498.588,357.135 496.19,355.936 493.808,354.688 491.455,353.415 489.169,352.148 486.861,350.846 484.506,349.499 482.151,348.133 479.845,346.783 477.573,345.433 475.232,344.036 472.912,342.665 470.647,341.313 468.338,339.963 466.025,338.636 463.704,337.302 461.374,336.002 459.041,334.699 456.694,333.401 454.323,332.123 451.98,330.86 449.65,329.616 447.278,328.363 444.883,327.075 442.525,325.853 440.194,324.617 437.794,323.346 435.439,322.124 433.09,320.87 430.7,319.619 428.323,318.387 425.968,317.123 423.604,315.899 421.25,314.659 418.878,313.41 416.488,312.146 414.123,310.913 411.763,309.652 409.432,308.424 407.077,307.164 404.698,305.879 402.336,304.582 399.99,303.276 397.672,301.977 395.392,300.666 393.077,299.31 390.736,297.94 388.417,296.552 386.111,295.134 383.875,293.739 381.665,292.331 379.434,290.893 377.215,289.434 374.969,287.923 372.721,286.39 370.533,284.867 368.366,283.341 366.199,281.783 364.052,280.216 361.942,278.651 359.83,277.06 357.719,275.44 355.621,273.8 353.531,272.149 351.457,270.498 349.379,268.84 347.299,267.193 345.25,265.59 343.115,263.964 340.914,262.366 338.653,260.847 336.317,259.429 333.932,258.143 331.469,256.977 329.077,255.99 326.802,255.183 324.532,254.508 322.17,253.923 319.694,253.437 317.067,253.059 314.326,252.812 311.577,252.709 308.862,252.758 306.117,252.927 303.375,253.233 300.686,253.645 298.067,254.146 295.464,254.734 292.896,255.399 290.34,256.143 287.815,256.938 285.282,257.806 282.71,258.728 280.186,259.674 277.679,260.645 275.211,261.63 272.702,262.621 270.158,263.641 267.717,264.612 265.202,265.581 262.704,266.526 260.189,267.432 257.587,268.294 255.031,269.076 252.481,269.771 249.823,270.398 247.169,270.914 244.469,271.315 241.696,271.582 238.962,271.691 236.306,271.631 233.621,271.388 231.003,270.966 228.503,270.372 226.086,269.594 223.718,268.605 221.441,267.423 219.305,266.085 217.282,264.574 215.373,262.894 213.623,261.083 211.997,259.099 210.566,257.026 209.31,254.833 208.223,252.505 207.348,250.121 206.67,247.686 206.204,245.223 205.916,242.661 205.815,240.009 205.906,237.372 206.183,234.749 206.652,232.093 207.303,229.466 208.141,226.867 209.131,224.352 210.266,221.889 211.516,219.516 212.867,217.195 214.296,214.926 215.825,212.672 217.411,210.468 219.054,208.313 220.757,206.198 222.535,204.106 224.368,202.028 226.253,200.013 228.142,198.062 230.067,196.165 232.005,194.296 233.977,192.446 235.942,190.636 237.893,188.839 239.877,187.042 241.873,185.229 243.856,183.425 245.83,181.637 247.807,179.852 249.796,178.04 251.79,176.228 253.773,174.429 255.746,172.639 257.734,170.813 259.727,169.004 261.716,167.195 263.712,165.371 265.719,163.542 267.734,161.699 269.718,159.895 271.695,158.094 273.691,156.291 275.715,154.48 277.751,152.686 279.796,150.939 281.908,149.277 284.16,147.765 286.571,146.483 289.065,145.515 291.48,144.898 293.782,144.598 296.019,144.553 298.206,144.731 300.546,145.167 303.021,145.919 305.531,146.942 307.915,148.05 310.146,149.049 312.296,149.873 314.45,150.568 316.787,151.147 319.429,151.571 322.167,151.794 324.915,151.815 327.635,151.657 330.299,151.352 332.976,150.919 335.585,150.389 338.163,149.79 340.761,149.148 343.333,148.498 345.915,147.835 348.502,147.167 351.091,146.497 353.678,145.847 356.252,145.195 358.86,144.552 361.423,143.917 364.01,143.269 366.624,142.6 369.226,141.897 371.819,141.129 374.363,140.275 376.866,139.312 379.344,138.202 381.792,136.933 384.132,135.523 386.287,134.011 388.225,132.432 390.006,130.76 391.637,128.992 393.125,127.142 394.512,125.164 395.812,123.0 396.963,120.734 397.977,118.346 398.857,115.808 399.567,113.231 400.108,110.629 400.488,107.988 400.732,105.293 400.9,102.577 401.078,99.925 401.352,97.284 401.759,94.616 402.306,91.953 402.989,89.345 403.811,86.798 404.766,84.339 405.888,81.932 407.152,79.671 408.529,77.607 410.043,75.69 411.765,73.854 413.599,72.203 415.496,70.745 417.535,69.416 419.707,68.224 422.02,67.159 424.436,66.24 426.937,65.481 429.566,64.878 432.318,64.439 435.092,64.182 437.825,64.098 440.527,64.17 443.227,64.386 445.92,64.727 448.553,65.163 451.16,65.683 453.713,66.268 456.286,66.921 458.94,67.647 461.512,68.38 464.095,69.122 466.681,69.863 469.234,70.572 471.85,71.266 474.432,71.925 476.971,72.52 479.618,73.085 482.324,73.584 484.957,74.002 487.57,74.333 490.209,74.582 492.883,74.744 495.55,74.813 498.22,74.787 500.874,74.661 503.467,74.44 506.021,74.121 508.571,73.71 511.114,73.199 513.604,72.599 516.048,71.903 518.489,71.117 520.903,70.233 523.282,69.266 525.65,68.216 528.021,67.055 530.393,65.811 532.669,64.533 534.913,63.182 537.197,61.74 539.426,60.263 541.633,58.762 543.848,57.234 546.046,55.72 548.256,54.204 550.506,52.698 552.734,51.242 554.968,49.829 557.256,48.431 559.602,47.066 562.025,45.77 564.479,44.591 567.015,43.52 569.591,42.583 572.128,41.807 574.701,41.167 577.24,40.676 579.748,40.326 582.315,40.095 584.847,40.0 587.375,40.041 589.898,40.208 592.399,40.504 594.915,40.937 597.361,41.484 599.809,42.161 602.333,42.995 604.874,43.972 607.366,45.072 609.828,46.302 612.264,47.668 614.613,49.134 616.847,50.669 619.009,52.294 621.1,53.984 623.113,55.742 625.094,57.556 627.055,59.397 628.986,61.254 630.903,63.092 632.781,64.947 634.673,66.834 636.615,68.735 638.473,70.607 640.364,72.519 642.273,74.396 644.107,76.271 646.025,78.161 647.884,80.041 649.794,81.917 651.678,83.807 653.594,85.67 655.51,87.563 657.427,89.41 659.354,91.275 661.293,93.139 663.198,94.919 665.164,96.801 667.11,98.629 669.028,100.419 671.034,102.297 672.984,104.12 674.894,105.892 676.863,107.731 678.877,109.573 680.82,111.384 682.753,113.144 684.716,114.956 686.772,116.824 688.77,118.647 690.687,120.389 692.656,122.19 694.669,123.998 696.694,125.843 698.692,127.645 700.629,129.397 702.639,131.21 704.672,133.041 706.648,134.824 708.648,136.618 710.645,138.421 712.673,140.248 714.699,142.074 716.717,143.897 718.75,145.736 720.738,147.545 722.707,149.345 724.7,151.201 726.683,153.079 728.613,154.989 730.453,156.974 732.147,159.057 733.673,161.295 734.965,163.697 735.928,166.13 736.556,168.525 736.885,170.809 736.968,172.955 736.839,175.154 736.468,177.501 735.828,179.927 734.904,182.374 733.692,184.783 732.237,187.12 730.596,189.356 728.829,191.467 727.017,193.402 725.117,195.261 723.125,197.058 721.098,198.766 719.032,200.424 716.884,202.061 714.714,203.631 712.542,205.164 710.308,206.703 708.048,208.225 705.815,209.741 703.598,211.289 701.445,212.84 699.343,214.426 697.199,216.105 695.114,217.792 693.079,219.533 691.054,221.307 689.061,223.143 687.078,225.028 685.191,226.905 683.345,228.813 681.491,230.819 679.694,232.854 677.98,234.938 676.325,237.131 674.812,239.369 673.43,241.724 672.19,244.222 671.154,246.787 670.366,249.371 669.825,251.874 669.521,254.38 669.497,256.98 669.782,259.511 670.354,261.873 671.212,264.135 672.381,266.356 673.822,268.397 675.479,270.165 677.321,271.664 679.399,272.94 681.684,273.941 684.085,274.62 686.483,274.959 688.851,274.983 691.287,274.709 693.745,274.168 696.134,273.406 698.476,272.434 700.84,271.223 703.177,269.795 705.408,268.202 707.533,266.476 709.541,264.662 711.426,262.78 713.242,260.797 714.964,258.76 716.588,256.675 718.151,254.501 719.643,252.264 721.07,249.981 722.443,247.644 723.759,245.313 725.117,242.922 726.487,240.531 727.877,238.214 729.313,235.949 730.827,233.711 732.4,231.512 734.013,229.403 735.73,227.306 737.495,225.306 739.346,223.374 741.29,221.52 743.308,219.781 745.489,218.095 747.748,216.552 750.033,215.188 752.32,214.026 754.725,213.019 757.185,212.203 759.676,211.594 762.221,211.201 764.775,211.037 767.334,211.107 769.878,211.412 772.33,211.93 774.725,212.663 777.094,213.629 779.326,214.796 781.438,216.163 783.471,217.757 785.368,219.534 787.066,221.444 788.553,223.46 789.812,225.529 790.917,227.735 791.816,229.941 792.571,232.226 793.18,234.619 793.631,237.057 793.917,239.442 794.101,241.941 794.185,244.561 794.092,247.128 793.796,249.681 793.301,252.199 792.583,254.805 791.682,257.433 790.635,260.059 789.481,262.59 788.255,264.987 786.951,267.289 785.53,269.585 784.018,271.843 782.432,274.056 780.796,276.196 779.18,278.191 777.455,280.252 775.708,282.288 773.919,284.329 772.127,286.338 770.37,288.316 768.624,290.294 766.88,292.276 765.057,294.342 763.273,296.367 761.569,298.309 759.73,300.415 757.951,302.453 756.219,304.441 754.474,306.454 752.743,308.457 750.86,310.643 749.111,312.682 747.466,314.604 745.705,316.669 743.943,318.746 742.463,320.502 740.637,322.702 738.788,324.905 737.124,326.892 735.451,328.892 733.582,331.13 731.891,333.157 730.949,334.287 728.27,337.171" fill="none" stroke="white" stroke-width="4"
            stroke-linejoin="round" stroke-linecap="round"/>
</svg>
