<?xml version="1.0" encoding="utf-8"?>
<svg xmlns="http://www.w3.org/2000/svg" width="1000" height="600">
  <polyline points="396.309,167.106 396.394,168.868 396.476,170.56 396.522,172.313 396.575,174.059 396.614,175.78 396.638,177.541 396.657,179.297 396.664,180.977 396.678,182.718 396.673,184.455 396.689,186.152 396.682,187.933 396.679,189.697 396.669,191.436 396.664,193.159 396.647,194.902 396.637,196.651 396.617,198.36 396.604,200.08 396.591,201.838 396.592,203.592 396.566,205.277 396.532,207.024 396.501,208.768 396.465,210.512 396.437,212.29 396.381,213.992 396.32,215.723 396.263,217.477 396.175,219.164 396.111,220.918 396.009,222.654 395.901,224.413 395.797,226.118 395.663,227.889 395.542,229.598 395.396,231.268 395.227,233.111 395.083,234.809 394.911,236.502 394.731,238.182 394.554,239.899 394.365,241.598 394.148,243.283 393.934,245.017 393.713,246.663 393.468,248.331 393.205,250.031 392.937,251.805 392.678,253.524 392.385,255.203 392.102,256.902 391.823,258.637 391.531,260.317 391.236,262.097 390.93,263.856 390.653,265.509 390.384,267.154 390.07,268.931 389.777,270.741 389.475,272.416 389.196,274.06 388.905,275.781 388.616,277.528 388.319,279.218 388.047,280.874 387.74,282.616 387.443,284.354 387.155,286.09 386.869,287.78 386.599,289.498 386.293,291.195 386.0,292.96 385.742,294.707 385.481,296.324 385.201,298.021 384.95,299.744 384.678,301.506 384.463,303.178 384.214,304.865 383.992,306.572 383.782,308.291 383.575,310.021 383.402,311.658 383.207,313.424 383.06,315.205 382.896,316.86 382.761,318.632 382.656,320.374 382.543,322.147 382.456,323.826 382.399,325.45 382.339,327.233 382.304,328.997 382.264,330.708 382.261,332.388 382.254,334.114 382.263,335.89 382.284,337.651 382.318,339.299 382.362,341.073 382.423,342.809 382.482,344.5 382.547,346.231 382.635,348.035 382.721,349.78 382.789,351.468 382.903,353.218 383.006,355.015 383.099,356.739 383.205,358.443 383.307,360.245 383.429,361.918 383.558,363.686 383.671,365.382 383.794,367.097 383.934,368.877 384.079,370.577 384.238,372.263 384.388,374.038 384.552,375.759 384.741,377.516 384.903,379.259 385.104,381.021 385.296,382.698 385.502,384.383 385.721,386.151 385.965,387.893 386.213,389.572 386.485,391.314 386.766,393.075 387.048,394.743 387.367,396.45 387.686,398.192 388.055,400.027 388.404,401.709 388.769,403.391 389.154,405.117 389.56,406.851 389.974,408.553 390.415,410.23 390.913,411.948 391.462,413.603 392.102,415.236 392.866,416.878 393.747,418.453 394.711,419.891 395.756,421.186 396.808,422.288 397.85,423.236 399.044,424.173 400.419,425.098 401.904,425.949 403.483,426.738 405.086,427.453 406.673,428.141 408.194,428.838 409.668,429.588 410.925,430.302 412.201,431.119 413.473,432.038 414.796,433.109 416.091,434.316 417.295,435.59 418.438,436.964 419.494,438.39 420.446,439.858 421.313,441.358 422.111,442.911 422.853,444.496 423.542,446.074 424.206,447.68 424.85,449.278 425.507,450.836 426.233,452.435 427.043,454.047 427.849,455.491 428.757,456.958 429.678,458.311 430.682,459.648 431.747,460.939 432.811,462.113 433.956,463.268 435.215,464.434 436.523,465.526 437.975,466.634 439.427,467.637 440.921,468.569 442.461,469.446 444.014,470.23 445.581,470.967 447.174,471.647 448.794,472.286 450.42,472.903 452.077,473.516 453.684,474.109 455.308,474.696 456.947,475.276 458.527,475.837 460.194,476.446 461.879,477.03 463.476,477.62 465.119,478.236 466.778,478.832 468.304,479.44 469.978,480.056 471.592,480.676 473.2,481.3 474.872,481.95 476.485,482.577 478.079,483.203 479.668,483.834 481.326,484.49 482.925,485.113 484.54,485.747 486.14,486.393 487.763,487.051 489.356,487.677 491.024,488.368 492.6,488.999 494.229,489.675 495.775,490.308 497.44,491.003 498.988,491.66 500.619,492.332 502.233,493.008 503.883,493.705 505.448,494.366 507.034,495.03 508.606,495.703 510.187,496.37 511.825,497.065 513.384,497.732 515.013,498.419 516.631,499.105 518.243,499.782 519.826,500.452 521.387,501.096 523.034,501.778 524.609,502.425 526.265,503.091 527.844,503.722 529.459,504.351 531.084,504.966 532.787,505.572 534.42,506.091 536.133,506.558 537.879,506.953 539.624,507.257 541.382,507.47 543.158,507.601 544.774,507.64 546.379,507.601 547.97,507.495 549.608,507.318 551.231,507.071 552.861,506.756 554.623,506.353 556.28,505.959 557.955,505.584 559.753,505.254 561.503,505.027 563.24,504.91 565.059,504.925 566.783,505.076 568.33,505.338 569.751,505.686 571.219,506.16 572.731,506.769 574.275,507.533 575.826,508.457 577.263,509.468 578.656,510.609 579.925,511.791 581.126,513.021 582.316,514.334 583.443,515.661 584.507,516.952 585.601,518.333 586.677,519.709 587.728,521.112 588.733,522.473 589.749,523.89 590.75,525.309 591.781,526.802 592.731,528.202 593.665,529.616 594.665,531.091 595.685,532.599 596.644,534.013 597.613,535.417 598.637,536.864 599.641,538.252 600.655,539.656 601.685,541.027 602.721,542.402 603.817,543.807 604.904,545.175 606.017,546.549 607.104,547.87 608.243,549.215 609.389,550.545 610.546,551.863 611.727,553.146 612.978,554.422 614.294,555.641 615.658,556.757 617.136,557.792 618.649,558.655 620.235,559.343 621.819,559.793 623.346,560.0 624.888,559.979 626.389,559.728 627.769,559.272 629.08,558.611 630.266,557.768 631.342,556.734 632.257,555.565 633.047,554.219 633.691,552.75 634.205,551.138 634.579,549.432 634.822,547.655 634.944,545.894 634.968,544.169 634.923,542.434 634.802,540.687 634.626,538.987 634.396,537.244 634.141,535.531 633.862,533.828 633.57,532.142 633.271,530.447 632.957,528.715 632.643,526.981 632.327,525.279 632.023,523.55 631.715,521.862 631.422,520.177 631.113,518.46 630.815,516.74 630.519,515.048 630.232,513.347 629.931,511.632 629.639,509.928 629.35,508.185 629.065,506.487 628.775,504.79 628.511,503.089 628.221,501.338 627.949,499.646 627.687,497.955 627.425,496.278 627.144,494.486 626.891,492.757 626.627,491.099 626.399,489.385 626.123,487.615 625.888,485.893 625.659,484.197 625.41,482.447 625.194,480.744 624.979,479.046 624.781,477.335 624.581,475.6 624.378,473.854 624.205,472.155 624.053,470.443 623.899,468.695 623.779,467.014 623.667,465.319 623.573,463.596 623.497,461.777 623.435,460.028 623.414,458.303 623.388,456.65 623.411,454.88 623.446,453.141 623.513,451.429 623.605,449.702 623.713,447.971 623.844,446.291 624.007,444.579 624.192,442.871 624.386,441.182 624.623,439.437 624.877,437.774 625.153,436.067 625.455,434.348 625.764,432.643 626.098,430.892 626.422,429.191 626.734,427.549 627.066,425.816 627.396,424.121 627.721,422.424 628.048,420.712 628.376,419.0 628.697,417.305 629.022,415.612 629.339,413.91 629.673,412.122 629.982,410.431 630.275,408.765 630.563,406.983 630.809,405.179 630.98,403.457 631.07,401.736 631.064,399.92 630.949,398.155 630.718,396.4 630.387,394.762 629.973,393.238 629.449,391.721 628.835,390.259 628.142,388.855 627.354,387.461 626.45,386.075 625.443,384.733 624.299,383.406 623.065,382.146 621.765,380.984 620.374,379.874 618.948,378.861 617.455,377.909 615.947,377.036 614.386,376.211 612.84,375.458 611.258,374.749 609.628,374.076 607.994,373.473 606.34,372.897 604.648,372.37 602.947,371.908 601.249,371.488 599.521,371.12 597.814,370.788 596.092,370.535 594.359,370.3 592.647,370.121 590.896,369.99 589.191,369.904 587.455,369.846 585.781,369.85 584.065,369.894 582.376,369.951 580.67,370.059 578.968,370.207 577.277,370.388 575.602,370.605 573.917,370.846 572.196,371.132 570.494,371.436 568.817,371.761 567.132,372.098 565.435,372.483 563.748,372.856 562.056,373.255 560.382,373.681 558.664,374.11 556.969,374.548 555.317,374.972 553.634,375.416 551.945,375.85 550.342,376.264 548.62,376.71 546.891,377.147 545.246,377.548 543.559,377.957 541.884,378.334 540.157,378.707 538.454,379.049 536.75,379.351 535.055,379.609 533.287,379.814 531.547,379.953 529.781,380.025 527.996,380.018 526.233,379.937 524.627,379.798 523.093,379.605 521.547,379.341 519.923,378.978 518.231,378.514 516.546,377.969 514.898,377.359 513.23,376.663 511.616,375.916 510.046,375.118 508.515,374.269 507.035,373.385 505.548,372.437 504.084,371.441 502.669,370.384 501.334,369.245 500.085,367.967 498.951,366.517 498.05,365.023 497.447,363.664 497.049,362.385 496.778,361.049 496.619,359.48 496.585,357.678 496.733,355.882 497.054,354.157 497.467,352.457 497.912,350.821 498.379,349.221 498.834,347.677 499.255,346.151 499.659,344.582 500.041,342.964 500.401,341.304 500.741,339.588 501.055,337.859 501.326,336.159 501.577,334.412 501.795,332.666 501.977,330.939 502.132,329.205 502.25,327.467 502.341,325.743 502.406,324.033 502.438,322.282 502.448,320.546 502.433,318.802 502.393,317.084 502.368,315.393 502.308,313.627 502.243,311.89 502.191,310.175 502.116,308.438 502.057,306.685 501.98,304.968 501.918,303.237 501.851,301.492 501.767,299.771 501.695,298.066 501.619,296.319 501.534,294.543 501.453,292.815 501.368,291.12 501.28,289.389 501.201,287.633 501.121,285.894 501.033,284.171 500.953,282.436 500.869,280.69 500.786,278.978 500.7,277.222 500.621,275.465 500.538,273.74 500.446,272.0 500.367,270.258 500.275,268.549 500.202,266.828 500.123,265.086 500.033,263.308 499.951,261.586 499.874,259.883 499.802,258.138 499.725,256.412 499.647,254.693 499.584,252.94 499.507,251.193 499.439,249.446 499.374,247.694 499.319,245.936 499.266,244.175 499.22,242.419 499.179,240.669 499.15,238.931 499.123,237.169 499.112,235.403 499.125,233.661 499.187,231.92 499.318,230.176 499.566,228.406 499.973,226.63 500.584,224.899 501.305,223.453 501.976,222.41 502.67,221.503 503.693,220.348 504.991,218.887 506.06,217.437 506.697,216.342 507.105,215.456 507.534,214.232 507.907,212.529 508.032,210.658 507.871,208.853 507.506,207.124 507.024,205.451 506.472,203.828 505.865,202.22 505.212,200.607 504.536,199.019 503.843,197.429 503.141,195.842 502.429,194.265 501.72,192.692 501.0,191.127 500.274,189.556 499.542,187.979 498.8,186.398 498.071,184.836 497.325,183.266 496.572,181.685 495.829,180.145 495.067,178.589 494.284,177.017 493.496,175.461 492.703,173.93 491.889,172.388 491.052,170.842 490.209,169.311 489.357,167.792 488.506,166.308 487.648,164.828 486.751,163.339 485.863,161.859 484.965,160.402 484.031,158.926 483.101,157.468 482.17,156.039 481.215,154.615 480.234,153.17 479.251,151.739 478.252,150.323 477.238,148.905 476.223,147.513 475.196,146.129 474.157,144.751 473.117,143.394 472.065,142.044 470.994,140.698 469.895,139.341 468.785,137.992 467.685,136.68 466.577,135.388 465.458,134.095 464.302,132.79 463.125,131.48 461.969,130.226 460.813,128.975 459.604,127.703 458.388,126.438 457.19,125.201 455.975,123.971 454.734,122.726 453.515,121.508 452.281,120.295 451.031,119.074 449.809,117.876 448.559,116.664 447.322,115.457 446.071,114.244 444.817,113.014 443.579,111.809 442.347,110.597 441.119,109.385 439.896,108.168 438.681,106.946 437.455,105.698 436.245,104.449 435.052,103.188 433.877,101.922 432.719,100.634 431.578,99.331 430.445,97.989 429.338,96.641 428.252,95.268 427.185,93.88 426.152,92.486 425.151,91.089 424.169,89.679 423.208,88.24 422.273,86.792 421.385,85.358 420.53,83.933 419.683,82.468 418.852,80.994 418.042,79.482 417.254,77.948 416.493,76.419 415.759,74.865 415.028,73.275 414.326,71.68 413.647,70.098 412.968,68.501 412.296,66.888 411.632,65.284 410.971,63.682 410.3,62.051 409.623,60.415 408.957,58.81 408.281,57.192 407.6,55.578 406.918,53.985 406.21,52.38 405.481,50.785 404.713,49.213 403.859,47.666 402.897,46.174 401.8,44.758 400.562,43.476 399.275,42.43 398.007,41.629 396.726,41.009 395.358,40.523 393.818,40.17 392.098,40.0 390.285,40.042 388.497,40.27 386.79,40.652 385.108,41.168 383.485,41.761 381.886,42.409 380.298,43.103 378.714,43.835 377.148,44.605 375.617,45.426 374.109,46.33 372.628,47.351 371.236,48.48 369.942,49.735 368.825,51.043 367.888,52.369 367.117,53.692 366.462,55.078 365.925,56.507 365.506,57.991 365.2,59.636 365.042,61.358 365.032,63.124 365.172,64.908 365.452,66.655 365.848,68.369 366.331,70.068 366.864,71.705 367.457,73.34 368.087,74.952 368.742,76.553 369.424,78.164 370.116,79.747 370.812,81.342 371.501,82.898 372.214,84.508 372.919,86.107 373.599,87.662 374.28,89.248 374.954,90.885 375.651,92.512 376.287,94.077 376.951,95.653 377.63,97.297 378.271,98.897 378.919,100.503 379.575,102.136 380.201,103.759 380.85,105.343 381.479,106.927 382.104,108.589 382.735,110.205 383.362,111.802 383.983,113.41 384.596,115.041 385.277,116.721 385.876,118.35 386.468,119.96 387.056,121.582 387.612,123.192 388.166,124.832 388.726,126.452 389.279,128.121 389.753,129.763 390.251,131.444 390.764,133.103 391.266,134.772 391.708,136.422 392.214,138.064 392.671,139.741 393.027,141.332 393.413,142.995 393.764,144.668 394.126,146.34 394.393,147.981 394.622,149.75 394.877,151.391 395.112,153.04 395.312,154.798 395.467,156.3 395.519,158.16 395.687,159.997 395.823,161.656 395.942,163.32 396.014,164.433 396.309,167.106" fill="none" stroke="white" stroke-width="4"
            stroke-linejoin="round" stroke-linecap="round"/>
  <line x1="376.332" y1="168.070" x2="416.286" y2="166.142" stroke="red" stroke-width="3" stroke-linecap="round"/>
</svg>
