<?xml version="1.0" encoding="utf-8"?>
<svg xmlns="http://www.w3.org/2000/svg" width="1000" height="600">
  <polyline points="770.993,243.189 768.511,243.98 766.057,244.763 763.574,245.565 761.092,246.392 758.639,247.193 756.163,248.034 753.721,248.866 751.281,249.714 748.796,250.603 746.337,251.459 743.871,252.338 741.403,253.182 738.994,254.015 736.524,254.874 734.036,255.702 731.607,256.507 729.141,257.335 726.657,258.131 724.196,258.942 721.697,259.741 719.226,260.532 716.771,261.32 714.277,262.127 711.768,262.938 709.312,263.74 706.873,264.529 704.376,265.355 701.903,266.17 699.462,266.974 696.96,267.801 694.508,268.622 692.073,269.428 689.57,270.24 687.085,271.069 684.644,271.87 682.173,272.691 679.65,273.492 677.214,274.31 674.764,275.1 672.28,275.919 669.779,276.73 667.323,277.537 664.871,278.323 662.381,279.125 659.905,279.942 657.403,280.735 654.952,281.524 652.458,282.33 649.921,283.152 647.43,283.939 644.96,284.741 642.466,285.561 639.957,286.387 637.448,287.195 634.965,288.035 632.492,288.83 630.037,289.668 627.561,290.493 625.064,291.379 622.603,292.291 620.189,293.319 617.83,294.532 615.557,296.016 613.474,297.839 611.965,299.693 611.083,301.243 610.508,302.708 610.112,304.573 609.992,307.119 610.053,309.909 610.007,312.326 609.743,314.357 609.2,316.136 608.343,317.807 607.105,319.402 605.379,320.879 603.091,322.093 600.444,322.827 597.745,323.04 595.072,322.854 592.445,322.374 589.885,321.707 587.345,320.875 584.865,319.946 582.434,318.966 580.046,318.004 577.671,317.114 575.292,316.303 572.894,315.585 570.478,314.956 568.028,314.429 565.533,313.985 562.998,313.644 560.476,313.398 557.983,313.261 555.404,313.197 552.846,313.215 550.261,313.305 547.644,313.463 545.071,313.674 542.483,313.936 539.902,314.235 537.33,314.58 534.738,314.941 532.183,315.305 529.623,315.699 527.034,316.082 524.493,316.478 521.924,316.862 519.344,317.268 516.774,317.649 514.219,318.049 511.632,318.439 509.076,318.835 506.528,319.221 503.937,319.611 501.321,320.007 498.736,320.401 496.192,320.782 493.636,321.159 491.063,321.532 488.464,321.898 485.853,322.262 483.274,322.608 480.705,322.963 478.12,323.304 475.567,323.666 472.987,324.048 470.437,324.523 467.872,325.207 465.292,326.174 463.084,327.291 461.376,328.411 459.692,329.813 457.876,331.691 456.206,333.82 454.805,335.969 453.559,338.078 452.311,340.203 450.991,342.301 449.558,344.31 447.978,346.2 446.261,347.962 444.411,349.588 442.428,351.084 440.318,352.436 438.13,353.62 435.843,354.631 433.492,355.474 431.094,356.119 428.646,356.596 426.143,356.895 423.654,357.009 421.193,356.956 418.691,356.736 416.192,356.35 413.757,355.807 411.347,355.107 408.96,354.245 406.627,353.237 404.324,352.092 402.044,350.868 399.746,349.615 397.428,348.414 395.148,347.327 392.821,346.346 390.446,345.486 388.064,344.769 385.656,344.19 383.184,343.744 380.698,343.444 378.201,343.296 375.665,343.296 373.116,343.451 370.549,343.765 368.032,344.229 365.494,344.861 362.976,345.657 360.567,346.591 358.205,347.678 355.95,348.893 353.856,350.189 351.881,351.586 349.994,353.078 348.158,354.707 346.358,356.456 344.56,358.309 342.712,360.223 340.831,362.084 338.914,363.819 337.007,365.367 335.096,366.733 333.108,367.973 331.036,369.096 328.806,370.127 326.363,371.07 323.815,371.863 321.23,372.483 318.605,372.931 316.025,373.21 313.465,373.335 310.836,373.34 308.229,373.266 305.646,373.119 303.02,372.865 300.383,372.454 297.753,371.855 295.237,371.08 292.806,370.12 290.528,369.019 288.391,367.788 286.365,366.418 284.461,364.924 282.663,363.294 280.995,361.559 279.41,359.661 277.954,357.649 276.595,355.476 275.298,353.169 274.036,350.866 272.726,348.625 271.334,346.487 269.865,344.507 268.309,342.675 266.648,340.966 264.854,339.354 262.963,337.872 260.94,336.497 258.72,335.204 256.338,334.032 253.844,333.016 251.342,332.178 248.834,331.498 246.3,330.934 243.816,330.461 241.322,329.997 238.85,329.526 236.351,329.024 233.851,328.489 231.365,327.935 228.85,327.36 226.353,326.782 223.805,326.195 221.249,325.609 218.682,325.02 216.115,324.465 213.61,323.935 211.108,323.418 208.579,322.931 206.027,322.458 203.52,322.029 201.014,321.635 198.478,321.277 195.914,320.947 193.371,320.644 190.767,320.38 188.177,320.131 185.593,319.912 183.022,319.717 180.453,319.549 177.879,319.37 175.25,319.235 172.624,319.116 170.068,319.02 167.516,318.922 164.908,318.853 162.303,318.809 159.714,318.778 157.093,318.752 154.497,318.761 151.906,318.775 149.282,318.797 146.702,318.844 144.099,318.877 141.492,318.944 138.891,318.994 136.293,319.054 133.714,319.117 131.106,319.181 128.495,319.254 125.889,319.327 123.267,319.403 120.675,319.481 118.1,319.567 115.49,319.639 112.897,319.749 110.29,319.836 107.679,319.939 105.097,320.041 102.506,320.14 99.917,320.246 97.283,320.352 94.679,320.453 92.152,320.564 89.513,320.667 86.893,320.783 84.293,320.894 81.692,321.009 79.138,321.127 76.508,321.252 73.853,321.383 71.22,321.529 68.591,321.705 65.989,321.933 63.399,322.255 60.795,322.703 58.199,323.301 55.657,324.062 53.215,325.003 50.912,326.132 48.762,327.47 46.79,329.026 45.055,330.76 43.536,332.694 42.261,334.795 41.259,337.023 40.538,339.361 40.118,341.746 40.0,344.16 40.178,346.574 40.644,348.95 41.392,351.274 42.39,353.473 43.638,355.567 45.136,357.55 46.847,359.372 48.765,361.035 50.885,362.528 53.175,363.823 55.615,364.908 58.163,365.765 60.757,366.377 63.392,366.759 66.038,366.915 68.723,366.859 71.404,366.597 74.033,366.153 76.633,365.536 79.198,364.753 81.715,363.82 84.16,362.748 86.532,361.542 88.829,360.242 91.054,358.859 93.246,357.448 95.419,356.039 97.618,354.637 99.819,353.262 102.027,351.93 104.262,350.641 106.502,349.425 108.765,348.265 111.073,347.174 113.401,346.151 115.772,345.198 118.153,344.321 120.565,343.514 123.016,342.784 125.477,342.134 127.943,341.566 130.43,341.074 132.953,340.653 135.491,340.313 138.032,340.048 140.572,339.866 143.118,339.761 145.646,339.734 148.186,339.783 150.743,339.909 153.284,340.117 155.839,340.4 158.382,340.767 160.912,341.208 163.386,341.718 165.815,342.303 168.289,342.976 170.758,343.727 173.171,344.54 175.526,345.409 177.909,346.356 180.286,347.341 182.614,348.346 184.982,349.388 187.385,350.422 189.789,351.416 192.207,352.365 194.699,353.26 197.18,354.072 199.631,354.793 202.169,355.464 204.685,356.059 207.175,356.575 209.71,357.034 212.251,357.427 214.803,357.767 217.345,358.07 219.885,358.379 222.438,358.748 225.04,359.242 227.649,359.903 230.137,360.738 232.456,361.741 234.595,362.901 236.568,364.219 238.399,365.695 240.12,367.357 241.71,369.178 243.212,371.187 244.645,373.438 245.921,375.768 247.059,378.037 248.17,380.227 249.363,382.359 250.677,384.395 252.124,386.332 253.711,388.176 255.433,389.915 257.302,391.549 259.338,393.084 261.502,394.471 263.792,395.723 266.193,396.81 268.691,397.736 271.22,398.482 273.802,399.068 276.388,399.483 279.022,399.765 281.642,399.923 284.314,400.009 286.951,400.011 289.558,399.915 292.158,399.738 294.778,399.479 297.384,399.141 300.004,398.723 302.565,398.239 305.134,397.679 307.669,397.047 310.165,396.366 312.674,395.618 315.13,394.822 317.588,393.992 320.042,393.103 322.468,392.179 324.875,391.236 327.243,390.259 329.627,389.256 331.994,388.258 334.363,387.251 336.75,386.224 339.143,385.201 341.534,384.193 343.926,383.179 346.324,382.181 348.748,381.207 351.187,380.249 353.631,379.334 356.09,378.472 358.529,377.64 361.03,376.859 363.524,376.108 365.974,375.426 368.47,374.791 371.0,374.183 373.512,373.641 376.04,373.126 378.54,372.685 381.052,372.258 383.586,371.891 386.128,371.575 388.668,371.298 391.2,371.072 393.771,370.894 396.311,370.753 398.856,370.661 401.42,370.588 404.012,370.546 406.586,370.485 409.201,370.422 411.798,370.33 414.436,370.202 417.046,370.034 419.636,369.824 422.257,369.562 424.845,369.254 427.418,368.896 429.987,368.492 432.498,368.049 435.019,367.553 437.508,367.018 440.011,366.428 442.511,365.798 445.005,365.111 447.41,364.41 449.851,363.637 452.302,362.816 454.713,361.962 457.069,361.065 459.454,360.111 461.868,359.091 464.209,358.057 466.464,356.992 468.778,355.857 471.12,354.666 473.41,353.452 475.636,352.236 477.916,350.971 480.233,349.685 482.495,348.436 484.743,347.195 487.048,345.951 489.373,344.721 491.67,343.551 493.969,342.409 496.323,341.306 498.697,340.24 501.09,339.218 503.461,338.259 505.839,337.35 508.279,336.473 510.714,335.652 513.178,334.874 515.687,334.132 518.142,333.458 520.636,332.827 523.153,332.249 525.651,331.718 528.218,331.23 530.765,330.793 533.276,330.419 535.839,330.067 538.443,329.779 541.017,329.525 543.606,329.348 546.178,329.197 548.718,329.103 551.315,329.072 553.915,329.074 556.516,329.121 559.102,329.22 561.674,329.347 564.259,329.535 566.842,329.766 569.401,330.045 571.944,330.375 574.498,330.748 577.053,331.164 579.611,331.625 582.173,332.118 584.682,332.625 587.218,333.131 589.771,333.628 592.322,334.091 594.903,334.476 597.537,334.745 600.22,334.855 602.848,334.78 605.361,334.511 607.754,334.064 610.043,333.455 612.278,332.685 614.51,331.73 616.735,330.579 618.926,329.232 621.049,327.7 623.083,326.008 625.001,324.2 626.779,322.367 628.516,320.548 630.242,318.791 632.023,317.121 633.919,315.519 635.902,314.006 637.945,312.611 640.097,311.297 642.387,310.061 644.746,308.946 647.151,307.964 649.611,307.112 652.127,306.382 654.666,305.786 657.215,305.327 659.826,304.984 662.454,304.772 665.06,304.674 667.658,304.692 670.196,304.804 672.678,305.021 675.143,305.321 677.597,305.718 680.016,306.209 682.453,306.803 684.918,307.498 687.399,308.286 689.872,309.148 692.306,310.077 694.728,311.071 697.095,312.126 699.412,313.224 701.737,314.385 704.056,315.586 706.353,316.817 708.633,318.083 710.897,319.383 713.138,320.707 715.383,322.026 717.655,323.344 719.914,324.622 722.201,325.841 724.502,327.031 726.821,328.172 729.178,329.268 731.564,330.288 733.958,331.272 736.353,332.195 738.784,333.052 741.222,333.867 743.706,334.633 746.21,335.335 748.672,335.993 751.176,336.578 753.691,337.125 756.21,337.598 758.737,338.027 761.298,338.39 763.854,338.71 766.381,338.958 768.941,339.162 771.528,339.292 774.082,339.374 776.66,339.397 779.247,339.368 781.824,339.289 784.394,339.165 786.981,338.983 789.585,338.754 792.141,338.488 794.716,338.176 797.298,337.814 799.879,337.423 802.453,336.969 804.997,336.508 807.59,335.971 810.17,335.431 812.64,334.855 815.186,334.239 817.735,333.574 820.218,332.909 822.733,332.211 825.248,331.474 827.729,330.743 830.201,329.952 832.687,329.123 835.129,328.291 837.571,327.41 840.065,326.475 842.519,325.547 844.923,324.578 847.35,323.571 849.746,322.549 852.104,321.512 854.452,320.425 856.797,319.323 859.132,318.2 861.451,317.034 863.759,315.844 866.048,314.616 868.331,313.369 870.584,312.095 872.812,310.796 875.063,309.445 877.277,308.091 879.437,306.721 881.615,305.309 883.779,303.874 885.933,302.402 888.076,300.912 890.171,299.43 892.212,297.932 894.27,296.375 896.364,294.756 898.464,293.102 900.492,291.463 902.457,289.84 904.395,288.207 906.318,286.531 908.301,284.782 910.249,283.031 912.156,281.266 914.035,279.487 915.876,277.702 917.722,275.871 919.552,274.006 921.382,272.128 923.167,270.22 924.948,268.292 926.704,266.357 928.393,264.409 930.071,262.458 931.759,260.434 933.412,258.4 935.027,256.355 936.655,254.272 938.25,252.18 939.835,250.103 941.371,248.056 942.946,245.977 944.535,243.848 946.111,241.756 947.69,239.639 949.26,237.522 950.812,235.413 952.336,233.29 953.804,231.137 955.198,228.906 956.509,226.581 957.676,224.184 958.666,221.707 959.416,219.224 959.865,216.825 960.0,214.495 959.797,212.204 959.254,209.992 958.376,207.933 957.182,206.04 955.701,204.34 953.936,202.871 951.94,201.677 949.753,200.804 947.372,200.247 944.826,199.989 942.197,199.989 939.55,200.196 936.981,200.556 934.476,201.029 931.907,201.607 929.387,202.231 926.859,202.866 924.345,203.494 921.838,204.125 919.374,204.724 916.845,205.345 914.364,205.932 911.805,206.534 909.308,207.127 906.705,207.728 904.2,208.318 901.722,208.888 899.187,209.467 896.667,210.052 894.091,210.637 891.524,211.216 888.998,211.77 886.533,212.341 883.974,212.893 881.39,213.463 878.892,214.025 876.332,214.611 873.774,215.157 871.286,215.756 868.777,216.319 866.22,216.891 863.705,217.496 861.171,218.097 858.641,218.672 856.101,219.299 853.541,219.904 851.023,220.526 848.52,221.144 846.001,221.774 843.469,222.414 841.007,223.056 838.439,223.718 835.905,224.365 833.434,225.019 830.963,225.633 828.399,226.31 825.916,226.944 823.318,227.532 820.879,228.246 818.417,228.909 815.884,229.606 813.353,230.319 810.94,231.017 808.445,231.73 805.855,232.435 803.446,233.328 801.224,234.043 798.534,235.141 796.118,235.84 793.697,236.545 791.051,237.323 788.621,238.043 786.188,238.769 783.528,239.568 781.086,240.304 778.64,241.045 776.19,241.79 774.853,242.198 770.993,243.189" fill="none" stroke="white" stroke-width="4"
            stroke-linejoin="round" stroke-linecap="round"/>
</svg>
