<?xml version="1.0" encoding="utf-8"?>
<svg xmlns="http://www.w3.org/2000/svg" width="1000" height="600">
  <polyline points="892.9,134.137 890.563,131.65 888.204,129.26 885.744,126.827 883.279,124.497 880.755,122.169 878.228,119.859 875.68,117.583 873.117,115.301 870.554,113.023 868.008,110.773 865.447,108.508 862.902,106.236 860.362,103.976 857.805,101.71 855.235,99.431 852.678,97.151 850.161,94.886 847.618,92.625 845.121,90.389 842.617,88.12 840.062,85.829 837.49,83.472 834.92,81.153 832.387,78.847 829.804,76.52 827.272,74.225 824.725,71.932 822.197,69.666 819.619,67.376 817.009,65.09 814.414,62.869 811.739,60.705 808.971,58.651 806.031,56.732 802.928,55.024 799.656,53.591 796.268,52.541 793.157,52.002 790.41,51.874 787.7,52.059 784.926,52.578 782.092,53.506 779.268,54.901 776.541,56.802 774.045,59.187 771.914,61.973 770.225,65.076 769.011,68.43 768.292,71.939 768.067,75.518 768.297,79.066 768.938,82.557 769.96,85.942 771.324,89.199 772.948,92.257 774.792,95.145 776.847,97.93 779.045,100.571 781.272,103.046 783.557,105.449 785.877,107.843 788.181,110.24 790.483,112.699 792.765,115.281 794.942,117.983 796.936,120.789 798.752,123.754 800.34,126.818 801.665,129.901 802.742,133.011 803.578,136.14 804.185,139.296 804.566,142.496 804.719,145.721 804.639,148.978 804.323,152.222 803.762,155.499 802.953,158.764 801.911,161.94 800.644,165.034 799.127,168.072 797.404,170.971 795.506,173.718 793.39,176.362 791.06,178.887 788.609,181.209 785.909,183.417 783.088,185.407 780.186,187.175 777.124,188.767 773.933,190.182 770.658,191.37 767.288,192.355 763.893,193.129 760.467,193.713 757.044,194.131 753.613,194.423 750.203,194.604 746.778,194.712 743.318,194.769 739.921,194.796 736.499,194.817 733.081,194.841 729.721,194.854 726.317,194.882 722.891,194.911 719.474,194.926 716.058,194.961 712.685,194.999 709.318,195.031 705.914,195.06 702.49,195.105 699.07,195.151 695.643,195.184 692.223,195.232 688.783,195.275 685.382,195.323 682.022,195.375 678.611,195.439 675.185,195.513 671.773,195.572 668.378,195.652 664.979,195.739 661.608,195.805 658.15,195.894 654.731,195.989 651.328,196.067 647.939,196.156 644.558,196.235 641.099,196.328 637.7,196.411 634.299,196.504 630.878,196.582 627.455,196.679 624.047,196.75 620.647,196.839 617.223,196.933 613.844,196.996 610.454,197.11 607.024,197.143 603.601,197.27 600.175,197.335 596.765,197.416 593.347,197.513 589.96,197.598 586.554,197.698 583.132,197.798 579.73,197.889 576.311,198.006 572.9,198.081 569.502,198.186 566.101,198.29 562.708,198.334 559.283,198.47 555.837,198.538 552.436,198.642 549.023,198.735 545.603,198.844 542.199,198.94 538.798,199.007 535.374,199.141 531.953,199.201 528.571,199.329 525.17,199.405 521.753,199.545 518.331,199.61 514.894,199.734 511.507,199.805 508.077,199.92 504.701,200.015 501.319,200.085 497.866,200.203 494.446,200.266 491.017,200.359 487.624,200.447 484.229,200.524 480.776,200.604 477.348,200.697 473.963,200.75 470.593,200.832 467.2,200.897 463.79,200.97 460.341,201.054 456.872,201.075 453.467,201.165 450.077,201.232 446.669,201.306 443.219,201.384 439.746,201.454 436.31,201.542 432.891,201.606 429.444,201.664 425.992,201.73 422.603,201.819 419.158,201.867 415.674,201.897 412.224,201.884 408.797,201.747 405.35,201.418 401.885,200.803 398.514,199.786 395.535,198.451 393.073,196.92 390.989,195.139 389.127,193.024 387.418,190.377 386.013,187.207 385.065,183.816 384.544,180.401 384.312,177.006 384.275,173.62 384.33,170.218 384.456,166.809 384.657,163.419 384.917,160.031 385.218,156.622 385.526,153.205 385.838,149.818 386.128,146.427 386.428,143.006 386.669,139.612 386.862,136.224 386.978,132.795 387.013,129.367 386.963,125.962 386.812,122.557 386.561,119.153 386.195,115.759 385.716,112.394 385.12,109.066 384.409,105.784 383.561,102.486 382.588,99.215 381.511,96.047 380.293,92.917 378.955,89.792 377.507,86.759 375.958,83.823 374.275,80.927 372.479,78.076 370.568,75.313 368.553,72.624 366.474,70.055 364.261,67.529 361.942,65.081 359.541,62.726 357.048,60.462 354.471,58.294 351.825,56.227 349.07,54.226 346.21,52.296 343.32,50.473 340.366,48.724 337.35,47.053 334.239,45.46 331.072,44.005 327.797,42.708 324.431,41.604 321.017,40.74 317.549,40.174 314.038,40.0 310.506,40.328 307.026,41.263 303.919,42.762 301.642,44.391 299.965,45.975 298.169,48.206 296.302,51.242 294.649,54.192 293.086,56.698 291.379,58.87 289.34,60.769 286.889,62.338 284.128,63.444 281.17,64.016 278.104,64.057 274.974,63.562 271.812,62.574 268.736,61.19 265.792,59.498 262.932,57.625 260.058,55.73 257.126,53.905 254.092,52.284 250.851,51.009 247.399,50.255 243.98,50.178 240.927,50.739 238.279,51.753 235.88,53.169 233.701,55.015 231.747,57.385 230.093,60.371 228.968,63.734 228.361,67.137 228.073,70.516 227.937,73.881 227.873,77.281 227.826,80.672 227.791,84.055 227.768,87.494 227.761,90.917 227.762,94.308 227.776,97.698 227.792,101.088 227.819,104.468 227.85,107.864 227.891,111.299 227.935,114.715 227.988,118.129 228.038,121.543 228.088,124.913 228.15,128.312 228.2,131.714 228.252,135.118 228.308,138.518 228.362,141.939 228.42,145.388 228.478,148.788 228.531,152.212 228.594,155.627 228.633,159.025 228.691,162.43 228.712,165.85 228.737,169.244 228.731,172.623 228.696,176.063 228.631,179.49 228.542,182.9 228.407,186.266 228.222,189.651 227.987,193.103 227.702,196.544 227.37,199.92 226.979,203.293 226.524,206.66 226.001,210.018 225.406,213.393 224.74,216.755 224.008,220.059 223.194,223.371 222.291,226.685 221.322,229.911 220.248,233.152 219.054,236.385 217.756,239.533 216.357,242.616 214.881,245.601 213.261,248.602 211.52,251.567 209.727,254.387 207.853,257.117 205.85,259.814 203.763,262.41 201.596,264.918 199.31,267.386 196.981,269.739 194.576,272.015 192.04,274.237 189.488,276.302 186.845,278.281 184.07,280.202 181.276,281.984 178.394,283.7 175.433,285.347 172.463,286.885 169.418,288.358 166.274,289.774 163.133,291.102 159.993,292.378 156.79,293.615 153.633,294.786 150.454,295.967 147.237,297.163 144.064,298.365 140.836,299.622 137.702,300.891 134.59,302.227 131.41,303.676 128.321,305.176 125.268,306.762 122.285,308.418 119.339,310.169 116.422,312.025 113.608,313.947 110.824,315.996 108.146,318.116 105.539,320.328 102.981,322.654 100.583,325.022 98.254,327.516 95.994,330.124 93.875,332.757 91.838,335.483 89.86,338.345 88.04,341.197 86.353,344.067 84.714,347.11 83.174,350.235 81.799,353.309 80.521,356.431 79.314,359.663 78.212,362.898 77.171,366.206 76.203,369.552 75.3,372.862 74.428,376.252 73.593,379.654 72.799,383.009 72.036,386.37 71.324,389.769 70.698,393.169 70.205,396.586 69.904,399.999 69.916,403.478 70.394,407.0 71.468,410.43 72.81,413.021 74.149,414.837 76.166,416.922 78.972,419.096 81.952,420.814 84.906,422.259 87.879,423.609 90.898,424.962 93.967,426.352 97.055,427.763 100.156,429.187 103.26,430.658 106.359,432.134 109.423,433.618 112.456,435.116 115.499,436.636 118.535,438.156 121.577,439.7 124.641,441.268 127.668,442.835 130.669,444.397 133.656,445.975 136.658,447.564 139.667,449.176 142.652,450.794 145.612,452.402 148.57,454.027 151.565,455.671 154.557,457.324 157.525,458.942 160.523,460.605 163.514,462.253 166.494,463.886 169.463,465.535 172.448,467.172 175.46,468.825 178.43,470.469 181.403,472.098 184.428,473.755 187.436,475.394 190.391,477.009 193.379,478.636 196.396,480.25 199.408,481.855 202.41,483.434 205.423,485.001 208.472,486.566 211.523,488.106 214.583,489.631 217.646,491.127 220.709,492.621 223.785,494.095 226.877,495.554 229.986,497.003 233.069,498.394 236.183,499.804 239.307,501.185 242.426,502.539 245.562,503.874 248.667,505.194 251.812,506.489 254.999,507.783 258.18,509.072 261.344,510.323 264.486,511.528 267.651,512.744 270.808,513.918 273.979,515.082 277.204,516.249 280.405,517.364 283.663,518.485 286.873,519.58 290.102,520.649 293.35,521.716 296.617,522.757 299.859,523.779 303.092,524.778 306.401,525.761 309.667,526.739 312.925,527.67 316.184,528.597 319.475,529.503 322.753,530.391 326.064,531.277 329.37,532.127 332.617,532.963 335.951,533.776 339.259,534.586 342.611,535.382 345.95,536.139 349.175,536.873 352.526,537.599 355.883,538.314 359.173,539.009 362.53,539.672 365.895,540.343 369.222,540.971 372.566,541.581 375.906,542.19 379.25,542.776 382.584,543.317 385.938,543.873 389.343,544.415 392.709,544.907 396.044,545.412 399.394,545.879 402.786,546.339 406.196,546.792 409.558,547.205 412.928,547.633 416.323,548.037 419.706,548.407 423.073,548.793 426.45,549.138 429.854,549.466 433.262,549.809 436.642,550.102 440.055,550.392 443.471,550.67 446.821,550.89 450.243,551.132 453.693,551.352 457.08,551.553 460.473,551.709 463.859,551.892 467.224,552.046 470.68,552.163 474.086,552.275 477.503,552.402 480.95,552.469 484.334,552.534 487.732,552.59 491.184,552.634 494.57,552.668 497.929,552.704 501.344,552.693 504.802,552.716 508.198,552.727 511.577,552.716 514.994,552.718 518.424,552.713 521.84,552.734 525.273,552.711 528.739,552.717 532.145,552.715 535.554,552.713 538.933,552.725 542.304,552.727 545.75,552.714 549.168,552.74 552.561,552.748 555.968,552.74 559.365,552.765 562.808,552.762 566.257,552.774 569.61,552.784 573.029,552.794 576.45,552.833 579.857,552.853 583.297,552.88 586.649,552.917 590.047,552.963 593.461,553.007 596.848,553.071 600.29,553.127 603.716,553.18 607.05,553.275 610.474,553.356 613.923,553.451 617.349,553.55 620.757,553.638 624.132,553.717 627.502,553.811 630.933,553.916 634.381,554.015 637.792,554.097 641.243,554.205 644.656,554.292 648.002,554.388 651.38,554.476 654.79,554.574 658.221,554.679 661.664,554.777 665.113,554.873 668.53,554.961 671.886,555.043 675.246,555.141 678.69,555.207 682.138,555.325 685.508,555.416 688.94,555.506 692.376,555.591 695.805,555.71 699.253,555.798 702.641,555.884 706.014,555.975 709.434,556.05 712.809,556.157 716.154,556.245 719.594,556.349 723.032,556.428 726.458,556.547 729.911,556.663 733.35,556.78 736.792,556.872 740.185,556.989 743.564,557.064 746.99,557.185 750.4,557.305 753.779,557.397 757.177,557.489 760.554,557.634 763.926,557.767 767.356,557.862 770.793,557.916 774.25,558.066 777.709,558.165 781.125,558.273 784.521,558.387 787.963,558.481 791.404,558.601 794.801,558.714 798.147,558.811 801.51,558.905 804.932,559.004 808.348,559.081 811.715,559.189 815.108,559.273 818.555,559.353 822.062,559.434 825.513,559.524 828.883,559.585 832.308,559.632 835.725,559.709 839.097,559.766 842.503,559.804 845.96,559.83 849.434,559.877 852.857,559.889 856.272,559.94 859.726,559.959 863.18,559.97 866.651,559.989 870.108,560.0 873.52,559.985 876.949,559.967 880.407,559.917 883.855,559.804 887.298,559.543 890.754,558.967 894.171,557.903 897.36,556.246 899.733,554.462 901.343,552.847 902.895,550.801 904.464,547.939 905.719,544.593 906.717,541.254 907.619,538.392 908.532,535.957 909.741,533.306 911.403,530.379 913.357,527.528 915.443,524.794 917.516,522.092 919.546,519.296 921.388,516.507 922.975,513.809 924.391,511.078 925.626,508.333 926.778,505.306 927.822,501.963 928.656,498.555 929.284,495.14 929.714,491.758 929.97,488.381 930.08,484.985 930.096,481.545 930.066,478.145 930.013,474.807 929.944,471.415 929.869,468.004 929.793,464.583 929.705,461.099 929.612,457.654 929.521,454.301 929.441,450.928 929.365,447.509 929.287,444.102 929.206,440.713 929.142,437.253 929.085,433.86 929.06,430.509 929.011,427.004 928.976,423.568 928.944,420.218 928.896,416.849 928.852,413.457 928.822,410.063 928.786,406.646 928.744,403.213 928.704,399.796 928.67,396.361 928.633,392.908 928.606,389.483 928.577,386.086 928.558,382.777 928.543,379.388 928.529,375.922 928.514,372.433 928.489,369.072 928.482,365.699 928.472,362.276 928.464,358.866 928.453,355.478 928.466,352.0 928.443,348.653 928.465,345.254 928.511,341.813 928.523,338.458 928.566,334.99 928.629,331.589 928.674,328.165 928.755,324.857 928.803,321.422 928.889,318.056 928.945,314.6 929.017,311.187 929.089,307.751 929.159,304.36 929.235,300.911 929.291,297.473 929.356,294.068 929.412,290.626 929.492,287.244 929.544,283.897 929.644,280.479 929.682,277.063 929.743,273.68 929.76,270.231 929.81,266.798 929.838,263.41 929.86,259.976 929.878,256.579 929.899,253.135 929.911,249.738 929.915,246.34 929.914,242.88 929.911,239.477 929.907,236.07 929.897,232.725 929.847,229.264 929.772,225.922 929.627,222.423 929.451,218.977 929.177,215.659 928.851,212.146 928.458,208.867 927.968,205.457 927.365,201.898 926.683,198.548 925.942,195.179 925.102,191.878 924.238,188.729 923.296,185.612 922.21,182.387 921.114,179.324 919.947,176.296 918.699,173.303 917.372,170.344 915.939,167.279 914.46,164.393 912.905,161.541 911.261,158.591 909.57,155.817 907.747,152.956 905.858,150.143 904.004,147.479 902.224,144.996 900.063,141.864 897.73,139.024 896.339,137.393 892.9,134.137" fill="none" stroke="white" stroke-width="4"
            stroke-linejoin="round" stroke-linecap="round"/>
  <line x1="907.475" y1="120.441" x2="878.325" y2="147.833" stroke="red" stroke-width="3" stroke-linecap="round"/>
</svg>
