<?xml version="1.0" encoding="utf-8"?>
<svg xmlns="http://www.w3.org/2000/svg" width="1000" height="600">
  <polyline points="666.98,413.883 664.505,415.258 662.024,416.634 659.548,418.002 657.092,419.362 654.641,420.715 652.161,422.08 649.683,423.456 647.228,424.826 644.772,426.206 642.324,427.582 639.88,428.942 637.422,430.317 634.947,431.698 632.47,433.057 630.01,434.427 627.573,435.784 625.111,437.137 622.601,438.523 620.111,439.898 617.659,441.262 615.199,442.619 612.73,443.994 610.234,445.383 607.79,446.725 605.358,448.092 602.854,449.478 600.374,450.855 597.889,452.229 595.412,453.596 592.991,454.964 590.539,456.308 588.061,457.701 585.577,459.058 583.108,460.444 580.635,461.83 578.218,463.168 575.786,464.519 573.272,465.901 570.78,467.294 568.299,468.676 565.846,470.052 563.396,471.385 560.93,472.775 558.442,474.163 555.951,475.546 553.504,476.887 551.085,478.251 548.591,479.633 546.089,481.034 543.603,482.412 541.176,483.774 538.761,485.133 536.304,486.504 533.832,487.882 531.365,489.273 528.886,490.668 526.414,492.051 523.976,493.441 521.507,494.862 519.05,496.256 516.635,497.631 514.175,499.05 511.699,500.473 509.253,501.867 506.851,503.24 504.404,504.641 501.92,506.06 499.485,507.451 497.061,508.828 494.6,510.235 492.133,511.635 489.665,513.061 487.187,514.468 484.757,515.845 482.321,517.244 479.885,518.649 477.425,520.034 474.96,521.438 472.506,522.834 470.057,524.248 467.604,525.648 465.173,527.025 462.706,528.433 460.217,529.864 457.782,531.241 455.384,532.621 452.921,534.015 450.431,535.442 447.966,536.831 445.537,538.213 443.118,539.601 440.639,540.99 438.185,542.369 435.754,543.736 433.237,545.155 430.741,546.54 428.28,547.926 425.779,549.297 423.311,550.655 420.825,551.978 418.283,553.327 415.698,554.608 413.105,555.817 410.433,556.926 407.732,557.911 404.954,558.74 402.142,559.374 399.366,559.807 396.565,560.0 393.81,559.951 391.154,559.673 388.598,559.174 386.091,558.419 383.673,557.453 381.375,556.263 379.215,554.901 377.209,553.345 375.311,551.576 373.601,549.671 372.066,547.571 370.732,545.375 369.613,543.023 368.69,540.539 368.018,538.004 367.573,535.334 367.367,532.577 367.423,529.776 367.734,526.953 368.298,524.069 369.118,521.223 370.128,518.52 371.292,515.956 372.622,513.465 374.053,511.018 375.609,508.634 377.233,506.349 378.949,504.104 380.746,501.865 382.591,499.676 384.414,497.563 386.308,495.377 388.158,493.258 390.012,491.045 391.806,488.867 393.563,486.624 395.286,484.347 396.941,482.064 398.519,479.773 400.071,477.385 401.528,474.952 402.893,472.49 404.169,469.872 405.281,467.268 406.248,464.537 407.019,461.675 407.534,458.889 407.79,456.105 407.784,453.367 407.519,450.698 407.036,448.11 406.325,445.582 405.386,443.134 404.273,440.827 402.918,438.595 401.403,436.512 399.695,434.581 397.8,432.759 395.724,431.09 393.533,429.613 391.12,428.272 388.531,427.113 385.855,426.152 383.064,425.381 380.223,424.791 377.417,424.374 374.578,424.086 371.773,423.93 368.949,423.855 366.116,423.885 363.314,424.002 360.538,424.153 357.721,424.351 354.886,424.568 352.026,424.792 349.248,425.036 346.431,425.236 343.631,425.434 340.832,425.564 338.02,425.65 335.159,425.647 332.374,425.561 329.605,425.376 326.872,425.08 324.19,424.679 321.547,424.174 318.982,423.58 316.404,422.862 313.911,422.052 311.351,421.11 308.842,420.078 306.38,418.935 303.825,417.62 301.303,416.204 298.878,414.706 296.506,413.133 294.183,411.473 291.967,409.777 289.746,408.008 287.589,406.198 285.464,404.365 283.349,402.496 281.23,400.62 279.139,398.717 277.031,396.851 274.966,394.935 272.882,393.053 270.811,391.146 268.7,389.232 266.633,387.334 264.588,385.465 262.493,383.565 260.352,381.642 258.242,379.734 256.151,377.831 254.071,375.966 251.984,374.085 249.895,372.214 247.822,370.356 245.718,368.478 243.628,366.599 241.481,364.691 239.338,362.806 237.25,360.939 235.148,359.084 233.042,357.218 230.931,355.359 228.81,353.467 226.691,351.6 224.579,349.732 222.468,347.866 220.374,345.995 218.267,344.117 216.164,342.214 214.043,340.276 211.938,338.31 209.911,336.328 207.912,334.277 206.0,332.147 204.191,329.924 202.513,327.626 200.959,325.214 199.583,322.736 198.395,320.227 197.432,317.727 196.671,315.218 196.082,312.677 195.708,310.156 195.498,307.575 195.503,304.974 195.681,302.373 196.068,299.765 196.674,297.084 197.497,294.416 198.535,291.749 199.776,289.149 201.194,286.667 202.758,284.253 204.438,281.945 206.197,279.747 208.03,277.593 209.957,275.52 211.964,273.489 214.043,271.567 216.238,269.731 218.582,267.996 221.019,266.425 223.561,265.03 226.105,263.864 228.644,262.919 231.189,262.19 233.746,261.653 236.313,261.313 238.838,261.173 241.406,261.204 243.978,261.427 246.583,261.85 249.196,262.469 251.779,263.267 254.413,264.297 257.013,265.511 259.534,266.856 262.007,268.37 264.395,269.966 266.706,271.648 268.905,273.393 271.073,275.204 273.183,277.083 275.22,278.994 277.188,280.951 279.183,282.995 281.083,285.068 283.008,287.178 284.869,289.288 286.749,291.429 288.614,293.585 290.44,295.7 292.313,297.873 294.201,300.04 296.079,302.187 297.978,304.313 299.931,306.451 301.891,308.529 303.892,310.563 305.915,312.549 307.987,314.525 310.072,316.426 312.215,318.256 314.458,320.022 316.813,321.693 319.276,323.205 321.87,324.505 324.554,325.466 327.169,325.964 329.709,326.003 332.126,325.591 334.384,324.77 336.447,323.574 338.224,322.059 339.736,320.24 340.969,318.114 341.846,315.714 342.326,313.031 342.425,310.164 342.193,307.26 341.716,304.396 341.065,301.67 340.256,298.954 339.345,296.296 338.363,293.645 337.338,291.029 336.277,288.412 335.184,285.854 334.057,283.265 332.88,280.649 331.681,278.133 330.473,275.603 329.226,273.072 327.973,270.583 326.672,268.052 325.372,265.528 324.065,262.993 322.771,260.496 321.464,257.96 320.143,255.435 318.881,252.936 317.582,250.409 316.307,247.845 315.063,245.338 313.858,242.796 312.639,240.204 311.457,237.628 310.319,235.065 309.166,232.48 308.051,229.856 306.98,227.319 305.903,224.727 304.816,222.083 303.793,219.515 302.759,216.885 301.754,214.212 300.807,211.53 299.922,208.776 299.156,206.028 298.524,203.277 298.017,200.379 297.706,197.488 297.603,194.682 297.715,191.901 298.057,189.249 298.653,186.625 299.505,184.085 300.589,181.689 301.902,179.411 303.421,177.3 305.142,175.359 307.04,173.598 309.105,172.038 311.328,170.7 313.658,169.582 316.083,168.705 318.602,168.075 321.222,167.687 323.86,167.584 326.503,167.719 329.151,168.103 331.822,168.756 334.487,169.662 337.018,170.804 339.569,172.196 342.019,173.822 344.297,175.582 346.433,177.449 348.468,179.386 350.41,181.345 352.314,183.335 354.24,185.301 356.2,187.25 358.156,189.14 360.216,191.025 362.315,192.831 364.437,194.576 366.623,196.245 368.9,197.876 371.171,199.418 373.491,200.858 375.866,202.263 378.333,203.599 380.804,204.855 383.298,206.021 385.86,207.129 388.467,208.169 391.095,209.129 393.651,209.996 396.31,210.837 398.953,211.633 401.522,212.413 404.216,213.19 406.826,214.008 409.539,214.901 412.227,215.893 414.914,217.034 417.554,218.326 419.96,219.672 422.19,221.079 424.387,222.627 426.443,224.258 428.324,225.928 430.143,227.719 431.891,229.677 433.555,231.724 435.115,233.945 436.657,236.436 437.994,238.911 439.216,241.514 440.279,244.142 441.212,246.874 441.979,249.58 442.636,252.362 443.141,255.071 443.563,257.855 443.892,260.687 444.169,263.555 444.385,266.377 444.624,269.253 444.888,272.088 445.216,274.986 445.634,277.751 446.149,280.602 446.793,283.37 447.533,286.065 448.464,288.809 449.553,291.442 450.858,294.02 452.411,296.506 454.174,298.707 456.082,300.614 458.172,302.246 460.285,303.584 462.615,304.71 464.992,305.558 467.341,306.137 469.873,306.482 472.456,306.554 475.049,306.357 477.741,305.851 480.48,305.07 483.164,304.02 485.75,302.725 488.261,301.238 490.608,299.606 492.83,297.846 494.99,295.913 497.042,293.887 498.967,291.795 500.841,289.58 502.65,287.259 504.296,285.026 505.946,282.643 507.516,280.243 509.026,277.807 510.438,275.372 511.822,272.876 513.132,270.376 514.433,267.756 515.618,265.229 516.781,262.63 517.899,259.976 518.944,257.408 519.936,254.775 520.889,252.104 521.784,249.475 522.651,246.761 523.468,244.04 524.209,241.401 524.948,238.686 525.631,235.934 526.238,233.299 526.84,230.493 527.362,227.847 527.865,225.075 528.32,222.312 528.728,219.607 529.077,216.829 529.403,214.117 529.683,211.285 529.937,208.413 530.123,205.694 530.263,202.919 530.389,200.188 530.468,197.454 530.496,194.559 530.471,191.748 530.426,188.952 530.298,186.257 530.2,183.451 529.992,180.528 529.764,177.748 529.523,174.907 529.202,172.114 528.878,169.336 528.503,166.557 528.139,163.807 527.695,161.041 527.264,158.167 526.785,155.322 526.304,152.556 525.848,149.762 525.361,147.056 524.9,144.287 524.409,141.43 523.943,138.693 523.488,135.842 523.085,133.148 522.656,130.289 522.246,127.566 521.885,124.793 521.507,121.938 521.192,119.106 520.917,116.371 520.697,113.525 520.518,110.706 520.459,107.867 520.489,104.895 520.622,102.052 520.888,99.2 521.253,96.407 521.74,93.689 522.333,91.04 523.054,88.378 523.869,85.819 524.741,83.428 525.811,80.87 526.895,78.572 528.201,76.112 529.57,73.802 531.021,71.593 532.642,69.357 534.326,67.236 536.203,65.081 538.117,63.07 540.237,61.04 542.398,59.138 544.622,57.348 546.858,55.699 549.214,54.099 551.627,52.574 554.135,51.097 556.582,49.709 559.001,48.399 561.518,47.098 564.046,45.877 566.694,44.709 569.302,43.673 572.115,42.705 574.771,41.916 577.618,41.221 580.407,40.689 583.081,40.319 585.7,40.093 588.21,40.0 590.773,40.022 593.36,40.172 596.007,40.461 598.613,40.88 601.387,41.473 604.142,42.211 606.83,43.075 609.598,44.115 612.195,45.228 614.724,46.446 617.193,47.768 619.69,49.196 622.066,50.656 624.468,52.158 626.871,53.677 629.243,55.153 631.629,56.653 634.043,58.165 636.439,59.685 638.746,61.173 641.158,62.791 643.503,64.457 645.757,66.199 647.932,68.027 649.984,69.924 652.081,72.065 653.911,74.147 655.654,76.362 657.241,78.641 658.624,80.881 659.864,83.17 660.935,85.423 661.915,87.811 662.752,90.254 663.476,92.833 664.059,95.46 664.494,98.24 664.777,101.087 664.901,104.02 664.876,106.889 664.719,109.75 664.431,112.628 664.07,115.394 663.609,118.182 663.043,121.068 662.42,123.79 661.749,126.524 661.01,129.285 660.241,131.959 659.414,134.721 658.613,137.342 657.77,140.111 656.996,142.674 656.104,145.584 655.324,148.192 654.474,150.937 653.684,153.605 652.844,156.314 652.053,158.996 651.242,161.74 650.455,164.505 649.711,167.214 648.998,169.888 648.328,172.594 647.653,175.423 647.039,178.224 646.481,180.944 645.992,183.597 645.554,186.399 645.198,189.333 644.969,192.219 644.881,195.076 644.943,197.978 645.183,200.936 645.572,203.666 646.124,206.356 646.805,208.881 647.629,211.333 648.585,213.692 649.701,216.027 650.965,218.296 652.363,220.482 654.0,222.719 655.71,224.794 657.718,226.941 659.803,228.9 662.034,230.771 664.302,232.495 666.715,234.129 669.028,235.584 671.514,237.034 673.938,238.337 676.511,239.665 679.068,240.936 681.562,242.16 684.065,243.348 686.678,244.573 689.253,245.724 691.796,246.885 694.283,248.016 696.977,249.192 699.479,250.316 702.159,251.488 704.694,252.64 707.36,253.788 709.865,254.932 712.47,256.063 715.048,257.212 717.6,258.332 720.208,259.504 722.772,260.633 725.334,261.76 727.927,262.921 730.547,264.063 733.13,265.207 735.692,266.358 738.269,267.494 740.803,268.605 743.426,269.8 746.025,270.961 748.628,272.152 751.165,273.311 753.765,274.517 756.268,275.708 758.77,276.882 761.344,278.114 763.869,279.322 766.424,280.549 768.964,281.799 771.524,283.048 774.069,284.307 776.622,285.589 779.152,286.883 781.682,288.211 784.151,289.574 786.61,291.034 789.016,292.599 791.359,294.308 793.595,296.16 795.633,298.107 797.577,300.279 799.255,302.498 800.683,304.776 801.916,307.214 802.861,309.596 803.601,312.065 804.138,314.706 804.423,317.199 804.502,319.793 804.357,322.318 803.985,324.907 803.371,327.486 802.564,329.945 801.484,332.492 800.181,334.895 798.619,337.23 796.836,339.438 794.841,341.512 792.648,343.494 790.446,345.267 788.147,346.934 785.698,348.543 783.303,349.985 780.939,351.337 778.394,352.72 775.927,354.058 773.54,355.327 771.02,356.666 768.539,357.972 765.98,359.328 763.474,360.658 760.998,361.973 758.422,363.382 756.057,364.637 753.671,365.978 751.124,367.319 748.603,368.733 746.128,370.032 743.616,371.452 741.114,372.815 738.857,374.093 736.416,375.427 733.875,376.846 731.417,378.209 728.939,379.501 726.473,380.87 723.893,382.272 721.442,383.671 719.017,384.966 716.516,386.379 714.059,387.739 711.603,389.109 709.133,390.491 706.764,391.829 704.322,393.18 701.775,394.621 699.288,395.898 696.897,397.25 694.341,398.663 691.949,399.979 689.416,401.364 686.839,402.771 684.451,404.168 682.058,405.529 679.398,406.961 677.315,408.174 674.675,409.763 671.96,411.271 670.622,412.015 666.98,413.883" fill="none" stroke="white" stroke-width="4"
            stroke-linejoin="round" stroke-linecap="round"/>
</svg>
