<?xml version="1.0" encoding="utf-8"?>
<svg xmlns="http://www.w3.org/2000/svg" width="1000" height="600">
  <polyline points="662.101,340.711 660.488,342.411 658.894,344.118 657.306,345.802 655.705,347.498 654.112,349.2 652.527,350.902 650.957,352.571 649.347,354.274 647.734,356.005 646.162,357.687 644.561,359.403 642.947,361.098 641.383,362.793 639.759,364.505 638.14,366.221 636.571,367.885 634.98,369.573 633.335,371.33 631.741,373.032 630.176,374.669 628.567,376.401 626.932,378.12 625.325,379.801 623.76,381.482 622.154,383.193 620.573,384.894 618.964,386.583 617.374,388.294 615.779,389.992 614.165,391.725 612.577,393.415 610.999,395.108 609.39,396.822 607.809,398.528 606.229,400.212 604.643,401.906 603.058,403.614 601.43,405.36 599.861,407.043 598.301,408.726 596.672,410.469 595.065,412.184 593.476,413.899 591.882,415.615 590.301,417.309 588.677,419.061 587.065,420.78 585.473,422.451 583.846,424.138 582.174,425.812 580.451,427.461 578.662,429.009 576.776,430.434 574.75,431.737 572.552,432.886 570.333,433.803 568.453,434.406 566.973,434.778 565.476,435.037 563.436,435.228 560.928,435.241 558.445,435.062 556.095,434.736 553.872,434.311 551.668,433.823 549.554,433.32 547.448,432.842 545.292,432.418 543.11,432.091 540.934,431.874 538.741,431.762 536.497,431.76 534.245,431.869 532.063,432.085 529.855,432.419 527.595,432.881 525.374,433.46 523.202,434.148 521.066,434.945 518.99,435.838 516.928,436.847 514.886,437.967 512.896,439.191 510.93,440.533 509.012,441.97 507.189,443.467 505.435,445.027 503.758,446.639 502.117,448.328 500.521,450.069 498.99,451.828 497.487,453.59 495.986,455.382 494.494,457.187 493.009,458.959 491.522,460.761 490.022,462.522 488.516,464.295 486.981,466.052 485.455,467.774 483.906,469.505 482.325,471.236 480.751,472.925 479.166,474.616 477.539,476.314 475.919,477.976 474.292,479.62 472.642,481.268 471.0,482.896 469.341,484.519 467.663,486.153 465.968,487.769 464.291,489.369 462.605,490.958 460.91,492.549 459.211,494.132 457.494,495.725 455.765,497.316 454.041,498.892 452.333,500.43 450.636,501.955 448.896,503.507 447.128,505.064 445.36,506.611 443.6,508.141 441.823,509.659 440.045,511.167 438.262,512.674 436.47,514.163 434.696,515.64 432.881,517.131 431.073,518.594 429.284,520.048 427.459,521.501 425.625,522.948 423.791,524.4 421.924,525.837 420.077,527.267 418.225,528.676 416.354,530.083 414.505,531.485 412.621,532.869 410.711,534.279 408.813,535.656 406.954,536.985 405.045,538.336 403.106,539.679 401.189,540.995 399.229,542.329 397.251,543.636 395.271,544.923 393.28,546.196 391.294,547.457 389.264,548.712 387.252,549.944 385.243,551.151 383.215,552.348 381.169,553.526 379.101,554.694 377.027,555.826 374.942,556.92 372.826,557.934 370.631,558.814 368.313,559.517 365.863,559.948 363.428,560.0 361.324,559.712 359.706,559.251 358.33,558.682 356.935,557.924 355.313,556.741 353.611,555.047 352.179,553.071 351.098,550.929 350.347,548.685 349.874,546.397 349.62,544.068 349.53,541.722 349.527,539.354 349.524,536.992 349.449,534.63 349.236,532.307 348.851,530.002 348.27,527.721 347.478,525.488 346.454,523.316 345.246,521.314 343.919,519.543 342.519,517.996 341.024,516.627 339.4,515.398 337.62,514.29 335.671,513.312 333.503,512.474 331.138,511.808 328.776,511.368 326.429,511.124 324.069,511.038 321.739,511.073 319.433,511.195 317.123,511.404 314.813,511.685 312.501,512.032 310.206,512.435 307.908,512.889 305.58,513.371 303.238,513.861 300.936,514.336 298.654,514.783 296.358,515.203 294.03,515.567 291.719,515.872 289.396,516.114 287.07,516.286 284.746,516.378 282.412,516.377 280.074,516.274 277.721,516.058 275.372,515.721 273.036,515.258 270.777,514.683 268.683,514.027 266.693,513.29 264.73,512.447 262.809,511.506 260.898,510.448 258.974,509.241 257.034,507.888 255.129,506.397 253.329,504.83 251.626,503.188 250.017,501.481 248.517,499.736 247.053,497.9 245.64,496.033 244.277,494.163 242.91,492.236 241.596,490.335 240.29,488.4 239.007,486.442 237.769,484.488 236.526,482.493 235.321,480.475 234.128,478.426 232.978,476.362 231.875,474.341 230.781,472.264 229.697,470.149 228.641,468.072 227.625,466.035 226.624,463.99 225.625,461.933 224.636,459.859 223.654,457.76 222.684,455.658 221.725,453.541 220.779,451.433 219.829,449.329 218.871,447.196 217.915,445.057 216.963,442.932 216.003,440.818 215.025,438.707 214.038,436.58 213.033,434.457 212.022,432.358 210.981,430.244 209.923,428.148 208.856,426.063 207.771,423.981 206.678,421.922 205.59,419.881 204.501,417.861 203.397,415.817 202.271,413.754 201.151,411.706 200.043,409.672 198.939,407.633 197.849,405.574 196.795,403.477 195.812,401.32 194.945,399.093 194.226,396.821 193.664,394.469 193.279,392.084 193.084,389.842 193.039,387.876 193.104,386.168 193.271,384.486 193.572,382.534 194.06,380.211 194.741,377.707 195.555,375.295 196.441,373.085 197.39,371.019 198.409,369.022 199.492,367.05 200.594,365.079 201.673,363.119 202.693,361.177 203.657,359.184 204.579,357.133 205.434,355.023 206.226,352.871 206.951,350.698 207.623,348.48 208.23,346.185 208.773,343.868 209.24,341.579 209.662,339.265 210.028,336.973 210.391,334.714 210.753,332.458 211.16,330.216 211.601,327.982 212.089,325.774 212.644,323.583 213.269,321.384 213.953,319.212 214.702,317.075 215.522,314.958 216.413,312.863 217.372,310.803 218.38,308.805 219.477,306.799 220.65,304.821 221.888,302.887 223.182,300.996 224.521,299.169 225.917,297.392 227.359,295.673 228.873,293.981 230.466,292.313 232.099,290.708 233.779,289.159 235.523,287.644 237.303,286.195 239.13,284.801 241.001,283.454 242.889,282.183 244.817,280.965 246.784,279.8 248.808,278.683 250.862,277.61 252.94,276.597 255.049,275.64 257.196,274.724 259.422,273.846 261.659,273.009 263.892,272.246 266.133,271.519 268.364,270.855 270.601,270.234 272.855,269.659 275.112,269.117 277.37,268.606 279.649,268.112 281.945,267.639 284.249,267.189 286.565,266.774 288.867,266.387 291.167,266.036 293.498,265.712 295.828,265.429 298.152,265.177 300.486,264.968 302.825,264.787 305.183,264.654 307.524,264.56 309.882,264.508 312.199,264.485 314.482,264.506 316.79,264.546 319.128,264.635 321.478,264.765 323.793,264.923 326.046,265.11 328.342,265.324 330.691,265.597 332.944,265.877 335.184,266.186 337.487,266.576 339.738,266.992 341.977,267.413 344.255,267.905 346.481,268.454 348.704,269.024 350.945,269.637 353.131,270.311 355.335,271.019 357.545,271.736 359.692,272.526 361.9,273.338 364.096,274.139 366.207,274.992 368.38,275.838 370.602,276.71 372.708,277.576 374.871,278.424 377.094,279.301 379.215,280.152 381.402,280.979 383.562,281.83 385.736,282.615 387.97,283.434 390.162,284.214 392.405,284.947 394.619,285.692 396.851,286.376 399.145,287.06 401.339,287.71 403.593,288.321 405.867,288.929 408.153,289.479 410.417,290.046 412.682,290.536 414.936,291.048 417.192,291.475 419.472,291.935 421.735,292.326 424.055,292.72 426.353,293.072 428.621,293.391 430.939,293.687 433.226,293.933 435.515,294.165 437.799,294.341 440.105,294.501 442.43,294.611 444.704,294.692 447.017,294.735 449.333,294.737 451.644,294.708 453.946,294.633 456.233,294.523 458.527,294.375 460.822,294.188 463.109,293.94 465.394,293.681 467.663,293.365 469.932,292.993 472.189,292.615 474.486,292.166 476.731,291.683 478.988,291.162 481.228,290.596 483.452,289.999 485.672,289.363 487.861,288.676 490.044,287.972 492.232,287.203 494.39,286.423 496.552,285.587 498.675,284.716 500.801,283.826 502.884,282.885 504.98,281.927 507.071,280.907 509.148,279.884 511.21,278.803 513.238,277.714 515.275,276.558 517.268,275.404 519.235,274.2 521.206,272.979 523.129,271.707 525.071,270.418 526.964,269.074 528.844,267.742 530.701,266.343 532.54,264.954 534.391,263.486 536.199,262.002 537.997,260.487 539.728,258.965 541.454,257.426 543.182,255.82 544.877,254.217 546.555,252.59 548.208,250.908 549.869,249.213 551.464,247.524 553.046,245.824 554.633,244.074 556.172,242.331 557.706,240.582 559.23,238.824 560.73,237.061 562.258,235.267 563.761,233.489 565.278,231.719 566.775,229.917 568.282,228.122 569.792,226.302 571.27,224.484 572.71,222.648 574.109,220.728 575.431,218.769 576.64,216.743 577.773,214.618 578.768,212.446 579.595,210.301 580.269,208.247 580.796,206.21 581.222,204.144 581.531,202.017 581.72,199.773 581.782,197.459 581.709,195.151 581.517,192.833 581.189,190.535 580.764,188.245 580.279,185.956 579.797,183.671 579.358,181.363 579.017,179.052 578.778,176.723 578.664,174.376 578.676,172.021 578.818,169.666 579.096,167.344 579.494,165.127 579.99,163.066 580.612,161.015 581.41,158.83 582.359,156.595 583.398,154.447 584.528,152.371 585.775,150.332 587.058,148.424 588.378,146.618 589.799,144.815 591.317,142.987 592.881,141.166 594.453,139.367 595.995,137.621 597.535,135.873 599.083,134.132 600.605,132.387 602.181,130.606 603.73,128.852 605.253,127.105 606.81,125.351 608.348,123.57 609.906,121.818 611.418,120.09 612.958,118.343 614.511,116.58 616.032,114.855 617.568,113.13 619.125,111.364 620.704,109.62 622.269,107.909 623.861,106.209 625.471,104.515 627.109,102.839 628.776,101.168 630.47,99.515 632.159,97.916 633.863,96.341 635.579,94.819 637.306,93.334 639.076,91.835 640.866,90.385 642.627,88.97 644.453,87.567 646.311,86.157 648.179,84.835 650.048,83.55 651.933,82.276 653.875,81.068 655.822,79.881 657.811,78.706 659.843,77.58 661.864,76.5 663.914,75.438 665.986,74.41 668.065,73.419 670.192,72.433 672.331,71.488 674.455,70.563 676.616,69.688 678.796,68.812 680.976,67.956 683.15,67.149 685.343,66.339 687.537,65.558 689.726,64.789 691.949,64.032 694.179,63.286 696.4,62.53 698.562,61.831 700.783,61.094 703.053,60.335 705.242,59.655 707.46,58.912 709.685,58.197 711.916,57.479 714.101,56.778 716.323,56.062 718.589,55.334 720.77,54.625 723.032,53.9 725.234,53.189 727.462,52.478 729.694,51.754 731.911,51.043 734.112,50.334 736.336,49.617 738.574,48.899 740.775,48.194 743.051,47.463 745.319,46.735 747.569,46.016 749.822,45.303 752.064,44.598 754.316,43.901 756.593,43.219 758.885,42.565 761.189,41.949 763.504,41.386 765.823,40.89 768.161,40.473 770.502,40.158 772.873,40.0 775.269,40.035 777.725,40.342 780.188,41.001 782.094,41.797 783.282,42.457 784.411,43.232 786.004,44.609 787.736,46.522 789.129,48.562 790.237,50.646 791.173,52.785 791.987,54.992 792.694,57.219 793.311,59.457 793.849,61.699 794.331,63.987 794.763,66.27 795.175,68.576 795.591,70.881 796.033,73.157 796.534,75.436 797.067,77.684 797.632,79.938 798.229,82.161 798.839,84.374 799.489,86.633 800.149,88.863 800.809,91.052 801.488,93.295 802.179,95.541 802.854,97.715 803.532,99.919 804.21,102.14 804.869,104.367 805.487,106.623 806.033,108.921 806.472,111.251 806.784,113.632 806.949,116.009 806.961,118.3 806.823,120.559 806.54,122.791 806.129,124.931 805.576,127.057 804.895,129.123 804.1,131.103 803.172,133.049 802.084,135.0 800.856,136.898 799.507,138.713 797.976,140.51 796.318,142.233 794.564,143.844 792.728,145.371 790.862,146.773 788.943,148.085 786.956,149.334 784.934,150.504 782.876,151.603 780.78,152.628 778.627,153.578 776.439,154.47 774.258,155.322 772.08,156.171 769.874,157.042 767.668,157.93 765.521,158.824 763.379,159.769 761.233,160.768 759.075,161.823 756.951,162.926 754.874,164.074 752.832,165.27 750.825,166.519 748.845,167.84 746.959,169.239 745.141,170.784 743.436,172.52 741.967,174.427 740.782,176.573 740.092,178.523 739.81,179.972 739.708,181.367 739.81,183.112 740.321,185.341 741.316,187.64 742.663,189.621 744.311,191.306 746.206,192.691 748.284,193.861 750.449,194.916 752.594,195.976 754.675,197.124 756.644,198.422 758.472,199.872 760.153,201.477 761.712,203.264 763.102,205.18 764.299,207.177 765.304,209.234 766.119,211.33 766.752,213.446 767.2,215.526 767.49,217.646 767.622,219.773 767.605,221.897 767.444,224.016 767.142,226.157 766.682,228.361 766.069,230.559 765.306,232.734 764.367,234.941 763.277,237.089 762.053,239.172 760.735,241.154 759.307,243.058 757.797,244.867 756.245,246.586 754.642,248.24 752.988,249.916 751.357,251.557 749.708,253.201 748.04,254.838 746.346,256.488 744.696,258.086 743.049,259.698 741.362,261.305 739.68,262.965 738.007,264.615 736.344,266.235 734.71,267.92 733.071,269.549 731.463,271.243 729.81,272.877 728.116,274.455 726.362,276.022 724.63,277.544 722.882,279.129 721.138,280.699 719.364,282.257 717.632,283.801 715.895,285.352 714.212,286.913 712.505,288.512 710.812,290.137 709.158,291.771 707.51,293.422 705.836,295.117 704.208,296.778 702.552,298.48 700.943,300.133 699.31,301.808 697.729,303.446 696.108,305.125 694.456,306.843 692.796,308.566 691.272,310.185 689.663,311.88 688.068,313.529 686.496,315.153 684.833,316.837 683.23,318.472 681.533,320.238 679.818,321.994 678.218,323.662 676.8,325.264 675.156,327.04 673.529,328.753 671.9,330.469 670.458,332.049 668.936,333.831 667.353,335.498 665.607,337.336 664.494,338.508 662.101,340.711" fill="none" stroke="white" stroke-width="4"
            stroke-linejoin="round" stroke-linecap="round"/>
</svg>
