<?xml version="1.0" encoding="utf-8"?>
<svg xmlns="http://www.w3.org/2000/svg" width="1000" height="600">
  <polyline points="317.095,486.247 317.363,484.359 317.646,482.471 317.917,480.575 318.214,478.669 318.497,476.803 318.794,474.929 319.096,473.035 319.388,471.144 319.696,469.232 320.001,467.325 320.307,465.439 320.605,463.533 320.927,461.614 321.213,459.742 321.539,457.849 321.844,455.926 322.159,454.026 322.458,452.13 322.761,450.237 323.081,448.342 323.369,446.443 323.667,444.541 323.981,442.639 324.276,440.745 324.569,438.847 324.881,436.927 325.169,435.019 325.477,433.13 325.76,431.244 326.071,429.327 326.37,427.406 326.66,425.523 326.955,423.649 327.242,421.756 327.545,419.813 327.834,417.881 328.124,416.001 328.41,414.117 328.69,412.217 328.975,410.315 329.258,408.411 329.537,406.511 329.824,404.609 330.099,402.714 330.374,400.816 330.663,398.884 330.941,396.957 331.209,395.059 331.485,393.16 331.761,391.259 332.025,389.364 332.3,387.458 332.57,385.548 332.851,383.648 333.115,381.755 333.387,379.861 333.654,377.953 333.923,376.043 334.195,374.142 334.462,372.228 334.735,370.291 335.008,368.373 335.274,366.476 335.539,364.578 335.804,362.677 336.069,360.775 336.332,358.871 336.596,356.966 336.859,355.059 337.117,353.162 337.383,351.253 337.647,349.331 337.909,347.419 338.171,345.517 338.428,343.637 338.684,341.743 338.943,339.814 339.209,337.886 339.478,335.979 339.726,334.081 339.977,332.194 340.234,330.294 340.491,328.37 340.748,326.445 340.994,324.533 341.251,322.601 341.504,320.695 341.749,318.813 341.994,316.916 342.235,315.025 342.48,313.122 342.725,311.221 342.972,309.298 343.22,307.375 343.457,305.486 343.703,303.613 343.942,301.695 344.188,299.757 344.433,297.82 344.668,295.914 344.918,294.011 345.154,292.095 345.398,290.191 345.637,288.262 345.872,286.355 346.113,284.45 346.351,282.526 346.591,280.626 346.827,278.728 347.059,276.832 347.294,274.924 347.539,273.007 347.772,271.082 348.002,269.161 348.241,267.264 348.482,265.355 348.702,263.455 348.959,261.57 349.188,259.636 349.428,257.726 349.662,255.803 349.905,253.88 350.129,251.99 350.354,250.078 350.612,248.145 350.843,246.244 351.081,244.344 351.313,242.43 351.549,240.53 351.795,238.632 352.024,236.68 352.258,234.766 352.492,232.877 352.73,230.952 352.971,229.021 353.209,227.103 353.436,225.197 353.679,223.307 353.904,221.44 354.141,219.549 354.368,217.646 354.611,215.716 354.852,213.769 355.091,211.854 355.324,209.927 355.563,207.988 355.792,206.071 356.048,204.217 356.253,202.367 356.491,200.443 356.733,198.504 356.975,196.565 357.209,194.637 357.453,192.722 357.689,190.806 357.926,188.878 358.148,186.965 358.402,185.064 358.648,183.167 358.873,181.298 359.103,179.406 359.353,177.489 359.591,175.545 359.83,173.588 360.08,171.682 360.312,169.778 360.548,167.837 360.793,165.933 361.018,164.076 361.253,162.182 361.501,160.256 361.728,158.335 361.968,156.397 362.204,154.455 362.441,152.549 362.678,150.657 362.909,148.763 363.146,146.858 363.383,144.966 363.622,143.075 363.861,141.143 364.101,139.214 364.333,137.284 364.578,135.356 364.819,133.427 365.059,131.512 365.283,129.611 365.53,127.734 365.766,125.854 366.007,123.973 366.236,122.065 366.491,120.127 366.731,118.185 366.974,116.256 367.214,114.362 367.452,112.481 367.689,110.576 367.937,108.66 368.184,106.745 368.429,104.852 368.675,102.96 368.931,101.032 369.19,99.094 369.45,97.171 369.713,95.248 369.981,93.336 370.254,91.416 370.532,89.506 370.82,87.572 371.116,85.642 371.42,83.728 371.743,81.777 372.076,79.831 372.417,77.924 372.775,76.041 373.166,74.139 373.607,72.239 374.119,70.333 374.728,68.439 375.45,66.575 376.297,64.753 377.298,62.984 378.495,61.253 379.919,59.608 381.357,58.293 382.523,57.427 383.444,56.851 384.332,56.378 385.395,55.899 386.731,55.422 388.442,55.0 390.389,54.745 392.33,54.712 394.244,54.87 396.141,55.169 398.019,55.527 399.922,55.856 401.873,56.095 403.832,56.178 405.825,56.042 407.758,55.645 409.446,55.038 410.778,54.349 411.873,53.619 412.935,52.741 414.122,51.516 415.348,49.984 416.514,48.404 417.717,46.878 419.008,45.468 420.327,44.254 421.581,43.297 422.776,42.538 424.099,41.841 425.745,41.155 427.667,40.57 429.67,40.186 431.652,40.008 433.613,40.0 435.558,40.118 437.486,40.332 439.428,40.63 441.348,41.003 443.253,41.445 445.147,41.954 447.015,42.518 448.869,43.13 450.693,43.779 452.516,44.471 454.319,45.191 456.099,45.931 457.883,46.693 459.678,47.481 461.472,48.293 463.215,49.095 464.947,49.908 466.706,50.75 468.431,51.607 470.179,52.472 471.914,53.359 473.62,54.251 475.337,55.161 477.062,56.094 478.73,57.028 480.383,57.969 482.064,58.929 483.729,59.913 485.389,60.9 487.05,61.897 488.7,62.904 490.368,63.909 492.032,64.928 493.655,65.904 495.263,66.898 496.919,67.906 498.585,68.934 500.229,69.931 501.839,70.921 503.475,71.935 505.116,72.937 506.759,73.955 508.404,74.968 510.034,75.991 511.672,76.993 513.294,78.005 514.925,79.014 516.56,80.037 518.204,81.057 519.841,82.086 521.475,83.097 523.097,84.117 524.722,85.134 526.351,86.149 527.975,87.171 529.625,88.203 531.269,89.234 532.884,90.249 534.513,91.27 536.143,92.296 537.766,93.331 539.372,94.342 541.012,95.368 542.653,96.419 544.262,97.435 545.873,98.454 547.517,99.487 549.147,100.543 550.766,101.565 552.387,102.59 553.983,103.62 555.633,104.671 557.273,105.731 558.859,106.759 560.465,107.782 562.083,108.836 563.708,109.883 565.33,110.94 566.974,112.01 568.581,113.066 570.178,114.121 571.773,115.165 573.355,116.215 574.952,117.267 576.565,118.34 578.173,119.424 579.786,120.507 581.399,121.593 582.975,122.661 584.552,123.729 586.134,124.815 587.736,125.913 589.328,127.012 590.911,128.108 592.499,129.218 594.077,130.326 595.644,131.436 597.197,132.547 598.747,133.664 600.295,134.783 601.854,135.912 603.414,137.045 604.962,138.171 606.499,139.298 608.066,140.439 609.636,141.592 611.194,142.734 612.78,143.895 614.361,145.057 615.914,146.194 617.468,147.334 619.038,148.483 620.598,149.623 622.165,150.755 623.741,151.88 625.328,152.976 626.977,154.038 628.701,155.017 630.501,155.879 632.381,156.595 634.382,157.128 636.458,157.397 638.257,157.383 639.64,157.192 640.782,156.909 641.873,156.526 643.107,155.95 644.583,155.023 646.09,153.745 647.389,152.307 648.531,150.75 649.582,149.15 650.644,147.528 651.785,145.955 653.077,144.512 654.499,143.33 655.963,142.501 657.24,142.046 658.36,141.825 659.707,141.756 661.424,141.96 663.301,142.559 665.067,143.513 666.64,144.722 668.021,146.083 669.256,147.557 670.413,149.104 671.515,150.664 672.588,152.237 673.67,153.847 674.756,155.458 675.832,157.038 676.919,158.61 678.019,160.202 679.125,161.808 680.225,163.435 681.292,165.086 682.285,166.758 683.185,168.489 683.971,170.314 684.583,172.234 684.936,174.139 685.015,175.868 684.874,177.406 684.522,178.898 683.935,180.368 683.126,181.729 682.158,182.905 681.072,183.891 679.776,184.761 678.173,185.519 676.32,186.106 674.365,186.478 672.432,186.653 670.508,186.696 668.577,186.642 666.65,186.503 664.739,186.303 662.838,186.048 660.945,185.753 659.053,185.426 657.162,185.076 655.272,184.702 653.389,184.319 651.506,183.937 649.634,183.54 647.738,183.144 645.846,182.739 643.982,182.351 642.113,181.954 640.216,181.555 638.333,181.157 636.435,180.761 634.532,180.355 632.669,179.969 630.771,179.565 628.876,179.166 627.001,178.779 625.13,178.377 623.24,177.992 621.341,177.603 619.464,177.22 617.611,176.852 615.711,176.486 613.794,176.133 611.903,175.791 610.024,175.456 608.136,175.129 606.223,174.81 604.304,174.501 602.388,174.2 600.497,173.914 598.612,173.637 596.694,173.357 594.793,173.09 592.913,172.83 590.979,172.571 589.027,172.326 587.093,172.109 585.179,171.948 583.244,171.869 581.26,171.895 579.262,172.045 577.29,172.325 575.338,172.741 573.48,173.272 571.797,173.871 570.284,174.506 568.885,175.182 567.466,175.964 565.998,176.885 564.502,177.957 563.004,179.181 561.565,180.514 560.216,181.923 558.948,183.402 557.756,184.932 556.62,186.499 555.518,188.073 554.411,189.643 553.308,191.182 552.2,192.649 551.037,194.083 549.827,195.485 548.586,196.824 547.307,198.106 545.978,199.339 544.592,200.522 543.152,201.65 541.676,202.713 540.19,203.702 538.663,204.648 537.086,205.592 535.454,206.566 533.76,207.601 532.093,208.659 530.482,209.727 528.893,210.845 527.378,211.989 525.929,213.172 524.556,214.377 523.246,215.636 521.986,216.949 520.81,218.28 519.679,219.678 518.6,221.124 517.588,222.624 516.656,224.134 515.791,225.697 514.962,227.357 514.188,229.096 513.508,230.826 512.91,232.581 512.361,234.441 511.896,236.314 511.508,238.218 511.202,240.131 510.972,242.051 510.811,243.981 510.701,245.862 510.618,247.799 510.539,249.758 510.446,251.708 510.338,253.612 510.19,255.511 509.995,257.45 509.734,259.39 509.41,261.251 509.003,263.115 508.498,265.031 507.908,266.918 507.253,268.711 506.517,270.467 505.671,272.242 504.732,273.987 503.773,275.583 502.769,277.083 501.691,278.562 500.563,279.962 499.4,281.293 498.182,282.565 496.918,283.786 495.587,284.967 494.195,286.101 492.728,287.199 491.173,288.27 489.578,289.28 487.915,290.249 486.185,291.2 484.441,292.123 482.755,293.01 481.086,293.902 479.49,294.791 477.984,295.667 476.477,296.608 475.034,297.568 473.646,298.564 472.213,299.669 470.781,300.865 469.363,302.144 467.963,303.517 466.622,304.928 465.334,306.396 464.076,307.945 462.909,309.493 461.801,311.072 460.731,312.706 459.73,314.338 458.779,316.005 457.872,317.675 456.978,319.376 456.09,321.087 455.211,322.802 454.351,324.522 453.499,326.262 452.667,328.005 451.869,329.772 451.082,331.544 450.357,333.28 449.615,335.052 448.906,336.898 448.226,338.724 447.551,340.523 446.918,342.377 446.292,344.228 445.678,346.049 445.098,347.916 444.542,349.742 444.02,351.504 443.461,353.366 442.936,355.269 442.444,357.082 441.969,358.893 441.503,360.7 441.059,362.507 440.62,364.33 440.168,366.235 439.755,368.154 439.353,370.015 438.973,371.867 438.601,373.76 438.234,375.662 437.884,377.515 437.55,379.363 437.234,381.221 436.898,383.149 436.561,385.08 436.257,386.972 435.945,388.889 435.648,390.801 435.359,392.694 435.064,394.601 434.786,396.503 434.51,398.397 434.234,400.306 433.963,402.218 433.697,404.123 433.436,406.042 433.18,407.942 432.922,409.844 432.681,411.751 432.44,413.639 432.199,415.539 431.958,417.452 431.724,419.37 431.483,421.277 431.254,423.212 431.013,425.158 430.777,427.062 430.541,428.98 430.314,430.919 430.077,432.816 429.853,434.69 429.619,436.59 429.386,438.514 429.148,440.44 428.913,442.344 428.681,444.238 428.449,446.157 428.212,448.077 427.98,449.997 427.732,451.944 427.486,453.907 427.243,455.818 427.001,457.698 426.754,459.58 426.495,461.508 426.23,463.469 425.962,465.399 425.688,467.317 425.408,469.223 425.11,471.135 424.782,473.041 424.407,474.937 423.955,476.839 423.396,478.735 422.709,480.608 421.873,482.448 420.89,484.206 419.796,485.805 418.706,487.137 417.725,488.168 416.737,489.079 415.44,490.106 413.779,491.202 411.97,492.171 410.103,492.965 408.248,493.584 406.358,494.066 404.433,494.433 402.545,494.681 400.674,494.845 398.755,494.943 396.826,494.982 394.895,494.959 392.937,494.888 391.027,494.764 389.092,494.593 387.14,494.397 385.176,494.176 383.186,493.955 381.227,493.745 379.277,493.571 377.317,493.435 375.365,493.351 373.415,493.342 371.452,493.43 369.503,493.632 367.55,493.988 365.625,494.541 363.753,495.37 362.01,496.559 360.606,498.048 359.718,499.541 359.247,500.897 359.05,502.121 359.043,503.293 359.238,504.579 359.715,505.995 360.544,507.509 361.701,509.108 362.915,510.669 364.04,512.239 364.956,513.741 365.693,515.205 366.263,516.616 366.696,518.046 367.013,519.565 367.203,521.237 367.257,523.083 367.159,525.033 366.935,527.019 366.661,528.927 366.384,530.739 366.114,532.507 365.846,534.288 365.589,536.124 365.331,538.025 365.082,539.896 364.814,541.794 364.525,543.701 364.189,545.622 363.771,547.511 363.22,549.43 362.508,551.321 361.602,553.117 360.434,554.804 359.232,556.113 358.104,557.079 356.984,557.857 355.726,558.551 354.163,559.187 352.435,559.658 350.57,559.942 348.621,560.0 346.642,559.839 344.633,559.454 342.731,558.888 340.904,558.173 339.098,557.306 337.403,556.338 335.736,555.255 334.164,554.109 332.6,552.846 331.129,551.529 329.72,550.149 328.378,548.715 327.117,547.228 325.903,545.728 324.771,544.148 323.683,542.493 322.682,540.829 321.766,539.17 320.898,537.452 320.102,535.732 319.346,533.954 318.682,532.18 318.054,530.31 317.505,528.508 317.031,526.722 316.632,524.975 316.24,522.979 315.911,521.075 315.646,519.214 315.429,517.329 315.248,515.348 315.12,513.42 315.035,511.474 314.989,509.52 314.985,507.547 315.023,505.552 315.096,503.642 315.197,501.883 315.356,499.861 315.536,497.924 315.74,495.975 315.965,494.016 316.207,492.046 316.463,490.066 316.622,488.873 317.095,486.247" fill="none" stroke="white" stroke-width="4"
            stroke-linejoin="round" stroke-linecap="round"/>
  <line x1="336.896" y1="489.058" x2="297.294" y2="483.436" stroke="red" stroke-width="3" stroke-linecap="round"/>
</svg>
