<?xml version="1.0" encoding="utf-8"?>
<svg xmlns="http://www.w3.org/2000/svg" width="1000" height="600">
  <polyline points="420.881,361.022 421.761,358.876 422.7,356.73 423.705,354.543 424.732,352.384 425.761,350.298 426.827,348.236 427.935,346.131 429.049,344.08 430.193,342.052 431.365,340.017 432.545,337.976 433.728,335.968 434.932,333.944 436.129,331.952 437.331,329.925 438.523,327.941 439.716,325.934 440.936,323.894 442.119,321.908 443.305,319.916 444.512,317.911 445.69,315.915 446.894,313.892 448.103,311.862 449.275,309.871 450.462,307.86 451.669,305.838 452.853,303.819 454.045,301.778 455.216,299.793 456.398,297.762 457.603,295.71 458.783,293.687 459.969,291.667 461.128,289.638 462.317,287.621 463.508,285.582 464.663,283.58 465.83,281.593 467.003,279.574 468.19,277.547 469.379,275.507 470.562,273.499 471.77,271.417 472.946,269.419 474.127,267.403 475.32,265.368 476.532,263.301 477.713,261.29 478.903,259.268 480.104,257.232 481.295,255.215 482.491,253.189 483.711,251.149 484.941,249.088 486.168,247.054 487.387,245.059 488.633,243.063 489.923,241.095 491.32,239.168 492.88,237.31 494.615,235.634 496.68,234.158 498.902,233.11 500.877,232.585 502.559,232.408 504.167,232.453 505.76,232.7 507.559,233.222 509.607,234.171 511.593,235.512 513.355,237.061 514.979,238.752 516.525,240.519 518.03,242.26 519.602,243.99 521.245,245.632 522.95,247.117 524.676,248.408 526.46,249.539 528.298,250.502 530.196,251.304 532.226,251.974 534.371,252.503 536.622,252.886 539.03,253.121 541.41,253.233 543.699,253.312 545.97,253.426 548.15,253.596 550.304,253.846 552.476,254.219 554.629,254.733 556.736,255.386 558.794,256.175 560.8,257.102 562.706,258.135 564.62,259.338 566.462,260.668 568.231,262.129 569.94,263.728 571.517,265.422 573.012,267.221 574.409,269.145 575.659,271.114 576.812,273.19 577.84,275.353 578.741,277.532 579.52,279.739 580.214,282.03 580.796,284.263 581.289,286.547 581.689,288.848 582.015,291.161 582.253,293.508 582.419,295.835 582.501,298.173 582.51,300.533 582.46,302.875 582.321,305.171 582.15,307.442 581.9,309.746 581.575,312.064 581.231,314.321 580.797,316.551 580.35,318.761 579.818,321.003 579.221,323.248 578.592,325.414 577.887,327.561 577.131,329.72 576.32,331.853 575.449,333.985 574.535,336.089 573.583,338.183 572.559,340.281 571.496,342.347 570.408,344.413 569.263,346.477 568.102,348.535 566.931,350.54 565.74,352.513 564.533,354.511 563.317,356.46 562.064,358.457 560.79,360.455 559.526,362.436 558.245,364.435 556.977,366.419 555.724,368.399 554.464,370.393 553.234,372.33 551.99,374.331 550.779,376.271 549.54,378.259 548.315,380.234 547.08,382.236 545.844,384.231 544.618,386.231 543.391,388.234 542.164,390.233 540.954,392.216 539.735,394.218 538.515,396.233 537.308,398.247 536.144,400.258 535.029,402.293 533.942,404.442 532.952,406.623 532.075,408.82 531.296,411.094 530.63,413.427 530.111,415.679 529.709,417.946 529.429,420.232 529.269,422.482 529.226,424.736 529.295,426.967 529.475,429.151 529.769,431.344 530.178,433.545 530.676,435.626 531.302,437.764 532.035,439.88 532.839,441.916 533.753,443.99 534.764,446.077 535.815,448.134 536.929,450.256 538.021,452.361 539.044,454.44 539.993,456.558 540.826,458.696 541.523,460.831 542.085,462.984 542.501,465.133 542.777,467.31 542.913,469.5 542.91,471.686 542.769,473.863 542.492,476.046 542.067,478.235 541.502,480.39 540.8,482.517 539.948,484.628 538.956,486.698 537.814,488.744 536.567,490.702 535.205,492.621 533.763,494.499 532.289,496.349 530.875,498.133 529.483,499.975 528.188,501.836 527.022,503.69 525.98,505.545 524.995,507.55 524.133,509.584 523.411,511.597 522.769,513.781 522.259,516.001 521.887,518.231 521.647,520.519 521.543,522.898 521.587,525.255 521.77,527.621 522.086,529.969 522.523,532.241 523.104,534.552 523.815,536.82 524.681,539.096 525.695,541.351 526.824,543.493 528.092,545.565 529.526,547.6 531.045,549.476 532.723,551.279 534.537,552.967 536.491,554.531 538.523,555.922 540.669,557.154 542.909,558.197 545.288,559.043 547.755,559.644 550.231,559.968 552.732,560.0 555.189,559.723 557.588,559.13 559.852,558.241 561.946,557.077 563.812,555.695 565.415,554.17 566.742,552.584 567.84,550.948 568.763,549.246 569.567,547.373 570.25,545.278 570.766,543.026 571.126,540.618 571.345,538.253 571.458,535.934 571.486,533.622 571.469,531.328 571.436,529.076 571.416,526.838 571.423,524.581 571.474,522.321 571.576,520.011 571.719,517.733 571.898,515.481 572.124,513.129 572.398,510.784 572.683,508.503 573.009,506.173 573.345,503.88 573.704,501.583 574.064,499.269 574.434,496.952 574.805,494.619 575.174,492.304 575.523,489.977 575.883,487.645 576.223,485.337 576.539,483.023 576.83,480.751 577.117,478.412 577.341,476.136 577.573,473.863 577.749,471.567 577.934,469.283 578.061,466.959 578.19,464.678 578.286,462.406 578.341,460.064 578.396,457.727 578.407,455.424 578.407,453.052 578.378,450.714 578.363,448.408 578.295,446.04 578.232,443.661 578.179,441.354 578.085,439.037 578.017,436.662 577.922,434.351 577.844,432.037 577.767,429.694 577.678,427.351 577.591,425.004 577.514,422.674 577.423,420.289 577.341,417.953 577.273,415.603 577.176,413.28 577.133,410.987 577.067,408.667 577.028,406.298 576.999,403.923 576.986,401.61 577.003,399.292 577.06,396.913 577.128,394.554 577.233,392.154 577.374,389.877 577.539,387.529 577.711,385.198 577.934,382.901 578.18,380.573 578.469,378.217 578.793,375.948 579.115,373.674 579.475,371.456 579.891,369.202 580.332,366.996 580.799,364.77 581.35,362.43 581.89,360.229 582.44,358.047 583.049,355.77 583.702,353.441 584.333,351.279 585.014,349.009 585.707,346.79 586.446,344.487 587.159,342.272 587.859,340.083 588.576,337.897 589.312,335.592 590.064,333.309 590.749,331.143 591.462,328.918 592.192,326.642 592.885,324.396 593.552,322.204 594.229,319.986 594.877,317.703 595.504,315.469 596.095,313.2 596.67,310.963 597.227,308.628 597.753,306.354 598.23,304.081 598.688,301.825 599.126,299.564 599.514,297.256 599.881,294.968 600.215,292.753 600.53,290.384 600.816,288.019 601.047,285.799 601.265,283.458 601.44,281.103 601.581,278.855 601.692,276.615 601.785,274.257 601.832,271.886 601.85,269.643 601.843,267.255 601.795,264.905 601.725,262.664 601.618,260.3 601.484,257.988 601.315,255.715 601.121,253.432 600.901,251.085 600.623,248.776 600.343,246.447 600.013,244.087 599.676,241.851 599.316,239.605 598.9,237.273 598.491,234.995 598.01,232.734 597.543,230.391 597.039,228.181 596.519,225.945 595.965,223.65 595.35,221.339 594.761,219.034 594.131,216.812 593.484,214.57 592.827,212.38 592.108,210.092 591.397,207.877 590.663,205.616 589.908,203.394 589.145,201.239 588.323,198.948 587.523,196.693 586.751,194.621 585.92,192.382 585.119,190.186 584.315,188.092 583.507,185.874 582.649,183.608 581.839,181.4 581.005,179.193 580.182,176.997 579.377,174.901 578.563,172.695 577.724,170.437 576.907,168.29 576.084,166.128 575.262,163.878 574.433,161.702 573.6,159.474 572.768,157.277 571.965,155.1 571.163,152.961 570.344,150.792 569.494,148.571 568.683,146.332 567.84,144.171 567.016,141.945 566.175,139.773 565.35,137.601 564.464,135.396 563.608,133.195 562.673,131.024 561.803,128.871 560.841,126.643 559.874,124.487 558.938,122.379 557.941,120.238 556.919,118.052 555.899,115.929 554.898,113.841 553.882,111.803 552.801,109.67 551.723,107.576 550.636,105.483 549.511,103.375 548.393,101.321 547.221,99.196 546.049,97.101 544.885,95.045 543.693,92.949 542.502,90.886 541.333,88.861 540.118,86.79 538.884,84.741 537.648,82.764 536.314,80.761 534.932,78.832 533.446,76.98 531.79,75.212 529.929,73.598 527.768,72.223 525.386,71.29 523.37,70.924 521.957,70.896 520.691,71.017 519.242,71.327 517.337,72.04 515.204,73.301 513.359,74.858 511.708,76.62 510.201,78.421 508.739,80.235 507.315,81.98 505.901,83.586 504.437,85.065 502.833,86.446 501.109,87.665 499.256,88.666 497.249,89.407 495.133,89.842 492.943,89.941 490.824,89.698 488.754,89.115 486.773,88.199 485.023,87.031 483.541,85.693 482.257,84.168 481.163,82.433 480.303,80.589 479.621,78.599 479.081,76.39 478.706,74.054 478.489,71.706 478.369,69.403 478.251,67.048 478.064,64.727 477.753,62.428 477.31,60.27 476.752,58.253 476.057,56.265 475.212,54.291 474.207,52.352 472.987,50.399 471.542,48.479 469.926,46.689 468.17,45.041 466.286,43.553 464.304,42.264 462.231,41.197 459.962,40.373 457.46,40.0 455.199,40.267 453.748,40.772 452.599,41.377 450.856,42.657 448.994,44.152 447.695,45.057 446.233,45.86 444.022,46.617 441.553,46.834 439.269,46.418 437.097,45.538 434.953,44.415 432.841,43.217 430.716,42.109 428.527,41.215 426.203,40.634 423.795,40.526 421.385,40.974 419.486,41.772 418.086,42.708 416.74,44.022 415.478,45.86 414.539,48.01 413.913,50.291 413.506,52.604 413.251,54.944 413.096,57.26 412.996,59.572 412.92,61.92 412.861,64.194 412.803,66.538 412.749,68.892 412.699,71.237 412.651,73.596 412.603,75.891 412.566,78.177 412.508,80.497 412.457,82.878 412.426,85.239 412.358,87.557 412.32,89.911 412.259,92.233 412.213,94.572 412.159,96.913 412.111,99.257 412.054,101.593 412.002,103.955 411.946,106.294 411.894,108.597 411.837,110.997 411.794,113.276 411.733,115.639 411.672,118.017 411.612,120.302 411.577,122.591 411.515,124.994 411.464,127.289 411.407,129.597 411.363,131.945 411.292,134.244 411.241,136.665 411.185,139.039 411.13,141.312 411.076,143.63 411.001,145.997 410.966,148.316 410.906,150.712 410.831,153.031 410.782,155.324 410.712,157.681 410.662,159.981 410.584,162.304 410.538,164.695 410.469,167.049 410.395,169.413 410.333,171.76 410.273,174.115 410.198,176.408 410.14,178.699 410.07,181.086 410.003,183.375 409.94,185.676 409.866,188.054 409.791,190.408 409.733,192.769 409.659,195.127 409.586,197.487 409.506,199.808 409.438,202.106 409.388,204.476 409.283,206.878 409.218,209.192 409.148,211.472 409.076,213.782 409.006,216.118 408.915,218.522 408.848,220.867 408.774,223.162 408.691,225.443 408.611,227.76 408.538,230.174 408.449,232.548 408.381,234.889 408.299,237.134 408.213,239.48 408.127,241.939 408.056,244.214 407.984,246.483 407.891,248.882 407.817,251.243 407.728,253.479 407.643,255.917 407.577,258.276 407.476,260.466 407.407,262.804 407.326,265.204 407.235,267.559 407.167,269.951 407.071,272.277 406.976,274.602 406.921,277.011 406.815,279.278 406.75,281.529 406.659,283.957 406.576,286.268 406.497,288.684 406.415,291.054 406.321,293.296 406.246,295.668 406.163,297.965 406.063,300.263 406.005,302.637 405.903,304.971 405.822,307.363 405.735,309.735 405.658,312.07 405.561,314.402 405.484,316.695 405.388,319.005 405.309,321.366 405.215,323.791 405.131,326.068 405.044,328.438 404.96,330.698 404.865,332.986 404.78,335.379 404.68,337.735 404.585,340.082 404.487,342.406 404.405,344.767 404.317,347.103 404.204,349.487 404.122,351.836 404.013,354.117 403.924,356.463 403.819,358.838 403.715,361.188 403.608,363.465 403.507,365.835 403.416,368.18 403.3,370.474 403.206,372.774 403.087,375.182 402.98,377.492 402.892,379.835 402.761,382.208 402.673,384.547 402.544,386.922 402.453,389.256 402.35,391.587 402.228,393.898 402.116,396.278 402.011,398.613 401.902,400.915 401.785,403.279 401.662,405.643 401.566,407.931 401.446,410.307 401.349,412.577 401.236,414.903 401.132,417.258 400.981,419.665 400.907,421.89 400.779,424.308 400.688,426.552 400.558,428.931 400.452,431.273 400.343,433.624 400.227,435.958 400.117,438.272 400.003,440.655 399.886,442.999 399.773,445.41 399.673,447.749 399.564,450.131 399.454,452.435 399.356,454.732 399.234,457.134 399.134,459.491 399.023,461.819 398.922,464.18 398.815,466.598 398.709,468.969 398.607,471.266 398.499,473.631 398.392,476.034 398.291,478.366 398.207,480.705 398.15,483.099 398.186,485.488 398.423,487.914 398.977,490.242 399.987,492.473 401.31,494.164 402.723,495.251 404.158,495.926 405.812,496.335 407.795,496.38 410.027,495.899 412.242,494.927 414.344,493.551 416.202,491.943 417.8,490.22 419.265,488.409 420.646,486.517 421.929,484.62 423.179,482.612 424.34,480.585 425.418,478.48 426.385,476.347 427.275,474.101 428.048,471.81 428.695,469.501 429.205,467.214 429.586,465.017 429.857,462.812 430.007,460.635 430.068,458.467 430.005,456.238 429.879,454.153 429.64,452.051 429.313,449.89 428.865,447.857 428.328,445.674 427.621,443.397 426.819,441.055 426.019,438.854 425.191,436.685 424.372,434.585 423.537,432.498 422.635,430.203 421.743,427.951 420.896,425.689 420.085,423.45 419.354,421.408 418.703,419.386 417.956,417.011 417.367,414.863 416.785,412.599 416.278,410.338 415.858,408.098 415.464,405.746 415.188,403.751 414.915,401.426 414.698,399.091 414.588,396.767 414.508,394.542 414.566,392.431 414.658,390.068 414.786,387.745 414.998,385.239 415.216,383.303 415.494,381.296 415.887,378.917 416.303,376.77 416.875,374.2 417.413,372.064 417.982,370.021 418.626,367.9 419.288,365.895 419.768,364.529 420.881,361.022" fill="none" stroke="white" stroke-width="4"
            stroke-linejoin="round" stroke-linecap="round"/>
</svg>
