<?xml version="1.0" encoding="utf-8"?>
<svg xmlns="http://www.w3.org/2000/svg" width="1000" height="600">
  <polyline points="627.306,558.146 624.44,558.403 621.62,558.677 618.776,558.913 615.929,559.124 612.927,559.316 610.088,559.505 607.361,559.615 604.392,559.758 601.462,559.858 598.591,559.923 595.748,559.961 592.875,560.0 589.926,560.0 587.051,559.959 584.201,559.882 581.4,559.814 578.482,559.716 575.495,559.58 572.661,559.409 569.801,559.224 566.941,559.008 564.23,558.789 561.303,558.529 558.304,558.233 555.464,557.92 552.649,557.587 549.752,557.234 546.946,556.87 544.159,556.489 541.234,556.088 538.352,555.666 535.511,555.253 532.589,554.795 529.777,554.361 526.846,553.893 523.878,553.406 521.022,552.943 518.155,552.477 515.337,552.015 512.634,551.568 509.978,551.123 507.358,550.67 504.729,550.194 501.967,549.661 499.032,549.027 496.078,548.247 493.194,547.283 490.316,546.07 487.574,544.624 485.215,543.092 483.412,541.712 482.187,540.643 481.046,539.538 479.751,538.15 478.174,536.233 476.517,533.808 475.077,531.156 473.88,528.405 472.895,525.606 472.101,522.819 471.452,520.017 470.912,517.214 470.473,514.429 470.109,511.604 469.781,508.738 469.466,505.9 469.176,503.061 468.876,500.255 468.569,497.378 468.272,494.562 467.96,491.695 467.636,488.809 467.303,485.908 466.951,483.07 466.591,480.26 466.195,477.374 465.785,474.499 465.366,471.775 464.912,468.936 464.471,466.121 463.955,463.397 463.438,460.615 462.893,457.817 462.296,455.012 461.75,452.179 461.131,449.39 460.506,446.587 459.885,443.811 459.267,441.068 458.613,438.295 457.996,435.528 457.316,432.626 456.708,429.845 456.085,427.042 455.488,424.319 454.913,421.575 454.34,418.695 453.746,415.864 453.194,412.955 452.618,410.205 452.125,407.465 451.589,404.621 451.051,401.691 450.529,398.942 450.068,396.279 449.556,393.433 449.04,390.752 448.524,387.936 448.025,385.225 447.447,382.324 446.863,379.455 446.254,376.622 445.622,373.818 445.004,370.985 444.306,368.306 443.613,365.462 442.869,362.632 442.138,359.87 441.337,357.095 440.561,354.462 439.737,351.801 438.886,349.082 438.007,346.437 437.106,343.795 436.147,341.106 435.157,338.39 434.149,335.777 433.108,333.083 432.036,330.4 430.995,327.803 429.93,325.143 428.837,322.459 427.779,319.772 426.724,317.111 425.712,314.4 424.731,311.656 423.807,309.029 422.92,306.276 422.08,303.585 421.236,300.81 420.449,298.11 419.716,295.373 419.02,292.692 418.337,289.965 417.687,287.29 417.1,284.449 416.504,281.577 415.988,278.877 415.511,276.154 415.028,273.197 414.62,270.393 414.2,267.566 413.766,264.619 413.395,261.731 412.991,258.863 412.588,256.116 412.197,253.185 411.759,250.274 411.337,247.511 410.883,244.704 410.39,241.801 409.833,238.876 409.263,236.114 408.558,233.176 407.824,230.45 406.905,227.52 405.921,224.742 404.865,222.089 403.681,219.428 402.359,216.777 400.921,214.19 399.417,211.746 397.801,209.365 396.012,206.978 394.203,204.785 392.29,202.684 390.201,200.612 388.042,198.686 385.824,196.912 383.538,195.283 381.17,193.788 378.723,192.426 376.23,191.201 373.738,190.132 371.238,189.223 368.68,188.46 366.132,187.85 363.39,187.353 360.575,187.004 357.738,186.818 354.898,186.802 352.081,186.951 349.259,187.28 346.376,187.799 343.617,188.476 340.91,189.313 338.227,190.343 335.63,191.571 333.184,192.947 330.851,194.465 328.544,196.14 326.395,197.837 324.341,199.579 322.2,201.492 320.165,203.381 318.094,205.308 315.927,207.298 313.735,209.228 311.452,211.091 309.119,212.803 306.54,214.447 303.948,215.838 301.331,216.991 298.881,217.868 296.572,218.541 294.256,219.049 291.902,219.37 289.309,219.486 286.509,219.389 283.805,219.101 281.111,218.596 278.388,217.87 275.682,216.988 272.983,215.992 270.315,214.901 267.678,213.713 265.098,212.451 262.445,211.054 259.903,209.553 257.476,207.951 255.129,206.214 252.884,204.445 250.639,202.6 248.47,200.751 246.351,198.879 244.138,196.889 241.98,194.976 239.914,193.144 237.704,191.218 235.439,189.304 233.306,187.542 231.039,185.713 228.816,183.989 226.593,182.243 224.259,180.477 221.875,178.69 219.647,177.026 217.408,175.398 215.058,173.683 212.719,171.99 210.354,170.29 208.045,168.611 205.636,166.89 203.306,165.186 200.98,163.509 198.639,161.812 196.338,160.112 193.964,158.368 191.623,156.615 189.325,154.894 186.972,153.089 184.709,151.314 182.475,149.528 180.199,147.664 177.99,145.804 175.853,143.858 173.816,141.707 171.981,139.343 170.493,136.814 169.465,134.297 168.869,131.914 168.65,129.566 168.8,127.224 169.353,124.864 170.316,122.536 171.652,120.364 173.353,118.386 175.335,116.666 177.541,115.191 179.968,113.95 182.592,112.929 185.353,112.095 188.195,111.4 190.993,110.817 193.78,110.269 196.416,109.743 199.098,109.145 201.631,108.477 204.189,107.658 206.872,106.636 209.569,105.47 212.286,104.205 214.914,102.918 217.466,101.628 220.03,100.303 222.463,99.012 224.892,97.674 227.333,96.275 229.793,94.625 232.06,92.56 233.738,90.208 234.609,87.801 234.723,85.419 234.132,83.321 232.985,81.621 231.406,80.351 229.464,79.557 227.227,79.321 224.676,79.817 222.071,81.031 219.698,82.677 217.593,84.549 215.642,86.586 213.722,88.779 211.838,90.958 209.874,93.08 207.764,95.094 205.492,96.913 203.036,98.494 200.43,99.722 197.696,100.537 195.092,100.89 192.676,100.848 190.353,100.463 188.123,99.758 186.08,98.81 184.103,97.529 182.059,95.749 180.068,93.599 178.317,91.245 176.795,88.777 175.441,86.234 174.237,83.677 173.084,81.026 171.968,78.322 170.891,75.566 169.881,72.724 169.009,69.842 168.328,66.906 167.898,63.946 167.766,60.985 168.006,58.035 168.677,55.122 169.74,52.453 171.05,50.178 172.443,48.341 173.741,46.941 175.148,45.668 176.996,44.3 179.507,42.898 182.354,41.763 185.268,40.975 188.193,40.462 191.082,40.167 193.917,40.028 196.792,40.0 199.662,40.067 202.562,40.237 205.484,40.483 208.267,40.775 211.119,41.112 214.014,41.487 216.831,41.881 219.635,42.285 222.567,42.71 225.4,43.147 228.215,43.6 231.126,44.106 234.0,44.595 236.915,45.118 239.764,45.659 242.462,46.173 245.363,46.766 248.284,47.328 251.034,47.959 253.8,48.55 256.714,49.218 259.544,49.848 262.364,50.547 265.225,51.249 267.993,51.941 270.719,52.646 273.589,53.389 276.294,54.135 279.015,54.859 281.696,55.613 284.502,56.397 287.339,57.221 290.148,58.053 292.8,58.843 295.616,59.714 298.37,60.591 301.238,61.512 304.016,62.432 306.806,63.385 309.369,64.294 312.113,65.284 314.794,66.279 317.601,67.374 320.311,68.447 322.725,69.428 325.515,70.631 328.132,71.787 330.812,73.033 333.365,74.27 335.875,75.535 338.528,76.926 341.04,78.303 343.599,79.784 346.161,81.303 348.491,82.791 350.882,84.339 353.286,86.005 355.604,87.663 357.939,89.414 360.176,91.174 362.451,93.029 364.632,94.873 366.719,96.703 368.765,98.591 370.925,100.647 372.882,102.59 374.843,104.611 376.609,106.507 378.587,108.725 380.44,110.888 382.25,113.068 384.031,115.304 385.716,117.522 387.511,119.924 389.183,122.338 390.825,124.674 392.42,127.152 393.931,129.45 395.44,131.889 396.953,134.471 398.35,136.836 399.787,139.415 401.179,141.929 402.561,144.455 403.854,147.004 405.314,149.646 406.716,152.374 407.985,154.782 409.256,157.289 410.607,159.912 411.985,162.588 413.225,165.031 414.421,167.494 415.722,170.095 416.981,172.614 418.226,175.222 419.458,177.855 420.751,180.528 421.95,183.048 423.173,185.702 424.348,188.274 425.566,191.013 426.62,193.475 427.816,196.113 428.935,198.846 429.972,201.358 431.088,204.101 432.119,206.695 433.167,209.357 434.243,212.181 435.19,214.81 436.167,217.453 437.137,220.169 438.038,222.871 438.968,225.627 439.77,228.245 440.715,231.155 441.528,233.906 442.33,236.715 443.127,239.526 443.822,242.171 444.528,244.956 445.199,247.664 445.901,250.539 446.542,253.279 447.202,256.171 447.822,259.075 448.415,261.851 448.981,264.633 449.513,267.391 450.081,270.346 450.633,273.332 451.113,276.075 451.603,278.859 452.089,281.777 452.564,284.638 453.028,287.468 453.475,290.243 453.956,293.155 454.447,296.055 454.948,298.886 455.512,301.803 456.141,304.571 456.926,307.369 457.946,310.22 459.25,313.001 460.795,315.481 462.222,317.231 463.59,318.548 465.437,319.983 467.859,321.676 470.297,323.469 472.109,325.126 473.125,326.248 474.103,327.52 475.305,329.536 476.321,332.087 476.909,334.86 476.998,337.505 476.731,340.084 476.254,342.845 475.687,345.685 475.164,348.341 474.73,350.763 474.353,353.199 474.003,355.957 473.687,358.916 473.444,361.809 473.294,364.706 473.188,367.595 473.18,370.455 473.215,373.392 473.319,376.322 473.507,379.092 473.703,381.951 473.964,384.844 474.235,387.696 474.525,390.524 474.808,393.382 475.118,396.165 475.427,399.118 475.734,402.006 476.035,404.873 476.375,407.749 476.674,410.547 476.984,413.404 477.305,416.231 477.629,419.142 477.935,421.946 478.276,424.87 478.587,427.718 478.889,430.487 479.218,433.357 479.535,436.243 479.853,439.114 480.165,442.009 480.493,444.919 480.797,447.701 481.11,450.595 481.432,453.497 481.745,456.308 482.055,459.122 482.378,461.973 482.707,464.836 483.038,467.684 483.387,470.532 483.775,473.51 484.17,476.3 484.619,479.175 485.17,482.113 485.806,484.954 486.576,487.809 487.485,490.648 488.512,493.362 489.68,496.007 490.974,498.556 492.365,500.952 493.774,503.098 495.351,505.237 497.04,507.32 498.895,509.398 500.943,511.462 503.067,513.41 505.31,515.274 507.627,517.029 509.996,518.672 512.484,520.241 515.085,521.721 517.657,523.044 520.324,524.249 523.024,525.352 525.774,526.354 528.552,527.292 531.348,528.156 534.211,528.952 537.06,529.681 539.87,530.332 542.785,530.942 545.595,531.458 548.449,531.915 551.388,532.298 554.184,532.574 557.134,532.771 560.02,532.865 562.964,532.866 565.827,532.767 568.713,532.569 571.627,532.267 574.564,531.862 577.463,531.358 580.3,530.759 583.079,530.063 585.628,529.337 588.292,528.48 590.855,527.557 593.237,526.613 595.799,525.493 598.51,524.207 600.99,522.93 603.541,521.518 606.06,520.042 608.56,518.526 610.75,517.176 612.731,516.011 614.813,514.756 616.882,513.596 618.985,512.438 621.303,511.215 624.022,509.877 626.694,508.665 629.346,507.501 632.066,506.407 634.848,505.34 637.616,504.352 640.31,503.424 643.114,502.523 645.917,501.661 648.761,500.863 651.653,500.098 654.45,499.399 657.295,498.742 660.091,498.15 662.96,497.595 665.796,497.105 668.64,496.664 671.511,496.295 674.396,496.04 677.347,495.929 680.285,495.996 683.303,496.27 686.344,496.773 689.267,497.478 691.933,498.314 694.188,499.153 695.906,499.863 697.413,500.544 698.969,501.318 701.107,502.423 703.762,503.752 706.585,505.025 709.163,506.042 711.227,506.732 713.078,507.25 715.2,507.738 717.806,508.21 720.661,508.511 723.646,508.61 726.643,508.499 729.547,508.174 732.421,507.65 735.282,506.952 737.984,506.168 740.753,505.261 743.552,504.263 746.197,503.254 748.849,502.167 751.521,501.015 754.181,499.803 756.87,498.484 759.344,497.169 761.854,495.711 764.377,494.129 766.841,492.45 769.213,490.71 771.486,488.919 773.764,486.992 775.887,485.069 777.969,483.055 779.952,481.011 781.892,478.87 783.756,476.695 785.61,474.398 787.382,472.098 789.084,469.782 790.688,467.487 792.24,465.205 793.76,462.923 795.276,460.626 796.814,458.281 798.466,455.805 800.15,453.367 801.963,450.953 803.83,448.749 805.726,446.86 807.667,445.304 809.725,444.093 811.944,443.272 814.222,442.913 816.209,442.978 817.911,443.343 819.756,444.076 821.95,445.465 824.139,447.624 825.817,450.125 827.104,452.847 828.072,455.557 828.909,458.359 829.653,461.192 830.336,464.049 830.98,466.985 831.557,469.922 832.0,472.862 832.234,475.757 832.221,478.67 831.913,481.567 831.265,484.465 830.219,487.375 828.721,490.25 827.091,492.587 825.725,494.154 824.491,495.346 822.9,496.655 820.682,498.181 818.079,499.691 815.455,500.955 812.923,501.998 810.383,502.956 807.829,503.895 805.344,504.808 802.743,505.792 800.174,506.845 797.544,507.97 794.854,509.137 792.233,510.309 789.608,511.523 786.977,512.749 784.417,513.955 781.826,515.13 779.26,516.337 776.726,517.526 774.122,518.703 771.501,519.888 768.94,520.867 766.277,522.036 763.675,523.111 761.103,524.24 758.409,525.297 755.749,526.418 753.116,527.419 750.501,528.436 747.759,529.514 745.089,530.484 742.437,531.438 739.819,532.317 737.046,533.189 734.372,534.102 731.674,535.002 728.837,535.928 726.21,536.768 723.441,537.639 720.584,538.521 717.817,539.359 714.964,540.208 712.336,540.999 709.659,541.777 706.659,542.629 703.994,543.343 701.354,544.063 698.596,544.875 695.803,545.528 693.183,546.249 690.317,546.926 687.424,547.584 684.757,548.252 681.824,548.877 679.12,549.252 676.351,549.841 673.567,550.421 670.77,550.988 667.974,551.538 665.169,552.072 662.347,552.593 659.509,553.098 656.656,553.59 653.581,554.102 650.905,554.534 648.007,554.983 645.097,555.416 642.172,555.835 639.235,556.24 636.709,556.574 633.752,556.945 631.634,557.2 627.306,558.146" fill="none" stroke="white" stroke-width="4"
            stroke-linejoin="round" stroke-linecap="round"/>
  <line x1="625.520" y1="538.226" x2="629.092" y2="578.066" stroke="red" stroke-width="3" stroke-linecap="round"/>
</svg>
