<?xml version="1.0" encoding="utf-8"?>
<svg xmlns="http://www.w3.org/2000/svg" width="1000" height="600">
  <polyline points="796.341,175.858 798.93,175.492 801.528,175.155 804.146,174.849 806.787,174.576 809.428,174.252 812.023,174.027 814.623,173.843 817.18,173.677 819.8,173.54 822.435,173.423 825.064,173.36 827.714,173.302 830.407,173.269 832.996,173.255 835.583,173.284 838.218,173.333 840.772,173.414 843.321,173.502 846.002,173.614 848.655,173.76 851.284,173.921 853.924,174.109 856.454,174.329 859.029,174.569 861.608,174.843 864.299,175.162 866.851,175.475 869.517,175.822 872.12,176.168 874.658,176.519 877.319,176.877 879.964,177.232 882.543,177.584 885.238,177.944 887.86,178.292 890.428,178.62 893.103,178.947 895.753,179.231 898.391,179.461 901.063,179.595 903.736,179.58 906.431,179.376 909.16,178.938 911.856,178.239 914.26,177.362 916.301,176.398 918.021,175.412 919.58,174.378 921.269,173.121 923.166,171.486 925.006,169.56 926.664,167.459 928.117,165.223 929.456,162.899 930.755,160.61 932.172,158.324 933.635,156.32 935.199,154.614 936.874,153.236 938.684,152.159 940.604,151.396 942.648,150.962 944.752,150.9 946.915,151.224 949.005,151.906 950.972,152.934 952.841,154.314 954.536,155.996 955.978,157.877 957.228,160.018 958.262,162.398 959.029,164.902 959.543,167.444 959.862,170.082 960.0,172.78 959.968,175.451 959.78,178.125 959.442,180.851 959.003,183.431 958.465,185.97 957.802,188.596 957.081,191.109 956.293,193.636 955.481,196.062 954.616,198.588 953.711,201.097 952.812,203.508 951.897,205.922 950.868,208.428 949.842,210.906 948.831,213.298 947.738,215.756 946.614,218.142 945.472,220.512 944.303,222.861 943.118,225.179 941.881,227.522 940.607,229.845 939.364,232.093 937.958,234.481 936.681,236.691 935.29,238.932 933.892,241.17 932.504,243.36 931.033,245.586 929.529,247.794 928.084,249.924 926.533,252.123 925.042,254.211 923.435,256.43 921.854,258.509 920.299,260.545 918.675,262.642 917.026,264.7 915.382,266.75 913.738,268.764 912.068,270.771 910.383,272.781 908.661,274.796 906.88,276.859 905.14,278.847 903.377,280.844 901.595,282.835 899.81,284.782 897.974,286.719 896.115,288.573 894.153,290.391 892.078,292.129 889.906,293.755 887.601,295.265 885.262,296.584 882.818,297.745 880.451,298.681 878.232,299.412 876.179,299.969 874.25,300.392 872.166,300.696 869.792,300.877 867.108,300.914 864.403,300.814 861.729,300.638 859.115,300.475 856.622,300.415 854.202,300.474 852.161,300.628 849.991,300.901 847.734,301.33 845.358,301.932 842.796,302.733 840.286,303.661 837.71,304.765 835.274,305.953 832.983,307.218 830.755,308.589 828.566,310.092 826.437,311.702 824.422,313.376 822.504,315.073 820.635,316.839 818.699,318.743 816.825,320.683 815.035,322.621 813.272,324.583 811.584,326.518 809.82,328.532 808.003,330.627 806.274,332.635 804.557,334.622 802.819,336.638 801.137,338.596 799.462,340.545 797.795,342.478 796.215,344.318 794.681,346.102 792.991,348.047 791.211,350.061 789.363,352.072 787.566,353.953 785.643,355.868 783.739,357.649 781.75,359.393 779.803,360.999 777.734,362.589 775.582,364.143 773.468,365.571 771.291,366.94 769.211,368.16 766.949,369.389 764.702,370.527 762.392,371.594 760.124,372.558 757.79,373.465 755.353,374.328 753.001,375.071 750.528,375.767 748.013,376.397 745.536,376.938 743.075,377.383 740.584,377.777 737.94,378.118 735.371,378.364 732.712,378.574 730.056,378.696 727.521,378.721 724.845,378.758 722.278,378.69 719.603,378.61 717.051,378.49 714.412,378.369 711.723,378.183 709.142,378.026 706.412,377.84 703.787,377.663 701.107,377.47 698.429,377.3 695.862,377.131 693.156,376.975 690.47,376.828 687.824,376.719 685.241,376.659 682.594,376.646 679.919,376.703 677.223,376.869 674.642,377.173 671.943,377.67 669.289,378.372 666.713,379.313 664.338,380.485 662.271,381.82 660.511,383.274 659.031,384.788 657.747,386.394 656.623,388.136 655.69,389.984 654.908,392.008 654.309,394.238 653.957,396.639 653.819,399.222 653.764,401.915 653.644,404.58 653.43,407.057 653.097,409.439 652.64,411.717 652.035,413.979 651.286,416.246 650.402,418.412 649.334,420.576 648.137,422.656 646.74,424.753 645.268,426.699 643.623,428.624 641.865,430.455 639.959,432.219 637.887,433.927 635.729,435.501 633.49,436.934 631.152,438.268 628.785,439.445 626.298,440.524 623.779,441.478 621.222,442.308 618.727,443.001 616.13,443.612 613.563,444.121 610.884,444.593 608.254,444.98 605.653,445.333 602.944,445.65 600.362,445.937 597.713,446.192 594.973,446.436 592.386,446.647 589.759,446.838 587.136,447.01 584.499,447.199 581.942,447.326 579.312,447.494 576.672,447.65 574.172,447.779 571.485,447.896 568.773,448.053 566.256,448.163 563.558,448.291 560.899,448.404 558.358,448.5 555.823,448.612 553.096,448.684 550.502,448.778 547.752,448.86 545.07,448.899 542.463,448.957 539.812,449.012 537.207,449.033 534.643,449.052 531.93,449.1 529.349,449.073 526.776,449.08 524.151,449.06 521.487,449.033 518.931,449.02 516.371,448.976 513.628,448.946 510.995,448.85 508.417,448.803 505.703,448.746 503.109,448.627 500.415,448.542 497.864,448.453 495.209,448.303 492.695,448.173 490.045,448.037 487.393,447.887 484.801,447.73 482.202,447.532 479.514,447.352 476.944,447.159 474.274,446.978 471.678,446.708 469.068,446.49 466.45,446.24 463.916,446.005 461.189,445.702 458.608,445.418 455.975,445.144 453.507,444.834 450.835,444.481 448.266,444.159 445.623,443.795 443.023,443.485 440.419,443.031 437.893,442.689 435.28,442.32 432.627,441.877 430.082,441.479 427.438,441.051 424.954,440.651 422.218,440.177 419.693,439.72 417.234,439.295 414.615,438.824 412.068,438.329 409.368,437.794 406.77,437.298 404.161,436.796 401.66,436.253 398.98,435.687 396.442,435.128 393.777,434.537 391.266,433.98 388.785,433.406 386.116,432.795 383.51,432.192 381.002,431.601 378.426,430.997 375.894,430.397 373.316,429.787 370.766,429.173 368.212,428.55 365.623,427.92 362.992,427.269 360.44,426.601 357.888,425.876 355.32,425.034 352.826,424.065 350.369,422.911 348.017,421.578 345.727,420.017 343.659,418.346 341.95,416.748 340.497,415.172 339.283,413.675 338.148,412.077 336.894,410.043 335.62,407.67 334.476,405.244 333.467,402.916 332.522,400.788 331.537,398.747 330.459,396.739 329.276,394.754 327.941,392.749 326.522,390.861 324.97,389.02 323.178,387.113 321.273,385.296 319.318,383.623 317.142,381.94 314.948,380.418 312.663,378.989 310.327,377.684 307.916,376.482 305.523,375.421 303.099,374.476 300.6,373.583 298.053,372.786 295.503,372.033 292.926,371.309 290.445,370.634 287.867,369.955 285.325,369.327 282.769,368.702 280.258,368.098 277.603,367.486 275.049,366.876 272.495,366.312 269.952,365.727 267.396,365.128 264.912,364.6 262.264,364.008 259.645,363.445 257.013,362.864 254.494,362.33 251.838,361.791 249.32,361.213 246.854,360.764 244.111,360.176 241.552,359.703 239.078,359.178 236.547,358.726 233.918,358.229 231.347,357.716 228.754,357.255 226.148,356.754 223.467,356.319 220.913,355.839 218.336,355.427 215.742,354.986 213.118,354.537 210.505,354.144 207.941,353.721 205.416,353.316 202.748,352.915 200.136,352.569 197.441,352.206 194.941,351.872 192.416,351.563 189.74,351.249 187.117,350.994 184.491,350.704 181.795,350.477 179.201,350.244 176.593,350.032 174.041,349.832 171.51,349.678 168.873,349.542 166.198,349.424 163.554,349.277 160.883,349.236 158.213,349.179 155.531,349.132 152.942,349.124 150.305,349.157 147.62,349.204 145.112,349.25 142.444,349.406 139.842,349.522 137.161,349.689 134.666,349.894 132.031,350.113 129.452,350.352 126.903,350.642 124.322,350.944 121.717,351.269 119.166,351.638 116.511,352.05 114.014,352.471 111.393,352.951 108.711,353.45 106.169,353.961 103.714,354.473 101.169,355.012 98.536,355.576 95.944,356.174 93.431,356.734 90.763,357.345 88.166,357.934 85.522,358.534 83.0,359.127 80.411,359.703 77.841,360.305 75.21,360.898 72.679,361.483 70.039,362.074 67.471,362.653 64.881,363.228 62.267,363.788 59.664,364.325 57.066,364.813 54.437,365.181 51.738,365.337 48.994,365.186 46.323,364.597 44.014,363.514 42.226,362.041 41.011,360.35 40.289,358.549 40.0,356.678 40.114,354.788 40.622,352.935 41.51,351.118 42.838,349.298 44.663,347.483 46.873,345.859 49.293,344.519 51.743,343.5 54.332,342.702 56.949,342.104 59.533,341.655 62.168,341.296 64.763,341.014 67.435,340.777 70.11,340.567 72.72,340.365 75.291,340.179 77.901,339.976 80.509,339.749 83.023,339.469 85.462,339.156 87.943,338.779 90.41,338.349 92.885,337.837 95.409,337.264 97.887,336.657 100.422,335.973 102.941,335.293 105.431,334.536 108.014,333.739 110.484,332.915 112.941,332.078 115.417,331.183 117.925,330.251 120.424,329.318 122.884,328.372 125.31,327.412 127.713,326.446 130.121,325.482 132.563,324.466 135.001,323.472 137.419,322.48 139.817,321.475 142.232,320.489 144.619,319.492 147.064,318.491 149.441,317.498 151.847,316.515 154.302,315.508 156.75,314.476 159.178,313.481 161.619,312.477 164.045,311.484 166.439,310.495 168.888,309.497 171.289,308.503 173.721,307.507 176.232,306.473 178.562,305.534 180.984,304.542 183.461,303.51 185.916,302.531 188.283,301.554 190.767,300.553 193.22,299.599 195.618,298.611 198.093,297.631 200.556,296.68 202.94,295.742 205.409,294.81 207.849,293.83 210.308,292.931 212.79,291.972 215.241,291.076 217.673,290.159 220.119,289.236 222.513,288.349 225.039,287.455 227.575,286.524 230.055,285.622 232.516,284.779 235.031,283.863 237.508,283.009 239.946,282.164 242.419,281.319 244.895,280.476 247.413,279.629 249.909,278.809 252.336,278.003 254.83,277.205 257.257,276.415 259.732,275.661 262.268,274.888 264.718,274.133 267.157,273.403 269.75,272.651 272.281,271.931 274.82,271.193 277.312,270.505 279.829,269.815 282.39,269.098 284.939,268.412 287.416,267.718 290.018,267.058 292.573,266.369 295.122,265.732 297.678,265.061 300.2,264.411 302.743,263.79 305.317,263.154 307.848,262.54 310.458,261.932 312.993,261.323 315.54,260.746 318.092,260.139 320.735,259.547 323.25,258.988 325.786,258.401 328.342,257.845 331.005,257.244 333.527,256.694 336.015,256.139 338.623,255.564 341.239,255.01 343.789,254.444 346.32,253.9 348.817,253.356 351.497,252.78 354.064,252.236 356.547,251.685 359.154,251.126 361.834,250.55 364.326,250.027 366.823,249.465 369.447,248.91 372.123,248.32 374.614,247.801 377.191,247.237 379.798,246.668 382.278,246.154 384.822,245.576 387.489,245.008 390.122,244.444 392.573,243.915 395.172,243.358 397.828,242.776 400.282,242.262 402.857,241.687 405.492,241.122 408.069,240.581 410.573,240.022 413.183,239.465 415.773,238.912 418.28,238.358 420.824,237.82 423.488,237.236 426.039,236.704 428.525,236.149 431.126,235.59 433.696,235.059 436.23,234.491 438.856,233.941 441.393,233.404 443.922,232.857 446.576,232.282 449.135,231.751 451.69,231.208 454.326,230.646 456.893,230.102 459.386,229.562 462.043,229.001 464.583,228.464 467.15,227.907 469.742,227.364 472.316,226.826 474.85,226.275 477.473,225.717 480.018,225.182 482.501,224.65 485.18,224.074 487.775,223.517 490.237,223.002 492.858,222.421 495.4,221.879 497.986,221.331 500.624,220.756 503.117,220.235 505.73,219.668 508.225,219.145 510.742,218.61 513.454,218.02 515.969,217.506 518.531,216.94 521.198,216.373 523.7,215.858 526.265,215.282 528.84,214.753 531.35,214.22 534.052,213.634 536.607,213.105 539.098,212.56 541.762,211.995 544.46,211.414 547.011,210.87 549.553,210.327 552.076,209.784 554.694,209.228 557.369,208.669 559.907,208.144 562.5,207.626 565.118,207.128 567.731,206.695 570.375,206.364 573.07,206.161 575.725,206.114 578.468,206.24 581.24,206.562 583.814,207.055 586.233,207.703 588.033,208.307 589.318,208.806 591.221,209.663 593.811,210.971 596.361,212.31 598.335,213.295 599.957,214.027 601.632,214.704 603.599,215.404 606.033,216.094 608.808,216.693 611.593,217.11 614.275,217.337 616.931,217.392 619.595,217.289 622.202,217.033 624.733,216.658 627.286,216.161 629.864,215.598 632.534,214.966 635.058,214.376 637.62,213.75 640.122,213.13 642.636,212.498 645.27,211.863 647.83,211.235 650.351,210.608 652.848,209.987 655.39,209.377 657.923,208.76 660.482,208.136 663.06,207.501 665.629,206.872 668.25,206.24 670.792,205.594 673.394,204.927 675.876,204.19 678.378,203.585 680.994,202.904 683.535,202.241 686.0,201.682 688.576,201.041 691.117,200.425 693.742,199.835 696.313,199.202 698.804,198.67 701.306,198.092 703.833,197.506 706.447,196.922 709.077,196.325 711.685,195.752 714.16,195.214 716.711,194.667 719.434,194.072 721.931,193.496 724.436,192.896 727.039,192.267 729.655,191.631 732.192,191.016 734.631,190.422 737.188,189.799 739.658,189.197 742.306,188.557 744.783,187.959 747.422,187.32 750.077,186.682 752.581,186.079 755.085,185.475 757.592,184.87 760.109,184.263 762.471,183.686 765.313,182.989 767.858,182.384 770.412,181.787 772.977,181.202 775.552,180.628 778.137,180.07 780.733,179.53 783.341,179.013 785.959,178.521 788.588,178.052 791.226,177.607 792.88,177.339 796.341,175.858" fill="none" stroke="white" stroke-width="4"
            stroke-linejoin="round" stroke-linecap="round"/>
  <line x1="799.141" y1="195.661" x2="793.541" y2="156.055" stroke="red" stroke-width="3" stroke-linecap="round"/>
</svg>
