<?xml version="1.0" encoding="utf-8"?>
<svg xmlns="http://www.w3.org/2000/svg" width="1000" height="600">
  <polyline points="746.965,555.148 744.021,554.907 741.1,554.661 738.119,554.406 735.146,554.156 732.15,553.911 729.199,553.687 726.235,553.445 723.224,553.199 720.262,552.957 717.338,552.711 714.402,552.483 711.44,552.235 708.422,551.963 705.464,551.728 702.507,551.438 699.539,551.215 696.558,550.945 693.547,550.69 690.573,550.435 687.609,550.179 684.689,549.915 681.738,549.65 678.731,549.387 675.77,549.124 672.831,548.86 669.851,548.604 666.887,548.348 663.894,548.085 660.882,547.813 657.89,547.53 654.917,547.279 652.011,546.982 649.036,546.749 646.011,546.459 643.029,546.203 640.049,545.934 637.057,545.659 634.151,545.394 631.241,545.124 628.218,544.839 625.264,544.583 622.31,544.309 619.306,544.044 616.302,543.76 613.319,543.495 610.353,543.225 607.397,542.944 604.423,542.66 601.479,542.41 598.532,542.14 595.559,541.872 592.58,541.587 589.582,541.328 586.627,541.034 583.674,540.759 580.703,540.509 577.712,540.222 574.711,539.936 571.732,539.647 568.787,539.387 565.891,539.124 562.939,538.825 559.921,538.552 556.931,538.284 553.971,537.994 550.979,537.707 547.991,537.446 545.029,537.154 542.057,536.879 539.085,536.591 536.111,536.316 533.137,536.047 530.153,535.761 527.191,535.507 524.233,535.226 521.243,534.962 518.276,534.684 515.349,534.428 512.377,534.175 509.391,533.912 506.392,533.649 503.395,533.379 500.425,533.132 497.485,532.892 494.519,532.605 491.602,532.336 488.674,532.095 485.66,531.831 482.634,531.564 479.642,531.316 476.678,531.056 473.677,530.766 470.696,530.52 467.792,530.259 464.865,530.008 461.874,529.744 458.863,529.477 455.87,529.21 452.874,528.938 449.881,528.671 446.933,528.406 444.016,528.143 441.026,527.889 438.049,527.627 435.049,527.349 432.024,527.127 429.032,526.857 426.053,526.612 423.061,526.349 420.057,526.112 417.108,525.884 414.114,525.666 411.103,525.408 408.105,525.195 405.083,524.973 402.071,524.749 399.075,524.546 396.068,524.308 393.061,524.112 390.051,523.888 387.069,523.678 384.098,523.453 381.095,523.173 378.082,522.76 375.105,522.097 372.215,521.024 369.748,519.536 368.025,517.852 366.87,515.949 366.03,513.523 365.31,510.735 364.383,508.122 363.22,506.093 361.692,504.496 359.446,503.187 356.572,502.453 353.536,502.341 350.568,502.686 347.636,503.286 344.765,503.986 341.91,504.737 339.039,505.503 336.182,506.289 333.314,507.089 330.444,507.882 327.56,508.669 324.69,509.41 321.79,510.092 318.863,510.754 315.97,511.312 313.106,511.815 310.225,512.256 307.307,512.635 304.407,512.961 301.471,513.227 298.5,513.443 295.568,513.598 292.615,513.703 289.619,513.768 286.61,513.795 283.648,513.762 280.678,513.721 277.707,513.604 274.736,513.474 271.748,513.301 268.791,513.126 265.819,512.907 262.858,512.697 259.889,512.467 256.9,512.229 253.937,511.962 250.988,511.682 248.041,511.389 245.075,511.067 242.105,510.706 239.132,510.307 236.176,509.869 233.263,509.379 230.303,508.847 227.325,508.268 224.484,507.652 221.632,506.962 218.731,506.209 215.889,505.399 213.08,504.512 210.304,503.585 207.531,502.567 204.759,501.477 202.017,500.333 199.347,499.139 196.68,497.883 194.03,496.544 191.392,495.151 188.81,493.703 186.335,492.23 183.804,490.664 181.317,489.037 178.91,487.373 176.544,485.655 174.21,483.885 171.892,482.05 169.646,480.168 167.474,478.275 165.337,476.352 163.213,474.311 161.087,472.208 159.056,470.075 157.06,467.899 155.083,465.649 153.168,463.358 151.299,461.019 149.504,458.671 147.757,456.308 146.07,453.885 144.416,451.387 142.778,448.857 141.24,446.317 139.773,443.768 138.336,441.182 136.918,438.531 135.585,435.821 134.288,433.149 133.064,430.469 131.873,427.698 130.737,424.934 129.676,422.194 128.646,419.37 127.647,416.519 126.724,413.708 125.854,410.903 125.027,408.083 124.234,405.221 123.456,402.282 122.733,399.338 122.073,396.471 121.451,393.565 120.85,390.638 120.291,387.696 119.781,384.717 119.314,381.78 118.894,378.834 118.482,375.87 118.132,372.936 117.808,369.966 117.496,366.951 117.219,363.955 116.95,360.995 116.703,358.031 116.461,355.047 116.237,352.1 116.033,349.162 115.836,346.178 115.651,343.191 115.475,340.227 115.301,337.246 115.14,334.264 114.979,331.291 114.825,328.301 114.663,325.295 114.503,322.287 114.355,319.29 114.201,316.318 114.072,313.344 113.92,310.355 113.773,307.35 113.639,304.384 113.501,301.432 113.367,298.449 113.222,295.48 113.095,292.495 112.966,289.524 112.839,286.568 112.71,283.582 112.579,280.597 112.458,277.621 112.345,274.672 112.214,271.715 112.072,268.659 111.957,265.621 111.837,262.657 111.71,259.631 111.582,256.588 111.47,253.557 111.366,250.542 111.242,247.545 111.14,244.533 111.034,241.539 110.912,238.537 110.771,235.523 110.58,232.54 110.287,229.539 109.776,226.537 108.986,223.588 107.876,220.82 106.489,218.459 104.994,216.575 103.319,214.926 101.154,213.242 98.621,211.529 96.245,209.849 94.332,208.27 92.655,206.592 90.955,204.46 89.338,201.913 87.967,199.161 86.883,196.342 86.026,193.535 85.287,190.7 84.598,187.84 83.917,184.98 83.227,182.105 82.531,179.248 81.813,176.367 81.059,173.502 80.278,170.643 79.45,167.793 78.59,164.964 77.685,162.102 76.76,159.245 75.826,156.43 74.877,153.606 73.915,150.782 72.955,147.985 71.975,145.161 70.997,142.345 69.999,139.532 69.008,136.729 68.023,133.938 67.026,131.131 66.026,128.299 65.024,125.465 64.034,122.651 63.048,119.835 62.069,117.029 61.092,114.21 60.121,111.391 59.163,108.585 58.219,105.779 57.282,102.932 56.38,100.058 55.553,97.17 54.826,94.211 54.251,91.215 53.877,88.227 53.706,85.224 53.725,82.246 53.978,79.347 54.475,76.531 55.193,73.766 56.116,71.081 57.237,68.481 58.561,65.96 60.065,63.565 61.733,61.314 63.579,59.178 65.584,57.168 67.743,55.305 70.079,53.568 72.564,51.992 75.222,50.569 78.008,49.33 80.869,48.29 83.797,47.43 86.756,46.733 89.694,46.197 92.628,45.785 95.601,45.478 98.594,45.236 101.548,45.03 104.523,44.855 107.52,44.705 110.477,44.577 113.474,44.455 116.479,44.315 119.452,44.156 122.404,43.96 125.359,43.73 128.326,43.477 131.292,43.207 134.281,42.924 137.28,42.632 140.252,42.331 143.182,42.035 146.119,41.735 149.1,41.435 152.1,41.138 155.058,40.854 158.029,40.585 161.029,40.335 164.033,40.129 167.069,40.0 170.089,40.014 173.116,40.225 176.148,40.675 179.053,41.36 181.735,42.25 184.195,43.318 186.497,44.55 188.744,46.004 191.023,47.73 193.268,49.715 195.42,51.904 197.43,54.248 199.241,56.678 200.882,59.175 202.402,61.758 203.837,64.355 205.232,66.968 206.608,69.617 207.962,72.293 209.293,74.963 210.607,77.614 211.944,80.288 213.286,82.943 214.628,85.586 215.994,88.229 217.364,90.857 218.757,93.508 220.153,96.136 221.548,98.743 222.95,101.358 224.369,103.98 225.798,106.613 227.223,109.223 228.625,111.832 230.061,114.451 231.495,117.073 232.918,119.681 234.323,122.262 235.782,124.916 237.213,127.534 238.626,130.105 240.083,132.756 241.512,135.341 242.953,137.952 244.406,140.564 245.856,143.157 247.318,145.765 248.794,148.339 250.267,150.966 251.764,153.552 253.259,156.082 254.799,158.695 256.321,161.251 257.853,163.766 259.398,166.313 260.971,168.885 262.568,171.441 264.129,173.905 265.727,176.371 267.375,178.876 269.021,181.346 270.67,183.776 272.353,186.207 274.086,188.661 275.833,191.099 277.571,193.482 279.324,195.847 281.095,198.206 282.888,200.573 284.708,202.945 286.542,205.313 288.394,207.658 290.257,210.002 292.125,212.332 294.013,214.654 295.902,216.965 297.803,219.255 299.708,221.532 301.613,223.796 303.542,226.065 305.485,228.35 307.443,230.63 309.379,232.878 311.32,235.107 313.269,237.356 315.231,239.622 317.215,241.893 319.177,244.131 321.114,246.354 323.084,248.615 325.057,250.88 326.996,253.097 328.95,255.329 330.943,257.59 332.925,259.862 334.908,262.061 336.851,264.298 338.843,266.574 340.812,268.792 342.748,271.003 344.737,273.248 346.691,275.483 348.647,277.738 350.616,279.958 352.564,282.201 354.555,284.502 356.559,286.756 358.509,289.001 360.47,291.254 362.462,293.501 364.385,295.752 366.356,297.977 368.314,300.26 370.295,302.518 372.241,304.727 374.15,306.969 376.151,309.251 378.131,311.518 380.058,313.769 382.01,315.976 383.928,318.219 385.914,320.502 387.901,322.786 389.795,325.009 391.72,327.204 393.69,329.506 395.665,331.799 397.605,334.024 399.515,336.252 401.439,338.531 403.42,340.804 405.357,343.074 407.262,345.327 409.204,347.575 411.18,349.853 413.109,352.15 415.064,354.382 417.018,356.678 418.983,358.981 420.92,361.224 422.862,363.503 424.84,365.782 426.798,368.051 428.776,370.376 430.739,372.65 432.677,374.882 434.664,377.115 436.673,379.329 438.822,381.475 441.052,383.526 443.461,385.442 445.982,387.183 448.499,388.633 450.912,389.799 453.266,390.723 455.825,391.52 458.656,392.179 461.626,392.641 464.615,392.899 467.594,392.99 470.564,392.968 473.496,392.934 476.394,393.001 479.259,393.209 482.097,393.577 484.861,394.097 487.631,394.786 490.445,395.672 493.106,396.705 495.698,397.898 498.235,399.256 500.689,400.757 503.063,402.394 505.301,404.111 507.519,405.98 509.75,407.959 511.998,409.949 514.297,411.872 516.675,413.699 518.978,415.318 521.158,416.715 523.468,418.06 525.994,419.392 528.715,420.675 531.546,421.858 534.418,422.91 537.317,423.834 540.244,424.635 543.187,425.304 546.135,425.862 549.083,426.31 552.027,426.657 554.951,426.94 557.91,427.212 560.915,427.479 563.922,427.746 566.901,428.008 569.834,428.264 572.803,428.51 575.742,428.753 578.705,429.003 581.744,429.245 584.703,429.495 587.648,429.738 590.624,429.995 593.6,430.235 596.566,430.513 599.542,430.76 602.52,431.031 605.485,431.295 608.426,431.537 611.417,431.837 614.389,432.077 617.33,432.343 620.343,432.621 623.332,432.872 626.249,433.131 629.233,433.376 632.22,433.64 635.177,433.921 638.149,434.166 641.101,434.401 644.098,434.663 647.077,434.922 650.036,435.182 653.054,435.447 656.027,435.708 658.953,435.96 661.898,436.212 664.891,436.472 667.872,436.738 670.821,436.996 673.829,437.25 676.831,437.512 679.781,437.768 682.723,438.028 685.682,438.298 688.644,438.566 691.641,438.834 694.652,439.113 697.615,439.384 700.58,439.654 703.533,439.924 706.477,440.195 709.451,440.468 712.429,440.746 715.382,441.018 718.332,441.316 721.331,441.618 724.347,441.914 727.322,442.205 730.27,442.512 733.237,442.804 736.221,443.09 739.189,443.401 742.132,443.71 745.094,444.013 748.084,444.329 751.049,444.639 754.0,444.968 756.943,445.26 759.898,445.602 762.887,445.916 765.865,446.228 768.813,446.55 771.766,446.852 774.759,447.199 777.757,447.51 780.716,447.801 783.687,448.119 786.678,448.405 789.623,448.721 792.551,449.022 795.532,449.309 798.522,449.61 801.496,449.903 804.453,450.197 807.425,450.502 810.438,450.814 813.439,451.116 816.399,451.404 819.311,451.694 822.238,452.003 825.212,452.288 828.17,452.59 831.146,452.853 834.134,453.156 837.092,453.458 840.067,453.749 843.012,454.044 845.958,454.312 848.947,454.598 851.906,454.89 854.879,455.167 857.903,455.449 860.91,455.716 863.902,455.989 866.881,456.269 869.817,456.54 872.737,456.812 875.673,457.081 878.625,457.357 881.622,457.627 884.629,457.915 887.603,458.207 890.571,458.485 893.541,458.762 896.533,459.051 899.536,459.349 902.512,459.66 905.5,459.994 908.478,460.409 911.432,460.92 914.381,461.558 917.33,462.343 920.237,463.299 923.005,464.405 925.618,465.652 928.158,467.092 930.557,468.691 932.783,470.432 934.863,472.32 936.794,474.361 938.558,476.517 940.157,478.778 941.591,481.194 942.865,483.736 943.951,486.375 944.816,489.078 945.497,491.853 945.967,494.714 946.245,497.617 946.294,500.529 946.148,503.45 945.774,506.395 945.18,509.374 944.426,512.265 943.473,515.118 942.341,517.923 941.033,520.671 939.58,523.337 937.949,525.97 936.165,528.518 934.241,530.969 932.226,533.281 930.116,535.466 927.845,537.591 925.502,539.599 923.1,541.453 920.612,543.229 918.033,544.907 915.397,546.49 912.76,547.908 910.025,549.222 907.262,550.446 904.485,551.553 901.616,552.605 898.747,553.575 895.878,554.452 892.971,555.274 890.035,556.015 887.115,556.707 884.126,557.316 881.142,557.838 878.183,558.339 875.248,558.716 872.295,559.045 869.287,559.309 866.321,559.543 863.288,559.656 860.301,559.763 857.3,559.833 854.276,559.893 851.325,559.952 848.345,559.985 845.335,559.998 842.392,560.0 839.366,559.992 836.419,559.952 833.457,559.885 830.436,559.819 827.524,559.726 824.553,559.646 821.467,559.547 818.548,559.416 815.615,559.324 812.493,559.161 809.53,558.996 806.609,558.84 803.598,558.659 800.576,558.439 797.634,558.296 794.688,558.143 791.644,557.974 788.686,557.786 785.773,557.617 782.759,557.395 779.783,557.227 776.854,557.037 773.932,556.801 770.949,556.58 768.025,556.308 765.077,556.045 762.064,555.857 759.186,555.592 756.099,555.2 753.08,555.031 751.281,555.408 746.965,555.148" fill="none" stroke="white" stroke-width="4"
            stroke-linejoin="round" stroke-linecap="round"/>
  <line x1="748.597" y1="535.215" x2="745.333" y2="575.081" stroke="red" stroke-width="3" stroke-linecap="round"/>
</svg>
