<?xml version="1.0" encoding="utf-8"?>
<svg xmlns="http://www.w3.org/2000/svg" width="1000" height="600">
  <polyline points="628.341,425.77 624.05,426.969 619.761,428.191 615.437,429.409 611.107,430.623 606.776,431.86 602.461,433.085 598.169,434.305 593.851,435.54 589.525,436.766 585.221,437.992 580.913,439.22 576.601,440.45 572.287,441.678 567.977,442.914 563.664,444.148 559.377,445.377 555.089,446.603 550.753,447.852 546.417,449.088 542.107,450.323 537.8,451.558 533.495,452.793 529.168,454.041 524.818,455.286 520.492,456.527 516.19,457.75 511.896,458.996 507.571,460.226 503.231,461.491 498.914,462.724 494.598,463.961 490.259,465.209 485.921,466.457 481.609,467.695 477.323,468.926 473.038,470.158 468.681,471.417 464.319,472.663 460.059,473.876 455.807,475.11 451.526,476.34 447.221,477.583 442.888,478.821 438.583,480.059 434.306,481.288 430.031,482.518 425.756,483.749 421.4,485.001 416.975,486.254 412.557,487.539 408.182,488.791 403.884,490.028 399.612,491.25 395.289,492.475 390.97,493.726 386.702,494.956 382.461,496.18 378.224,497.414 373.961,498.655 369.672,499.91 365.311,501.198 360.954,502.478 356.595,503.764 352.262,505.035 347.935,506.321 343.576,507.585 339.276,508.869 334.948,510.144 330.6,511.433 326.306,512.726 322.068,513.997 317.76,515.285 313.459,516.585 309.24,517.863 305.024,519.148 300.761,520.459 296.474,521.761 292.063,523.101 287.646,524.481 283.363,525.773 279.093,527.098 274.818,528.407 270.546,529.717 266.245,531.02 261.952,532.33 257.718,533.638 253.469,534.897 249.155,536.29 244.806,537.643 240.543,538.944 236.335,540.246 232.033,541.502 227.718,542.909 223.447,544.193 219.206,545.489 214.881,546.757 210.542,548.108 206.182,549.383 201.862,550.653 197.555,551.884 193.24,553.169 188.917,554.373 184.509,555.6 180.097,556.718 175.74,557.74 171.243,558.623 166.701,559.328 162.215,559.777 157.607,560.0 152.852,559.978 148.045,559.649 143.249,559.003 139.027,558.189 135.486,557.311 132.288,556.342 129.218,555.259 125.941,553.964 122.352,552.377 118.45,550.393 114.487,548.066 110.654,545.462 106.969,542.635 103.516,539.668 100.219,536.544 97.051,533.254 94.109,529.934 91.279,526.481 88.492,522.86 85.823,519.22 83.22,515.518 80.668,511.8 78.168,507.999 75.769,504.144 73.535,500.286 71.4,496.275 69.392,492.166 67.528,488.012 65.755,483.662 64.176,479.308 62.8,474.895 61.62,470.547 60.658,466.441 59.876,462.508 59.225,458.652 58.693,454.759 58.267,450.622 57.952,446.137 57.784,441.584 57.778,437.0 57.921,432.41 58.206,427.806 58.631,423.282 59.191,418.799 59.889,414.257 60.701,409.747 61.604,405.298 62.548,400.888 63.546,396.514 64.582,392.076 65.657,387.651 66.773,383.269 67.961,378.901 69.269,374.561 70.772,370.268 72.518,366.04 74.626,361.917 77.275,357.967 80.404,354.585 83.692,352.102 86.863,350.475 89.909,349.5 92.902,349.014 96.048,348.955 99.589,349.41 103.538,350.609 107.629,352.69 111.408,355.52 114.677,358.857 117.422,362.49 119.771,366.312 121.847,370.286 123.722,374.346 125.472,378.446 127.227,382.579 129.111,386.688 131.172,390.688 133.437,394.507 135.927,398.141 138.694,401.661 141.676,404.99 144.71,407.955 147.866,410.675 151.12,413.178 154.407,415.429 157.808,417.498 161.322,419.394 164.947,421.091 168.706,422.599 172.578,423.9 176.572,424.996 180.857,425.925 185.366,426.633 189.99,427.095 194.678,427.292 199.291,427.225 203.857,426.927 208.345,426.414 212.779,425.707 217.225,424.821 221.629,423.796 225.93,422.658 230.19,421.45 234.528,420.179 238.816,418.891 243.139,417.595 247.4,416.258 251.654,414.92 255.955,413.543 260.212,412.158 264.457,410.808 268.746,409.389 273.062,407.962 277.325,406.561 281.592,405.165 285.858,403.77 290.119,402.387 294.352,401.018 298.608,399.62 302.868,398.266 307.136,396.9 311.447,395.551 315.724,394.207 319.958,392.857 324.238,391.574 328.591,390.251 332.877,388.943 337.121,387.668 341.441,386.399 345.746,385.069 350.051,383.844 354.343,382.496 358.656,381.321 362.92,379.982 367.243,378.804 371.549,377.462 375.899,376.259 380.164,374.991 384.538,373.739 388.866,372.503 393.084,371.254 397.457,370.015 401.763,368.802 406.008,367.531 410.397,366.336 414.695,365.091 418.964,363.875 423.364,362.671 427.66,361.463 431.925,360.278 436.272,359.09 440.624,357.886 444.955,356.722 449.239,355.548 453.575,354.401 457.983,353.231 462.352,352.058 466.612,350.919 470.961,349.783 475.246,348.646 479.645,347.474 484.037,346.336 488.341,345.188 492.71,344.018 497.045,342.874 501.43,341.715 505.84,340.528 510.213,339.362 514.606,338.188 518.987,337.01 523.318,335.821 527.676,334.624 532.043,333.414 536.403,332.184 540.748,330.951 545.106,329.694 549.47,328.39 553.789,327.052 558.065,325.616 562.301,323.98 566.5,322.076 570.558,319.8 574.323,316.97 577.358,313.653 579.339,310.286 580.409,307.165 580.832,304.177 580.734,301.306 580.136,298.517 578.887,295.492 576.685,292.21 573.352,288.995 569.255,286.358 564.955,284.44 560.622,283.029 556.242,281.947 551.831,281.084 547.41,280.383 542.972,279.812 538.527,279.324 534.093,278.878 529.639,278.465 525.173,278.064 520.751,277.672 516.342,277.285 511.907,276.902 507.474,276.524 503.005,276.164 498.498,275.818 494.049,275.475 489.586,275.165 485.117,274.843 480.698,274.563 476.237,274.305 471.754,274.102 467.272,273.948 462.76,273.87 458.244,273.86 453.69,273.947 449.197,274.106 444.715,274.351 440.14,274.703 435.679,275.129 431.221,275.651 426.794,276.259 422.538,276.944 418.278,277.711 413.985,278.58 409.738,279.528 405.559,280.553 401.39,281.663 397.217,282.868 393.143,284.135 389.106,285.475 385.037,286.924 380.947,288.466 376.81,290.129 372.66,291.883 368.521,293.726 364.419,295.634 360.407,297.596 356.47,299.556 352.493,301.639 348.501,303.791 344.639,305.942 340.712,308.17 336.818,310.435 332.94,312.719 329.042,315.031 325.157,317.314 321.283,319.577 317.439,321.791 313.482,324.002 309.517,326.148 305.541,328.202 301.529,330.164 297.433,332.03 293.246,333.786 289.075,335.356 284.738,336.783 280.237,338.053 275.744,339.095 271.239,339.912 266.77,340.499 262.448,340.842 258.318,340.969 254.262,340.897 250.274,340.638 246.309,340.194 242.299,339.57 238.316,338.763 234.288,337.732 230.156,336.455 225.888,334.9 221.649,333.111 217.483,331.112 213.456,328.95 209.547,326.633 205.703,324.139 201.965,321.472 198.351,318.723 194.85,315.87 191.42,312.909 188.078,309.867 184.816,306.696 181.688,303.345 178.753,299.765 176.083,295.897 173.79,291.687 172.124,287.335 171.207,283.158 170.912,279.25 171.105,275.533 171.713,272.078 172.718,268.78 174.151,265.497 175.979,262.395 178.317,259.38 181.232,256.451 184.561,253.781 188.359,251.31 192.396,249.167 196.589,247.349 200.866,245.812 205.191,244.514 209.578,243.402 213.956,242.449 218.307,241.638 222.724,240.927 227.167,240.299 231.578,239.735 236.021,239.213 240.492,238.771 245.064,238.384 249.484,238.055 253.974,237.813 258.515,237.556 262.963,237.333 267.389,237.136 271.894,236.936 276.448,236.717 281.032,236.513 285.535,236.348 290.012,236.117 294.561,235.928 299.029,235.748 303.467,235.539 308.003,235.354 312.48,235.142 316.966,234.914 321.426,234.715 325.885,234.45 330.347,234.18 334.837,233.87 339.283,233.556 343.707,233.165 348.166,232.743 352.621,232.27 357.062,231.753 361.43,231.188 365.851,230.588 370.346,229.928 374.784,229.207 379.172,228.414 383.564,227.534 387.883,226.542 392.273,225.4 396.668,224.117 400.994,222.694 405.262,221.141 409.508,219.422 413.625,217.582 417.625,215.631 421.549,213.55 425.301,211.382 428.948,209.128 432.479,206.762 435.918,204.31 439.206,201.761 442.51,199.069 445.688,196.285 448.779,193.39 451.807,190.375 454.724,187.237 457.551,184.029 460.325,180.616 463.091,177.014 465.677,173.417 468.148,169.682 470.532,165.836 472.785,162.042 474.895,158.082 476.95,154.044 478.9,150.085 480.749,145.977 482.557,141.896 484.301,137.779 486.032,133.63 487.773,129.516 489.47,125.396 491.259,121.278 493.075,117.16 494.922,113.083 496.831,109.028 498.761,105.008 500.729,100.989 502.746,97.017 504.799,93.023 506.934,89.034 509.134,85.058 511.401,81.122 513.726,77.296 516.244,73.4 518.879,69.637 521.782,65.855 524.806,62.291 527.97,58.945 531.421,55.705 535.031,52.734 538.743,50.084 542.755,47.626 546.935,45.463 551.151,43.669 555.529,42.19 559.96,41.068 564.509,40.321 569.183,40.0 573.83,40.165 578.172,40.746 582.005,41.619 585.507,42.737 588.768,44.088 591.905,45.703 595.024,47.645 598.225,50.014 601.452,52.892 604.588,56.26 607.456,60.002 609.96,63.937 612.099,67.929 613.964,71.961 615.651,76.083 617.202,80.277 618.641,84.505 619.985,88.753 621.214,93.0 622.333,97.244 623.369,101.56 624.352,105.915 625.268,110.262 626.138,114.692 626.989,119.102 627.848,123.475 628.74,127.815 629.72,132.161 630.835,136.569 632.04,140.876 633.373,145.127 634.858,149.394 636.464,153.541 638.217,157.618 640.082,161.561 642.081,165.399 644.193,169.067 646.442,172.63 648.849,176.107 651.386,179.465 654.049,182.709 656.854,185.846 659.782,188.85 662.853,191.763 666.069,194.568 669.433,197.27 672.934,199.861 676.511,202.27 680.222,204.565 684.078,206.74 688.036,208.767 692.151,210.666 696.401,212.433 700.686,214.036 704.998,215.463 709.43,216.762 713.855,217.893 718.156,218.864 722.48,219.72 726.953,220.507 731.396,221.219 735.803,221.865 740.237,222.517 744.755,223.168 749.277,223.851 753.754,224.522 758.243,225.153 762.716,225.745 767.212,226.279 771.705,226.713 776.233,227.005 780.798,227.081 785.517,226.838 790.201,226.164 794.605,224.983 798.652,223.253 802.19,221.066 805.199,218.532 807.693,215.741 809.717,212.704 811.278,209.469 812.36,206.089 812.979,202.495 813.091,198.793 812.663,195.002 811.67,191.079 810.124,187.023 808.106,182.994 805.702,179.085 803.001,175.353 800.02,171.777 796.842,168.444 793.572,165.405 790.116,162.513 786.548,159.775 782.855,157.207 779.063,154.779 775.16,152.488 771.127,150.273 767.084,148.148 763.019,146.051 758.975,143.916 754.969,141.695 751.105,139.392 747.285,136.912 743.535,134.231 740.049,131.485 736.651,128.51 733.374,125.268 730.346,121.809 727.59,118.085 725.189,114.102 723.305,110.047 721.952,106.012 721.046,101.959 720.552,98.047 720.429,94.199 720.66,90.445 721.266,86.639 722.231,82.892 723.541,79.289 725.287,75.665 727.501,72.054 730.103,68.633 733.017,65.466 736.211,62.584 739.722,59.95 743.489,57.631 747.436,55.674 751.477,54.099 755.71,52.832 760.0,51.885 764.319,51.234 768.752,50.874 773.165,50.812 777.575,51.032 782.057,51.537 786.513,52.324 790.813,53.349 795.148,54.656 799.403,56.184 803.575,57.923 807.776,59.917 811.927,62.115 815.953,64.452 819.764,66.837 823.539,69.384 827.171,72.003 830.801,74.768 834.311,77.595 837.786,80.452 841.221,83.36 844.639,86.253 848.02,89.174 851.383,92.081 854.795,95.055 858.207,98.027 861.534,100.927 864.897,103.833 868.356,106.82 871.734,109.739 875.191,112.698 878.591,115.631 881.988,118.569 885.394,121.528 888.613,124.394 891.885,127.377 895.132,130.45 898.399,133.654 901.654,136.993 904.742,140.36 907.725,143.768 910.644,147.299 913.431,150.878 916.058,154.48 918.618,158.201 921.062,162.001 923.313,165.791 925.499,169.727 927.52,173.645 929.327,177.446 931.163,181.559 932.803,185.557 934.304,189.57 935.726,193.735 936.987,197.833 938.143,202.172 939.135,206.36 939.993,210.627 940.719,214.82 941.321,219.155 941.75,223.375 942.043,227.528 942.207,231.934 942.222,236.152 942.116,240.373 941.865,244.669 941.459,249.014 940.944,253.194 940.267,257.428 939.463,261.589 938.493,265.816 937.384,270.01 936.138,274.155 934.722,278.336 933.235,282.313 931.617,286.243 929.822,290.27 927.847,294.257 925.865,298.032 923.674,301.835 921.393,305.547 919.012,309.156 916.456,312.763 913.84,316.292 911.019,319.789 908.153,323.207 905.19,326.419 902.156,329.626 898.879,332.755 895.697,335.742 892.278,338.625 888.717,341.509 885.118,344.191 881.609,346.726 877.714,349.263 873.932,351.59 869.891,353.862 865.775,356.011 861.704,358.033 857.488,359.822 853.095,361.65 848.977,363.256 844.693,364.832 840.417,366.342 836.18,367.711 831.883,369.085 827.494,370.439 823.141,371.695 819.058,372.88 814.731,374.058 810.4,375.255 805.883,376.532 801.712,377.688 797.316,378.88 792.947,380.124 788.897,381.331 784.49,382.536 780.156,383.738 775.874,384.925 771.417,386.112 767.025,387.307 762.777,388.488 758.372,389.656 753.967,390.851 749.995,392.043 745.444,393.447 741.091,394.541 736.861,395.734 732.58,396.907 728.174,398.095 723.861,399.225 719.242,400.457 714.952,401.644 710.995,402.678 706.592,403.875 702.068,405.108 697.822,406.27 693.642,407.631 689.112,408.832 684.812,410.038 680.893,411.121 676.457,412.371 671.91,413.586 667.59,414.806 663.525,415.935 659.187,417.008 654.483,418.25 650.166,419.454 646.101,420.587 641.527,421.864 636.951,423.146 634.408,423.858 628.341,425.77" fill="none" stroke="white" stroke-width="4"
            stroke-linejoin="round" stroke-linecap="round"/>
  <line x1="622.959" y1="406.508" x2="633.723" y2="445.032" stroke="red" stroke-width="3" stroke-linecap="round"/>
</svg>
