<?xml version="1.0" encoding="utf-8"?>
<svg xmlns="http://www.w3.org/2000/svg" width="1000" height="600">
  <polyline points="589.219,548.919 584.893,548.711 580.601,548.496 576.256,548.298 571.943,548.102 567.682,547.891 563.335,547.688 558.97,547.487 554.605,547.3 550.273,547.087 546.003,546.885 541.617,546.69 537.251,546.486 532.978,546.298 528.654,546.082 524.344,545.865 520.055,545.666 515.708,545.482 511.336,545.295 507.009,545.086 502.651,544.866 498.303,544.689 494.0,544.469 489.672,544.301 485.375,544.07 481.054,543.884 476.721,543.675 472.36,543.495 468.057,543.291 463.763,543.103 459.396,542.931 454.984,542.723 450.688,542.527 446.478,542.352 442.062,542.174 437.645,541.994 433.333,541.788 429.039,541.621 424.757,541.426 420.363,541.265 416.014,541.081 411.662,540.892 407.33,540.707 402.972,540.55 398.656,540.357 394.32,540.185 390.019,540.015 385.721,539.844 381.376,539.663 376.984,539.499 372.66,539.314 368.354,539.142 363.984,538.979 359.67,538.838 355.349,538.669 351.019,538.504 346.645,538.342 342.322,538.19 338.027,538.038 333.658,537.864 329.321,537.721 324.97,537.561 320.618,537.399 316.308,537.24 311.999,537.076 307.641,536.909 303.237,536.737 298.999,536.584 294.708,536.424 290.307,536.235 285.963,536.112 281.623,535.907 277.311,535.737 273.025,535.608 268.668,535.424 264.292,535.274 259.995,535.065 255.742,534.917 251.314,534.772 247.016,534.554 242.685,534.404 238.243,534.302 234.014,534.05 229.725,533.917 225.315,533.838 220.939,533.612 216.639,533.454 212.289,533.363 207.885,533.192 203.541,533.013 199.238,532.866 194.814,532.739 190.416,532.573 186.042,532.421 181.669,532.258 177.302,532.102 172.922,531.962 168.511,531.83 164.107,531.685 159.746,531.511 155.386,531.388 151.026,531.202 146.671,530.969 142.308,530.604 137.942,530.021 133.588,529.093 129.266,527.564 125.226,525.127 122.343,522.158 120.956,519.84 120.35,518.288 119.903,516.396 119.7,513.32 120.416,509.174 122.212,505.018 124.657,501.405 127.518,498.142 130.584,495.1 133.652,492.099 136.619,488.975 139.409,485.668 141.964,482.141 144.254,478.373 146.039,474.876 147.279,471.944 148.277,469.059 149.17,465.801 149.963,461.834 150.517,457.295 150.698,452.744 150.52,448.282 150.031,443.877 149.298,439.58 148.356,435.361 147.208,431.152 145.928,426.986 144.625,422.872 143.374,418.814 142.227,414.833 141.199,410.886 140.297,406.905 139.53,402.925 138.858,398.907 138.336,394.776 137.903,390.58 137.61,386.303 137.447,381.902 137.365,377.497 137.464,373.123 137.643,368.752 137.924,364.394 138.307,360.069 138.78,355.764 139.343,351.465 139.962,347.185 140.662,342.879 141.429,338.59 142.197,334.353 142.968,330.082 143.831,325.831 144.625,321.62 145.469,317.34 146.35,313.044 147.175,308.794 148.058,304.574 148.903,300.391 149.733,296.159 150.635,291.842 151.453,287.613 152.279,283.405 153.141,279.14 153.998,274.854 154.819,270.596 155.647,266.397 156.487,262.14 157.313,257.884 158.168,253.612 159.002,249.318 159.811,245.058 160.652,240.793 161.455,236.511 162.266,232.262 163.089,228.02 163.902,223.782 164.717,219.509 165.543,215.223 166.357,210.941 167.188,206.69 167.984,202.505 168.781,198.287 169.612,194.02 170.38,189.772 171.226,185.529 172.029,181.223 172.835,176.93 173.652,172.698 174.443,168.472 175.194,164.21 176.041,159.934 176.841,155.658 177.633,151.405 178.427,147.16 179.156,142.898 179.975,138.603 180.767,134.323 181.53,130.036 182.302,125.74 183.007,121.465 183.814,117.202 184.53,112.888 185.308,108.623 186.061,104.347 186.827,99.974 187.588,95.624 188.346,91.299 189.117,86.997 189.888,82.703 190.734,78.387 191.618,74.154 192.625,69.925 193.832,65.691 195.316,61.525 197.18,57.426 199.541,53.435 202.341,49.812 205.113,47.062 207.395,45.252 209.469,43.881 211.574,42.774 213.882,41.792 216.704,40.916 220.2,40.264 224.209,40.0 228.31,40.251 232.439,41.04 236.626,42.323 240.758,44.148 244.784,46.469 248.493,49.117 251.815,51.966 254.839,55.011 257.645,58.227 260.302,61.572 262.887,65.023 265.449,68.562 267.96,72.107 270.453,75.649 272.913,79.177 275.375,82.725 277.832,86.284 280.287,89.782 282.758,93.265 285.209,96.692 287.769,100.125 290.448,103.619 293.143,107.005 295.922,110.327 298.783,113.625 301.692,116.803 304.684,119.878 307.786,122.885 311.014,125.844 314.338,128.709 317.699,131.437 321.101,134.032 324.478,136.48 327.958,138.853 331.513,141.18 335.004,143.37 338.564,145.508 342.153,147.58 345.729,149.576 349.4,151.598 353.201,153.735 356.973,155.972 360.713,158.408 364.316,161.041 367.77,163.918 370.912,166.916 373.648,169.93 376.195,173.19 378.442,176.556 380.341,179.899 382.021,183.426 383.476,187.016 384.649,190.696 385.59,194.541 386.341,198.509 386.873,202.695 387.126,206.99 387.116,211.334 386.916,215.701 386.616,220.077 386.333,224.378 386.151,228.699 386.126,233.004 386.283,237.177 386.619,241.231 387.135,245.181 387.857,249.106 388.81,253.054 389.987,256.991 391.385,260.83 393.058,264.675 395.015,268.526 397.231,272.29 399.695,275.962 402.416,279.533 405.296,282.928 408.265,286.098 411.37,289.094 414.618,291.954 418.015,294.714 421.506,297.354 425.031,299.857 428.628,302.25 432.302,304.58 436.037,306.792 439.87,308.966 443.745,311.096 447.617,313.206 451.52,315.329 455.404,317.493 459.221,319.681 462.996,321.926 466.783,324.249 470.507,326.614 474.176,329.014 477.813,331.484 481.377,334.027 484.828,336.719 488.101,339.643 491.096,342.848 493.793,346.609 495.802,350.905 496.701,355.161 496.651,358.742 496.077,361.567 495.106,364.143 493.41,367.033 490.72,370.086 487.278,372.63 483.262,374.548 478.899,375.826 474.4,376.475 469.873,376.622 465.41,376.432 461.053,375.982 456.77,375.368 452.529,374.661 448.291,373.898 444.053,373.081 439.806,372.204 435.563,371.302 431.348,370.386 427.14,369.427 422.903,368.435 418.713,367.437 414.49,366.443 410.209,365.418 406.031,364.399 401.819,363.385 397.582,362.359 393.391,361.325 389.177,360.3 384.975,359.252 380.73,358.219 376.5,357.175 372.295,356.143 368.052,355.132 363.849,354.132 359.636,353.154 355.394,352.209 351.121,351.291 346.854,350.41 342.648,349.581 338.379,348.802 334.057,348.067 329.791,347.377 325.556,346.758 321.224,346.215 316.896,345.769 312.602,345.438 308.207,345.206 303.839,345.106 299.439,345.145 295.026,345.31 290.723,345.625 286.434,346.06 282.201,346.652 278.007,347.382 273.9,348.261 269.855,349.301 265.774,350.535 261.723,351.984 257.735,353.659 253.752,355.597 249.828,357.821 246.057,360.338 242.494,363.194 239.281,366.302 236.401,369.642 233.885,373.211 231.819,377.192 230.57,381.77 230.47,386.138 230.923,388.961 231.331,390.636 232.385,392.552 234.845,395.3 238.576,398.115 242.669,400.06 246.774,401.341 250.961,402.275 255.218,403.019 259.502,403.663 263.797,404.239 268.065,404.782 272.384,405.279 276.691,405.741 281.014,406.184 285.297,406.609 289.553,407.015 293.911,407.409 298.28,407.808 302.567,408.196 306.877,408.558 311.287,408.911 315.597,409.268 319.89,409.582 324.226,409.877 328.532,410.186 332.876,410.457 337.207,410.713 341.502,410.956 345.896,411.209 350.269,411.424 354.6,411.655 358.898,411.872 363.187,412.084 367.461,412.295 371.774,412.499 376.142,412.727 380.521,412.932 384.832,413.127 389.106,413.331 393.447,413.543 397.787,413.731 402.15,413.94 406.457,414.139 410.756,414.347 415.09,414.546 419.378,414.739 423.742,414.961 428.098,415.156 432.381,415.36 436.746,415.55 441.134,415.779 445.422,415.993 449.723,416.17 454.039,416.392 458.374,416.621 462.727,416.833 467.08,417.063 471.357,417.255 475.668,417.473 480.02,417.685 484.347,417.907 488.679,418.105 492.955,418.33 497.29,418.555 501.652,418.774 506.008,418.992 510.377,419.227 514.72,419.444 519.054,419.681 523.402,419.914 527.674,420.14 531.935,420.358 536.273,420.585 540.662,420.828 545.021,421.054 549.3,421.288 553.6,421.531 557.971,421.759 562.323,422.002 566.638,422.241 570.913,422.483 575.218,422.713 579.621,422.962 583.987,423.21 588.312,423.447 592.621,423.679 596.919,423.91 601.279,424.163 605.569,424.376 609.841,424.617 614.274,424.85 618.707,425.091 623.057,425.311 627.399,425.544 631.735,425.756 636.07,425.959 640.479,426.129 644.894,426.239 649.266,426.221 653.645,426.013 658.052,425.537 662.501,424.719 666.87,423.518 670.974,421.946 674.64,420.107 677.866,418.082 680.704,415.932 683.337,413.572 685.88,410.886 688.272,407.853 690.559,404.35 692.607,400.507 694.308,396.466 695.651,392.223 696.61,387.868 697.188,383.419 697.38,378.905 697.198,374.363 696.682,369.943 695.82,365.463 694.645,361.1 693.16,356.852 691.373,352.698 689.307,348.692 686.994,344.873 684.381,341.144 681.576,337.638 678.599,334.364 675.446,331.275 672.125,328.365 668.674,325.639 665.091,323.088 661.463,320.716 657.798,318.519 654.076,316.431 650.261,314.445 646.449,312.57 642.613,310.783 638.838,309.104 635.045,307.471 631.129,305.847 627.113,304.212 623.094,302.587 619.041,300.925 615.105,299.285 611.215,297.587 607.222,295.736 603.24,293.739 599.366,291.618 595.636,289.361 592.009,286.943 588.513,284.372 585.184,281.675 581.948,278.791 578.863,275.779 575.958,272.652 573.225,269.436 570.648,266.087 568.257,262.679 566.024,259.161 563.939,255.535 562.058,251.921 560.299,248.114 558.7,244.248 557.295,240.32 556.036,236.326 554.997,232.33 554.123,228.245 553.411,224.059 552.904,219.973 552.579,215.796 552.398,211.513 552.433,207.347 552.626,203.052 553.018,198.723 553.574,194.461 554.344,190.188 555.283,185.849 556.456,181.468 557.718,177.318 559.179,173.209 560.778,169.106 562.542,165.123 564.342,161.224 566.224,157.311 568.107,153.494 570.042,149.604 572.003,145.675 573.958,141.818 575.953,137.891 577.972,133.969 579.984,130.175 582.124,126.294 584.433,122.4 586.862,118.631 589.522,114.941 592.311,111.499 595.371,108.186 598.712,105.116 602.279,102.405 606.095,100.062 610.046,98.177 614.182,96.728 618.373,95.748 622.454,95.224 626.25,95.097 629.82,95.311 633.337,95.844 637.034,96.764 640.995,98.164 645.004,100.022 648.784,102.241 652.463,104.889 655.849,107.831 658.954,111.05 661.766,114.446 664.408,118.093 666.801,121.8 669.018,125.516 671.167,129.251 673.255,132.992 675.374,136.818 677.452,140.596 679.517,144.401 681.586,148.154 683.668,152.035 685.704,155.824 687.766,159.69 689.81,163.481 691.825,167.243 693.862,171.023 695.91,174.868 697.952,178.725 699.997,182.592 702.025,186.386 704.006,190.205 706.057,194.038 708.142,197.934 710.145,201.721 712.219,205.529 714.242,209.344 716.269,213.184 718.347,216.975 720.397,220.8 722.491,224.619 724.546,228.458 726.644,232.262 728.678,236.089 730.772,239.856 732.795,243.639 734.884,247.471 736.992,251.271 739.04,255.008 741.2,258.934 743.226,262.647 745.299,266.391 747.395,270.167 749.561,274.069 751.645,277.863 753.715,281.626 755.84,285.435 757.934,289.265 760.043,293.03 762.113,296.777 764.156,300.529 766.252,304.337 768.413,308.172 770.489,311.976 772.602,315.745 774.694,319.554 776.822,323.361 778.901,327.123 781.008,330.909 783.123,334.723 785.227,338.553 787.313,342.306 789.419,346.092 791.522,349.866 793.608,353.584 795.708,357.372 797.84,361.178 799.938,364.976 802.055,368.77 804.164,372.568 806.298,376.374 808.42,380.19 810.542,383.961 812.658,387.732 814.735,391.438 816.865,395.225 819.0,399.011 821.139,402.789 823.286,406.653 825.445,410.44 827.541,414.136 829.713,417.929 831.858,421.731 833.967,425.443 836.138,429.219 838.353,433.005 840.486,436.723 842.685,440.575 844.852,444.344 846.965,447.984 849.156,451.824 851.342,455.62 853.468,459.31 855.64,463.073 857.878,466.942 860.089,470.794 862.255,474.574 864.438,478.388 866.585,482.159 868.732,485.994 870.854,489.805 872.954,493.688 874.941,497.585 876.727,501.527 878.282,505.687 879.476,510.015 880.208,514.636 880.3,519.381 879.813,523.666 879.084,526.899 878.242,529.487 877.069,532.211 875.16,535.595 872.512,539.296 869.413,542.783 866.023,545.841 862.446,548.435 858.733,550.66 854.758,552.648 850.594,554.396 846.348,555.871 841.971,557.107 837.514,558.103 832.972,558.882 828.46,559.43 823.962,559.791 819.512,559.958 815.122,560.0 810.781,559.942 806.345,559.823 802.003,559.647 797.73,559.488 793.484,559.245 789.018,559.052 784.643,558.768 780.302,558.566 776.057,558.324 771.925,558.07 767.532,557.782 763.156,557.56 758.793,557.324 754.388,557.084 750.064,556.826 745.885,556.587 741.459,556.333 736.999,556.106 732.754,555.925 728.4,555.786 724.073,555.512 719.713,555.286 715.432,555.077 711.116,554.83 706.787,554.623 702.532,554.362 698.135,554.161 693.747,553.961 689.511,553.736 685.34,553.364 680.921,553.161 676.461,552.89 672.106,552.701 668.193,552.404 663.463,552.068 658.945,551.848 654.823,551.648 650.949,551.243 646.11,550.9 641.539,550.68 637.37,550.48 633.187,550.279 628.991,550.079 624.783,549.878 620.563,549.676 615.908,549.454 611.238,549.231 606.982,549.028 602.714,548.824 598.436,548.62 595.865,548.498 589.219,548.919" fill="none" stroke="white" stroke-width="4"
            stroke-linejoin="round" stroke-linecap="round"/>
</svg>
