<?xml version="1.0" encoding="utf-8"?>
<svg xmlns="http://www.w3.org/2000/svg" width="1000" height="600">
  <polyline points="638.843,257.104 639.511,259.849 640.241,262.642 640.958,265.476 641.68,268.278 642.409,271.059 643.09,273.823 643.824,276.608 644.547,279.406 645.303,282.23 646.031,285.078 646.761,287.895 647.469,290.673 648.203,293.433 648.925,296.217 649.619,299.035 650.357,301.831 651.09,304.626 651.808,307.422 652.517,310.216 653.25,313.028 653.965,315.826 654.711,318.627 655.416,321.443 656.138,324.253 656.863,327.057 657.576,329.858 658.281,332.653 658.997,335.425 659.719,338.202 660.422,341.034 661.135,343.821 661.843,346.617 662.567,349.462 663.274,352.297 663.976,355.109 664.663,357.872 665.343,360.67 666.061,363.465 666.727,366.261 667.439,369.11 668.122,371.955 668.835,374.757 669.505,377.567 670.194,380.353 670.893,383.168 671.595,386.001 672.28,388.766 672.948,391.564 673.65,394.36 674.351,397.142 675.038,399.993 675.725,402.817 676.43,405.577 677.112,408.386 677.804,411.24 678.516,414.107 679.214,416.921 679.881,419.705 680.577,422.502 681.265,425.288 681.969,428.104 682.624,430.914 683.312,433.707 683.976,436.533 684.635,439.362 685.295,442.173 685.89,445.006 686.475,447.869 687.005,450.732 687.436,453.608 687.773,456.508 687.991,459.411 688.115,462.362 688.097,465.332 687.961,468.203 687.675,471.063 687.255,473.91 686.73,476.639 686.069,479.322 685.28,481.994 684.347,484.622 683.299,487.15 682.122,489.656 680.779,492.052 679.315,494.389 677.688,496.629 675.895,498.774 673.959,500.833 671.908,502.697 669.722,504.415 667.395,506.024 664.924,507.456 662.344,508.676 659.699,509.688 656.945,510.496 654.133,511.049 651.277,511.368 648.377,511.432 645.497,511.229 642.643,510.736 639.855,509.978 637.161,508.946 634.599,507.71 632.189,506.271 629.921,504.544 627.85,502.549 626.051,500.373 624.518,497.998 623.291,495.403 622.434,492.694 621.952,489.902 621.881,487.043 622.236,484.251 622.99,481.644 624.174,479.224 625.689,477.094 627.435,475.385 629.418,473.998 631.574,473.0 633.856,472.35 636.311,472.035 638.926,472.066 641.699,472.406 644.553,472.934 647.421,473.413 650.277,473.626 652.926,473.522 655.341,473.077 657.558,472.267 659.619,471.079 661.464,469.497 662.937,467.636 664.059,465.492 664.73,463.138 664.945,460.653 664.637,458.085 663.819,455.55 662.483,453.093 660.695,450.847 658.56,448.924 656.164,447.272 653.584,445.877 650.892,444.771 648.099,443.94 645.233,443.377 642.357,443.079 639.543,442.961 636.759,443.038 633.976,443.309 631.256,443.752 628.591,444.344 625.951,445.115 623.317,446.018 620.709,447.051 618.072,448.244 615.473,449.571 612.92,450.987 610.39,452.531 607.939,454.171 605.548,455.86 603.259,457.593 601.019,459.415 598.828,461.277 596.673,463.173 594.527,465.09 592.388,467.031 590.26,468.987 588.146,470.928 586.021,472.904 583.916,474.88 581.798,476.834 579.689,478.787 577.575,480.759 575.416,482.737 573.29,484.695 571.17,486.651 569.026,488.604 566.917,490.574 564.78,492.509 562.663,494.431 560.542,496.408 558.384,498.338 556.243,500.273 554.122,502.227 551.932,504.14 549.773,506.062 547.615,507.956 545.398,509.841 543.162,511.704 540.959,513.523 538.71,515.328 536.395,517.123 534.107,518.855 531.871,520.517 529.589,522.137 527.288,523.736 525.005,525.237 522.698,526.689 520.301,528.133 517.82,529.553 515.284,530.942 512.708,532.301 510.051,533.66 507.401,534.966 504.781,536.181 502.174,537.393 499.553,538.545 496.885,539.697 494.18,540.805 491.501,541.883 488.828,542.924 486.113,543.935 483.397,544.957 480.65,545.97 477.883,546.969 475.154,547.964 472.402,548.961 469.666,549.948 466.918,550.92 464.128,551.92 461.384,552.91 458.659,553.877 455.919,554.844 453.163,555.818 450.403,556.78 447.65,557.737 444.859,558.627 442.036,559.364 439.129,559.877 436.103,560.0 433.148,559.542 430.656,558.558 428.802,557.242 427.454,555.709 426.428,553.847 425.746,551.596 425.56,548.97 425.89,546.053 426.698,543.175 427.866,540.433 429.302,537.856 430.918,535.41 432.668,533.062 434.519,530.798 436.469,528.619 438.495,526.513 440.614,524.481 442.802,522.486 445.061,520.604 447.331,518.8 449.691,517.04 452.112,515.35 454.531,513.726 457.033,512.184 459.529,510.678 462.039,509.256 464.607,507.87 467.155,506.555 469.712,505.259 472.335,503.956 474.941,502.709 477.53,501.456 480.17,500.186 482.778,498.934 485.37,497.699 488.018,496.429 490.63,495.166 493.227,493.909 495.824,492.642 498.435,491.345 501.033,490.04 503.546,488.734 506.07,487.414 508.655,486.045 511.238,484.64 513.775,483.222 516.281,481.831 518.756,480.419 521.25,478.938 523.72,477.392 526.153,475.776 528.587,474.027 530.928,472.168 533.155,470.199 535.251,468.161 537.21,466.034 539.083,463.759 540.836,461.384 542.435,458.964 543.903,456.433 545.229,453.841 546.388,451.267 547.416,448.612 548.308,445.867 549.059,443.131 549.667,440.379 550.126,437.627 550.46,434.836 550.645,432.032 550.708,429.228 550.628,426.44 550.409,423.721 550.081,420.967 549.606,418.231 549.013,415.522 548.267,412.824 547.438,410.228 546.454,407.677 545.348,405.11 544.11,402.643 542.765,400.217 541.292,397.867 539.746,395.601 538.046,393.389 536.239,391.214 534.305,389.126 532.297,387.156 530.211,385.272 528.007,383.5 525.723,381.818 523.29,380.203 520.811,378.739 518.269,377.37 515.692,376.115 513.074,374.946 510.393,373.826 507.732,372.723 505.072,371.592 502.446,370.386 499.828,369.102 497.256,367.712 494.784,366.22 492.357,364.601 490.008,362.848 487.811,360.989 485.74,359.033 483.855,356.992 482.14,354.868 480.584,352.642 479.168,350.293 477.908,347.837 476.867,345.361 476.004,342.842 475.328,340.229 474.842,337.566 474.558,334.89 474.499,332.225 474.621,329.516 474.959,326.823 475.477,324.202 476.231,321.591 477.163,319.054 478.326,316.597 479.662,314.215 481.158,311.967 482.864,309.801 484.741,307.804 486.76,305.961 488.952,304.268 491.297,302.726 493.799,301.352 496.411,300.135 499.086,299.072 501.795,298.049 504.517,297.021 507.232,295.951 509.888,294.768 512.485,293.442 514.995,291.875 517.363,289.979 519.427,287.744 521.025,285.352 522.16,282.936 522.888,280.553 523.277,278.276 523.361,275.955 523.146,273.553 522.585,270.997 521.618,268.294 520.268,265.646 518.597,263.13 516.672,260.85 514.584,258.811 512.358,256.999 509.984,255.381 507.449,253.935 504.746,252.675 501.92,251.638 499.069,250.843 496.368,250.309 493.861,249.999 491.448,249.848 489.031,249.846 486.35,250.032 483.463,250.434 480.491,251.063 477.598,251.876 474.83,252.865 472.132,254.026 469.545,255.315 467.049,256.717 464.596,258.204 462.147,259.734 459.725,261.286 457.284,262.855 454.89,264.41 452.489,266.004 450.057,267.601 447.654,269.188 445.226,270.784 442.85,272.341 440.439,273.904 437.989,275.458 435.516,277.031 433.056,278.593 430.618,280.128 428.194,281.652 425.734,283.184 423.266,284.712 420.857,286.206 418.38,287.727 415.879,289.269 413.433,290.768 410.973,292.273 408.502,293.77 406.048,295.294 403.557,296.799 401.096,298.271 398.636,299.789 396.14,301.274 393.68,302.758 391.188,304.265 388.737,305.708 386.249,307.211 383.702,308.705 381.24,310.173 378.779,311.658 376.288,313.11 373.82,314.578 371.33,316.059 368.868,317.497 366.35,318.976 363.831,320.473 361.341,321.92 358.86,323.372 356.321,324.863 353.821,326.338 351.283,327.814 348.736,329.301 346.238,330.758 343.708,332.246 341.165,333.74 338.65,335.209 336.16,336.689 333.644,338.213 331.189,339.792 328.834,341.548 326.659,343.623 324.811,346.087 323.496,348.834 322.882,351.159 322.717,352.926 322.809,354.806 323.322,357.218 324.413,359.876 326.018,362.325 327.941,364.489 329.973,366.534 331.858,368.631 333.458,370.785 334.728,373.016 335.642,375.239 336.221,377.521 336.472,379.922 336.375,382.433 335.851,385.068 334.9,387.736 333.551,390.328 331.835,392.804 329.805,395.065 327.517,397.043 325.017,398.718 322.297,400.102 319.417,401.177 316.477,401.938 313.499,402.402 310.45,402.574 307.425,402.458 304.461,402.071 301.567,401.434 298.74,400.557 296.017,399.447 293.45,398.146 291.019,396.676 288.733,395.053 286.595,393.297 284.605,391.43 282.776,389.46 281.072,387.363 279.485,385.146 278.067,382.874 276.777,380.477 275.624,377.998 274.632,375.441 273.788,372.764 273.109,370.078 272.592,367.348 272.241,364.514 272.057,361.621 272.044,358.808 272.192,355.951 272.506,353.085 272.985,350.261 273.618,347.463 274.427,344.664 275.403,341.883 276.518,339.21 277.781,336.593 279.208,333.998 280.75,331.529 282.469,329.065 284.276,326.732 286.211,324.494 288.21,322.388 290.337,320.37 292.575,318.425 294.876,316.58 297.224,314.843 299.58,313.193 302.011,311.547 304.422,309.932 306.772,308.379 309.234,306.765 311.659,305.179 314.093,303.596 316.49,302.039 318.9,300.499 321.358,298.922 323.788,297.367 326.24,295.808 328.692,294.237 331.029,292.747 333.481,291.184 335.957,289.602 338.425,288.032 340.793,286.509 343.252,284.942 345.699,283.389 348.144,281.852 350.556,280.272 352.978,278.747 355.41,277.177 357.817,275.687 360.3,274.076 362.723,272.514 365.184,270.98 367.62,269.374 370.0,267.879 372.438,266.31 374.815,264.774 377.321,263.18 379.821,261.595 382.217,260.052 384.613,258.485 387.152,256.867 389.42,255.412 391.935,253.761 394.397,252.196 396.738,250.685 399.156,249.092 401.588,247.534 403.959,245.977 406.41,244.406 408.965,242.761 411.326,241.209 413.717,239.655 416.14,238.06 418.57,236.498 420.929,234.945 423.398,233.353 425.801,231.78 428.25,230.166 430.635,228.606 433.115,226.995 435.499,225.44 437.943,223.809 440.344,222.274 442.654,220.744 445.216,219.066 447.487,217.602 449.921,215.979 452.385,214.358 454.841,212.739 457.251,211.196 459.69,209.573 462.088,207.994 464.517,206.414 466.837,204.882 469.366,203.236 471.806,201.624 474.141,200.111 476.56,198.5 479.089,196.891 481.374,195.353 483.715,193.792 486.146,192.228 488.608,190.587 491.197,188.884 493.383,187.418 495.89,185.791 498.475,184.098 500.741,182.602 503.171,180.997 505.664,179.332 508.065,177.753 510.476,176.17 512.815,174.637 515.259,173.019 517.668,171.41 520.067,169.833 522.404,168.327 524.843,166.654 527.314,165.099 529.782,163.421 532.093,161.904 534.577,160.26 536.996,158.691 539.443,157.053 541.792,155.479 544.242,153.914 546.711,152.28 549.039,150.689 551.41,149.132 553.806,147.576 556.3,145.912 558.885,144.21 561.07,142.753 563.522,141.155 565.871,139.537 568.332,137.959 570.724,136.334 573.068,134.743 575.505,133.195 578.026,131.498 580.34,129.959 582.766,128.376 585.234,126.72 587.594,125.171 590.055,123.537 592.397,121.994 594.792,120.415 597.361,118.695 599.562,117.205 602.181,115.479 604.439,113.949 606.932,112.353 609.415,110.717 611.662,109.184 614.015,107.647 616.566,105.908 618.982,104.295 621.448,102.662 623.801,101.12 626.221,99.477 628.481,97.997 631.05,96.273 633.417,94.663 635.825,93.106 638.273,91.445 640.786,89.775 642.999,88.312 645.366,86.675 647.879,85.076 650.229,83.377 652.732,81.84 655.08,80.188 657.496,78.625 659.861,77.052 662.279,75.39 664.521,73.903 667.013,72.273 669.472,70.58 671.979,68.952 674.386,67.32 676.823,65.707 679.18,64.087 681.663,62.46 684.071,60.834 686.455,59.285 688.916,57.648 691.306,56.04 693.817,54.372 696.27,52.749 698.684,51.135 701.141,49.513 703.6,47.92 706.06,46.26 708.515,44.699 710.982,43.152 713.567,41.687 716.342,40.529 719.377,40.0 722.204,40.358 723.934,41.081 724.944,41.783 726.056,42.954 727.347,45.277 727.956,48.428 727.628,51.512 726.7,54.464 725.437,57.168 723.965,59.705 722.329,62.139 720.522,64.512 718.589,66.806 716.527,69.078 714.463,71.176 712.277,73.144 709.936,75.108 707.59,76.937 705.143,78.668 702.81,80.278 700.37,81.903 697.819,83.483 695.503,84.99 693.034,86.508 690.608,87.986 687.956,89.579 685.751,90.93 683.303,92.49 680.716,94.06 678.34,95.623 675.723,97.145 673.378,98.663 671.02,100.084 668.398,101.781 665.912,103.304 663.55,104.807 661.212,106.258 658.773,107.807 656.242,109.455 653.777,111.153 651.351,112.651 649.123,114.238 646.743,115.789 644.272,117.563 642.078,119.183 639.666,120.77 637.312,122.462 634.926,124.095 632.497,125.888 630.099,127.674 627.837,129.422 625.708,131.367 623.469,133.465 621.419,135.631 619.58,138.019 618.147,140.322 617.072,142.392 616.042,144.544 615.268,146.987 614.664,149.707 614.255,152.766 614.124,155.722 614.194,158.423 614.481,161.593 614.904,164.398 615.399,166.894 616.092,169.795 616.751,172.555 617.419,175.248 618.118,177.937 618.856,180.712 619.674,183.74 620.438,186.639 621.187,189.486 621.874,192.231 622.676,195.068 623.391,197.799 624.051,200.427 624.78,203.237 625.473,205.917 626.25,208.989 627.114,212.166 627.783,214.755 628.524,217.455 629.258,220.275 629.967,222.976 630.749,225.889 631.493,228.753 632.32,231.862 632.972,234.521 633.686,237.291 634.334,239.708 635.086,242.51 635.933,245.597 636.639,248.339 637.256,250.737 637.716,252.53 638.843,257.104" fill="none" stroke="white" stroke-width="4"
            stroke-linejoin="round" stroke-linecap="round"/>
</svg>
