<?xml version="1.0" encoding="utf-8"?>
<svg xmlns="http://www.w3.org/2000/svg" width="1000" height="600">
  <polyline points="677.306,536.199 674.246,533.961 671.223,531.725 668.18,529.462 665.153,527.2 662.122,524.919 659.082,522.624 656.059,520.332 653.059,518.069 650.049,515.776 647.023,513.488 643.984,511.175 640.955,508.889 637.977,506.648 634.928,504.356 631.849,502.053 628.855,499.84 625.82,497.589 622.716,495.319 619.688,493.105 616.612,490.854 613.555,488.658 610.497,486.427 607.406,484.205 604.339,481.98 601.243,479.763 598.19,477.551 595.089,475.341 592.001,473.115 588.906,470.922 585.816,468.725 582.723,466.546 579.63,464.387 576.542,462.223 573.402,460.042 570.261,457.851 567.152,455.696 564.037,453.539 560.925,451.383 557.832,449.239 554.704,447.066 551.573,444.876 548.468,442.695 545.384,440.502 542.305,438.293 539.234,436.055 536.184,433.762 533.18,431.433 530.241,429.042 527.365,426.511 524.583,423.866 521.937,421.094 519.368,418.182 516.907,415.14 514.599,412.008 512.535,408.921 510.739,405.955 509.136,403.057 507.635,400.106 506.22,397.048 504.871,393.773 503.602,390.26 502.486,386.707 501.511,383.062 500.682,379.315 500.018,375.595 499.522,371.767 499.182,367.856 499.002,364.035 499.0,360.231 499.142,356.371 499.418,352.604 499.841,348.861 500.316,345.095 500.86,341.353 501.391,337.573 501.9,333.819 502.376,330.06 502.771,326.31 503.061,322.638 503.24,318.942 503.272,315.229 503.181,311.619 502.946,308.0 502.559,304.354 502.045,300.76 501.398,297.251 500.613,293.757 499.66,290.217 498.584,286.739 497.392,283.354 496.025,279.945 494.549,276.607 492.914,273.296 491.13,270.012 489.215,266.799 487.187,263.661 485.03,260.602 482.736,257.588 480.318,254.624 477.803,251.753 475.255,248.957 472.609,246.202 469.965,243.495 467.252,240.78 464.56,238.081 461.862,235.369 459.159,232.652 456.522,229.945 453.876,227.196 451.258,224.399 448.676,221.578 446.123,218.699 443.619,215.792 441.191,212.871 438.829,209.885 436.543,206.772 434.436,203.556 432.523,200.134 430.898,196.489 429.706,192.668 429.102,188.912 429.063,185.523 429.442,182.566 430.11,179.981 431.056,177.54 432.54,174.806 434.759,171.829 437.593,169.065 440.782,166.795 444.162,165.085 447.731,163.853 451.483,163.066 455.356,162.673 459.314,162.498 463.318,162.303 467.206,161.938 470.991,161.266 474.634,160.145 478.117,158.426 481.335,155.93 483.892,152.808 485.502,149.634 486.337,146.61 486.617,143.827 486.476,141.232 485.885,138.475 484.632,135.366 482.566,132.053 479.84,129.037 476.715,126.492 473.382,124.477 469.875,122.821 466.249,121.413 462.6,120.19 458.933,119.119 455.177,118.158 451.399,117.28 447.675,116.481 443.869,115.762 440.087,115.17 436.311,114.725 432.436,114.432 428.582,114.316 424.732,114.373 420.844,114.62 417.01,115.057 413.247,115.673 409.46,116.49 405.758,117.485 402.356,118.579 399.218,119.75 396.263,120.996 393.471,122.302 390.42,123.897 387.043,125.844 383.754,127.946 380.571,130.172 377.482,132.517 374.519,134.973 371.683,137.494 368.973,140.11 366.32,142.807 363.74,145.612 361.207,148.467 358.736,151.301 356.288,154.143 353.812,157.041 351.361,159.943 348.938,162.836 346.514,165.746 344.066,168.711 341.655,171.661 339.281,174.565 336.884,177.491 334.442,180.462 332.068,183.403 329.676,186.309 327.239,189.258 324.841,192.177 322.398,195.111 319.995,198.022 317.545,200.911 315.119,203.837 312.647,206.727 310.202,209.62 307.772,212.458 305.308,215.359 302.87,218.245 300.406,221.099 297.908,224.04 295.438,226.905 293.01,229.761 290.524,232.658 288.061,235.541 285.611,238.364 283.106,241.29 280.575,244.224 278.139,247.026 275.695,249.842 273.188,252.75 270.686,255.654 268.197,258.537 265.743,261.385 263.278,264.251 260.82,267.128 258.349,269.985 255.87,272.882 253.397,275.762 250.912,278.634 248.448,281.483 245.958,284.355 243.464,287.215 240.98,290.074 238.464,292.943 235.976,295.777 233.47,298.632 230.969,301.48 228.469,304.326 225.966,307.171 223.452,310.021 220.956,312.848 218.443,315.689 215.865,318.593 213.338,321.46 210.84,324.288 208.343,327.123 205.86,329.951 203.353,332.809 200.83,335.7 198.372,338.52 195.911,341.366 193.437,344.244 190.904,347.196 188.448,350.095 186.002,353.036 183.603,355.989 181.3,358.964 179.032,362.078 176.879,365.312 174.887,368.658 173.078,372.131 171.498,375.673 170.173,379.284 169.129,382.926 168.386,386.614 167.962,390.343 167.895,393.988 168.199,397.65 168.877,401.242 169.893,404.683 171.253,408.015 172.983,411.249 174.896,414.083 176.907,416.515 179.13,418.744 181.569,420.792 184.37,422.726 187.578,424.528 191.117,426.096 194.82,427.354 198.539,428.283 202.286,428.933 206.058,429.385 209.814,429.739 213.606,430.106 217.367,430.565 220.924,431.156 224.287,431.922 227.558,432.918 230.711,434.197 233.734,435.789 236.596,437.764 239.163,440.092 241.406,442.813 243.249,445.902 244.548,449.223 245.289,452.755 245.458,456.449 245.043,460.043 244.095,463.511 242.617,466.813 240.704,469.822 238.448,472.528 235.874,474.954 233.032,477.05 230.003,478.784 226.77,480.176 223.314,481.238 219.789,481.92 216.127,482.249 212.264,482.234 208.4,481.899 204.576,481.287 200.81,480.43 197.102,479.343 193.467,478.074 189.978,476.698 186.508,475.218 183.036,473.648 179.652,472.06 176.27,470.436 172.848,468.724 169.44,466.972 166.115,465.202 162.795,463.374 159.462,461.476 156.165,459.536 152.929,457.52 149.742,455.485 146.544,453.334 143.404,451.127 140.348,448.88 137.338,446.593 134.416,444.257 131.462,441.783 128.599,439.294 125.846,436.798 123.12,434.199 120.442,431.534 117.851,428.861 115.377,426.167 112.929,423.357 110.499,420.422 108.169,417.542 105.934,414.585 103.792,411.588 101.669,408.536 99.632,405.399 97.697,402.264 95.841,399.096 94.11,395.931 92.484,392.759 90.832,389.426 89.298,386.077 87.808,382.66 86.386,379.161 85.053,375.652 83.758,372.083 82.58,368.502 81.429,364.857 80.379,361.225 79.359,357.493 78.45,353.823 77.554,350.083 76.806,346.336 76.024,342.56 75.37,338.82 74.732,335.146 74.178,331.366 73.644,327.627 73.147,323.901 72.706,320.1 72.264,316.371 71.835,312.577 71.401,308.794 70.976,305.0 70.537,301.19 70.122,297.457 69.703,293.716 69.238,289.944 68.808,286.145 68.385,282.404 67.929,278.609 67.492,274.815 67.097,271.099 66.66,267.274 66.228,263.502 65.807,259.762 65.363,256.013 64.914,252.217 64.481,248.49 64.036,244.622 63.575,241.007 63.13,237.221 62.672,233.401 62.204,229.605 61.777,225.901 61.303,222.061 60.864,218.349 60.422,214.615 59.967,210.781 59.54,207.067 59.102,203.269 58.681,199.474 58.271,195.676 57.878,191.996 57.535,188.245 57.242,184.378 57.043,180.574 56.967,176.81 57.022,172.897 57.237,169.003 57.605,165.232 58.147,161.436 58.865,157.669 59.729,154.07 60.754,150.598 61.934,147.19 63.299,143.829 64.785,140.588 66.445,137.393 68.229,134.333 70.096,131.43 72.168,128.514 74.403,125.667 76.745,122.977 79.354,120.27 82.091,117.678 85.062,115.154 88.183,112.743 91.352,110.543 94.541,108.521 97.876,106.625 101.321,104.857 104.869,103.203 108.443,101.696 112.042,100.362 115.588,99.135 119.248,97.963 122.934,96.853 126.622,95.794 130.243,94.798 133.963,93.808 137.64,92.916 141.405,92.046 145.062,91.222 148.876,90.491 152.579,89.74 156.374,89.123 160.066,88.504 163.834,87.941 167.735,87.386 171.534,86.918 175.213,86.49 179.061,86.103 182.809,85.727 186.647,85.393 190.392,85.104 194.243,84.853 198.071,84.618 201.796,84.39 205.625,84.193 209.421,84.005 213.191,83.814 216.903,83.632 220.821,83.462 224.593,83.271 228.269,83.101 232.041,82.919 235.808,82.732 239.641,82.545 243.41,82.348 247.182,82.168 251.053,81.932 254.83,81.711 258.515,81.478 262.327,81.189 266.145,80.904 269.91,80.551 273.637,80.169 277.364,79.73 281.268,79.21 285.058,78.632 288.778,77.989 292.416,77.297 296.26,76.472 300.018,75.593 303.662,74.656 307.445,73.599 311.087,72.491 314.539,71.372 318.007,70.18 321.482,68.904 324.819,67.601 328.11,66.26 331.533,64.822 334.911,63.373 338.281,61.933 341.74,60.474 345.354,59.008 348.848,57.676 352.572,56.415 356.324,55.33 360.031,54.429 363.502,53.755 366.91,53.245 370.097,52.898 373.48,52.672 376.876,52.582 380.319,52.645 384.002,52.877 387.735,53.307 391.524,53.925 395.285,54.727 399.004,55.669 402.616,56.731 406.22,57.869 409.87,59.035 413.496,60.156 417.089,61.19 420.826,62.118 424.523,62.881 428.234,63.462 431.988,63.861 435.776,64.065 439.467,64.071 443.052,63.892 446.582,63.522 450.029,62.968 453.462,62.225 456.783,61.327 460.014,60.277 463.262,59.03 466.567,57.566 469.753,55.946 473.014,54.083 476.217,52.162 479.516,50.184 482.847,48.271 486.255,46.457 489.688,44.825 493.185,43.391 496.602,42.221 499.985,41.299 503.438,40.615 506.878,40.186 510.33,40.0 513.822,40.063 517.242,40.363 520.592,40.904 524.007,41.714 527.344,42.763 530.69,44.09 534.049,45.725 537.324,47.631 540.499,49.807 543.579,52.232 546.423,54.826 549.153,57.626 551.742,60.621 554.122,63.668 556.297,66.757 558.355,69.95 560.328,73.18 562.301,76.406 564.271,79.533 566.253,82.516 568.37,85.507 570.527,88.341 572.734,91.053 575.074,93.741 577.576,96.42 580.157,99.013 582.84,101.563 585.736,104.082 588.698,106.503 591.666,108.823 594.765,111.045 597.93,113.207 601.129,115.262 604.406,117.267 607.659,119.168 611.044,121.079 614.41,122.874 617.72,124.607 621.032,126.368 624.426,128.052 627.871,129.79 631.166,131.435 634.584,133.148 637.946,134.79 641.259,136.418 644.747,138.118 648.117,139.772 651.549,141.414 655.011,143.086 658.474,144.789 661.799,146.333 665.243,148.017 668.776,149.701 672.145,151.285 675.57,152.913 678.945,154.519 682.399,156.17 685.863,157.795 689.265,159.425 692.629,161.054 696.072,162.672 699.571,164.35 703.015,166.008 706.307,167.608 709.761,169.207 713.18,170.882 716.696,172.507 720.051,174.116 723.463,175.771 726.902,177.379 730.295,179.025 733.724,180.638 737.226,182.295 740.691,183.983 744.003,185.499 747.432,187.189 750.879,188.803 754.313,190.445 757.739,192.073 761.106,193.706 764.573,195.317 767.992,196.987 771.465,198.633 774.797,200.204 778.196,201.843 781.659,203.505 785.134,205.125 788.479,206.772 791.868,208.37 795.301,210.031 798.637,211.658 802.061,213.245 805.51,214.926 808.942,216.584 812.303,218.21 815.774,219.905 819.297,221.618 822.742,223.28 826.099,224.938 829.461,226.636 832.927,228.362 836.294,230.031 839.649,231.778 842.942,233.433 846.367,235.246 849.879,237.064 853.18,238.827 856.511,240.624 859.79,242.384 863.223,244.273 866.499,246.069 869.799,247.924 873.113,249.798 876.363,251.641 879.762,253.606 882.993,255.5 886.224,257.399 889.589,259.397 892.873,261.363 896.152,263.328 899.375,265.285 902.626,267.294 905.904,269.334 909.051,271.347 912.233,273.451 915.384,275.651 918.45,277.951 921.425,280.373 924.275,282.926 927.039,285.689 929.687,288.662 932.114,291.757 934.269,294.901 936.202,298.178 937.833,301.403 939.239,304.704 940.468,308.189 941.449,311.685 942.177,315.123 942.684,318.586 942.972,322.151 943.033,325.743 942.869,329.221 942.487,332.638 941.878,336.083 940.996,339.595 939.912,342.981 938.604,346.3 937.1,349.493 935.299,352.729 933.271,355.869 931.028,358.883 928.519,361.835 925.843,364.601 922.986,367.217 919.876,369.745 916.775,371.979 913.617,374.032 910.339,375.956 907.047,377.75 903.73,379.492 900.422,381.19 897.025,383.0 893.792,384.749 890.604,386.546 887.372,388.405 884.168,390.273 880.974,392.206 877.805,394.126 874.657,396.127 871.512,398.163 868.286,400.272 865.039,402.437 861.993,404.554 858.928,406.683 855.775,408.984 852.752,411.189 849.757,413.451 846.798,415.707 843.674,418.152 840.667,420.57 837.837,422.849 834.933,425.27 832.065,427.727 829.14,430.224 826.181,432.823 823.419,435.269 820.588,437.788 817.717,440.327 814.902,442.86 812.021,445.421 809.169,447.968 806.316,450.522 803.448,453.079 800.669,455.565 797.811,458.128 794.95,460.703 792.189,463.231 789.449,465.876 786.83,468.758 784.519,471.882 782.559,475.432 781.255,479.13 780.718,482.343 780.676,484.902 780.957,487.455 781.704,490.365 783.104,493.616 785.036,496.876 787.093,500.101 789.02,503.414 790.576,506.694 791.642,509.725 792.354,512.711 792.729,515.538 792.817,518.544 792.518,521.992 791.72,525.626 790.358,529.389 788.511,532.947 786.288,536.212 783.773,539.197 781.0,541.963 778.05,544.535 774.971,546.918 771.814,549.085 768.382,551.172 764.935,552.998 761.388,554.634 757.756,556.064 754.145,557.249 750.303,558.27 746.403,559.051 742.626,559.575 738.664,559.911 734.845,560.0 731.087,559.87 727.496,559.553 724.254,559.102 721.233,558.543 717.928,557.784 714.406,556.818 710.866,555.62 707.102,554.167 703.42,552.59 699.927,550.916 696.624,549.161 693.455,547.316 690.245,545.295 687.007,543.123 683.943,540.978 682.079,539.651 677.306,536.199" fill="none" stroke="white" stroke-width="4"
            stroke-linejoin="round" stroke-linecap="round"/>
  <line x1="689.113" y1="520.056" x2="665.499" y2="552.342" stroke="red" stroke-width="3" stroke-linecap="round"/>
</svg>
