<?xml version="1.0" encoding="utf-8"?>
<svg xmlns="http://www.w3.org/2000/svg" width="1000" height="600">
  <polyline points="512.341,42.973 510.161,43.326 507.99,43.676 505.793,44.043 503.595,44.407 501.407,44.769 499.23,45.13 497.063,45.478 494.864,45.829 492.666,46.168 490.479,46.507 488.296,46.841 486.114,47.176 483.922,47.489 481.722,47.81 479.502,48.131 477.307,48.445 475.144,48.768 472.933,49.072 470.727,49.381 468.562,49.697 466.367,49.998 464.12,50.316 461.92,50.608 459.757,50.924 457.521,51.221 455.328,51.509 453.16,51.822 450.947,52.094 448.779,52.407 446.556,52.688 444.337,52.973 442.17,53.266 439.944,53.549 437.762,53.838 435.544,54.117 433.349,54.402 431.166,54.687 428.933,54.964 426.76,55.25 424.531,55.521 422.36,55.803 420.151,56.073 417.946,56.356 415.747,56.621 413.52,56.904 411.331,57.173 409.133,57.451 406.936,57.721 404.747,57.996 402.541,58.266 400.352,58.543 398.138,58.816 395.934,59.087 393.739,59.36 391.53,59.633 389.326,59.902 387.082,60.182 384.862,60.461 382.598,60.75 380.365,61.05 378.103,61.367 375.823,61.724 373.559,62.138 371.335,62.642 369.166,63.266 367.048,64.031 364.978,64.972 363.028,66.084 361.239,67.365 359.753,68.67 358.617,69.857 357.624,71.071 356.611,72.526 355.602,74.281 354.679,76.278 353.908,78.386 353.278,80.537 352.744,82.608 352.259,84.544 351.728,86.43 351.1,88.273 350.35,90.097 349.464,91.892 348.464,93.611 347.36,95.264 346.119,96.935 344.778,98.617 343.403,100.295 341.987,102.069 340.633,103.923 339.51,105.757 338.672,107.572 338.132,109.386 337.909,111.055 337.956,112.617 338.261,114.195 338.848,115.788 339.787,117.42 341.058,118.954 342.628,120.291 344.531,121.459 346.641,122.392 348.813,123.083 350.978,123.603 353.158,124.003 355.372,124.3 357.592,124.505 359.826,124.621 362.082,124.65 364.329,124.598 366.596,124.464 368.871,124.254 371.121,123.959 373.343,123.599 375.565,123.172 377.707,122.698 379.85,122.154 381.986,121.554 384.109,120.903 386.223,120.203 388.293,119.467 390.354,118.708 392.411,117.908 394.456,117.096 396.518,116.264 398.594,115.416 400.666,114.555 402.696,113.716 404.712,112.884 406.755,112.012 408.815,111.162 410.845,110.318 412.879,109.465 414.952,108.621 417.012,107.786 419.062,106.974 421.154,106.188 423.24,105.42 425.351,104.687 427.485,103.979 429.637,103.309 431.792,102.676 433.947,102.083 436.125,101.518 438.314,101.003 440.529,100.52 442.773,100.08 445.015,99.697 447.256,99.371 449.518,99.112 451.781,98.928 454.024,98.828 456.282,98.84 458.56,98.992 460.836,99.317 463.096,99.859 465.263,100.618 467.151,101.484 468.728,102.371 470.263,103.402 471.874,104.692 473.419,106.177 474.837,107.818 476.123,109.614 477.25,111.523 478.21,113.547 478.977,115.701 479.551,117.913 479.97,120.146 480.249,122.425 480.388,124.697 480.421,126.934 480.376,129.144 480.271,131.359 480.13,133.567 479.985,135.768 479.822,138.005 479.661,140.203 479.486,142.403 479.311,144.613 479.136,146.818 478.96,149.051 478.792,151.265 478.619,153.46 478.45,155.635 478.288,157.845 478.137,160.085 477.973,162.294 477.831,164.504 477.684,166.716 477.539,168.9 477.384,171.154 477.251,173.382 477.112,175.52 476.972,177.751 476.834,180.019 476.706,182.231 476.583,184.393 476.455,186.609 476.323,188.845 476.202,191.077 476.082,193.275 475.962,195.482 475.841,197.701 475.719,199.905 475.598,202.143 475.478,204.364 475.353,206.586 475.236,208.774 475.12,210.961 474.997,213.196 474.874,215.443 474.74,217.673 474.616,219.86 474.477,222.06 474.336,224.312 474.194,226.484 474.037,228.643 473.858,230.933 473.661,233.155 473.46,235.313 473.227,237.506 472.987,239.721 472.708,241.968 472.398,244.167 472.085,246.341 471.72,248.544 471.343,250.728 470.909,252.962 470.438,255.144 469.974,257.292 469.454,259.428 468.941,261.562 468.382,263.671 467.812,265.793 467.207,267.902 466.58,269.962 465.927,272.059 465.225,274.125 464.503,276.187 463.75,278.228 462.983,280.242 462.175,282.304 461.339,284.332 460.472,286.358 459.579,288.412 458.655,290.41 457.715,292.414 456.758,294.394 455.742,296.389 454.714,298.397 453.649,300.332 452.591,302.286 451.511,304.176 450.384,306.084 449.254,308.045 448.069,309.927 446.933,311.818 445.76,313.694 444.561,315.57 443.375,317.466 442.157,319.3 440.941,321.146 439.722,323.045 438.492,324.859 437.259,326.687 436.036,328.555 434.789,330.387 433.559,332.234 432.337,334.101 431.088,335.96 429.852,337.813 428.633,339.672 427.417,341.524 426.186,343.397 424.994,345.264 423.797,347.135 422.597,349.024 421.4,350.932 420.22,352.835 419.062,354.696 417.882,356.625 416.714,358.55 415.561,360.46 414.399,362.396 413.272,364.307 412.143,366.269 411.053,368.25 410.062,370.231 409.176,372.326 408.456,374.513 407.947,376.747 407.687,378.922 407.67,380.885 407.851,382.696 408.219,384.472 408.832,386.364 409.765,388.39 410.967,390.351 412.342,392.135 413.847,393.76 415.475,395.275 417.177,396.687 418.931,398.015 420.743,399.286 422.62,400.509 424.524,401.658 426.485,402.745 428.516,403.795 430.558,404.782 432.618,405.737 434.706,406.681 436.787,407.605 438.832,408.531 440.863,409.448 442.908,410.387 444.936,411.326 446.941,412.274 448.967,413.252 450.988,414.233 452.974,415.222 454.948,416.225 456.92,417.256 458.855,418.329 460.741,419.534 462.545,420.991 464.075,422.709 465.129,424.498 465.705,426.156 465.949,427.713 465.923,429.426 465.511,431.41 464.633,433.46 463.386,435.394 461.945,437.16 460.417,438.758 458.805,440.262 457.124,441.685 455.373,443.029 453.545,444.302 451.643,445.506 449.694,446.666 447.713,447.825 445.753,448.999 443.847,450.213 441.993,451.502 440.172,452.885 438.404,454.357 436.707,455.902 435.102,457.494 433.577,459.143 432.115,460.872 430.739,462.671 429.463,464.548 428.313,466.496 427.314,468.512 426.486,470.628 425.881,472.803 425.537,474.916 425.43,476.926 425.521,478.804 425.798,480.662 426.297,482.631 427.044,484.662 428.037,486.685 429.24,488.609 430.596,490.389 432.081,492.048 433.695,493.624 435.405,495.09 437.217,496.467 439.102,497.746 441.007,498.919 442.909,500.012 444.867,501.09 446.831,502.138 448.791,503.163 450.769,504.186 452.746,505.205 454.714,506.22 456.698,507.25 458.663,508.266 460.631,509.291 462.608,510.315 464.577,511.339 466.534,512.366 468.455,513.382 470.411,514.411 472.389,515.44 474.338,516.49 476.306,517.517 478.258,518.552 480.242,519.609 482.219,520.67 484.159,521.712 486.104,522.757 488.046,523.796 489.986,524.861 491.975,525.916 493.911,526.966 495.855,528.024 497.792,529.075 499.729,530.129 501.693,531.215 503.638,532.28 505.587,533.358 507.537,534.434 509.464,535.509 511.389,536.584 513.306,537.68 515.244,538.782 517.15,539.881 519.057,540.994 520.977,542.131 522.929,543.301 524.808,544.449 526.648,545.58 528.498,546.732 530.397,547.923 532.322,549.14 534.188,550.324 535.996,551.472 537.886,552.667 539.842,553.891 541.759,555.059 543.709,556.179 545.695,557.208 547.781,558.133 549.95,558.91 552.034,559.467 553.97,559.816 555.987,560.0 558.204,559.97 560.442,559.682 562.633,559.146 564.768,558.363 566.785,557.37 568.703,556.169 570.46,554.8 572.093,553.252 573.564,551.571 574.858,549.803 576.016,547.916 577.014,545.961 577.872,543.947 578.622,541.904 579.302,539.868 579.97,537.834 580.668,535.798 581.472,533.754 582.498,531.698 583.818,529.718 585.098,528.262 586.166,527.301 587.436,526.362 589.197,525.373 591.318,524.523 593.485,523.955 595.697,523.612 597.908,523.439 600.091,523.361 602.284,523.284 604.402,523.154 606.523,522.906 608.609,522.52 610.601,521.993 612.522,521.32 614.401,520.491 616.257,519.489 618.083,518.316 619.871,516.974 621.573,515.493 623.14,513.923 624.598,512.254 625.954,510.485 627.209,508.642 628.379,506.771 629.54,504.87 630.724,502.97 631.951,501.133 633.269,499.306 634.647,497.551 636.081,495.874 637.587,494.26 639.188,492.692 640.857,491.207 642.58,489.823 644.345,488.55 646.161,487.377 648.025,486.29 649.925,485.264 651.915,484.226 653.936,483.163 655.922,482.031 657.8,480.768 659.503,479.311 660.901,477.607 661.765,475.793 662.091,474.149 662.002,472.559 661.493,470.913 660.507,469.269 658.987,467.746 657.121,466.536 655.123,465.601 653.035,464.867 650.871,464.267 648.678,463.767 646.453,463.336 644.235,462.949 642.016,462.584 639.801,462.227 637.628,461.886 635.449,461.544 633.248,461.204 631.065,460.862 628.874,460.526 626.669,460.178 624.485,459.839 622.302,459.494 620.112,459.154 617.926,458.799 615.737,458.466 613.571,458.115 611.388,457.772 609.184,457.415 606.982,457.069 604.796,456.707 602.624,456.358 600.443,456.004 598.256,455.636 596.076,455.29 593.885,454.917 591.696,454.554 589.514,454.189 587.31,453.823 585.143,453.464 582.961,453.079 580.767,452.712 578.587,452.345 576.395,451.961 574.225,451.582 572.052,451.197 569.865,450.819 567.688,450.43 565.52,450.037 563.363,449.635 561.195,449.222 559.016,448.801 556.835,448.379 554.652,447.927 552.491,447.47 550.331,447.009 548.143,446.521 545.986,446.014 543.826,445.512 541.633,444.975 539.444,444.425 537.293,443.871 535.147,443.31 532.989,442.718 530.845,442.128 528.69,441.51 526.565,440.885 524.456,440.257 522.293,439.589 520.149,438.911 518.014,438.23 515.884,437.533 513.784,436.837 511.665,436.128 509.531,435.402 507.415,434.676 505.307,433.945 503.162,433.199 501.047,432.457 498.945,431.717 496.831,430.96 494.731,430.189 492.643,429.387 490.586,428.523 488.584,427.542 486.638,426.375 484.803,424.976 483.286,423.405 482.208,421.851 481.464,420.347 480.915,418.649 480.593,416.59 480.623,414.257 481.101,411.813 481.96,409.493 483.053,407.451 484.33,405.571 485.754,403.815 487.267,402.168 488.833,400.591 490.415,399.08 492.032,397.573 493.665,396.054 495.29,394.54 496.904,393.022 498.497,391.497 500.093,389.957 501.694,388.394 503.267,386.843 504.839,385.264 506.39,383.683 507.925,382.091 509.436,380.472 510.914,378.852 512.384,377.192 513.829,375.514 515.249,373.821 516.656,372.097 518.046,370.346 519.4,368.582 520.698,366.815 521.979,364.996 523.222,363.138 524.433,361.246 525.602,359.327 526.704,357.415 527.762,355.488 528.746,353.584 529.689,351.664 530.574,349.744 531.398,347.836 532.193,345.872 532.949,343.861 533.655,341.83 534.31,339.801 534.933,337.719 535.505,335.606 536.024,333.506 536.517,331.33 536.959,329.096 537.357,326.89 537.697,324.696 537.998,322.507 538.259,320.324 538.493,318.086 538.688,315.829 538.865,313.61 539.01,311.412 539.148,309.207 539.273,307.002 539.392,304.808 539.503,302.604 539.606,300.39 539.698,298.167 539.782,295.934 539.883,293.692 539.952,291.473 540.045,289.269 540.106,287.105 540.197,284.895 540.275,282.634 540.345,280.389 540.434,278.172 540.512,275.983 540.571,273.773 540.666,271.559 540.737,269.34 540.797,267.149 540.894,264.939 540.967,262.681 541.033,260.465 541.13,258.264 541.193,256.036 541.28,253.819 541.36,251.597 541.423,249.356 541.526,247.142 541.591,244.925 541.675,242.69 541.74,240.503 541.817,238.26 541.899,236.059 541.987,233.842 542.08,231.609 542.167,229.404 542.249,227.172 542.343,224.99 542.426,222.716 542.508,220.51 542.59,218.295 542.674,216.067 542.756,213.873 542.838,211.621 542.932,209.434 543.021,207.184 543.121,204.905 543.215,202.65 543.325,200.424 543.435,198.206 543.556,195.926 543.682,193.669 543.821,191.447 543.982,189.242 544.182,186.994 544.482,184.767 544.965,182.534 545.705,180.343 546.749,178.279 547.957,176.582 549.168,175.291 550.432,174.225 551.927,173.229 553.717,172.336 555.78,171.572 557.894,170.951 559.943,170.365 561.893,169.71 563.747,168.955 565.549,168.052 567.239,167.031 568.851,165.861 570.375,164.545 571.791,163.093 573.127,161.469 574.376,159.653 575.478,157.715 576.433,155.648 577.219,153.486 577.832,151.262 578.267,149.088 578.568,146.897 578.763,144.702 578.899,142.487 578.988,140.276 579.045,138.015 579.076,135.814 579.105,133.662 579.139,131.353 579.174,129.077 579.227,126.906 579.302,124.707 579.378,122.505 579.489,120.25 579.609,118.019 579.744,115.878 579.88,113.683 580.032,111.412 580.149,109.234 580.311,107.066 580.46,104.875 580.633,102.634 580.785,100.411 580.949,98.239 581.11,95.983 581.275,93.749 581.43,91.624 581.59,89.324 581.748,87.045 581.883,84.925 582.01,82.712 582.098,80.392 582.133,78.239 582.078,75.967 581.895,73.612 581.575,71.315 581.118,69.065 580.587,67.084 579.905,65.066 579.125,63.146 578.312,61.45 577.403,59.808 576.325,58.108 574.956,56.204 573.513,54.454 572.026,52.857 570.451,51.337 568.714,49.839 566.97,48.487 565.144,47.234 563.248,46.073 561.403,45.095 559.059,44.011 556.89,43.12 554.667,42.341 552.589,41.724 550.475,41.204 548.134,40.744 545.963,40.418 543.769,40.189 541.357,40.042 539.132,40.0 536.896,40.047 534.654,40.177 532.404,40.383 530.147,40.642 528.086,40.913 525.805,41.234 523.51,41.574 521.415,41.897 519.323,42.234 517.008,42.621 515.527,42.874 512.341,42.973" fill="none" stroke="white" stroke-width="4"
            stroke-linejoin="round" stroke-linecap="round"/>
  <line x1="509.144" y1="23.230" x2="515.538" y2="62.716" stroke="red" stroke-width="3" stroke-linecap="round"/>
</svg>
