<?xml version="1.0" encoding="utf-8"?>
<svg xmlns="http://www.w3.org/2000/svg" width="1000" height="600">
  <polyline points="220.105,395.917 217.122,397.958 214.152,399.982 211.2,401.983 208.233,404.008 205.241,406.036 202.284,408.047 199.31,410.064 196.341,412.086 193.398,414.099 190.412,416.115 187.407,418.164 184.433,420.185 181.45,422.204 178.459,424.239 175.489,426.247 172.521,428.257 169.535,430.286 166.571,432.302 163.62,434.284 160.647,436.296 157.655,438.319 154.686,440.316 151.681,442.32 148.672,444.331 145.722,446.304 142.676,448.308 139.633,450.317 136.635,452.291 133.618,454.272 130.566,456.266 127.522,458.248 124.493,460.222 121.425,462.215 118.389,464.184 115.363,466.139 112.303,468.102 109.231,470.047 106.129,471.941 102.976,473.722 99.678,475.3 96.163,476.534 92.397,477.024 89.273,476.43 87.524,475.494 86.461,474.603 85.447,473.444 84.245,471.422 83.182,468.062 82.947,464.144 83.519,460.471 84.586,457.05 85.915,453.739 87.391,450.459 88.918,447.224 90.467,444.035 92.049,440.828 93.661,437.62 95.285,434.421 96.938,431.234 98.615,428.042 100.324,424.888 102.067,421.728 103.851,418.539 105.647,415.421 107.449,412.33 109.305,409.23 111.17,406.154 113.061,403.107 114.979,400.085 116.907,397.088 118.883,394.077 120.893,391.106 122.922,388.153 124.957,385.234 127.024,382.354 129.148,379.464 131.309,376.589 133.496,373.736 135.698,370.934 137.945,368.131 140.205,365.383 142.481,362.68 144.803,360.002 147.206,357.31 149.658,354.651 152.099,352.076 154.617,349.528 157.103,346.989 159.655,344.513 162.256,341.997 164.864,339.535 167.509,337.085 170.167,334.66 172.82,332.277 175.509,329.88 178.2,327.478 180.875,325.117 183.562,322.734 186.258,320.355 188.944,317.969 191.644,315.601 194.327,313.218 197.001,310.831 199.664,308.454 202.341,306.058 205.043,303.622 207.724,301.185 210.346,298.795 212.955,296.4 215.591,293.964 218.25,291.465 220.867,288.932 223.436,286.385 225.955,283.818 228.373,281.248 230.763,278.589 233.148,275.834 235.49,273.022 237.75,270.194 239.92,267.405 242.009,264.626 244.06,261.822 246.126,258.947 248.22,256.01 250.321,253.088 252.44,250.198 254.646,247.299 256.903,244.509 259.213,241.879 261.603,239.392 264.079,237.042 266.724,234.796 269.486,232.689 272.313,230.748 275.285,228.914 278.348,227.227 281.499,225.697 284.731,224.297 288.0,223.05 291.358,221.904 294.78,220.831 298.212,219.782 301.637,218.757 305.091,217.699 308.451,216.645 311.753,215.553 315.02,214.378 318.238,213.125 321.523,211.749 324.746,210.292 327.972,208.74 331.197,207.105 334.388,205.386 337.542,203.612 340.625,201.798 343.7,199.894 346.708,197.977 349.71,196.017 352.721,193.966 355.667,191.96 358.584,189.927 361.545,187.791 364.456,185.701 367.287,183.627 370.21,181.469 373.144,179.273 376.003,177.162 378.847,175.047 381.772,172.9 384.727,170.72 387.656,168.605 390.543,166.569 393.423,164.564 396.406,162.527 399.477,160.459 402.522,158.48 405.495,156.562 408.488,154.674 411.492,152.823 414.515,150.991 417.59,149.188 420.712,147.428 423.886,145.7 427.073,144.041 430.259,142.438 433.474,140.88 436.709,139.359 439.968,137.885 443.217,136.446 446.498,135.037 449.833,133.635 453.171,132.273 456.489,130.962 459.823,129.678 463.185,128.417 466.576,127.186 469.994,125.975 473.396,124.795 476.796,123.634 480.208,122.501 483.613,121.377 487.022,120.251 490.435,119.127 493.852,118.001 497.271,116.872 500.684,115.759 504.095,114.63 507.511,113.503 510.944,112.373 514.369,111.252 517.763,110.128 521.134,109.014 524.527,107.905 527.962,106.779 531.408,105.635 534.86,104.5 538.261,103.382 541.646,102.262 545.05,101.137 548.444,100.026 551.864,98.891 555.315,97.75 558.728,96.632 562.108,95.498 565.516,94.391 568.961,93.257 572.41,92.123 575.805,91.009 579.2,89.896 582.624,88.767 586.039,87.653 589.422,86.531 592.827,85.425 596.24,84.292 599.648,83.141 603.107,81.997 606.506,80.852 609.876,79.74 613.292,78.596 616.712,77.476 620.115,76.324 623.505,75.22 626.968,74.057 630.368,72.909 633.782,71.78 637.184,70.624 640.595,69.498 643.996,68.341 647.433,67.197 650.846,66.034 654.233,64.911 657.597,63.762 661.0,62.621 664.444,61.447 667.834,60.283 671.257,59.123 674.684,57.953 678.04,56.805 681.416,55.646 684.831,54.454 688.247,53.285 691.651,52.101 695.061,50.902 698.434,49.746 701.815,48.564 705.248,47.363 708.683,46.187 712.111,45.005 715.526,43.863 718.98,42.773 722.494,41.778 726.046,40.938 729.666,40.327 733.317,40.0 736.915,40.037 740.32,40.451 743.496,41.223 746.545,42.377 749.473,43.88 752.257,45.74 754.87,47.93 757.422,50.4 760.056,52.934 762.666,55.185 765.298,57.128 768.12,58.805 771.121,60.158 774.365,61.145 777.784,61.742 781.344,61.925 784.971,61.689 788.488,61.074 791.951,60.087 795.33,58.772 798.634,57.295 801.94,55.847 805.301,54.519 808.74,53.402 812.26,52.569 815.834,52.055 819.407,51.878 822.909,52.047 826.28,52.537 829.535,53.326 832.718,54.422 835.835,55.826 838.888,57.553 841.863,59.599 844.726,61.938 847.363,64.462 849.783,67.101 852.078,69.916 854.243,72.763 856.324,75.632 858.398,78.585 860.444,81.562 862.492,84.543 864.526,87.495 866.577,90.411 868.663,93.345 870.773,96.266 872.922,99.167 875.037,102.032 877.19,104.908 879.388,107.814 881.558,110.674 883.717,113.508 885.878,116.332 888.066,119.172 890.274,122.017 892.498,124.869 894.728,127.72 896.943,130.549 899.141,133.353 901.347,136.185 903.59,139.109 905.776,142.027 907.862,144.957 909.871,147.986 911.744,151.088 913.462,154.322 914.943,157.664 916.076,161.019 916.788,164.313 917.053,167.64 916.827,171.001 916.087,174.213 914.819,177.262 913.033,180.048 910.775,182.456 908.1,184.431 905.125,185.904 901.964,186.848 898.689,187.274 895.373,187.197 892.071,186.642 888.788,185.598 885.663,184.102 882.661,182.125 879.876,179.708 877.454,177.025 875.336,174.097 873.504,171.022 871.851,167.837 870.274,164.592 868.69,161.313 867.071,158.081 865.4,154.903 863.63,151.735 861.77,148.656 859.774,145.66 857.575,142.782 855.139,140.099 852.419,137.631 849.511,135.508 846.565,133.808 843.549,132.452 840.377,131.41 837.117,130.705 833.732,130.331 830.176,130.296 826.527,130.605 822.926,131.215 819.393,132.086 816.0,133.151 812.667,134.365 809.309,135.687 805.989,137.019 802.659,138.374 799.36,139.743 796.062,141.116 792.75,142.491 789.416,143.847 786.098,145.193 782.792,146.464 779.442,147.749 776.015,148.988 772.694,150.152 769.358,151.283 765.954,152.381 762.521,153.474 759.064,154.515 755.613,155.513 752.154,156.471 748.726,157.383 745.247,158.283 741.772,159.142 738.325,159.947 734.802,160.753 731.31,161.499 727.793,162.247 724.256,162.954 720.76,163.675 717.228,164.355 713.703,165.053 710.189,165.741 706.7,166.423 703.15,167.138 699.627,167.824 696.109,168.511 692.598,169.207 689.084,169.905 685.54,170.614 682.019,171.341 678.547,172.079 675.008,172.858 671.463,173.658 668.02,174.486 664.602,175.38 661.112,176.409 657.637,177.581 654.236,178.888 650.95,180.346 647.767,181.969 644.667,183.788 641.81,185.714 639.073,187.823 636.469,190.12 634.078,192.528 631.8,195.156 629.691,197.964 627.789,200.915 626.099,203.998 624.618,207.217 623.358,210.531 622.297,213.981 621.445,217.551 620.801,221.157 620.356,224.759 620.115,228.344 620.048,231.938 620.144,235.52 620.403,239.119 620.855,242.764 621.49,246.342 622.31,249.881 623.309,253.339 624.475,256.726 625.817,260.02 627.329,263.254 628.976,266.384 630.795,269.418 632.727,272.345 634.791,275.179 637.028,277.909 639.364,280.539 641.849,283.037 644.42,285.429 647.091,287.678 649.898,289.857 652.783,291.918 655.799,293.871 658.889,295.742 662.056,297.496 665.255,299.141 668.462,300.685 671.797,302.127 675.125,303.498 678.487,304.781 681.852,306.007 685.292,307.193 688.705,308.343 692.146,309.445 695.582,310.5 699.009,311.52 702.415,312.521 705.911,313.552 709.399,314.571 712.814,315.575 716.269,316.595 719.754,317.624 723.216,318.656 726.622,319.699 730.076,320.761 733.543,321.848 736.992,322.952 740.376,324.056 743.749,325.18 747.189,326.336 750.634,327.505 754.097,328.676 757.467,329.819 760.831,330.976 764.191,332.144 767.654,333.377 771.102,334.656 774.446,335.997 777.739,337.462 780.984,339.114 784.144,340.986 787.126,343.058 789.903,345.349 792.426,347.856 794.632,350.548 796.512,353.428 798.076,356.498 799.306,359.73 800.178,363.094 800.665,366.463 800.787,369.925 800.554,373.325 799.967,376.716 799.061,380.013 797.883,383.284 796.519,386.647 795.132,389.978 793.818,393.326 792.662,396.703 791.75,400.088 791.12,403.479 790.793,406.898 790.786,410.273 791.107,413.641 791.775,417.038 792.773,420.332 794.093,423.515 795.721,426.579 797.682,429.548 799.952,432.373 802.497,435.007 805.211,437.374 808.131,439.566 811.122,441.525 814.237,443.354 817.415,445.082 820.617,446.719 823.874,448.303 827.144,449.819 830.401,451.308 833.694,452.788 836.968,454.277 840.249,455.798 843.537,457.362 846.754,458.98 849.903,460.631 853.093,462.357 856.257,464.113 859.398,465.9 862.545,467.764 865.587,469.727 868.487,471.858 871.332,474.328 873.808,476.969 875.883,479.798 877.554,482.771 878.835,485.9 879.686,489.038 880.164,492.303 880.257,495.69 879.927,499.173 879.162,502.707 877.994,506.198 876.512,509.514 874.798,512.669 872.934,515.708 870.946,518.722 868.943,521.686 866.926,524.646 864.872,527.617 862.811,530.557 860.711,533.475 858.531,536.404 856.294,539.239 853.955,541.959 851.431,544.58 848.792,547.007 846.004,549.255 843.092,551.3 840.088,553.12 837.054,554.689 833.89,556.078 830.614,557.271 827.317,558.234 823.927,558.989 820.463,559.542 816.979,559.868 813.441,560.0 809.852,559.914 806.224,559.625 802.534,559.111 798.951,558.435 795.449,557.571 792.075,556.58 788.675,555.437 785.249,554.181 781.854,552.841 778.479,551.402 775.245,549.933 771.995,548.363 768.729,546.684 765.545,544.965 762.415,543.182 759.276,541.316 756.252,539.428 753.26,537.453 750.259,535.425 747.292,533.323 744.371,531.174 741.495,529.014 738.625,526.772 735.865,524.535 733.063,522.224 730.307,519.843 727.633,517.477 724.961,515.074 722.332,512.614 719.702,510.105 717.16,507.606 714.651,505.065 712.117,502.417 709.616,499.748 707.213,497.091 704.88,494.477 702.54,491.727 700.238,488.968 698.003,486.227 695.772,483.417 693.547,480.521 691.409,477.687 689.352,474.842 687.288,471.92 685.249,468.966 683.278,466.032 681.318,463.011 679.344,459.96 677.433,456.873 675.557,453.784 673.73,450.749 671.953,447.719 670.15,444.611 668.356,441.475 666.53,438.283 664.791,435.205 663.012,432.037 661.26,428.924 659.478,425.757 657.766,422.723 655.978,419.556 654.19,416.436 652.33,413.288 650.499,410.298 648.536,407.21 646.559,404.238 644.476,401.239 642.348,398.305 640.19,395.455 638.014,392.707 635.718,389.919 633.388,387.214 630.989,384.559 628.595,382.02 626.099,379.481 623.502,376.951 620.924,374.546 618.311,372.213 615.639,369.951 612.913,367.735 610.09,365.543 607.183,363.399 604.242,361.301 601.312,359.348 598.271,357.352 595.272,355.517 592.167,353.684 589.019,351.899 585.799,350.161 582.671,348.552 579.455,346.956 576.234,345.429 572.895,343.919 569.585,342.471 566.194,341.025 562.861,339.626 559.637,338.287 556.297,336.921 552.833,335.514 549.527,334.223 546.235,333.011 542.826,331.86 539.389,330.812 535.905,329.873 532.262,329.021 528.762,328.33 525.189,327.752 521.651,327.318 518.197,327.024 514.814,326.854 511.208,326.795 507.672,326.862 504.265,327.059 500.863,327.374 497.339,327.823 493.758,328.414 490.25,329.125 486.7,329.965 483.192,330.926 479.669,332.027 476.353,333.183 472.937,334.473 469.595,335.826 466.29,337.252 462.999,338.693 459.764,340.169 456.457,341.683 453.191,343.188 449.848,344.74 446.602,346.232 443.333,347.715 440.015,349.231 436.832,350.693 433.468,352.191 430.171,353.67 426.871,355.082 423.535,356.504 420.303,357.861 417.004,359.189 413.754,360.46 410.374,361.746 406.932,363.008 403.67,364.168 400.294,365.3 396.84,366.435 393.455,367.502 389.916,368.55 386.465,369.561 382.951,370.509 379.549,371.415 376.147,372.239 372.692,373.051 369.124,373.829 365.686,374.582 362.085,375.277 358.448,375.958 354.798,376.582 351.315,377.157 347.717,377.716 344.163,378.226 340.464,378.745 336.891,379.238 333.364,379.722 329.813,380.211 326.195,380.712 322.521,381.214 318.954,381.691 315.347,382.153 311.7,382.566 308.13,382.836 304.446,382.795 300.782,382.122 297.588,380.644 295.465,378.848 293.971,376.805 292.804,374.028 292.078,370.533 291.444,366.962 290.475,364.042 289.066,361.822 287.249,360.151 284.812,358.936 281.493,358.478 277.704,359.103 274.351,360.42 271.211,362.066 268.026,363.936 264.989,365.823 261.951,367.742 258.901,369.714 256.145,371.527 253.113,373.558 250.23,375.565 247.088,377.639 244.218,379.582 241.205,381.6 238.262,383.603 235.271,385.645 232.317,387.456 229.123,389.532 226.197,391.515 224.488,392.674 220.105,395.917" fill="none" stroke="white" stroke-width="4"
            stroke-linejoin="round" stroke-linecap="round"/>
</svg>
