<?xml version="1.0" encoding="utf-8"?>
<svg xmlns="http://www.w3.org/2000/svg" width="1000" height="600">
  <polyline points="456.909,157.965 458.334,156.715 459.76,155.451 461.176,154.211 462.591,152.977 464.031,151.723 465.469,150.476 466.9,149.228 468.339,147.994 469.77,146.741 471.218,145.503 472.65,144.254 474.089,143.007 475.526,141.765 476.952,140.523 478.389,139.281 479.825,138.029 481.263,136.787 482.688,135.543 484.13,134.287 485.569,133.033 486.984,131.805 488.423,130.549 489.868,129.292 491.288,128.052 492.718,126.814 494.16,125.551 495.609,124.289 497.033,123.046 498.446,121.809 499.877,120.563 501.324,119.292 502.768,118.041 504.197,116.789 505.616,115.546 507.026,114.305 508.466,113.048 509.896,111.792 511.333,110.54 512.781,109.273 514.206,108.018 515.622,106.773 517.05,105.515 518.49,104.259 519.918,103.0 521.337,101.744 522.761,100.491 524.186,99.238 525.603,97.982 527.045,96.714 528.487,95.443 529.924,94.179 531.339,92.925 532.739,91.691 534.141,90.443 535.562,89.187 537.001,87.911 538.442,86.635 539.879,85.366 541.316,84.093 542.748,82.825 544.168,81.568 545.592,80.314 547.007,79.059 548.425,77.806 549.851,76.548 551.263,75.298 552.676,74.048 554.096,72.792 555.517,71.536 556.944,70.274 558.378,69.004 559.814,67.736 561.236,66.476 562.653,65.224 564.073,63.973 565.502,62.718 566.936,61.456 568.367,60.202 569.814,58.938 571.256,57.683 572.7,56.433 574.156,55.183 575.601,53.949 577.052,52.735 578.521,51.55 580.019,50.397 581.557,49.273 583.12,48.195 584.737,47.147 586.423,46.127 588.106,45.194 589.762,44.349 591.449,43.571 593.177,42.851 594.919,42.208 596.656,41.651 598.434,41.164 600.226,40.755 602.039,40.433 603.922,40.193 605.817,40.047 607.726,40.0 609.671,40.063 611.588,40.243 613.481,40.554 615.397,41.007 617.245,41.599 619.02,42.342 620.75,43.264 622.367,44.354 623.834,45.607 625.118,46.973 626.211,48.378 627.16,49.856 627.977,51.45 628.636,53.126 629.117,54.815 629.413,56.524 629.527,58.286 629.451,60.064 629.197,61.819 628.771,63.533 628.168,65.22 627.38,66.912 626.44,68.543 625.346,70.1 624.109,71.587 622.757,72.965 621.307,74.251 619.812,75.437 618.279,76.554 616.698,77.608 615.073,78.615 613.415,79.563 611.738,80.462 610.027,81.33 608.315,82.185 606.599,83.046 604.886,83.928 603.192,84.841 601.555,85.772 599.935,86.761 598.332,87.787 596.759,88.853 595.207,89.964 593.709,91.117 592.23,92.361 590.819,93.677 589.5,95.056 588.251,96.519 587.13,98.014 586.133,99.536 585.239,101.101 584.451,102.689 583.757,104.316 583.154,106.003 582.645,107.779 582.25,109.592 581.956,111.415 581.729,113.308 581.53,115.217 581.308,117.138 581.034,119.008 580.68,120.788 580.203,122.565 579.598,124.308 578.89,125.938 578.059,127.477 577.078,128.996 575.981,130.433 574.796,131.759 573.49,133.019 572.059,134.213 570.516,135.315 568.882,136.317 567.18,137.204 565.435,137.969 563.652,138.626 561.837,139.177 560.003,139.649 558.164,140.097 556.316,140.572 554.484,141.12 552.695,141.76 550.988,142.496 549.355,143.344 547.793,144.306 546.333,145.358 544.962,146.507 543.666,147.761 542.469,149.097 541.374,150.501 540.368,152.0 539.456,153.599 538.673,155.236 538.012,156.912 537.446,158.69 536.99,160.544 536.651,162.432 536.422,164.334 536.288,166.219 536.219,168.089 536.157,169.987 536.056,171.914 535.886,173.765 535.627,175.573 535.257,177.404 534.776,179.191 534.183,180.908 533.449,182.59 532.56,184.229 531.544,185.771 530.419,187.201 529.185,188.531 527.84,189.761 526.391,190.878 524.854,191.869 523.268,192.716 521.624,193.424 519.911,193.994 518.172,194.419 516.412,194.692 514.599,194.821 512.755,194.804 510.9,194.648 509.029,194.358 507.178,193.941 505.363,193.41 503.585,192.773 501.808,192.048 500.031,191.312 498.253,190.624 496.444,190.022 494.601,189.537 492.727,189.177 490.854,188.955 488.988,188.872 487.143,188.924 485.309,189.106 483.523,189.399 481.766,189.813 480.016,190.351 478.337,190.998 476.693,191.756 475.088,192.62 473.537,193.586 472.039,194.672 470.593,195.881 469.239,197.169 467.944,198.566 466.711,200.089 465.585,201.666 464.565,203.276 463.627,204.966 462.792,206.674 462.046,208.429 461.368,210.228 460.746,212.064 460.183,213.913 459.695,215.756 459.264,217.654 458.896,219.544 458.609,221.42 458.376,223.34 458.198,225.275 458.077,227.195 458.036,229.12 458.067,231.025 458.162,232.923 458.32,234.826 458.541,236.723 458.827,238.612 459.175,240.478 459.579,242.3 460.039,244.091 460.566,245.899 461.156,247.72 461.793,249.491 462.486,251.219 463.245,252.966 464.068,254.699 464.925,256.367 465.843,258.021 466.819,259.659 467.831,261.239 468.907,262.809 470.016,264.338 471.182,265.835 472.364,267.282 473.594,268.686 474.866,270.067 476.171,271.395 477.518,272.702 478.911,273.966 480.35,275.213 481.816,276.409 483.308,277.598 484.823,278.748 486.342,279.885 487.877,281.018 489.396,282.122 490.948,283.248 492.485,284.361 494.01,285.48 495.549,286.625 497.053,287.75 498.563,288.902 500.11,290.088 501.603,291.246 503.082,292.42 504.56,293.63 506.015,294.908 507.412,296.255 508.708,297.661 509.906,299.118 510.975,300.58 511.942,302.054 512.808,303.588 513.629,305.3 514.364,307.108 514.978,308.931 515.479,310.791 515.862,312.635 516.157,314.515 516.379,316.425 516.561,318.329 516.734,320.229 516.899,322.125 517.068,324.049 517.241,325.971 517.409,327.863 517.568,329.781 517.691,331.699 517.736,333.621 517.643,335.566 517.367,337.461 516.879,339.246 516.215,340.808 515.414,342.146 514.432,343.408 513.209,344.636 511.747,345.779 510.071,346.786 508.309,347.586 506.515,348.204 504.673,348.726 502.822,349.174 500.97,349.562 499.114,349.916 497.24,350.263 495.361,350.614 493.493,350.956 491.641,351.301 489.789,351.646 487.925,352.022 486.047,352.412 484.174,352.817 482.323,353.22 480.467,353.631 478.622,354.046 476.778,354.466 474.938,354.89 473.075,355.321 471.226,355.762 469.377,356.202 467.532,356.649 465.707,357.088 463.837,357.549 461.99,358.0 460.17,358.446 458.338,358.889 456.485,359.334 454.614,359.774 452.756,360.196 450.897,360.593 449.026,360.945 447.145,361.235 445.239,361.454 443.32,361.595 441.407,361.652 439.519,361.628 437.678,361.525 435.842,361.342 433.994,361.078 432.174,360.734 430.377,360.314 428.571,359.809 426.766,359.235 424.971,358.599 423.2,357.927 421.439,357.224 419.657,356.498 417.879,355.769 416.101,355.047 414.318,354.336 412.535,353.661 410.716,353.092 408.824,352.676 406.921,352.517 405.133,352.732 403.655,353.304 402.477,354.194 401.607,355.327 401.088,356.531 400.866,357.912 400.991,359.414 401.516,360.983 402.492,362.582 403.793,364.049 405.255,365.335 406.793,366.455 408.389,367.483 410.03,368.429 411.704,369.313 413.399,370.164 415.09,370.993 416.778,371.827 418.465,372.677 420.14,373.54 421.816,374.429 423.489,375.335 425.143,376.252 426.788,377.179 428.434,378.127 430.058,379.102 431.679,380.111 433.274,381.157 434.798,382.229 436.303,383.364 437.776,384.557 439.203,385.806 440.542,387.072 441.836,388.394 443.108,389.798 444.299,391.219 445.448,392.705 446.532,394.237 447.549,395.797 448.496,397.389 449.373,399.003 450.188,400.665 450.937,402.355 451.619,404.077 452.243,405.838 452.8,407.641 453.289,409.469 453.715,411.317 454.074,413.193 454.371,415.078 454.604,416.933 454.785,418.828 454.909,420.74 454.993,422.639 455.024,424.521 455.012,426.41 454.972,428.302 454.884,430.212 454.774,432.091 454.616,433.975 454.431,435.88 454.209,437.765 453.952,439.648 453.651,441.54 453.322,443.38 452.948,445.256 452.533,447.146 452.098,448.992 451.618,450.821 451.1,452.649 450.548,454.465 449.96,456.288 449.34,458.076 448.675,459.879 447.962,461.664 447.22,463.416 446.432,465.148 445.6,466.876 444.749,468.537 443.832,470.221 442.879,471.869 441.885,473.492 440.862,475.077 439.82,476.603 438.71,478.141 437.572,479.638 436.372,481.127 435.143,482.581 433.913,483.957 432.615,485.34 431.289,486.685 429.948,487.972 428.566,489.233 427.158,490.451 425.691,491.667 424.214,492.828 422.718,493.934 421.191,495.01 419.622,496.054 418.017,497.064 416.419,498.015 414.764,498.954 413.103,499.843 411.42,500.7 409.695,501.547 407.974,502.359 406.271,503.141 404.536,503.919 402.787,504.708 401.042,505.483 399.322,506.249 397.607,507.02 395.872,507.802 394.122,508.6 392.383,509.398 390.673,510.193 388.947,511.007 387.235,511.839 385.52,512.723 383.829,513.664 382.19,514.681 380.611,515.785 379.109,516.988 377.722,518.271 376.485,519.6 375.365,520.997 374.343,522.486 373.434,524.044 372.637,525.672 371.951,527.389 371.379,529.208 370.938,531.103 370.644,532.998 370.488,534.902 370.473,536.852 370.599,538.815 370.853,540.749 371.221,542.647 371.703,544.526 372.294,546.385 373.002,548.204 373.834,549.949 374.814,551.621 375.958,553.196 377.247,554.62 378.599,555.834 380.035,556.887 381.573,557.805 383.192,558.563 384.844,559.154 386.501,559.584 388.221,559.871 389.958,560.0 391.719,559.974 393.509,559.789 395.345,559.441 397.172,558.939 398.938,558.307 400.656,557.544 402.395,556.622 404.061,555.581 405.61,554.456 407.088,553.22 408.495,551.887 409.818,550.5 411.062,549.064 412.248,547.585 413.402,546.08 414.531,544.557 415.644,543.02 416.77,541.447 417.843,539.895 418.911,538.31 419.98,536.727 421.006,535.182 422.082,533.572 423.153,531.968 424.182,530.401 425.197,528.832 426.214,527.245 427.234,525.635 428.248,524.006 429.247,522.383 430.238,520.726 431.225,519.07 432.177,517.445 433.111,515.843 434.056,514.18 434.997,512.499 435.924,510.83 436.83,509.186 437.724,507.519 438.62,505.825 439.511,504.14 440.374,502.467 441.228,500.784 442.072,499.067 442.918,497.36 443.739,495.665 444.57,493.939 445.375,492.206 446.183,490.493 446.97,488.74 447.763,486.986 448.51,485.294 449.246,483.556 450.012,481.818 450.725,480.047 451.471,478.264 452.171,476.532 452.857,474.761 453.551,473.009 454.217,471.236 454.902,469.437 455.556,467.666 456.208,465.879 456.847,464.103 457.491,462.274 458.124,460.473 458.749,458.719 459.372,456.902 459.983,455.082 460.596,453.308 461.192,451.553 461.809,449.717 462.428,447.863 463.018,446.08 463.621,444.297 464.22,442.512 464.829,440.693 465.445,438.832 466.033,437.073 466.611,435.301 467.231,433.5 467.819,431.691 468.439,429.872 469.036,428.028 469.635,426.244 470.231,424.439 470.827,422.6 471.408,420.842 472.003,419.057 472.609,417.218 473.197,415.382 473.786,413.584 474.381,411.786 474.96,409.981 475.556,408.162 476.141,406.38 476.73,404.59 477.309,402.787 477.907,400.963 478.503,399.14 479.106,397.316 479.695,395.48 480.281,393.671 480.856,391.9 481.437,390.129 482.033,388.3 482.619,386.473 483.21,384.662 483.782,382.9 484.374,381.072 484.961,379.263 485.548,377.444 486.148,375.604 486.738,373.779 487.317,371.976 487.902,370.181 488.484,368.382 489.053,366.611 489.642,364.779 490.229,362.946 490.808,361.151 491.381,359.331 491.949,357.498 492.502,355.675 493.012,353.86 493.489,352.004 493.928,350.152 494.333,348.298 494.689,346.432 494.971,344.51 495.181,342.619 495.312,340.751 495.373,338.953 495.376,337.115 495.312,335.289 495.181,333.445 494.981,331.542 494.708,329.653 494.378,327.831 493.964,325.945 493.482,324.068 492.956,322.256 492.339,320.438 491.674,318.631 490.95,316.863 490.169,315.123 489.319,313.367 488.452,311.665 487.549,309.998 486.556,308.312 485.554,306.693 484.498,305.069 483.409,303.47 482.317,301.928 481.134,300.397 479.966,298.892 478.75,297.442 477.482,295.977 476.194,294.553 474.859,293.134 473.526,291.777 472.174,290.422 470.841,289.114 469.5,287.779 468.101,286.488 466.684,285.158 465.25,283.85 463.866,282.57 462.487,281.298 461.1,280.009 459.721,278.74 458.291,277.42 456.909,276.134 455.542,274.856 454.11,273.53 452.674,272.19 451.269,270.865 449.899,269.576 448.508,268.247 447.133,266.902 445.733,265.52 444.371,264.156 443.027,262.787 441.71,261.404 440.393,259.938 439.168,258.457 438.0,256.882 436.986,255.278 436.132,253.498 435.57,251.581 435.393,249.799 435.528,248.266 435.906,246.756 436.64,245.061 437.606,243.4 438.518,241.79 439.242,240.146 439.685,238.565 439.856,237.068 439.812,235.595 439.522,233.906 438.941,232.211 438.099,230.455 437.117,228.796 436.025,227.21 434.939,225.763 433.846,224.316 432.751,222.782 431.785,221.283 430.91,219.705 430.099,217.989 429.425,216.248 428.908,214.544 428.476,212.756 428.149,210.992 427.929,209.215 427.797,207.274 427.758,205.434 427.83,203.6 427.992,201.724 428.234,199.765 428.57,197.95 428.965,196.192 429.511,194.213 430.1,192.395 430.75,190.64 431.467,188.876 432.273,187.124 433.117,185.483 434.058,183.773 435.026,182.181 436.097,180.545 437.081,179.091 438.284,177.408 439.471,175.832 440.668,174.413 441.909,172.92 443.154,171.5 444.442,170.046 445.651,168.797 447.061,167.373 448.495,165.925 449.704,164.743 450.98,163.503 452.686,161.907 453.93,160.773 454.7,160.077 456.909,157.965" fill="none" stroke="white" stroke-width="4"
            stroke-linejoin="round" stroke-linecap="round"/>
</svg>
