<?xml version="1.0" encoding="utf-8"?>
<svg xmlns="http://www.w3.org/2000/svg" width="1000" height="600">
  <polyline points="547.647,530.928 548.796,529.3 549.935,527.691 551.073,526.091 552.222,524.469 553.367,522.861 554.52,521.275 555.68,519.645 556.852,518.04 558.008,516.454 559.176,514.862 560.354,513.244 561.538,511.637 562.719,510.042 563.9,508.438 565.066,506.848 566.256,505.248 567.448,503.644 568.607,502.078 569.793,500.468 570.995,498.846 572.165,497.274 573.361,495.672 574.543,494.066 575.726,492.496 576.902,490.88 578.088,489.296 579.283,487.705 580.459,486.098 581.653,484.505 582.835,482.916 584.023,481.316 585.217,479.718 586.4,478.128 587.58,476.553 588.762,474.959 589.949,473.36 591.145,471.771 592.342,470.162 593.527,468.573 594.713,466.999 595.897,465.418 597.084,463.823 598.284,462.232 599.474,460.63 600.682,459.026 601.885,457.424 603.076,455.829 604.261,454.239 605.446,452.666 606.622,451.095 607.812,449.507 608.997,447.925 610.189,446.332 611.392,444.723 612.589,443.141 613.772,441.569 614.958,439.996 616.154,438.417 617.353,436.828 618.556,435.24 619.757,433.649 620.97,432.055 622.181,430.472 623.387,428.894 624.596,427.318 625.801,425.751 627.006,424.185 628.22,422.613 629.439,421.028 630.658,419.447 631.869,417.873 633.081,416.301 634.287,414.74 635.487,413.18 636.699,411.614 637.914,410.043 639.146,408.444 640.362,406.869 641.569,405.301 642.795,403.694 644.015,402.096 645.205,400.503 646.376,398.901 647.533,397.271 648.667,395.597 649.754,393.908 650.771,392.183 651.734,390.37 652.611,388.458 653.349,386.443 653.844,384.379 653.977,382.245 653.672,380.248 653.04,378.641 652.266,377.425 651.555,376.614 650.873,376.009 649.891,375.333 648.273,374.59 646.195,374.135 644.086,374.073 642.03,374.309 640.058,374.75 638.166,375.317 636.323,375.991 634.513,376.764 632.732,377.606 630.965,378.502 629.203,379.434 627.446,380.374 625.7,381.304 623.95,382.219 622.169,383.124 620.386,383.988 618.602,384.812 616.787,385.592 614.94,386.337 613.077,387.025 611.203,387.644 609.31,388.184 607.394,388.631 605.453,388.984 603.532,389.231 601.608,389.378 599.69,389.43 597.812,389.392 595.931,389.26 594.052,389.033 592.196,388.715 590.36,388.308 588.541,387.812 586.738,387.224 584.956,386.545 583.235,385.791 581.559,384.955 579.885,384.027 578.273,383.034 576.694,381.961 575.138,380.797 573.647,379.566 572.192,378.255 570.772,376.859 569.401,375.392 568.095,373.876 566.859,372.314 565.699,370.722 564.593,369.098 563.529,367.416 562.507,365.688 561.518,363.92 560.591,362.17 559.69,360.425 558.771,358.619 557.869,356.835 556.961,355.088 556.015,353.297 555.055,351.551 554.061,349.839 553.019,348.133 551.935,346.481 550.804,344.851 549.608,343.254 548.356,341.682 547.047,340.164 545.686,338.689 544.271,337.271 542.833,335.923 541.379,334.656 539.897,333.455 538.417,332.334 536.927,331.28 535.387,330.264 533.774,329.277 532.122,328.335 530.444,327.428 528.716,326.508 526.95,325.537 525.197,324.499 523.482,323.385 521.845,322.221 520.286,321.01 518.801,319.755 517.446,318.513 516.174,317.25 514.956,315.947 513.778,314.586 512.609,313.126 511.459,311.572 510.33,309.945 509.215,308.294 508.065,306.632 506.849,305.004 505.583,303.467 504.282,302.04 502.959,300.725 501.63,299.523 500.287,298.416 498.886,297.356 497.421,296.346 495.855,295.371 494.162,294.427 492.391,293.553 490.547,292.756 488.607,292.028 486.693,291.408 484.771,290.864 482.879,290.368 481.067,289.884 479.233,289.345 477.446,288.747 475.727,288.086 474.042,287.343 472.401,286.517 470.781,285.59 469.176,284.543 467.623,283.393 466.133,282.137 464.728,280.79 463.413,279.354 462.183,277.819 461.055,276.204 460.039,274.516 459.15,272.782 458.375,270.974 457.731,269.128 457.23,267.287 456.858,265.42 456.623,263.582 456.512,261.771 456.52,259.966 456.641,258.165 456.873,256.372 457.225,254.534 457.702,252.65 458.278,250.802 458.96,248.959 459.745,247.122 460.593,245.338 461.491,243.567 462.401,241.782 463.27,239.982 464.077,238.166 464.813,236.339 465.477,234.436 466.041,232.489 466.483,230.528 466.8,228.487 466.961,226.433 466.961,224.496 466.834,222.745 466.606,221.116 466.265,219.459 465.784,217.746 465.129,215.949 464.313,214.144 463.37,212.407 462.295,210.715 461.121,209.109 459.855,207.581 458.489,206.122 457.047,204.749 455.533,203.458 453.963,202.237 452.362,201.07 450.737,199.907 449.117,198.712 447.555,197.453 446.087,196.109 444.754,194.674 443.588,193.152 442.602,191.538 441.824,189.856 441.266,188.129 440.904,186.372 440.734,184.577 440.759,182.784 440.976,181.054 441.392,179.348 442.004,177.683 442.778,176.111 443.692,174.623 444.734,173.172 445.857,171.745 447.028,170.242 448.246,168.582 449.359,166.867 450.215,165.31 450.867,163.895 451.415,162.468 451.916,160.895 452.368,159.054 452.72,157.012 452.911,154.949 452.945,152.894 452.834,150.875 452.611,148.888 452.3,146.933 451.921,144.99 451.477,143.056 450.995,141.148 450.483,139.237 449.949,137.308 449.4,135.374 448.86,133.471 448.302,131.557 447.747,129.648 447.177,127.767 446.579,125.863 445.943,123.951 445.277,122.083 444.568,120.231 443.811,118.393 442.999,116.56 442.113,114.703 441.199,112.924 440.279,111.257 439.336,109.662 438.376,108.128 437.379,106.633 436.325,105.141 435.16,103.59 433.903,102.012 432.606,100.467 431.268,98.959 429.903,97.505 428.488,96.092 427.05,94.697 425.585,93.355 424.104,92.05 422.594,90.769 421.049,89.498 419.499,88.254 417.946,87.025 416.375,85.817 414.8,84.601 413.237,83.405 411.637,82.195 410.034,80.975 408.485,79.796 406.934,78.609 405.336,77.39 403.746,76.156 402.187,74.937 400.637,73.721 399.074,72.487 397.517,71.256 395.95,70.008 394.375,68.747 392.822,67.501 391.29,66.265 389.778,65.048 388.24,63.792 386.675,62.523 385.118,61.253 383.58,59.997 382.022,58.718 380.466,57.44 378.926,56.171 377.376,54.892 375.826,53.618 374.294,52.358 372.74,51.076 371.171,49.79 369.6,48.513 368.0,47.23 366.391,45.977 364.752,44.763 363.089,43.617 361.366,42.536 359.542,41.539 357.592,40.677 355.533,40.114 353.417,40.0 351.352,40.429 349.685,41.263 348.747,41.981 348.18,42.552 347.428,43.564 346.597,45.263 346.099,47.341 346.023,49.459 346.227,51.544 346.603,53.531 347.069,55.439 347.614,57.33 348.22,59.198 348.872,61.071 349.539,62.925 350.215,64.766 350.912,66.616 351.618,68.478 352.329,70.342 353.028,72.178 353.717,74.002 354.423,75.853 355.125,77.717 355.814,79.58 356.5,81.424 357.177,83.267 357.862,85.143 358.551,87.025 359.212,88.878 359.876,90.738 360.539,92.621 361.197,94.492 361.84,96.357 362.483,98.221 363.121,100.108 363.758,101.992 364.383,103.859 365.0,105.739 365.62,107.636 366.234,109.542 366.836,111.433 367.431,113.308 368.025,115.195 368.608,117.072 369.199,118.981 369.793,120.91 370.364,122.789 370.932,124.673 371.521,126.601 372.077,128.504 372.643,130.41 373.204,132.317 373.748,134.199 374.303,136.104 374.85,138.006 375.393,139.92 375.941,141.843 376.477,143.745 377.001,145.644 377.54,147.566 378.061,149.483 378.584,151.381 379.108,153.305 379.618,155.211 380.137,157.139 380.659,159.07 381.163,160.984 381.672,162.893 382.174,164.81 382.675,166.722 383.171,168.625 383.664,170.544 384.166,172.486 384.652,174.437 385.135,176.357 385.615,178.273 386.092,180.214 386.564,182.132 387.034,184.025 387.494,185.946 387.959,187.891 388.424,189.829 388.879,191.774 389.336,193.723 389.789,195.666 390.237,197.624 390.681,199.557 391.113,201.476 391.546,203.387 391.98,205.313 392.407,207.263 392.826,209.208 393.251,211.164 393.67,213.135 394.08,215.06 394.48,216.967 394.878,218.909 395.276,220.866 395.677,222.834 396.06,224.765 396.45,226.676 396.831,228.665 397.217,230.666 397.587,232.598 397.954,234.499 398.32,236.467 398.679,238.461 399.043,240.378 399.387,242.291 399.735,244.268 400.088,246.257 400.439,248.194 400.771,250.124 401.124,252.117 401.46,254.086 401.794,255.975 402.136,257.935 402.475,259.945 402.806,261.895 403.137,263.814 403.465,265.78 403.783,267.759 404.112,269.691 404.426,271.663 404.746,273.675 405.051,275.618 405.366,277.557 405.671,279.555 405.962,281.524 406.266,283.437 406.554,285.42 406.846,287.419 407.12,289.355 407.399,291.307 407.681,293.314 407.939,295.303 408.209,297.244 408.474,299.209 408.721,301.202 408.997,303.182 409.229,305.123 409.492,307.097 409.727,309.06 409.992,311.01 410.215,313.007 410.503,314.996 410.681,316.936 410.948,318.91 411.194,320.921 411.451,322.874 411.67,324.843 411.927,326.857 412.166,328.83 412.385,330.761 412.633,332.756 412.868,334.729 413.12,336.684 413.354,338.666 413.584,340.708 413.834,342.702 414.065,344.686 414.336,346.685 414.57,348.695 414.835,350.701 415.066,352.724 415.337,354.754 415.608,356.769 415.887,358.772 416.22,360.786 416.617,362.793 417.148,364.759 417.843,366.655 418.817,368.463 420.207,370.167 421.738,371.383 422.773,371.954 423.361,372.183 423.942,372.385 425.022,372.595 426.941,372.65 429.168,372.298 431.132,371.608 432.915,370.699 434.571,369.63 436.143,368.441 437.639,367.153 439.068,365.786 440.451,364.338 441.798,362.83 443.118,361.268 444.429,359.692 445.726,358.133 447.047,356.581 448.408,355.056 449.794,353.589 451.248,352.151 452.732,350.789 454.245,349.479 455.819,348.215 457.46,347.015 459.142,345.891 460.885,344.874 462.692,343.976 464.604,343.223 466.622,342.65 468.683,342.341 470.652,342.365 472.333,342.664 473.673,343.106 474.82,343.662 475.914,344.381 477.08,345.399 478.27,346.805 479.316,348.564 480.069,350.51 480.489,352.509 480.62,354.523 480.497,356.537 480.137,358.546 479.545,360.531 478.743,362.445 477.774,364.215 476.73,365.758 475.619,367.131 474.378,368.442 472.98,369.709 471.442,370.921 469.805,372.062 468.12,373.124 466.385,374.117 464.671,375.042 463.006,375.916 461.354,376.799 459.674,377.737 457.985,378.754 456.29,379.839 454.634,380.988 453.022,382.202 451.48,383.466 449.958,384.856 448.519,386.345 447.206,387.938 446.042,389.683 445.07,391.635 444.402,393.712 444.11,395.81 444.237,397.907 444.81,399.925 445.837,401.767 447.058,403.135 448.163,403.977 449.177,404.532 450.346,404.964 452.01,405.283 454.045,405.311 456.119,404.954 458.089,404.328 459.932,403.533 461.696,402.617 463.398,401.613 465.047,400.514 466.652,399.342 468.207,398.103 469.731,396.806 471.221,395.455 472.716,394.062 474.197,392.669 475.681,391.3 477.204,389.97 478.757,388.691 480.342,387.477 481.947,386.333 483.624,385.228 485.353,384.194 487.086,383.236 488.858,382.374 490.667,381.593 492.565,380.885 494.52,380.275 496.479,379.781 498.388,379.417 500.262,379.169 502.19,379.018 504.108,378.975 505.988,379.036 507.863,379.197 509.724,379.46 511.606,379.829 513.534,380.319 515.42,380.914 517.251,381.608 519.058,382.417 520.837,383.33 522.482,384.288 523.98,385.28 525.424,386.334 526.818,387.458 528.234,388.724 529.594,390.064 530.923,391.515 532.199,393.059 533.407,394.684 534.506,396.347 535.515,398.06 536.438,399.83 537.27,401.653 538.002,403.509 538.639,405.406 539.181,407.34 539.623,409.284 539.96,411.195 540.201,413.104 540.358,415.072 540.418,417.039 540.384,419.036 540.258,421.04 540.035,423.018 539.722,424.985 539.311,426.931 538.818,428.842 538.225,430.767 537.542,432.673 536.782,434.502 535.945,436.273 535.029,438.032 534.026,439.759 532.966,441.42 531.843,443.02 530.627,444.604 529.349,446.146 528.0,447.62 526.593,449.076 525.119,450.458 523.628,451.754 522.09,452.993 520.489,454.171 518.85,455.305 517.189,456.37 515.476,457.393 513.73,458.39 511.988,459.344 510.216,460.304 508.452,461.267 506.701,462.249 504.931,463.272 503.212,464.318 501.484,465.42 499.857,466.52 498.248,467.665 496.641,468.884 495.069,470.159 493.523,471.513 492.071,472.893 490.677,474.348 489.358,475.885 488.127,477.506 487.005,479.217 486.014,480.994 485.219,482.711 484.602,484.323 484.124,485.864 483.731,487.496 483.447,489.207 483.276,491.108 483.239,493.171 483.349,495.226 483.599,497.277 483.969,499.305 484.457,501.268 485.058,503.198 485.76,505.086 486.535,506.923 487.369,508.736 488.224,510.522 489.106,512.292 490.015,514.08 490.932,515.838 491.84,517.591 492.745,519.335 493.669,521.133 494.565,522.942 495.423,524.71 496.266,526.466 497.101,528.279 497.933,530.091 498.76,531.907 499.585,533.742 500.395,535.528 501.196,537.346 502.023,539.2 502.847,541.044 503.646,542.824 504.469,544.634 505.319,546.478 506.178,548.31 507.057,550.108 507.999,551.893 509.062,553.637 510.257,555.265 511.686,556.795 513.366,558.122 514.989,559.018 516.381,559.541 517.533,559.816 518.636,559.957 519.781,560.0 521.159,559.905 522.913,559.539 524.953,558.757 526.753,557.711 528.433,556.437 529.919,555.071 531.239,553.66 532.532,552.109 533.745,550.549 534.936,548.974 536.089,547.399 537.236,545.788 538.422,544.084 539.528,542.508 540.695,540.863 541.844,539.226 542.741,537.657 543.935,535.73 545.01,534.142 545.586,533.293 547.647,530.928" fill="none" stroke="white" stroke-width="4"
            stroke-linejoin="round" stroke-linecap="round"/>
  <line x1="563.987" y1="542.460" x2="531.307" y2="519.396" stroke="red" stroke-width="3" stroke-linecap="round"/>
</svg>
