<?xml version="1.0" encoding="utf-8"?>
<svg xmlns="http://www.w3.org/2000/svg" width="1000" height="600">
  <polyline points="443.419,488.498 440.733,487.444 438.128,486.432 435.402,485.368 432.708,484.3 430.146,483.308 427.459,482.252 424.681,481.161 422.068,480.158 419.411,479.116 416.643,478.027 414.04,477.034 411.392,476.006 408.63,474.938 406.025,473.931 403.335,472.886 400.587,471.82 397.996,470.823 395.304,469.79 392.592,468.742 389.958,467.745 387.224,466.682 384.545,465.671 381.951,464.687 379.195,463.639 376.487,462.624 373.853,461.64 371.146,460.628 368.48,459.631 365.771,458.637 362.984,457.588 360.367,456.618 357.734,455.65 354.939,454.603 352.291,453.615 349.631,452.636 346.873,451.604 344.178,450.599 341.485,449.601 338.763,448.589 336.061,447.595 333.373,446.595 330.671,445.6 327.952,444.585 325.222,443.57 322.527,442.566 319.82,441.551 317.082,440.523 314.365,439.501 311.639,438.474 308.97,437.462 306.282,436.435 303.569,435.383 300.913,434.325 298.269,433.224 295.638,432.033 293.043,430.717 290.491,429.241 288.012,427.587 285.636,425.756 283.456,423.803 281.532,421.761 279.826,419.618 278.384,417.365 277.197,415.008 276.272,412.575 275.662,410.071 275.349,407.521 275.36,404.979 275.691,402.47 276.332,400.042 277.277,397.716 278.497,395.548 279.972,393.553 281.684,391.73 283.585,390.11 285.643,388.697 287.842,387.493 290.186,386.493 292.645,385.717 295.223,385.157 297.946,384.8 300.778,384.645 303.677,384.693 306.614,384.942 309.552,385.377 312.426,385.968 315.222,386.691 317.989,387.532 320.7,388.466 323.368,389.477 326.028,390.55 328.648,391.688 331.234,392.852 333.787,394.056 336.356,395.294 338.94,396.543 341.511,397.778 344.088,399.002 346.689,400.201 349.306,401.362 351.939,402.467 354.608,403.515 357.313,404.488 360.014,405.411 362.733,406.248 365.475,407.035 368.193,407.743 370.957,408.378 373.73,408.954 376.514,409.464 379.312,409.901 382.067,410.279 384.853,410.589 387.67,410.836 390.467,411.01 393.261,411.148 396.072,411.238 398.908,411.309 401.745,411.371 404.626,411.448 407.477,411.551 410.321,411.708 413.198,411.952 416.123,412.326 419.024,412.848 421.92,413.545 424.781,414.427 427.406,415.427 429.815,416.525 432.039,417.704 434.225,419.018 436.41,420.484 438.523,422.065 440.542,423.748 442.496,425.562 444.395,427.535 446.246,429.687 448.021,431.998 449.679,434.417 451.196,436.884 452.595,439.386 453.949,441.972 455.245,444.574 456.476,447.179 457.687,449.81 458.887,452.441 460.098,455.048 461.373,457.645 462.69,460.094 464.075,462.39 465.547,464.487 467.081,466.321 468.773,467.967 470.65,469.39 472.745,470.583 475.095,471.49 477.594,472.001 480.216,472.077 482.914,471.671 485.489,470.797 487.912,469.451 490.051,467.71 491.858,465.645 493.298,463.378 494.439,460.909 495.26,458.34 495.795,455.646 496.072,452.806 496.112,449.949 495.955,447.048 495.624,444.123 495.145,441.244 494.529,438.439 493.79,435.675 492.956,432.956 492.041,430.217 491.08,427.505 490.105,424.856 489.115,422.2 488.087,419.517 487.044,416.826 486.01,414.172 485.0,411.532 483.985,408.844 483.001,406.189 482.039,403.536 481.131,400.822 480.26,398.112 479.429,395.354 478.675,392.62 477.984,389.902 477.35,387.15 476.739,384.332 476.238,381.58 475.773,378.8 475.352,375.973 475.005,373.151 474.7,370.378 474.477,367.55 474.271,364.68 474.147,361.852 474.063,359.043 474.044,356.207 474.089,353.374 474.18,350.569 474.319,347.789 474.53,344.935 474.805,342.062 475.12,339.261 475.46,336.465 475.86,333.683 476.283,330.853 476.756,327.991 477.238,325.207 477.754,322.391 478.253,319.578 478.766,316.814 479.262,313.997 479.769,311.172 480.242,308.335 480.703,305.492 481.111,302.673 481.497,299.818 481.829,296.893 482.105,294.068 482.308,291.264 482.466,288.401 482.561,285.456 482.595,282.611 482.561,279.795 482.458,276.928 482.292,274.1 482.061,271.336 481.759,268.515 481.385,265.713 480.939,262.915 480.433,260.194 479.863,257.509 479.201,254.752 478.49,252.081 477.672,249.263 476.81,246.566 475.921,244.0 474.941,241.371 473.854,238.692 472.693,235.996 471.483,233.392 470.284,230.946 468.944,228.375 467.545,225.805 466.143,223.308 464.704,220.912 463.222,218.465 461.708,215.999 460.178,213.521 458.697,211.082 457.253,208.624 455.829,206.149 454.46,203.654 453.136,201.118 451.877,198.594 450.68,196.039 449.531,193.481 448.428,190.857 447.386,188.21 446.419,185.578 445.51,182.935 444.648,180.23 443.845,177.514 443.1,174.791 442.425,172.075 441.805,169.376 441.212,166.588 440.675,163.813 440.191,161.045 439.762,158.212 439.357,155.353 439.018,152.494 438.734,149.629 438.492,146.728 438.295,143.811 438.151,140.91 438.048,138.052 438.006,135.223 437.985,132.36 438.006,129.515 438.052,126.657 438.125,123.761 438.222,120.873 438.313,118.033 438.422,115.112 438.529,112.24 438.629,109.348 438.743,106.448 438.881,103.517 439.052,100.632 439.284,97.802 439.606,94.893 440.025,91.985 440.544,89.133 441.197,86.24 441.959,83.432 442.844,80.656 443.856,77.932 444.984,75.294 446.218,72.743 447.548,70.276 449.007,67.829 450.557,65.455 452.149,63.226 453.852,61.041 455.661,58.919 457.579,56.871 459.588,54.925 461.664,53.104 463.791,51.416 466.033,49.808 468.376,48.297 470.749,46.931 473.206,45.677 475.717,44.543 478.31,43.52 480.94,42.627 483.595,41.865 486.329,41.231 489.037,40.732 491.829,40.355 494.629,40.109 497.355,40.0 500.189,40.012 503.022,40.143 505.845,40.411 508.635,40.801 511.478,41.337 514.286,41.993 517.027,42.734 519.829,43.654 522.562,44.673 525.251,45.836 527.886,47.093 530.4,48.425 532.918,49.877 535.373,51.445 537.761,53.046 540.102,54.695 542.391,56.37 544.668,58.097 546.965,59.901 549.253,61.668 551.566,63.415 553.849,65.07 556.136,66.728 558.509,68.332 560.952,69.915 563.342,71.378 565.747,72.784 568.329,74.216 570.827,75.522 573.346,76.787 575.942,78.01 578.493,79.134 581.195,80.256 583.855,81.294 586.52,82.308 589.204,83.314 591.881,84.324 594.61,85.383 597.233,86.443 599.865,87.576 602.538,88.815 605.18,90.144 607.672,91.523 610.15,93.033 612.608,94.692 614.978,96.472 617.229,98.359 619.435,100.42 621.518,102.591 623.399,104.771 624.992,106.815 626.287,108.639 627.472,110.465 628.703,112.56 629.941,114.895 631.147,117.457 632.261,120.134 633.277,122.952 634.14,125.795 634.844,128.644 635.406,131.538 635.823,134.454 636.093,137.386 636.217,140.36 636.198,143.341 636.025,146.304 635.725,149.253 635.296,152.174 634.759,155.068 634.071,157.975 633.304,160.794 632.444,163.606 631.438,166.472 630.414,169.228 629.303,171.986 628.141,174.751 626.949,177.433 625.707,180.136 624.399,182.836 623.031,185.502 621.603,188.097 620.103,190.648 618.526,193.128 616.847,195.558 615.028,197.934 613.085,200.189 610.992,202.319 608.743,204.291 606.33,206.076 603.729,207.651 600.983,208.948 598.252,209.896 595.66,210.492 593.234,210.795 591.057,210.867 588.939,210.758 586.803,210.471 584.585,209.985 582.208,209.24 579.737,208.222 577.221,206.91 574.767,205.319 572.455,203.488 570.319,201.464 568.343,199.257 566.536,196.896 564.901,194.395 563.453,191.782 562.195,189.054 561.136,186.227 560.288,183.34 559.652,180.444 559.199,177.568 558.905,174.697 558.748,171.821 558.699,168.942 558.713,166.065 558.73,163.169 558.717,160.242 558.621,157.353 558.421,154.454 558.101,151.523 557.671,148.658 557.116,145.807 556.436,142.963 555.621,140.131 554.679,137.368 553.601,134.669 552.364,132.014 550.955,129.415 549.399,126.939 547.648,124.531 545.716,122.257 543.666,120.199 541.502,118.356 539.266,116.759 536.948,115.397 534.582,114.288 532.121,113.403 529.631,112.76 527.166,112.357 524.645,112.181 522.141,112.242 519.686,112.536 517.281,113.057 514.92,113.811 512.597,114.801 510.389,115.994 508.273,117.406 506.27,119.012 504.393,120.785 502.617,122.738 500.917,124.894 499.305,127.265 497.82,129.822 496.502,132.508 495.376,135.276 494.446,138.076 493.699,140.886 493.113,143.709 492.649,146.582 492.296,149.428 492.031,152.283 491.838,155.139 491.722,158.029 491.663,160.943 491.656,163.796 491.707,166.68 491.79,169.579 491.907,172.476 492.034,175.341 492.19,178.235 492.354,181.114 492.533,184.028 492.717,186.888 492.939,189.738 493.157,192.644 493.425,195.52 493.664,198.361 493.946,201.18 494.255,204.047 494.557,206.929 494.879,209.78 495.215,212.591 495.574,215.445 495.946,218.305 496.333,221.155 496.734,223.983 497.15,226.841 497.597,229.673 498.022,232.491 498.483,235.301 498.966,238.136 499.477,241.003 499.968,243.842 500.502,246.623 501.032,249.435 501.591,252.23 502.158,255.042 502.76,257.886 503.34,260.699 503.949,263.505 504.593,266.291 505.251,269.044 505.899,271.833 506.623,274.655 507.362,277.433 508.11,280.187 508.822,282.894 509.641,285.662 510.434,288.424 511.291,291.182 512.098,293.857 512.98,296.604 513.889,299.333 514.801,302.021 515.744,304.728 516.721,307.44 517.709,310.132 518.714,312.774 519.722,315.43 520.748,318.036 521.83,320.712 522.937,323.401 524.043,326.02 525.18,328.613 526.371,331.295 527.561,333.954 528.761,336.59 529.99,339.215 531.187,341.727 532.461,344.319 533.758,346.935 535.079,349.533 536.411,352.124 537.738,354.669 539.058,357.193 540.414,359.751 541.737,362.257 543.064,364.772 544.402,367.3 545.717,369.82 547.058,372.413 548.356,374.993 549.583,377.555 550.735,380.204 551.748,382.947 552.568,385.77 553.141,388.746 553.388,391.838 553.306,394.647 552.989,396.951 552.523,398.932 551.94,400.771 551.097,402.782 549.818,405.182 548.112,407.766 546.271,410.178 544.51,412.398 542.915,414.475 541.545,416.433 540.375,418.413 539.421,420.468 538.72,422.609 538.3,424.849 538.187,427.178 538.413,429.595 539.025,432.076 539.996,434.422 541.263,436.53 542.833,438.447 544.658,440.128 546.709,441.563 548.96,442.76 551.378,443.74 554.015,444.521 556.878,445.09 559.851,445.417 562.769,445.513 565.679,445.432 568.566,445.221 571.38,444.904 574.214,444.49 577.043,443.999 579.82,443.442 582.594,442.825 585.373,442.16 588.196,441.434 590.948,440.698 593.673,439.935 596.491,439.115 599.227,438.337 602.017,437.496 604.782,436.675 607.476,435.867 610.253,435.021 613.052,434.199 615.763,433.384 618.536,432.585 621.311,431.808 624.052,431.052 626.807,430.318 629.597,429.588 632.437,428.887 635.158,428.222 637.952,427.567 640.744,426.938 643.546,426.308 646.35,425.706 649.102,425.126 651.928,424.538 654.703,423.977 657.533,423.412 660.414,422.847 663.248,422.295 666.101,421.751 668.981,421.228 671.854,420.738 674.668,420.317 677.521,419.97 680.457,419.728 683.411,419.631 686.367,419.709 689.25,419.975 692.076,420.444 694.827,421.119 697.44,421.983 700.013,423.052 702.456,424.283 704.704,425.611 706.885,427.103 708.945,428.722 710.898,430.483 712.759,432.398 714.485,434.432 716.106,436.625 717.612,438.99 718.936,441.429 720.134,444.056 721.174,446.824 722.025,449.64 722.72,452.524 723.259,455.401 723.663,458.23 723.973,461.01 724.204,463.931 724.376,466.742 724.498,469.574 724.584,472.485 724.632,475.351 724.651,478.218 724.617,481.107 724.51,484.046 724.317,486.954 724.035,489.844 723.665,492.732 723.205,495.589 722.635,498.505 721.955,501.391 721.231,504.091 720.359,506.905 719.417,509.608 718.39,512.23 717.222,514.912 716.015,517.44 714.702,519.935 713.318,522.35 711.782,524.803 710.19,527.157 708.526,529.416 706.785,531.619 704.987,533.731 703.105,535.773 701.131,537.783 699.072,539.711 697.043,541.497 694.881,543.254 692.705,544.916 690.464,546.51 688.155,548.033 685.781,549.47 683.366,550.809 680.928,552.056 678.392,553.236 675.902,554.252 673.342,555.231 670.708,556.112 668.077,556.887 665.37,557.578 662.677,558.208 660.009,558.719 657.157,559.19 654.442,559.528 651.581,559.758 648.848,559.959 645.953,560.0 643.181,559.998 640.347,559.863 637.483,559.668 634.628,559.354 631.875,559.03 629.083,558.534 626.159,557.944 623.31,557.321 620.53,556.611 617.803,555.853 615.111,554.994 612.196,553.997 609.512,553.126 606.887,552.133 604.161,551.083 601.472,550.028 598.815,548.951 596.122,547.978 593.579,546.933 591.008,545.911 588.168,544.835 585.736,543.815 582.839,542.591 580.234,541.614 577.707,540.623 574.991,539.547 572.274,538.543 569.451,537.452 566.862,536.448 564.312,535.462 561.597,534.377 558.718,533.264 556.178,532.299 553.552,531.258 551.029,530.269 548.269,529.23 545.682,528.135 542.704,527.054 540.342,525.965 537.795,524.897 535.084,523.85 532.327,522.777 529.566,521.685 526.824,520.589 524.296,519.651 521.318,518.491 518.76,517.451 516.069,516.429 513.44,515.306 510.998,514.316 508.244,513.234 505.58,512.188 502.995,511.174 500.323,510.125 497.646,509.076 494.798,507.959 492.127,506.912 489.258,505.788 486.813,504.831 483.771,503.64 481.231,502.646 478.692,501.653 476.7,500.874 473.516,499.629 470.508,498.454 468.195,497.552 465.768,496.605 463.225,495.614 460.166,494.421 457.612,493.426 454.882,492.362 452.147,491.296 449.235,490.162 448.207,489.761 443.419,488.498" fill="none" stroke="white" stroke-width="4"
            stroke-linejoin="round" stroke-linecap="round"/>
  <line x1="450.725" y1="469.880" x2="436.113" y2="507.116" stroke="red" stroke-width="3" stroke-linecap="round"/>
</svg>
