<svg width="278" height="278" viewBox="0 0 278 278" fill="none" xmlns="http://www.w3.org/2000/svg">
<path d="M273.441 108.42H161.634C159.441 108.42 156.811 108.42 153.741 111.49C151.111 114.122 151.549 117.192 147.164 117.192H130.722C126.118 117.192 126.776 114.561 124.145 111.49C121.076 108.42 118.226 108.42 116.253 108.42H4.44602C0.499891 108.42 -1.03472 111.71 0.719119 114.78L2.91141 118.069C3.78833 119.824 5.32294 120.262 6.19986 120.482C7.07678 120.701 7.73446 120.701 8.61138 122.017L10.3652 125.087C11.8998 127.499 13.4344 127.719 14.5306 128.157C15.4075 128.377 16.2844 128.377 17.5998 130.57C18.9152 132.982 20.669 135.833 24.6151 136.929L66.488 148.991C70.6533 150.526 71.9687 152.061 73.0649 153.816C73.7226 154.693 75.6956 158.421 81.6148 159.956L121.076 170.922C124.803 171.799 127.434 170.702 129.188 168.728L136.422 162.149C138.176 160.395 139.053 160.395 141.026 162.149L148.261 168.728C150.014 170.264 152.864 171.799 156.372 170.922L196.272 160.176C201.972 158.641 203.945 155.351 204.822 154.035C206.137 152.281 207.233 150.746 211.399 149.21L253.272 137.149C257.218 135.833 258.972 132.982 260.287 130.789C261.602 128.596 262.479 128.596 263.356 128.377C264.672 128.157 265.987 127.719 267.521 125.306L269.275 122.236C269.495 120.701 270.152 120.701 271.029 120.482C271.906 120.262 273.441 119.824 274.756 118.069L276.948 114.78C279.36 111.71 277.387 108.42 273.441 108.42ZM4.44602 115.438L3.13064 113.245C2.91141 112.587 2.47296 111.49 4.44602 111.49H116.472C118.665 111.49 121.295 111.49 123.707 115.657C123.926 116.315 124.365 116.973 124.584 117.411H11.4614C6.85755 117.411 5.98063 117.411 4.44602 115.438ZM77.011 119.605H200.876V139.123H77.011V119.605ZM13.2152 124.429C12.3383 123.113 11.6806 121.14 10.8037 119.824L74.8187 119.605V122.236L20.4498 125.306C16.2844 125.964 14.7498 125.745 13.2152 124.429ZM21.7652 131.666C21.1075 130.789 20.4498 130.131 20.2306 129.254C20.0113 129.035 19.5729 128.377 19.5729 127.938C20.4498 127.938 20.4498 127.938 21.9844 127.719L74.8187 124.429V127.499L32.9459 132.324C27.4651 132.982 23.519 133.859 21.7652 131.666ZM36.0151 137.587C32.9459 136.71 30.3151 135.833 28.342 135.394C33.6035 134.736 74.8187 130.35 74.8187 130.35V133.64L48.0727 137.807C44.7843 138.245 41.2766 138.684 36.0151 137.587ZM54.8688 143.07C52.2381 142.193 49.3881 141.535 46.3189 140.658C47.1958 140.658 47.6342 140.438 48.5112 140.438C51.1419 140.219 75.0379 135.833 75.0379 135.833V139.561L64.9534 142.193C64.9534 142.193 58.8149 143.947 54.8688 143.07ZM67.3649 146.579C67.1457 146.579 65.1726 145.921 62.5418 145.044C64.2957 144.824 65.1726 144.386 65.6111 144.386C65.8303 144.386 76.5725 141.316 76.5725 141.316H88.6302L77.4495 146.579C73.7226 147.895 70.6534 147.675 67.3649 146.579ZM78.5456 155.79C77.2302 154.912 76.3533 154.035 75.9149 152.719C75.2572 151.842 74.5995 150.965 73.5033 150.088C73.7226 150.088 74.8187 150.088 76.1341 149.868C77.4495 149.649 80.2995 148.333 80.2995 148.333L93.6725 141.754H102.88L84.9033 154.254C82.2725 155.57 80.0802 156.009 78.5456 155.79ZM91.9186 159.956L83.3687 157.544C84.684 156.886 85.7802 156.228 86.6571 155.79C87.534 155.132 86.6571 155.79 107.045 141.096H114.718L101.126 155.132C98.0571 157.983 95.2071 160.614 91.9186 159.956ZM105.511 163.685L97.3994 161.491C99.5916 160.176 101.565 158.202 102.222 157.325L117.788 141.535H124.365L112.307 160.614C110.115 163.465 107.703 164.342 105.511 163.685ZM119.761 167.632L111.211 165.22C111.43 165 112.965 163.904 114.499 161.491L127.215 141.096H132.915C132.915 141.096 125.242 163.246 125.022 164.123C123.488 167.632 121.734 167.851 119.761 167.632ZM150.453 166.755L143.218 160.176C140.149 157.544 137.738 157.544 134.668 160.176L127.434 166.755C126.776 167.413 126.118 167.632 125.899 168.071C127.215 166.535 128.092 164.123 128.53 162.588L135.545 141.316H142.122L149.138 162.588C149.795 164.123 150.453 166.535 151.768 168.071C151.33 167.632 151.111 167.413 150.453 166.755ZM158.345 167.632C156.153 167.851 154.399 167.851 152.864 164.562C152.207 163.246 144.972 141.535 144.972 141.535H150.672L163.387 161.93C164.922 164.342 166.457 165.22 166.676 165.658L158.345 167.632ZM172.595 163.685C170.184 163.904 167.991 163.465 166.018 160.395L153.961 141.316H160.537L176.103 157.105C176.98 157.983 178.734 160.176 180.926 161.272L172.595 163.685ZM186.407 159.956C182.68 160.614 180.268 157.763 177.857 155.351L163.826 141.096H171.499C171.499 141.096 191.01 155.132 191.887 155.79C192.764 156.447 194.08 157.105 195.176 157.544L186.407 159.956ZM202.41 152.719C201.533 154.035 200.876 154.912 199.78 155.79C198.245 156.447 196.053 155.79 193.422 154.035C192.545 153.377 175.884 141.535 175.884 141.535H185.091C185.091 141.535 195.395 146.798 198.464 148.114C200.218 148.991 202.41 149.868 205.48 150.307C203.726 150.965 203.068 151.842 202.41 152.719ZM210.741 146.579C207.672 147.456 204.383 147.895 200.656 146.579C199.341 145.921 189.476 141.316 189.476 141.316H201.533C201.533 141.316 212.056 144.386 212.495 144.386C212.714 144.386 213.81 144.605 215.564 145.044C213.153 146.14 211.179 146.579 210.741 146.579ZM223.456 143.07C219.51 144.386 213.153 142.193 213.153 142.193L203.068 139.561V135.833C203.068 135.833 226.745 139.78 229.595 140.438C230.472 140.438 231.129 140.658 231.787 140.658C228.937 141.535 226.087 142.193 223.456 143.07ZM241.872 137.587C236.61 138.903 233.102 138.245 230.033 137.807C227.402 137.149 203.287 133.64 203.287 133.64V130.35L249.764 135.614C247.791 136.052 244.941 136.71 241.872 137.587ZM257.656 129.254C256.998 130.131 256.779 131.008 256.122 131.666C254.368 133.421 250.641 132.982 244.941 132.324L203.287 127.719V124.648C203.287 124.648 255.464 127.938 256.122 127.938C257.656 127.938 257.656 127.938 258.533 128.157C258.314 128.377 258.095 129.035 257.656 129.254ZM263.795 124.868C261.602 126.184 259.629 125.745 252.614 125.526L203.506 122.455V119.824L267.521 120.043C265.987 121.798 265.548 123.552 263.795 124.868ZM274.756 113.245L273.441 115.438C272.125 117.631 271.248 117.631 266.864 117.631H153.303C153.961 116.973 154.18 116.315 154.618 115.876C157.03 111.71 159.441 111.71 161.853 111.71H273.879C275.414 111.49 274.975 112.587 274.756 113.245ZM148.48 135.175C148.261 131.447 147.822 129.692 147.822 128.157C146.068 131.447 145.191 133.421 144.534 134.736H143.876C142.122 130.789 141.684 130.57 141.245 129.473C141.026 129.254 141.026 128.815 140.368 127.938C140.149 129.473 139.711 132.105 139.711 134.956H137.957C138.615 131.008 139.491 123.991 139.491 123.333H140.807C140.807 123.333 143.438 128.815 144.753 131.008C146.288 128.596 147.164 126.403 148.918 123.333H150.234C150.453 124.868 151.111 130.35 151.549 134.956H148.48V135.175ZM183.557 123.771H181.145V135.394H183.557V123.771ZM176.98 135.175V125.526C178.734 125.526 179.61 125.526 180.268 125.745V123.771H171.06V125.526C171.937 125.526 172.814 125.306 174.787 125.306V134.956H176.98V135.175ZM105.292 135.175V125.526C107.045 125.526 107.922 125.526 108.58 125.745V123.771H99.3724V125.526C100.249 125.526 101.126 125.306 103.099 125.306V134.956H105.292V135.175ZM132.038 135.175V123.771H130.065V131.008L123.268 123.771H121.953V135.394H123.707V127.499L130.722 135.394H132.038V135.175ZM91.9186 132.105V134.517C92.5763 134.736 93.4532 135.394 94.9878 135.394C97.3994 135.394 99.5916 133.859 99.5916 131.666C99.5916 131.008 99.3724 129.473 97.8378 128.596C96.3032 127.938 95.4263 127.719 94.7686 127.28C93.4532 126.403 94.5494 124.868 96.084 124.868C96.7417 124.868 97.6186 124.868 97.8378 126.184H98.7147V123.991C98.057 123.771 97.1801 123.333 96.084 123.333C95.2071 123.333 94.3301 123.552 93.6725 124.21C91.9186 125.526 91.4802 128.157 93.8917 129.692C95.4263 130.57 97.6186 130.57 97.6186 132.105C97.6186 133.421 96.3032 133.859 95.4263 133.859C93.6724 133.859 93.0148 132.324 93.0148 132.105H91.9186ZM91.9186 135.175L86.6571 123.552H85.7802L80.5187 135.394H82.711C82.9302 134.517 83.3687 133.859 84.0264 132.105H87.9725C88.6302 133.421 88.8494 134.517 89.2879 135.394H91.9186V135.175ZM84.684 130.57C84.9033 129.912 84.9033 129.692 85.9994 127.28C87.3148 129.692 87.3148 129.912 87.534 130.57H84.684ZM120.418 129.254C120.418 125.306 117.349 123.113 114.28 123.113C111.211 123.113 108.142 125.306 108.142 129.254C108.142 133.201 111.211 135.394 114.28 135.394C117.349 135.614 120.418 133.64 120.418 129.254ZM114.28 134.298C112.526 134.298 110.992 132.543 110.992 129.692C110.992 126.622 112.745 125.087 114.28 125.087C116.034 125.087 117.568 126.622 117.568 129.692C118.007 132.324 116.253 134.298 114.28 134.298ZM162.949 135.175H165.141V130.35H165.799L169.745 135.175H172.376L168.21 129.912C168.868 129.692 169.526 129.254 169.745 129.035C171.06 127.719 171.06 125.964 169.745 124.429C169.087 124.21 168.21 123.552 166.457 123.552C166.457 123.552 163.826 123.552 163.168 123.552V135.175H162.949ZM165.141 125.087C165.361 125.087 165.799 125.087 166.018 125.087C168.43 125.087 168.43 126.842 168.43 126.842C168.43 128.157 167.114 129.254 165.361 128.596V124.868H165.141V125.087ZM162.291 135.175L157.03 123.552H156.372L151.111 135.394H153.303C153.522 134.517 153.961 133.859 154.618 132.105H158.564C159.222 133.421 159.441 134.517 159.88 135.394H162.511V135.175H162.291ZM155.057 130.57C155.276 129.912 155.276 129.912 156.591 127.28C157.468 129.692 157.907 129.912 157.907 130.57H155.057ZM196.053 135.175V123.771H194.299V131.008L187.283 123.771H185.968V135.394H187.722V127.499L194.737 135.394H196.053V135.175Z" fill="#229971"/>
</svg>
