<svg xmlns="http://www.w3.org/2000/svg" width="1200" height="700" viewBox="0 0 1200 700" version="1.1"><path d="" stroke="none" fill="#f4043c" fill-rule="evenodd"/><path d="M 277.888 195.445 C 277.633 195.700, 274.966 196.137, 271.962 196.415 C 262.381 197.303, 244 201.592, 244 202.940 C 244 203.283, 242.782 203.665, 241.294 203.788 C 239.806 203.911, 238.141 204.459, 237.594 205.006 C 237.047 205.553, 235.790 206, 234.800 206 C 233.810 206, 233 206.450, 233 207 C 233 207.550, 232.100 208, 231 208 C 229.900 208, 229 208.498, 229 209.107 C 229 209.716, 228.377 209.975, 227.615 209.682 C 226.853 209.390, 225.390 209.722, 224.365 210.419 C 223.339 211.117, 220.025 213.043, 217 214.701 C 207.388 219.967, 204 222.171, 204 223.158 C 204 223.686, 203.627 223.887, 203.170 223.605 C 202.055 222.916, 186.500 235.636, 186.500 237.238 C 186.500 237.932, 185.978 238.500, 185.339 238.500 C 184.101 238.500, 178.866 243.726, 172.783 251.034 C 170.738 253.490, 167.951 256.822, 166.590 258.438 C 165.228 260.053, 164.340 261.741, 164.616 262.188 C 164.892 262.634, 164.416 263, 163.559 263 C 162.702 263, 162 263.480, 162 264.067 C 162 264.653, 160.934 266.566, 159.631 268.317 C 151.457 279.299, 141.553 305.065, 137.459 326 C 134.426 341.506, 136.550 377.693, 141.489 394.657 C 142.904 399.521, 144.300 404.611, 144.591 405.969 C 144.881 407.327, 145.635 409.060, 146.265 409.820 C 146.896 410.580, 147.509 411.861, 147.628 412.668 C 147.746 413.474, 148.778 416.124, 149.921 418.556 C 151.065 420.988, 152 423.184, 152 423.436 C 152 424.001, 159.079 436.125, 160.213 437.500 C 160.666 438.050, 161.929 439.581, 163.019 440.903 C 164.108 442.225, 165 443.875, 165 444.570 C 165 445.265, 165.345 445.983, 165.767 446.167 C 166.189 446.350, 168.311 448.750, 170.482 451.500 C 175.926 458.396, 188.502 471, 189.938 471 C 190.587 471, 190.874 471.395, 190.575 471.878 C 190.064 472.706, 197.599 478.409, 199.286 478.471 C 199.719 478.487, 200.394 478.962, 200.786 479.526 C 202.236 481.609, 209.741 486.925, 210.360 486.307 C 210.712 485.955, 211 486.218, 211 486.892 C 211 487.566, 211.422 487.857, 211.939 487.538 C 212.455 487.219, 213.242 487.551, 213.689 488.275 C 214.753 490.003, 221.693 494, 223.629 494 C 224.461 494, 225.778 494.635, 226.553 495.410 C 227.329 496.186, 230.109 497.581, 232.732 498.510 C 235.354 499.439, 239.075 500.839, 241 501.623 C 242.925 502.406, 245.400 503.255, 246.500 503.510 C 247.600 503.765, 250.975 504.661, 254 505.501 C 257.025 506.341, 261.300 507.281, 263.500 507.590 C 265.700 507.899, 269.075 508.390, 271 508.681 C 276.825 509.561, 310 510.039, 310.005 509.242 C 310.007 508.834, 312.768 508.428, 316.140 508.341 C 319.511 508.253, 322.547 507.803, 322.885 507.341 C 323.223 506.878, 324.970 506.433, 326.766 506.351 C 328.563 506.269, 330.813 505.862, 331.766 505.447 C 332.720 505.032, 334.288 504.790, 335.250 504.909 C 336.212 505.028, 337 504.662, 337 504.094 C 337 503.527, 337.749 503.350, 338.664 503.701 C 339.775 504.128, 340.090 503.955, 339.612 503.181 C 339.143 502.422, 339.436 502.230, 340.461 502.623 C 341.321 502.954, 342.695 502.668, 343.513 501.989 C 344.331 501.311, 345 501.047, 345 501.403 C 345 501.760, 346.345 501.356, 347.990 500.505 C 349.634 499.655, 351.111 499.081, 351.272 499.230 C 351.638 499.567, 360.319 495.767, 361 494.971 C 361.275 494.649, 363.075 493.763, 365 493 C 366.925 492.237, 368.725 491.327, 369 490.976 C 369.275 490.626, 371.642 489.281, 374.260 487.987 C 376.878 486.694, 379.760 484.818, 380.665 483.818 C 381.570 482.818, 382.721 482, 383.222 482 C 383.724 482, 386.621 479.975, 389.659 477.500 C 395.193 472.992, 397 472.131, 397 474 C 397 474.550, 397.675 475, 398.500 475 C 399.325 475, 400 475.434, 400 475.964 C 400 478.097, 429.322 496, 432.816 496 C 433.467 496, 434 496.431, 434 496.957 C 434 499.355, 471.129 509.214, 476.864 508.338 C 478.039 508.159, 479 508.384, 479 508.839 C 479 512.425, 526.055 509.035, 541 504.371 C 544.025 503.428, 547.005 502.556, 547.623 502.435 C 548.241 502.313, 550.266 501.533, 552.123 500.701 C 553.980 499.869, 556.650 498.934, 558.055 498.624 C 559.460 498.314, 562.593 496.728, 565.016 495.101 C 567.439 493.474, 569.776 492.362, 570.211 492.630 C 570.645 492.898, 571 492.641, 571 492.059 C 571 491.477, 571.337 491.053, 571.750 491.118 C 573.594 491.410, 574.981 490.876, 576.607 489.250 C 577.570 488.288, 578.614 487.491, 578.929 487.481 C 580.119 487.440, 586 483.534, 586 482.784 C 586 482.353, 586.643 482, 587.429 482 C 588.214 482, 589.452 481.431, 590.179 480.736 C 598.671 472.610, 599.428 472.526, 607.709 478.788 C 611.994 482.028, 617.067 485.539, 618.982 486.589 C 620.897 487.640, 623.066 489.062, 623.802 489.748 C 624.538 490.435, 626.233 491.271, 627.570 491.607 C 628.906 491.942, 630 492.604, 630 493.077 C 630 493.550, 630.589 493.711, 631.308 493.435 C 632.028 493.159, 633.661 493.839, 634.937 494.946 C 636.214 496.053, 637.612 496.740, 638.044 496.473 C 638.476 496.206, 638.983 496.448, 639.170 497.011 C 639.643 498.428, 655.369 503.703, 668 506.681 C 689.480 511.746, 734.423 510.196, 746.018 503.991 C 747.108 503.407, 748 503.177, 748 503.478 C 748 503.780, 749.688 503.308, 751.750 502.429 C 753.813 501.550, 756.563 500.626, 757.861 500.376 C 759.160 500.125, 760.884 499.259, 761.692 498.451 C 762.500 497.643, 763.575 497.237, 764.081 497.550 C 764.586 497.862, 765 497.615, 765 497 C 765 496.385, 765.361 496.105, 765.802 496.377 C 766.872 497.039, 784.662 487.841, 786.500 485.675 C 787.050 485.027, 789.240 483.597, 791.367 482.498 C 793.494 481.399, 797.301 478.617, 799.828 476.317 C 804.421 472.133, 804.421 472.133, 808.460 475.826 C 810.682 477.857, 814.975 481.040, 818 482.901 C 821.025 484.761, 825.300 487.495, 827.500 488.976 C 831.785 491.860, 835.039 493.415, 836.250 493.159 C 836.663 493.071, 837 493.477, 837 494.059 C 837 494.641, 837.412 494.864, 837.915 494.553 C 838.418 494.242, 838.988 494.465, 839.183 495.048 C 839.377 495.632, 840.270 496.217, 841.167 496.348 C 842.064 496.480, 843.406 497.086, 844.149 497.695 C 845.238 498.587, 860.499 503.747, 864.500 504.575 C 865.050 504.689, 868.200 505.464, 871.500 506.298 C 885.941 509.948, 912.958 511.197, 927.014 508.866 C 930.031 508.366, 934.300 507.711, 936.500 507.411 C 938.700 507.111, 941.928 506.423, 943.674 505.881 C 945.419 505.339, 948.119 504.681, 949.674 504.419 C 951.228 504.157, 953.175 503.663, 954 503.321 C 954.825 502.979, 956.365 502.533, 957.422 502.330 C 958.478 502.127, 959.828 501.574, 960.422 501.102 C 961.015 500.631, 962.625 499.919, 964 499.521 C 976.600 495.870, 1013.737 472.257, 1011.232 469.489 C 1010.830 469.044, 1010.993 468.960, 1011.595 469.303 C 1013.586 470.437, 1030.505 451.051, 1040.876 435.750 C 1042.647 433.137, 1043.819 431, 1043.480 431 C 1043.141 431, 1043.710 429.762, 1044.744 428.250 C 1047.718 423.901, 1054.647 408.765, 1055.407 404.958 C 1055.567 404.156, 1056.033 402.600, 1056.443 401.500 C 1068.532 369.036, 1064.020 303.543, 1048.338 283.853 C 1047.745 283.109, 1046.729 280.848, 1046.079 278.830 C 1045.429 276.811, 1044.246 274.619, 1043.449 273.958 C 1042.652 273.296, 1042 272.243, 1042 271.617 C 1042 270.992, 1040.857 269.247, 1039.460 267.740 C 1038.062 266.233, 1037.180 265, 1037.499 265 C 1037.818 265, 1037.625 264.438, 1037.070 263.750 C 1036.515 263.063, 1033.953 259.800, 1031.375 256.500 C 1020.851 243.025, 1009.924 232.232, 1000.786 226.288 C 998.429 224.755, 995.714 222.793, 994.754 221.929 C 993.793 221.065, 990.991 219.351, 988.526 218.120 C 986.062 216.889, 983.779 215.451, 983.454 214.925 C 983.128 214.398, 982.443 214.226, 981.931 214.543 C 981.419 214.859, 981 214.641, 981 214.059 C 981 213.477, 980.325 213, 979.500 213 C 978.675 213, 978 212.550, 978 212 C 978 211.450, 977.212 210.993, 976.250 210.985 C 975.288 210.977, 973.375 210.317, 972 209.519 C 966.724 206.457, 960.781 204.017, 959.910 204.556 C 959.409 204.865, 959 204.703, 959 204.196 C 959 202.973, 950.706 200.447, 939 198.105 C 924.806 195.265, 921.202 194.865, 920.471 196.046 C 920.021 196.775, 919.416 196.760, 918.499 196 C 917.176 194.901, 890.660 195.294, 883 196.526 C 869.972 198.620, 853.459 203.126, 854.607 204.274 C 854.932 204.599, 854.253 204.617, 853.099 204.316 C 851.892 204, 851 204.242, 851 204.883 C 851 205.498, 850.662 205.914, 850.250 205.810 C 848.935 205.476, 839 209.436, 839 210.294 C 839 210.747, 838.634 210.892, 838.188 210.616 C 837.741 210.340, 836.096 211.213, 834.532 212.557 C 832.968 213.901, 831.185 215, 830.569 215 C 828.985 215, 814.827 223.916, 812.898 226.127 C 812.018 227.137, 811.016 227.682, 810.672 227.339 C 810.328 226.995, 809.763 227.453, 809.417 228.357 C 809.070 229.261, 808.145 230, 807.362 230 C 806.578 230, 805.668 230.703, 805.338 231.562 C 804.834 232.874, 804.320 232.730, 802.119 230.662 C 798.055 226.841, 776.836 213, 775.044 213 C 774.164 213, 772.680 212.107, 771.745 211.016 C 770.811 209.924, 768.236 208.742, 766.023 208.388 C 763.810 208.034, 762 207.325, 762 206.813 C 762 206.301, 761.550 206.160, 761 206.500 C 760.450 206.840, 760 206.704, 760 206.199 C 760 205.169, 746.148 200.307, 741.500 199.706 C 739.850 199.492, 737.825 199.046, 737 198.714 C 736.175 198.383, 733.700 197.856, 731.500 197.542 C 729.300 197.229, 725.250 196.642, 722.500 196.237 C 702.429 193.280, 655.280 198.320, 649.568 204.032 C 649.035 204.565, 647.538 205, 646.241 205 C 644.944 205, 644.134 205.408, 644.442 205.907 C 644.751 206.405, 644.169 206.596, 643.150 206.329 C 642.132 206.063, 640.588 206.555, 639.721 207.422 C 638.853 208.290, 637.436 209, 636.571 209 C 635.707 209, 635 209.450, 635 210 C 635 210.550, 634.663 210.919, 634.250 210.820 C 633.237 210.576, 625.585 214.308, 625.167 215.250 C 624.983 215.662, 624.399 216, 623.868 216 C 622.732 216, 610.654 224.154, 610.167 225.250 C 609.983 225.662, 609.196 226, 608.417 226 C 607.637 226, 606.997 226.338, 606.993 226.750 C 606.970 229.339, 599.938 232.254, 597.984 230.485 C 596.893 229.498, 596 228.959, 596 229.289 C 596 229.618, 594.538 228.540, 592.750 226.893 C 590.962 225.245, 586.913 222.467, 583.750 220.718 C 580.587 218.969, 578 217.192, 578 216.769 C 578 216.346, 577.413 216, 576.696 216 C 575.978 216, 573.278 214.660, 570.696 213.022 C 568.113 211.384, 566 210.329, 566 210.677 C 566 211.025, 565.117 210.511, 564.037 209.534 C 562.958 208.557, 561.420 208.009, 560.620 208.316 C 559.820 208.623, 558.906 208.199, 558.590 207.373 C 558.273 206.548, 557.561 206.153, 557.007 206.496 C 556.453 206.838, 556 206.641, 556 206.059 C 556 205.477, 554.950 205, 553.667 205 C 552.383 205, 550.996 204.663, 550.583 204.250 C 550.171 203.838, 549.533 203.462, 549.167 203.416 C 548.800 203.370, 547.150 202.775, 545.500 202.095 C 543.850 201.414, 541.150 200.735, 539.500 200.587 C 537.850 200.438, 535.308 199.824, 533.852 199.222 C 523.615 194.990, 464.382 194.049, 468.517 198.184 C 468.886 198.553, 467.796 198.636, 466.094 198.368 C 464.188 198.067, 463 198.310, 463 198.999 C 463 199.614, 462.628 199.888, 462.174 199.607 C 461.274 199.051, 449.457 201.595, 447.627 202.738 C 447.007 203.125, 445.600 203.581, 444.500 203.750 C 443.400 203.919, 442.350 204.495, 442.167 205.029 C 441.983 205.563, 441.083 206.002, 440.167 206.004 C 439.250 206.006, 437.038 206.899, 435.250 207.989 C 433.462 209.079, 432 209.748, 432 209.476 C 432 208.909, 421.759 214.074, 421 215.024 C 420.725 215.368, 418.475 216.741, 416 218.075 C 413.525 219.409, 411.350 220.838, 411.167 221.250 C 410.983 221.662, 410.387 222, 409.841 222 C 408.754 222, 396.949 230.767, 395.765 232.453 C 395.276 233.150, 395.026 233.105, 395.015 232.317 C 395.007 231.667, 394.086 230.845, 392.968 230.490 C 391.850 230.135, 389.938 228.862, 388.718 227.661 C 385.304 224.300, 366.019 212, 364.162 212 C 363.523 212, 363 211.523, 363 210.941 C 363 210.359, 362.581 210.141, 362.069 210.457 C 361.557 210.774, 360.856 210.575, 360.510 210.016 C 360.165 209.457, 359.009 209, 357.941 209 C 356.873 209, 356 208.594, 356 208.098 C 356 206.989, 350.396 204.937, 349.585 205.748 C 349.263 206.070, 349 205.907, 349 205.385 C 349 204.863, 346.863 203.849, 344.250 203.131 C 341.637 202.413, 338.375 201.449, 337 200.989 C 331.702 199.214, 323.909 197.821, 322.436 198.386 C 321.589 198.711, 321.134 198.592, 321.425 198.121 C 322.484 196.409, 279.563 193.770, 277.888 195.445 M 279.387 227.946 C 278.884 228.450, 277.514 228.695, 270.739 229.495 C 268.120 229.805, 264.745 230.526, 263.239 231.099 C 261.733 231.672, 260.387 232.109, 260.250 232.070 C 260.113 232.032, 259.887 232.034, 259.750 232.077 C 259.613 232.119, 258.825 232.331, 258 232.548 C 250.823 234.436, 247.407 235.595, 246.888 236.318 C 246.552 236.787, 245.984 237.123, 245.628 237.065 C 245.271 237.007, 243.621 237.662, 241.960 238.521 C 240.300 239.379, 238.504 239.812, 237.971 239.482 C 237.437 239.152, 237 239.279, 237 239.764 C 237 240.249, 235.088 241.653, 232.750 242.884 C 223.292 247.866, 216.733 252.570, 209.992 259.205 C 208.480 260.693, 207.027 261.693, 206.761 261.428 C 206.496 261.163, 205.009 262.645, 203.456 264.723 C 201.904 266.800, 199.366 269.665, 197.817 271.089 C 196.268 272.513, 195 274.006, 195 274.406 C 195 275.208, 190.240 281.915, 188.545 283.500 C 187.957 284.050, 185.941 287.559, 184.064 291.299 C 182.187 295.038, 180.272 298.332, 179.809 298.618 C 179.346 298.904, 179.207 299.526, 179.500 300 C 179.793 300.474, 179.575 301.144, 179.016 301.490 C 178.457 301.835, 178 302.991, 178 304.059 C 178 305.127, 177.523 306, 176.941 306 C 176.359 306, 176.160 306.450, 176.500 307 C 176.840 307.550, 176.641 308, 176.059 308 C 175.477 308, 175 308.944, 175 310.099 C 175 311.253, 174.366 313.616, 173.591 315.349 C 167.233 329.567, 166.200 373.163, 171.965 383.935 C 172.573 385.071, 172.868 386, 172.621 386 C 172.374 386, 173.063 388.363, 174.151 391.250 C 175.240 394.137, 176.738 398.433, 177.481 400.796 C 178.224 403.160, 179.359 405.727, 180.002 406.503 C 180.646 407.278, 180.911 408.335, 180.592 408.851 C 180.273 409.368, 180.684 410.048, 181.506 410.364 C 182.328 410.679, 183 411.626, 183 412.469 C 183 413.311, 183.420 414, 183.933 414 C 184.774 414, 185.930 416.360, 186.006 418.232 C 186.022 418.635, 186.949 419.985, 188.065 421.232 C 193.264 427.040, 198.797 434.877, 198.182 435.562 C 197.807 435.979, 198.061 435.998, 198.746 435.604 C 199.528 435.154, 200.422 435.832, 201.148 437.424 C 201.783 438.820, 203.112 440.218, 204.101 440.532 C 205.089 440.846, 206.176 441.979, 206.516 443.051 C 206.856 444.123, 207.527 445, 208.006 445 C 208.485 445, 210.367 446.388, 212.188 448.084 C 215.692 451.346, 224.390 457.461, 229.203 460.044 C 230.785 460.893, 231.737 461.929, 231.320 462.347 C 230.903 462.764, 231.263 462.836, 232.120 462.507 C 232.978 462.178, 234.257 462.604, 234.962 463.454 C 235.668 464.305, 236.696 465, 237.247 465 C 238.730 465, 250.448 470.325, 250.815 471.166 C 250.988 471.563, 251.754 471.648, 252.517 471.355 C 253.280 471.062, 254.488 471.187, 255.202 471.632 C 255.916 472.078, 257.365 472.577, 258.422 472.741 C 259.478 472.905, 260.828 473.423, 261.422 473.891 C 262.015 474.360, 263.288 474.616, 264.250 474.460 C 265.212 474.304, 266 474.573, 266 475.057 C 266 475.541, 266.675 475.678, 267.500 475.362 C 268.325 475.045, 269 475.202, 269 475.711 C 269 476.220, 270.238 476.680, 271.750 476.734 C 273.262 476.787, 278.550 477.152, 283.500 477.544 C 288.450 477.937, 293.623 478.335, 294.995 478.430 C 296.368 478.525, 301.247 478.047, 305.838 477.368 C 310.429 476.689, 314.892 476.405, 315.757 476.737 C 316.879 477.168, 317.094 476.961, 316.510 476.015 C 316.011 475.208, 316.081 474.932, 316.689 475.308 C 317.238 475.647, 319.445 475.411, 321.594 474.782 C 323.742 474.154, 326.096 473.748, 326.824 473.881 C 327.552 474.013, 328.677 473.683, 329.324 473.146 C 329.971 472.609, 333.425 471.170, 337 469.947 C 347.228 466.448, 361.304 458.767, 369.750 452.075 C 373.378 449.200, 373.560 448.713, 371.702 446.821 C 368.918 443.986, 358.396 426.860, 358.756 425.750 C 358.890 425.337, 358.550 425, 358 425 C 357.450 425, 357 424.380, 357 423.622 C 357 422.865, 356.325 421.685, 355.500 421 C 354.675 420.315, 354 418.685, 354 417.378 C 354 416.070, 353.550 415, 353 415 C 352.450 415, 352 414.303, 352 413.450 C 352 412.598, 351.253 410.461, 350.341 408.700 C 348.268 404.704, 343.885 388.995, 344.544 387.928 C 344.813 387.494, 344.628 386.888, 344.133 386.582 C 343.638 386.277, 342.903 383.433, 342.499 380.263 C 342.095 377.093, 341.501 372.700, 341.179 370.500 C 340.294 364.445, 340.390 338.302, 341.322 331.500 C 343.115 318.419, 348.138 299.151, 350.066 297.959 C 350.674 297.584, 351.143 296.991, 351.109 296.643 C 350.909 294.578, 352.413 290, 353.292 290 C 353.865 290, 354.053 289.719, 353.710 289.376 C 352.881 288.548, 356.766 281, 358.020 281 C 358.559 281, 358.947 280.663, 358.882 280.250 C 358.536 278.060, 359.206 276.156, 361 274.230 C 362.100 273.050, 363 271.849, 363 271.561 C 363 270.680, 369.817 260.326, 371.516 258.627 C 373.714 256.429, 361.938 245, 357.474 245 C 357.137 245, 354.979 243.732, 352.680 242.181 C 350.381 240.631, 344.900 238.111, 340.500 236.583 C 336.100 235.054, 331.190 233.214, 329.588 232.495 C 327.986 231.776, 326.074 231.418, 325.338 231.701 C 324.602 231.983, 324 231.763, 324 231.213 C 324 230.662, 322.988 230.224, 321.750 230.240 C 320.512 230.255, 316.575 229.749, 313 229.115 C 306.628 227.986, 280.264 227.068, 279.387 227.946 M 482.528 227.806 C 482.359 227.975, 480.933 228.282, 479.360 228.488 C 477.787 228.694, 476.500 228.951, 476.500 229.059 C 476.500 229.167, 475.450 229.363, 474.167 229.495 C 471.761 229.742, 465.604 231.462, 460.718 233.251 C 459.188 233.811, 457.666 233.999, 457.336 233.670 C 457.006 233.340, 454.771 234.222, 452.368 235.630 C 449.966 237.038, 448 237.897, 448 237.538 C 448 237.180, 447 237.587, 445.777 238.443 C 444.555 239.299, 442.993 240, 442.306 240 C 441.022 240, 423.885 250.922, 420.750 253.738 C 418.649 255.626, 418.524 257.381, 420.362 259.219 C 422.597 261.454, 431.369 276.090, 434.016 282 C 435.371 285.025, 436.709 287.725, 436.989 288 C 437.915 288.906, 442.207 299.449, 442.689 302 C 442.949 303.375, 443.424 305.175, 443.745 306 C 444.065 306.825, 444.405 307.725, 444.500 308 C 444.595 308.275, 444.995 309.225, 445.390 310.110 C 445.784 310.996, 446.233 312.909, 446.388 314.362 C 446.543 315.815, 446.969 317.302, 447.335 317.668 C 448.345 318.679, 448.129 320.198, 447.068 319.542 C 446.556 319.225, 446.780 320.256, 447.566 321.832 C 448.353 323.409, 448.833 326.099, 448.634 327.811 C 448.434 329.523, 448.721 331.074, 449.270 331.257 C 450.454 331.651, 451.587 366.089, 450.503 368.729 C 450.103 369.703, 449.673 372.300, 449.547 374.500 C 449.422 376.700, 448.958 379.619, 448.517 380.987 C 448.076 382.354, 447.575 384.604, 447.404 385.987 C 446.896 390.096, 446.432 391.901, 445.696 392.638 C 445.313 393.020, 445 394.129, 445 395.102 C 445 396.074, 444.478 398.137, 443.840 399.685 C 443.201 401.233, 442.771 403.063, 442.883 403.750 C 442.996 404.438, 442.598 405, 442 405 C 441.402 405, 441.004 405.563, 441.117 406.250 C 441.229 406.938, 440.852 408.625, 440.280 410 C 439.708 411.375, 439.128 412.950, 438.992 413.500 C 438.641 414.919, 427.959 435.105, 426.866 436.414 C 422.595 441.530, 418.145 450.118, 419.495 450.637 C 420.317 450.952, 420.694 451.725, 420.334 452.355 C 419.974 452.985, 420.038 453.176, 420.477 452.780 C 421.247 452.084, 426.453 455.115, 428.500 457.452 C 431.354 460.709, 465.355 475.016, 468.291 474.194 C 468.725 474.073, 470.074 474.504, 471.287 475.154 C 472.500 475.803, 474.845 476.477, 476.497 476.652 C 478.148 476.827, 481.975 477.260, 485 477.614 C 491.859 478.418, 501.659 478.478, 509.500 477.766 C 514.718 477.292, 517.991 476.670, 527.500 474.345 C 528.600 474.076, 530.400 473.776, 531.500 473.678 C 532.600 473.580, 533.750 473.165, 534.056 472.755 C 534.362 472.345, 535.824 471.909, 537.306 471.787 C 538.788 471.664, 540 471.212, 540 470.782 C 540 470.352, 540.337 470.078, 540.750 470.173 C 541.163 470.268, 545.044 468.693, 549.375 466.673 C 553.706 464.653, 557.576 463, 557.975 463 C 558.374 463, 560.564 461.650, 562.841 460 C 565.119 458.350, 567.231 457, 567.534 457 C 568.145 457, 568.961 456.387, 573.876 452.237 C 577.645 449.054, 576.314 445.184, 568.066 435.344 C 565.957 432.828, 559.155 419.178, 559.726 418.608 C 560.060 418.273, 559.782 418, 559.108 418 C 558.434 418, 558.160 417.550, 558.500 417 C 558.840 416.450, 558.641 416, 558.059 416 C 557.477 416, 557 415.127, 557 414.059 C 557 412.991, 556.543 411.835, 555.984 411.490 C 555.425 411.144, 555.226 410.443, 555.543 409.931 C 555.859 409.419, 555.656 409, 555.090 409 C 554.525 409, 554.304 408.371, 554.600 407.601 C 554.895 406.832, 554.656 405.905, 554.068 405.542 C 553.481 405.179, 553 403.784, 553 402.441 C 553 401.098, 552.611 400, 552.135 400 C 551.310 400, 548.570 390.138, 547.388 382.910 C 547.081 381.034, 546.648 378.375, 546.427 377 C 543.537 359.078, 544.224 334.246, 548.039 318.728 C 548.611 316.403, 549.315 313.247, 549.605 311.715 C 549.894 310.184, 550.856 307.259, 551.742 305.215 C 552.629 303.172, 553.499 300.938, 553.677 300.250 C 554.968 295.254, 555.588 293.757, 560.711 283.250 C 563.191 278.163, 565.647 274, 566.169 274 C 566.691 274, 566.838 273.547, 566.496 272.993 C 566.153 272.439, 566.502 271.745, 567.270 271.450 C 568.038 271.155, 568.667 270.324, 568.667 269.604 C 568.667 268.883, 570.611 265.522, 572.986 262.135 C 577.382 255.869, 575.583 251.174, 567.750 248.469 C 566.788 248.137, 566 247.500, 566 247.054 C 566 246.608, 564.538 245.651, 562.750 244.928 C 560.962 244.205, 559.179 243.138, 558.786 242.557 C 558.090 241.526, 557.657 241.383, 554.441 241.125 C 553.531 241.052, 553.179 240.519, 553.595 239.845 C 553.988 239.211, 553.898 238.945, 553.395 239.256 C 552.892 239.567, 550.910 239.114, 548.990 238.249 C 547.071 237.385, 545.275 236.617, 545 236.544 C 544.725 236.471, 540.900 235.244, 536.500 233.819 C 532.100 232.394, 526.703 230.910, 524.508 230.523 C 522.312 230.135, 520.076 229.547, 519.540 229.216 C 519.004 228.884, 517.200 228.536, 515.532 228.443 C 513.865 228.349, 512.275 228.169, 512 228.043 C 511.227 227.687, 482.875 227.460, 482.528 227.806 M 691.569 227.764 C 691.423 227.910, 689.098 228.200, 686.402 228.408 C 683.706 228.616, 680.734 229.099, 679.798 229.482 C 678.862 229.864, 677.624 229.886, 677.048 229.530 C 676.472 229.173, 676 229.411, 676 230.058 C 676 230.768, 675.024 231.047, 673.535 230.762 C 672.179 230.503, 670.942 230.572, 670.785 230.916 C 670.430 231.695, 654.794 236.593, 653.757 236.250 C 653.341 236.113, 653 236.360, 653 236.799 C 653 237.239, 651.313 238.194, 649.250 238.923 C 643.965 240.790, 631.896 248.248, 626.034 253.269 C 622.433 256.353, 622.428 256.322, 627.915 263.975 C 630.074 266.986, 631.625 269.798, 631.361 270.225 C 631.098 270.651, 631.311 271, 631.836 271 C 632.361 271, 633.669 272.688, 634.742 274.750 C 643.751 292.067, 643.882 292.344, 645.996 298.489 C 647.039 301.520, 647.579 304.007, 647.196 304.015 C 646.813 304.024, 647.060 304.386, 647.744 304.821 C 648.428 305.255, 649.412 307.611, 649.930 310.055 C 650.449 312.500, 651.389 316.525, 652.019 319 C 652.650 321.475, 653.332 325.750, 653.535 328.500 C 653.738 331.250, 653.973 333.500, 654.059 333.500 C 654.144 333.500, 654.364 335.975, 654.547 339 C 654.730 342.025, 655.164 346.750, 655.512 349.500 C 656.060 353.842, 655.455 362.792, 653.617 377.515 C 653.052 382.038, 651.916 386.947, 649.569 395 C 648.688 398.025, 647.726 401.593, 647.431 402.930 C 647.137 404.266, 646.594 405.841, 646.226 406.430 C 645.858 407.018, 645.472 408.052, 645.370 408.727 C 645.008 411.109, 640.633 420, 639.822 420 C 639.370 420, 639 420.714, 639 421.588 C 639 423.581, 632.785 434.780, 630.048 437.718 C 628.922 438.927, 628 440.298, 628 440.764 C 628 441.230, 626.875 443.136, 625.500 445 C 624.125 446.864, 623.014 448.864, 623.032 449.444 C 623.084 451.189, 646.405 466, 649.101 466 C 649.601 466, 652.342 467.125, 655.192 468.500 C 658.042 469.875, 661.158 471, 662.116 471 C 663.074 471, 664.452 471.583, 665.179 472.296 C 668.531 475.582, 701.412 479.246, 713 477.624 C 714.925 477.355, 718.905 476.879, 721.844 476.568 C 724.783 476.256, 727.521 475.796, 727.928 475.544 C 728.733 475.047, 734.733 473.806, 736.750 473.720 C 737.438 473.691, 738 473.217, 738 472.667 C 738 472.117, 738.262 471.928, 738.581 472.248 C 738.901 472.568, 741.019 471.998, 743.287 470.983 C 745.556 469.967, 747.769 469.357, 748.206 469.627 C 748.643 469.897, 749 469.641, 749 469.059 C 749 468.477, 749.569 468, 750.265 468 C 750.960 468, 753.210 467.099, 755.265 465.998 C 757.319 464.897, 759 464.208, 759 464.468 C 759 464.727, 760.638 463.828, 762.640 462.470 C 764.641 461.111, 766.891 460, 767.640 460 C 768.388 460, 769 459.647, 769 459.216 C 769 458.441, 775.031 454.475, 776 454.612 C 780.969 455.318, 781.495 448.808, 777.002 442.201 C 774.360 438.315, 772.453 434.880, 772.766 434.568 C 773.078 434.255, 772.870 434, 772.303 434 C 771.247 434, 762.732 417.498, 761.467 413 C 761.080 411.625, 760.152 409.801, 759.406 408.948 C 758.659 408.094, 757.880 406.519, 757.674 405.448 C 757.469 404.376, 757.071 402.825, 756.791 402 C 754.231 394.454, 753.173 390.519, 752.601 386.404 C 752.440 385.252, 751.994 383.800, 751.610 383.177 C 749.289 379.422, 748.716 328.500, 750.994 328.500 C 751.272 328.500, 752.005 324.621, 752.411 321 C 753.375 312.411, 756.106 302.854, 760.053 294.261 C 761.124 291.929, 762 289.567, 762 289.011 C 762 288.455, 762.450 288, 763 288 C 763.550 288, 764 287.605, 764 287.122 C 764 284.744, 770.975 271.923, 777.250 262.765 C 780.923 257.405, 781.992 254, 780 254 C 779.450 254, 778.146 253.146, 777.102 252.102 C 776.058 251.058, 773.133 248.990, 770.602 247.507 C 768.071 246.024, 766 244.328, 766 243.738 C 766 243.149, 765.719 242.947, 765.376 243.290 C 764.691 243.976, 752.704 238.076, 752.165 236.788 C 751.980 236.348, 751.437 236.230, 750.959 236.526 C 750.480 236.822, 748.381 236.308, 746.294 235.385 C 744.207 234.462, 741.825 233.573, 741 233.409 C 735.932 232.404, 731 230.598, 731 229.748 C 731 229.151, 730.464 229.200, 729.658 229.869 C 728.920 230.481, 728.007 230.674, 727.629 230.296 C 726.889 229.556, 725.923 229.353, 719 228.481 C 714.283 227.887, 692.028 227.305, 691.569 227.764 M 892.394 228.171 C 892.166 228.540, 890.521 228.716, 888.740 228.562 C 886.958 228.408, 885.050 228.609, 884.500 229.010 C 883.595 229.669, 876.909 231.416, 871.315 232.454 C 870.113 232.678, 868.201 233.357, 867.065 233.965 C 865.929 234.573, 865 234.846, 865 234.571 C 865 234.296, 862.862 234.995, 860.250 236.125 C 857.638 237.255, 854.705 238.340, 853.733 238.536 C 852.761 238.732, 851.377 239.479, 850.659 240.196 C 849.940 240.913, 846.910 242.625, 843.926 244 C 840.942 245.375, 837.539 247.400, 836.365 248.500 C 835.191 249.600, 832.598 251.761, 830.604 253.302 C 826.977 256.103, 826.977 256.103, 829.489 259.396 C 830.870 261.207, 832 263.010, 832 263.403 C 832 263.796, 833.304 265.778, 834.897 267.809 C 837.505 271.132, 846.554 287.383, 846.843 289.260 C 846.907 289.679, 847.596 291.254, 848.375 292.760 C 849.549 295.034, 850.399 297.553, 852.502 305 C 852.580 305.275, 853.412 308.023, 854.351 311.107 C 857.758 322.294, 859.769 339.533, 859.411 354.500 C 859.254 361.100, 859.109 367.929, 859.089 369.675 C 859.069 371.421, 858.651 373.098, 858.160 373.401 C 857.670 373.704, 857.477 375.045, 857.732 376.380 C 858.280 379.247, 852.088 405, 850.850 405 C 850.383 405, 849.998 405.788, 849.996 406.750 C 849.994 407.712, 849.079 409.999, 847.962 411.830 C 846.827 413.693, 846.498 414.872, 847.216 414.506 C 847.922 414.146, 847.825 414.448, 847 415.176 C 846.175 415.904, 845.376 417.605, 845.225 418.956 C 845.074 420.307, 844.624 421.657, 844.225 421.956 C 843.826 422.255, 841.965 425.517, 840.090 429.204 C 838.214 432.892, 836.077 436.140, 835.340 436.423 C 834.603 436.706, 834 437.594, 834 438.397 C 834 439.200, 833.423 440.452, 832.717 441.179 C 827.608 446.441, 826.535 449.280, 829.036 450.919 C 830.363 451.789, 833.260 453.922, 835.474 455.661 C 837.688 457.400, 843.325 460.717, 848 463.033 C 852.675 465.350, 856.725 467.560, 857 467.946 C 857.543 468.708, 866.003 471.742, 869.930 472.584 C 871.266 472.870, 872.676 473.300, 873.063 473.539 C 873.450 473.778, 875.507 474.248, 877.633 474.582 C 879.760 474.917, 881.991 475.594, 882.592 476.087 C 883.193 476.579, 883.923 476.744, 884.215 476.452 C 884.507 476.160, 887.615 476.371, 891.123 476.921 C 897.786 477.967, 911.830 478.313, 918.236 477.590 C 930.613 476.193, 931.551 475.975, 947.301 470.837 C 950.491 469.796, 953.478 469.177, 953.937 469.461 C 954.397 469.745, 955.329 469.308, 956.009 468.489 C 956.689 467.670, 958.090 467, 959.122 467 C 960.155 467, 961 466.623, 961 466.163 C 961 465.702, 964.375 463.589, 968.500 461.467 C 972.625 459.345, 976 457.247, 976 456.804 C 976 456.362, 976.675 456, 977.500 456 C 978.325 456, 979 455.580, 979 455.067 C 979 454.554, 979.851 453.865, 980.892 453.534 C 981.932 453.204, 984.295 451.379, 986.142 449.478 C 987.989 447.577, 989.817 446.017, 990.203 446.011 C 990.956 445.999, 1000 437.072, 1000 436.340 C 1000 436.101, 1001.125 434.862, 1002.500 433.588 C 1003.875 432.313, 1005 430.958, 1005 430.575 C 1005 430.007, 1008.165 425.476, 1012.735 419.500 C 1013.156 418.950, 1014.174 417.150, 1014.998 415.500 C 1015.823 413.850, 1016.723 412.275, 1016.998 412 C 1018.096 410.906, 1021.076 405, 1020.531 405 C 1020.211 405, 1020.723 403.538, 1021.670 401.750 C 1022.616 399.962, 1023.490 398.050, 1023.612 397.500 C 1023.733 396.950, 1024.933 393.525, 1026.277 389.889 C 1031.050 376.977, 1033.245 349.943, 1030.814 334 C 1029.621 326.181, 1027.916 318.573, 1026.882 316.457 C 1026.333 315.334, 1025.754 313.759, 1025.596 312.957 C 1025.437 312.156, 1024.788 310.233, 1024.154 308.685 C 1023.519 307.137, 1023 305.262, 1023 304.518 C 1023 303.775, 1022.525 303.008, 1021.946 302.815 C 1021.366 302.622, 1020.783 301.730, 1020.652 300.833 C 1020.520 299.936, 1019.925 298.594, 1019.329 297.851 C 1018.126 296.352, 1016.892 292.816, 1017.262 291.929 C 1017.393 291.614, 1016.715 290.573, 1015.756 289.613 C 1014.797 288.654, 1011.987 284.862, 1009.510 281.185 C 1003.301 271.965, 995.273 262.656, 990.500 259.141 C 988.300 257.521, 984.700 254.585, 982.500 252.617 C 980.300 250.649, 978.185 249.030, 977.800 249.019 C 977.415 249.009, 975.165 247.694, 972.800 246.098 C 966.604 241.916, 950.111 234.509, 944.586 233.427 C 943.533 233.220, 940.608 232.372, 938.086 231.541 C 935.564 230.710, 931.761 229.812, 929.636 229.546 C 927.510 229.280, 924.810 228.748, 923.636 228.364 C 920.875 227.461, 892.940 227.289, 892.394 228.171 M 392.884 283.750 C 391.631 285.813, 390.206 287.775, 389.717 288.112 C 389.229 288.448, 388.932 288.898, 389.059 289.112 C 389.185 289.325, 387.198 293.796, 384.644 299.046 C 382.090 304.296, 380 309.259, 380 310.074 C 380 310.888, 379.411 312.443, 378.690 313.527 C 377.970 314.612, 377.294 316.804, 377.189 318.399 C 377.084 319.993, 376.633 321.793, 376.188 322.399 C 375.742 323.004, 375.432 324.175, 375.499 325 C 375.566 325.825, 375.259 327.535, 374.816 328.801 C 372.078 336.624, 371.969 369.905, 374.668 374.271 C 375.020 374.842, 374.831 375.014, 374.248 374.653 C 373.581 374.241, 373.381 374.741, 373.710 375.999 C 373.998 377.099, 374.631 378, 375.117 378 C 375.602 378, 375.924 378.337, 375.832 378.750 C 375.583 379.856, 377.020 387.188, 377.938 389.500 C 381.780 399.173, 383.333 403.542, 383.333 404.671 C 383.333 405.402, 383.678 406, 384.099 406 C 384.521 406, 385.148 406.891, 385.494 407.980 C 386.124 409.967, 391.126 418.559, 394.079 422.728 C 395.961 425.385, 397.610 423.669, 402.512 413.951 C 404.025 410.953, 405.586 408.275, 405.983 408 C 406.379 407.725, 407.726 404.350, 408.975 400.500 C 410.225 396.650, 411.642 393.072, 412.124 392.550 C 412.606 392.027, 413 390.565, 413 389.300 C 413 388.035, 413.410 387, 413.912 387 C 414.413 387, 414.696 386.212, 414.541 385.250 C 414.386 384.288, 414.517 383.058, 414.832 382.518 C 415.489 381.392, 415.430 381.728, 417.283 368.603 C 419.768 351.015, 417.350 325.980, 411.888 312.720 C 410.805 310.091, 410.189 307.504, 410.518 306.970 C 410.848 306.437, 410.641 306, 410.059 306 C 409.477 306, 408.999 305.438, 408.998 304.750 C 408.993 302.361, 397.104 280.018, 395.832 280.006 C 395.464 280.003, 394.138 281.688, 392.884 283.750 M 803.237 281.541 C 797.350 288.076, 786.946 313.400, 783.945 328.500 C 783.289 331.800, 782.617 335.175, 782.453 336 C 782.288 336.825, 782.070 337.725, 781.969 338 C 781.867 338.275, 781.804 344.575, 781.828 352 C 781.868 364.206, 782.620 371.882, 784.621 380.500 C 785.004 382.150, 785.359 384.512, 785.409 385.750 C 785.459 386.988, 785.802 388, 786.171 388 C 786.539 388, 787.159 389.448, 787.548 391.217 C 787.936 392.987, 788.644 395.124, 789.121 395.967 C 789.598 396.810, 790.778 399.526, 791.744 402.003 C 801.355 426.647, 804.131 427.850, 812.904 411.170 C 813.677 409.701, 814.622 408.275, 815.005 408 C 815.388 407.725, 815.945 406.375, 816.243 405 C 816.710 402.840, 817.800 399.960, 822.107 389.500 C 829.059 372.621, 829.221 341.615, 822.480 318 C 821.617 314.975, 820.678 311.385, 820.394 310.021 C 820.110 308.658, 819.542 307.308, 819.132 307.021 C 818.722 306.735, 817.782 304.925, 817.043 303 C 815.031 297.757, 812.675 292.564, 812.052 292 C 811.748 291.725, 810.695 289.925, 809.712 288 C 806.527 281.768, 804.687 279.932, 803.237 281.541 M 597.045 284.250 C 595.985 286.038, 594.754 287.950, 594.309 288.500 C 592.112 291.215, 583.355 311.487, 582.430 316 C 582.373 316.275, 582.071 317.175, 581.758 318 C 580.512 321.284, 577.015 340.215, 577.507 341.012 C 577.796 341.479, 577.553 342.158, 576.968 342.520 C 576.227 342.978, 576.260 343.608, 577.074 344.589 C 577.718 345.365, 577.852 346, 577.372 346 C 576.458 346, 576.458 354.666, 577.372 361.500 C 578.673 371.225, 579.410 377.659, 579.453 379.666 C 579.479 380.858, 579.806 382.139, 580.181 382.514 C 580.556 382.889, 580.592 383.900, 580.261 384.762 C 579.829 385.887, 580.038 386.095, 581 385.500 C 581.979 384.895, 582.168 385.120, 581.701 386.336 C 581.350 387.251, 581.449 388, 581.920 388 C 582.392 388, 583.093 389.688, 583.478 391.750 C 583.864 393.813, 584.550 395.950, 585.004 396.500 C 585.458 397.050, 585.863 397.840, 585.904 398.255 C 585.944 398.670, 586.654 400.630, 587.482 402.611 C 588.310 404.592, 588.695 406.684, 588.339 407.261 C 587.983 407.837, 588.158 408.020, 588.729 407.667 C 589.301 407.314, 590.293 408.294, 590.936 409.845 C 595.543 420.969, 599.649 425.149, 602.412 421.527 C 607.774 414.496, 616.441 395.238, 617.726 387.500 C 617.908 386.400, 618.470 385.358, 618.973 385.185 C 619.476 385.012, 619.638 384.219, 619.332 383.423 C 619.026 382.626, 619.332 381.305, 620.011 380.487 C 620.689 379.669, 620.910 379, 620.500 379 C 620.090 379, 620.373 378.239, 621.128 377.308 C 622.296 375.867, 622.292 375.742, 621.095 376.463 C 620.050 377.093, 619.914 376.950, 620.565 375.905 C 621.046 375.132, 621.516 373.375, 621.610 372 C 622.775 354.966, 623.256 349.395, 623.611 348.820 C 623.843 348.445, 623.553 347.842, 622.968 347.480 C 622.227 347.022, 622.260 346.392, 623.074 345.411 C 623.903 344.412, 623.920 344, 623.134 344 C 622.522 344, 622.075 342.988, 622.140 341.750 C 622.321 338.267, 620.949 327.996, 619.952 325.372 C 619.459 324.077, 619.317 322.338, 619.635 321.509 C 619.953 320.679, 619.716 320, 619.107 320 C 618.498 320, 618 319.137, 618 318.083 C 618 317.029, 617.090 314.043, 615.978 311.448 C 614.865 308.853, 613.867 305.666, 613.760 304.365 C 613.652 303.064, 613.267 302, 612.905 302 C 612.543 302, 611.281 299.863, 610.102 297.250 C 603.282 282.145, 600.144 279.020, 597.045 284.250" stroke="none" fill="#f40434" fill-rule="evenodd"/></svg>