<?xml version="1.0" encoding="UTF-8"?>
<svg version="1.1" xmlns="http://www.w3.org/2000/svg" viewBox="121 160 958 341">
<path d="M0 0 C316.14 0 632.28 0 958 0 C956.3930801 4.01729975 955.02245241 6.65242804 952.5859375 10.09765625 C951.56693359 11.54881836 951.56693359 11.54881836 950.52734375 13.02929688 C949.81707031 14.03025391 949.10679687 15.03121094 948.375 16.0625 C943.48567599 22.99286453 938.66505203 29.95428705 933.97851562 37.02368164 C930.71180407 41.93785743 927.38513355 46.81103734 924.0625 51.6875 C922.95410713 53.31560598 921.84571555 54.94371284 920.73739624 56.5718689 C919.97626078 57.68994137 919.21505039 58.80796285 918.45376587 59.92593384 C915.77757703 63.85627733 913.10477523 67.78890828 910.43359375 71.72265625 C909.6828751 72.82789021 908.93214282 73.93311492 908.18139648 75.03833008 C906.77816751 77.10430402 905.37530546 79.17052724 903.97290039 81.23706055 C903.32184326 82.19523682 902.67078613 83.15341309 902 84.140625 C901.39086761 85.05728943 900.78173523 85.97395386 900.15414429 86.918396 C898 90 898 90 895.81544495 92.55421448 C887.38799496 102.94535653 886.10326427 114.59904292 884.02734375 127.51171875 C883.61393667 129.92652041 883.19749544 132.34080435 882.7782135 134.7545929 C881.68247522 141.10747198 880.62527597 147.46615203 879.5770874 153.82702637 C878.53006608 160.14672277 877.45129937 166.4609605 876.37304688 172.77539062 C875.94870796 175.26301849 875.52444215 177.75065883 875.10025024 180.23831177 C874.89166004 181.46132114 874.68306984 182.68433052 874.46815872 183.94440079 C873.84173179 187.62562359 873.21904256 191.30746165 872.59725952 194.98947144 C870.07150533 209.92067051 867.44470241 224.82770363 864.62890625 239.70703125 C864.47134291 240.54914343 864.31377956 241.39125561 864.15144157 242.25888634 C855.94312828 285.98730852 855.94312828 285.98730852 836.4375 299.51171875 C827.21865676 305.14053169 817.89134178 309.2762564 807.54296875 312.3671875 C806.0446904 312.81745049 806.0446904 312.81745049 804.5161438 313.27680969 C792.90982971 316.7013899 781.16527164 319.47886021 769.375 322.1875 C768.13013824 322.47557526 766.88527649 322.76365051 765.60269165 323.06045532 C698.5104 338.57933265 631.05583312 352.61958369 563.46185303 365.76715088 C554.60212528 367.49266109 545.7493836 369.24192896 536.91357422 371.08642578 C476.49606754 383.6951942 476.49606754 383.6951942 451.70910645 376.95394897 C444.35450583 374.9819015 436.91663875 373.60266595 429.42578125 372.2578125 C428.06790597 372.01299992 426.71004175 371.76812597 425.35218811 371.52319336 C423.23782793 371.14199677 421.12344717 370.76092033 419.00893879 370.38054657 C348.99594521 357.7525785 279.39836329 342.61322193 210 327 C209.30056023 326.84273941 208.60112045 326.68547882 207.88048553 326.52345276 C199.87190504 324.72204189 191.86760386 322.90300387 183.87084961 321.04971313 C181.80804705 320.57200087 179.74460596 320.09703413 177.68041992 319.62533569 C152.1501754 313.77208257 123.41953575 307.18199438 107 285 C98.56567472 271.46222617 96.24897681 255.12311541 93.3515625 239.6796875 C93.18420216 238.79767544 93.01684181 237.91566338 92.84440994 237.00692368 C89.98108342 221.88771736 87.423964 206.72375137 84.93694305 191.53870392 C83.72285936 184.15348405 82.48410752 176.77234247 81.24618149 169.39108658 C80.19237438 163.09138396 79.15830487 156.78947909 78.16162109 150.48046875 C77.17323483 144.23174139 76.1336439 137.99338614 75.06041336 131.7586937 C74.66834252 129.42816136 74.29399191 127.09456079 73.93961716 124.75799942 C71.49235403 108.70684698 66.82725557 97.71546792 56.61232376 85.04806137 C54.27833601 82.08330313 52.24253239 78.97634771 50.1875 75.8125 C42.91309309 64.79351108 35.43554523 53.91050739 28 43 C26.6757754 41.05599357 25.35155643 39.1119833 24.02734375 37.16796875 C23.39731445 36.24346924 22.76728516 35.31896973 22.11816406 34.36645508 C20.8840116 32.55538633 19.65027966 30.74403094 18.41699219 28.93237305 C15.35321708 24.43539533 12.27604505 19.94847736 9.17578125 15.4765625 C8.56766602 14.59661621 7.95955078 13.71666992 7.33300781 12.81005859 C6.17871162 11.14100869 5.02068202 9.47453272 3.85839844 7.81103516 C3.34954102 7.0741748 2.84068359 6.33731445 2.31640625 5.578125 C1.86724854 4.93262695 1.41809082 4.28712891 0.95532227 3.62207031 C0 2 0 2 0 0 Z " fill="#030303" transform="translate(121,160)"/>
<path d="M0 0 C316.14 0 632.28 0 958 0 C956.3930801 4.01729975 955.02245241 6.65242804 952.5859375 10.09765625 C951.56693359 11.54881836 951.56693359 11.54881836 950.52734375 13.02929688 C949.81707031 14.03025391 949.10679687 15.03121094 948.375 16.0625 C943.48567599 22.99286453 938.66505203 29.95428705 933.97851562 37.02368164 C930.71180407 41.93785743 927.38513355 46.81103734 924.0625 51.6875 C922.95410713 53.31560598 921.84571555 54.94371284 920.73739624 56.5718689 C919.97626078 57.68994137 919.21505039 58.80796285 918.45376587 59.92593384 C915.77757703 63.85627733 913.10477523 67.78890828 910.43359375 71.72265625 C909.6828751 72.82789021 908.93214282 73.93311492 908.18139648 75.03833008 C906.77816751 77.10430402 905.37530546 79.17052724 903.97290039 81.23706055 C903.32184326 82.19523682 902.67078613 83.15341309 902 84.140625 C901.39086761 85.05728943 900.78173523 85.97395386 900.15414429 86.918396 C898 90 898 90 895.81544495 92.55421448 C887.38799496 102.94535653 886.10326427 114.59904292 884.02734375 127.51171875 C883.61393667 129.92652041 883.19749544 132.34080435 882.7782135 134.7545929 C881.68247522 141.10747198 880.62527597 147.46615203 879.5770874 153.82702637 C878.53006608 160.14672277 877.45129937 166.4609605 876.37304688 172.77539062 C875.94870796 175.26301849 875.52444215 177.75065883 875.10025024 180.23831177 C874.89166004 181.46132114 874.68306984 182.68433052 874.46815872 183.94440079 C873.84173179 187.62562359 873.21904256 191.30746165 872.59725952 194.98947144 C870.07150533 209.92067051 867.44470241 224.82770363 864.62890625 239.70703125 C864.47134291 240.54914343 864.31377956 241.39125561 864.15144157 242.25888634 C855.94312828 285.98730852 855.94312828 285.98730852 836.4375 299.51171875 C827.21865676 305.14053169 817.89134178 309.2762564 807.54296875 312.3671875 C806.0446904 312.81745049 806.0446904 312.81745049 804.5161438 313.27680969 C792.90982971 316.7013899 781.16527164 319.47886021 769.375 322.1875 C768.13013824 322.47557526 766.88527649 322.76365051 765.60269165 323.06045532 C698.5104 338.57933265 631.05583312 352.61958369 563.46185303 365.76715088 C554.60212528 367.49266109 545.7493836 369.24192896 536.91357422 371.08642578 C476.49606754 383.6951942 476.49606754 383.6951942 451.70910645 376.95394897 C444.35450583 374.9819015 436.91663875 373.60266595 429.42578125 372.2578125 C428.06790597 372.01299992 426.71004175 371.76812597 425.35218811 371.52319336 C423.23782793 371.14199677 421.12344717 370.76092033 419.00893879 370.38054657 C348.99594521 357.7525785 279.39836329 342.61322193 210 327 C209.30056023 326.84273941 208.60112045 326.68547882 207.88048553 326.52345276 C199.87190504 324.72204189 191.86760386 322.90300387 183.87084961 321.04971313 C181.80804705 320.57200087 179.74460596 320.09703413 177.68041992 319.62533569 C152.1501754 313.77208257 123.41953575 307.18199438 107 285 C98.56567472 271.46222617 96.24897681 255.12311541 93.3515625 239.6796875 C93.18420216 238.79767544 93.01684181 237.91566338 92.84440994 237.00692368 C89.98108342 221.88771736 87.423964 206.72375137 84.93694305 191.53870392 C83.72285936 184.15348405 82.48410752 176.77234247 81.24618149 169.39108658 C80.19237438 163.09138396 79.15830487 156.78947909 78.16162109 150.48046875 C77.17323483 144.23174139 76.1336439 137.99338614 75.06041336 131.7586937 C74.66834252 129.42816136 74.29399191 127.09456079 73.93961716 124.75799942 C71.49235403 108.70684698 66.82725557 97.71546792 56.61232376 85.04806137 C54.27833601 82.08330313 52.24253239 78.97634771 50.1875 75.8125 C42.91309309 64.79351108 35.43554523 53.91050739 28 43 C26.6757754 41.05599357 25.35155643 39.1119833 24.02734375 37.16796875 C23.39731445 36.24346924 22.76728516 35.31896973 22.11816406 34.36645508 C20.8840116 32.55538633 19.65027966 30.74403094 18.41699219 28.93237305 C15.35321708 24.43539533 12.27604505 19.94847736 9.17578125 15.4765625 C8.56766602 14.59661621 7.95955078 13.71666992 7.33300781 12.81005859 C6.17871162 11.14100869 5.02068202 9.47453272 3.85839844 7.81103516 C3.34954102 7.0741748 2.84068359 6.33731445 2.31640625 5.578125 C1.86724854 4.93262695 1.41809082 4.28712891 0.95532227 3.62207031 C0 2 0 2 0 0 Z M65 25 C66.44369664 28.60924161 67.53267939 31.04074469 69.63525391 34.1340332 C70.16457016 34.91786377 70.69388641 35.70169434 71.23924255 36.50927734 C71.81255814 37.34797363 72.38587372 38.18666992 72.9765625 39.05078125 C73.57489395 39.93419189 74.1732254 40.81760254 74.78968811 41.7277832 C76.06920538 43.61585755 77.35083099 45.50250453 78.6343689 47.3878479 C80.62925908 50.31875747 82.61791271 53.25380287 84.60473633 56.19018555 C89.36402817 63.22251298 94.13144594 70.24931143 98.90283203 77.2734375 C101.17180694 80.61482373 103.43031601 83.96313898 105.6875 87.3125 C106.32059082 88.23909424 106.95368164 89.16568848 107.60595703 90.12036133 C108.1729834 90.9636499 108.74000977 91.80693848 109.32421875 92.67578125 C109.79947998 93.37614502 110.27474121 94.07650879 110.7644043 94.7980957 C113.43466646 99.55666011 114.39310498 104.64255392 115.24926758 109.98217773 C115.35857101 110.65502304 115.46787445 111.32786835 115.58049011 112.02110291 C115.93992916 114.24119546 116.29224545 116.46235586 116.64453125 118.68359375 C116.89829842 120.25992285 117.15251377 121.83617987 117.40715027 123.41236877 C118.07874502 127.57708678 118.7443324 131.74274312 119.40863037 135.90863037 C120.06643551 140.02754233 120.72968064 144.14557697 121.39257812 148.26367188 C122.43220319 154.72592094 123.46852838 161.18869019 124.50244141 167.65185547 C125.47403144 173.72455069 126.44984006 179.79654392 127.43115234 185.86767578 C127.5448136 186.57104726 127.65847486 187.27441874 127.77558041 187.9991045 C128.30349431 191.2652514 128.83199654 194.53130097 129.36128235 197.79722595 C130.87657355 207.16842006 132.37261801 216.54305572 133.7109375 225.94140625 C136.68219138 256.74200451 136.68219138 256.74200451 151.703125 282.3671875 C158.6505701 287.30601752 166.02235404 290.180461 174.18359375 292.40234375 C175.35399956 292.72369797 175.35399956 292.72369797 176.54804993 293.05154419 C184.67599116 295.2437701 192.87726247 297.06327834 201.10784912 298.82333374 C204.68189678 299.5876548 208.25338822 300.3636267 211.82507324 301.13890076 C213.63558119 301.53184033 215.44620873 301.9242293 217.25695801 302.3160553 C225.30710794 304.05964787 233.34277421 305.863371 241.375 307.6875 C243.89583158 308.25782025 246.41666487 308.82813293 248.9375 309.3984375 C252.34176274 310.16954345 255.74571077 310.94186999 259.1484375 311.71972656 C277.00708664 315.79989994 294.94238874 319.46833643 312.89453125 323.10986328 C325.83784149 325.73624006 338.77159452 328.40297254 351.69543457 331.12353516 C389.43132904 339.08451607 389.43132904 339.08451607 427.36328125 346.03125 C435.09847361 347.34338326 442.80693151 348.80219821 450.51757812 350.25048828 C453.67699975 350.84155941 456.83777785 351.42410599 460 352 C461.05501709 352.19271484 462.11003418 352.38542969 463.19702148 352.58398438 C468.75256656 353.56021085 474.04544341 354.27482753 479.6875 354.25 C480.86699219 354.25515625 482.04648437 354.2603125 483.26171875 354.265625 C486.11361953 354.0629821 488.4420965 353.72410468 491.18408203 353.06958008 C495.69785667 352.0379799 500.21465402 351.29767282 504.79296875 350.62109375 C514.14576722 349.18932288 523.41707026 347.43286118 532.69525146 345.58395386 C537.20028199 344.68638318 541.70760215 343.80045193 546.21484375 342.9140625 C547.08622986 342.74247116 547.95761597 342.57087982 548.85540771 342.39408875 C555.01863112 341.18364874 561.18976411 340.03028476 567.375 338.9375 C589.50679724 335.00533062 611.52938818 330.36586721 633.52294922 325.73046875 C636.88516636 325.02412458 640.24841803 324.32294162 643.61196899 323.62298584 C659.76237009 320.26057697 675.89035107 316.85519483 691.94897461 313.07397461 C698.92004496 311.44482667 705.9105643 309.99142726 712.9375 308.625 C726.84612821 305.9092459 740.64587772 302.74795479 754.44342041 299.52189636 C758.68988019 298.53045631 762.94065242 297.5628638 767.19789124 296.61882019 C793.39477852 291.21604231 793.39477852 291.21604231 813.2265625 274.3125 C821.45021669 260.2506791 822.13086769 239.31005041 824.75 223.5625 C825.07902153 221.6016886 825.40804671 219.64087779 825.73748684 217.68013668 C828.45362905 201.5077176 831.10532144 185.32484907 833.69592285 169.13183594 C834.18536803 166.07581173 834.67805182 163.02032101 835.17089844 159.96484375 C836.63322617 150.85790755 838.05339181 141.74954023 839.3318634 132.61476135 C839.90188583 128.55806899 840.49384159 124.50470541 841.08731079 120.4513855 C841.3577058 118.55858043 841.61689842 116.66413343 841.86361694 114.76809692 C843.227059 104.29549533 844.65863813 96.9189053 851.65789795 88.69351196 C854.62525451 84.94919623 857.13507061 80.86438233 859.73828125 76.86328125 C860.98343753 74.96660881 862.2288856 73.07012789 863.47460938 71.17382812 C864.75413332 69.22020078 866.03342915 67.26642402 867.3125 65.3125 C869.82727946 61.4738474 872.3442476 57.63664342 874.86328125 53.80078125 C875.77172287 52.41561813 875.77172287 52.41561813 876.69851685 51.00247192 C880.97327804 44.50423611 885.33892588 38.0751766 889.83650208 31.72883606 C892.21655084 28.65940138 892.21655084 28.65940138 893 25 C619.76 25 346.52 25 65 25 Z " fill="#FDFDFD" transform="translate(121,160)"/>
<path d="M0 0 C316.14 0 632.28 0 958 0 C956.3930801 4.01729975 955.02245241 6.65242804 952.5859375 10.09765625 C951.56693359 11.54881836 951.56693359 11.54881836 950.52734375 13.02929688 C949.81707031 14.03025391 949.10679687 15.03121094 948.375 16.0625 C943.48567599 22.99286453 938.66505203 29.95428705 933.97851562 37.02368164 C930.71180407 41.93785743 927.38513355 46.81103734 924.0625 51.6875 C922.95410713 53.31560598 921.84571555 54.94371284 920.73739624 56.5718689 C919.97626078 57.68994137 919.21505039 58.80796285 918.45376587 59.92593384 C915.77757703 63.85627733 913.10477523 67.78890828 910.43359375 71.72265625 C909.6828751 72.82789021 908.93214282 73.93311492 908.18139648 75.03833008 C906.77816751 77.10430402 905.37530546 79.17052724 903.97290039 81.23706055 C903.32184326 82.19523682 902.67078613 83.15341309 902 84.140625 C901.39086761 85.05728943 900.78173523 85.97395386 900.15414429 86.918396 C898 90 898 90 895.81544495 92.55421448 C887.38799496 102.94535653 886.10326427 114.59904292 884.02734375 127.51171875 C883.61393667 129.92652041 883.19749544 132.34080435 882.7782135 134.7545929 C881.68247522 141.10747198 880.62527597 147.46615203 879.5770874 153.82702637 C878.53006608 160.14672277 877.45129937 166.4609605 876.37304688 172.77539062 C875.94870796 175.26301849 875.52444215 177.75065883 875.10025024 180.23831177 C874.89166004 181.46132114 874.68306984 182.68433052 874.46815872 183.94440079 C873.84173179 187.62562359 873.21904256 191.30746165 872.59725952 194.98947144 C870.07150533 209.92067051 867.44470241 224.82770363 864.62890625 239.70703125 C864.47134291 240.54914343 864.31377956 241.39125561 864.15144157 242.25888634 C855.94312828 285.98730852 855.94312828 285.98730852 836.4375 299.51171875 C827.21865676 305.14053169 817.89134178 309.2762564 807.54296875 312.3671875 C806.0446904 312.81745049 806.0446904 312.81745049 804.5161438 313.27680969 C792.90982971 316.7013899 781.16527164 319.47886021 769.375 322.1875 C768.13013824 322.47557526 766.88527649 322.76365051 765.60269165 323.06045532 C698.5104 338.57933265 631.05583312 352.61958369 563.46185303 365.76715088 C554.60212528 367.49266109 545.7493836 369.24192896 536.91357422 371.08642578 C476.49606754 383.6951942 476.49606754 383.6951942 451.70910645 376.95394897 C444.35450583 374.9819015 436.91663875 373.60266595 429.42578125 372.2578125 C428.06790597 372.01299992 426.71004175 371.76812597 425.35218811 371.52319336 C423.23782793 371.14199677 421.12344717 370.76092033 419.00893879 370.38054657 C348.99594521 357.7525785 279.39836329 342.61322193 210 327 C209.30056023 326.84273941 208.60112045 326.68547882 207.88048553 326.52345276 C199.87190504 324.72204189 191.86760386 322.90300387 183.87084961 321.04971313 C181.80804705 320.57200087 179.74460596 320.09703413 177.68041992 319.62533569 C152.1501754 313.77208257 123.41953575 307.18199438 107 285 C98.56567472 271.46222617 96.24897681 255.12311541 93.3515625 239.6796875 C93.18420216 238.79767544 93.01684181 237.91566338 92.84440994 237.00692368 C89.98108342 221.88771736 87.423964 206.72375137 84.93694305 191.53870392 C83.72285936 184.15348405 82.48410752 176.77234247 81.24618149 169.39108658 C80.19237438 163.09138396 79.15830487 156.78947909 78.16162109 150.48046875 C77.17323483 144.23174139 76.1336439 137.99338614 75.06041336 131.7586937 C74.66834252 129.42816136 74.29399191 127.09456079 73.93961716 124.75799942 C71.49235403 108.70684698 66.82725557 97.71546792 56.61232376 85.04806137 C54.27833601 82.08330313 52.24253239 78.97634771 50.1875 75.8125 C42.91309309 64.79351108 35.43554523 53.91050739 28 43 C26.6757754 41.05599357 25.35155643 39.1119833 24.02734375 37.16796875 C23.39731445 36.24346924 22.76728516 35.31896973 22.11816406 34.36645508 C20.8840116 32.55538633 19.65027966 30.74403094 18.41699219 28.93237305 C15.35321708 24.43539533 12.27604505 19.94847736 9.17578125 15.4765625 C8.56766602 14.59661621 7.95955078 13.71666992 7.33300781 12.81005859 C6.17871162 11.14100869 5.02068202 9.47453272 3.85839844 7.81103516 C3.34954102 7.0741748 2.84068359 6.33731445 2.31640625 5.578125 C1.86724854 4.93262695 1.41809082 4.28712891 0.95532227 3.62207031 C0 2 0 2 0 0 Z M15 8 C20.53522812 16.72459399 20.53522812 16.72459399 26.2421875 25.3203125 C26.60770721 25.85815369 26.97322693 26.39599487 27.349823 26.95013428 C28.52334703 28.6761398 29.69914019 30.40058513 30.875 32.125 C31.71141465 33.35422627 32.54767474 34.58355772 33.38378906 35.81298828 C35.09126835 38.32317375 36.79963907 40.83274868 38.50878906 43.34179688 C40.83891761 46.76274375 43.16598783 50.1857552 45.4921875 53.609375 C53.04325428 64.72205542 60.60419894 75.82795718 68.18066406 86.92333984 C69.30767688 88.57475733 70.42963468 90.22964123 71.54541016 91.88867188 C72.73152289 93.61030714 74.00121201 95.27411477 75.29296875 96.91796875 C77.80581461 101.45489182 78.28994353 106.03155516 79 111.125 C79.33054413 113.29599942 79.66391854 115.46656964 80 117.63671875 C80.165 118.7148584 80.33 119.79299805 80.5 120.90380859 C81.20615244 125.27657483 82.08927364 129.60354537 83 133.9375 C84.55371737 141.42842057 85.82612068 148.94060713 87 156.5 C88.43024241 165.70153012 90.07615586 174.8251812 91.97265625 183.94140625 C94.44393931 195.93886425 96.53487693 208.0015398 98.56155396 220.08041382 C102.61975593 254.01853663 102.61975593 254.01853663 117 284 C117.47695312 284.598125 117.95390625 285.19625 118.4453125 285.8125 C130.56682159 299.45681174 150.67840505 304.20129798 167.6875 308.4375 C169.24169885 308.83016452 170.79581556 309.22315429 172.34985352 309.61645508 C191.21086689 314.36925566 210.16457989 318.64623426 229.19140625 322.68041992 C239.10054933 324.78693222 248.98178145 327.00872763 258.85229492 329.28881836 C271.11264515 332.0933958 283.43545241 334.59618674 295.75466919 337.12701416 C300.18660984 338.03782008 304.61763929 338.9530154 309.04858398 339.86865234 C316.35549882 341.37838675 323.66315423 342.88449139 330.97138119 344.38786125 C335.14010931 345.24548854 339.30860776 346.10419749 343.4765625 346.96557617 C361.68822773 350.72852516 379.90996521 354.41600345 398.18359375 357.8671875 C398.94840057 358.01170286 399.7132074 358.15621822 400.50119019 358.30511284 C410.46532937 360.18398786 420.44212506 361.97663695 430.4384613 363.67657471 C435.50513989 364.53821665 440.54033735 365.49829369 445.57177734 366.54589844 C449.70704819 367.40359625 453.8511211 368.21102764 458 369 C458.88010742 369.16983398 459.76021484 369.33966797 460.66699219 369.51464844 C474.85190676 372.15688673 486.89685615 371.83234883 501 369 C503.10412259 368.59352177 505.20829099 368.18728062 507.3125 367.78125 C512.61575162 366.74364862 517.90927134 365.66273217 523.20166016 364.57128906 C531.36930745 362.90384057 539.57190907 361.41623099 547.78531742 359.99315262 C557.565533 358.29317643 567.30184677 356.40171287 577.03515625 354.453125 C578.72780273 354.11537761 580.4204657 353.77771283 582.11314392 353.44012451 C585.64380581 352.73547179 589.17417266 352.02936311 592.7043457 351.32226562 C596.24915819 350.61238372 599.79439488 349.90468937 603.34008789 349.19921875 C624.79656436 344.92993559 646.20651615 340.5097717 667.56208801 335.75997925 C673.24462501 334.50380684 678.93460586 333.28250148 684.625 332.0625 C685.88207764 331.79244141 687.13915527 331.52238281 688.43432617 331.24414062 C695.0106155 329.84001826 701.59133003 328.45894789 708.17578125 327.09375 C726.49643585 323.28920382 744.71754209 319.26680546 762.88134766 314.76416016 C766.64680863 313.84151315 770.42200507 312.96551814 774.19921875 312.0925293 C813.88817349 304.05137791 813.88817349 304.05137791 844.61328125 279.703125 C857.36135623 257.43516973 858.54978435 226.02755056 862.91259766 201.17138672 C863.88774605 195.62299529 864.88172181 190.07821112 865.88671875 184.53515625 C869.24260833 166.01262695 872.4909687 147.47495904 875.60400391 128.90991211 C876.26132163 124.99266233 876.94408374 121.08033632 877.63287354 117.16851807 C877.98594335 115.08302887 878.29755221 112.9950473 878.60107422 110.90185547 C880.09523837 101.7117545 883.10480085 95.56269 888.625 88.125 C889.77623429 86.50499965 890.92742879 84.88496921 892.07623291 83.26324463 C893.2598328 81.59872131 894.45377033 79.94201975 895.64941406 78.28613281 C899.37806534 73.10095917 902.92751218 67.79330003 906.5 62.5 C907.90806492 60.42784889 909.31692205 58.35623588 910.7265625 56.28515625 C913.63914498 52.00206499 916.55044137 47.71810299 919.4609375 43.43359375 C920.93226607 41.26821178 922.40361987 39.10284694 923.875 36.9375 C924.93158813 35.38192383 924.93158813 35.38192383 926.00952148 33.79492188 C929.16252557 29.15659993 932.32233273 24.52355508 935.51171875 19.91015625 C936.03330566 19.15549072 936.55489258 18.4008252 937.09228516 17.62329102 C938.04418437 16.24855381 938.99815393 14.8752469 939.95458984 13.50366211 C942.06481224 10.96860339 942.06481224 10.96860339 943 8 C636.76 8 330.52 8 15 8 Z " fill="#020202" transform="translate(121,160)"/>
<path d="M0 0 C67.98 0 135.96 0 206 0 C203.12517628 18.68635419 200.10816033 37.351038 197 56 C131.99 56 66.98 56 0 56 C0 37.52 0 19.04 0 0 Z " fill="#FEFEFE" transform="translate(744,277)"/>
<path d="M0 0 C64.68 0 129.36 0 196 0 C196 18.48 196 36.96 196 56 C134.29 56 72.58 56 9 56 C7.68 49.07 6.36 42.14 5 35 C4.59394531 32.96972656 4.18789063 30.93945312 3.76953125 28.84765625 C3.52493164 27.62272461 3.52493164 27.62272461 3.27539062 26.37304688 C2.96107577 24.80412505 2.64054432 23.23643841 2.31445312 21.66992188 C0.8703046 14.34393767 0.54549592 7.63694286 0 0 Z " fill="#FEFEFE" transform="translate(261,342)"/>
<path d="M0 0 C42.57 0 85.14 0 129 0 C129 31.02 129 62.04 129 94 C87.53095238 87.08849206 87.53095238 87.08849206 72 84.0625 C70.25495084 83.72596542 68.50983162 83.38979396 66.76464844 83.05395508 C62.37118719 82.20735024 57.97880302 81.35529534 53.58666992 80.50183105 C50.16817116 79.83861971 46.74884206 79.17975242 43.32946777 78.52107239 C39.3026145 77.74509593 35.27629141 76.96638552 31.25 76.1875 C30.51990723 76.04651886 29.78981445 75.90553772 29.03759766 75.76028442 C1.42091814 70.42091814 1.42091814 70.42091814 0 69 C-0.09425595 66.85256451 -0.11742648 64.70198974 -0.11352539 62.55249023 C-0.11364593 61.86842889 -0.11376646 61.18436754 -0.11389065 60.47957706 C-0.11314171 58.25588337 -0.10551441 56.03227254 -0.09765625 53.80859375 C-0.09618677 52.43949423 -0.0951661 51.07039414 -0.09460449 49.70129395 C-0.08935232 44.61335409 -0.07539122 39.52542624 -0.0625 34.4375 C-0.041875 23.073125 -0.02125 11.70875 0 0 Z " fill="#FEFEFE" transform="translate(466,407)"/>
<path d="M0 0 C114.51 0 229.02 0 347 0 C347 8.91 347 17.82 347 27 C233.48 27 119.96 27 3 27 C0 7 0 7 0 0 Z " fill="#FEFEFE" transform="translate(248,259)"/>
<path d="M0 0 C107.91 0 215.82 0 327 0 C325.60821753 9.04658606 323.91782397 18.05015481 322 27 C215.74 27 109.48 27 0 27 C0 18.09 0 9.18 0 0 Z " fill="#FEFEFE" transform="translate(605,389)"/>
<path d="M0 0 C74.91 0 149.82 0 227 0 C222.8770427 8.24591459 213.74392547 10.69022366 205.4375 13.5 C188.26202007 19.09762689 170.62522939 22.79887154 152.88989258 26.11694336 C145.39768609 27.52093905 137.9465539 29.05973711 130.5 30.6875 C100.323264 37.24613049 70.01301126 43.26029014 39.58691406 48.54150391 C32.36745456 49.82105703 25.19013194 51.32056794 18.01953125 52.84765625 C17.34768799 52.98800293 16.67584473 53.12834961 15.98364258 53.27294922 C14.13377144 53.65954383 12.28556356 54.05407358 10.4375 54.44921875 C7 55 7 55 0 55 C0 36.85 0 18.7 0 0 Z " fill="#040404" transform="translate(614,434)"/>
<path d="M0 0 C42.9 0 85.8 0 130 0 C130 18.48 130 36.96 130 56 C87.1 56 44.2 56 0 56 C0 37.52 0 19.04 0 0 Z " fill="#FDFDFD" transform="translate(605,212)"/>
<path d="M0 0 C105.27 0 210.54 0 319 0 C314.77592488 8.44815025 310.28268296 10.34355938 301.5625 13.4375 C282.25289886 19.6992788 262.04283446 23.35129173 242.2144928 27.59095764 C228.6067627 30.50059507 215.02796316 33.52948523 201.46411133 36.63696289 C190.61360398 39.11653775 179.76751455 41.50987595 168.81835938 43.52050781 C161.911148 44.79794189 155.05100414 46.25667709 148.1875 47.75 C124.06740218 52.98196405 99.84058029 57.73880793 75.59472656 62.35009766 C71.13755886 63.19849945 66.68418491 64.05559813 62.2421875 64.98046875 C49.46840104 67.63486725 36.62335113 69.78391234 23.75048828 71.89428711 C22.99330002 72.01854568 22.23611176 72.14280426 21.45597839 72.27082825 C20.04559756 72.50185191 18.63505974 72.73192066 17.22431946 72.96073914 C11.4667501 73.90160624 5.74329032 74.9557654 0 76 C0 50.92 0 25.84 0 0 Z M9 9 C9 27.15 9 45.3 9 64 C14.71578882 64.08421582 14.71578882 64.08421582 20.03125 63.265625 C28.20513709 61.39724863 36.37661356 59.72304098 44.6484375 58.3515625 C61.64099194 55.45812331 78.53183297 52.01486881 95.43743896 48.65808105 C99.00116468 47.95121165 102.56546125 47.24724598 106.12976551 46.54330063 C175.22518478 38.32651355 175.22518478 38.32651355 236 11 C236 10.34 236 9.68 236 9 C161.09 9 86.18 9 9 9 Z " fill="#FBFBFB" transform="translate(605,425)"/>
<path d="M0 0 C124.08 0 248.16 0 376 0 C376 12.54 376 25.08 376 38 C373.03 38 370.06 38 367 38 C367 28.76 367 19.52 367 10 C230.875 10.495 230.875 10.495 92 11 C96.29 18.92 100.58 26.84 105 35 C105.33 35.99 105.66 36.98 106 38 C95.46489833 38.32514218 84.93099881 38.57350082 74.39189243 38.72537041 C69.49716441 38.79828586 64.60588013 38.89705698 59.71313477 39.05615234 C54.98602297 39.20889034 50.26220926 39.29209286 45.53281975 39.3282814 C43.73389672 39.35404665 41.9351442 39.4043732 40.13763618 39.48022079 C26.43679321 40.03506109 26.43679321 40.03506109 22.39248466 36.65750122 C19.13203691 32.83822422 17.13942267 28.50864618 15 24 C13.65077669 21.93850834 12.26978232 19.89697171 10.83984375 17.890625 C9.86821289 16.48296875 9.86821289 16.48296875 8.87695312 15.046875 C7.55061803 13.13417424 6.2224041 11.22277533 4.89257812 9.3125 C4.25642578 8.38953125 3.62027344 7.4665625 2.96484375 6.515625 C2.3937085 5.69352539 1.82257324 4.87142578 1.23413086 4.02441406 C0 2 0 2 0 0 Z " fill="#F8F8F8" transform="translate(219,212)"/>
<path d="M0 0 C110.22 0 220.44 0 334 0 C332.9390238 12.73171441 330.94265906 25.37271613 329 38 C303.26 38 277.52 38 251 38 C253 19 253 19 254 10 C173.15 10 92.3 10 9 10 C9 19.24 9 28.48 9 38 C6.03 38 3.06 38 0 38 C0 25.46 0 12.92 0 0 Z " fill="#F9F9F9" transform="translate(605,342)"/>
<path d="M0 0 C112.86 0 225.72 0 342 0 C342 12.54 342 25.08 342 38 C339.03 38 336.06 38 333 38 C333 28.43 333 18.86 333 9 C250.5 9 168 9 83 9 C83.99 17.91 83.99 17.91 85 27 C85 30.63 85 34.26 85 38 C58.93 38 32.86 38 6 38 C4.67533864 35.35067728 4.47461762 32.89812706 4.0625 29.9609375 C3.88976562 28.74019531 3.71703125 27.51945312 3.5390625 26.26171875 C3.27222656 24.33779297 3.27222656 24.33779297 3 22.375 C2.82210937 21.11558594 2.64421875 19.85617187 2.4609375 18.55859375 C1.59170109 12.37663627 0.774405 6.19524003 0 0 Z " fill="#FCFCFC" transform="translate(253,295)"/>
<path d="M0 0 C74.25 0 148.5 0 225 0 C222.525 4.455 222.525 4.455 220 9 C219.49768105 10.06961377 218.99536209 11.13922754 218.47782135 12.24125385 C216.38437129 16.02622443 214.39138199 19.24593802 210.07557487 20.60681891 C203.97441125 21.64941637 197.79481394 21.37664821 191.63085938 21.2487793 C189.54103765 21.24567459 187.45120392 21.24742186 185.36138916 21.25364685 C179.69983039 21.25679906 174.04084277 21.19219992 168.37988091 21.11533332 C162.45964525 21.04649878 156.5393485 21.0401019 150.61877441 21.02705383 C139.41286113 20.99288447 128.2081304 20.90264545 117.00273752 20.79220945 C104.24359095 20.66919402 91.48438745 20.60876151 78.72479534 20.55355966 C52.48251938 20.43862683 26.24137589 20.24296643 0 20 C0 13.4 0 6.8 0 0 Z " fill="#FDFDFD" transform="translate(744,230)"/>
<path d="M0 0 C59.73 0 119.46 0 181 0 C181 6.6 181 13.2 181 20 C163.49070748 20.16329861 145.9817274 20.28759479 128.47184372 20.3626852 C120.33838435 20.39850567 112.20541194 20.44717642 104.07226562 20.52807617 C96.96851506 20.59870183 89.86511766 20.64320564 82.76102567 20.65861946 C79.0127307 20.66760432 75.26544439 20.68811153 71.51747894 20.7401104 C49.75084601 21.02969923 21.97054831 21.2166626 4 7 C2.02 3.535 2.02 3.535 0 0 Z " fill="#F9F9F9" transform="translate(276,425)"/>
<path d="M0 0 C42.9 0 85.8 0 130 0 C130 6.6 130 13.2 130 20 C87.1 20 44.2 20 0 20 C0 13.4 0 6.8 0 0 Z " fill="#FCFCFC" transform="translate(605,295)"/>
<path d="M0 0 C42.57 0 85.14 0 129 0 C129 6.6 129 13.2 129 20 C86.43 20 43.86 20 0 20 C0 13.4 0 6.8 0 0 Z " fill="#FEFEFE" transform="translate(466,360)"/>
</svg>