<svg width="278" height="278" viewBox="0 0 278 278" fill="none" xmlns="http://www.w3.org/2000/svg">
<g clip-path="url(#clip0_452_414)">
<path d="M138.509 24.8735C74.5514 24.8735 36.3872 47.4916 36.3872 47.4916L37.1652 98.9959C37.1652 122.639 44.8892 223.233 138.508 278C232.179 223.233 239.855 122.671 239.855 98.9908L240.629 47.4906C240.629 47.4906 202.494 24.8735 138.509 24.8735Z" fill="#231F20"/>
<path d="M236.788 51.1878C236.788 51.1878 203.519 29.9917 138.509 29.9917C73.5067 29.9917 40.2349 51.1878 40.2349 51.1878L41.2555 98.9914C41.2555 117.721 44.8406 218.055 138.509 272.506C232.179 218.064 235.759 117.726 235.759 98.9914L236.788 51.1878Z" fill="#FFF200"/>
<path d="M240.887 30.7098L138.509 13.3086L36.1401 30.7098L36.3961 47.8878C36.3961 47.8878 87.84 25.5584 138.509 25.5635C189.182 25.5635 240.625 47.8878 240.625 47.8878L240.887 30.7098Z" fill="#ED1C24"/>
<path d="M36.1401 25.5919V19.4527L138.517 0L240.887 19.4527V25.596L138.509 6.65622L36.1401 25.5919Z" fill="#009A4E"/>
<path d="M136.203 37.9216C136.203 37.9216 136.094 39.0303 135.831 39.6783C135.593 40.2711 134.942 40.6806 134.987 41.0767C135.029 41.478 135.456 41.9438 136.099 42.2796C136.742 42.6103 137.001 42.8672 137.652 43.0351C138.258 43.1794 139.025 43.6319 139.251 43.119C139.471 42.6103 139.137 41.9715 138.764 41.3664C138.123 40.3182 137.803 40.0653 136.854 38.6116C136.653 38.3035 136.49 37.9626 136.203 37.9216ZM131.406 151.717C131.467 151.535 132.991 152.486 133.774 152.953C135.429 153.941 136.18 154.528 137.646 155.637C138.636 156.38 139.598 157.161 140.529 157.977C141.96 159.207 142.73 160.257 143.116 160.008C143.665 159.339 142.201 157.389 140.904 156.326C139.641 155.295 138.338 154.446 137.324 153.772C136.03 152.924 135.917 152.718 133.975 151.417C131.894 150.023 130.094 148.275 130.094 148.275L128.064 146.676L124.889 143.995L121.368 140.742L118.699 137.777C118.699 137.777 116.627 135.241 116.298 134.761C115.97 134.272 114.996 132.706 114.184 131.377C113.461 130.188 112.068 128.337 111.935 128.179C111.185 127.265 109.462 127.633 107.468 126.454C105.034 125.023 104.452 123.717 104.452 123.717C104.452 123.717 104.357 123.522 104.271 123.419C104.179 123.307 103.993 123.184 103.993 123.184L102.728 122.288L101.998 121.808C101.998 121.808 101.439 121.352 100.742 121.053C100.05 120.75 98.4947 119.846 98.4947 119.846L95.7163 118.075C95.7163 118.075 94.6281 117.198 94.2647 116.91C93.9033 116.625 93.2164 116.234 93.2164 116.234C93.2164 116.234 92.7803 116.01 92.6472 116.006C92.5152 115.997 91.9419 115.94 91.9419 115.94C91.9419 115.94 91.4085 115.805 90.8629 116.444C90.3152 117.083 90.4432 116.743 91.3317 120.346C91.6788 121.777 91.646 126.793 92.0238 128.313C92.5111 130.279 93.8788 132.815 94.019 133.114C94.1613 133.408 94.2565 134.508 94.2565 134.508C94.2565 134.508 94.2002 135.394 94.2964 135.953C94.7162 138.54 98.506 136.838 99.3403 140.39C100.167 143.897 98.8489 147.397 98.8489 147.397C98.8489 147.397 98.0289 149.131 96.8844 149.412C95.7327 149.682 93.9525 147.141 92.6626 145.077C91.3921 143.053 90.3479 140.398 90.0152 139.553C89.6795 138.714 89.5075 138.528 89.1226 137.908C88.5534 137.004 88.0896 137.162 87.4559 135.732C86.8192 134.291 87.3833 133.713 87.0925 132.459C86.9318 131.765 86.7782 131.69 86.5633 130.697C86.3493 129.704 86.0668 126.562 86.0668 126.562L85.6655 123.625C85.6655 123.625 85.5211 122.287 85.342 121.453C84.696 118.521 84.482 115.686 84.482 115.686L84.3633 114.525L84.3141 113.323C84.3141 113.323 84.2773 112.74 84.4196 112.148C84.5639 111.552 84.8557 111.058 84.8557 111.058C84.8557 111.058 85.4433 110.065 85.5436 109.823C85.644 109.585 86.856 108.181 86.856 108.181C86.856 108.181 87.4805 107.664 88.5155 107.021C89.5474 106.387 90.4821 106.438 90.4821 106.438C90.4821 106.438 90.7503 106.405 92.5817 106.634C94.4203 106.867 98.1917 107.864 99.1356 108.116C100.077 108.364 101.193 108.759 101.928 109.16C104.024 110.303 104.66 109.817 102.989 108.517C101.868 107.637 101.554 107.245 100.649 106.416C99.8859 105.72 99.285 105.25 98.7168 104.603C98.1528 103.949 96.521 101.55 96.521 101.55L95.5095 100.049C95.5095 100.049 94.9588 99.443 94.8728 99.3959C94.7488 99.3139 94.6283 99.2268 94.5114 99.1349C94.5114 99.1349 93.8429 99.1728 93.1458 99.0325C92.4486 98.9025 92.12 99.876 92.12 99.876C92.12 99.876 90.6121 102.691 89.0785 104.416C86.6011 107.213 84.8199 109.119 83.9047 110.602C82.625 112.666 82.9024 114.928 82.2421 115.972C81.8583 116.587 81.6504 116.676 81.4406 117.212C80.7977 118.833 83.1348 119.724 82.6015 121.524C81.7508 124.377 75.0638 127.201 74.1763 126.726C73.26 126.241 74.0104 122.387 74.3206 121.133C74.6359 119.878 75.5706 118.038 75.6566 117.94C75.7426 117.846 75.9667 117.413 76.0394 117.045C76.1111 116.672 76.1346 115.842 76.1817 115.371C76.2257 114.909 76.4131 114.173 76.4131 114.173C76.4131 114.173 76.4458 114.024 77.0324 112.733C77.6252 111.446 79.8016 108.449 81.3679 105.587C82.3844 103.718 82.8175 102.585 83.8432 100.725C84.7943 98.9997 86.4117 96.3852 86.4117 96.3852C86.4117 96.3852 87.0997 95.0472 87.4232 94.5486C87.7498 94.0398 88.4326 93.0714 89.0703 92.1245C89.7163 91.1785 89.877 90.465 90.7226 89.686C91.4249 89.0379 91.8958 88.693 92.809 88.395C94.1685 87.9477 95.1 88.1944 96.48 88.5773C97.9255 88.9734 98.9134 89.6307 99.8522 90.4138C100.446 90.9166 100.994 91.4705 101.491 92.0692L101.946 92.7407L102.225 92.9086L103.103 93.4676L105.104 94.7964C105.104 94.7964 109.849 98.0221 110.108 98.1941C110.364 98.362 111.21 99.0612 111.385 99.1216C111.557 99.1687 112.824 97.802 115.301 96.0873C118.171 94.1023 119.191 94.2548 120.13 93.7378C121.072 93.2209 121.463 92.7868 122.198 92.0507C123.31 90.9318 123.315 90.3442 124.58 88.7882C125.851 87.2311 127.043 86.364 127.043 86.364C127.043 86.364 127.215 86.192 129.481 83.6368C131.748 81.0775 132.746 79.1427 132.746 79.1427L133.993 76.6581C133.993 76.6581 135.793 72.7936 136.37 71.2641C136.947 69.7306 136.947 69.2136 136.947 69.2136C136.947 69.2136 137.033 68.8175 136.59 68.0394C136.145 67.2604 135.683 67.6146 134.829 67.7917C133.173 68.1418 132.174 67.7129 130.509 67.4242C128.98 67.1631 128.184 66.7158 126.656 66.4547C125.108 66.1937 124.202 65.9469 122.651 66.0954C122.331 66.133 122.015 66.1984 121.705 66.2909C120.836 66.5847 120.59 66.6502 119.939 67.0229C119.186 67.3822 118.69 67.4979 117.852 67.5163C117.276 67.5255 116.922 67.544 116.388 67.3351C116.02 67.1949 115.815 67.0874 115.518 66.8263C115.363 66.6897 115.226 66.5326 115.113 66.3595C115.098 66.1916 115.045 66.2008 115.204 65.9398C115.355 65.6695 115.556 65.6224 115.556 65.6224L116.27 65.4453C116.27 65.4453 117.272 65.1792 117.356 65.1607C117.447 65.1372 118.402 64.825 118.822 64.6939C119.249 64.5588 119.71 64.3162 119.71 64.3162C119.71 64.3162 119.973 63.9108 119.869 63.6682C119.75 63.402 119.182 63.3836 119.182 63.3836C119.182 63.3836 118.38 63.6681 118.289 63.6866L116.937 64.1155C116.937 64.1155 115.935 64.3346 115.161 64.5168C114.385 64.6939 113.271 64.782 113.271 64.782L112.937 64.6939C112.937 64.6939 112.55 64.438 112.494 64.1821C112.441 63.9446 112.403 63.7623 112.359 63.4972C112.198 62.5134 112.002 61.9125 112.226 60.942C112.321 60.5366 112.417 60.3175 112.594 59.9357C112.741 59.6142 112.837 59.4371 113.027 59.1382L113.647 58.1411L114.803 56.4305C115.133 56.0736 115.524 55.777 115.956 55.5542C116.697 55.1396 117.126 55.0188 118.043 54.9154C118.952 54.8222 119.07 54.8314 120.355 54.5427C121.644 54.254 122.555 53.7412 122.555 53.7412C122.555 53.7412 125.629 52.613 127.506 51.6906C129.466 50.7304 130.33 49.6954 132.368 48.8979C133.097 48.6056 133.848 48.3671 134.613 48.1844C134.663 48.1559 134.707 48.1172 134.742 48.0706C134.776 48.0241 134.801 47.9707 134.813 47.9141C134.904 47.5886 134.399 47.434 134.058 47.4719C133.757 47.4995 133.055 47.821 132.895 47.476C132.769 47.2006 133.538 47.043 133.538 47.043C133.538 47.043 133.897 46.8751 133.901 46.6703C133.914 46.3673 133.381 46.5628 133.146 46.5393C131.957 46.4093 131.862 46.1902 131.036 45.9844C130.057 45.7418 129.528 45.4439 128.525 45.406C127.629 45.3641 126.791 45.5596 126.24 45.6947C125.681 45.8299 125.662 45.2852 125.88 45.1829C127.446 44.4509 127.479 44.3854 128.582 44.3393C129.188 44.3158 130.033 44.4509 130.125 44.4929C130.216 44.54 131.423 44.4796 131.738 44.1673C132.048 43.8592 130.74 43.8735 130.125 43.6309C129.56 43.4026 128.691 43.3422 128.712 42.9645C128.735 42.5867 129.159 42.7925 129.456 42.7218C129.829 42.6338 130.053 42.6379 130.435 42.5816C131.127 42.4884 131.19 42.4321 132.215 42.339C133.237 42.2509 134.703 42.6748 134.703 42.6748C134.703 42.6748 136.234 43.3596 136.989 43.7138C137.743 44.0732 138.655 44.2503 138.655 44.2503C138.655 44.2503 139.717 44.4089 140.54 43.8909C141.367 43.3781 140.902 43.0515 140.605 42.5857C140.324 42.1424 139.966 41.519 140.496 40.3161C140.964 39.2678 141.201 38.0557 141.341 37.9431C141.497 37.808 142.157 38.7406 142.571 39.1317C144.069 40.5301 146.064 41.2293 147.931 44.1663C148.077 44.4038 148.785 44.0261 150.958 44.3577C153.134 44.6935 155.023 47.0235 155.511 47.5784C156.001 48.1332 156.643 48.1138 156.643 48.1138L157.688 48.2489L161.483 48.3134C161.483 48.3134 163.207 48.0104 164.199 48.383C164.894 48.6389 167.207 50.1868 166.152 50.7795C165.413 51.189 164.718 50.2851 164.055 50.239C163.265 50.1878 162.917 50.3322 162.216 50.5093C160.744 50.8819 157.585 51.8381 158.73 52.225C158.824 52.2527 158.973 52.2854 158.973 52.2854L159.55 52.3786C159.55 52.3786 160.937 52.6959 161.768 53.0266C163.041 53.5303 163.629 54.0841 164.813 54.77C165.47 55.157 165.77 55.5439 166.496 55.7579C167.168 55.9534 167.592 55.7538 168.277 55.8746C169.177 56.0333 169.685 56.2104 170.505 56.6065C171.72 57.1982 172.175 57.9067 173.274 58.6949C173.815 59.0911 174.273 59.1566 174.682 59.6879C174.776 59.8087 174.86 59.865 174.898 60.0094C175.047 60.4987 174.097 60.21 173.594 60.1312C173.038 60.038 172.796 59.7627 172.288 59.5252C171.533 59.1761 171.168 58.7748 170.339 58.6212C169.733 58.5096 169.379 58.6028 168.764 58.6304C168.172 58.6581 167.847 58.7512 167.254 58.7604C166.232 58.7748 165.651 58.6806 164.653 58.4758C163.535 58.2424 162.985 57.8002 161.856 57.5719C160.608 57.3109 158.369 56.2339 158.592 57.3057C158.7 57.8278 159.888 58.2619 159.888 58.2619C159.888 58.2619 160.686 58.7052 161.464 59.0399C162.244 59.3757 162.663 59.8835 162.663 59.8835L163.199 60.2848C163.199 60.2848 163.749 61.0403 164.462 61.8838C165.173 62.7325 166.412 62.7089 166.412 62.7089C166.412 62.7089 167.168 62.7089 168.795 63.0396C170.413 63.3754 172.081 64.3725 172.081 64.3725C172.081 64.3725 173.349 65.2344 174.076 66.1066C174.808 66.9686 174.388 67.4119 174.3 67.5051C174.212 67.5931 174.236 67.547 174.148 67.5931C174.059 67.6351 173.145 66.5069 173.145 66.5069L172.501 65.948C172.501 65.948 171.856 65.5047 171.032 65.2344C170.21 64.9693 169.946 65.1505 169.946 65.1505C169.946 65.1505 168.193 65.6357 166.683 65.5938C165.169 65.5518 164.368 64.9509 164.368 64.9509L163.412 64.308C163.412 64.308 161.972 62.9567 161.926 63.5944C161.893 64.0285 162.56 64.5086 162.56 64.5086C162.56 64.5086 163.03 64.9795 163.334 65.2733C163.91 65.8415 164.144 66.1312 164.81 66.727C165.476 67.3279 165.897 67.3279 165.897 67.3279C165.897 67.3279 166.257 67.4119 166.39 67.4354C166.52 67.458 166.763 67.5286 166.763 67.5286C166.763 67.5286 166.988 67.6125 168.031 68.0374C169.075 68.4612 170.188 69.3703 170.188 69.3703C170.188 69.3703 170.294 69.4634 170.45 69.4818C170.607 69.5044 170.92 69.6538 171.008 69.6825C171.098 69.705 171.364 69.705 171.964 69.789C172.562 69.8821 172.342 70.2599 172.342 70.2599L172.23 70.4134L171.742 70.7441C171.742 70.7441 171.098 70.9263 170.65 70.9447C170.206 70.9673 169.587 70.7257 169.587 70.7257L168.232 70.2138C168.232 70.2138 166.877 69.8596 166.59 69.8125C166.018 69.7135 165.448 69.6032 164.881 69.4818C164.546 69.3879 164.219 69.2696 163.901 69.1276C163.743 69.0345 163.435 68.969 162.707 68.6148C161.971 68.2554 161.678 67.8367 160.768 67.547C159.859 67.2583 159.304 67.1979 158.614 67.6821C157.44 68.4929 160.394 68.624 161.873 69.3559C164.04 70.4226 165.265 71.216 165.788 72.3718C166.306 73.5327 166.833 73.9565 166.833 73.9565C166.833 73.9565 168.355 74.7253 169.05 75.532C169.423 75.9651 169.484 76.3295 169.851 76.7677C170.694 77.7473 172.318 77.7003 172.646 78.5346C172.954 79.3126 171.33 78.9635 170.483 78.8837C168.953 78.7342 168.588 77.3409 167.164 76.7717C166.362 76.4544 165.844 76.4503 165.02 76.1749C163.528 75.6815 162.827 75.0324 161.327 74.5667C160.424 74.2913 158.774 73.0894 158.97 74.0118C159.02 74.2401 159.146 74.408 159.216 74.5431C159.28 74.6782 159.66 75.1625 159.66 75.1625C159.66 75.1625 160.172 75.834 160.396 76.006C160.616 76.1882 161.59 76.9202 162.97 77.6747C164.349 78.4291 165.543 79.8746 165.543 79.8746C165.543 79.8746 165.953 80.4622 166.15 80.8769C166.353 81.3334 166.215 81.4737 166.521 82.1166C166.836 82.7595 166.989 82.8813 167.39 83.2724C168.396 84.251 169.451 84.0555 170.746 84.5868C171.091 84.7219 171.117 84.7823 171.499 85.1836C171.873 85.5849 171.43 85.762 171.43 85.762C171.43 85.762 170 86.1214 169.076 86.0466C167.872 85.9484 167.344 85.5849 166.167 85.0065C164.993 84.4292 164.367 83.385 164.255 83.3143C164.145 83.2488 163.859 82.9366 163.637 82.7779C163.413 82.6284 162.847 82.5025 162.329 82.3582C161.817 82.2179 161.508 82.1954 160.994 82.0511C160.287 81.8504 159.55 81.5382 159.22 81.4307C158.884 81.3191 158.116 81.1789 157.564 81.5105C156.446 82.1678 159.286 82.6192 160.176 83.557C160.627 84.0422 160.809 84.3769 161.239 84.8714C161.565 85.2543 161.699 85.5245 162.106 85.8276C162.385 86.0333 162.886 86.2473 162.886 86.2473C162.886 86.2473 163.569 86.5646 164.569 87.1144C165.575 87.6692 166.75 89.2263 166.75 89.2263L167.459 90.3125L167.886 90.9369L167.994 91.2256L168.147 91.5798C168.147 91.5798 168.659 92.2463 169.037 92.4654C169.415 92.6885 169.349 92.8892 169.349 92.8892C169.349 92.8892 169.303 93.0243 169.037 93.1789C168.771 93.3376 168.634 93.2014 168.259 93.0898C167.875 92.9834 167.64 92.624 167.306 92.3579C166.97 92.0876 166.605 91.4212 165.993 91.0434C165.456 90.722 164.751 90.6053 164.481 90.5121C164.213 90.4241 163.549 90.0043 163.282 89.8927C163.016 89.7812 162.326 89.4679 162.326 89.4679C162.326 89.4679 160.984 88.7134 160.257 88.5128C159.52 88.3121 159.985 88.7646 159.985 88.7646C159.985 88.7646 160.651 89.7904 161.282 90.205C162.102 90.7506 163.254 91.2297 162.882 91.6689C162.631 91.9627 162.285 91.8552 161.907 91.8091C161.292 91.7436 160.547 91.0025 160.547 91.0025C160.547 91.0025 160.239 90.8018 158.862 90.3596C157.482 89.9112 157.989 90.6718 158.302 91.068C158.616 91.4693 159.042 91.6924 159.042 91.6924L159.966 92.1122L160.396 92.2473C160.396 92.2473 160.768 92.3128 162.017 92.6015C163.257 92.8902 163.948 93.487 163.948 93.487C163.948 93.487 164.615 94.1166 165.544 94.8015C166.486 95.4863 167.413 95.6686 167.921 95.7382C168.433 95.7986 168.412 96.1579 168.412 96.1579C168.412 96.1579 168.481 96.4886 168.458 96.6002C168.434 96.7117 168.322 96.8008 168.216 96.8008C168.098 96.8008 168.056 96.8428 167.922 96.9124C167.792 96.9779 167.256 97.0659 167.256 97.0659C167.256 97.0659 165.858 97.0199 164.771 96.7588C163.681 96.4886 162.731 95.7372 162.636 95.687C162.552 95.645 161.526 95.0902 160.84 94.866C160.146 94.6428 159.062 94.736 158.952 94.7779C158.841 94.824 158.462 94.8895 157.815 95.0666C157.173 95.2437 157.975 95.4863 157.975 95.4863L158.441 95.5375L159.55 95.6215C159.55 95.6215 160.682 95.7566 161.662 96.1159C162.635 96.465 163.26 97.1786 163.902 97.8225C164.314 98.2273 164.769 98.5851 165.26 98.8892L165.767 99.2198L166.038 99.4205L166.103 99.5976C166.103 99.5976 166.083 99.6908 166.038 99.7982C165.992 99.915 165.838 99.9989 165.838 99.9989C165.838 99.9989 165.591 99.9569 165.478 99.9569C165.366 99.9569 164.644 99.57 164.108 99.3325C163.538 99.0806 163.254 98.8575 162.658 98.7131C162.14 98.5872 161.459 98.536 161.311 98.578C161.154 98.6199 160.019 98.7786 159.149 98.8441C158.266 98.9254 157.376 98.9099 156.497 98.7981C155.026 98.621 153.083 97.4652 152.837 97.7907C152.329 98.4572 153.885 98.6578 154.628 99.0868C155.658 99.6785 157.443 100.224 157.443 100.224C157.443 100.224 158.741 100.514 159.503 100.867C161.174 101.641 161.681 102.783 163.02 103.995C163.766 104.676 164.354 104.965 165.35 105.109C166.204 105.23 166.193 105.132 167.549 104.867C168.899 104.596 169.73 103.31 170.122 103.775C170.202 103.874 170.171 103.952 170.144 104.088C170.122 104.218 170.012 104.465 170.012 104.465C170.012 104.465 169.858 104.689 169.614 104.931C169.372 105.174 168.436 105.687 167.951 105.887C167.461 106.088 166.259 106.419 164.752 106.373C163.238 106.331 161.128 105.175 161.128 105.175L159.598 104.532C159.598 104.532 158.891 104.196 158.423 104.019C157.156 103.549 156.354 103.59 155.044 103.241C154.228 103.027 153.71 102.798 152.977 102.644C152.241 102.495 152.652 102.779 152.732 102.892C153.082 103.354 153.533 103.502 154.112 103.777C154.882 104.15 155.422 104.076 156.224 104.398C157.1 104.761 157.866 105.27 158.349 105.577C158.84 105.889 159.197 106.234 159.665 106.733L161.287 108.108C161.287 108.108 161.664 108.42 161.706 108.551C161.752 108.686 161.93 109.017 161.84 109.553C161.752 110.089 161.314 109.712 161.314 109.712L160.884 109.446L160.467 109.044L159.777 108.486C159.777 108.486 159.197 107.954 158.201 107.441C157.202 106.934 156 106.798 156 106.798C156 106.798 154.932 106.64 154.974 106.976C155.022 107.311 155.268 107.335 156.108 107.553C156.951 107.777 157.509 108.196 157.509 108.196C157.509 108.196 158.377 108.844 158.991 109.552C159.621 110.266 159.793 110.951 159.793 110.951C159.793 110.951 160.106 111.529 160.907 112.307C161.704 113.086 162.132 112.82 162.081 113.193C162.039 113.57 161.679 113.64 161.679 113.64C161.679 113.64 161.483 113.617 161.395 113.617C161.311 113.617 161.101 113.506 160.881 113.422C160.663 113.329 159.82 112.75 159.82 112.75C159.82 112.75 158.505 111.688 158.347 111.571C158.198 111.464 156.951 110.531 156.951 110.531C156.951 110.531 156.223 110.065 155.688 109.795C155.154 109.538 154.605 109.315 154.043 109.128C153.64 108.998 152.915 108.951 152.915 108.951C152.915 108.951 152.019 108.821 151.493 108.621C150.639 108.299 149.65 107.39 149.543 107.348C149.437 107.302 148.635 107.036 148.482 107.059C148.328 107.082 147.972 108.569 147.89 109.427C147.527 113.035 148.486 115.426 149.967 118.732C152.125 123.537 158.107 129.509 158.107 129.509C158.107 129.509 159.609 130.366 160.251 130.87C162.042 132.274 165.006 134.255 167.626 136.874C169.87 139.12 172.865 143.113 172.865 143.113C172.865 143.113 174.585 145.523 175.382 147.224C176.366 149.318 177.15 152.496 177.15 152.496C177.15 152.496 177.22 153.05 177.284 153.161C177.345 153.277 177.49 153.418 177.603 153.423L178.648 153.46C178.758 153.46 179.945 153.365 180.726 153.171C181.509 152.976 183.363 152.131 184.586 151.485C185.808 150.845 187.277 149.601 187.277 149.601C187.277 149.601 187.553 149.367 188.988 147.774C190.423 146.179 191.348 143.787 191.692 142.892C192.028 141.988 192.311 140.268 192.525 137.318C192.745 134.366 192.344 131.243 192.344 131.243C192.344 131.243 191.804 126.889 191.475 125.412C191.15 123.929 190.365 121.525 190.365 121.525C190.365 121.525 189.817 119.371 189.637 118.014C189.469 116.653 189.435 114.449 189.435 114.449C189.435 114.449 189.435 113.096 189.883 110.598C190.325 108.104 191.859 105.597 191.859 105.597C191.859 105.597 192.283 104.758 193.938 102.781C195.616 100.772 196.157 100.446 197.817 99.2475C199.129 98.2965 200.842 96.7814 201.396 97.1356C202.012 97.5266 200.793 98.2964 200.391 98.6967C199.355 99.7174 197.411 101.54 195.84 104.272C194.474 106.64 193.967 108.206 193.621 109.749C193.281 111.297 193.425 112.984 193.467 113.566C193.515 114.144 193.837 113.935 193.837 113.935C193.837 113.935 197.164 111.264 198.974 109.231C200.941 107.04 202.679 103.139 203.364 103.106C203.82 103.082 204.04 104.127 203.933 104.602C203.494 106.63 203.356 106.885 202.704 108.219C201.94 109.771 201.248 110.461 200.206 111.874C199.097 113.366 198.565 113.939 197.68 115.911C196.402 118.749 197.146 120.94 197.146 120.94C197.146 120.94 197.3 122.273 197.902 122.255C198.907 122.222 201.109 119.443 202.544 117.174C203.602 115.5 203.988 113.575 204.688 112.568C205.312 111.669 205.872 114.027 205.605 115.416C205.293 117.061 204.474 118.539 202.684 120.87C200.93 123.15 200.99 125.318 200.99 125.318C200.99 125.318 200.8 126.311 200.661 128.463C200.521 130.617 201.137 133.881 201.137 133.881C201.137 133.881 201.695 136.608 201.798 138.682C201.901 140.751 201.83 145.484 199.891 149.153C199.121 150.63 197.458 152.672 197.458 152.672C197.458 152.672 196.194 153.977 195.14 154.741C194.093 155.506 191.589 156.684 191.589 156.684C191.589 156.684 189.855 157.29 189.604 157.346C189.36 157.41 189.194 157.623 189.194 157.623L189.426 158.095C189.488 158.235 189.976 159.429 189.976 159.429C189.976 159.429 190.499 161.13 190.694 162.478C190.889 163.816 190.662 164.123 190.466 165.158C190.279 166.141 189.846 165.686 189.738 167.624C189.639 169.334 190.424 170.188 190.279 172.103C190.216 172.941 189.264 171.056 188.808 170.247C187.832 168.485 188.068 165.805 188.046 165.139C188.018 164.473 187.972 163.741 187.724 162.883C187.412 161.8 186.975 160.942 186.461 160.282C185.949 159.62 185.407 159.247 185.221 159.308C185.045 159.369 185.035 159.723 185.026 159.9C185.017 160.077 185.376 160.711 185.465 160.851C185.544 160.987 186.193 162.165 186.193 162.165C186.193 162.165 186.475 163.065 186.596 164.824C186.706 166.586 186.165 168.743 186.165 168.743C186.165 168.743 185.465 171.195 184.72 172.626C183.895 174.215 182.073 176.379 182.073 176.379C182.073 176.379 180.768 177.576 179.79 179.544C178.811 181.511 179.65 182.373 179.287 182.615C178.915 182.873 178.141 181.487 177.931 180.546C177.739 179.679 177.841 179.27 178.187 178.286C178.527 177.349 179.315 175.993 179.315 175.993L180.499 173.988C180.499 173.988 181.902 171.279 182.344 169.321C182.793 167.359 182.288 165.186 182.288 165.186C182.288 165.186 182.224 164.469 181.738 164.495C181.246 164.523 180.891 164.963 180.694 165.479C180.285 166.557 180.862 166.365 180.246 168.156C179.755 169.568 179.631 169.38 179.373 170.217C179.071 171.223 178.903 172.247 178.922 172.878C178.945 173.503 178.601 173.241 178.601 173.241C178.601 173.241 178.009 172.123 178.009 170.739C178.009 169.983 178.037 169.561 178.127 168.808C178.261 167.6 178.75 165.751 178.75 165.751C178.75 165.751 179.285 163.928 179.169 162.255C179.052 160.586 178.465 160.272 178.465 160.272C178.465 160.272 178.315 160.043 177.664 160.085C177.02 160.127 177.047 161.288 177.047 161.288C177.047 161.288 176.852 162.938 176.596 163.964C175.883 166.807 174.941 168.293 173.252 170.685C171.734 172.848 169.663 174.746 168.633 175.64C167.603 176.54 164.431 178.853 164.431 178.853L160.72 181.323C160.72 181.323 159.248 182.758 158.567 184.469C157.883 186.176 157.925 187.514 158.316 189.084C158.708 190.65 159.28 191.387 159.574 191.816C159.872 192.249 160.446 193.023 160.63 193.919C160.746 194.479 160.662 194.819 160.696 195.391C160.728 195.883 160.794 196.165 160.784 196.653C160.765 197.443 160.91 198.005 160.468 198.649C160.132 199.142 159.236 199.563 159.236 199.563C159.236 199.563 158.234 200.011 157.633 200.374C151.312 204.192 149.065 206.658 145.508 210.914C144.371 212.265 145.206 212.185 143.989 213.794C143.267 214.755 141.575 214.751 140.96 215.901C140.114 217.461 142.885 219.005 139.68 220.386C135.563 222.166 128.462 220.894 128.324 220.339C127.937 218.799 129.709 217.048 130.332 216.358C133.225 213.197 135.807 213.119 136.749 210.507C136.95 209.947 136.877 209.467 139.168 207.77C140.786 206.572 147.238 201.72 150.053 198.475C151.014 197.371 151.853 196.629 152.273 195.426C152.692 194.219 151.853 193.453 151.853 193.453L150.693 191.565L148.478 187.603C148.478 187.603 147.55 185.5 147.034 184.284C146.524 183.072 145.551 179.785 145.551 179.785C145.551 179.785 144.833 176.854 144.718 174.938C144.498 171.489 144.974 169.484 145.878 166.151C147.053 161.802 149.719 159.988 150.782 155.695C151.091 154.45 151.154 152.311 150.526 152.414C149.92 152.518 149.868 154.214 149.421 155.34C147.705 159.601 145.439 161.47 144.196 165.891C143.36 168.874 143.025 170.649 143.034 173.751C143.034 175.521 142.969 175.194 143.426 178.271C143.594 179.408 143.883 180.011 144.217 181.114C144.451 181.898 145.085 183.36 145.085 183.36C145.085 183.36 145.981 185.319 146.279 186.684C146.381 187.144 146.493 187.416 146.465 187.887C146.409 188.703 146.545 188.88 146.153 189.615C145.663 190.525 145.967 191.065 144.399 191.405C143.025 191.694 140.187 190.786 140.187 190.786C140.187 190.786 128.535 187.248 121.097 188.264C119.622 188.464 118.834 189.001 117.344 188.971C116.004 188.952 115.312 187.899 113.969 188.302C113.69 188.386 113.604 188.577 113.363 188.74C111.386 190.115 112.896 192.399 107.706 191.21C104.518 190.478 100.658 188.535 101.329 187.305C102.222 185.678 103.425 185.412 105.942 184.379C108.634 183.278 112.675 183.59 113.469 183.53C114.443 183.466 115.846 182.781 117.58 182.75C120.582 182.7 121.12 183.054 121.12 183.054L126.228 183.502L135.989 183.633C135.989 183.633 137.735 183.492 138.439 183.361C139.136 183.226 139.692 181.85 140.07 181.194C140.446 180.542 140.06 179.573 140.06 179.573L139.764 179.12L138.838 177.619L137.118 174.725L135.213 170.93C135.213 170.93 133.969 168.278 133.3 166.54C132.64 164.814 132.258 163.84 131.816 162.05C131.356 160.204 131.082 158.707 131.023 157.236C130.948 155.115 130.815 153.451 131.406 151.717Z" fill="#231F20"/>
<path d="M194.822 148.193C196.867 145.549 197.069 143.107 197.19 139.648C197.285 137.139 196.332 133.271 196.332 133.271L196.202 132.991C196.202 132.991 195.842 132.526 195.621 133.141C195.656 133.686 195.728 134.125 195.728 134.125L195.849 139.107C195.849 139.107 195.69 141.616 194.838 144.203C193.397 148.566 189.574 150.519 189.015 152.081C188.071 154.7 192.361 151.367 194.822 148.193ZM173.268 156.254C173.268 156.254 172.424 156.491 172.41 157.322C172.388 158.154 172.613 158.879 172.596 159.875C172.572 161.143 171.398 162.627 172.152 163.1C173.453 163.921 174.566 158.131 174.171 157.274C173.775 156.418 173.391 156.244 173.268 156.254ZM158.759 196.396C158.759 196.396 158.522 196.266 158.052 196.442C157.586 196.617 157.614 197.102 157.614 197.102C157.614 197.102 157.524 197.615 157.901 197.675C158.279 197.727 158.904 196.813 158.9 196.703C158.891 196.599 158.759 196.396 158.759 196.396ZM145.121 206.084C145.121 206.084 144.975 206.228 145.101 206.33C145.223 206.424 145.395 206.294 145.395 206.294C145.395 206.294 147.754 204.456 149.148 203.157C150.628 201.771 152.747 199.39 152.747 199.39C152.747 199.39 152.891 199.203 152.726 199.05C152.569 198.9 152.153 199.134 151.822 199.292C151.528 199.441 151.356 199.612 151.142 199.795C150.922 199.977 150.238 200.689 150.238 200.689L148.411 202.464L147.274 203.532L146.16 204.599L145.687 205.135C145.687 205.135 145.563 205.339 145.535 205.391C145.503 205.443 145.377 205.605 145.377 205.605C145.377 205.605 145.214 205.769 145.214 205.811C145.214 205.853 145.157 205.909 145.153 205.96C145.153 206.014 145.121 206.084 145.121 206.084ZM141.041 208.76C141.041 208.76 140.781 208.55 140.385 208.76C139.982 208.965 139.554 209.519 139.521 209.582C139.488 209.642 139.263 209.944 139.414 210.2C139.564 210.456 140.074 210.079 140.146 210.065C140.22 210.055 140.886 209.537 140.886 209.537C140.886 209.537 141.272 209.295 141.041 208.76ZM133.239 216.665C133.239 216.665 132.91 216.036 132.472 216.298C132.027 216.553 131.794 216.643 131.393 217.192C131.326 217.296 130.893 217.854 130.811 217.994C130.734 218.139 130.31 218.954 131.179 219.004C132.687 219.104 131.703 218.129 132.219 217.754C132.639 217.463 133.422 217.535 133.432 217.227C133.444 216.926 133.239 216.665 133.239 216.665ZM106.519 185.112C106.519 185.112 105.61 185.327 105.544 185.647C105.477 185.968 106.074 186.281 106.169 186.295C106.269 186.315 106.479 186.547 107.076 186.142C107.673 185.736 107.649 185.388 107.649 185.388C107.649 185.388 108.001 184.981 106.519 185.112ZM121.219 184.632C121.219 184.632 121.209 184.301 120.566 184.338C119.92 184.375 119.778 184.496 119.765 184.59C119.745 184.692 119.793 184.856 120.375 184.902C120.963 184.949 121.2 184.898 121.219 184.632ZM135.105 185.038C133.939 185.023 134.313 185.061 133.592 185.099C132.285 185.168 131.571 185.114 130.285 185.03C128.479 184.915 125.681 184.457 125.681 184.457C125.681 184.457 125.329 184.382 125.19 184.601C125.058 184.836 125.53 185.315 125.954 185.45C128.24 186.162 128.36 186.032 129.925 186.061C130.794 186.075 131.282 185.987 132.144 185.93C133.237 185.855 133.752 186.023 134.94 185.706C135.253 185.625 135.556 185.042 135.105 185.038ZM142.94 182.706C142.94 182.706 142.704 182.44 142.224 182.673C141.74 182.91 141.45 183.438 141.45 183.438C141.45 183.438 141.226 183.788 141.702 183.732C142.18 183.676 142.594 183.47 142.716 183.396C142.836 183.333 143.182 183 142.94 182.706ZM136.122 88.7637C136.122 88.7637 139.437 85.6587 141.796 81.5659C143.204 79.1284 143.816 73.4458 142.608 74.8677C142.06 75.5065 141.406 78.462 140.361 80.6384C138.873 83.7423 135.69 88.1433 135.69 88.1433C135.69 88.1433 135.005 89.6123 136.122 88.7637ZM122.914 96.6279C122.914 96.6279 122.562 96.894 122.718 97.3414C122.882 97.7888 123.565 97.4479 123.565 97.4479C123.565 97.4479 125.082 96.8746 126.685 96.8091C128.296 96.7436 130.52 97.2237 130.52 97.2237C130.52 97.2237 131.581 97.5175 131.76 97.583C131.937 97.6475 132.515 97.9321 132.606 97.9659C132.702 97.9986 133.245 98.273 133.554 97.9935C133.872 97.714 131.627 95.682 129.341 95.3738C125.538 94.8558 123.032 96.4876 123.032 96.4876L122.914 96.6279ZM107.225 110.039C107.501 110.262 108.775 107.843 109.841 106.314C110.619 105.186 112.041 103.308 112.041 103.308C112.041 103.308 112.675 102.445 111.594 102.93C111.148 103.125 109.941 104.044 109.091 105.736C108.365 107.172 106.952 109.805 107.225 110.039ZM98.4316 99.5086C98.4316 99.5086 98.1593 100.436 99.2598 101.615C100.362 102.79 100.646 103.764 101.35 103.061C101.546 102.875 100.663 101.281 100.213 100.843C99.9428 100.584 99.6816 100.317 99.4297 100.041L99.1482 99.8075L98.7776 99.6069L98.5729 99.523C98.5708 99.523 98.5084 99.4666 98.4316 99.5086ZM94.8701 90.5122C94.8701 90.5122 93.6816 90.7364 93.3847 91.3097C93.0909 91.887 94.7554 91.538 94.7554 91.538C94.7554 91.538 95.8631 91.6025 95.8877 91.1786C95.9163 90.7548 95.7444 90.7026 94.8701 90.5122ZM75.9538 121.86C75.3529 121.678 75.2475 122.877 75.1707 123.259C75.096 123.646 75.4389 124.424 75.5761 124.415C75.7204 124.411 76.2036 123.655 76.2313 123.282C76.2589 122.909 76.4944 122.023 75.9538 121.86ZM95.5969 145.205C95.5969 145.205 94.5128 144.348 94.346 144.689C94.1852 145.023 95.2427 146.54 95.2427 146.54C95.2427 146.54 95.5621 147.033 96.0627 146.805C96.5592 146.577 96.3801 146.032 96.3801 146.032C96.3801 146.032 96.0453 145.322 95.5969 145.205ZM87.4 119.949C87.4 119.949 87.1246 119.884 87.0182 120.214C86.9179 120.545 86.9301 121.096 86.8575 121.748C86.794 122.265 86.9905 123.636 86.9905 123.636C86.9905 123.636 87.096 124.718 87.3099 125.379C87.5454 126.083 88.175 127.086 88.175 127.086C88.175 127.086 88.4125 127.608 88.6991 127.584C88.9858 127.556 88.9202 127.211 88.9202 127.211C88.9202 127.211 88.0112 123.599 87.9784 123.23C87.8689 122.032 87.8781 120.564 87.8781 120.564L87.8689 120.34C87.8689 120.34 87.8597 119.964 87.4 119.949ZM88.824 108.929C88.824 108.929 88.3183 108.827 87.8597 109.796C87.3959 110.771 87.4911 111.162 87.5311 111.208C87.5679 111.255 87.9405 111.24 88.5282 110.341C89.1086 109.445 88.9806 109.11 88.9806 109.11C88.9806 109.11 88.9479 108.929 88.824 108.929ZM102.598 118.919C102.598 118.919 103.209 119.819 102.045 119.613C100.884 119.404 98.4439 117.483 97.456 116.966C96.4753 116.449 94.864 116.276 95.5427 115.679C95.6614 115.573 95.6921 115.475 95.8928 115.465C96.0934 115.456 96.7548 115.721 96.7988 115.741C96.8367 115.763 98.5534 116.468 98.6169 116.491C98.6804 116.519 99.6386 116.929 100.325 117.331C101.013 117.736 102.125 118.514 102.125 118.514L102.598 118.919ZM134.723 146.571C135.039 147.573 131.067 144.473 128.938 142.834C123.296 138.495 116.39 129.591 117.252 128.807C117.969 128.155 120.799 132.234 124.948 136.723C129.377 141.513 134.537 145.978 134.723 146.571ZM151.306 142.313C150.08 143.629 149.642 145.312 150.35 146.57C151.05 147.79 151.264 144.785 152.036 143.889C152.695 143.125 153.099 143.241 154.199 142.467C156.066 141.15 152.867 140.643 151.306 142.313ZM144.244 114.22C143.407 114.08 143.434 115.362 143.554 116.28C144.114 120.364 145.945 123.511 148.393 126.48C149.885 128.278 153.969 131.495 154.45 130.982C154.621 130.796 150.556 127.663 147.974 123.631C146.143 120.772 145.159 118.344 144.934 115.985C144.905 115.693 144.976 114.337 144.244 114.22ZM128.438 53.6716C126.594 54.6738 123.401 55.5501 123.401 55.5501C123.401 55.5501 123.254 55.8624 123.664 55.8296C126.399 55.6157 127.44 55.2656 128.902 54.6268C130.355 53.9931 131.421 52.2446 131.421 52.2446C131.421 52.2446 132.009 51.1676 130.906 52.0582C130.57 52.3295 129.444 53.1178 128.438 53.6716ZM150.649 46.652C150.649 46.652 150.024 46.5117 149.604 46.7738C149.187 47.039 149.306 47.2539 149.306 47.2539C149.306 47.2539 149.95 47.7576 150.416 47.8323C150.882 47.9019 151.88 48.336 151.834 48.0002C151.796 47.6604 151.236 47.04 151.05 46.8721C150.854 46.7032 150.649 46.652 150.649 46.652ZM140.193 65.8344C140.303 66.0535 142.171 65.5457 142.885 65.1444C143.454 64.8271 143.668 63.7696 143.668 63.7696C143.668 63.7696 143.826 62.7397 143.584 63.1349C142.514 64.8742 140.089 65.6102 140.193 65.8344ZM140.133 61.0424C140.886 59.602 138.061 62.5483 136.622 63.313C135.744 63.7788 134.318 64.39 134.318 64.39C134.318 64.39 133.94 64.8609 134.468 64.823C134.997 64.781 136.342 65.2427 137.421 64.3941C137.675 64.1985 138.814 62.5483 138.814 62.5483C138.814 62.5483 139.769 61.7365 140.133 61.0424ZM139.697 67.2042C139.751 67.4417 142.925 67.3577 143.718 67.1294C144.337 66.9482 144.674 65.8385 144.674 65.8385C144.674 65.8385 145.056 64.8742 144.735 65.2048C143.302 66.6636 139.644 66.9626 139.697 67.2042ZM88.8752 96.1846C88.8752 96.1846 88.393 96.0126 87.7962 96.9115C87.2045 97.8021 84.5428 101.839 85.0178 102.44C85.5768 103.144 87.8822 98.8268 88.5834 98.016C89.2898 97.2094 89.0083 96.3801 89.0083 96.3801C89.0083 96.3801 88.9991 96.1989 88.8752 96.1846ZM146.883 169.151C146.604 170.494 146.949 173.233 147.405 173.775C148.534 175.137 147.843 171.65 148.001 170.428C148.137 169.281 148.287 168.89 148.841 167.669C149.848 165.477 147.479 166.289 146.883 169.151ZM137.173 52.222C137.173 52.222 136.295 52.2415 135.607 52.6182C134.92 53.0011 134.738 53.5273 134.738 53.5273C134.738 53.5273 134.601 53.9102 134.696 54.1241C134.896 54.5909 135.84 53.8866 136.509 54.12C137.049 54.3114 137.306 54.465 137.712 54.9584C138.071 55.3925 138.705 56.0078 139.101 55.6576C139.497 55.3086 139.355 54.4363 139.355 54.4363C139.355 54.4363 138.886 53.0093 138.276 52.5998C137.665 52.1944 137.173 52.222 137.173 52.222ZM122.585 62.277C122.585 62.277 122.098 62.3569 122.213 62.9486C122.329 63.5413 122.648 63.4471 122.648 63.4471C122.648 63.4471 123.664 63.0141 123.597 62.4029C123.536 61.7836 122.585 62.277 122.585 62.277ZM115.462 59.084C115.462 59.084 114.929 59.1035 114.555 59.7648C114.181 60.4261 113.963 61.1079 113.963 61.1079C113.963 61.1079 113.784 61.9791 114.099 62.2494C114.414 62.5247 114.752 61.6853 115.201 61.369C115.473 61.1734 115.639 61.0803 115.917 60.8888C116.3 60.6237 116.919 60.9636 116.873 60.1896C116.824 59.4157 115.999 59.0472 115.462 59.084ZM138.475 50.796C138.475 50.796 137.263 50.624 137.31 51.0898C137.35 51.5187 137.97 51.2618 138.366 51.4399C138.753 51.6078 139 51.6774 139.309 51.9661C139.536 52.1668 139.508 52.5629 139.788 52.567C140.174 52.5722 140.092 52.4176 140.092 52.4176C140.092 52.4176 139.746 51.3734 139.29 51.0704C138.84 50.7776 138.475 50.796 138.475 50.796ZM152.002 55.6812C151.824 56.3384 151.718 56.5718 151.718 56.5718C151.718 56.5718 151.376 57.9098 152.734 57.4154C154.085 56.9117 153.393 57.1267 154.359 56.6558C155.325 56.1849 155.293 56.4418 156.001 56.4735C156.242 56.4828 156.394 56.4971 156.756 56.4224C157.059 56.362 156.933 55.9944 156.253 55.8122C155.52 55.6167 154.611 55.6679 153.568 55.6535C152.961 55.6484 152.178 55.0291 152.002 55.6812ZM152.598 50.7213C152.598 50.7213 151.974 50.5861 151.553 50.8472C151.13 51.1134 151.255 51.3222 151.255 51.3222C151.255 51.3222 151.904 51.831 152.365 51.9006C152.831 51.9794 153.829 52.4084 153.791 52.0685C153.745 51.7286 153.185 51.1134 153 50.9403C152.882 50.8405 152.745 50.766 152.598 50.7213ZM154.985 60.0258C154.985 60.0258 154.317 59.8958 153.865 60.1518C153.409 60.4036 153.544 60.5991 153.544 60.5991C153.544 60.5991 154.24 61.0741 154.733 61.1448C155.227 61.2103 156.298 61.6157 156.256 61.2942C156.214 60.9769 155.619 60.3944 155.413 60.2306C155.209 60.0719 154.985 60.0258 154.985 60.0258ZM155.18 63.4051C155.18 63.4051 154.476 63.2516 153.997 63.5403C153.521 63.8238 153.665 64.0572 153.665 64.0572C153.665 64.0572 154.397 64.6029 154.919 64.6868C155.449 64.7657 156.571 65.2274 156.523 64.8588C156.476 64.4954 155.853 63.8238 155.637 63.6375C155.423 63.4574 155.18 63.4051 155.18 63.4051ZM155.503 66.6964C155.503 66.6964 154.737 66.5244 154.221 66.8459C153.703 67.1724 153.858 67.4284 153.858 67.4284C153.858 67.4284 154.653 68.0477 155.217 68.1368C155.789 68.2248 157.009 68.7561 156.961 68.3466C156.911 67.932 156.225 67.1724 155.992 66.9626C155.759 66.7568 155.503 66.6964 155.503 66.6964ZM155.423 70.7657C155.423 70.7657 154.663 70.5937 154.141 70.9192C153.623 71.2407 153.781 71.5017 153.781 71.5017C153.781 71.5017 154.574 72.117 155.143 72.206C155.713 72.2992 156.942 72.8254 156.886 72.4108C156.834 71.9962 156.15 71.2407 155.916 71.0308C155.774 70.9066 155.605 70.816 155.423 70.7657ZM154.869 78.6954C154.869 78.6954 154.103 78.5234 153.585 78.849C153.07 79.1704 153.223 79.4315 153.223 79.4315C153.223 79.4315 154.014 80.0518 154.583 80.1399C155.153 80.233 156.382 80.7551 156.326 80.3446C156.276 79.93 155.59 79.1704 155.357 78.9595C155.125 78.7558 154.869 78.6954 154.869 78.6954ZM155.384 74.7234C155.384 74.7234 154.505 74.5278 153.903 74.9005C153.307 75.2731 153.487 75.572 153.487 75.572C153.487 75.572 154.407 76.2897 155.059 76.392C155.717 76.4944 157.138 77.1056 157.072 76.6295C157.016 76.1494 156.225 75.2731 155.954 75.0346C155.684 74.793 155.384 74.7234 155.384 74.7234ZM154.49 82.2753C154.49 82.2753 153.865 82.131 153.437 82.4013C153.007 82.6664 153.139 82.8814 153.139 82.8814C153.139 82.8814 153.791 83.3902 154.263 83.4639C154.729 83.5386 155.735 83.9768 155.692 83.6318C155.65 83.2909 155.086 82.6664 154.897 82.4944C154.704 82.3214 154.49 82.2753 154.49 82.2753ZM153.899 85.715C153.899 85.715 153.381 85.5983 153.027 85.8225C152.671 86.0416 152.775 86.2187 152.775 86.2187C152.775 86.2187 153.319 86.6436 153.705 86.704C154.094 86.7644 154.931 87.1237 154.895 86.8442C154.862 86.5596 154.396 86.0426 154.236 85.8983C154.138 85.8131 154.023 85.7505 153.899 85.715ZM153.167 88.8476C153.167 88.8476 152.695 88.7401 152.373 88.9408C152.057 89.1363 152.149 89.3001 152.149 89.3001C152.149 89.3001 152.635 89.683 152.989 89.7342C153.339 89.7946 154.094 90.116 154.067 89.8642C154.033 89.6082 153.613 89.1373 153.469 89.0155C153.325 88.8845 153.167 88.8476 153.167 88.8476ZM152.422 91.4161C152.422 91.4161 151.945 91.3097 151.628 91.5042C151.312 91.7048 151.404 91.8676 151.404 91.8676C151.404 91.8676 151.894 92.2453 152.243 92.3006C152.598 92.361 153.349 92.6835 153.315 92.4265C153.283 92.1747 152.864 91.7038 152.719 91.5779C152.579 91.454 152.422 91.4161 152.422 91.4161ZM151.526 94.3952C151.526 94.3952 151.144 94.3071 150.892 94.4699C150.63 94.6337 150.71 94.7637 150.71 94.7637C150.71 94.7637 151.106 95.0667 151.386 95.1179C151.669 95.1599 152.281 95.4209 152.254 95.2151C152.226 95.0104 151.886 94.6327 151.767 94.5303C151.698 94.4673 151.616 94.4211 151.526 94.3952ZM150.454 97.1868C150.454 97.1868 150.128 97.1172 149.908 97.2524C149.684 97.3875 149.751 97.5042 149.751 97.5042C149.751 97.5042 150.091 97.7652 150.332 97.8031C150.574 97.8451 151.102 98.0693 151.084 97.8912C151.06 97.7192 150.762 97.3875 150.668 97.2994C150.606 97.2459 150.533 97.2074 150.454 97.1868ZM149.348 99.8352C149.348 99.8352 149.019 99.7656 148.803 99.9048C148.574 100.04 148.645 100.152 148.645 100.152C148.645 100.152 148.991 100.418 149.233 100.455C149.474 100.497 149.996 100.725 149.979 100.544C149.951 100.367 149.66 100.04 149.559 99.9509C149.459 99.8618 149.348 99.8352 149.348 99.8352ZM77.6573 113.321C77.6573 113.321 77.1045 114.392 77.3758 114.98C77.6491 115.568 78.3944 114.042 78.3944 114.042C78.3944 114.042 79.1652 112.518 78.851 112.239C78.5316 111.955 78.3493 112.747 77.6573 113.321Z" fill="white"/>
<path d="M119.692 207.674C119.692 207.674 119.277 207.138 118.885 207.527C118.493 207.92 117.983 208.545 117.076 208.484C116.165 208.416 115.774 208.275 115.261 208.055C114.755 207.831 114.045 207.497 114.045 207.497C114.045 207.497 112.194 206.783 110.624 206.746C109.057 206.704 106.494 207.358 105.253 208.703C104.011 210.041 103.696 211.436 103.696 211.436C103.696 211.436 103.281 213.885 103.993 215.001C104.703 216.13 105.477 217.336 107.2 218.394C108.929 219.451 109.682 219.844 109.682 219.844L112.681 221.224L115.453 222.269C115.453 222.269 119.46 223.467 119.947 226.497C120.432 229.528 118.614 233.447 113.082 233.807C107.64 234.162 104.99 231.519 104.142 229.826C103.296 228.124 103.783 226.689 103.783 226.689L104.011 226.223L104.225 226.117C104.225 226.117 105.072 226.69 105.901 226.582C106.728 226.475 108.251 225.477 107.935 223.85C107.616 222.219 106.155 221.86 105.453 221.92C104.756 221.982 101.637 222.788 101.577 227.322C101.513 231.854 105.644 234.268 105.644 234.268C105.644 234.268 108.569 236.089 111.871 235.946C115.176 235.796 117.91 234.482 117.91 234.482C117.91 234.482 122.803 232.048 122.933 226.73C123.057 221.417 119.691 219.546 119.691 219.546C119.691 219.546 118.484 218.702 117.381 218.19C116.128 217.605 114.878 217.012 113.633 216.41L110.942 215.184L109.31 214.275L108.396 213.659C108.396 213.659 106.217 211.943 107.379 210.078C108.545 208.215 111.915 208.912 111.915 208.912C111.915 208.912 114.521 209.462 116.554 210.926C118.589 212.386 119.778 214.144 119.778 214.144L120.621 215.525L120.726 215.716L121.448 215.464C121.448 215.464 120.324 212.328 120.11 211.012C119.901 209.702 119.692 207.674 119.692 207.674ZM151.945 225.607C151.945 225.607 152.673 226.413 153.64 226.413C154.62 226.413 156.008 225.733 155.99 223.974C155.971 222.218 154.192 221.747 154.192 221.747C154.192 221.747 151.501 221.113 150.191 223.849C148.878 226.581 149.595 228.953 149.595 228.953C149.595 228.953 150.212 232.641 154.108 234.822C158.004 237.001 162.182 235.395 162.182 235.395C162.182 235.395 165.314 234.354 168.026 231.302C170.739 228.253 172.031 224.63 172.031 224.63L172.981 222.26L174.125 222.281C174.125 222.281 175.719 222.431 176.836 221.517C177.966 220.602 178.663 219.355 178.663 219.355L178.809 218.978L178.086 218.642C178.086 218.642 177.266 219.719 176.118 219.826C174.976 219.929 173.789 219.737 173.789 219.737L174.888 216.791C174.888 216.791 176.16 214.227 176.524 213.634C176.885 213.043 178.366 211.137 178.366 211.137C178.366 211.137 181.416 211.118 184.36 210.503C187.307 209.888 189.124 209.148 189.124 209.148L192.77 207.641L193.659 207.156L193.385 206.433C193.385 206.433 190.102 207.599 185.245 208.154C180.399 208.703 177.349 208.112 177.349 208.112L171.839 207.259C171.839 207.259 170.164 206.988 168.874 206.966C167.584 206.946 164.949 207.427 164.949 207.427C164.949 207.427 162.329 208.023 161.146 208.913C159.952 209.804 157.137 211.882 158.433 215.058C159.721 218.236 164.997 216.539 165.744 214.185C165.717 214.207 166.037 213.426 166.037 213.426L166.125 213.001L165.675 212.829L165.146 213.444C165.146 213.444 163.178 215.1 161.651 214.036C160.133 212.979 161.164 211.5 161.315 211.327C161.46 211.161 162.284 210.163 164.256 209.721C166.228 209.279 169.192 209.996 169.192 209.996L172.413 210.588C172.413 210.588 174.192 210.928 174.272 210.928C174.36 210.928 174.934 211.012 174.934 211.012L173.808 212.262C173.808 212.262 172.177 213.828 171.031 216.099C169.89 218.364 169.361 219.548 169.361 219.548L169.25 219.72C169.25 219.72 167.816 219.888 166.907 220.437C165.992 220.988 165.401 221.836 165.401 221.836L164.975 222.6L165.546 223.086C165.546 223.086 166.204 222.343 167.01 222.135C167.816 221.92 168.429 222.241 168.429 222.241C168.429 222.241 167.262 225.119 166.712 226.157C166.162 227.195 165.23 229.103 163.916 230.521C162.607 231.938 161.651 233.172 158.644 233.596C155.636 234.016 153.515 232.086 152.734 231.136C151.946 230.185 151.484 228.741 151.442 227.687C151.395 226.623 151.945 225.607 151.945 225.607Z" fill="#231F20"/>
</g>
<defs>
<clipPath id="clip0_452_414">
<rect width="278" height="278" fill="white"/>
</clipPath>
</defs>
</svg>
