<svg width="278" height="278" viewBox="0 0 278 278" fill="none" xmlns="http://www.w3.org/2000/svg">
<path fill-rule="evenodd" clip-rule="evenodd" d="M155.037 16C87.2825 16 32.5317 71.1452 32.5317 139.121C32.5317 141.636 32.5317 143.925 32.7598 146.213H16.7909C15.8783 146.213 15.4221 146.661 14.9613 147.357C14.7377 148.032 0.596035 172.978 0.132935 173.673C-0.0906307 174.348 -0.0906308 174.589 0.596035 174.589H37.7741C53.0655 225.164 99.8318 262 155.26 262C223.021 262 278 206.855 278 138.879C277.772 71.1452 222.793 16 155.037 16ZM67.4308 174.591H100.06L84.3168 202.052C77.473 194.042 71.5416 184.889 67.4308 174.591ZM155.039 233.846C129.265 233.846 105.991 223.548 89.1052 206.855H115.577C115.577 206.855 191.761 72.0651 192.224 71.3717C192.678 70.9209 192.452 70.4701 191.761 70.4701H160.742C160.062 70.4701 160.062 70.6967 159.825 70.9209C159.601 71.3717 116.718 146.213 116.718 146.213H60.8265C60.5892 143.925 60.5892 141.407 60.5892 139.119C60.5892 86.7153 102.793 44.1516 155.039 44.1516C181.734 44.1516 205.688 55.3531 223.021 73.2093C215.493 85.7953 182.186 142.78 177.624 151.014C175.114 145.069 163.023 146.213 156.64 145.986C153.898 150.563 141.351 174.591 141.351 174.591H154.583C160.742 174.591 161.426 180.987 158.922 185.115C156.403 189.223 146.6 206.855 146.6 206.855H178.766C178.766 206.855 218.235 137.735 240.587 98.6057C246.514 110.967 249.712 124.698 249.712 139.121C249.712 191.285 207.28 233.846 155.039 233.846Z" fill="#ED1A3B"/>
</svg>
