<svg width="278" height="278" viewBox="0 0 278 278" fill="none" xmlns="http://www.w3.org/2000/svg">
<g clip-path="url(#clip0_452_383)">
<path d="M274.936 139C274.936 214.147 214.129 274.96 138.988 274.96C63.8478 274.96 3.04053 214.147 3.04053 139C3.04053 63.8533 63.8478 3.04077 138.988 3.04077C214.129 3.04077 274.936 63.8533 274.936 139ZM138.988 11.2939C68.1911 11.2939 11.2929 68.197 11.2929 139C11.2929 209.803 68.6255 266.706 138.988 266.706C209.785 266.706 266.683 209.369 266.683 139C266.683 68.197 209.785 11.2939 138.988 11.2939Z" fill="url(#paint0_linear_452_383)"/>
<path d="M138.988 11.2935C68.1912 11.2935 11.293 68.1966 11.293 139C11.293 209.803 68.6255 266.706 138.988 266.706C209.785 266.706 266.683 209.368 266.683 139C266.683 68.1966 209.785 11.2935 138.988 11.2935ZM138.988 258.453C72.9689 258.453 19.5454 205.025 19.5454 139C19.5454 72.9747 72.9689 19.5466 138.988 19.5466C205.007 19.5466 258.431 72.9747 258.431 139C258.431 205.025 205.007 258.453 138.988 258.453Z" fill="url(#paint1_linear_452_383)"/>
<path opacity="0.4" d="M138.988 274.959C214.128 274.959 274.936 214.147 274.936 139C274.936 63.8531 214.128 3.04062 138.988 3.04062C63.8476 3.04062 3.04037 63.8531 3.04037 139C3.04037 214.147 63.8476 274.959 138.988 274.959ZM138.988 0C215.431 0 277.976 62.55 277.976 139C277.976 215.45 215.431 278 138.988 278C62.5446 278 0 215.45 0 139C0 62.55 62.5446 0 138.988 0Z" fill="url(#paint2_linear_452_383)"/>
<path d="M9.55566 139.434C9.55566 68.1968 67.3225 9.55615 138.988 9.55615C210.654 9.55615 268.421 67.7624 268.421 139.434C268.421 210.672 210.654 268.444 138.988 268.444C67.3225 268.444 9.55566 210.672 9.55566 139.434ZM49.949 49.953C26.9292 72.9749 12.596 104.684 12.596 139.434C12.596 174.184 26.9292 205.894 49.5147 228.481C72.5346 251.069 104.241 265.403 138.988 265.403C173.735 265.403 205.442 251.503 228.027 228.481C251.047 205.894 264.946 174.184 264.946 139.434C264.946 104.684 250.613 72.9749 228.027 49.953C205.442 26.9312 173.735 12.5968 138.988 12.5968C104.241 12.5968 72.5346 26.9312 49.949 49.953Z" fill="white"/>
<path opacity="0.4" d="M138.988 258.887C106.847 258.887 76.8777 246.29 54.2922 223.703C31.7066 201.115 19.1108 171.144 19.1108 139C19.1108 106.856 31.7066 76.8842 54.2922 54.2967C76.8777 31.7092 106.847 19.1123 138.988 19.1123C171.129 19.1123 201.098 31.7092 223.684 54.2967C246.269 76.8842 258.865 106.856 258.865 139C258.865 171.144 246.269 201.115 223.684 223.703C201.098 246.29 171.129 258.887 138.988 258.887ZM138.988 255.412C169.826 255.412 199.361 243.25 221.078 221.531C243.229 199.378 254.956 170.275 254.956 139.434C254.956 108.594 242.795 79.0561 221.078 57.3373C198.927 35.1842 169.826 23.4561 138.988 23.4561C108.15 23.4561 78.6151 35.6186 56.8982 57.3373C34.747 78.6217 22.5855 108.159 22.5855 139C22.5855 169.84 34.747 199.378 56.4639 221.097C78.6151 243.25 108.15 255.412 138.988 255.412Z" fill="url(#paint3_linear_452_383)"/>
<path d="M244.532 195.469C242.36 193.731 158.533 127.272 158.533 127.272L138.988 15.6375C137.685 16.0718 135.948 17.375 135.079 19.1125L121.18 127.706L34.7469 194.166C34.7469 194.166 33.0096 196.337 32.1409 197.641C31.7066 198.509 31.7065 199.812 31.7065 201.116L138.554 157.244L245.401 201.116C246.269 198.944 245.401 196.772 244.532 195.469Z" fill="white"/>
<path d="M139.856 142.475L138.988 162.456L237.148 201.985C240.623 203.722 243.229 202.853 245.835 201.116L141.159 142.041C140.725 141.606 139.856 142.041 139.856 142.475Z" fill="#565F64"/>
<path d="M139.856 142.475C139.856 142.475 145.503 152.466 152.018 159.416C161.139 169.406 173.3 176.356 173.3 176.356L237.148 201.985C240.623 203.722 243.229 202.853 245.835 201.116L141.159 142.041C140.725 141.606 139.856 142.041 139.856 142.475Z" fill="url(#paint4_linear_452_383)"/>
<path d="M245.401 197.207C245.401 196.772 244.966 196.338 244.532 195.469L155.058 129.878L142.897 137.697C142.897 137.697 143.766 138.132 144.2 137.697C145.503 137.263 148.109 136.828 150.715 137.697C152.887 138.566 245.401 197.641 245.401 197.641C245.401 197.641 245.401 197.641 245.401 197.207Z" fill="#A4AAAE" fill-opacity="0.6"/>
<path d="M242.36 193.297L158.968 127.272L155.059 129.878L244.532 195.903C244.098 195.034 243.229 194.165 242.36 193.297Z" fill="#333E46"/>
<path d="M141.16 135.959C140.725 136.394 140.725 136.394 140.725 136.394C140.725 136.394 140.725 137.262 141.594 136.828C142.028 136.394 154.624 129.878 158.968 127.272L143.766 23.0218C143.331 19.1124 141.594 17.3749 138.554 16.0718L140.291 136.828L141.16 135.959Z" fill="#565F64"/>
<path d="M133.776 23.0218V28.6687L124.221 124.666C124.221 125.969 124.655 127.272 125.958 128.141L131.604 132.484L135.513 26.4968L135.948 18.2437C134.645 19.1124 134.21 20.8499 133.776 23.0218Z" fill="#A4AAAE" fill-opacity="0.6"/>
<path d="M128.564 134.222L123.352 129.878L35.1815 193.732C35.1815 193.732 32.5755 195.469 32.1411 197.207L35.1815 195.469L127.695 137.263C129.433 136.394 129.867 135.525 128.564 134.222Z" fill="#A4AAAE" fill-opacity="0.6"/>
<path d="M137.685 142.475C137.685 142.041 137.251 141.606 136.816 142.041L31.7065 201.55C34.3126 203.288 36.9186 203.722 40.3933 202.419L138.554 162.891L137.685 142.475Z" fill="#565F64"/>
<path d="M140.725 136.394L141.159 135.959C140.725 136.394 140.725 136.394 140.725 136.394C140.725 136.394 140.725 136.828 141.159 136.828H141.594C142.028 136.394 154.624 129.878 158.967 127.272L157.23 114.675L143.765 23.0217C143.765 21.2842 143.331 19.9811 142.462 19.1123C142.462 19.1123 148.977 106.856 148.977 116.412C148.977 129.009 140.725 136.394 140.725 136.394Z" fill="url(#paint5_linear_452_383)"/>
<path d="M137.685 142.475C137.685 142.041 137.251 141.606 136.816 142.041L31.7065 201.55C34.3126 203.288 36.9186 203.722 40.3933 202.419L138.554 162.891L137.685 142.475Z" fill="url(#paint6_linear_452_383)" fill-opacity="0.8"/>
<path opacity="0.8" d="M40.3934 201.984L138.554 162.456L137.685 143.344C135.948 148.556 132.907 154.203 124.655 158.547C118.574 162.022 60.3729 190.69 39.5247 200.681C38.2217 201.55 36.4844 201.984 35.6157 202.419C37.3531 203.287 38.6561 202.853 40.3934 201.984Z" fill="url(#paint7_linear_452_383)"/>
<path d="M141.16 135.959C140.725 136.394 140.725 136.394 140.725 136.394C140.725 136.394 140.725 137.262 141.594 136.828C142.028 136.394 154.624 129.878 158.968 127.272L143.766 23.0218C143.331 19.1124 141.594 17.3749 138.554 16.0718L140.291 136.828L141.16 135.959Z" fill="url(#paint8_linear_452_383)"/>
<path d="M141.16 135.959C140.725 136.394 140.725 136.394 140.725 136.394C140.725 136.394 140.725 137.262 141.594 136.828C142.028 136.394 154.624 129.878 158.968 127.272L143.766 23.0218C143.331 19.1124 141.594 17.3749 138.554 16.0718L140.291 136.828L141.16 135.959Z" fill="url(#paint9_linear_452_383)"/>
<path d="M22.1514 192.863C19.111 185.913 1.73751 152.031 20.8484 86.875H13.4646C9.55559 99.9062 6.51523 107.725 4.77788 119.453C4.77788 119.453 3.9092 123.797 3.47486 128.575C3.04052 133.353 3.04053 135.959 3.04053 139C3.04053 165.062 9.55559 180.266 9.55559 180.266C16.505 201.984 28.6664 221.531 45.1713 236.3C59.5044 248.897 81.6556 258.453 99.8978 261.928C96.8574 261.494 44.7369 239.341 22.1514 192.863Z" fill="url(#paint10_linear_452_383)"/>
<path d="M140.726 141.606H136.816C137.251 141.606 137.685 141.606 137.685 142.041L138.554 162.024H138.988L139.857 142.041C139.857 141.606 140.291 141.172 140.726 141.606Z" fill="url(#paint11_linear_452_383)"/>
<path d="M182.422 9.99048C228.027 27.3655 271.026 75.1467 271.026 135.525C271.026 208.5 212.825 268.009 138.988 268.009V274.959C212.825 274.959 274.935 214.147 274.935 139C274.935 79.0561 236.714 28.6686 182.422 9.99048Z" fill="url(#paint12_linear_452_383)"/>
<path d="M255.39 87.7439C224.987 17.8096 156.361 13.9002 152.452 13.4658C152.452 13.4658 152.452 13.4658 152.018 13.4658C204.573 23.0221 238.017 57.3377 249.744 93.3908V93.8252C254.956 107.725 257.562 122.494 257.996 138.566C258.431 153.769 254.956 170.71 248.441 186.347C248.007 188.519 247.572 191.125 247.138 191.125H254.087C274.936 152.031 265.814 112.503 255.39 87.7439Z" fill="url(#paint13_linear_452_383)"/>
<path d="M9.55566 139.434C9.55566 68.1968 67.3225 9.55615 138.988 9.55615C210.654 9.55615 268.421 67.7624 268.421 139.434C268.421 210.672 210.654 268.444 138.988 268.444C67.3225 268.444 9.55566 210.672 9.55566 139.434ZM49.949 49.953C26.9292 72.9749 12.596 104.684 12.596 139.434C12.596 174.184 26.9292 205.894 49.5147 228.481C72.5346 251.069 104.241 265.403 138.988 265.403C173.735 265.403 205.442 251.503 228.027 228.481C251.047 205.894 264.946 174.184 264.946 139.434C264.946 104.684 250.613 72.9749 228.027 49.953C205.442 26.9312 173.735 12.5968 138.988 12.5968C104.241 12.5968 72.5346 26.9312 49.949 49.953Z" fill="#FBFBFB"/>
<path d="M34.3125 194.6L122.917 130.747C127.695 133.353 135.513 136.828 136.382 136.828C137.25 137.262 137.25 136.394 137.25 136.394L126.392 127.272C125.089 126.403 124.655 125.1 124.655 123.797L135.079 19.1123C134.644 19.5467 134.644 20.4154 134.21 20.8498C133.776 21.7186 133.776 22.1529 133.776 23.0217L118.574 127.706L35.1812 193.297C34.7468 193.731 34.3125 194.165 34.3125 194.6Z" fill="#333F47"/>
</g>
<defs>
<linearGradient id="paint0_linear_452_383" x1="34.7424" y1="51.673" x2="243.257" y2="226.288" gradientUnits="userSpaceOnUse">
<stop stop-color="white"/>
<stop offset="0.1" stop-color="#CDD0D0"/>
<stop offset="0.2" stop-color="#A5ACAF"/>
<stop offset="0.3" stop-color="#98A0A4"/>
<stop offset="0.4" stop-color="#828A8F"/>
<stop offset="0.5" stop-color="#667075"/>
<stop offset="0.6" stop-color="#535C63"/>
<stop offset="0.7" stop-color="#475158"/>
<stop offset="0.8" stop-color="#434D54"/>
<stop offset="1" stop-color="#475157"/>
</linearGradient>
<linearGradient id="paint1_linear_452_383" x1="41.1419" y1="56.713" x2="236.608" y2="220.89" gradientUnits="userSpaceOnUse">
<stop stop-color="#0B1F2A"/>
<stop offset="0.2" stop-color="#333F47"/>
<stop offset="0.5" stop-color="#81898D"/>
<stop offset="0.7" stop-color="#B3B8B8"/>
<stop offset="0.8" stop-color="#DEE0DD"/>
<stop offset="1" stop-color="#FBFBFB"/>
</linearGradient>
<linearGradient id="paint2_linear_452_383" x1="186.494" y1="269.578" x2="91.3596" y2="8.08989" gradientUnits="userSpaceOnUse">
<stop stop-color="#E1E3E1"/>
<stop offset="0.1" stop-color="#C1C5C4"/>
<stop offset="0.3" stop-color="#9BA1A2"/>
<stop offset="0.5" stop-color="#7D8487"/>
<stop offset="0.7" stop-color="#687074" stop-opacity="0"/>
<stop offset="0.8" stop-color="#5B6469" stop-opacity="0"/>
<stop offset="1" stop-color="#576065" stop-opacity="0"/>
</linearGradient>
<linearGradient id="paint3_linear_452_383" x1="79.0564" y1="35.179" x2="198.943" y2="242.79" gradientUnits="userSpaceOnUse">
<stop stop-color="#E1E3E1"/>
<stop offset="0.1" stop-color="#C1C5C4"/>
<stop offset="0.3" stop-color="#9BA1A2"/>
<stop offset="0.5" stop-color="#7D8487"/>
<stop offset="0.7" stop-color="#687074" stop-opacity="0"/>
<stop offset="0.8" stop-color="#5B6469" stop-opacity="0"/>
<stop offset="1" stop-color="#576065" stop-opacity="0"/>
</linearGradient>
<linearGradient id="paint4_linear_452_383" x1="193.233" y1="171.102" x2="185.848" y2="183.264" gradientUnits="userSpaceOnUse">
<stop stop-color="#27343C"/>
<stop offset="1" stop-color="#00111E" stop-opacity="0"/>
</linearGradient>
<linearGradient id="paint5_linear_452_383" x1="171.915" y1="126.446" x2="159.752" y2="106.9" gradientUnits="userSpaceOnUse">
<stop offset="0.1" stop-color="#02131F"/>
<stop offset="0.9" stop-color="#02131F" stop-opacity="0"/>
</linearGradient>
<linearGradient id="paint6_linear_452_383" x1="138.913" y1="157.825" x2="120.67" y2="163.037" gradientUnits="userSpaceOnUse">
<stop offset="0.2" stop-color="#02131F"/>
<stop offset="0.9" stop-color="#02131F" stop-opacity="0"/>
</linearGradient>
<linearGradient id="paint7_linear_452_383" x1="90.3088" y1="182.007" x2="87.7024" y2="175.492" gradientUnits="userSpaceOnUse">
<stop stop-color="#02131F"/>
<stop offset="0.1" stop-color="#02131F"/>
<stop offset="1" stop-color="#02131F" stop-opacity="0"/>
</linearGradient>
<linearGradient id="paint8_linear_452_383" x1="154.635" y1="74.7645" x2="139.868" y2="76.5017" gradientUnits="userSpaceOnUse">
<stop offset="0.3" stop-color="#02131F"/>
<stop offset="0.8" stop-color="#02131F" stop-opacity="0"/>
</linearGradient>
<linearGradient id="paint9_linear_452_383" x1="155.095" y1="74.5161" x2="145.105" y2="75.819" gradientUnits="userSpaceOnUse">
<stop offset="0.4" stop-color="#27343C"/>
<stop offset="1" stop-color="#3B474E" stop-opacity="0"/>
</linearGradient>
<linearGradient id="paint10_linear_452_383" x1="-1.56171" y1="142.601" x2="119.624" y2="212.526" gradientUnits="userSpaceOnUse">
<stop stop-color="#25323B" stop-opacity="0"/>
<stop offset="0.1" stop-color="#27343C"/>
</linearGradient>
<linearGradient id="paint11_linear_452_383" x1="138.775" y1="162.448" x2="138.775" y2="141.596" gradientUnits="userSpaceOnUse">
<stop offset="0.3" stop-color="#A5ABAF"/>
<stop offset="1" stop-color="#A5ABAF" stop-opacity="0"/>
</linearGradient>
<linearGradient id="paint12_linear_452_383" x1="206.966" y1="9.98005" x2="206.966" y2="274.949" gradientUnits="userSpaceOnUse">
<stop stop-color="#6B7378"/>
<stop offset="0.2" stop-color="#333F47"/>
<stop offset="0.5" stop-color="#27343C"/>
<stop offset="0.8" stop-color="#333F47"/>
<stop offset="1" stop-color="#434D54"/>
</linearGradient>
<linearGradient id="paint13_linear_452_383" x1="248.832" y1="35.142" x2="190.189" y2="121.144" gradientUnits="userSpaceOnUse">
<stop offset="0.7" stop-color="#49545B"/>
<stop offset="0.8" stop-color="white" stop-opacity="0"/>
</linearGradient>
<clipPath id="clip0_452_383">
<rect width="278" height="278" fill="white"/>
</clipPath>
</defs>
</svg>
