<svg width="278" height="278" viewBox="0 0 278 278" fill="none" xmlns="http://www.w3.org/2000/svg">
<g clip-path="url(#clip0_590_905)">
<mask id="mask0_590_905" style="mask-type:luminance" maskUnits="userSpaceOnUse" x="11" y="0" width="254" height="354">
<path d="M264.626 0.00012207H11.1201V353.06H264.626V0.00012207Z" fill="white"/>
</mask>
<g mask="url(#mask0_590_905)">
<path d="M149.755 108.268C149.755 85.8219 131.271 67.8652 108.561 67.8652C107.769 67.8652 58.3877 67.8652 58.3877 67.8652V149.463C59.1799 149.991 59.9721 150.783 60.5002 151.311C66.3098 157.649 66.5738 168.211 61.5565 174.813C60.5002 176.133 59.444 177.454 58.3877 178.51V193.826C58.9158 193.562 59.444 193.298 59.9721 192.77C60.2362 192.506 60.7643 192.242 61.0284 191.978C61.2925 191.714 62.0847 191.185 64.7253 189.073C69.7427 185.112 75.8162 180.359 82.682 178.774C84.7946 178.246 85.8508 177.982 87.1712 177.982V90.8392H101.959C112.786 90.8392 120.972 98.7613 120.972 108.796C120.972 118.831 112.258 126.753 101.431 126.753H94.5651V159.497L102.751 172.172C103.543 171.38 104.336 170.852 105.128 170.06L105.392 169.796L105.656 169.532C111.994 164.25 118.859 161.874 127.31 161.874C127.574 161.61 127.574 161.61 127.838 161.346L117.803 147.086C136.288 143.125 149.755 127.281 149.755 108.268Z" fill="#6692FF"/>
</g>
<mask id="mask1_590_905" style="mask-type:luminance" maskUnits="userSpaceOnUse" x="11" y="0" width="254" height="354">
<path d="M264.626 0.00012207H11.1201V353.06H264.626V0.00012207Z" fill="white"/>
</mask>
<g mask="url(#mask1_590_905)">
<path d="M206.796 67.8652H160.056V145.501C160.848 144.973 161.64 144.445 162.432 143.917C164.017 142.861 165.865 141.805 167.978 140.748L168.242 140.484L168.506 140.22C171.939 138.636 176.164 137.843 180.389 137.843C183.558 137.843 186.463 138.372 189.103 139.164V91.3674H207.324C215.246 91.3674 221.848 98.7613 221.848 106.683C221.848 114.605 215.246 121.207 207.324 121.207H197.817V143.389C198.61 143.917 199.402 144.445 200.194 144.973L200.458 145.237L201.25 145.766H215.246C225.017 145.766 232.411 153.688 232.411 163.458C232.411 166.891 231.618 169.796 230.034 172.436C233.995 177.454 239.276 183.791 242.181 188.809V189.073C243.501 191.449 244.558 194.09 245.35 196.995C255.384 189.865 261.986 178.51 261.986 165.835C261.986 150.255 256.441 139.164 237.956 130.45C245.35 123.584 250.103 114.077 250.103 103.779C250.103 94.5362 246.406 85.8219 240.333 79.2202C233.995 71.8263 222.376 67.8652 206.796 67.8652Z" fill="#6692FF"/>
</g>
<mask id="mask2_590_905" style="mask-type:luminance" maskUnits="userSpaceOnUse" x="11" y="0" width="254" height="354">
<path d="M264.626 0.00012207H11.1201V353.06H264.626V0.00012207Z" fill="white"/>
</mask>
<g mask="url(#mask2_590_905)">
<path d="M150.813 252.978C151.341 253.77 151.869 254.826 152.397 255.882C153.189 257.731 153.981 259.051 154.774 259.315C155.038 259.315 155.566 259.579 155.83 259.579C157.678 259.579 160.055 258.523 161.903 257.203C162.96 256.411 162.696 255.882 162.168 255.09C161.903 254.826 161.903 254.562 161.639 254.298C161.111 253.242 160.847 252.45 160.583 251.393C160.055 249.545 159.527 248.224 157.678 248.488C155.038 248.753 152.397 249.017 149.492 249.017C149.492 249.017 148.436 249.017 148.172 249.545C147.908 250.337 148.7 250.865 149.492 251.657C150.02 252.185 150.549 252.714 150.813 252.978Z" fill="#6692FF"/>
</g>
<mask id="mask3_590_905" style="mask-type:luminance" maskUnits="userSpaceOnUse" x="11" y="0" width="254" height="354">
<path d="M264.626 0.00012207H11.1201V353.06H264.626V0.00012207Z" fill="white"/>
</mask>
<g mask="url(#mask3_590_905)">
<path d="M17.4577 261.957H17.1937C15.6093 262.485 13.7608 264.597 13.7608 265.654C13.4967 270.935 13.2326 271.463 11.9123 273.047C11.3842 273.576 11.1201 274.632 11.6482 274.896C11.9123 275.16 17.1937 277.008 17.7218 277.008C18.25 276.744 18.514 275.688 19.5703 271.991C20.0984 270.143 20.8906 267.766 21.4188 265.918C21.4188 265.918 21.4188 265.654 20.8906 264.861C20.6266 264.333 18.514 261.957 17.4577 261.957Z" fill="#6692FF"/>
</g>
<mask id="mask4_590_905" style="mask-type:luminance" maskUnits="userSpaceOnUse" x="11" y="0" width="254" height="354">
<path d="M264.626 0.00012207H11.1201V353.06H264.626V0.00012207Z" fill="white"/>
</mask>
<g mask="url(#mask4_590_905)">
<path d="M263.833 253.506C262.249 252.714 260.665 251.922 260.665 251.922C256.968 249.809 254.855 246.112 252.742 242.679C251.95 241.359 251.158 239.774 250.102 238.718C249.574 237.926 248.517 236.87 247.461 236.077C246.933 235.285 246.141 234.493 246.141 234.229C242.708 224.986 239.011 213.896 238.219 201.748C237.955 199.9 236.898 195.675 235.314 193.034C230.561 185.112 218.942 171.645 218.149 170.852C217.621 170.324 217.357 170.06 216.829 169.532L216.565 169.268L195.704 151.839C191.478 148.935 190.158 148.407 187.253 147.35C185.405 146.558 183.028 146.294 180.652 146.294C177.747 146.294 174.842 146.822 172.201 147.878C170.617 148.671 169.033 149.727 167.448 150.783C164.808 152.368 161.903 154.216 158.998 155.272C156.621 156.329 154.245 157.121 151.604 157.913C146.851 159.497 141.834 160.818 138.137 164.515C137.08 165.571 136.024 166.363 135.232 167.155C131.535 170.588 131.271 170.852 128.366 170.852C121.5 170.852 116.747 172.437 111.73 176.662C107.769 180.359 103.808 183.528 99.3185 185.376C97.2059 186.168 95.0933 186.432 92.4527 186.697C88.7557 186.961 88.2276 186.961 85.0587 187.753C80.0414 188.809 74.7601 193.034 70.2709 196.467C68.6865 197.523 66.838 199.108 66.0458 199.636C65.5176 199.9 64.9895 200.428 64.4614 200.692C58.9159 203.861 53.6345 207.03 47.0328 207.03C46.7688 207.03 46.7688 207.03 46.5047 207.03C41.4874 206.766 36.9982 203.333 35.4138 198.58C34.0935 193.562 35.4138 188.281 39.6389 184.056C41.4874 182.207 43.864 180.359 45.9766 178.51C49.4094 175.606 52.5783 172.965 54.9549 169.796C57.5956 166.363 57.3315 160.29 54.4268 157.121C51.522 153.952 44.9203 152.368 42.5437 151.839H42.0155C41.7514 151.839 41.2233 151.839 41.2233 151.575C39.6389 151.311 38.0545 151.047 36.7341 150.783C32.7731 149.727 29.8684 146.822 26.4355 144.974C24.587 146.822 24.3229 148.935 24.3229 151.311C25.1151 156.593 29.3402 161.874 34.0935 163.987C34.3575 163.987 34.6216 164.251 34.6216 164.251C36.206 164.779 37.7904 165.043 39.1108 165.043C39.3748 165.043 39.6389 165.043 40.167 165.043C40.4311 165.043 40.6952 165.043 41.2233 165.043C42.2796 165.043 43.3359 165.043 44.3921 165.307C45.4484 165.571 46.2406 166.363 46.5047 167.684C46.5047 168.476 46.2406 169.004 45.4484 169.532C44.6562 170.324 43.864 170.852 43.0718 171.645C38.8467 175.077 34.6216 178.51 31.1887 182.735C26.4355 187.753 26.4355 196.467 28.548 202.012C31.1887 209.406 38.8467 213.632 45.1843 214.424C46.2406 214.688 47.561 214.688 48.6172 214.688C52.3142 214.688 56.0112 213.896 59.4441 212.839H59.7081C59.9722 212.839 60.2363 212.839 60.2363 213.632C60.2363 215.216 60.5003 216.8 60.5003 218.649C60.5003 221.29 60.7644 223.93 61.0285 224.986C61.5566 227.363 62.6129 230.268 63.4051 232.38C63.6692 233.173 63.9332 233.965 64.1973 234.229C64.4614 235.285 64.1973 236.606 63.4051 237.134C60.7644 239.51 55.483 241.359 54.4268 241.623C52.8423 241.887 51.2579 241.887 49.9376 241.887C49.4094 241.887 48.8813 241.887 48.6172 241.887C48.0891 241.887 47.561 242.151 47.0328 242.679C46.2406 243.471 45.4484 245.584 44.3921 247.96C43.864 249.545 43.3359 250.865 42.5437 252.186C40.9592 254.826 38.0545 256.675 35.4138 258.259C34.6216 258.523 34.0935 259.051 33.3012 259.315C32.245 261.164 31.1887 262.748 29.6043 264.069C28.548 265.125 26.9636 265.389 25.6433 265.389C23.5307 267.766 22.7385 270.934 22.2104 274.103C22.2104 274.631 21.9463 275.16 21.9463 275.424V275.952H22.2104C23.2666 275.952 24.3229 276.216 25.6433 276.48C27.2277 276.744 28.8121 277.272 30.3965 277.272C31.9809 277.272 33.3012 277.008 34.3575 276.216C36.4701 275.16 37.5263 273.311 38.5826 271.727C39.3748 270.67 39.903 269.35 40.9592 268.294C41.4874 267.766 42.2796 267.502 43.0718 267.502C43.864 267.502 44.6562 267.766 45.4484 268.03C46.2406 268.294 47.0328 268.558 47.825 268.558C51.522 268.822 54.9549 266.445 56.8034 265.125C57.5956 264.597 58.3878 263.805 58.9159 263.012C59.9722 261.956 61.2925 260.9 62.3488 260.108C63.9332 259.315 65.7817 259.051 67.8943 259.051C70.799 259.051 73.7038 259.579 76.0804 260.108C77.4007 260.372 78.7211 260.636 80.0414 260.636C82.418 260.636 84.5306 260.108 86.115 259.051C88.2276 257.995 90.3401 256.675 91.9245 255.883C92.9808 255.354 93.773 254.826 94.5652 254.562C97.47 252.978 100.111 248.489 100.903 246.64C101.695 244.792 103.279 241.095 103.279 241.095V240.831L99.8466 238.19L99.5825 238.454C99.5825 238.454 97.2059 242.151 95.8856 243.999C89.812 252.45 79.7774 253.506 71.8553 253.506C71.3272 253.506 70.799 253.506 70.2709 253.506C60.2363 253.506 52.3142 256.939 46.5047 263.276C46.2406 263.541 45.7125 263.541 45.4484 263.276C45.4484 263.012 45.1843 262.748 45.4484 262.484C45.7125 261.692 45.7125 261.692 45.9766 260.9C52.3142 252.186 62.877 250.865 71.3272 250.601C77.6648 250.073 82.154 249.017 86.115 247.168C91.1323 244.528 95.0933 238.718 96.4137 234.229C97.47 231.324 97.9981 228.155 98.2622 224.986C98.5262 222.61 99.0544 219.969 99.5825 217.593C99.5825 217.328 100.111 217.064 100.375 217.064H100.639C100.903 217.064 101.695 217.328 101.695 217.857C100.903 222.61 99.5825 229.212 101.959 234.757C103.015 236.87 105.128 237.926 108.561 237.926C110.673 237.926 113.05 237.662 115.163 237.134C117.011 236.87 118.595 236.606 119.916 236.606C120.444 236.606 121.236 236.606 121.764 236.606C124.669 236.606 127.31 237.134 129.95 237.662C132.327 238.19 134.44 238.718 137.08 238.718C137.608 238.718 137.873 238.718 138.401 238.718C139.193 238.718 139.985 238.982 141.041 238.982C143.154 238.982 144.474 238.454 145.531 237.662C146.323 237.134 146.059 236.077 145.795 235.021V234.757C145.795 234.493 145.795 234.229 145.531 234.229C145.002 232.644 144.474 230.532 145.531 229.476C145.795 229.476 146.059 229.212 146.059 229.212C146.323 229.212 146.587 229.212 146.587 229.476C146.587 230.004 146.851 230.268 146.851 230.796C147.379 232.644 147.907 234.493 148.963 236.077C151.34 239.246 155.301 242.151 159.79 244.528C162.695 246.64 166.392 250.073 166.656 255.09C166.656 257.203 164.543 258.787 162.959 259.844C160.318 261.164 156.621 262.748 153.981 262.484C152.396 262.484 151.076 261.428 151.076 261.428C148.699 259.051 148.963 258.523 147.379 255.618C146.587 254.298 145.531 252.714 144.474 251.393C142.89 249.809 141.041 249.017 138.401 249.281C136.024 249.545 133.647 250.073 130.743 250.601C130.215 250.601 129.686 251.129 129.422 251.657C129.158 252.186 129.158 252.978 129.686 253.506C131.007 256.147 132.591 258.259 133.911 260.9L134.44 261.956C134.704 262.484 135.496 262.748 136.024 262.748C136.288 262.748 136.816 262.748 137.08 262.748C137.608 262.748 137.873 262.748 138.401 262.748C139.721 262.748 140.513 263.012 141.041 263.805C141.569 264.597 141.834 265.125 142.362 265.917C143.418 267.766 144.21 269.35 146.059 270.67C147.643 271.991 149.756 272.783 151.868 272.783C152.924 272.783 153.717 272.519 154.773 272.255C161.375 270.142 167.712 268.03 173.786 264.861H175.898C176.427 264.861 176.691 264.861 177.219 264.861C179.331 264.597 181.444 264.597 183.028 263.012C184.877 260.108 186.725 257.467 188.046 254.298C189.366 251.657 189.366 249.017 188.046 246.904C184.085 240.831 183.556 238.982 181.972 234.757C181.444 234.493 181.18 234.493 180.652 234.229C179.595 233.965 178.803 233.437 177.483 233.437H177.219C175.898 233.437 175.106 233.965 174.578 234.757L181.708 248.489C182.236 249.545 182.764 250.601 182.5 252.186C182.236 253.77 178.803 259.315 177.747 259.844C177.483 260.108 177.219 260.108 177.219 260.108C177.219 260.108 176.691 260.108 176.955 259.315C177.483 257.203 178.539 251.657 178.275 250.073C178.011 248.225 172.201 238.454 171.937 237.926V237.662C171.145 236.077 170.089 234.757 170.089 232.909C170.089 232.116 170.881 231.588 171.409 231.324C172.466 231.06 173.522 230.796 174.578 230.532C176.955 230.004 179.595 229.476 180.652 227.891C183.556 223.666 185.141 219.177 186.197 213.103C186.197 212.839 186.461 212.311 186.725 212.311C186.989 212.311 187.253 212.311 187.253 212.839C188.31 218.649 186.989 224.722 183.292 229.74C183.028 230.004 183.028 230.532 183.028 231.06C183.028 231.588 183.556 231.852 183.556 231.852C184.877 232.644 189.894 232.116 193.327 230.268C195.968 230.268 198.608 229.74 200.985 229.476C201.777 229.212 202.569 229.212 203.362 228.948C203.626 229.212 203.89 229.212 203.89 229.476C201.777 231.852 200.457 234.493 199.929 237.926C199.401 238.454 198.608 238.982 198.08 239.774C195.704 241.887 193.327 244.264 193.327 247.168C193.327 247.168 193.327 248.225 194.383 248.225C194.647 248.225 195.175 247.96 195.44 247.96C195.968 247.696 196.232 247.696 196.76 247.696C197.024 247.696 197.288 247.96 197.552 248.489L194.911 252.186C193.855 253.77 194.383 255.354 194.647 257.203C194.911 257.995 194.911 258.787 195.175 259.58C195.704 261.428 198.08 262.484 199.929 262.484C203.362 262.22 206.53 261.164 209.435 260.108C209.963 259.844 210.491 259.844 211.02 259.58C214.188 258.259 218.678 257.995 223.959 258.787C228.184 258.523 231.353 255.883 234.258 252.978C235.578 252.978 236.898 253.77 238.219 255.354C242.708 260.108 248.253 262.484 255.119 262.484C255.383 262.484 255.647 262.484 255.911 262.484H256.703C257.496 262.22 257.496 261.956 257.76 261.428C257.76 260.9 257.496 260.372 256.703 260.108L252.742 257.995C249.574 256.147 246.405 253.77 245.349 250.601C244.292 247.168 242.444 243.999 241.123 241.623C240.859 241.095 240.595 240.831 240.331 240.302C239.803 239.51 239.275 238.718 238.747 237.926C242.972 239.51 245.349 242.679 248.253 247.696C250.366 251.657 255.911 255.618 261.193 255.618C261.985 255.618 262.513 255.618 263.305 255.354C263.833 255.354 264.361 254.826 264.361 254.298C264.626 254.298 264.361 253.77 263.833 253.506ZM188.838 191.186C188.838 191.714 188.574 191.978 188.31 191.978C188.31 191.978 187.782 191.978 187.782 191.45C186.725 185.904 185.933 183 184.877 180.623C184.349 179.831 184.085 179.039 183.556 178.51C182.5 177.19 181.708 176.134 182.764 174.549C183.028 174.021 183.82 173.757 184.349 173.757C184.613 173.757 185.141 173.757 185.405 174.021C186.461 174.549 187.517 175.87 188.574 177.982C190.95 183.528 188.838 191.186 188.838 191.186ZM223.959 246.904C223.959 246.904 223.695 248.489 223.167 249.281C222.375 249.809 219.47 250.337 218.149 250.337C216.829 250.337 216.301 250.073 216.037 249.545C215.773 249.017 216.301 248.225 216.301 248.225C216.565 247.96 218.149 244.528 221.318 243.471C221.318 243.471 222.375 243.207 223.431 243.471C224.487 243.999 223.959 246.64 223.959 246.904ZM233.465 224.986C233.201 226.307 232.937 226.835 232.673 227.099C232.409 227.363 232.145 228.155 231.353 228.155C230.297 228.155 230.297 226.835 230.297 226.835C230.297 226.835 230.297 223.402 229.504 222.082C228.712 220.497 225.279 216.008 223.431 216.272C222.903 216.272 221.582 217.064 220.526 218.385C219.47 219.969 219.47 219.969 218.942 220.233C218.678 220.497 218.149 220.233 217.885 219.441C217.621 218.649 217.621 217.857 217.885 216.008C218.413 214.16 218.678 213.896 219.206 212.575C219.206 212.575 220.262 210.199 220.526 209.67C221.582 208.086 222.903 208.086 222.903 208.086C223.167 208.086 224.487 207.822 225.807 209.67C227.392 211.519 227.128 211.519 227.392 212.047C227.92 212.839 228.184 213.367 229.504 214.688C230.825 216.008 232.145 218.649 232.673 220.497C233.729 222.346 233.729 223.666 233.465 224.986Z" fill="#6692FF"/>
</g>
<mask id="mask5_590_905" style="mask-type:luminance" maskUnits="userSpaceOnUse" x="11" y="0" width="254" height="354">
<path d="M264.626 0.00012207H11.1201V353.06H264.626V0.00012207Z" fill="white"/>
</mask>
<g mask="url(#mask5_590_905)">
<path d="M23.0018 261.957C23.2659 262.221 24.0581 262.749 24.8503 262.749C25.3784 262.749 25.9066 262.485 26.4347 262.221C29.3395 260.636 32.2442 255.355 32.5083 255.091C32.7723 254.299 31.7161 253.506 30.6598 252.45H30.3957C29.8676 251.922 28.8113 252.186 28.2832 252.45C27.755 252.714 27.491 252.978 26.9628 253.242C25.3784 254.299 23.794 255.355 22.2096 256.675C21.6815 257.203 21.4174 257.996 21.1533 258.788C21.1533 259.316 21.1533 259.844 21.4174 260.108C21.6815 260.372 22.7377 261.693 23.0018 261.957Z" fill="#6692FF"/>
</g>
<mask id="mask6_590_905" style="mask-type:luminance" maskUnits="userSpaceOnUse" x="11" y="0" width="254" height="354">
<path d="M264.626 0.00012207H11.1201V353.06H264.626V0.00012207Z" fill="white"/>
</mask>
<g mask="url(#mask6_590_905)">
<path d="M131.801 51.4937L142.628 0.79248H129.688L118.861 51.4937H131.801Z" fill="#6692FF"/>
</g>
<mask id="mask7_590_905" style="mask-type:luminance" maskUnits="userSpaceOnUse" x="11" y="0" width="254" height="354">
<path d="M264.626 0.00012207H11.1201V353.06H264.626V0.00012207Z" fill="white"/>
</mask>
<g mask="url(#mask7_590_905)">
<path d="M190.951 51.4938L193.592 43.8358H210.228L211.812 51.4938H223.96L213.397 1.05664H202.306C199.929 1.05664 197.817 2.64105 196.76 4.7536L177.483 51.4938H190.951ZM204.418 14.5241L208.379 33.5371H197.553L204.418 14.5241Z" fill="#6692FF"/>
</g>
<mask id="mask8_590_905" style="mask-type:luminance" maskUnits="userSpaceOnUse" x="11" y="0" width="254" height="354">
<path d="M264.626 0.00012207H11.1201V353.06H264.626V0.00012207Z" fill="white"/>
</mask>
<g mask="url(#mask8_590_905)">
<path d="M156.621 41.723C150.02 41.723 146.323 39.8745 143.154 38.5542L140.777 49.6451C143.946 50.9654 149.492 52.2857 155.301 52.2857C169.033 52.2857 178.011 45.42 178.011 35.1213C178.011 21.9178 159.526 21.1256 159.79 15.052C159.79 13.2036 161.639 11.3551 165.336 10.8269C167.184 10.5629 172.466 10.2988 178.275 13.2036L180.388 2.11267C177.219 1.0564 173.258 0.00012207 168.241 0.00012207C155.301 0.00012207 146.323 6.86591 146.059 16.6365C146.059 24.0304 152.66 27.9914 157.414 30.368C162.431 32.7447 164.279 34.3291 164.279 36.7057C164.279 40.1386 160.318 41.4589 156.621 41.723Z" fill="#6692FF"/>
</g>
<mask id="mask9_590_905" style="mask-type:luminance" maskUnits="userSpaceOnUse" x="11" y="0" width="254" height="354">
<path d="M264.626 0.00012207H11.1201V353.06H264.626V0.00012207Z" fill="white"/>
</mask>
<g mask="url(#mask9_590_905)">
<path d="M78.7215 11.0913L89.0202 51.4938H102.752L123.877 1.05664H110.146L96.6782 35.3856L91.1327 6.07395C90.6046 2.90512 87.9639 1.05664 85.0591 1.05664H62.8774L62.6133 2.64105C67.1025 3.69733 72.3838 5.28174 75.5527 6.86616C77.4011 7.65836 77.9293 8.71464 78.7215 11.0913Z" fill="#6692FF"/>
</g>
</g>
<defs>
<clipPath id="clip0_590_905">
<rect width="278" height="278" fill="white"/>
</clipPath>
</defs>
</svg>
