<svg xmlns="http://www.w3.org/2000/svg" width="278" height="278" viewBox="0 0 278 278" version="1.1"><path d="M 6.540 107.875 C 5.191 112.124, 8.835 116.790, 14.169 117.643 C 16.276 117.980, 18 118.422, 18 118.625 C 18 118.828, 15.750 121.162, 13 123.813 C 8.439 128.209, 8 129.032, 8 133.181 C 8 141.013, 14.346 145.964, 22.438 144.446 C 25.977 143.782, 26 143.801, 26 147.324 C 26 149.274, 26.426 151.989, 26.946 153.357 C 28.081 156.344, 26.600 157.927, 21.744 158.915 C 19.384 159.395, 18.075 160.470, 16.940 162.861 C 14.786 167.400, 11 169.719, 11 166.500 C 11 165.675, 10.650 165, 10.223 165 C 8.628 165, 5 168.165, 5 169.557 C 5 171.079, 7.924 171.522, 9.571 170.250 C 10.105 169.838, 9.590 170.400, 8.426 171.500 C 5.589 174.181, 4.608 177.135, 6.216 178.155 C 8.644 179.695, 11.858 178.996, 13.821 176.500 C 15.115 174.856, 16.785 174, 18.700 174 C 20.301 174, 23.161 172.842, 25.056 171.426 C 28.015 169.215, 29.166 168.937, 33.228 169.458 C 39.128 170.213, 45.210 167.429, 47.552 162.900 C 50.262 157.658, 48.576 156.659, 44.276 160.959 C 40.780 164.455, 39.827 164.852, 33.471 165.453 C 29.637 165.816, 25.375 166.545, 24 167.073 C 21.774 167.927, 21.691 167.882, 23.246 166.659 C 24.206 165.904, 27.705 165.002, 31.021 164.656 C 41.264 163.585, 45.250 160.382, 46.920 151.880 C 47.718 147.822, 47.789 147.744, 47.890 150.816 C 48.106 157.354, 48.636 157.623, 61.183 157.558 L 72.500 157.500 72.259 155 C 72.034 152.661, 72.077 152.637, 72.927 154.616 C 73.427 155.780, 75.898 158.422, 78.418 160.486 C 80.938 162.551, 83 164.997, 83 165.920 C 83 167.776, 81.152 170, 79.609 170 C 79.064 170, 79.337 169.438, 80.217 168.750 C 82.834 166.705, 80.782 163, 77.032 163 C 73.579 163, 73.309 163.935, 75.651 167.785 C 76.926 169.881, 76.476 169.640, 73.678 166.724 C 70.629 163.547, 69.614 163.054, 67.277 163.612 C 65.750 163.978, 64.155 164.470, 63.734 164.707 C 62.450 165.429, 66.316 171, 68.101 171 C 69.019 171, 70.507 172.125, 71.408 173.500 C 73.477 176.657, 75.386 176.634, 85.139 173.331 C 92.546 170.823, 93.087 170.442, 94.118 167.002 C 95.056 163.870, 94.907 162.738, 93.087 159.170 C 91.663 156.380, 90.299 155, 88.963 155 C 87.029 155, 87.043 155.151, 89.406 159.815 C 91.052 163.062, 91.551 165.098, 90.939 166.065 C 90.198 167.236, 90.028 167.171, 90.015 165.710 C 90.007 164.726, 89.100 162.156, 88 160 C 85.430 154.963, 85.451 154.820, 89.024 152.786 C 90.974 151.677, 92.251 149.995, 92.647 148.016 C 92.983 146.334, 93.650 144.716, 94.129 144.420 C 95.534 143.552, 95.117 148.252, 93.517 151.319 L 92.047 154.138 97.632 153.440 C 103.172 152.748, 103.211 152.761, 102.493 155.121 C 102.096 156.430, 100.809 158.574, 99.635 159.887 C 98.446 161.217, 97.964 162.442, 98.547 162.653 C 99.127 162.863, 99.406 164.650, 99.171 166.660 L 98.747 170.289 103.124 169.646 C 115.372 167.849, 118.139 167.261, 119.166 166.234 C 119.991 165.409, 121.126 165.757, 123.487 167.558 C 125.248 168.901, 127.996 169.998, 129.594 169.995 L 132.500 169.989 129.684 168.245 C 126.969 166.563, 122.191 158, 123.967 158 C 124.446 158, 125.814 159.581, 127.008 161.513 C 129.329 165.268, 131.758 167.003, 134.684 166.995 C 136.202 166.991, 136.070 166.621, 133.882 164.745 C 129.093 160.640, 125.140 153.694, 123.495 146.500 C 120.610 133.874, 120.074 132.560, 115.444 126.765 C 112.924 123.611, 107.198 118.099, 102.719 114.515 C 93.528 107.162, 90.172 106.378, 84 110.142 C 82.075 111.317, 78.040 113.124, 75.033 114.160 C 72.026 115.195, 68.426 117.099, 67.033 118.391 C 65.640 119.683, 62.739 121.007, 60.587 121.334 C 58.370 121.670, 54.946 123.316, 52.686 125.132 C 50.226 127.109, 46.444 128.858, 42.819 129.696 C 39.085 130.558, 34.558 132.685, 30.407 135.527 C 20.623 142.225, 13 141.461, 13 133.780 C 13 131.335, 14.130 129.657, 18.508 125.602 C 22.933 121.504, 24.015 119.885, 24.008 117.372 C 23.998 113.555, 22.705 112.393, 17.052 111.123 C 14.649 110.583, 11.432 109.217, 9.903 108.087 C 7.246 106.122, 7.099 106.113, 6.540 107.875 M 184.980 109.249 C 183.616 110.588, 179.125 114.184, 175 117.239 C 166.464 123.560, 160.921 129.106, 158.677 133.571 C 157.829 135.259, 156.170 140.434, 154.992 145.071 C 152.151 156.250, 149.787 161.394, 145.830 165.008 C 142.790 167.784, 142.715 168, 144.777 168 C 147.125 168, 149.765 165.815, 152.548 161.567 C 153.473 160.155, 154.613 159, 155.081 159 C 156.120 159, 152.421 165.649, 149.657 168.750 C 146.142 172.694, 152.032 170.998, 156.740 166.711 C 158.772 164.859, 159.142 164.814, 160.740 166.213 C 161.708 167.061, 164.750 168.016, 167.500 168.336 C 170.250 168.655, 173.738 169.213, 175.252 169.575 C 177.730 170.168, 178.065 169.924, 178.627 167.117 C 178.969 165.403, 179.644 164, 180.125 164 C 181.765 164, 181.004 161.845, 177.500 156.566 C 173.315 150.261, 173.108 149.153, 176.635 151.927 C 178.236 153.187, 180.740 154, 183.017 154 L 186.764 154 185.426 150.250 C 183.834 145.789, 183.594 140, 185 140 C 185.550 140, 186 141.380, 186 143.066 C 186 146.681, 187.324 149.513, 190.719 153.156 L 193.194 155.812 190.403 160.575 C 188.868 163.194, 187.426 164.779, 187.199 164.097 C 186.972 163.415, 187.667 161.877, 188.744 160.679 C 191.990 157.068, 192.309 156, 190.141 156 C 188.962 156, 187.296 157.404, 186.016 159.474 C 184.276 162.289, 183.998 163.804, 184.548 167.474 C 185.130 171.351, 185.561 172, 187.555 172 C 188.835 172, 190.142 172.420, 190.459 172.934 C 191.282 174.265, 201.960 177.229, 203.626 176.590 C 204.391 176.296, 205.536 174.919, 206.169 173.528 C 206.803 172.138, 207.908 171, 208.625 171 C 209.951 171, 212 168.005, 212 166.066 C 212 165.480, 210.537 164.996, 208.750 164.991 C 206.371 164.984, 204.830 165.776, 203 167.943 C 200.594 170.793, 200.378 170.852, 197.250 169.500 C 193.205 167.753, 193.180 166.767, 197.106 163.826 C 198.814 162.547, 201.473 160.259, 203.014 158.742 C 205.555 156.242, 205.765 156.185, 205.256 158.129 C 204.720 160.178, 204.912 160.238, 209.598 159.489 C 212.294 159.058, 217.425 158.621, 221 158.517 C 229.337 158.276, 230.627 157.639, 231.815 153.174 C 232.707 149.824, 232.802 149.746, 232.897 152.290 C 233.017 155.545, 236.124 162.028, 238.513 164.011 C 239.426 164.769, 242.047 165.695, 244.337 166.069 C 248.479 166.746, 248.482 166.750, 245 166.871 C 240.785 167.017, 235.387 163.943, 233.819 160.502 C 232.462 157.523, 231 157.229, 231 159.935 C 231 166.138, 236.957 171.518, 242.697 170.497 C 246.085 169.895, 252.144 171.915, 255.173 174.657 C 256.351 175.722, 257.789 176.019, 259.588 175.567 C 261.575 175.069, 262.744 175.421, 264.167 176.949 C 265.263 178.125, 267.341 179, 269.039 179 C 273.470 179, 272.853 175.990, 267.339 170.707 C 264.776 168.250, 262.188 164.724, 261.589 162.870 C 260.796 160.416, 259.821 159.406, 258 159.154 C 253.938 158.592, 253 157.297, 254.189 153.889 C 254.761 152.246, 254.965 149.573, 254.640 147.950 L 254.050 145 259.102 145 C 263.352 145, 264.618 144.536, 267.077 142.077 C 271.886 137.268, 270.781 130.359, 264.212 124.164 C 262.172 122.240, 260.952 120.515, 261.502 120.331 C 265.814 118.887, 269.510 116.104, 270.285 113.717 C 271.929 108.653, 270.844 107.990, 264.393 110.118 C 253.808 113.610, 252.201 117.861, 258.967 124.468 C 266.466 131.790, 267.496 137.906, 261.486 139.414 C 258.725 140.107, 254.748 138.502, 244.601 132.599 C 241.356 130.711, 237.081 128.869, 235.101 128.506 C 233.120 128.143, 229.475 126.585, 227 125.045 C 224.525 123.504, 221.226 121.946, 219.669 121.582 C 218.112 121.219, 215.187 119.861, 213.169 118.565 C 211.151 117.269, 207.700 115.641, 205.500 114.947 C 203.300 114.253, 199.886 112.389, 197.913 110.806 C 192.799 106.702, 188.144 106.141, 184.980 109.249 M 185.536 121.555 C 183.246 124.026, 181.364 127.835, 182.159 128.389 C 182.346 128.520, 184.209 126.726, 186.298 124.402 C 188.547 121.900, 189.671 119.914, 189.052 119.532 C 188.478 119.178, 186.896 120.088, 185.536 121.555 M 92.074 123.750 C 92.115 124.162, 92.982 126.300, 94 128.500 C 95.772 132.328, 95.855 132.379, 95.926 129.684 C 96.009 126.540, 94.440 123, 92.965 123 C 92.434 123, 92.033 123.338, 92.074 123.750 M 112.607 143.582 C 111.593 146.224, 111.908 146.837, 113.999 146.290 C 115.547 145.885, 116.320 146.527, 117.425 149.134 C 118.573 151.844, 118.981 152.164, 119.523 150.775 C 120.316 148.738, 116.480 142, 114.525 142 C 113.804 142, 112.941 142.712, 112.607 143.582 M 164.241 145.250 C 161.700 147.962, 159.610 153, 161.025 153 C 161.561 153, 162 152.335, 162 151.523 C 162 149.502, 166.344 146.811, 168.359 147.584 C 170.259 148.314, 170.413 147.641, 168.965 144.934 C 167.632 142.444, 166.819 142.498, 164.241 145.250 M 111.459 162.067 C 111.096 162.653, 111.050 163.384, 111.357 163.690 C 112.179 164.513, 115 163.229, 115 162.031 C 115 160.674, 112.303 160.701, 111.459 162.067 M 166 162.417 C 166 163.287, 166.713 164, 167.583 164 C 169.349 164, 169.042 161.847, 167.188 161.229 C 166.534 161.011, 166 161.546, 166 162.417 M 196.604 165.590 C 195.821 167.630, 196.467 168.627, 198.998 169.289 C 200.959 169.802, 203 167.649, 203 165.066 C 203 163.341, 197.287 163.809, 196.604 165.590 M 267.357 166.513 C 266.621 168.430, 268.704 171, 270.995 171 C 272.263 171, 272.920 172.101, 273.384 175 C 273.867 178.022, 274.483 179, 275.905 179 C 276.939 179, 278.059 178.288, 278.393 177.418 C 279.266 175.143, 279.140 173.795, 278.114 174.430 C 277.626 174.731, 276.993 174.083, 276.707 172.989 C 276.421 171.895, 275.470 171, 274.594 171 C 273.717 171, 273 170.395, 273 169.655 C 273 168.287, 269.921 165, 268.640 165 C 268.253 165, 267.676 165.681, 267.357 166.513 M 249.750 166.662 C 250.438 166.940, 251.563 166.940, 252.250 166.662 C 252.938 166.385, 252.375 166.158, 251 166.158 C 249.625 166.158, 249.063 166.385, 249.750 166.662 M 1 175 C 1 179.450, 3.323 180.657, 4.370 176.750 C 5.474 172.630, 5.086 171, 3 171 C 1.333 171, 1 171.667, 1 175" stroke="none" fill="#e41c4b" fill-rule="evenodd"/><path d="M 126.275 87.539 C 117.735 89.839, 108.976 94.857, 102.286 101.281 C 98.829 104.601, 96.026 107.808, 96.058 108.409 C 96.089 109.009, 99.071 111.750, 102.685 114.500 C 110.693 120.595, 119.730 131.207, 120.976 135.979 C 121.482 137.916, 122.616 142.650, 123.495 146.500 C 125.140 153.694, 129.093 160.640, 133.882 164.745 C 136.070 166.621, 136.202 166.991, 134.684 166.995 C 131.758 167.003, 129.329 165.268, 127.008 161.513 C 125.814 159.581, 124.446 158, 123.967 158 C 122.191 158, 126.969 166.563, 129.684 168.245 L 132.500 169.989 129.594 169.995 C 127.996 169.998, 125.248 168.901, 123.487 167.558 C 121.126 165.757, 119.991 165.409, 119.166 166.234 C 118.139 167.261, 115.372 167.849, 103.124 169.646 L 98.747 170.289 99.171 166.660 C 99.406 164.650, 99.127 162.863, 98.547 162.653 C 97.964 162.442, 98.446 161.217, 99.635 159.887 C 100.809 158.574, 102.096 156.430, 102.493 155.121 C 103.211 152.761, 103.172 152.748, 97.632 153.440 L 92.047 154.138 93.517 151.319 C 95.190 148.113, 95.511 143.566, 94 144.500 C 93.450 144.840, 93 146.012, 93 147.104 C 93 148.197, 91.875 150.216, 90.500 151.591 C 87.604 154.487, 87.451 155, 89.480 155 C 91.730 155, 95.241 162.624, 94.515 165.932 C 94.025 168.163, 94.688 169.691, 97.921 173.780 C 105.440 183.293, 116.214 189.880, 128.517 192.486 C 137.907 194.475, 143.224 194.372, 152.404 192.025 C 163.312 189.235, 170.799 184.905, 178.492 176.935 C 184.713 170.491, 185.067 169.876, 184.449 166.579 C 183.662 162.386, 186.739 156.563, 190.222 155.652 L 192.421 155.077 190.336 152.789 C 187.302 149.459, 186 146.540, 186 143.066 C 186 141.380, 185.550 140, 185 140 C 183.594 140, 183.834 145.789, 185.426 150.250 L 186.764 154 183.017 154 C 180.740 154, 178.236 153.187, 176.635 151.927 C 173.108 149.153, 173.315 150.261, 177.500 156.566 C 181.004 161.845, 181.765 164, 180.125 164 C 179.644 164, 178.969 165.403, 178.627 167.117 C 178.065 169.924, 177.730 170.168, 175.252 169.575 C 173.738 169.213, 170.250 168.655, 167.500 168.336 C 164.750 168.016, 161.708 167.061, 160.740 166.213 C 159.142 164.814, 158.772 164.859, 156.740 166.711 C 152.032 170.998, 146.142 172.694, 149.657 168.750 C 152.421 165.649, 156.120 159, 155.081 159 C 154.613 159, 153.473 160.155, 152.548 161.567 C 149.765 165.815, 147.125 168, 144.777 168 C 142.715 168, 142.790 167.784, 145.830 165.008 C 149.786 161.395, 152.151 156.250, 154.988 145.087 C 156.164 140.459, 157.961 135.059, 158.982 133.087 C 161.256 128.694, 168.270 121.930, 177.250 115.470 C 180.963 112.799, 184 109.973, 184 109.189 C 184 106.766, 171.796 95.674, 165.391 92.275 C 154.174 86.322, 138.043 84.369, 126.275 87.539 M 185.536 121.555 C 183.246 124.026, 181.364 127.835, 182.159 128.389 C 182.346 128.520, 184.209 126.726, 186.298 124.402 C 188.547 121.900, 189.671 119.914, 189.052 119.532 C 188.478 119.178, 186.896 120.088, 185.536 121.555 M 92.074 123.750 C 92.115 124.162, 92.982 126.300, 94 128.500 C 95.772 132.328, 95.855 132.379, 95.926 129.684 C 96.009 126.540, 94.440 123, 92.965 123 C 92.434 123, 92.033 123.338, 92.074 123.750 M 112.607 143.582 C 111.593 146.224, 111.908 146.837, 113.999 146.290 C 115.547 145.885, 116.320 146.527, 117.425 149.134 C 118.573 151.844, 118.981 152.164, 119.523 150.775 C 120.316 148.738, 116.480 142, 114.525 142 C 113.804 142, 112.941 142.712, 112.607 143.582 M 164.241 145.250 C 161.700 147.962, 159.610 153, 161.025 153 C 161.561 153, 162 152.335, 162 151.523 C 162 149.502, 166.344 146.811, 168.359 147.584 C 170.259 148.314, 170.413 147.641, 168.965 144.934 C 167.632 142.444, 166.819 142.498, 164.241 145.250 M 188.028 161.466 C 187.359 162.273, 186.983 163.449, 187.193 164.080 C 187.404 164.711, 188.111 164.051, 188.766 162.613 C 190.101 159.684, 189.842 159.281, 188.028 161.466 M 111.459 162.067 C 111.096 162.653, 111.050 163.384, 111.357 163.690 C 112.179 164.513, 115 163.229, 115 162.031 C 115 160.674, 112.303 160.701, 111.459 162.067 M 166 162.417 C 166 163.287, 166.713 164, 167.583 164 C 169.349 164, 169.042 161.847, 167.188 161.229 C 166.534 161.011, 166 161.546, 166 162.417" stroke="none" fill="#fbd204" fill-rule="evenodd"/></svg>