<svg width="278" height="279" viewBox="0 0 278 279" fill="none" xmlns="http://www.w3.org/2000/svg">
<g clip-path="url(#clip0_452_358)">
<mask id="mask0_452_358" style="mask-type:luminance" maskUnits="userSpaceOnUse" x="0" y="0" width="278" height="279">
<path d="M278 0H0V279H278V0Z" fill="white"/>
</mask>
<g mask="url(#mask0_452_358)">
<mask id="mask1_452_358" style="mask-type:luminance" maskUnits="userSpaceOnUse" x="0" y="0" width="278" height="279">
<path d="M278 0H0V279H278V0Z" fill="white"/>
</mask>
<g mask="url(#mask1_452_358)">
<path d="M275.541 139.5C275.541 166.603 267.533 193.097 252.529 215.632C237.526 238.167 216.201 255.731 191.251 266.103C166.301 276.474 138.847 279.188 112.36 273.9C85.8733 268.613 61.5437 255.561 42.448 236.397C23.3522 217.232 10.3479 192.815 5.07957 166.233C-0.188792 139.651 2.5154 112.098 12.8502 87.0585C23.185 62.0189 40.6862 40.6172 63.1407 25.56C85.5951 10.5027 111.994 2.46603 139 2.46631C156.931 2.46631 174.686 6.01079 191.253 12.8974C207.819 19.784 222.871 29.8778 235.55 42.6025C248.229 55.3273 258.287 70.4338 265.149 87.0594C272.011 103.685 275.542 121.504 275.542 139.5" fill="#231F20"/>
<path d="M139 279.001C106.932 278.982 75.8564 267.838 51.0376 247.458C26.2188 227.077 9.18288 198.713 2.81571 167.17C-3.55146 135.628 1.14164 102.846 16.1 74.3778C31.0583 45.9101 55.3622 23.5068 84.8944 10.9633C118.84 -3.31432 157.041 -3.50118 191.124 10.4437C225.206 24.3886 252.389 51.3273 266.712 85.3541C281.035 119.381 281.33 157.719 267.532 191.964C253.734 226.208 226.97 253.565 193.106 268.037C175.989 275.308 157.587 279.037 139 279.001ZM139 4.93413C112.481 4.93385 86.5565 12.8259 64.5061 27.6121C42.4558 42.3984 25.2696 63.4148 15.1208 88.0038C4.97201 112.593 2.31648 139.65 7.49003 165.753C12.6636 191.857 25.4338 215.835 44.1859 234.654C62.9379 253.474 86.8296 266.29 112.84 271.483C138.85 276.675 165.81 274.011 190.311 263.826C214.811 253.64 235.753 236.393 250.486 214.263C265.22 192.134 273.084 166.116 273.084 139.501C273.044 103.825 258.904 69.6204 233.767 44.3929C208.631 19.1654 174.549 4.97474 139 4.93413Z" fill="#00E701"/>
<path d="M88.5707 211.33C88.0641 211.303 87.557 211.376 87.0786 211.545C86.6001 211.715 86.1596 211.977 85.7824 212.318C85.4565 212.616 85.1969 212.98 85.0206 213.386C84.8443 213.791 84.7553 214.23 84.7594 214.672C84.7268 215.031 84.767 215.392 84.8774 215.734C84.9877 216.076 85.1661 216.392 85.4015 216.663C86.4893 217.455 87.6764 218.1 88.9322 218.58C90.4502 219.148 91.8068 220.08 92.8839 221.295C93.6719 222.534 94.0445 223.994 93.9473 225.461C94.0279 226.764 93.8196 228.068 93.3375 229.279C92.8553 230.491 92.1112 231.58 91.1589 232.468C89.0429 234.197 86.362 235.073 83.6376 234.928C82.3036 234.919 80.9735 234.783 79.665 234.522C78.5654 234.328 77.4801 234.059 76.4166 233.718L75.2935 233.275L76.215 229.288C78.5627 229.751 80.9444 230.02 83.336 230.091C84.6635 230.195 85.9899 229.879 87.1293 229.187C87.5595 228.807 87.8931 228.33 88.1022 227.794C88.3113 227.259 88.39 226.681 88.3317 226.109C88.3531 225.776 88.3013 225.443 88.18 225.133C88.0587 224.823 87.8708 224.544 87.6297 224.315C86.5619 223.561 85.4107 222.933 84.1992 222.444C82.7062 221.849 81.3732 220.91 80.3072 219.704C79.4659 218.493 79.0561 217.032 79.1438 215.558C79.1049 214.368 79.3092 213.181 79.744 212.073C80.1788 210.964 80.835 209.957 81.6722 209.112C82.5651 208.252 83.6233 207.584 84.7822 207.148C85.941 206.712 87.1762 206.518 88.4123 206.577C89.7647 206.584 91.1138 206.713 92.4433 206.962C93.5344 207.143 94.6133 207.392 95.6736 207.707L96.7968 208.109L95.7946 212.054C93.4076 211.625 90.991 211.383 88.5666 211.33" fill="white"/>
<path d="M92.6758 234.44L104.954 207.06H114.503L113.661 234.44H108.123L108.283 229.687H100.337L98.2122 234.44H92.6758ZM108.209 211.896L102.432 224.86H108.487L109.043 211.896H108.209Z" fill="white"/>
<path d="M122.238 225.14C122.011 226.043 121.889 226.97 121.875 227.901C121.841 228.235 121.9 228.572 122.045 228.874C122.19 229.176 122.416 229.432 122.698 229.613C123.608 230.004 124.599 230.169 125.586 230.094C126.153 230.137 126.722 230.06 127.257 229.87C127.792 229.68 128.282 229.38 128.696 228.989C129.564 227.869 130.13 226.544 130.34 225.14L134.51 207.065H140.048L135.878 225.14C135.424 227.967 134.098 230.58 132.087 232.612C130.135 234.226 127.653 235.052 125.126 234.929C119.295 234.929 116.379 232.861 116.379 228.726C116.391 227.223 116.566 225.726 116.9 224.262L120.873 207.068H126.411L122.238 225.14Z" fill="white"/>
<path d="M153.232 207.065C157.992 207.065 160.373 209.038 160.374 212.984C160.436 214.5 160.044 215.999 159.251 217.289C158.365 218.547 157.215 219.595 155.881 220.358C156.756 220.811 157.481 221.51 157.966 222.37C158.34 223.233 158.518 224.169 158.488 225.11C158.52 226.359 158.289 227.6 157.808 228.752C157.327 229.905 156.609 230.942 155.699 231.795C153.491 233.687 150.633 234.638 147.736 234.445H137.462L143.762 207.065H153.232ZM150.182 222.968H145.652L144.087 229.691H148.813C149.357 229.713 149.899 229.613 150.4 229.398C150.9 229.182 151.346 228.857 151.704 228.445C152.449 227.542 152.834 226.395 152.786 225.224C152.786 223.717 151.917 222.97 150.178 222.97M152.345 211.81H148.213L146.684 218.336H150.816C151.335 218.345 151.85 218.244 152.327 218.039C152.804 217.835 153.232 217.53 153.584 217.147C154.345 216.323 154.748 215.229 154.707 214.106C154.746 213.788 154.712 213.466 154.606 213.164C154.5 212.862 154.326 212.588 154.097 212.366C153.867 212.143 153.59 211.977 153.285 211.88C152.981 211.784 152.659 211.76 152.344 211.81" fill="white"/>
<path d="M159.259 234.44L165.514 207.06H181.523L180.4 211.892H169.976L168.493 218.334H176.758L175.635 223.167H167.409L165.931 229.613H176.404L175.319 234.445L159.259 234.44Z" fill="white"/>
<path d="M192.277 207.065C194.555 206.877 196.824 207.528 198.658 208.897C199.392 209.656 199.954 210.565 200.307 211.562C200.66 212.559 200.795 213.62 200.704 214.674C200.787 216.996 200.187 219.292 198.979 221.275C197.95 222.945 196.419 224.244 194.606 224.981L196.81 234.444H191.275L189.468 225.747H185.658L183.651 234.444H178.113L184.413 207.064L192.277 207.065ZM193.742 219.263C194.567 218.161 195.011 216.818 195.006 215.44C195.112 214.436 194.872 213.426 194.325 212.578C194.006 212.293 193.631 212.077 193.224 211.945C192.817 211.813 192.387 211.768 191.962 211.813H188.866L186.738 220.995H190.311C190.981 221.015 191.646 220.867 192.245 220.565C192.844 220.262 193.358 219.814 193.741 219.262" fill="white"/>
<path fill-rule="evenodd" clip-rule="evenodd" d="M77.4048 48.207H123.788V79.2402H139.249V63.7236H154.707V48.207H201.091V94.7568H185.63V110.273H170.169V125.79H185.63V141.309H201.091V187.858H154.707V172.338H139.247V156.822H123.786V187.855H77.4048V48.207Z" fill="#00E701"/>
</g>
</g>
</g>
<defs>
<clipPath id="clip0_452_358">
<rect width="278" height="279" fill="white"/>
</clipPath>
</defs>
</svg>
