<?xml version="1.0" encoding="utf-8"?>
<svg xmlns="http://www.w3.org/2000/svg" width="1000" height="600">
  <polyline points="412.771,371.49 414.846,370.575 416.91,369.66 418.979,368.734 421.092,367.788 423.163,366.848 425.185,365.931 427.257,364.989 429.32,364.052 431.422,363.092 433.5,362.148 435.567,361.211 437.588,360.281 439.699,359.332 441.804,358.365 443.814,357.453 445.866,356.524 448.029,355.537 450.087,354.603 452.129,353.671 454.168,352.732 456.191,351.806 458.222,350.854 460.28,349.888 462.416,348.866 464.443,347.89 466.493,346.895 468.539,345.891 470.608,344.874 472.653,343.857 474.694,342.847 476.695,341.852 478.634,340.886 480.749,339.83 482.77,338.819 484.803,337.803 486.825,336.799 488.845,335.799 490.865,334.801 492.924,333.786 494.95,332.787 497.0,331.772 499.085,330.735 501.13,329.718 503.158,328.706 505.255,327.667 507.337,326.638 509.312,325.663 511.326,324.663 513.398,323.623 515.472,322.566 517.484,321.514 519.444,320.434 521.441,319.24 523.332,317.971 525.169,316.553 526.954,314.928 528.558,313.171 529.948,311.287 531.037,309.431 531.901,307.582 532.57,305.763 533.068,303.985 533.444,302.059 533.646,300.057 533.663,297.874 533.458,295.568 533.025,293.223 532.39,290.919 531.604,288.746 530.678,286.658 529.617,284.633 528.463,282.691 527.271,280.805 526.048,278.918 524.811,277.015 523.54,275.102 522.287,273.236 521.015,271.338 519.756,269.44 518.49,267.541 517.248,265.642 516.028,263.749 514.797,261.84 513.559,259.887 512.371,258.005 511.172,256.104 509.926,254.164 508.675,252.243 507.411,250.401 506.031,248.537 504.566,246.727 503.04,245.033 501.394,243.39 499.696,241.872 497.895,240.443 496.061,239.151 494.222,237.991 492.417,236.979 490.599,236.069 488.662,235.204 486.729,234.445 484.761,233.792 482.653,233.188 480.511,232.68 478.285,232.252 476.0,231.935 473.743,231.747 471.379,231.654 469.098,231.677 466.959,231.722 464.653,231.782 462.367,231.815 460.131,231.796 457.809,231.73 455.574,231.582 453.416,231.358 451.2,231.033 449.077,230.626 446.926,230.11 444.803,229.497 442.752,228.791 440.704,227.974 438.735,227.085 436.77,226.088 434.883,225.025 433.058,223.862 431.25,222.623 429.603,221.354 427.946,219.976 426.344,218.489 424.809,216.952 423.335,215.334 421.95,213.693 420.621,211.954 419.327,210.117 418.155,208.31 417.025,206.364 415.971,204.361 415.021,202.331 414.163,200.279 413.401,198.196 412.721,196.016 412.107,193.812 411.585,191.541 411.146,189.285 410.8,186.997 410.523,184.72 410.321,182.471 410.141,180.237 410.003,177.934 409.859,175.693 409.747,173.509 409.591,171.219 409.434,168.991 409.258,166.755 409.059,164.546 408.796,162.336 408.546,160.118 408.227,157.903 407.882,155.718 407.513,153.487 407.13,151.322 406.666,149.087 406.221,146.887 405.732,144.742 405.182,142.614 404.639,140.373 404.011,138.171 403.398,135.977 402.749,133.799 402.079,131.628 401.351,129.441 400.64,127.287 399.89,125.153 399.123,123.049 398.31,120.928 397.484,118.684 396.627,116.574 395.804,114.495 394.946,112.434 394.052,110.392 393.152,108.253 392.226,106.2 391.297,104.066 390.359,102.014 389.418,99.967 388.46,97.889 387.527,95.902 386.553,93.768 385.544,91.633 384.654,89.708 383.657,87.596 382.649,85.439 381.756,83.469 380.772,81.439 379.804,79.343 378.821,77.225 377.873,75.212 376.901,73.149 375.924,71.055 374.963,68.985 373.973,66.899 373.001,64.81 372.022,62.739 371.041,60.651 370.053,58.575 369.049,56.471 368.044,54.415 367.012,52.389 365.905,50.373 364.685,48.402 363.34,46.531 361.754,44.708 359.969,43.094 357.989,41.773 355.91,40.819 353.828,40.242 351.791,40.0 349.856,40.058 348.037,40.36 346.421,40.85 344.96,41.493 343.592,42.297 342.248,43.309 340.888,44.607 339.575,46.208 338.384,48.103 337.364,50.261 336.578,52.485 335.989,54.755 335.579,57.004 335.311,59.3 335.165,61.657 335.116,63.952 335.157,66.169 335.268,68.45 335.439,70.766 335.645,73.013 335.862,75.23 336.089,77.488 336.327,79.743 336.547,81.953 336.754,84.254 336.952,86.507 337.102,88.681 337.252,90.986 337.362,93.206 337.465,95.512 337.567,97.776 337.629,99.966 337.699,102.217 337.754,104.545 337.812,106.837 337.846,109.091 337.885,111.364 337.932,113.679 337.951,115.968 337.982,118.134 338.017,120.343 338.058,122.685 338.084,124.942 338.103,127.242 338.138,129.508 338.166,131.759 338.209,134.079 338.237,136.348 338.251,138.59 338.313,140.891 338.344,143.148 338.367,145.371 338.411,147.676 338.433,149.946 338.471,152.204 338.503,154.498 338.512,156.718 338.555,159.0 338.551,161.336 338.594,163.568 338.616,165.771 338.653,168.077 338.675,170.366 338.696,172.579 338.692,174.902 338.758,177.208 338.75,179.481 338.78,181.743 338.826,184.038 338.822,186.266 338.858,188.499 338.857,190.781 338.891,193.016 338.904,195.252 338.901,197.554 338.956,199.892 338.949,202.132 338.97,204.463 339.005,206.786 339.059,208.951 339.029,211.254 339.078,213.576 339.123,215.878 339.105,218.078 339.156,220.355 339.163,222.681 339.201,224.965 339.201,227.199 339.222,229.447 339.246,231.71 339.288,233.951 339.299,236.304 339.317,238.582 339.345,240.845 339.377,243.079 339.39,245.34 339.391,247.597 339.449,249.815 339.466,252.136 339.466,254.416 339.512,256.715 339.526,259.027 339.546,261.291 339.566,263.521 339.602,265.782 339.631,268.034 339.614,270.384 339.661,272.666 339.708,274.868 339.686,277.121 339.724,279.393 339.761,281.749 339.762,284.024 339.768,286.25 339.816,288.519 339.812,290.753 339.872,292.995 339.854,295.328 339.869,297.635 339.913,299.838 339.942,302.098 339.963,304.442 339.991,306.815 339.984,309.082 340.021,311.293 340.058,313.504 340.083,315.78 340.117,318.041 340.133,320.341 340.153,322.592 340.198,324.846 340.218,327.22 340.223,329.403 340.276,331.647 340.294,333.956 340.362,336.275 340.362,338.566 340.423,340.768 340.42,343.013 340.499,345.301 340.519,347.657 340.515,349.922 340.556,352.168 340.573,354.417 340.558,356.655 340.609,359.016 340.689,361.272 340.696,363.473 340.692,365.717 340.722,368.036 340.656,370.228 340.83,372.523 340.738,374.83 340.771,377.154 340.711,379.415 340.77,381.674 340.782,383.946 340.744,386.23 340.758,388.481 340.743,390.765 340.756,393.004 340.796,395.231 340.678,397.55 340.651,399.899 340.745,402.185 340.648,404.439 340.62,406.799 340.622,409.044 340.651,411.345 340.573,413.637 340.569,415.899 340.505,418.199 340.556,420.521 340.498,422.81 340.467,425.077 340.446,427.392 340.453,429.72 340.456,432.002 340.521,434.286 340.694,436.588 341.054,438.879 341.727,441.184 342.897,443.328 344.23,444.848 345.402,445.676 346.614,446.171 348.244,446.443 350.303,446.282 352.456,445.648 354.534,444.792 356.657,443.941 358.839,443.276 361.051,442.944 362.946,442.924 364.421,443.098 366.037,443.464 368.041,444.235 370.069,445.442 371.868,446.937 373.435,448.616 374.843,450.41 376.165,452.261 377.42,454.155 378.65,456.041 379.844,457.952 381.014,459.834 382.233,461.768 383.449,463.695 384.688,465.544 385.927,467.317 387.264,469.107 388.629,470.909 390.049,472.648 391.441,474.355 392.958,476.077 394.426,477.722 395.944,479.361 397.492,480.96 399.06,482.498 400.686,484.114 402.354,485.625 404.03,487.138 405.731,488.581 407.432,490.0 409.154,491.376 410.932,492.761 412.775,494.107 414.635,495.434 416.473,496.694 418.335,497.92 420.215,499.13 422.149,500.334 424.072,501.483 426.021,502.593 427.96,503.669 429.989,504.751 432.002,505.778 434.009,506.805 436.003,507.758 438.112,508.743 440.236,509.739 442.233,510.621 444.303,511.534 446.431,512.435 448.517,513.318 450.577,514.157 452.689,514.981 454.774,515.784 456.911,516.574 459.031,517.412 461.23,518.203 463.39,518.993 465.527,519.799 467.608,520.555 469.713,521.269 471.832,522.051 474.051,522.834 476.22,523.592 478.341,524.332 480.522,525.091 482.651,525.816 484.748,526.548 486.901,527.324 489.06,528.028 491.264,528.778 493.382,529.523 495.457,530.244 497.676,531.006 499.805,531.711 501.971,532.442 504.111,533.095 506.257,533.863 508.471,534.541 510.655,535.246 512.772,535.947 514.929,536.63 517.102,537.271 519.265,537.95 521.456,538.669 523.645,539.295 525.854,539.983 528.019,540.61 530.179,541.249 532.329,541.87 534.478,542.461 536.656,543.107 538.874,543.708 541.082,544.323 543.288,544.856 545.417,545.482 547.609,546.069 549.898,546.626 552.053,547.161 554.233,547.724 556.364,548.229 558.643,548.811 560.874,549.32 563.035,549.832 565.277,550.334 567.487,550.875 569.709,551.377 571.944,551.823 574.175,552.325 576.382,552.787 578.658,553.269 580.853,553.677 583.087,554.147 585.316,554.521 587.595,554.952 589.884,555.358 592.132,555.701 594.371,556.068 596.636,556.414 598.881,556.701 601.099,557.043 603.313,557.254 605.582,557.519 607.887,557.806 610.152,558.03 612.434,558.271 614.677,558.497 616.851,558.727 619.126,558.956 621.425,559.188 623.767,559.412 626.046,559.58 628.287,559.783 630.566,559.905 632.917,559.993 635.197,560.0 637.507,559.912 639.871,559.711 642.163,559.396 644.47,558.947 646.683,558.356 648.762,557.625 650.716,556.763 652.536,555.771 654.192,554.691 655.762,553.492 657.191,552.197 658.551,550.773 659.769,549.287 660.891,547.677 661.915,545.922 662.798,544.089 663.536,542.2 664.137,540.167 664.567,538.075 664.817,535.966 664.884,533.85 664.769,531.711 664.467,529.574 663.987,527.496 663.324,525.435 662.49,523.436 661.498,521.519 660.315,519.631 659.006,517.867 657.566,516.214 656.03,514.694 654.346,513.264 652.537,511.954 650.635,510.778 648.694,509.764 646.682,508.888 644.581,508.145 642.342,507.525 640.085,507.07 637.782,506.758 635.498,506.586 633.145,506.547 630.819,506.633 628.531,506.829 626.266,507.133 623.991,507.545 621.753,508.033 619.569,508.581 617.35,509.16 615.151,509.781 612.954,510.416 610.826,511.066 608.637,511.756 606.448,512.474 604.288,513.174 602.11,513.883 599.998,514.582 597.826,515.29 595.614,516.022 593.444,516.733 591.338,517.411 589.167,518.112 587.012,518.791 584.82,519.453 582.625,520.092 580.38,520.694 578.226,521.257 576.042,521.796 573.834,522.294 571.587,522.769 569.406,523.177 567.134,523.553 564.878,523.857 562.748,524.093 560.601,524.272 558.314,524.394 556.065,524.443 553.788,524.441 551.387,524.343 549.105,524.18 546.849,523.942 544.516,523.612 542.332,523.23 540.09,522.752 537.88,522.209 535.684,521.582 533.568,520.901 531.44,520.123 529.303,519.258 527.184,518.298 525.07,517.259 523.02,516.139 521.057,514.971 519.177,513.754 517.518,512.589 515.934,511.393 514.229,510.003 512.557,508.541 510.975,507.057 509.357,505.431 507.786,503.75 506.212,501.962 504.757,500.203 503.325,498.398 501.942,496.543 500.603,494.641 499.378,492.781 498.179,490.812 497.071,488.799 496.076,486.697 495.257,484.496 494.683,482.169 494.442,479.76 494.542,477.724 494.804,476.273 495.198,474.962 495.879,473.39 496.942,471.587 498.438,469.747 500.168,468.179 502.026,466.898 504.025,465.805 506.072,464.88 508.168,464.034 510.28,463.164 512.355,462.205 514.303,461.115 516.118,459.863 517.771,458.468 519.228,456.97 520.478,455.409 521.604,453.7 522.581,451.908 523.407,450.017 524.091,447.946 524.56,445.696 524.754,443.32 524.66,440.942 524.317,438.605 523.79,436.406 523.113,434.251 522.331,432.143 521.406,430.046 520.289,428.006 518.935,426.04 517.368,424.223 515.695,422.663 514.119,421.453 512.559,420.443 510.872,419.504 509.003,418.632 506.939,417.869 504.729,417.286 502.422,416.922 500.05,416.791 497.669,416.892 495.386,417.203 493.073,417.717 490.86,418.369 488.708,419.123 486.525,419.975 484.41,420.876 482.295,421.862 480.252,422.894 478.279,423.954 476.361,425.059 474.395,426.253 472.443,427.48 470.514,428.756 468.589,430.062 466.73,431.348 464.902,432.609 463.01,433.936 461.12,435.254 459.216,436.562 457.383,437.806 455.482,439.065 453.498,440.321 451.593,441.465 449.655,442.548 447.554,443.657 445.444,444.679 443.315,445.616 441.143,446.476 439.071,447.186 436.875,447.828 434.582,448.374 432.237,448.812 430.085,449.111 427.85,449.315 425.557,449.416 423.415,449.402 421.288,449.272 419.245,449.042 417.314,448.726 415.503,448.348 413.565,447.866 411.522,447.267 409.389,446.531 407.239,445.666 405.051,444.664 403.021,443.606 400.989,442.407 399.014,441.112 397.165,439.789 395.464,438.476 393.662,436.971 391.977,435.464 390.252,433.852 388.675,432.364 387.025,430.798 385.366,429.233 383.703,427.689 382.051,426.15 380.371,424.568 378.665,422.972 376.99,421.33 375.323,419.592 373.792,417.825 372.301,415.888 371.016,413.959 369.808,411.756 368.877,409.567 368.24,407.475 367.825,405.092 367.725,402.761 367.909,400.798 368.306,399.015 368.851,397.34 369.568,395.678 370.614,393.823 372.054,391.845 373.606,390.136 375.401,388.509 377.064,387.228 379.117,385.874 381.091,384.714 383.083,383.641 385.175,382.598 387.177,381.683 389.386,380.803 391.576,380.045 393.662,379.355 395.839,378.617 398.0,377.853 400.054,377.055 402.309,376.094 404.344,375.195 406.4,374.287 408.508,373.357 409.536,372.903 412.771,371.49" fill="none" stroke="white" stroke-width="4"
            stroke-linejoin="round" stroke-linecap="round"/>
</svg>
