<?xml version="1.0" encoding="utf-8"?>
<svg xmlns="http://www.w3.org/2000/svg" width="1000" height="600">
  <polyline points="412.155,370.213 414.227,369.273 416.296,368.345 418.366,367.422 420.442,366.494 422.5,365.569 424.574,364.644 426.67,363.72 428.72,362.785 430.812,361.87 432.9,360.931 434.971,360.007 437.066,359.061 439.129,358.152 441.154,357.227 443.241,356.304 445.335,355.359 447.39,354.44 449.477,353.503 451.562,352.568 453.61,351.65 455.677,350.723 457.78,349.774 459.883,348.823 461.943,347.891 463.97,346.973 466.033,346.028 468.13,345.084 470.195,344.131 472.248,343.188 474.297,342.242 476.351,341.291 478.423,340.33 480.499,339.36 482.559,338.395 484.613,337.429 486.681,336.448 488.723,335.482 490.765,334.502 492.835,333.508 494.888,332.521 496.924,331.542 498.987,330.55 501.055,329.554 503.094,328.566 505.127,327.575 507.191,326.57 509.256,325.559 511.297,324.553 513.349,323.535 515.393,322.503 517.439,321.442 519.45,320.345 521.428,319.178 523.334,317.915 525.186,316.498 526.974,314.883 528.59,313.117 529.957,311.261 531.037,309.409 531.882,307.591 532.546,305.777 533.064,303.931 533.435,302.038 533.638,300.041 533.657,297.875 533.457,295.58 533.029,293.248 532.394,290.936 531.595,288.731 530.675,286.651 529.626,284.643 528.474,282.704 527.261,280.783 526.034,278.882 524.814,277.007 523.564,275.12 522.298,273.231 521.022,271.318 519.746,269.412 518.505,267.527 517.249,265.619 516.022,263.72 514.812,261.832 513.591,259.909 512.387,258.0 511.167,256.074 509.928,254.142 508.7,252.261 507.427,250.401 506.072,248.569 504.63,246.788 503.082,245.062 501.431,243.412 499.695,241.862 497.911,240.445 496.096,239.164 494.277,238.015 492.442,236.982 490.584,236.05 488.703,235.206 486.762,234.447 484.771,233.782 482.672,233.184 480.45,232.655 478.248,232.242 476.031,231.936 473.737,231.743 471.433,231.657 469.185,231.669 466.925,231.723 464.614,231.778 462.369,231.809 460.096,231.794 457.848,231.724 455.605,231.579 453.357,231.341 451.199,231.021 449.058,230.606 446.936,230.094 444.845,229.487 442.778,228.777 440.716,227.96 438.732,227.061 436.819,226.089 434.924,225.021 433.078,223.865 431.307,222.638 429.599,221.338 427.935,219.936 426.327,218.464 424.798,216.92 423.337,215.323 421.935,213.643 420.585,211.901 419.346,210.127 418.148,208.282 417.019,206.334 415.99,204.374 415.048,202.392 414.181,200.285 413.406,198.166 412.708,195.985 412.104,193.759 411.586,191.537 411.161,189.276 410.807,187.042 410.523,184.731 410.316,182.444 410.148,180.234 409.993,177.919 409.863,175.615 409.731,173.395 409.592,171.177 409.443,168.945 409.26,166.717 409.054,164.502 408.811,162.281 408.53,160.042 408.226,157.842 407.894,155.689 407.524,153.507 407.118,151.283 406.675,149.081 406.212,146.877 405.705,144.673 405.185,142.534 404.632,140.382 404.026,138.184 403.403,135.972 402.753,133.787 402.089,131.657 401.394,129.515 400.659,127.327 399.887,125.134 399.102,122.978 398.312,120.864 397.496,118.755 396.659,116.618 395.803,114.513 394.945,112.448 394.055,110.333 393.13,108.214 392.213,106.163 391.314,104.111 390.356,102.02 389.393,99.932 388.469,97.895 387.511,95.85 386.547,93.778 385.596,91.712 384.638,89.659 383.682,87.615 382.71,85.519 381.733,83.448 380.801,81.43 379.828,79.361 378.853,77.274 377.889,75.212 376.918,73.13 375.947,71.06 374.989,69.003 374.017,66.94 373.04,64.851 372.051,62.755 371.067,60.667 370.077,58.574 369.088,56.511 368.089,54.464 367.035,52.393 365.92,50.367 364.717,48.419 363.359,46.524 361.781,44.703 359.986,43.081 358.021,41.772 355.948,40.826 353.858,40.245 351.805,40.0 349.862,40.054 348.079,40.349 346.491,40.826 345.04,41.457 343.629,42.281 342.261,43.308 340.912,44.595 339.591,46.203 338.391,48.111 337.383,50.238 336.592,52.473 336.002,54.744 335.586,57.028 335.319,59.316 335.17,61.617 335.122,63.912 335.159,66.181 335.27,68.446 335.435,70.723 335.633,72.983 335.857,75.242 336.085,77.5 336.307,79.745 336.527,82.016 336.733,84.25 336.914,86.483 337.074,88.753 337.214,91.016 337.336,93.261 337.436,95.513 337.522,97.778 337.596,100.026 337.659,102.293 337.718,104.56 337.762,106.811 337.798,109.055 337.841,111.345 337.877,113.617 337.904,115.853 337.943,118.137 337.958,120.41 337.999,122.687 338.022,124.963 338.052,127.227 338.09,129.484 338.108,131.774 338.133,134.037 338.166,136.279 338.186,138.546 338.212,140.824 338.228,143.138 338.26,145.432 338.284,147.703 338.301,149.986 338.329,152.257 338.351,154.516 338.379,156.772 338.402,159.015 338.424,161.267 338.443,163.552 338.473,165.847 338.492,168.138 338.517,170.388 338.54,172.62 338.567,174.899 338.587,177.172 338.615,179.451 338.642,181.753 338.664,184.025 338.683,186.26 338.709,188.518 338.738,190.836 338.754,193.098 338.79,195.318 338.81,197.645 338.832,199.913 338.864,202.125 338.889,204.458 338.912,206.73 338.938,208.987 338.96,211.299 338.989,213.515 339.01,215.784 339.038,218.095 339.059,220.326 339.088,222.585 339.107,224.853 339.138,227.146 339.158,229.411 339.188,231.684 339.205,233.961 339.23,236.239 339.256,238.526 339.282,240.785 339.295,243.067 339.335,245.346 339.348,247.609 339.368,249.858 339.403,252.137 339.423,254.434 339.451,256.692 339.471,258.96 339.49,261.26 339.511,263.521 339.537,265.801 339.574,268.036 339.577,270.316 339.618,272.634 339.627,274.865 339.647,277.145 339.688,279.395 339.694,281.685 339.72,284.016 339.748,286.217 339.764,288.5 339.787,290.783 339.815,292.993 339.814,295.32 339.851,297.624 339.861,299.867 339.864,302.17 339.895,304.441 339.9,306.661 339.922,308.956 339.947,311.259 339.947,313.511 339.985,315.799 339.997,318.064 340.019,320.307 340.045,322.561 340.06,324.843 340.08,327.132 340.09,329.407 340.115,331.72 340.138,334.012 340.152,336.265 340.145,338.558 340.189,340.824 340.19,343.044 340.208,345.31 340.198,347.608 340.236,349.92 340.236,352.167 340.248,354.402 340.257,356.672 340.272,358.94 340.288,361.204 340.306,363.442 340.308,365.681 340.328,367.976 340.319,370.299 340.33,372.545 340.324,374.783 340.34,377.066 340.321,379.379 340.335,381.632 340.323,383.909 340.342,386.181 340.319,388.465 340.336,390.723 340.329,393.033 340.339,395.295 340.333,397.535 340.328,399.846 340.336,402.162 340.325,404.443 340.331,406.707 340.323,409.027 340.328,411.348 340.307,413.632 340.286,415.938 340.278,418.241 340.265,420.533 340.253,422.818 340.244,425.096 340.241,427.391 340.247,429.688 340.279,431.982 340.35,434.267 340.534,436.574 340.904,438.875 341.626,441.172 342.857,443.319 344.286,444.811 345.474,445.588 346.649,446.063 348.267,446.361 350.328,446.235 352.468,445.623 354.544,444.754 356.629,443.875 358.797,443.205 361.023,442.883 362.941,442.9 364.415,443.103 366.001,443.478 368.014,444.232 370.092,445.408 371.937,446.857 373.525,448.514 374.926,450.31 376.265,452.174 377.547,454.065 378.767,455.947 379.967,457.833 381.167,459.734 382.368,461.637 383.581,463.538 384.825,465.386 386.084,467.185 387.412,468.981 388.778,470.754 390.174,472.497 391.607,474.211 393.058,475.885 394.555,477.531 396.072,479.169 397.64,480.781 399.224,482.366 400.83,483.906 402.475,485.421 404.135,486.905 405.831,488.355 407.546,489.777 409.317,491.19 411.119,492.583 412.919,493.899 414.725,495.21 416.577,496.466 418.434,497.698 420.328,498.912 422.25,500.109 424.175,501.257 426.12,502.382 428.094,503.485 430.073,504.571 432.078,505.613 434.075,506.632 436.108,507.636 438.143,508.613 440.187,509.555 442.281,510.491 444.351,511.406 446.422,512.292 448.546,513.172 450.657,514.019 452.751,514.849 454.849,515.668 456.965,516.469 459.1,517.278 461.233,518.087 463.347,518.876 465.477,519.65 467.616,520.426 469.768,521.195 471.94,521.971 474.126,522.727 476.269,523.488 478.36,524.227 480.484,524.973 482.628,525.722 484.819,526.478 486.986,527.211 489.087,527.955 491.223,528.699 493.385,529.432 495.532,530.149 497.673,530.893 499.855,531.624 502.003,532.321 504.154,533.048 506.336,533.758 508.478,534.44 510.611,535.153 512.816,535.836 514.994,536.506 517.124,537.193 519.291,537.842 521.471,538.538 523.645,539.183 525.836,539.839 528.055,540.504 530.249,541.133 532.401,541.78 534.559,542.369 536.762,543.009 538.958,543.595 541.127,544.234 543.323,544.789 545.499,545.398 547.657,545.961 549.825,546.513 552.032,547.079 554.225,547.613 556.412,548.174 558.656,548.692 560.896,549.241 563.079,549.742 565.28,550.257 567.536,550.754 569.72,551.25 571.918,551.736 574.164,552.204 576.381,552.706 578.623,553.141 580.87,553.592 583.075,554.038 585.306,554.435 587.59,554.863 589.839,555.247 592.068,555.618 594.34,555.987 596.573,556.325 598.827,556.654 601.107,556.97 603.364,557.255 605.637,557.53 607.873,557.794 610.106,558.039 612.393,558.29 614.686,558.527 616.939,558.763 619.235,558.988 621.49,559.209 623.724,559.419 626.024,559.618 628.305,559.788 630.589,559.923 632.887,559.999 635.181,560.0 637.499,559.906 639.844,559.702 642.179,559.381 644.5,558.927 646.72,558.333 648.805,557.597 650.742,556.732 652.512,555.762 654.203,554.649 655.779,553.426 657.201,552.136 658.538,550.729 659.77,549.223 660.885,547.62 661.886,545.91 662.781,544.073 663.544,542.126 664.137,540.126 664.559,538.073 664.812,535.944 664.878,533.814 664.761,531.691 664.457,529.552 663.973,527.463 663.312,525.414 662.479,523.417 661.471,521.473 660.305,519.613 659.009,517.866 657.575,516.216 656.018,514.675 654.346,513.257 652.544,511.952 650.638,510.775 648.664,509.748 646.623,508.866 644.503,508.122 642.314,507.523 640.08,507.073 637.787,506.76 635.452,506.59 633.144,506.555 630.846,506.643 628.553,506.839 626.296,507.153 624.023,507.562 621.784,508.064 619.552,508.616 617.319,509.218 615.112,509.841 612.932,510.48 610.766,511.146 608.594,511.836 606.429,512.527 604.289,513.23 602.16,513.924 599.976,514.633 597.768,515.355 595.65,516.057 593.484,516.757 591.307,517.466 589.155,518.154 586.993,518.831 584.803,519.491 582.623,520.119 580.45,520.707 578.212,521.28 576.024,521.814 573.82,522.314 571.567,522.779 569.36,523.196 567.156,523.555 564.94,523.859 562.732,524.101 560.534,524.282 558.305,524.401 556.009,524.452 553.718,524.436 551.425,524.35 549.098,524.181 546.831,523.941 544.572,523.621 542.32,523.229 540.092,522.759 537.879,522.21 535.706,521.591 533.523,520.884 531.375,520.099 529.257,519.235 527.129,518.276 525.043,517.241 523.02,516.136 521.061,514.971 519.225,513.784 517.469,512.551 515.818,511.303 514.224,510.006 512.599,508.587 510.977,507.072 509.339,505.428 507.719,503.693 506.194,501.96 504.729,500.195 503.284,498.36 501.9,496.503 500.601,494.653 499.36,492.757 498.158,490.772 497.055,488.751 496.078,486.676 495.26,484.475 494.685,482.157 494.448,479.737 494.554,477.681 494.816,476.238 495.211,474.934 495.888,473.371 496.963,471.552 498.444,469.731 500.183,468.154 502.058,466.862 504.041,465.785 506.117,464.857 508.239,464.012 510.359,463.135 512.406,462.174 514.347,461.074 516.169,459.809 517.809,458.42 519.243,456.942 520.499,455.373 521.615,453.686 522.596,451.892 523.431,449.988 524.119,447.901 524.589,445.629 524.776,443.263 524.675,440.912 524.33,438.604 523.793,436.387 523.112,434.221 522.315,432.068 521.388,429.975 520.269,427.944 518.924,426.0 517.343,424.176 515.688,422.637 514.134,421.446 512.574,420.437 510.864,419.486 508.962,418.599 506.89,417.835 504.665,417.252 502.345,416.893 500.013,416.769 497.664,416.875 495.326,417.196 493.044,417.705 490.812,418.359 488.638,419.11 486.488,419.944 484.343,420.861 482.257,421.83 480.216,422.855 478.191,423.945 476.218,425.073 474.263,426.248 472.328,427.469 470.453,428.692 468.571,429.967 466.626,431.32 464.745,432.631 462.941,433.9 461.04,435.225 459.109,436.563 457.222,437.847 455.337,439.094 453.426,440.31 451.472,441.483 449.469,442.609 447.429,443.679 445.395,444.663 443.309,445.583 441.204,446.413 439.028,447.162 436.81,447.809 434.535,448.35 432.29,448.771 430.034,449.081 427.776,449.287 425.573,449.381 423.434,449.368 421.294,449.239 419.185,448.997 417.283,448.682 415.471,448.299 413.519,447.81 411.455,447.193 409.333,446.452 407.2,445.589 405.038,444.591 402.945,443.499 400.96,442.317 399.041,441.052 397.168,439.702 395.379,438.312 393.64,436.846 391.93,435.328 390.269,433.78 388.65,432.242 387.004,430.663 385.316,429.083 383.651,427.525 381.977,425.969 380.3,424.411 378.613,422.832 376.956,421.221 375.309,419.512 373.747,417.718 372.283,415.818 370.959,413.823 369.813,411.723 368.898,409.57 368.217,407.3 367.828,405.02 367.735,402.769 367.933,400.7 368.334,398.938 368.871,397.303 369.612,395.604 370.673,393.732 372.12,391.746 373.756,389.967 375.478,388.42 377.312,387.021 379.199,385.775 381.192,384.584 383.186,383.506 385.066,382.593 387.309,381.586 389.3,380.685 391.352,379.778 393.457,378.853 395.467,377.97 397.517,377.067 399.605,376.137 401.737,375.179 403.915,374.198 405.975,373.272 407.91,372.401 409.051,371.887 412.155,370.213" fill="none" stroke="white" stroke-width="4"
            stroke-linejoin="round" stroke-linecap="round"/>
</svg>
