<?xml version="1.0" encoding="utf-8"?>
<svg xmlns="http://www.w3.org/2000/svg" width="1000" height="600">
  <polyline points="611.749,157.019 612.364,159.148 612.977,161.284 613.604,163.422 614.217,165.556 614.847,167.69 615.47,169.817 616.085,171.954 616.71,174.108 617.329,176.255 617.952,178.39 618.561,180.518 619.186,182.648 619.803,184.816 620.425,186.99 621.056,189.15 621.663,191.274 622.283,193.399 622.918,195.572 623.544,197.691 624.137,199.752 624.764,201.898 625.404,204.104 626.04,206.253 626.676,208.387 627.294,210.534 627.938,212.608 628.538,214.735 629.189,216.899 629.831,219.07 630.477,221.242 631.123,223.336 631.732,225.429 632.37,227.564 633.015,229.736 633.672,231.878 634.306,234.003 634.94,236.153 635.586,238.274 636.247,240.422 636.893,242.526 637.506,244.628 638.177,246.831 638.849,248.993 639.474,251.059 640.105,253.182 640.793,255.361 641.451,257.48 642.063,259.542 642.733,261.699 643.414,263.87 644.05,265.983 644.696,268.096 645.37,270.258 646.034,272.389 646.658,274.476 647.331,276.623 648.0,278.765 648.639,280.891 649.306,283.047 649.983,285.212 650.621,287.301 651.267,289.406 651.938,291.577 652.602,293.743 653.264,295.892 653.899,297.964 654.56,300.093 655.223,302.278 655.882,304.427 656.537,306.578 657.182,308.717 657.82,310.855 658.462,313.012 659.087,315.165 659.685,317.305 660.263,319.47 660.78,321.667 661.208,323.876 661.51,326.123 661.667,328.399 661.639,330.718 661.388,333.107 660.945,335.3 660.408,337.079 659.853,338.51 659.229,339.849 658.404,341.36 657.254,343.156 655.839,345.074 654.288,346.864 652.651,348.489 650.979,349.941 649.256,351.288 647.492,352.564 645.736,353.78 643.947,355.004 642.144,356.232 640.339,357.47 638.528,358.705 636.688,359.965 634.822,361.25 633.001,362.503 631.183,363.77 629.375,365.035 627.536,366.315 625.722,367.58 623.927,368.857 622.067,370.143 620.253,371.435 618.45,372.693 616.643,373.963 614.777,375.26 612.936,376.546 611.141,377.805 609.339,379.056 607.501,380.324 605.639,381.619 603.799,382.881 602.019,384.147 600.178,385.393 598.312,386.681 596.482,387.936 594.667,389.199 592.821,390.453 590.993,391.704 589.157,392.955 587.298,394.217 585.454,395.456 583.594,396.725 581.727,397.951 579.911,399.173 578.031,400.415 576.171,401.637 574.315,402.851 572.434,404.091 570.568,405.285 568.716,406.469 566.834,407.667 564.943,408.876 563.038,410.056 561.135,411.227 559.277,412.384 557.404,413.536 555.505,414.686 553.616,415.815 551.727,416.958 549.807,418.097 547.871,419.249 545.918,420.387 543.982,421.515 542.072,422.616 540.153,423.712 538.237,424.798 536.338,425.865 534.404,426.95 532.433,428.039 530.464,429.115 528.51,430.169 526.564,431.217 524.581,432.275 522.616,433.318 520.691,434.343 518.708,435.375 516.704,436.41 514.757,437.398 512.83,438.403 510.82,439.433 508.799,440.452 506.806,441.465 504.816,442.463 502.863,443.434 500.89,444.454 498.859,445.478 496.869,446.481 494.899,447.468 492.94,448.479 490.924,449.503 488.92,450.498 486.977,451.493 484.992,452.531 482.978,453.563 480.986,454.578 479.062,455.572 477.075,456.614 475.029,457.692 473.074,458.69 471.157,459.705 469.133,460.808 467.199,461.853 465.335,462.869 463.315,464.006 461.369,465.104 459.487,466.177 457.501,467.347 455.592,468.469 453.77,469.571 451.828,470.769 449.968,471.939 448.11,473.129 446.247,474.306 444.429,475.51 442.547,476.765 440.778,477.979 438.935,479.262 437.115,480.55 435.364,481.821 433.543,483.2 431.808,484.476 430.089,485.848 428.318,487.192 426.632,488.557 424.867,490.0 423.213,491.394 421.547,492.776 419.89,494.25 418.226,495.691 416.595,497.204 414.981,498.652 413.374,500.195 411.763,501.68 410.228,503.22 408.603,504.744 407.035,506.347 405.502,507.913 403.955,509.442 402.462,511.072 400.891,512.633 399.411,514.29 397.837,515.845 396.354,517.454 394.834,519.077 393.273,520.691 391.762,522.341 390.204,524.022 388.686,525.634 387.155,527.227 385.643,528.875 384.146,530.515 382.592,532.15 381.13,533.809 379.61,535.436 378.031,537.032 376.496,538.684 374.931,540.315 373.435,541.975 371.889,543.603 370.326,545.245 368.829,546.884 367.31,548.489 365.777,550.102 364.231,551.733 362.649,553.347 361.08,554.927 359.429,556.441 357.663,557.827 355.649,559.005 353.434,559.793 351.322,560.0 349.736,559.802 348.58,559.423 347.403,558.809 346.044,557.772 344.596,556.167 343.296,554.163 342.33,552.074 341.589,549.939 341.001,547.769 340.535,545.598 340.152,543.388 339.844,541.171 339.578,538.975 339.345,536.742 339.138,534.513 338.959,532.287 338.797,530.034 338.666,527.835 338.556,525.634 338.468,523.394 338.398,521.146 338.372,518.923 338.333,516.698 338.34,514.443 338.351,512.198 338.388,509.968 338.454,507.741 338.525,505.519 338.624,503.287 338.718,501.069 338.827,498.853 338.967,496.607 339.08,494.382 339.222,492.181 339.364,489.966 339.522,487.736 339.683,485.502 339.851,483.28 340.031,481.099 340.211,478.882 340.414,476.683 340.622,474.478 340.851,472.243 341.06,470.1 341.302,467.931 341.542,465.675 341.801,463.48 342.061,461.27 342.326,459.08 342.601,456.908 342.886,454.704 343.17,452.48 343.47,450.261 343.781,448.07 344.072,445.901 344.386,443.722 344.721,441.501 345.011,439.293 345.35,437.126 345.662,434.901 345.998,432.673 346.311,430.468 346.615,428.307 346.903,426.147 347.246,423.918 347.563,421.689 347.875,419.492 348.187,417.272 348.51,415.073 348.818,412.893 349.131,410.704 349.454,408.479 349.76,406.259 350.074,404.046 350.391,401.826 350.708,399.616 351.024,397.411 351.325,395.244 351.648,393.056 351.967,390.847 352.283,388.68 352.594,386.466 352.918,384.222 353.243,381.989 353.546,379.759 353.876,377.544 354.191,375.353 354.507,373.186 354.821,370.964 355.14,368.738 355.445,366.539 355.753,364.364 356.068,362.171 356.381,359.906 356.665,357.709 356.971,355.55 357.273,353.334 357.567,351.079 357.837,348.844 358.125,346.731 358.384,344.536 358.631,342.285 358.887,340.104 359.144,337.9 359.346,335.665 359.569,333.465 359.757,331.279 359.92,329.045 360.086,326.813 360.228,324.595 360.344,322.364 360.461,320.171 360.567,317.951 360.655,315.715 360.724,313.504 360.788,311.295 360.849,309.071 360.901,306.835 360.932,304.584 360.984,302.389 361.012,300.206 361.042,297.935 361.068,295.689 361.095,293.508 361.107,291.274 361.127,289.009 361.15,286.756 361.169,284.515 361.185,282.301 361.197,280.066 361.215,277.8 361.224,275.549 361.244,273.284 361.259,271.048 361.275,268.819 361.297,266.594 361.321,264.342 361.346,262.088 361.376,259.869 361.415,257.594 361.475,255.34 361.557,253.124 361.692,250.883 361.917,248.636 362.275,246.399 362.809,244.139 363.542,241.898 364.461,239.788 365.537,237.9 366.745,236.247 368.089,234.798 369.526,233.578 371.033,232.564 372.676,231.7 374.429,231.017 376.241,230.55 378.205,230.281 380.359,230.232 382.62,230.42 384.902,230.848 387.121,231.492 389.26,232.331 391.303,233.322 393.264,234.431 395.193,235.656 397.029,236.949 398.803,238.325 400.548,239.779 402.253,241.304 403.921,242.911 405.52,244.557 407.051,246.261 408.532,248.004 409.922,249.76 411.263,251.568 412.555,253.434 413.788,255.335 414.962,257.288 416.059,259.273 417.084,261.286 418.064,263.302 418.974,265.362 419.848,267.437 420.651,269.511 421.389,271.609 422.082,273.72 422.721,275.858 423.323,278.003 423.871,280.147 424.37,282.272 424.794,284.408 425.205,286.576 425.559,288.746 425.891,290.885 426.164,293.033 426.399,295.229 426.588,297.413 426.71,299.59 426.8,301.762 426.84,303.926 426.835,306.108 426.786,308.312 426.688,310.476 426.563,312.673 426.39,314.867 426.185,317.053 425.946,319.234 425.66,321.461 425.368,323.657 425.027,325.817 424.684,328.009 424.32,330.23 423.94,332.465 423.565,334.649 423.181,336.819 422.784,339.046 422.394,341.24 422.019,343.378 421.631,345.605 421.246,347.844 420.889,350.014 420.54,352.176 420.193,354.372 419.86,356.602 419.527,358.844 419.21,361.062 418.911,363.227 418.629,365.444 418.377,367.692 418.18,369.939 418.043,372.189 417.985,374.445 418.009,376.727 418.125,379.065 418.342,381.374 418.657,383.623 419.065,385.82 419.577,387.97 420.197,390.026 420.93,392.052 421.789,394.08 422.76,396.04 423.812,397.882 424.943,399.618 426.184,401.309 427.54,402.947 428.987,404.484 430.521,405.939 432.122,407.298 433.758,408.542 435.483,409.701 437.324,410.763 439.221,411.712 441.159,412.554 443.119,413.253 445.119,413.829 447.171,414.311 449.255,414.671 451.372,414.898 453.49,415.017 455.577,415.035 457.732,414.93 459.945,414.701 462.163,414.368 464.383,413.929 466.555,413.388 468.699,412.758 470.856,412.012 472.979,411.192 475.047,410.303 477.085,409.324 479.041,408.314 480.977,407.249 482.92,406.127 484.826,404.982 486.727,403.83 488.625,402.677 490.517,401.523 492.408,400.369 494.274,399.224 496.155,398.089 498.079,396.937 500.018,395.789 501.91,394.664 503.823,393.537 505.745,392.406 507.622,391.28 509.544,390.127 511.449,388.952 513.301,387.745 515.174,386.446 517.01,385.067 518.805,383.583 520.503,382.032 522.127,380.39 523.627,378.709 525.017,376.985 526.32,375.175 527.499,373.301 528.56,371.369 529.483,369.409 530.29,367.437 530.981,365.446 531.549,363.416 532.01,361.338 532.346,359.274 532.566,357.188 532.682,355.098 532.699,353.088 532.601,351.004 532.378,348.873 532.046,346.81 531.596,344.78 531.038,342.753 530.376,340.743 529.582,338.719 528.687,336.738 527.696,334.823 526.577,332.887 525.35,331.005 524.004,329.155 522.57,327.358 521.034,325.609 519.436,323.948 517.83,322.415 516.204,320.98 514.566,319.596 512.93,318.216 511.322,316.827 509.713,315.374 508.147,313.885 506.625,312.364 505.156,310.821 503.74,309.221 502.335,307.542 501.01,305.895 499.714,304.183 498.416,302.393 497.227,300.609 496.057,298.801 494.937,296.935 493.863,295.057 492.817,293.116 491.85,291.151 490.898,289.202 490.039,287.2 489.177,285.171 488.397,283.137 487.649,281.062 486.946,278.949 486.289,276.847 485.686,274.72 485.112,272.57 484.592,270.4 484.11,268.216 483.662,265.953 483.256,263.721 482.912,261.563 482.592,259.367 482.309,257.106 482.051,254.851 481.822,252.668 481.654,250.5 481.484,248.292 481.33,246.036 481.229,243.782 481.131,241.545 481.051,239.301 480.965,237.063 480.9,234.831 480.858,232.617 480.809,230.428 480.767,228.202 480.721,225.97 480.667,223.747 480.631,221.491 480.578,219.244 480.531,217.036 480.475,214.824 480.412,212.606 480.346,210.385 480.282,208.159 480.209,205.929 480.131,203.71 480.047,201.501 479.962,199.273 479.878,197.058 479.798,194.835 479.708,192.581 479.615,190.32 479.526,188.087 479.431,185.865 479.316,183.656 479.22,181.475 479.127,179.256 479.025,177.003 478.922,174.763 478.81,172.549 478.71,170.335 478.599,168.147 478.487,165.922 478.377,163.65 478.25,161.404 478.133,159.157 478.011,156.949 477.894,154.743 477.768,152.518 477.651,150.3 477.526,148.084 477.392,145.854 477.265,143.626 477.139,141.344 477.011,139.114 476.885,136.976 476.753,134.742 476.636,132.464 476.504,130.191 476.374,128.025 476.256,125.847 476.126,123.566 476.003,121.356 475.881,119.142 475.756,116.871 475.634,114.655 475.516,112.436 475.4,110.23 475.297,108.01 475.199,105.729 475.122,103.501 475.071,101.288 475.069,99.033 475.124,96.74 475.252,94.497 475.471,92.255 475.772,90.012 476.177,87.72 476.673,85.466 477.271,83.267 477.956,81.162 478.698,79.191 479.542,77.215 480.487,75.275 481.484,73.454 482.557,71.689 483.718,69.956 484.93,68.3 486.233,66.684 487.619,65.104 489.071,63.603 490.65,62.104 492.309,60.652 494.074,59.251 495.896,57.93 497.792,56.673 499.773,55.469 501.778,54.37 503.821,53.364 505.856,52.468 507.925,51.666 510.089,50.915 512.201,50.227 514.273,49.601 516.407,48.976 518.546,48.314 520.632,47.663 522.757,46.993 524.943,46.304 527.049,45.628 529.13,44.957 531.27,44.262 533.405,43.579 535.581,42.888 537.71,42.238 539.847,41.622 542.021,41.072 544.215,40.612 546.451,40.266 548.723,40.052 551.087,40.0 553.405,40.122 555.612,40.396 557.623,40.775 559.388,41.23 560.978,41.757 562.639,42.41 564.433,43.249 566.344,44.277 568.336,45.505 570.229,46.845 571.999,48.284 573.666,49.829 575.239,51.486 576.729,53.247 578.09,55.045 579.391,56.932 580.604,58.84 581.762,60.822 582.839,62.809 583.853,64.793 584.847,66.865 585.774,68.931 586.661,71.032 587.513,73.16 588.309,75.244 589.059,77.371 589.807,79.52 590.47,81.717 591.127,83.869 591.729,85.955 592.348,88.109 592.941,90.218 593.608,92.495 594.205,94.693 594.81,96.788 595.347,98.912 595.964,101.103 596.589,103.248 597.026,105.342 597.629,107.61 598.241,109.75 598.791,111.848 599.443,113.996 600.009,116.204 600.645,118.306 601.232,120.435 601.801,122.58 602.338,124.568 602.924,126.818 603.504,129.047 604.131,131.173 604.7,133.18 605.344,135.446 605.991,137.723 606.442,139.576 606.981,142.003 607.631,144.283 608.211,146.317 608.794,148.357 609.38,150.404 609.968,152.457 610.337,153.743 611.749,157.019" fill="none" stroke="white" stroke-width="4"
            stroke-linejoin="round" stroke-linecap="round"/>
  <line x1="592.535" y1="162.569" x2="630.963" y2="151.469" stroke="red" stroke-width="3" stroke-linecap="round"/>
</svg>
