<?xml version="1.0" encoding="utf-8"?>
<svg xmlns="http://www.w3.org/2000/svg" width="1000" height="600">
  <polyline points="611.623,155.947 610.97,153.834 610.348,151.721 609.682,149.589 609.083,147.417 608.476,145.36 607.813,143.248 607.174,141.037 606.572,138.995 605.899,136.825 605.209,134.617 604.664,132.493 603.994,130.411 603.337,128.268 602.748,126.127 602.093,124.054 601.481,121.841 600.791,119.674 600.208,117.56 599.492,115.39 598.883,113.293 598.353,111.022 597.603,108.997 596.981,106.831 596.381,104.641 595.802,102.537 595.071,100.436 594.533,98.237 593.931,96.119 593.282,93.904 592.558,91.877 591.954,89.701 591.304,87.52 590.606,85.442 589.948,83.252 589.259,81.149 588.43,79.051 587.714,76.978 586.979,74.837 586.16,72.747 585.329,70.569 584.441,68.382 583.641,66.339 582.677,64.289 581.734,62.194 580.722,60.188 579.666,58.175 578.485,56.194 577.188,54.236 575.888,52.396 574.46,50.629 572.937,48.962 571.28,47.357 569.49,45.87 567.588,44.539 565.66,43.388 563.858,42.492 562.122,41.792 560.395,41.24 558.614,40.765 556.661,40.398 554.488,40.123 552.178,40.0 549.906,40.037 547.648,40.225 545.396,40.551 543.241,40.992 541.083,41.526 538.876,42.151 536.774,42.786 534.717,43.452 532.57,44.169 530.477,44.88 528.425,45.572 526.325,46.271 524.129,46.975 522.006,47.659 519.902,48.324 517.792,48.991 515.644,49.69 513.605,50.347 511.51,51.057 509.355,51.801 507.277,52.571 505.241,53.389 503.23,54.28 501.154,55.288 499.131,56.379 497.207,57.527 495.319,58.766 493.517,60.071 491.76,61.481 490.153,62.911 488.659,64.376 487.239,65.897 485.886,67.497 484.616,69.147 483.385,70.889 482.332,72.535 481.284,74.325 480.275,76.277 479.371,78.246 478.58,80.204 477.849,82.23 477.207,84.365 476.642,86.527 476.187,88.769 475.787,91.147 475.505,93.477 475.347,95.583 475.264,97.744 475.274,100.03 475.354,102.233 475.448,104.492 475.575,106.744 475.71,108.967 475.818,111.176 475.925,113.352 476.071,115.526 476.179,117.82 476.327,120.115 476.46,122.348 476.584,124.534 476.734,126.778 476.834,128.988 476.978,131.235 477.113,133.423 477.229,135.683 477.387,137.912 477.511,140.12 477.607,142.354 477.751,144.587 477.875,146.791 477.961,148.922 478.104,151.213 478.21,153.516 478.293,155.672 478.387,157.921 478.511,160.133 478.606,162.402 478.685,164.621 478.801,166.808 478.884,169.05 478.993,171.326 479.064,173.464 479.171,175.605 479.265,177.861 479.348,180.12 479.449,182.299 479.531,184.572 479.616,186.831 479.693,189.06 479.776,191.296 479.86,193.44 479.939,195.735 480.013,198.054 480.1,200.3 480.154,202.385 480.226,204.615 480.286,206.836 480.365,209.032 480.417,211.229 480.489,213.541 480.572,215.853 480.626,218.047 480.686,220.256 480.764,222.466 480.797,224.617 480.88,226.886 480.966,229.228 481.027,231.352 481.103,233.563 481.191,235.834 481.268,238.006 481.351,240.294 481.453,242.516 481.55,244.697 481.646,246.905 481.787,249.196 481.894,251.388 482.046,253.611 482.229,255.906 482.42,258.112 482.658,260.328 482.922,262.554 483.22,264.721 483.598,267.058 483.996,269.213 484.464,271.484 484.967,273.682 485.513,275.774 486.112,277.899 486.792,280.057 487.522,282.191 488.294,284.262 489.123,286.323 490.024,288.391 490.942,290.349 491.915,292.304 492.968,294.296 494.035,296.17 495.148,298.029 496.301,299.848 497.564,301.696 498.86,303.506 500.115,305.161 501.478,306.875 502.981,308.683 504.319,310.193 505.733,311.743 507.309,313.375 508.829,314.882 510.341,316.332 511.912,317.789 513.563,319.308 515.201,320.809 516.853,322.342 518.484,323.905 520.11,325.516 521.68,327.156 523.216,328.878 524.677,330.659 525.981,332.417 527.154,334.183 528.256,336.045 529.269,337.987 530.18,340.01 530.947,342.042 531.545,343.946 532.06,345.957 532.463,348.016 532.742,350.097 532.906,352.219 532.949,354.285 532.885,356.3 532.72,358.334 532.423,360.435 532.002,362.482 531.442,364.553 530.759,366.597 529.98,368.514 529.075,370.46 528.049,372.39 526.906,374.264 525.66,376.067 524.307,377.821 522.85,379.517 521.323,381.149 519.697,382.706 517.998,384.192 516.182,385.64 514.374,386.963 512.52,388.241 510.666,389.436 508.77,390.572 506.831,391.697 504.906,392.813 502.999,393.915 501.098,395.033 499.16,396.166 497.22,397.31 495.327,398.428 493.395,399.588 491.44,400.746 489.61,401.852 487.786,402.941 485.826,404.107 483.788,405.317 481.982,406.367 480.013,407.486 478.066,408.552 476.137,409.57 474.063,410.572 472.0,411.496 469.859,412.357 467.761,413.111 465.607,413.77 463.394,414.325 461.21,414.755 459.017,415.061 456.809,415.242 454.652,415.283 452.527,415.191 450.362,414.984 448.206,414.644 446.135,414.179 444.133,413.62 442.183,412.962 440.279,412.183 438.386,411.277 436.508,410.252 434.7,409.118 433.025,407.905 431.427,406.613 429.863,405.207 428.375,403.691 426.977,402.084 425.7,400.4 424.542,398.679 423.479,396.883 422.484,394.948 421.602,392.943 420.851,390.949 420.226,388.969 419.693,386.85 419.276,384.641 418.967,382.412 418.746,380.198 418.606,377.922 418.554,375.577 418.562,373.347 418.636,371.147 418.778,368.967 418.949,366.706 419.208,364.467 419.494,362.242 419.789,360.035 420.116,357.879 420.475,355.714 420.868,353.55 421.265,351.363 421.703,349.123 422.154,346.958 422.641,344.752 423.129,342.542 423.648,340.358 424.143,338.216 424.645,336.028 425.135,333.836 425.637,331.612 426.082,329.46 426.53,327.239 426.897,325.08 427.281,322.833 427.594,320.672 427.831,318.49 428.113,316.272 428.256,314.033 428.389,311.857 428.474,309.651 428.506,307.34 428.52,305.147 428.432,302.909 428.315,300.764 428.158,298.565 427.919,296.293 427.624,294.18 427.315,292.047 426.906,289.778 426.44,287.602 425.958,285.521 425.369,283.347 424.781,281.275 424.119,279.202 423.386,277.057 422.589,274.933 421.77,272.948 420.891,270.903 419.925,268.812 418.922,266.795 417.896,264.877 416.85,262.998 415.75,261.099 414.555,259.225 413.329,257.309 412.05,255.434 410.798,253.64 409.478,251.81 408.14,250.017 406.726,248.169 405.307,246.376 403.876,244.636 402.361,242.882 400.814,241.177 399.28,239.59 397.633,238.011 395.86,236.462 394.056,235.042 392.218,233.757 390.271,232.59 388.198,231.565 386.035,230.737 383.749,230.137 381.405,229.832 379.125,229.852 377.07,230.144 375.196,230.648 373.411,231.349 371.76,232.227 370.261,233.241 368.84,234.443 367.491,235.887 366.307,237.491 365.234,239.321 364.294,241.381 363.555,243.534 362.989,245.752 362.567,247.949 362.25,250.145 362.018,252.344 361.851,254.59 361.737,256.864 361.66,259.022 361.61,261.229 361.556,263.438 361.519,265.652 361.489,267.908 361.463,270.101 361.43,272.314 361.413,274.526 361.39,276.756 361.365,278.977 361.345,281.189 361.31,283.488 361.297,285.694 361.239,287.875 361.223,290.075 361.207,292.3 361.145,294.547 361.112,296.8 361.079,298.979 361.016,301.22 360.968,303.408 360.925,305.591 360.832,307.779 360.758,309.989 360.689,312.26 360.562,314.493 360.471,316.688 360.363,318.96 360.202,321.189 360.085,323.381 359.924,325.517 359.756,327.73 359.577,329.958 359.393,332.084 359.171,334.389 358.957,336.624 358.744,338.757 358.502,340.886 358.24,343.192 357.971,345.387 357.693,347.61 357.404,349.863 357.129,351.983 356.816,354.238 356.497,356.399 356.207,358.592 355.841,360.868 355.558,362.974 355.199,365.161 354.912,367.333 354.556,369.529 354.206,371.73 353.854,373.894 353.528,376.146 353.123,378.307 352.831,380.524 352.438,382.712 352.121,384.947 351.802,387.134 351.412,389.331 351.089,391.593 350.731,393.766 350.401,395.967 350.048,398.185 349.687,400.439 349.353,402.672 349.015,404.847 348.647,407.05 348.307,409.22 347.959,411.457 347.613,413.617 347.29,415.837 346.922,417.989 346.574,420.187 346.233,422.392 345.915,424.563 345.53,426.78 345.214,429.04 344.848,431.211 344.5,433.406 344.158,435.61 343.799,437.832 343.483,440.059 343.086,442.295 342.797,444.476 342.426,446.646 342.081,448.917 341.78,451.093 341.48,453.273 341.144,455.472 340.875,457.698 340.59,459.907 340.328,462.03 340.082,464.315 339.82,466.554 339.605,468.725 339.396,471.064 339.188,473.209 339.042,475.33 338.839,477.666 338.692,479.84 338.564,482.069 338.403,484.356 338.32,486.678 338.261,488.853 338.136,490.99 338.111,493.316 338.029,495.617 338.039,497.765 338.011,499.981 338.05,502.286 338.043,504.56 338.103,506.769 338.141,508.96 338.221,511.242 338.288,513.526 338.428,515.711 338.516,517.985 338.664,520.317 338.777,522.567 338.917,524.768 339.103,527.002 339.245,529.275 339.426,531.531 339.609,533.793 339.796,536.083 340.008,538.352 340.274,540.611 340.531,542.832 340.853,545.055 341.246,547.289 341.735,549.535 342.326,551.706 343.114,553.837 344.241,555.941 345.669,557.691 347.144,558.861 348.441,559.508 349.627,559.838 351.102,560.0 353.066,559.837 355.286,559.19 357.379,558.136 359.234,556.867 360.936,555.465 362.555,553.986 364.152,552.435 365.706,550.844 367.24,549.246 368.751,547.668 370.246,546.079 371.751,544.478 373.279,542.848 374.767,541.239 376.302,539.616 377.79,537.989 379.276,536.418 380.793,534.778 382.302,533.167 383.809,531.528 385.346,529.893 386.812,528.3 388.322,526.712 389.801,525.099 391.377,523.431 392.841,521.865 394.316,520.307 395.858,518.678 397.432,517.005 398.966,515.422 400.468,513.818 401.995,512.239 403.507,510.696 405.103,509.075 406.625,507.516 408.156,505.981 409.725,504.448 411.293,502.903 412.885,501.365 414.492,499.841 416.059,498.36 417.671,496.912 419.317,495.414 420.968,493.965 422.648,492.515 424.33,491.094 425.966,489.723 427.721,488.318 429.455,486.945 431.109,485.624 432.891,484.293 434.694,482.938 436.456,481.65 438.227,480.397 440.024,479.127 441.842,477.86 443.725,476.609 445.496,475.426 447.389,474.168 449.261,473.001 451.138,471.812 453.0,470.644 454.837,469.531 456.752,468.397 458.683,467.254 460.603,466.122 462.495,465.056 464.527,463.917 466.444,462.832 468.336,461.816 470.31,460.743 472.301,459.671 474.239,458.671 476.218,457.607 478.138,456.565 480.12,455.536 482.153,454.515 484.131,453.467 486.072,452.445 488.088,451.458 490.035,450.444 492.025,449.425 494.026,448.344 495.984,447.405 497.99,446.331 499.943,445.341 501.919,444.331 503.926,443.297 505.938,442.226 507.912,441.264 509.834,440.221 511.861,439.203 513.833,438.144 515.778,437.145 517.728,436.122 519.706,435.054 521.675,434.011 523.651,432.976 525.645,431.885 527.52,430.869 529.496,429.79 531.48,428.683 533.345,427.672 535.277,426.592 537.225,425.496 539.163,424.385 541.118,423.295 543.029,422.165 545.037,421.0 546.861,419.968 548.771,418.811 550.671,417.684 552.582,416.538 554.537,415.359 556.424,414.212 558.363,413.031 560.16,411.886 562.053,410.722 563.913,409.54 565.865,408.328 567.643,407.161 569.563,405.957 571.447,404.726 573.282,403.531 575.181,402.301 577.03,401.054 578.888,399.816 580.718,398.596 582.664,397.307 584.46,396.08 586.311,394.826 588.136,393.586 590.039,392.313 591.8,391.07 593.699,389.793 595.554,388.516 597.417,387.225 599.199,385.982 601.079,384.69 602.899,383.425 604.732,382.137 606.576,380.858 608.37,379.586 610.202,378.307 612.035,377.014 613.876,375.753 615.683,374.487 617.518,373.215 619.327,371.934 621.143,370.659 622.986,369.386 624.861,368.105 626.733,366.845 628.598,365.544 630.457,364.237 632.32,362.949 634.144,361.666 635.977,360.396 637.809,359.111 639.656,357.818 641.47,356.56 643.263,355.302 645.111,354.008 646.929,352.716 648.663,351.468 650.423,350.165 652.196,348.782 653.94,347.294 655.622,345.663 657.193,343.871 658.471,342.119 659.392,340.589 660.059,339.216 660.619,337.784 661.164,336.023 661.62,333.899 661.914,331.508 661.989,329.204 661.882,326.95 661.621,324.727 661.238,322.514 660.787,320.415 660.268,318.288 659.683,316.09 659.084,313.941 658.474,311.831 657.871,309.69 657.245,307.537 656.604,305.415 655.945,303.277 655.297,301.18 654.64,299.01 653.959,296.927 653.331,294.805 652.631,292.723 652.006,290.6 651.278,288.414 650.638,286.395 649.947,284.279 649.294,282.14 648.62,279.985 647.912,277.891 647.238,275.718 646.549,273.593 646.003,271.566 645.243,269.481 644.513,267.167 643.888,265.115 643.257,263.036 642.609,260.888 641.973,258.799 641.345,256.695 640.698,254.566 640.217,252.328 639.527,250.117 638.882,248.073 638.331,245.879 637.581,243.753 636.964,241.808 636.337,239.649 635.584,237.488 635.033,235.239 634.345,233.095 633.672,231.001 633.135,228.788 632.439,226.606 631.866,224.654 631.255,222.568 630.604,220.347 629.932,218.052 629.332,216.005 628.711,213.885 628.122,211.684 627.443,209.562 626.835,207.484 626.225,205.4 625.58,203.448 625.076,201.277 624.384,199.105 623.767,196.994 623.143,194.662 622.452,192.489 621.83,190.359 621.207,188.222 620.582,186.079 619.956,183.931 619.329,181.777 618.699,179.617 618.547,177.33 617.924,175.192 617.301,173.049 616.676,170.902 616.05,168.75 615.423,166.594 614.795,164.434 614.166,162.269 613.536,160.101 613.141,158.744 611.623,155.947" fill="none" stroke="white" stroke-width="4"
            stroke-linejoin="round" stroke-linecap="round"/>
</svg>
