<?xml version="1.0" encoding="utf-8"?>
<svg xmlns="http://www.w3.org/2000/svg" width="1000" height="600">
  <polyline points="611.935,155.932 611.296,153.702 610.694,151.642 610.065,149.466 609.42,147.277 608.794,145.149 608.191,143.036 607.608,140.959 606.943,138.759 606.288,136.54 605.683,134.45 605.109,132.411 604.482,130.244 603.797,128.041 603.184,125.806 602.6,123.791 601.993,121.742 601.303,119.447 600.714,117.35 600.095,115.263 599.477,113.104 598.833,110.892 598.208,108.798 597.622,106.713 596.971,104.469 596.311,102.306 595.725,100.311 595.089,98.088 594.438,95.906 593.754,93.652 593.149,91.554 592.477,89.437 591.78,87.263 591.143,85.26 590.394,83.029 589.665,80.904 588.949,78.853 588.164,76.687 587.373,74.537 586.575,72.447 585.771,70.389 584.896,68.277 584.01,66.175 583.08,64.099 582.086,62.01 581.039,59.951 579.916,57.936 578.73,55.979 577.473,54.089 576.083,52.216 574.622,50.468 573.085,48.833 571.411,47.281 569.558,45.808 567.612,44.497 565.704,43.409 563.879,42.546 562.119,41.865 560.452,41.337 558.76,40.896 556.74,40.487 554.566,40.179 552.272,40.005 549.941,40.0 547.643,40.161 545.426,40.468 543.306,40.894 541.146,41.442 538.984,42.058 536.852,42.714 534.758,43.382 532.602,44.099 530.521,44.806 528.451,45.511 526.25,46.238 524.184,46.914 522.134,47.57 519.993,48.249 517.893,48.921 515.783,49.597 513.631,50.304 511.48,51.025 509.468,51.718 507.316,52.521 505.245,53.35 503.247,54.233 501.19,55.234 499.185,56.316 497.254,57.464 495.321,58.733 493.531,60.029 491.821,61.401 490.165,62.876 488.693,64.316 487.261,65.855 485.894,67.465 484.663,69.067 483.479,70.743 482.34,72.508 481.328,74.259 480.353,76.106 479.435,78.089 478.628,80.091 477.87,82.196 477.21,84.394 476.646,86.573 476.199,88.774 475.814,91.119 475.539,93.328 475.365,95.536 475.296,97.754 475.292,100.023 475.383,102.256 475.478,104.479 475.597,106.669 475.715,108.969 475.831,111.099 475.948,113.374 476.071,115.569 476.202,117.826 476.32,120.01 476.463,122.167 476.581,124.482 476.733,126.766 476.856,128.847 476.995,131.282 477.12,133.444 477.248,135.575 477.365,137.911 477.472,140.033 477.616,142.264 477.718,144.488 477.857,146.758 477.954,148.964 478.064,151.128 478.157,153.382 478.274,155.684 478.406,157.904 478.474,160.059 478.589,162.237 478.664,164.61 478.781,166.786 478.868,169.013 478.958,171.175 479.061,173.444 479.153,175.659 479.252,177.872 479.333,180.15 479.415,182.385 479.518,184.522 479.603,186.78 479.685,189.062 479.753,191.26 479.866,193.495 479.918,195.74 480.011,197.965 480.073,200.204 480.141,202.365 480.223,204.621 480.284,206.901 480.354,209.05 480.415,211.293 480.48,213.601 480.566,215.76 480.612,217.913 480.675,220.22 480.751,222.415 480.797,224.617 480.885,226.957 480.944,229.09 481.02,231.307 481.109,233.566 481.177,235.746 481.268,238.109 481.347,240.281 481.452,242.483 481.56,244.692 481.654,246.926 481.773,249.186 481.915,251.502 482.059,253.663 482.227,255.818 482.418,258.036 482.646,260.249 482.929,262.515 483.251,264.808 483.606,266.996 484.007,269.209 484.472,271.438 484.975,273.62 485.517,275.714 486.15,277.925 486.843,280.156 487.556,282.201 488.318,284.239 489.159,286.352 490.069,288.426 490.952,290.319 491.882,292.182 492.947,294.197 494.061,296.182 495.173,298.014 496.37,299.897 497.605,301.719 498.892,303.51 500.166,305.181 501.544,306.92 502.932,308.586 504.337,310.179 505.871,311.849 507.388,313.422 508.882,314.898 510.36,316.317 512.003,317.842 513.606,319.315 515.299,320.869 516.871,322.324 518.525,323.91 520.154,325.526 521.71,327.143 523.237,328.869 524.655,330.587 525.978,332.364 527.202,334.207 528.296,336.058 529.297,337.967 530.203,339.978 530.956,341.954 531.6,344.0 532.098,345.942 532.503,348.025 532.791,350.178 532.947,352.2 532.99,354.267 532.923,356.366 532.758,358.36 532.466,360.435 532.025,362.558 531.478,364.578 530.817,366.544 530.021,368.517 529.125,370.437 528.092,372.38 526.948,374.254 525.727,376.026 524.376,377.778 522.904,379.5 521.372,381.122 519.733,382.705 517.995,384.2 516.184,385.655 514.406,386.948 512.519,388.248 510.652,389.445 508.826,390.543 506.897,391.667 504.988,392.762 503.031,393.896 501.124,395.009 499.25,396.112 497.301,397.263 495.368,398.406 493.443,399.544 491.6,400.665 489.638,401.834 487.715,402.987 485.795,404.128 483.884,405.273 481.943,406.406 480.066,407.468 478.143,408.531 476.112,409.586 474.06,410.585 472.002,411.505 469.873,412.365 467.695,413.142 465.65,413.769 463.487,414.316 461.259,414.755 459.078,415.063 456.851,415.244 454.615,415.283 452.515,415.192 450.34,414.98 448.245,414.649 446.19,414.191 444.16,413.623 442.222,412.969 440.331,412.197 438.371,411.256 436.559,410.268 434.698,409.099 433.076,407.928 431.5,406.656 429.875,405.191 428.42,403.72 427.008,402.084 425.754,400.438 424.582,398.694 423.494,396.863 422.508,394.923 421.65,392.97 420.9,390.984 420.258,388.945 419.734,386.839 419.322,384.65 419.005,382.415 418.784,380.233 418.643,377.952 418.583,375.669 418.606,373.431 418.668,371.151 418.838,368.883 418.999,366.639 419.249,364.461 419.522,362.315 419.814,360.132 420.167,357.884 420.525,355.647 420.922,353.486 421.301,351.354 421.759,349.14 422.213,346.945 422.718,344.744 423.207,342.504 423.723,340.371 424.192,338.228 424.699,336.036 425.177,333.871 425.679,331.733 426.116,329.551 426.587,327.347 426.945,325.136 427.335,322.891 427.622,320.669 427.947,318.458 428.127,316.292 428.331,314.065 428.45,311.83 428.541,309.549 428.592,307.322 428.575,305.2 428.483,302.949 428.393,300.689 428.217,298.56 427.996,296.307 427.683,294.076 427.355,291.899 426.972,289.759 426.493,287.546 425.966,285.344 425.437,283.253 424.84,281.266 424.185,279.191 423.434,277.009 422.632,274.862 421.812,272.876 420.913,270.795 420.032,268.858 418.993,266.819 417.973,264.878 416.862,262.912 415.755,261.002 414.579,259.14 413.305,257.195 412.076,255.372 410.826,253.6 409.499,251.76 408.167,249.959 406.814,248.203 405.394,246.409 403.924,244.631 402.439,242.904 400.889,241.199 399.236,239.493 397.623,237.952 395.92,236.466 394.133,235.056 392.261,233.747 390.269,232.555 388.191,231.53 386.04,230.707 383.797,230.116 381.476,229.805 379.166,229.823 377.097,230.116 375.211,230.624 373.417,231.332 371.741,232.226 370.247,233.24 368.815,234.458 367.492,235.88 366.321,237.469 365.251,239.293 364.322,241.323 363.573,243.497 363.0,245.732 362.576,247.949 362.26,250.132 362.029,252.319 361.858,254.567 361.747,256.795 361.666,258.995 361.605,261.227 361.57,263.441 361.52,265.696 361.499,267.886 361.461,270.023 361.448,272.22 361.424,274.499 361.39,276.764 361.369,279.025 361.345,281.246 361.298,283.417 361.301,285.604 361.257,287.888 361.224,290.11 361.198,292.177 361.149,294.439 361.127,296.727 361.069,298.985 361.022,301.159 360.987,303.448 360.916,305.566 360.846,307.803 360.756,309.985 360.681,312.262 360.58,314.43 360.488,316.596 360.376,318.819 360.223,321.146 360.084,323.403 359.934,325.523 359.758,327.692 359.59,329.947 359.383,332.248 359.179,334.394 358.966,336.518 358.729,338.757 358.466,340.99 358.222,343.114 357.962,345.356 357.668,347.661 357.368,349.791 357.111,351.967 356.761,354.241 356.461,356.388 356.128,358.595 355.81,360.817 355.455,362.955 355.176,365.162 354.797,367.493 354.468,369.653 354.113,371.833 353.784,374.05 353.438,376.197 353.124,378.356 352.747,380.599 352.421,382.875 352.062,384.99 351.749,387.159 351.379,389.358 351.022,391.736 350.69,393.795 350.328,396.164 349.997,398.254 349.642,400.39 349.313,402.61 348.959,404.742 348.621,406.996 348.269,409.171 347.937,411.397 347.596,413.597 347.232,415.794 346.904,417.982 346.533,420.156 346.227,422.41 345.838,424.598 345.528,426.892 345.173,428.964 344.812,431.344 344.5,433.369 344.123,435.61 343.806,437.9 343.449,439.964 343.142,442.243 342.768,444.358 342.45,446.564 342.101,448.846 341.779,451.132 341.44,453.276 341.16,455.459 340.858,457.749 340.54,459.947 340.301,462.068 340.061,464.233 339.792,466.526 339.551,468.819 339.343,471.066 339.145,473.233 338.952,475.509 338.792,477.707 338.629,479.884 338.502,482.075 338.39,484.315 338.263,486.546 338.175,488.831 338.113,491.027 338.04,493.271 338.012,495.412 337.963,497.731 337.965,500.06 337.991,502.277 337.991,504.613 338.052,506.75 338.093,508.955 338.182,511.276 338.253,513.622 338.369,515.738 338.469,517.974 338.595,520.295 338.732,522.538 338.887,524.859 339.03,527.086 339.202,529.355 339.374,531.614 339.553,533.836 339.748,536.099 339.967,538.354 340.213,540.642 340.494,542.914 340.822,545.157 341.209,547.363 341.685,549.57 342.28,551.739 343.069,553.894 344.191,555.972 345.645,557.726 347.165,558.898 348.46,559.516 349.626,559.84 351.097,560.0 353.056,559.851 355.291,559.225 357.404,558.185 359.271,556.916 360.996,555.501 362.626,554.008 364.185,552.472 365.73,550.883 367.243,549.291 368.746,547.685 370.239,546.084 371.758,544.453 373.243,542.846 374.737,541.228 376.225,539.619 377.724,537.996 379.249,536.35 380.762,534.699 382.23,533.133 383.727,531.503 385.239,529.892 386.795,528.223 388.257,526.622 389.784,525.027 391.251,523.405 392.806,521.753 394.332,520.162 395.816,518.559 397.332,516.967 398.874,515.351 400.338,513.813 401.891,512.201 403.481,510.575 404.966,509.07 406.508,507.484 408.08,505.96 409.65,504.354 411.23,502.849 412.807,501.344 414.435,499.786 416.061,498.279 417.66,496.82 419.295,495.359 420.899,493.948 422.547,492.518 424.29,491.069 425.935,489.684 427.661,488.274 429.451,486.878 431.133,485.556 432.885,484.236 434.593,482.95 436.396,481.612 438.184,480.351 439.987,479.097 441.82,477.811 443.728,476.535 445.467,475.396 447.343,474.152 449.336,472.923 451.106,471.771 453.017,470.644 454.876,469.476 456.79,468.37 458.647,467.253 460.675,466.088 462.577,465.025 464.429,464.015 466.414,462.886 468.337,461.845 470.3,460.831 472.303,459.735 474.32,458.673 476.306,457.613 478.23,456.595 480.195,455.576 482.119,454.577 484.185,453.51 486.151,452.475 488.119,451.447 490.081,450.416 492.05,449.368 494.028,448.355 495.973,447.32 498.039,446.241 499.939,445.237 501.9,444.221 503.869,443.168 505.877,442.141 507.858,441.149 509.79,440.094 511.85,439.057 513.741,438.052 515.707,437.007 517.748,435.964 519.658,434.947 521.655,433.903 523.631,432.82 525.587,431.808 527.563,430.738 529.455,429.675 531.455,428.616 533.356,427.552 535.288,426.459 537.233,425.405 539.176,424.266 541.107,423.169 543.105,422.035 544.959,420.968 546.788,419.846 548.781,418.697 550.7,417.561 552.587,416.431 554.424,415.281 556.404,414.105 558.301,412.934 560.131,411.784 562.052,410.601 563.962,409.424 565.754,408.221 567.676,407.059 569.564,405.803 571.383,404.63 573.279,403.383 575.252,402.133 577.039,400.894 578.872,399.7 580.711,398.459 582.593,397.23 584.436,395.964 586.261,394.694 588.163,393.481 589.957,392.194 591.799,390.944 593.667,389.671 595.503,388.426 597.362,387.119 599.196,385.86 601.02,384.649 602.856,383.338 604.697,382.066 606.57,380.785 608.366,379.551 610.147,378.303 612.057,376.991 613.914,375.728 615.714,374.488 617.55,373.175 619.447,371.872 621.295,370.618 623.157,369.305 624.902,368.044 626.752,366.791 628.613,365.452 630.48,364.156 632.365,362.844 634.19,361.57 635.986,360.323 637.884,359.006 639.676,357.736 641.458,356.501 643.293,355.237 645.075,353.95 646.894,352.642 648.7,351.351 650.446,350.069 652.215,348.678 653.969,347.201 655.624,345.588 657.223,343.845 658.534,342.105 659.495,340.581 660.203,339.189 660.767,337.777 661.303,336.045 661.68,333.904 661.964,331.51 662.037,329.209 661.928,326.969 661.66,324.741 661.259,322.515 660.79,320.386 660.251,318.223 659.658,316.07 659.044,313.945 658.429,311.85 657.785,309.723 657.12,307.558 656.464,305.449 655.814,303.385 655.171,301.261 654.462,299.091 653.822,296.979 653.179,294.944 652.487,292.803 651.853,290.703 651.195,288.575 650.51,286.392 649.849,284.279 649.185,282.138 648.546,280.07 647.839,277.842 647.222,275.773 646.549,273.66 645.869,271.48 645.257,269.426 644.625,267.367 643.961,265.238 643.342,263.138 642.674,260.945 642.038,258.827 641.368,256.624 640.758,254.541 640.113,252.415 639.434,250.183 638.812,248.047 638.163,245.937 637.54,243.768 636.918,241.708 636.279,239.583 635.69,237.514 635.035,235.35 634.429,233.278 633.753,231.127 633.101,228.842 632.497,226.785 631.911,224.834 631.221,222.467 630.563,220.297 629.977,218.201 629.33,216.171 628.685,213.89 628.049,211.721 627.465,209.726 626.782,207.424 626.134,205.182 625.568,203.152 624.94,201.23 624.127,199.082 623.511,196.88 622.813,194.533 622.268,192.615 621.654,190.563 621.011,188.358 620.398,186.203 619.762,184.074 619.137,181.928 618.507,179.767 617.912,177.673 617.248,175.441 616.657,173.463 616.097,171.33 615.538,169.344 614.847,166.822 614.294,164.919 613.597,162.522 612.947,160.285 612.55,158.919 611.935,155.932" fill="none" stroke="white" stroke-width="4"
            stroke-linejoin="round" stroke-linecap="round"/>
  <line x1="631.161" y1="150.423" x2="592.709" y2="161.441" stroke="red" stroke-width="3" stroke-linecap="round"/>
</svg>
