<?xml version="1.0" encoding="utf-8"?>
<svg xmlns="http://www.w3.org/2000/svg" width="1000" height="600">
  <polyline points="611.931,156.908 612.553,159.064 613.185,161.273 613.784,163.309 614.399,165.425 615.02,167.606 615.632,169.709 616.255,171.853 616.885,174.042 617.535,176.278 618.186,178.441 618.76,180.523 619.375,182.651 619.986,184.778 620.603,186.901 621.221,189.031 621.842,191.211 622.476,193.364 623.079,195.493 623.711,197.603 624.306,199.713 624.898,201.852 625.513,203.984 626.169,206.134 626.799,208.35 627.398,210.511 628.055,212.642 628.645,214.719 629.251,216.91 629.943,219.118 630.533,221.179 631.119,223.252 631.796,225.476 632.42,227.641 633.121,229.769 633.671,231.883 634.326,233.867 634.934,236.118 635.66,238.286 636.256,240.322 636.883,242.584 637.58,244.752 638.195,246.848 638.798,248.941 639.481,251.037 640.118,253.183 640.679,255.357 641.41,257.455 642.072,259.577 642.631,261.747 643.393,263.903 643.973,265.988 644.701,268.242 645.242,270.273 645.902,272.326 646.608,274.536 647.207,276.64 647.88,278.793 648.579,280.98 649.167,283.019 649.885,285.277 650.542,287.311 651.163,289.458 651.835,291.626 652.486,293.752 653.147,295.874 653.771,297.941 654.457,300.171 655.138,302.352 655.782,304.513 656.387,306.614 657.058,308.709 657.723,310.928 658.337,313.049 658.948,315.189 659.582,317.373 660.161,319.551 660.664,321.694 661.111,323.926 661.429,326.152 661.592,328.443 661.598,330.802 661.382,333.159 660.978,335.314 660.462,337.118 659.925,338.556 659.35,339.842 658.488,341.415 657.315,343.215 655.873,345.11 654.306,346.879 652.682,348.463 650.984,349.924 649.26,351.245 647.511,352.497 645.736,353.705 643.938,354.924 642.118,356.147 640.324,357.363 638.492,358.596 636.645,359.861 634.828,361.112 632.998,362.377 631.162,363.632 629.326,364.899 627.478,366.204 625.634,367.477 623.877,368.692 622.041,369.988 620.188,371.303 618.339,372.572 616.488,373.888 614.734,375.118 612.936,376.347 611.1,377.645 609.263,378.911 607.395,380.227 605.539,381.477 603.729,382.783 601.846,384.024 600.105,385.289 598.31,386.499 596.414,387.799 594.565,389.057 592.757,390.292 590.838,391.615 588.916,392.889 587.079,394.159 585.293,395.369 583.557,396.523 581.665,397.756 579.778,399.013 577.913,400.273 576.019,401.539 574.169,402.719 572.34,403.864 570.501,405.112 568.637,406.277 566.738,407.45 564.843,408.646 562.968,409.827 560.987,411.05 559.132,412.208 557.237,413.344 555.405,414.441 553.528,415.582 551.65,416.717 549.678,417.891 547.809,419.012 545.806,420.179 543.905,421.283 542.004,422.38 540.067,423.51 538.119,424.594 536.135,425.716 534.223,426.804 532.405,427.786 530.467,428.87 528.513,429.916 526.506,431.004 524.485,432.074 522.544,433.127 520.63,434.15 518.644,435.172 516.658,436.229 514.671,437.258 512.688,438.266 510.672,439.291 508.676,440.288 506.724,441.294 504.794,442.276 502.775,443.294 500.819,444.301 498.795,445.321 496.755,446.367 494.825,447.327 492.931,448.35 490.92,449.28 488.989,450.304 486.96,451.359 484.844,452.392 482.871,453.417 480.972,454.42 478.991,455.445 476.941,456.435 474.927,457.558 473.013,458.528 471.084,459.566 469.133,460.538 467.248,461.635 465.213,462.744 463.197,463.849 461.328,464.914 459.42,466.029 457.401,467.166 455.503,468.356 453.713,469.44 451.741,470.623 449.972,471.749 448.102,472.953 446.13,474.165 444.293,475.431 442.444,476.651 440.65,477.829 438.825,479.082 437.068,480.391 435.2,481.716 433.479,482.982 431.706,484.351 429.944,485.664 428.295,486.97 426.551,488.387 424.803,489.808 423.059,491.211 421.428,492.628 419.77,494.062 418.097,495.584 416.482,497.008 414.834,498.473 413.247,499.988 411.662,501.483 410.123,503.068 408.52,504.56 406.859,506.223 405.291,507.814 403.826,509.415 402.281,510.934 400.824,512.626 399.22,514.075 397.755,515.784 396.251,517.327 394.733,519.015 393.151,520.693 391.718,522.256 390.233,523.894 388.662,525.484 387.099,527.215 385.637,528.831 384.073,530.476 382.564,532.084 381.092,533.696 379.516,535.419 377.952,537.025 376.481,538.678 374.92,540.311 373.415,541.947 371.885,543.568 370.363,545.205 368.839,546.816 367.259,548.459 365.749,550.1 364.226,551.665 362.64,553.282 361.05,554.881 359.381,556.398 357.592,557.767 355.59,558.952 353.379,559.756 351.331,560.0 349.752,559.821 348.576,559.48 347.397,558.847 346.069,557.78 344.685,556.169 343.445,554.172 342.509,552.076 341.766,549.909 341.214,547.771 340.755,545.599 340.367,543.412 340.03,541.197 339.739,538.952 339.501,536.722 339.286,534.49 339.062,532.288 338.92,530.077 338.745,527.815 338.679,525.601 338.54,523.428 338.481,521.185 338.425,518.946 338.416,516.675 338.402,514.466 338.404,512.226 338.445,509.939 338.474,507.781 338.574,505.599 338.656,503.318 338.724,501.071 338.873,498.896 338.936,496.682 339.097,494.418 339.22,492.215 339.355,490.032 339.497,487.811 339.65,485.675 339.816,483.38 339.986,481.097 340.179,478.912 340.385,476.748 340.595,474.51 340.812,472.301 341.007,470.06 341.265,467.88 341.507,465.709 341.751,463.488 341.985,461.332 342.278,459.126 342.55,456.886 342.847,454.672 343.102,452.473 343.408,450.32 343.704,448.086 344.038,445.908 344.307,443.777 344.643,441.511 344.974,439.242 345.257,437.142 345.585,434.897 345.896,432.736 346.206,430.582 346.535,428.341 346.863,426.026 347.142,423.864 347.462,421.627 347.807,419.532 348.084,417.254 348.419,415.09 348.741,412.884 349.039,410.717 349.355,408.447 349.648,406.212 349.993,404.049 350.305,401.884 350.633,399.61 350.93,397.415 351.253,395.198 351.575,393.006 351.879,390.763 352.234,388.54 352.505,386.368 352.843,384.224 353.172,382.004 353.42,379.845 353.82,377.547 354.078,375.319 354.42,373.111 354.716,370.871 355.053,368.712 355.34,366.559 355.644,364.404 355.955,362.251 356.233,360.034 356.597,357.751 356.847,355.472 357.184,353.305 357.492,351.189 357.747,348.904 358.045,346.708 358.314,344.502 358.588,342.304 358.802,340.119 359.076,337.879 359.328,335.627 359.517,333.448 359.722,331.187 359.863,329.055 360.069,326.874 360.186,324.54 360.317,322.334 360.443,320.113 360.533,317.991 360.625,315.791 360.737,313.517 360.778,311.267 360.824,309.019 360.886,306.801 360.928,304.689 360.965,302.345 360.988,300.076 361.056,297.976 361.051,295.715 361.078,293.391 361.114,291.17 361.125,288.965 361.149,286.653 361.158,284.462 361.183,282.275 361.197,280.091 361.213,277.813 361.224,275.52 361.245,273.181 361.268,270.986 361.282,268.768 361.306,266.513 361.332,264.329 361.362,262.118 361.39,259.825 361.436,257.557 361.495,255.335 361.582,253.082 361.721,250.838 361.949,248.626 362.32,246.344 362.857,244.1 363.586,241.884 364.501,239.784 365.579,237.897 366.778,236.252 368.131,234.795 369.562,233.58 371.055,232.575 372.7,231.708 374.435,231.029 376.281,230.552 378.248,230.283 380.39,230.235 382.638,230.422 384.956,230.857 387.182,231.507 389.337,232.355 391.365,233.338 393.305,234.436 395.233,235.658 397.082,236.959 398.848,238.335 400.629,239.815 402.349,241.358 403.959,242.904 405.539,244.531 407.06,246.218 408.551,247.972 409.949,249.739 411.323,251.588 412.596,253.406 413.821,255.322 415.01,257.282 416.069,259.221 417.127,261.249 418.1,263.302 419.047,265.366 419.911,267.457 420.69,269.468 421.425,271.552 422.116,273.684 422.786,275.839 423.397,278.03 423.912,280.165 424.435,282.333 424.875,284.463 425.256,286.562 425.626,288.833 425.947,291.004 426.219,293.12 426.451,295.34 426.631,297.485 426.75,299.568 426.847,301.727 426.875,303.913 426.872,306.134 426.814,308.291 426.738,310.534 426.611,312.682 426.435,314.885 426.225,317.075 425.991,319.241 425.719,321.441 425.404,323.754 425.099,325.814 424.728,328.024 424.374,330.264 423.985,332.464 423.607,334.666 423.22,336.908 422.831,339.077 422.457,341.207 422.051,343.419 421.667,345.66 421.297,347.805 420.934,350.014 420.569,352.231 420.223,354.426 419.891,356.644 419.565,358.843 419.251,361.001 418.947,363.224 418.666,365.448 418.412,367.721 418.217,369.959 418.08,372.258 418.023,374.474 418.048,376.729 418.162,379.03 418.385,381.383 418.703,383.658 419.109,385.852 419.614,387.973 420.23,390.019 420.968,392.063 421.827,394.096 422.798,396.059 423.874,397.943 424.984,399.644 426.217,401.329 427.545,402.935 429.025,404.505 430.558,405.963 432.105,407.279 433.773,408.546 435.539,409.73 437.341,410.771 439.186,411.699 441.113,412.541 443.056,413.243 445.078,413.828 447.16,414.319 449.316,414.693 451.406,414.916 453.479,415.031 455.642,415.045 457.769,414.946 460.008,414.707 462.214,414.377 464.398,413.946 466.591,413.396 468.83,412.728 470.916,412.003 472.948,411.227 475.034,410.322 477.131,409.317 479.069,408.312 481.029,407.225 482.915,406.149 484.784,405.022 486.71,403.846 488.652,402.668 490.539,401.522 492.434,400.358 494.297,399.221 496.175,398.081 498.083,396.943 500.006,395.802 501.948,394.657 503.798,393.561 505.716,392.431 507.651,391.281 509.568,390.131 511.415,388.992 513.366,387.725 515.16,386.484 517.053,385.062 518.872,383.558 520.523,382.051 522.163,380.394 523.722,378.645 525.092,376.941 526.34,375.205 527.519,373.333 528.596,371.372 529.508,369.448 530.32,367.471 531.008,365.495 531.569,363.495 532.04,361.394 532.382,359.275 532.604,357.209 532.716,355.155 532.73,353.065 532.637,350.985 532.406,348.833 532.078,346.809 531.616,344.718 531.082,342.794 530.406,340.748 529.646,338.783 528.719,336.752 527.732,334.832 526.639,332.941 525.424,331.065 524.052,329.184 522.586,327.353 521.053,325.604 519.436,323.93 517.867,322.432 516.233,320.988 514.556,319.575 512.941,318.215 511.36,316.851 509.69,315.348 508.115,313.847 506.672,312.399 505.171,310.838 503.709,309.188 502.354,307.56 501.032,305.913 499.728,304.202 498.453,302.432 497.246,300.634 496.031,298.78 494.94,296.94 493.861,295.066 492.777,293.048 491.807,291.107 490.883,289.173 490.03,287.268 489.216,285.209 488.389,283.171 487.661,281.087 486.978,278.986 486.286,276.858 485.69,274.748 485.14,272.569 484.601,270.439 484.117,268.168 483.684,265.928 483.258,263.72 482.953,261.598 482.628,259.326 482.322,257.105 482.049,254.93 481.886,252.669 481.678,250.469 481.51,248.279 481.363,245.995 481.244,243.66 481.154,241.497 481.058,239.327 481.005,237.101 480.949,234.853 480.887,232.639 480.842,230.42 480.802,228.139 480.753,225.954 480.735,223.691 480.665,221.451 480.643,219.269 480.585,217.066 480.546,214.863 480.492,212.651 480.409,210.511 480.355,208.246 480.287,206.034 480.231,203.74 480.152,201.453 480.052,199.194 479.95,196.929 479.896,194.801 479.783,192.575 479.688,190.347 479.578,188.205 479.51,186.026 479.381,183.708 479.304,181.363 479.183,179.169 479.09,177.027 478.979,174.775 478.879,172.541 478.773,170.311 478.653,168.125 478.553,165.837 478.423,163.677 478.333,161.457 478.217,159.261 478.075,156.894 477.978,154.663 477.811,152.441 477.748,150.268 477.581,148.154 477.493,145.855 477.304,143.615 477.237,141.519 477.087,139.17 476.953,136.896 476.842,134.734 476.713,132.622 476.577,130.299 476.461,127.966 476.302,125.794 476.215,123.616 476.075,121.332 475.965,119.124 475.81,116.799 475.711,114.506 475.601,112.455 475.476,110.306 475.376,108.049 475.255,105.719 475.192,103.563 475.124,101.299 475.117,99.021 475.155,96.877 475.301,94.449 475.509,92.216 475.804,90.002 476.199,87.747 476.698,85.464 477.269,83.338 477.95,81.237 478.717,79.176 479.571,77.163 480.508,75.235 481.51,73.396 482.518,71.708 483.694,69.951 484.972,68.229 486.292,66.556 487.627,65.044 489.122,63.492 490.677,61.992 492.382,60.517 494.093,59.168 495.906,57.87 497.828,56.568 499.758,55.413 501.785,54.308 503.817,53.325 505.92,52.396 507.878,51.62 510.057,50.831 512.151,50.161 514.297,49.501 516.397,48.897 518.468,48.258 520.661,47.586 522.737,46.937 524.92,46.25 527.156,45.546 529.197,44.879 531.308,44.212 533.475,43.515 535.707,42.82 537.75,42.199 539.89,41.596 542.081,41.047 544.213,40.606 546.485,40.26 548.822,40.047 551.153,40.0 553.411,40.119 555.603,40.387 557.616,40.759 559.464,41.238 561.025,41.751 562.741,42.431 564.466,43.236 566.348,44.242 568.373,45.487 570.289,46.84 572.081,48.296 573.778,49.868 575.34,51.513 576.837,53.274 578.192,55.064 579.508,56.949 580.699,58.834 581.788,60.688 582.882,62.682 584.004,64.848 584.948,66.809 585.87,68.847 586.756,70.946 587.625,73.098 588.469,75.318 589.206,77.263 589.942,79.393 590.667,81.557 591.339,83.778 591.999,85.953 592.579,87.986 593.179,90.192 593.767,92.321 594.392,94.711 594.993,96.693 595.554,98.808 596.153,101.116 596.726,103.057 597.321,105.22 597.895,107.41 598.544,109.497 599.028,111.63 599.687,113.965 600.326,115.997 600.817,118.001 601.455,120.542 602.085,122.684 602.604,124.563 603.258,126.523 604.108,128.784 604.745,130.983 605.342,133.161 605.92,135.119 606.469,137.279 607.107,139.52 607.763,141.82 608.378,143.976 608.96,146.013 609.581,148.183 610.095,149.977 610.809,152.469 611.164,153.706 611.931,156.908" fill="none" stroke="white" stroke-width="4"
            stroke-linejoin="round" stroke-linecap="round"/>
</svg>
