<?xml version="1.0" encoding="utf-8"?>
<svg xmlns="http://www.w3.org/2000/svg" width="1000" height="600">
  <polyline points="424.853,112.571 424.155,110.846 423.417,109.056 422.705,107.267 422.001,105.511 421.337,103.763 420.622,102.029 419.981,100.374 419.286,98.557 418.591,96.773 417.918,95.051 417.209,93.24 416.551,91.539 415.844,89.735 415.192,88.022 414.497,86.233 413.83,84.516 413.124,82.721 412.44,80.965 411.738,79.18 411.075,77.452 410.386,75.687 409.672,73.853 408.996,72.092 408.311,70.348 407.627,68.6 406.959,66.849 406.252,65.104 405.556,63.286 404.857,61.502 404.145,59.74 403.476,57.979 402.774,56.184 402.054,54.407 401.347,52.651 400.648,50.893 399.901,49.137 399.08,47.384 398.116,45.745 396.961,44.192 395.592,42.826 394.228,41.795 392.956,41.083 391.577,40.529 389.942,40.156 388.026,40.0 386.057,40.109 384.174,40.409 382.333,40.852 380.509,41.41 378.709,42.039 376.951,42.691 375.173,43.382 373.416,44.109 371.703,44.86 369.982,45.613 368.276,46.386 366.57,47.172 364.862,47.956 363.125,48.751 361.436,49.517 359.761,50.29 358.012,51.075 356.304,51.846 354.589,52.605 352.862,53.375 351.128,54.147 349.389,54.917 347.667,55.663 345.987,56.399 344.243,57.142 342.514,57.894 340.768,58.633 339.023,59.384 337.296,60.1 335.555,60.848 333.807,61.589 332.061,62.318 330.275,63.073 328.532,63.816 326.784,64.563 325.025,65.313 323.266,66.073 321.532,66.852 319.823,67.72 318.18,68.726 316.651,69.972 315.443,71.376 314.706,72.611 314.202,73.949 313.922,75.749 313.996,77.747 314.338,79.62 314.836,81.409 315.445,83.202 316.088,84.969 316.756,86.721 317.433,88.473 318.115,90.238 318.791,91.968 319.484,93.706 320.168,95.453 320.863,97.215 321.54,98.937 322.233,100.701 322.931,102.452 323.619,104.225 324.317,106.001 325.002,107.716 325.675,109.459 326.375,111.216 327.087,113.017 327.759,114.706 328.441,116.449 329.14,118.196 329.846,119.978 330.523,121.73 331.236,123.489 331.928,125.241 332.604,126.964 333.302,128.719 333.988,130.458 334.67,132.207 335.374,133.958 336.069,135.729 336.783,137.537 337.476,139.274 338.144,140.974 338.828,142.715 339.551,144.499 340.238,146.239 340.937,148.014 341.654,149.797 342.345,151.548 343.053,153.296 343.738,154.997 344.455,156.763 345.145,158.515 345.862,160.292 346.595,162.028 347.287,163.773 347.978,165.471 348.691,167.24 349.429,168.989 350.133,170.739 350.86,172.481 351.555,174.197 352.307,175.963 353.025,177.721 353.771,179.448 354.481,181.161 355.23,182.924 355.972,184.644 356.69,186.361 357.433,188.121 358.173,189.849 358.916,191.58 359.675,193.329 360.408,195.043 361.153,196.815 361.895,198.525 362.654,200.275 363.407,202.019 364.122,203.719 364.871,205.455 365.635,207.193 366.358,208.925 367.101,210.65 367.854,212.35 368.579,214.107 369.366,215.854 370.05,217.601 370.835,219.322 371.521,221.004 372.287,222.745 373.05,224.529 373.779,226.268 374.545,228.02 375.276,229.7 376.004,231.472 376.763,233.239 377.499,234.94 378.18,236.648 378.996,238.442 379.727,240.234 380.47,241.946 381.174,243.651 381.915,245.374 382.695,247.166 383.402,248.901 384.146,250.66 384.929,252.439 385.678,254.194 386.38,255.962 387.138,257.683 387.883,259.449 388.602,261.176 389.354,262.951 390.144,264.718 390.923,266.394 391.825,268.083 392.889,269.695 394.167,271.152 395.5,272.269 396.718,272.983 398.117,273.498 399.913,273.808 401.882,273.833 403.782,273.62 405.645,273.215 407.453,272.701 409.238,272.097 411.006,271.432 412.771,270.715 414.473,269.959 416.181,269.153 417.897,268.306 419.58,267.442 421.259,266.548 422.94,265.641 424.575,264.76 426.242,263.871 427.911,262.991 429.645,262.116 431.368,261.275 433.088,260.487 434.795,259.727 436.553,258.964 438.306,258.219 440.052,257.503 441.837,256.829 443.66,256.281 445.589,255.956 447.434,255.974 448.882,256.265 450.168,256.758 451.62,257.634 453.057,258.952 454.251,260.491 455.23,262.114 456.056,263.79 456.801,265.519 457.501,267.264 458.18,269.025 458.85,270.784 459.501,272.552 460.145,274.319 460.791,276.099 461.427,277.858 462.067,279.641 462.702,281.421 463.345,283.183 463.997,284.974 464.644,286.738 465.311,288.486 465.973,290.213 466.697,291.987 467.432,293.726 468.17,295.467 468.935,297.172 469.722,298.897 470.55,300.628 471.372,302.299 472.222,303.996 473.069,305.673 473.974,307.37 474.861,309.021 475.764,310.656 476.714,312.333 477.672,313.993 478.64,315.634 479.634,317.285 480.646,318.916 481.659,320.481 482.767,322.058 483.978,323.57 485.308,324.963 486.832,326.212 488.433,327.14 489.974,327.708 491.458,327.99 492.952,328.029 494.529,327.807 496.181,327.33 497.934,326.712 499.804,326.17 501.68,325.921 503.182,325.991 504.467,326.268 506.034,326.903 507.645,327.981 509.037,329.287 510.248,330.701 511.379,332.224 512.443,333.749 513.5,335.287 514.58,336.855 515.651,338.408 516.721,339.935 517.785,341.461 518.872,343.013 519.946,344.557 521.045,346.114 522.129,347.648 523.224,349.195 524.321,350.734 525.421,352.269 526.519,353.767 527.592,355.248 528.714,356.764 529.868,358.308 531.006,359.833 532.129,361.331 533.289,362.859 534.407,364.342 535.529,365.821 536.702,367.353 537.841,368.842 538.973,370.321 540.114,371.79 541.268,373.288 542.458,374.833 543.61,376.312 544.738,377.776 545.879,379.252 547.055,380.769 548.239,382.301 549.395,383.796 550.536,385.272 551.698,386.761 552.864,388.27 554.05,389.798 555.204,391.286 556.37,392.792 557.532,394.299 558.672,395.791 559.78,397.294 560.83,398.862 561.751,400.64 562.269,402.331 562.371,403.766 562.105,405.313 561.371,406.853 560.165,408.22 558.605,409.32 556.903,410.142 555.142,410.796 553.357,411.36 551.537,411.875 549.697,412.356 547.863,412.796 546.035,413.213 544.185,413.606 542.32,414.015 540.489,414.4 538.681,414.809 536.832,415.234 534.999,415.699 533.197,416.185 531.362,416.713 529.559,417.253 527.748,417.81 525.919,418.389 524.115,418.981 522.336,419.607 520.559,420.349 518.852,421.269 517.318,422.379 516.183,423.46 515.205,424.673 514.275,426.219 513.49,427.878 512.838,429.612 512.33,431.45 512.007,433.267 511.82,435.03 511.679,436.913 511.527,438.8 511.233,440.674 510.668,442.447 509.883,443.937 508.966,445.141 507.856,446.216 506.481,447.224 504.86,448.147 503.141,448.985 501.436,449.851 499.821,450.901 498.432,452.167 497.472,453.397 496.823,454.55 496.25,456.044 495.869,457.952 495.813,459.9 495.992,461.774 496.325,463.641 496.767,465.469 497.285,467.261 497.864,469.056 498.487,470.852 499.135,472.643 499.801,474.391 500.481,476.111 501.216,477.909 501.975,479.664 502.716,481.364 503.468,483.069 504.266,484.811 505.037,486.528 505.839,488.256 506.615,489.975 507.395,491.683 508.158,493.344 508.94,495.088 509.73,496.794 510.494,498.47 511.28,500.228 512.07,501.919 512.827,503.609 513.619,505.312 514.408,507.005 515.219,508.789 516.034,510.498 516.829,512.198 517.62,513.84 518.489,515.596 519.325,517.276 520.202,518.98 521.067,520.617 521.995,522.337 522.911,523.967 523.874,525.656 524.82,527.222 525.831,528.849 526.832,530.378 527.936,531.973 529.065,533.495 530.221,534.953 531.443,536.394 532.705,537.77 533.991,539.092 535.288,540.35 536.605,541.544 537.962,542.689 539.454,543.873 540.957,544.97 542.549,546.025 544.018,546.95 545.686,547.914 547.321,548.789 549.007,549.638 550.709,550.406 552.508,551.169 554.278,551.851 556.118,552.507 557.897,553.115 559.642,553.704 561.43,554.25 563.259,554.839 565.103,555.394 566.877,555.892 568.705,556.41 570.536,556.86 572.387,557.334 574.261,557.733 576.059,558.11 577.932,558.451 579.82,558.747 581.725,559.019 583.596,559.269 585.472,559.48 587.231,559.644 589.048,559.795 590.782,559.909 592.664,559.973 594.524,559.998 596.47,560.0 598.341,559.973 600.195,559.938 602.052,559.882 604.007,559.834 605.834,559.768 607.796,559.728 609.723,559.693 611.457,559.681 613.421,559.664 615.436,559.666 617.31,559.641 619.185,559.645 621.1,559.634 622.973,559.633 624.907,559.636 626.781,559.624 628.695,559.613 630.577,559.608 632.502,559.602 634.425,559.593 636.285,559.582 638.11,559.557 640.0,559.481 641.856,559.26 643.744,558.765 645.24,558.137 646.615,557.357 648.095,556.266 649.428,554.885 650.513,553.317 651.443,551.702 652.323,550.056 653.186,548.382 654.01,546.753 654.853,545.067 655.695,543.398 656.534,541.749 657.368,540.101 658.247,538.388 659.11,536.744 659.956,535.101 660.852,533.421 661.713,531.782 662.6,530.112 663.467,528.469 664.338,526.85 665.23,525.152 666.126,523.491 667.016,521.846 667.873,520.229 668.749,518.598 669.691,516.86 670.589,515.206 671.452,513.625 672.344,512.004 673.28,510.296 674.213,508.632 675.102,507.044 676.0,505.425 676.962,503.739 677.89,502.091 678.813,500.459 679.737,498.8 680.687,497.093 681.626,495.383 682.531,493.71 683.415,492.028 684.264,490.305 685.015,488.538 685.622,486.64 685.98,484.792 686.078,482.881 685.917,481.169 685.564,479.675 685.009,478.203 684.23,476.73 683.165,475.239 681.83,473.818 680.318,472.557 678.77,471.5 677.175,470.597 675.448,469.766 673.719,469.028 671.959,468.331 670.17,467.642 668.444,466.986 666.7,466.329 664.889,465.634 663.128,464.926 661.405,464.212 659.689,463.486 657.92,462.7 656.197,461.889 654.493,461.042 652.906,460.244 651.263,459.324 649.619,458.376 648.064,457.38 646.454,456.3 644.977,455.241 643.599,454.156 642.163,452.977 640.815,451.783 639.546,450.574 638.188,449.225 636.848,447.808 635.602,446.466 634.379,445.056 633.149,443.614 631.902,442.173 630.656,440.697 629.374,439.19 628.243,437.87 627.1,436.526 625.849,435.061 624.591,433.568 623.35,432.118 622.186,430.75 620.911,429.269 619.659,427.822 618.469,426.451 617.253,425.068 615.953,423.631 614.594,422.161 613.378,420.908 612.026,419.595 610.6,418.298 609.129,417.06 607.592,415.866 606.076,414.779 604.477,413.727 602.925,412.789 601.379,411.932 599.776,411.116 598.151,410.363 596.564,409.7 594.88,409.077 593.085,408.467 591.281,407.936 589.36,407.425 587.492,406.965 585.765,406.559 583.948,406.132 582.014,405.649 580.119,405.128 578.493,404.626 576.597,403.958 574.882,403.292 573.152,402.534 571.437,401.713 569.765,400.829 568.234,399.937 566.813,399.061 565.256,398.011 563.892,397.012 562.438,395.889 560.896,394.577 559.466,393.269 558.18,392.026 556.851,390.66 555.539,389.212 554.351,387.841 553.169,386.377 551.91,384.775 550.86,383.383 549.714,381.869 548.573,380.332 547.457,378.825 546.307,377.272 545.228,375.826 544.159,374.381 542.931,372.729 541.788,371.198 540.752,369.783 539.582,368.196 538.468,366.714 537.44,365.271 536.266,363.719 535.107,362.145 534.024,360.649 532.887,359.114 531.799,357.642 530.754,356.144 529.561,354.53 528.455,352.958 527.403,351.476 526.285,349.937 525.146,348.27 524.127,346.779 523.028,345.218 521.984,343.626 520.982,342.189 519.879,340.476 518.881,338.881 517.855,337.354 516.872,335.711 515.93,334.184 514.941,332.54 514.086,331.053 513.138,329.387 512.242,327.731 511.445,326.234 510.489,324.441 509.59,322.637 508.827,321.023 507.97,319.324 507.195,317.623 506.439,315.917 505.664,314.181 504.956,312.541 504.189,310.701 503.461,308.985 502.726,307.264 501.974,305.375 501.328,303.761 500.623,302.035 499.921,300.398 499.161,298.515 498.445,296.722 497.733,295.044 496.997,293.243 496.291,291.512 495.614,289.802 494.871,287.952 494.17,286.293 493.508,284.651 492.693,282.691 492.104,281.189 491.358,279.343 490.579,277.518 489.912,275.824 489.208,274.078 488.49,272.28 487.764,270.533 487.074,268.741 486.37,267.096 485.652,265.185 485.006,263.521 484.264,261.886 483.63,260.088 482.879,258.262 482.228,256.65 481.508,254.758 480.793,253.062 480.155,251.326 479.461,249.598 478.732,247.789 478.085,246.119 477.393,244.408 476.649,242.62 475.91,240.676 475.289,239.196 474.507,237.175 473.826,235.395 473.208,233.857 472.503,232.046 471.81,230.305 471.071,228.478 470.366,226.665 469.66,225.008 469.02,223.219 468.222,221.418 467.485,219.467 466.845,217.906 466.163,216.145 465.443,214.354 464.719,212.699 463.997,210.888 463.244,209.148 462.588,207.484 461.859,205.533 461.133,204.001 460.463,202.266 459.653,200.242 458.974,198.711 458.347,196.945 457.574,195.192 456.992,193.458 456.116,191.674 455.489,189.773 454.919,188.366 454.144,186.475 453.295,184.517 453.081,183.283 452.119,181.356 451.379,179.319 450.775,177.628 450.022,176.119 449.4,174.166 448.64,172.431 448.015,170.624 447.294,168.784 446.519,167.113 446.051,165.398 445.191,163.703 444.623,161.685 443.794,159.951 443.117,158.305 442.586,156.656 441.879,154.851 441.068,153.163 440.309,151.408 439.832,149.611 438.996,147.794 438.195,145.904 437.646,144.166 436.837,142.554 436.156,140.84 435.399,139.156 434.765,137.608 434.026,135.682 433.184,133.568 432.636,132.239 431.92,130.323 431.508,129.272 430.626,126.999 429.793,124.828 429.258,123.525 428.457,121.42 427.882,119.903 427.238,118.323 426.377,116.179 425.939,115.069 424.853,112.571" fill="none" stroke="white" stroke-width="4"
            stroke-linejoin="round" stroke-linecap="round"/>
</svg>
