<?xml version="1.0" encoding="utf-8"?>
<svg xmlns="http://www.w3.org/2000/svg" width="1000" height="600">
  <polyline points="425.319,112.362 424.608,110.544 423.933,108.79 423.278,107.112 422.592,105.389 421.883,103.614 421.188,101.799 420.496,100.033 419.786,98.265 419.13,96.557 418.429,94.785 417.729,93.071 417.067,91.292 416.353,89.493 415.649,87.731 414.966,85.97 414.298,84.258 413.583,82.48 412.867,80.633 412.184,78.905 411.512,77.166 410.836,75.49 410.152,73.732 409.435,71.935 408.743,70.144 408.049,68.412 407.364,66.693 406.643,64.9 405.932,63.09 405.218,61.312 404.521,59.563 403.801,57.806 403.106,56.057 402.373,54.296 401.648,52.529 400.902,50.76 400.115,49.024 399.234,47.323 398.24,45.675 397.036,44.122 395.656,42.774 394.286,41.763 392.953,41.033 391.56,40.5 389.912,40.133 388.009,40.0 386.046,40.101 384.179,40.399 382.338,40.849 380.51,41.415 378.705,42.037 376.928,42.703 375.201,43.394 373.466,44.106 371.743,44.871 370.018,45.653 368.312,46.427 366.612,47.207 364.881,48.005 363.164,48.792 361.422,49.601 359.721,50.359 358.001,51.151 356.267,51.916 354.603,52.676 352.845,53.434 351.139,54.197 349.404,54.944 347.69,55.69 345.945,56.446 344.211,57.198 342.47,57.924 340.788,58.65 339.043,59.388 337.277,60.14 335.544,60.869 333.77,61.605 332.044,62.349 330.27,63.09 328.504,63.843 326.767,64.567 325.046,65.309 323.268,66.064 321.523,66.857 319.82,67.704 318.188,68.702 316.634,69.962 315.423,71.37 314.682,72.599 314.186,73.941 313.91,75.736 313.973,77.697 314.314,79.573 314.817,81.392 315.424,83.188 316.088,84.972 316.743,86.695 317.405,88.432 318.097,90.187 318.781,91.948 319.462,93.691 320.143,95.435 320.839,97.181 321.515,98.918 322.202,100.664 322.906,102.453 323.611,104.234 324.279,105.961 324.984,107.713 325.667,109.462 326.363,111.209 327.07,112.976 327.745,114.698 328.449,116.475 329.134,118.198 329.807,119.921 330.51,121.673 331.22,123.46 331.93,125.207 332.638,126.984 333.358,128.756 334.064,130.503 334.752,132.238 335.467,133.947 336.181,135.676 336.863,137.439 337.604,139.209 338.306,140.94 338.997,142.706 339.724,144.458 340.405,146.168 341.115,147.927 341.81,149.676 342.519,151.435 343.216,153.178 343.924,154.973 344.667,156.766 345.317,158.504 346.035,160.185 346.677,161.899 347.413,163.673 348.133,165.491 348.834,167.225 349.543,168.953 350.267,170.703 350.941,172.384 351.662,174.159 352.414,175.909 353.132,177.651 353.827,179.348 354.585,181.121 355.31,182.879 356.028,184.61 356.75,186.341 357.486,188.053 358.228,189.801 358.958,191.562 359.719,193.322 360.451,195.045 361.163,196.748 361.927,198.532 362.654,200.235 363.408,201.926 364.14,203.688 364.885,205.434 365.643,207.157 366.425,208.916 367.11,210.635 367.863,212.365 368.619,214.089 369.351,215.855 370.084,217.581 370.847,219.293 371.556,220.993 372.263,222.717 373.065,224.528 373.804,226.272 374.538,227.974 375.251,229.687 375.991,231.428 376.732,233.17 377.47,234.939 378.224,236.72 378.922,238.395 379.676,240.131 380.403,241.908 381.152,243.656 381.868,245.403 382.626,247.172 383.37,248.932 384.092,250.678 384.836,252.386 385.54,254.122 386.298,255.876 387.044,257.677 387.808,259.461 388.543,261.206 389.29,262.95 390.07,264.719 390.877,266.435 391.792,268.12 392.856,269.72 394.126,271.169 395.433,272.281 396.677,273.017 398.11,273.546 399.918,273.844 401.875,273.854 403.774,273.624 405.619,273.226 407.417,272.703 409.213,272.108 410.996,271.43 412.754,270.729 414.48,269.958 416.185,269.157 417.891,268.317 419.584,267.445 421.254,266.553 422.903,265.665 424.581,264.767 426.265,263.868 427.929,263.011 429.603,262.164 431.336,261.325 433.088,260.526 434.831,259.753 436.575,258.99 438.324,258.251 440.082,257.529 441.866,256.854 443.675,256.308 445.594,255.978 447.427,255.976 448.873,256.247 450.169,256.737 451.632,257.642 453.053,258.976 454.225,260.512 455.198,262.143 456.034,263.822 456.778,265.534 457.496,267.306 458.163,269.04 458.827,270.794 459.48,272.566 460.119,274.334 460.773,276.105 461.404,277.868 462.039,279.643 462.687,281.427 463.329,283.204 463.971,284.979 464.619,286.725 465.28,288.496 465.974,290.251 466.668,291.99 467.389,293.716 468.144,295.47 468.924,297.217 469.714,298.931 470.526,300.637 471.358,302.33 472.226,304.051 473.085,305.742 473.949,307.363 474.845,309.041 475.775,310.701 476.711,312.364 477.67,314.017 478.628,315.64 479.606,317.266 480.626,318.904 481.667,320.511 482.755,322.056 483.954,323.553 485.299,324.965 486.822,326.215 488.428,327.148 489.963,327.714 491.47,327.999 492.976,328.031 494.541,327.803 496.21,327.319 497.955,326.709 499.799,326.177 501.68,325.93 503.18,326.002 504.458,326.273 506.051,326.908 507.659,327.984 509.036,329.296 510.257,330.733 511.38,332.249 512.449,333.786 513.505,335.328 514.558,336.87 515.625,338.422 516.693,339.954 517.763,341.488 518.834,343.02 519.916,344.566 521.016,346.122 522.103,347.666 523.195,349.196 524.277,350.72 525.369,352.236 526.496,353.783 527.602,355.302 528.709,356.805 529.852,358.336 530.975,359.846 532.096,361.336 533.259,362.878 534.376,364.355 535.512,365.838 536.635,367.343 537.784,368.815 538.927,370.327 540.092,371.829 541.255,373.338 542.426,374.842 543.529,376.277 544.686,377.762 545.868,379.3 547.022,380.787 548.199,382.304 549.378,383.829 550.535,385.317 551.706,386.821 552.865,388.314 554.028,389.809 555.212,391.33 556.37,392.823 557.519,394.307 558.664,395.803 559.773,397.301 560.829,398.873 561.756,400.659 562.27,402.337 562.374,403.758 562.105,405.325 561.366,406.875 560.17,408.23 558.607,409.332 556.901,410.156 555.15,410.804 553.364,411.366 551.551,411.876 549.724,412.35 547.889,412.786 546.052,413.196 544.214,413.594 542.364,413.989 540.52,414.39 538.67,414.797 536.818,415.235 534.989,415.698 533.186,416.196 531.384,416.713 529.554,417.265 527.736,417.826 525.925,418.4 524.117,418.991 522.337,419.619 520.576,420.354 518.863,421.278 517.331,422.382 516.195,423.46 515.212,424.676 514.271,426.236 513.487,427.889 512.831,429.627 512.323,431.467 512.005,433.254 511.815,435.033 511.674,436.903 511.523,438.791 511.23,440.683 510.661,442.469 509.869,443.96 508.951,445.16 507.859,446.221 506.468,447.244 504.828,448.176 503.134,448.999 501.437,449.862 499.814,450.921 498.438,452.174 497.474,453.408 496.813,454.581 496.245,456.069 495.869,457.956 495.811,459.912 495.993,461.806 496.33,463.673 496.778,465.502 497.301,467.291 497.881,469.082 498.501,470.869 499.144,472.627 499.819,474.402 500.525,476.177 501.253,477.932 502.002,479.663 502.759,481.38 503.527,483.092 504.312,484.817 505.099,486.559 505.877,488.254 506.654,489.977 507.443,491.694 508.207,493.377 508.978,495.07 509.764,496.789 510.547,498.512 511.331,500.233 512.116,501.951 512.893,503.641 513.672,505.355 514.466,507.075 515.252,508.784 516.056,510.505 516.871,512.24 517.697,513.952 518.517,515.634 519.375,517.337 520.244,519.031 521.124,520.705 522.02,522.358 522.935,524.003 523.874,525.638 524.845,527.267 525.849,528.877 526.88,530.451 527.943,531.987 529.06,533.499 530.245,534.993 531.475,536.436 532.758,537.839 534.048,539.163 535.342,540.411 536.696,541.628 538.067,542.792 539.516,543.928 540.988,544.998 542.506,546.006 544.129,547.009 545.769,547.954 547.389,548.819 549.094,549.652 550.86,550.455 552.581,551.184 554.338,551.86 556.129,552.505 557.904,553.12 559.726,553.71 561.545,554.29 563.337,554.849 565.15,555.389 566.958,555.908 568.795,556.406 570.645,556.874 572.488,557.32 574.337,557.726 576.183,558.094 578.043,558.442 579.923,558.742 581.811,559.02 583.73,559.269 585.583,559.476 587.368,559.651 589.141,559.794 590.918,559.905 592.731,559.974 594.597,560.0 596.53,559.991 598.432,559.96 600.271,559.918 602.189,559.856 604.098,559.798 605.967,559.745 607.823,559.713 609.724,559.682 611.665,559.665 613.538,559.654 615.429,559.641 617.338,559.635 619.239,559.634 621.125,559.636 623.011,559.632 624.92,559.628 626.846,559.628 628.752,559.623 630.656,559.615 632.563,559.609 634.451,559.608 636.326,559.598 638.176,559.575 640.042,559.503 641.915,559.279 643.766,558.787 645.296,558.139 646.662,557.359 648.134,556.265 649.458,554.888 650.528,553.335 651.46,551.706 652.341,550.055 653.195,548.389 654.028,546.728 654.858,545.07 655.704,543.383 656.549,541.696 657.394,540.036 658.243,538.374 659.116,536.704 659.987,535.031 660.862,533.373 661.729,531.718 662.609,530.069 663.486,528.41 664.372,526.753 665.265,525.077 666.157,523.409 667.035,521.774 667.909,520.138 668.802,518.499 669.7,516.833 670.6,515.174 671.509,513.522 672.405,511.883 673.309,510.253 674.233,508.594 675.149,506.957 676.083,505.307 677.012,503.658 677.938,502.025 678.883,500.349 679.817,498.684 680.733,497.035 681.654,495.361 682.559,493.689 683.441,492.011 684.285,490.301 685.036,488.533 685.632,486.667 686.0,484.738 686.09,482.859 685.924,481.159 685.558,479.635 684.996,478.168 684.22,476.716 683.152,475.229 681.803,473.799 680.322,472.564 678.748,471.492 677.09,470.562 675.379,469.743 673.66,469.008 671.896,468.307 670.106,467.618 668.351,466.95 666.594,466.286 664.825,465.604 663.064,464.902 661.31,464.182 659.577,463.439 657.868,462.665 656.181,461.886 654.491,461.055 652.805,460.179 651.148,459.267 649.516,458.3 647.935,457.3 646.433,456.288 644.945,455.207 643.511,454.098 642.135,452.959 640.762,451.739 639.431,450.478 638.115,449.152 636.822,447.787 635.556,446.387 634.306,444.962 633.087,443.542 631.868,442.112 630.641,440.672 629.404,439.22 628.175,437.776 626.959,436.346 625.74,434.914 624.523,433.485 623.297,432.05 622.074,430.619 620.858,429.204 619.619,427.771 618.361,426.33 617.106,424.908 615.855,423.519 614.584,422.151 613.251,420.781 611.881,419.458 610.477,418.19 609.011,416.964 607.497,415.793 605.95,414.693 604.384,413.667 602.804,412.721 601.233,411.853 599.665,411.063 598.069,410.328 596.384,409.629 594.651,408.988 592.883,408.402 591.062,407.869 589.262,407.389 587.429,406.941 585.583,406.51 583.771,406.087 581.954,405.636 580.135,405.134 578.284,404.561 576.474,403.924 574.708,403.224 572.958,402.453 571.267,401.63 569.666,400.779 568.144,399.898 566.648,398.959 565.149,397.942 563.688,396.87 562.267,395.746 560.829,394.517 559.402,393.216 558.05,391.889 556.735,390.528 555.473,389.134 554.235,387.694 553.048,386.229 551.897,384.741 550.755,383.232 549.64,381.736 548.51,380.211 547.392,378.694 546.264,377.167 545.126,375.634 544.033,374.153 542.89,372.619 541.76,371.096 540.666,369.629 539.529,368.099 538.389,366.556 537.267,365.037 536.163,363.537 535.054,362.028 533.934,360.505 532.812,358.981 531.689,357.429 530.581,355.897 529.495,354.418 528.402,352.902 527.301,351.329 526.185,349.765 525.118,348.227 524.059,346.695 523.009,345.125 521.939,343.532 520.896,341.965 519.854,340.392 518.828,338.806 517.82,337.206 516.834,335.625 515.875,334.054 514.932,332.472 513.991,330.856 513.074,329.225 512.177,327.582 511.308,325.939 510.452,324.287 509.601,322.582 508.771,320.879 507.968,319.158 507.182,317.451 506.424,315.748 505.659,314.011 504.898,312.254 504.181,310.517 503.448,308.742 502.728,306.999 502.016,305.271 501.326,303.589 500.606,301.876 499.891,300.125 499.176,298.374 498.457,296.601 497.735,294.83 497.05,293.079 496.336,291.345 495.623,289.587 494.901,287.809 494.183,286.028 493.492,284.347 492.767,282.619 492.053,280.853 491.339,279.086 490.626,277.317 489.935,275.566 489.217,273.826 488.502,272.055 487.788,270.283 487.113,268.593 486.41,266.888 485.712,265.137 485.0,263.363 484.308,261.611 483.606,259.894 482.905,258.142 482.228,256.397 481.544,254.596 480.888,252.887 480.195,251.099 479.486,249.329 478.777,247.557 478.084,245.822 477.388,244.083 476.679,242.307 475.974,240.526 475.279,238.787 474.578,237.043 473.867,235.26 473.197,233.583 472.487,231.81 471.775,230.023 471.083,228.281 470.389,226.54 469.677,224.75 468.986,223.004 468.34,221.337 467.624,219.492 466.941,217.759 466.252,216.032 465.541,214.239 464.856,212.506 464.161,210.781 463.441,208.992 462.746,207.262 462.053,205.604 461.246,203.82 460.491,202.019 459.777,200.32 459.056,198.605 458.286,196.811 457.551,195.121 456.8,193.421 456.014,191.635 455.288,189.939 454.531,188.243 453.746,186.456 453.026,184.756 452.26,183.066 451.475,181.279 450.762,179.573 449.99,177.885 449.207,176.096 448.504,174.383 447.734,172.695 446.972,170.895 446.292,169.171 445.546,167.473 444.809,165.662 444.156,163.926 443.438,162.216 442.728,160.394 442.104,158.647 441.405,156.931 440.717,155.102 440.12,153.347 439.433,151.628 438.756,149.797 438.159,148.042 437.468,146.327 436.788,144.499 436.109,142.671 435.514,140.921 434.82,139.204 434.139,137.378 433.54,135.629 432.844,133.916 432.16,132.092 431.555,130.343 430.858,128.634 430.169,126.812 429.479,124.989 428.869,123.242 428.169,121.529 427.479,119.703 426.864,117.949 425.819,116.479 425.397,115.356 425.319,112.362" fill="none" stroke="white" stroke-width="4"
            stroke-linejoin="round" stroke-linecap="round"/>
</svg>
