<?xml version="1.0" encoding="utf-8"?>
<svg xmlns="http://www.w3.org/2000/svg" width="1000" height="600">
  <polyline points="318.012,450.189 314.186,448.052 310.293,446.02 306.458,443.968 302.668,441.878 298.783,439.819 295.015,437.79 291.404,435.807 287.401,433.663 283.546,431.528 279.713,429.491 275.944,427.335 272.095,425.356 268.359,423.166 264.45,421.125 260.53,418.902 256.898,416.974 253.072,414.819 249.24,412.848 245.316,410.544 241.528,408.525 237.683,406.336 233.936,404.389 230.292,402.279 226.359,400.184 222.478,398.004 218.584,395.855 214.794,393.771 211.107,391.641 207.19,389.645 203.352,387.533 199.527,385.295 195.869,383.191 191.86,381.331 188.092,378.976 184.189,376.995 180.481,374.831 176.788,372.765 172.703,370.626 168.851,368.427 165.219,366.447 161.202,364.248 157.39,362.109 153.632,360.02 149.809,358.019 145.981,355.716 142.181,353.627 138.177,351.479 134.479,349.368 130.734,347.102 126.782,345.017 123.114,342.696 119.35,340.61 115.501,338.282 111.606,335.919 107.874,333.53 104.22,331.081 100.707,328.556 97.156,325.8 93.616,322.717 90.337,319.579 87.323,316.228 84.498,312.733 81.962,309.004 79.789,305.13 78.059,301.183 76.78,297.034 76.031,292.949 75.757,289.031 75.877,285.202 76.398,281.52 77.348,277.952 78.592,274.674 80.159,271.641 82.017,268.673 84.229,265.847 86.921,263.165 89.991,260.611 93.266,258.237 96.772,255.842 100.315,253.426 103.759,250.97 107.234,248.135 110.462,245.136 113.414,242.029 116.046,238.787 118.268,235.648 120.164,232.548 121.75,229.446 123.158,226.22 124.449,222.688 125.585,219.036 126.589,214.942 127.315,210.661 127.705,206.278 127.923,201.764 127.853,197.296 127.607,192.841 127.159,188.534 126.627,184.399 126.054,180.3 125.446,176.1 124.961,172.063 124.596,167.956 124.379,163.83 124.267,159.685 124.373,155.449 124.638,151.258 124.968,147.163 125.542,143.111 126.234,139.098 127.084,135.042 128.125,130.976 129.284,126.997 130.72,122.899 132.206,119.025 133.882,115.139 135.7,111.329 137.611,107.622 139.729,103.983 142.024,100.366 144.389,96.856 146.935,93.391 149.585,90.073 152.299,86.876 155.18,83.759 158.042,80.826 161.121,77.924 164.247,75.157 167.504,72.467 171.004,69.766 174.359,67.41 177.799,65.074 181.576,62.735 185.248,60.613 189.133,58.514 192.912,56.626 196.678,54.864 200.775,53.151 204.828,51.548 208.693,50.165 212.77,48.809 216.951,47.589 221.234,46.412 225.615,45.288 229.938,44.397 234.251,43.508 238.543,42.81 242.805,42.117 247.183,41.61 251.667,41.132 256.06,40.76 260.233,40.547 264.717,40.336 269.261,40.171 273.54,40.058 277.907,40.078 282.286,40.0 286.713,40.068 291.11,40.111 295.43,40.161 299.731,40.212 304.201,40.346 308.479,40.386 312.751,40.546 317.013,40.645 321.502,40.758 325.974,40.923 330.333,41.008 334.668,41.141 338.973,41.293 343.24,41.335 347.429,41.493 351.861,41.589 356.119,41.675 360.623,41.838 364.937,41.925 369.321,41.987 373.681,42.067 378.02,42.166 382.457,42.22 386.741,42.267 391.003,42.365 395.416,42.406 399.879,42.506 404.017,42.545 408.656,42.582 412.971,42.671 417.215,42.736 421.618,42.773 426.205,42.834 430.55,42.892 434.65,42.992 439.13,42.971 443.665,43.035 447.866,43.172 452.143,43.173 456.547,43.16 460.959,43.366 465.195,43.243 469.697,43.356 474.0,43.534 478.395,43.445 482.82,43.586 486.973,43.554 491.531,43.725 495.722,43.753 500.085,43.827 504.75,43.839 508.954,43.92 513.1,43.871 517.441,44.051 521.866,44.065 526.126,44.067 530.502,44.182 535.08,44.177 539.338,44.381 543.682,44.23 547.962,44.329 552.27,44.299 556.592,44.376 561.113,44.379 565.518,44.363 569.723,44.583 574.157,44.357 578.58,44.589 582.913,44.407 587.196,44.577 591.448,44.499 596.169,44.547 600.198,44.468 604.756,44.378 609.016,44.57 613.46,44.399 617.902,44.465 622.087,44.447 626.51,44.399 630.686,44.462 635.157,44.308 639.638,44.338 643.97,44.334 648.328,44.325 652.548,44.172 657.1,44.218 661.583,44.233 666.036,44.209 670.385,44.219 674.648,44.222 679.095,44.167 683.575,44.217 688.035,44.227 692.293,44.282 696.686,44.298 701.109,44.278 705.412,44.435 709.763,44.539 714.19,44.852 718.562,45.305 722.959,45.951 727.284,46.893 731.723,48.096 735.916,49.543 739.853,51.244 743.471,53.133 746.841,55.189 749.96,57.472 752.91,59.847 755.607,62.448 758.177,65.285 760.594,68.305 762.663,71.276 764.573,74.511 766.382,77.953 767.983,81.611 769.433,85.664 770.646,89.926 771.559,94.203 772.267,98.58 772.717,102.938 772.954,107.297 772.957,111.644 772.885,115.931 772.624,120.365 772.243,124.725 771.733,129.128 771.084,133.488 770.334,137.882 769.472,142.185 768.49,146.446 767.371,150.74 766.145,154.924 764.756,159.172 763.269,163.284 761.67,167.299 759.952,171.26 758.11,175.172 756.15,178.996 754.102,182.736 751.939,186.383 749.667,189.995 747.271,193.519 744.867,196.85 742.29,200.222 739.585,203.543 736.925,206.593 734.153,209.651 731.184,212.675 728.302,215.493 725.14,218.418 721.733,221.321 718.471,224.058 715.103,226.607 711.676,229.158 708.007,231.647 704.289,234.005 700.598,236.282 696.721,238.466 692.822,240.545 688.944,242.494 685.005,244.314 681.023,246.1 676.975,247.758 672.829,249.423 668.817,250.936 664.796,252.431 660.623,253.904 656.581,255.354 652.507,256.785 648.326,258.25 644.214,259.682 640.12,261.02 635.978,262.443 631.892,263.803 627.732,265.205 623.603,266.529 619.55,267.881 615.268,269.289 610.989,270.669 606.918,271.981 602.946,273.324 598.696,274.671 594.543,276.064 590.354,277.433 586.107,278.871 582.126,280.097 578.002,281.5 573.818,282.928 569.779,284.235 565.595,285.664 561.56,287.017 557.37,288.445 553.267,289.849 549.066,291.275 545.05,292.675 540.878,294.133 536.6,295.62 532.604,297.019 528.441,298.482 524.301,299.961 520.371,301.36 516.233,302.824 512.275,304.254 508.111,305.744 503.88,307.292 499.965,308.712 495.892,310.191 491.558,311.79 487.597,313.261 483.608,314.793 479.408,316.472 475.31,318.197 471.48,319.94 467.585,321.858 463.642,323.984 459.783,326.246 456.027,328.665 452.518,331.133 449.12,333.771 445.932,336.498 442.972,339.289 440.133,342.252 437.469,345.315 434.886,348.614 432.489,352.004 430.246,355.551 428.18,359.219 426.371,362.846 424.69,366.728 423.22,370.694 421.927,374.827 420.856,378.985 420.01,383.167 419.379,387.406 418.98,391.515 418.784,395.83 418.816,400.069 419.078,404.376 419.557,408.628 420.275,412.858 421.206,417.029 422.328,421.03 423.653,425.011 425.125,428.832 426.765,432.553 428.538,436.13 430.464,439.629 432.55,443.084 434.776,446.476 437.232,449.83 439.773,452.957 442.708,456.25 445.835,459.462 449.048,462.45 452.219,465.2 455.782,468.035 459.481,470.761 463.105,473.209 466.774,475.494 470.599,477.614 474.546,479.711 478.422,481.605 482.466,483.514 486.45,485.423 490.462,487.296 494.572,489.183 498.536,491.001 502.548,492.791 506.66,494.543 510.809,496.22 515.01,497.747 519.202,499.064 523.463,500.171 527.834,501.039 532.196,501.574 536.579,501.698 540.833,501.301 544.812,500.324 548.379,498.853 551.437,497.018 554.1,494.795 556.366,492.238 558.205,489.467 559.709,486.42 560.893,483.019 561.67,479.355 562.022,475.382 561.922,471.256 561.435,467.018 560.659,462.755 559.8,458.495 558.961,454.157 558.252,449.838 557.754,445.64 557.469,441.533 557.398,437.549 557.57,433.673 558.004,429.986 558.749,426.348 559.892,422.695 561.427,419.156 563.359,415.828 565.686,412.766 568.435,409.989 571.47,407.64 574.867,405.668 578.516,404.134 582.332,403.094 586.248,402.533 590.088,402.432 593.967,402.749 597.702,403.45 601.331,404.495 604.938,405.889 608.536,407.658 612.168,409.859 615.561,412.28 618.833,414.967 622.159,418.069 625.26,421.322 628.093,424.626 630.798,428.11 633.324,431.653 635.753,435.326 638.043,439.035 640.244,442.812 642.366,446.571 644.459,450.306 646.53,454.006 648.668,457.762 650.896,461.495 653.157,465.179 655.431,468.68 657.768,472.168 660.24,475.61 662.751,478.976 665.42,482.32 668.214,485.692 671.158,489.005 674.138,492.189 677.181,495.216 680.362,498.215 683.703,501.167 687.194,504.073 690.692,506.773 694.23,509.322 697.913,511.757 701.691,514.036 705.577,516.151 709.572,518.072 713.777,519.793 718.005,521.188 722.36,522.199 726.779,522.695 731.123,522.531 735.097,521.698 738.695,520.214 741.763,518.266 744.251,516.033 746.351,513.49 747.967,510.834 749.243,507.876 750.167,504.436 750.586,500.75 750.465,496.7 749.757,492.337 748.558,488.063 746.975,483.971 745.047,480.008 742.836,476.116 740.516,472.451 738.094,468.957 735.54,465.528 732.816,462.087 730.03,458.699 727.244,455.312 724.592,452.019 721.868,448.521 719.308,445.041 716.783,441.368 714.48,437.714 712.381,434.09 710.368,430.225 708.58,426.345 706.996,422.407 705.572,418.305 704.381,414.25 703.395,410.139 702.615,405.995 702.055,401.812 701.713,397.613 701.583,393.495 701.648,389.401 701.91,385.412 702.369,381.246 703.068,377.123 703.965,373.031 705.062,369.019 706.37,365.022 707.753,361.281 709.445,357.389 711.303,353.521 713.154,350.098 715.182,346.654 717.41,343.25 719.771,339.915 722.447,336.442 725.039,333.388 727.857,330.33 730.93,327.289 734.105,324.387 737.375,321.614 740.713,319.026 744.134,316.603 747.799,314.149 751.447,311.976 755.31,309.921 759.248,307.876 763.329,305.999 767.448,304.265 771.543,302.738 775.636,301.319 779.784,300.0 784.076,298.811 788.178,297.605 792.522,296.456 796.66,295.325 800.735,294.269 805.186,293.029 809.312,291.9 813.451,290.638 817.613,289.439 821.641,288.199 825.958,286.901 830.157,285.61 834.295,284.352 838.605,283.019 842.823,281.729 846.983,280.442 851.111,279.174 855.532,277.839 859.734,276.606 863.895,275.454 868.114,274.413 872.538,273.555 876.977,272.99 881.507,272.807 885.881,273.063 890.105,273.774 894.142,274.938 897.667,276.393 900.826,278.075 903.744,280.001 906.443,282.162 909.022,284.629 911.538,287.51 913.964,290.864 916.136,294.534 917.996,298.447 919.6,302.681 920.888,307.016 921.906,311.425 922.645,315.656 923.232,319.946 923.678,324.381 923.988,328.59 924.168,332.928 924.243,337.429 924.184,341.778 924.0,346.131 923.692,350.383 923.296,354.72 922.768,359.182 922.162,363.447 921.393,367.755 920.639,371.828 919.662,376.025 918.667,380.219 917.587,384.206 916.306,388.363 915.04,392.536 913.678,396.49 912.306,400.375 910.631,404.625 908.88,408.85 907.208,412.825 905.553,416.54 903.769,420.486 901.869,424.32 899.865,428.349 897.841,432.108 895.791,435.941 893.778,439.657 891.586,443.356 889.439,447.034 887.029,450.936 884.689,454.618 882.461,458.108 880.078,461.641 877.527,465.357 874.953,468.911 872.56,472.217 870.025,475.565 867.059,479.376 864.456,482.601 861.733,485.857 858.938,489.193 855.966,492.506 853.124,495.675 850.17,498.727 847.184,501.769 844.002,504.855 840.863,507.833 837.541,510.825 834.235,513.696 830.97,516.426 827.683,519.036 824.122,521.803 820.836,524.2 817.591,526.536 813.966,528.946 809.948,531.544 806.649,533.537 803.138,535.585 799.478,537.593 795.793,539.473 791.974,541.32 788.072,543.097 784.284,544.717 780.191,546.332 776.702,547.622 772.602,549.069 768.314,550.426 764.165,551.614 760.008,552.767 755.836,553.757 752.035,554.626 747.721,555.455 743.364,556.264 739.209,556.958 734.839,557.594 730.494,558.151 726.463,558.552 721.998,558.999 717.331,559.294 713.095,559.502 708.704,559.793 704.25,559.905 700.434,560.0 695.686,559.922 691.319,559.903 687.085,559.821 682.268,559.778 677.982,559.712 673.954,559.533 669.249,559.355 664.852,559.16 660.963,559.071 656.408,558.898 651.987,558.689 647.695,558.491 643.225,558.319 638.831,558.1 634.535,557.876 630.482,557.659 625.74,557.354 621.652,557.148 617.205,556.923 613.135,556.75 608.729,556.39 604.107,556.168 599.962,555.759 595.319,555.619 590.958,554.932 586.729,554.648 582.558,554.282 577.974,553.739 573.798,553.28 569.372,552.612 565.359,552.109 561.232,551.29 556.119,550.728 551.991,549.824 547.613,549.114 542.948,548.198 539.155,547.465 534.861,546.894 530.444,545.591 526.135,544.499 521.501,543.684 517.65,542.622 513.429,541.572 509.312,540.802 505.501,539.237 501.079,538.379 497.399,537.14 493.023,535.67 488.647,534.178 485.277,533.092 481.165,531.837 477.811,530.502 474.424,529.159 469.609,527.182 465.298,525.576 460.888,523.898 458.053,522.719 453.655,520.999 449.688,519.374 446.252,517.821 441.585,515.848 438.832,514.667 433.554,512.35 429.871,510.696 425.847,508.856 421.227,506.691 417.835,505.078 414.365,503.397 409.526,501.01 406.94,499.718 402.094,497.252 398.186,495.235 394.594,493.356 389.982,490.925 386.57,489.112 382.836,487.082 379.466,485.195 375.782,483.074 371.528,480.587 367.441,478.19 363.268,475.746 360.763,474.28 356.753,471.935 352.231,469.317 348.705,467.294 345.274,465.335 341.638,463.265 338.263,461.363 333.773,458.875 330.971,457.337 326.378,454.83 323.313,453.163 318.012,450.189" fill="none" stroke="white" stroke-width="4"
            stroke-linejoin="round" stroke-linecap="round"/>
</svg>
