<?xml version="1.0" encoding="utf-8"?>
<svg xmlns="http://www.w3.org/2000/svg" width="1000" height="600">
  <polyline points="639.337,526.144 643.725,525.089 647.686,524.131 651.869,523.151 655.98,522.116 659.971,521.19 664.124,520.116 668.205,519.18 672.455,518.093 676.577,517.105 680.836,516.084 685.022,514.999 688.958,514.066 692.976,513.086 697.337,511.952 701.379,511.027 705.551,509.946 709.767,508.944 713.581,507.932 717.935,506.893 721.968,505.896 726.097,504.876 730.248,503.785 734.384,502.739 738.64,501.752 742.618,500.683 746.72,499.651 750.838,498.613 754.976,497.599 759.182,496.509 763.288,495.474 767.392,494.399 771.389,493.446 775.674,492.313 779.722,491.329 783.585,490.327 787.641,489.293 791.867,488.212 796.055,487.135 800.304,486.075 804.501,484.977 808.588,483.931 812.736,482.861 816.913,481.771 820.864,480.751 824.916,479.701 829.171,478.59 833.482,477.446 837.576,476.362 841.717,475.239 845.897,474.108 850.094,472.936 854.134,471.774 858.4,470.495 862.548,469.187 866.742,467.778 870.691,466.339 874.757,464.721 878.825,462.922 882.71,460.979 886.575,458.765 890.331,456.299 893.885,453.627 897.149,450.78 900.198,447.638 902.882,444.268 905.131,440.675 906.856,437.044 908.134,433.361 908.985,429.698 909.393,426.121 909.348,422.545 908.9,419.064 908.167,415.808 907.152,412.571 905.798,409.321 904.023,406.112 901.744,402.904 899.221,399.845 896.564,396.799 893.786,393.623 891.128,390.366 888.64,386.922 886.334,383.226 884.331,379.457 882.756,375.909 881.492,372.418 880.507,368.917 879.802,365.57 879.296,362.065 878.978,358.428 878.839,354.666 878.92,350.64 879.298,346.53 879.987,342.248 880.955,337.851 882.156,333.491 883.49,329.403 884.922,325.568 886.484,321.766 888.074,318.078 889.666,314.311 891.154,310.588 892.542,306.825 893.816,302.911 894.931,299.049 895.879,295.204 896.714,291.272 897.389,287.264 897.921,283.287 898.292,279.336 898.52,275.163 898.574,270.991 898.47,267.011 898.206,263.009 897.76,258.818 897.173,254.773 896.443,250.745 895.535,246.767 894.492,242.736 893.32,238.877 891.887,234.828 890.337,230.86 888.73,227.127 886.979,223.475 885.134,219.911 883.089,216.317 880.93,212.77 878.697,209.427 876.253,205.891 873.82,202.802 871.24,199.608 868.518,196.498 865.574,193.357 862.588,190.345 859.578,187.455 856.499,184.726 853.328,182.082 849.969,179.42 846.614,176.986 843.144,174.491 839.53,172.169 835.997,169.951 832.414,167.862 828.57,165.773 824.784,163.682 820.85,161.842 817.074,160.048 813.217,158.366 809.123,156.68 805.059,155.094 801.171,153.743 797.068,152.284 793.106,151.087 788.939,149.812 784.687,148.566 780.646,147.414 776.623,146.321 772.374,145.268 768.08,144.148 764.119,143.159 760.117,142.108 755.798,141.075 751.455,140.009 747.436,139.052 743.496,138.099 739.349,137.166 735.116,136.131 731.063,135.138 726.872,134.173 722.709,133.132 718.551,132.181 714.653,131.238 710.523,130.232 706.251,129.195 702.202,128.213 698.107,127.166 693.986,126.192 689.677,125.149 685.648,124.124 681.683,123.184 677.436,122.039 673.252,121.02 669.29,120.033 664.955,118.968 660.805,117.889 656.837,116.812 652.781,115.833 648.628,114.77 644.489,113.642 640.349,112.691 635.988,111.511 631.914,110.479 628.002,109.375 623.661,108.36 619.558,107.237 615.5,106.188 611.37,105.14 607.448,104.103 603.409,103.032 599.058,101.925 594.97,100.865 590.966,99.839 586.686,98.688 582.681,97.639 578.625,96.629 574.437,95.533 570.401,94.473 566.266,93.394 562.027,92.327 557.984,91.288 554.025,90.24 550.091,89.131 545.498,88.07 541.331,86.867 537.412,85.92 533.314,84.807 529.161,83.715 525.243,82.734 521.199,81.608 516.878,80.497 512.806,79.426 508.691,78.328 504.606,77.219 500.477,76.193 496.309,75.02 492.199,73.967 488.017,72.819 483.977,71.746 479.979,70.692 475.765,69.52 471.617,68.42 467.815,67.366 463.635,66.25 459.141,65.042 455.349,63.996 451.378,62.922 446.988,61.726 442.851,60.567 438.963,59.534 434.659,58.359 430.534,57.21 426.641,56.17 422.44,55.013 418.113,53.873 414.182,52.789 409.982,51.675 405.856,50.581 401.709,49.485 397.519,48.359 393.366,47.262 389.195,46.166 385.002,45.056 380.967,44.035 376.767,43.015 372.496,42.064 368.298,41.258 364.148,40.628 359.855,40.195 355.401,40.0 350.971,40.078 346.587,40.447 342.39,41.115 338.572,42.025 334.913,43.174 331.4,44.543 328.137,46.063 324.987,47.786 321.768,49.836 318.773,52.04 316.079,54.319 313.387,56.882 310.762,59.704 308.311,62.716 306.007,65.994 303.775,69.661 301.699,73.605 299.924,77.494 298.418,81.322 297.074,85.359 295.884,89.526 294.85,93.766 293.999,97.895 293.252,102.063 292.619,106.406 292.13,110.642 291.737,114.921 291.459,119.233 291.296,123.554 291.276,127.796 291.365,132.042 291.59,136.218 291.964,140.61 292.456,144.869 293.076,149.115 293.833,153.275 294.691,157.284 295.69,161.382 296.783,165.37 298.011,169.302 299.367,173.254 300.843,177.159 302.38,180.911 304.069,184.648 305.829,188.339 307.653,191.814 309.609,195.374 311.773,198.987 313.968,202.496 316.277,205.89 318.777,209.384 321.3,212.712 323.987,216.048 326.696,219.247 329.617,222.432 332.45,225.383 335.575,228.515 338.769,231.486 341.867,234.244 345.13,237.0 348.46,239.699 351.912,242.329 355.333,244.881 358.745,247.308 362.133,249.768 365.61,252.194 369.063,254.566 372.792,257.141 376.268,259.455 379.711,261.805 383.358,264.286 386.808,266.58 390.267,268.815 393.897,271.274 397.675,273.733 401.148,276.005 404.562,278.225 408.259,280.644 411.639,282.861 415.182,285.113 418.887,287.613 422.431,289.885 425.987,292.216 429.48,294.49 432.906,296.727 436.441,299.095 440.144,301.536 443.663,303.816 447.258,306.238 450.75,308.558 454.306,310.909 457.91,313.332 461.555,315.805 465.032,318.154 468.429,320.434 472.023,322.884 475.402,325.204 479.008,327.665 482.46,330.035 485.806,332.344 489.427,334.843 492.881,337.219 496.42,339.675 499.968,342.148 503.407,344.547 506.878,346.979 510.392,349.454 513.848,351.92 517.225,354.373 520.657,356.946 523.961,359.506 527.315,362.282 530.391,364.972 533.557,367.957 536.689,371.117 539.579,374.309 542.296,377.551 544.891,380.971 547.159,384.267 549.284,387.718 551.171,391.149 552.943,394.793 554.504,398.468 555.863,402.177 557.088,406.092 558.097,410.022 558.901,413.991 559.493,417.988 559.882,422.073 560.065,426.285 560.027,430.65 559.776,434.75 559.314,438.808 558.624,442.967 557.73,447.024 556.607,451.075 555.272,455.057 553.734,458.921 552.016,462.671 550.066,466.385 547.987,469.885 545.698,473.332 543.407,476.463 540.903,479.578 538.277,482.549 535.533,485.393 532.733,488.079 529.755,490.715 526.556,493.271 523.199,495.69 519.785,497.896 516.144,500.063 512.401,502.05 508.459,503.93 504.398,505.701 500.505,507.224 496.435,508.615 492.273,509.864 488.06,510.956 483.793,511.893 479.568,512.699 475.457,513.473 471.374,514.211 467.085,514.999 462.721,515.762 458.57,516.464 454.234,517.161 449.991,517.784 445.724,518.323 441.359,518.717 437.013,518.915 432.655,518.886 428.361,518.603 424.062,517.993 419.922,517.007 416.042,515.564 412.541,513.645 409.541,511.356 407.091,508.821 405.171,506.113 403.681,503.139 402.625,499.995 401.974,496.664 401.74,493.22 401.943,489.605 402.635,485.723 403.796,481.831 405.328,477.987 407.133,474.196 409.014,470.418 410.872,466.612 412.648,462.694 414.212,458.789 415.51,455.022 416.582,451.291 417.405,447.608 417.944,443.996 418.161,440.406 418.007,436.684 417.45,432.958 416.477,429.352 415.054,425.865 413.13,422.493 410.851,419.504 408.174,416.817 405.126,414.453 401.781,412.498 398.249,410.985 394.672,409.917 390.925,409.231 387.22,408.945 383.584,409.01 379.893,409.395 376.055,410.147 372.11,411.279 368.167,412.745 364.193,414.551 360.481,416.528 356.865,418.727 353.228,421.214 349.778,423.819 346.508,426.511 343.295,429.349 340.141,432.311 337.104,435.34 334.18,438.318 331.317,441.248 328.372,444.263 325.427,447.219 322.467,450.124 319.407,453.014 316.332,455.799 313.254,458.456 310.059,461.084 306.773,463.667 303.406,466.169 299.963,468.589 296.518,470.874 292.901,473.122 289.2,475.259 285.364,477.337 281.562,479.226 277.604,481.048 273.553,482.751 269.488,484.281 265.44,485.634 261.373,486.806 257.117,487.829 252.832,488.634 248.463,489.187 244.046,489.436 239.718,489.287 235.338,488.613 231.359,487.374 227.848,485.588 224.842,483.288 222.429,480.655 220.675,477.973 219.349,475.088 218.468,472.085 218.012,469.009 218.013,465.535 218.561,461.892 219.71,458.097 221.463,454.214 223.675,450.492 226.234,446.999 229.045,443.772 232.055,440.729 235.182,437.858 238.421,435.129 241.729,432.531 245.135,430.006 248.613,427.537 252.052,425.081 255.421,422.613 258.848,420.005 262.247,417.282 265.455,414.53 268.535,411.68 271.502,408.715 274.351,405.599 277.04,402.36 279.53,399.039 281.891,395.55 284.009,392.072 285.962,388.477 287.742,384.774 289.318,381.005 290.704,377.149 291.902,373.207 292.877,369.358 293.668,365.454 294.265,361.449 294.665,357.384 294.855,353.322 294.837,349.186 294.618,345.123 294.219,341.095 293.641,337.089 292.898,333.129 292.003,329.329 290.97,325.652 289.715,321.767 288.313,317.98 286.781,314.312 285.044,310.586 283.123,306.934 281.027,303.303 278.8,299.826 276.451,296.453 273.928,293.112 271.241,289.841 268.462,286.707 265.517,283.68 262.4,280.656 259.211,277.821 255.923,275.081 252.466,272.423 249.078,269.964 245.526,267.557 241.883,265.247 238.213,263.028 234.507,260.856 230.916,258.756 227.219,256.633 223.503,254.482 219.85,252.345 216.15,250.154 212.511,247.974 208.992,245.798 205.283,243.511 201.58,241.212 197.993,238.961 194.434,236.736 190.77,234.451 187.094,232.149 183.47,229.881 179.808,227.595 176.177,225.345 172.464,223.085 168.792,220.927 165.019,218.855 161.098,216.944 157.064,215.294 152.886,213.98 148.648,213.111 144.427,212.72 140.394,212.809 136.742,213.287 133.362,214.077 130.145,215.144 127.051,216.499 123.963,218.191 120.835,220.291 117.735,222.81 114.737,225.744 111.911,229.069 109.379,232.595 107.097,236.305 105.046,240.154 103.22,244.059 101.579,247.984 100.064,251.941 98.663,255.973 97.364,260.084 96.2,264.137 95.161,268.218 94.223,272.373 93.397,276.635 92.674,280.848 92.065,285.094 91.55,289.318 91.153,293.578 90.877,297.759 90.691,301.895 90.62,305.999 90.607,309.976 90.707,314.157 90.909,318.384 91.149,322.602 91.505,326.783 91.963,331.026 92.491,335.271 93.097,339.44 93.75,343.602 94.483,347.789 95.28,351.971 96.137,356.067 97.059,360.196 98.04,364.314 99.08,368.323 100.149,372.358 101.312,376.484 102.529,380.556 103.761,384.519 105.071,388.502 106.427,392.551 107.879,396.516 109.338,400.466 110.9,404.49 112.493,408.378 114.16,412.317 115.833,416.05 117.576,419.91 119.482,423.838 121.356,427.652 123.316,431.367 125.288,435.009 127.453,438.77 129.595,442.368 131.883,446.051 134.183,449.572 136.471,452.991 138.946,456.507 141.464,459.93 143.949,463.172 146.557,466.439 149.198,469.602 151.912,472.713 154.679,475.746 157.522,478.743 160.377,481.6 163.31,484.412 166.424,487.23 169.555,489.931 172.599,492.428 175.816,494.936 179.11,497.377 182.469,499.774 185.934,502.093 189.496,504.36 193.025,506.5 196.603,508.566 200.169,510.524 203.889,512.458 207.585,514.298 211.319,516.037 215.185,517.79 219.286,519.488 223.263,521.097 227.195,522.581 231.155,524.014 235.149,525.376 239.174,526.689 243.286,527.987 247.326,529.136 251.482,530.286 255.614,531.413 259.797,532.505 263.843,533.534 267.985,534.561 272.104,535.503 276.279,536.463 280.296,537.447 284.389,538.404 288.63,539.358 292.803,540.313 297.004,541.274 301.138,542.214 305.371,543.235 309.462,544.179 313.578,545.02 317.757,545.961 321.895,546.828 325.879,547.7 329.957,548.512 334.382,549.371 338.61,550.265 342.7,550.991 346.955,551.814 351.243,552.593 355.259,553.207 359.297,553.889 363.62,554.577 367.974,555.145 372.38,555.73 376.604,556.332 380.83,556.895 384.859,557.36 389.132,557.746 393.561,558.146 398.008,558.48 402.072,558.808 406.048,559.142 410.529,559.064 414.937,559.351 419.512,559.523 423.673,559.679 427.742,559.725 431.691,559.854 435.994,559.894 440.323,559.858 444.466,560.0 448.505,559.84 452.459,559.882 456.518,559.633 460.634,559.412 464.612,559.384 468.821,558.912 472.854,558.798 476.725,558.322 481.055,557.932 485.369,557.371 489.417,557.175 493.446,556.369 497.815,555.656 502.236,555.267 505.991,554.748 510.493,554.092 514.43,553.487 518.363,552.852 522.855,552.093 527.623,551.247 531.266,550.576 535.185,549.826 539.655,548.941 544.119,548.024 548.02,547.198 551.918,546.347 556.37,545.353 560.023,544.459 564.066,543.268 568.515,542.243 572.964,541.209 576.857,540.297 580.748,539.378 585.195,538.324 589.642,537.265 593.534,536.336 597.425,535.406 601.872,534.342 605.763,533.409 609.655,532.474 614.102,531.404 618.55,530.332 622.44,529.394 626.331,528.453 630.778,527.376 633.557,526.702 639.337,526.144" fill="none" stroke="white" stroke-width="4"
            stroke-linejoin="round" stroke-linecap="round"/>
</svg>
