<?xml version="1.0" encoding="utf-8"?>
<svg xmlns="http://www.w3.org/2000/svg" width="1000" height="600">
  <polyline points="740.149,304.481 737.08,302.636 733.994,300.764 730.971,298.913 728.033,297.11 725.015,295.244 722.021,293.406 718.944,291.493 715.896,289.603 712.869,287.716 709.898,285.885 706.93,284.024 703.935,282.169 700.909,280.285 697.909,278.427 694.866,276.538 691.829,274.657 688.784,272.766 685.776,270.892 682.734,268.999 679.742,267.15 676.749,265.29 673.743,263.421 670.728,261.554 667.729,259.672 664.689,257.766 661.68,255.899 658.673,254.016 655.656,252.128 652.661,250.246 649.616,248.33 646.587,246.441 643.618,244.57 640.6,242.689 637.609,240.796 634.614,238.901 631.67,237.037 628.761,235.215 625.725,233.301 622.71,231.409 619.685,229.476 616.705,227.6 613.716,225.718 610.698,223.797 607.666,221.891 604.621,219.961 601.593,218.033 598.634,216.157 595.722,214.333 592.76,212.463 589.762,210.552 586.705,208.618 583.656,206.697 580.637,204.797 577.609,202.86 574.618,200.987 571.674,199.127 568.678,197.252 565.666,195.317 562.63,193.413 559.615,191.513 556.613,189.584 553.625,187.712 550.686,185.856 547.725,183.977 544.708,182.055 541.655,180.145 538.64,178.213 535.656,176.309 532.698,174.455 529.727,172.569 526.705,170.632 523.65,168.7 520.674,166.763 517.754,164.871 514.809,162.971 511.834,161.028 508.814,159.065 505.796,157.093 502.879,155.172 499.944,153.286 496.996,151.371 494.008,149.428 490.996,147.438 487.993,145.486 485.049,143.57 482.119,141.674 479.14,139.733 476.091,137.736 473.099,135.767 470.187,133.907 467.228,131.989 464.258,130.094 461.267,128.141 458.197,126.152 455.23,124.211 452.296,122.356 449.312,120.407 446.343,118.528 443.378,116.592 440.322,114.639 437.35,112.687 434.382,110.816 431.377,108.877 428.413,106.959 425.459,105.073 422.411,103.085 419.394,101.132 416.457,99.228 413.498,97.316 410.544,95.393 407.601,93.506 404.595,91.545 401.6,89.614 398.654,87.692 395.652,85.737 392.664,83.808 389.649,81.857 386.63,79.91 383.634,77.969 380.645,76.031 377.628,74.095 374.664,72.144 371.706,70.22 368.723,68.292 365.748,66.341 362.744,64.373 359.725,62.399 356.744,60.453 353.774,58.49 350.755,56.53 347.75,54.565 344.776,52.643 341.777,50.714 338.753,48.781 335.674,46.936 332.502,45.214 329.287,43.686 325.938,42.358 322.433,41.27 318.912,40.508 315.5,40.092 312.262,40.0 309.14,40.191 306.018,40.641 303.009,41.341 300.119,42.314 297.258,43.603 294.458,45.228 291.785,47.138 289.177,49.31 286.583,51.759 284.113,54.366 281.764,57.053 279.469,59.747 277.169,62.364 274.829,64.817 272.419,67.085 269.9,69.179 267.299,71.074 264.567,72.797 261.641,74.365 258.564,75.756 255.397,76.946 252.142,77.925 248.787,78.696 245.267,79.277 241.649,79.639 238.039,79.773 234.434,79.691 230.855,79.397 227.344,78.906 223.875,78.231 220.426,77.388 216.999,76.447 213.586,75.469 210.189,74.496 206.781,73.589 203.296,72.739 199.805,72.021 196.347,71.466 192.853,71.062 189.345,70.83 185.858,70.764 182.394,70.875 179.003,71.15 175.548,71.602 172.125,72.225 168.799,72.998 165.543,73.928 162.301,75.02 159.1,76.277 155.983,77.684 152.909,79.255 149.954,80.947 147.14,82.753 144.357,84.739 141.661,86.852 139.084,89.078 136.606,91.44 134.252,93.912 132.054,96.46 129.952,99.137 127.976,101.922 126.109,104.831 124.412,107.783 122.84,110.83 121.393,113.955 120.092,117.165 118.912,120.487 117.898,123.819 117.026,127.209 116.312,130.635 115.759,134.11 115.351,137.704 115.106,141.263 115.039,144.776 115.133,148.317 115.376,151.9 115.797,155.487 116.375,159.082 117.084,162.591 117.941,166.012 118.953,169.466 120.114,172.909 121.426,176.343 122.848,179.697 124.373,182.944 125.998,186.134 127.754,189.307 129.607,192.413 131.521,195.43 133.547,198.366 135.676,201.34 137.886,204.228 140.144,207.011 142.433,209.666 144.728,212.299 147.216,214.985 149.758,217.598 152.29,220.085 154.878,222.556 157.543,224.955 160.254,227.34 163.024,229.672 165.831,231.932 168.663,234.072 171.495,236.231 174.459,238.362 177.384,240.353 180.306,242.371 183.295,244.329 186.272,246.258 189.287,248.191 192.276,250.076 195.276,251.967 198.283,253.83 201.291,255.713 204.326,257.564 207.345,259.441 210.388,261.308 213.334,263.121 216.355,265.033 219.429,266.913 222.401,268.811 225.434,270.697 228.362,272.547 231.37,274.492 234.414,276.42 237.371,278.336 240.341,280.263 243.321,282.195 246.318,284.151 249.269,286.076 252.226,288.01 255.193,289.943 258.196,291.903 261.177,293.835 264.189,295.793 267.224,297.733 270.208,299.618 273.251,301.493 276.338,303.315 279.49,305.052 282.717,306.672 286.005,308.137 289.384,309.454 292.866,310.601 296.381,311.536 299.867,312.232 303.243,312.679 306.591,312.897 309.934,312.878 313.218,312.597 316.379,312.066 319.46,311.279 322.533,310.196 325.52,308.821 328.322,307.197 330.938,305.335 333.444,303.21 335.799,300.823 337.935,298.215 339.855,295.398 341.564,292.401 343.032,289.262 344.26,285.969 345.217,282.622 345.926,279.197 346.404,275.657 346.636,272.098 346.63,268.552 346.389,264.987 345.91,261.399 345.209,257.841 344.287,254.349 343.141,250.898 341.798,247.536 340.255,244.245 338.513,241.006 336.593,237.878 334.522,234.871 332.302,232.001 329.877,229.198 327.317,226.543 324.664,224.049 321.885,221.661 319.058,219.431 316.16,217.326 313.177,215.309 310.126,213.372 307.067,211.564 303.967,209.816 300.839,208.181 297.661,206.568 294.384,204.98 291.239,203.457 288.032,201.9 284.765,200.332 281.566,198.79 278.372,197.263 275.193,195.739 271.955,194.146 268.732,192.551 265.595,190.95 262.425,189.292 259.271,187.581 256.145,185.835 253.044,184.037 249.927,182.202 246.893,180.347 243.894,178.463 240.844,176.485 237.908,174.48 234.999,172.368 232.157,170.127 229.445,167.772 226.814,165.231 224.374,162.576 222.147,159.771 220.287,156.94 218.796,154.063 217.694,151.113 216.984,148.015 216.745,144.953 216.984,141.913 217.691,138.911 218.81,136.078 220.304,133.449 222.219,130.957 224.472,128.695 227.01,126.698 229.863,124.916 233.071,123.314 236.45,121.973 239.93,120.893 243.439,120.065 246.925,119.472 250.43,119.06 253.979,118.779 257.53,118.611 261.021,118.518 264.511,118.475 268.078,118.456 271.638,118.456 275.131,118.488 278.661,118.532 282.229,118.585 285.783,118.642 289.328,118.707 292.855,118.783 296.386,118.856 299.919,118.932 303.446,119.063 307.026,119.184 310.56,119.354 314.095,119.554 317.681,119.816 321.208,120.104 324.745,120.461 328.319,120.872 331.851,121.34 335.354,121.852 338.841,122.417 342.324,123.047 345.815,123.754 349.279,124.532 352.684,125.355 356.092,126.248 359.514,127.223 362.917,128.262 366.296,129.374 369.656,130.544 372.99,131.778 376.296,133.078 379.605,134.458 382.906,135.897 386.135,137.393 389.332,138.931 392.515,140.546 395.678,142.204 398.82,143.911 401.964,145.655 405.09,147.432 408.177,149.224 411.256,151.065 414.329,152.932 417.365,154.815 420.407,156.783 423.34,158.807 426.196,160.949 428.983,163.279 431.625,165.806 434.09,168.56 436.25,171.477 438.025,174.456 439.434,177.463 440.546,180.54 441.372,183.606 441.917,186.622 442.209,189.721 442.242,192.905 442.034,196.179 441.572,199.63 440.834,203.14 439.816,206.651 438.586,210.017 437.213,213.235 435.739,216.403 434.242,219.549 432.815,222.59 431.465,225.599 430.158,228.732 428.976,231.889 427.908,235.061 426.935,238.293 426.055,241.605 425.265,245.021 424.571,248.542 423.987,252.091 423.519,255.655 423.169,259.186 422.92,262.703 422.766,266.289 422.701,269.836 422.709,273.326 422.748,276.897 422.831,280.423 422.929,283.972 423.044,287.531 423.165,291.025 423.284,294.554 423.411,298.099 423.545,301.621 423.684,305.147 423.822,308.689 423.962,312.212 424.109,315.797 424.251,319.348 424.396,322.834 424.548,326.356 424.717,329.915 424.905,333.451 425.127,336.988 425.41,340.549 425.794,344.093 426.297,347.623 426.945,351.141 427.755,354.649 428.744,358.147 429.881,361.528 431.16,364.79 432.609,368.013 434.208,371.156 435.902,374.116 437.728,376.976 439.643,379.684 441.704,382.31 443.943,384.889 446.295,387.337 448.691,389.607 451.241,391.808 453.948,393.926 456.755,395.908 459.661,397.765 462.684,399.501 465.787,401.097 468.975,402.563 472.226,403.898 475.544,405.1 478.956,406.178 482.526,407.161 486.163,408.005 489.717,408.664 493.259,409.155 496.754,409.522 500.279,409.773 503.811,409.939 507.367,410.048 510.95,410.114 514.407,410.165 517.914,410.201 521.555,410.225 525.13,410.22 528.643,410.223 532.102,410.206 535.717,410.191 539.295,410.152 542.799,410.139 546.358,410.091 549.869,410.05 553.44,410.01 556.988,409.971 560.491,409.928 564.063,409.887 567.641,409.828 571.168,409.786 574.742,409.732 578.2,409.686 581.818,409.619 585.409,409.575 588.888,409.519 592.425,409.463 595.995,409.42 599.539,409.359 603.093,409.31 606.658,409.246 610.249,409.197 613.75,409.149 617.222,409.11 620.814,409.047 624.39,409.013 627.964,408.967 631.5,408.916 634.999,408.893 638.562,408.84 642.123,408.81 645.684,408.76 649.274,408.74 652.809,408.703 656.351,408.682 659.917,408.672 663.382,408.635 666.977,408.621 670.534,408.596 674.028,408.589 677.55,408.584 681.129,408.582 684.743,408.57 688.304,408.579 691.849,408.599 695.38,408.614 698.881,408.64 702.456,408.657 706.006,408.685 709.555,408.715 713.13,408.754 716.705,408.8 720.273,408.836 723.853,408.88 727.505,408.937 731.107,408.99 734.647,409.049 738.24,409.107 741.773,409.17 745.355,409.24 748.984,409.323 752.514,409.417 756.055,409.541 759.624,409.726 763.19,409.999 766.784,410.422 770.343,411.045 773.89,411.912 777.416,413.08 780.736,414.529 783.783,416.259 786.415,418.177 788.65,420.217 790.479,422.269 792.077,424.47 793.469,426.855 794.653,429.463 795.613,432.362 796.278,435.566 796.561,439.024 796.381,442.714 795.714,446.357 794.569,449.921 793.015,453.262 791.08,456.391 788.841,459.267 786.283,461.967 783.511,464.414 780.558,466.604 777.401,468.56 774.102,470.251 770.713,471.683 767.331,472.854 763.878,473.812 760.348,474.566 756.895,475.094 753.405,475.436 749.898,475.607 746.482,475.616 743.068,475.498 739.653,475.24 736.239,474.866 732.859,474.412 729.484,473.888 726.07,473.321 722.637,472.744 719.169,472.198 715.6,471.716 711.962,471.342 708.367,471.117 704.79,471.06 701.199,471.202 697.757,471.556 694.409,472.136 691.15,472.954 687.922,474.035 684.807,475.382 681.9,476.96 679.199,478.767 676.649,480.855 674.268,483.246 672.148,485.869 670.367,488.604 668.885,491.481 667.674,494.57 666.785,497.861 666.276,501.117 666.098,504.399 666.233,507.665 666.665,510.833 667.413,514.034 668.465,517.216 669.764,520.244 671.277,523.085 673.026,525.817 675.055,528.493 677.353,531.088 679.826,533.471 682.47,535.644 685.404,537.693 688.515,539.552 691.796,541.232 695.203,542.74 698.537,544.035 701.823,545.164 705.211,546.208 708.657,547.152 712.073,548.008 715.504,548.826 718.922,549.611 722.369,550.402 725.825,551.211 729.33,552.038 732.745,552.857 736.152,553.678 739.617,554.51 743.024,555.322 746.519,556.138 749.974,556.919 753.4,557.657 756.873,558.332 760.418,558.921 763.931,559.386 767.476,559.729 771.089,559.936 774.718,560.0 778.396,559.885 781.951,559.597 785.371,559.163 788.673,558.605 791.935,557.911 795.2,557.072 798.454,556.084 801.62,554.948 804.753,553.663 807.738,552.286 810.719,550.742 813.689,549.015 816.571,547.177 819.315,545.241 822.042,543.145 824.759,540.865 827.423,538.432 830.045,535.797 832.503,533.135 834.815,530.44 837.021,527.664 839.099,524.836 841.095,521.914 843.02,518.933 844.908,515.853 846.727,512.858 848.547,509.8 850.334,506.777 852.184,503.744 854.055,500.661 855.857,497.678 857.745,494.646 859.63,491.648 861.466,488.724 863.387,485.702 865.282,482.675 867.177,479.644 869.03,476.644 870.873,473.618 872.66,470.605 874.431,467.488 876.154,464.265 877.696,461.118 879.136,457.897 880.489,454.487 881.651,451.058 882.651,447.582 883.467,444.148 884.114,440.657 884.565,437.282 884.849,433.877 884.961,430.423 884.883,426.886 884.648,423.662 884.251,420.375 883.653,416.934 882.863,413.56 881.931,410.366 880.865,407.252 879.586,404.011 878.198,400.906 876.584,397.754 874.875,394.688 873.066,391.815 871.084,388.942 868.899,386.082 866.56,383.295 864.061,380.601 861.396,377.945 858.746,375.526 856.086,373.283 853.28,371.098 850.364,368.994 847.429,367.033 844.457,365.112 841.539,363.295 838.59,361.472 835.466,359.563 832.429,357.713 829.348,355.907 826.33,354.176 823.318,352.446 820.102,350.596 817.034,348.866 813.974,347.086 810.964,345.267 807.787,343.416 804.868,341.624 801.768,339.824 798.827,338.004 795.734,336.304 792.567,334.44 789.512,332.585 786.449,330.719 783.51,328.972 780.794,326.8 777.703,324.917 774.568,323.088 771.385,321.328 768.523,319.805 765.29,318.094 762.236,316.467 758.821,314.636 755.583,312.896 752.7,311.346 749.455,309.595 746.211,307.834 744.415,306.841 740.149,304.481" fill="none" stroke="white" stroke-width="4"
            stroke-linejoin="round" stroke-linecap="round"/>
</svg>
