<?xml version="1.0" encoding="utf-8"?>
<svg xmlns="http://www.w3.org/2000/svg" width="1000" height="600">
  <polyline points="413.455,112.363 416.084,114.042 418.748,115.772 421.398,117.486 423.934,119.138 426.478,120.796 429.247,122.57 431.775,124.217 434.449,125.955 437.064,127.635 439.673,129.338 442.316,131.058 444.938,132.757 447.629,134.491 450.233,136.193 452.83,137.866 455.433,139.546 458.001,141.207 460.636,142.906 463.176,144.584 465.838,146.251 468.342,147.914 470.959,149.534 473.721,151.352 476.327,153.048 478.9,154.687 481.584,156.414 484.23,158.123 486.837,159.842 489.487,161.521 492.016,163.156 494.669,164.88 497.333,166.606 500.102,168.38 502.664,170.05 505.308,171.741 507.871,173.412 510.481,175.073 513.107,176.815 515.713,178.437 518.267,180.111 520.984,181.873 523.601,183.504 526.192,185.251 528.894,186.966 531.46,188.596 534.037,190.31 536.711,192.002 539.344,193.689 542.022,195.428 544.522,197.034 547.191,198.765 549.805,200.472 552.406,202.163 555.105,203.897 557.659,205.585 560.276,207.274 562.928,208.982 565.527,210.679 568.209,212.425 570.821,214.107 573.443,215.806 576.058,217.522 578.625,219.205 581.25,220.89 583.859,222.558 586.571,224.305 589.191,226.03 591.695,227.652 594.365,229.37 596.961,231.025 599.511,232.688 602.179,234.387 604.848,236.175 607.412,237.806 609.972,239.465 612.57,241.125 615.319,242.896 618.046,244.587 620.625,246.356 623.246,247.968 625.8,249.566 628.401,251.252 631.084,253.014 633.822,254.729 636.39,256.413 639.044,258.078 641.651,259.735 644.352,261.481 646.988,263.139 649.577,264.723 652.13,266.493 654.809,268.059 657.356,269.786 660.135,271.451 662.78,273.189 665.291,274.832 668.024,276.507 670.507,278.195 673.163,279.764 675.932,281.546 678.581,283.21 681.317,284.896 683.872,286.638 686.297,288.114 689.039,289.799 691.701,291.528 694.419,293.246 697.022,294.851 699.679,296.546 702.293,298.147 705.001,299.719 707.551,301.504 710.302,303.195 712.95,304.897 715.489,306.508 718.209,308.203 720.848,309.858 723.387,311.542 726.082,313.186 728.775,314.895 731.41,316.577 734.098,318.256 736.706,319.984 739.343,321.613 741.999,323.306 744.64,324.963 747.26,326.665 749.931,328.37 752.651,330.094 755.29,331.735 757.903,333.489 760.6,335.169 763.124,336.863 765.7,338.587 768.303,340.457 770.862,342.432 773.261,344.49 775.544,346.709 777.744,349.174 779.658,351.727 781.292,354.366 782.549,356.923 783.526,359.481 784.292,362.149 784.803,364.843 785.075,367.544 785.105,370.29 784.885,373.131 784.373,376.015 783.619,378.922 782.613,381.863 781.43,384.813 780.121,387.706 778.83,390.512 777.589,393.265 776.477,396.034 775.534,398.849 774.785,401.625 774.226,404.443 773.866,407.276 773.701,410.212 773.752,413.13 773.983,416.101 774.43,419.096 775.061,422.008 775.944,425.094 777.026,428.099 778.269,430.979 779.715,433.837 781.279,436.512 782.964,439.12 784.783,441.592 786.729,444.033 788.767,446.465 790.883,448.898 792.9,451.248 794.834,453.56 796.822,456.054 798.59,458.475 800.349,461.077 802.011,463.811 803.495,466.515 804.843,469.305 806.017,472.051 807.07,474.895 807.972,477.758 808.744,480.682 809.374,483.668 809.866,486.741 810.188,489.67 810.369,492.659 810.405,495.63 810.3,498.607 810.05,501.612 809.653,504.596 809.107,507.556 808.418,510.494 807.584,513.442 806.641,516.232 805.549,519.021 804.366,521.646 802.995,524.361 801.48,527.007 799.838,529.612 798.138,532.027 796.315,534.387 794.281,536.783 792.225,539.001 790.09,541.092 787.839,543.13 785.494,545.048 782.937,546.981 780.337,548.719 777.717,550.329 774.935,551.862 772.128,553.244 769.222,554.505 766.329,555.613 763.278,556.621 760.242,557.493 757.208,558.212 754.119,558.811 750.997,559.314 747.755,559.653 744.538,559.881 741.423,560.0 738.231,559.976 735.076,559.876 731.953,559.65 728.79,559.351 725.624,558.917 722.522,558.431 719.428,557.807 716.346,557.165 713.216,556.374 710.174,555.553 707.167,554.636 704.166,553.683 701.127,552.621 698.197,551.524 695.331,550.377 692.406,549.17 689.55,547.905 686.582,546.512 683.729,545.137 680.933,543.652 678.148,542.165 675.401,540.639 672.767,539.072 670.07,537.473 667.438,535.835 664.756,534.179 662.031,532.426 659.43,530.771 656.779,529.06 654.18,527.356 651.542,525.645 648.935,523.915 646.377,522.243 643.809,520.552 641.185,518.82 638.55,517.119 635.984,515.411 633.35,513.786 630.725,512.031 628.111,510.378 625.439,508.68 622.767,506.971 620.172,505.356 617.494,503.68 614.818,501.997 612.223,500.386 609.564,498.736 606.91,497.075 604.232,495.434 601.526,493.727 598.849,492.061 596.154,490.377 593.586,488.744 590.964,487.06 588.352,485.342 585.722,483.542 583.189,481.687 580.72,479.733 578.291,477.622 575.961,475.389 573.734,473.018 571.677,470.556 569.879,468.106 568.268,465.583 566.84,462.978 565.607,460.294 564.618,457.597 563.866,454.87 563.34,452.058 563.07,449.236 563.057,446.382 563.299,443.625 563.815,440.796 564.603,437.914 565.634,435.154 566.893,432.54 568.411,429.977 570.196,427.458 572.165,425.11 574.287,422.956 576.614,420.933 579.12,419.067 581.769,417.369 584.499,415.875 587.315,414.569 590.265,413.43 593.307,412.476 596.332,411.729 599.449,411.163 602.701,410.78 605.909,410.602 609.111,410.607 612.3,410.794 615.482,411.154 618.691,411.696 621.835,412.404 624.918,413.279 627.95,414.316 630.975,415.521 633.906,416.845 636.752,418.279 639.545,419.83 642.205,421.424 644.862,423.126 647.51,424.925 650.044,426.745 652.521,428.622 655.002,430.573 657.424,432.542 659.839,434.499 662.315,436.513 664.76,438.519 667.154,440.478 669.535,442.452 671.976,444.425 674.479,446.474 676.948,448.432 679.414,450.387 681.937,452.307 684.48,454.191 686.994,456.002 689.528,457.782 692.127,459.56 694.767,461.316 697.37,463.001 700.048,464.674 702.771,466.296 705.529,467.826 708.354,469.25 711.283,470.557 714.265,471.702 717.297,472.663 720.347,473.395 723.31,473.828 726.159,473.947 728.913,473.728 731.662,473.136 734.188,472.187 736.501,470.877 738.635,469.198 740.494,467.237 742.043,465.056 743.309,462.62 744.273,459.989 744.924,457.22 745.285,454.277 745.368,451.151 745.177,447.918 744.744,444.748 744.099,441.657 743.264,438.619 742.274,435.646 741.187,432.744 740.006,429.881 738.768,427.03 737.495,424.218 736.183,421.372 734.866,418.545 733.541,415.781 732.198,413.001 730.825,410.163 729.449,407.343 728.083,404.547 726.695,401.721 725.34,398.962 723.96,396.189 722.545,393.375 721.123,390.614 719.687,387.873 718.203,385.119 716.684,382.389 715.147,379.685 713.529,376.983 711.858,374.278 710.194,371.651 708.512,369.103 706.75,366.485 704.903,363.902 703.05,361.396 701.149,358.925 699.213,356.497 697.246,354.163 695.223,351.805 693.104,349.447 690.959,347.162 688.788,344.927 686.56,342.73 684.288,340.558 681.959,338.451 679.631,336.382 677.2,334.325 674.741,332.312 672.33,330.418 669.861,328.536 667.304,326.637 664.754,324.783 662.198,322.965 659.616,321.163 656.97,319.364 654.348,317.61 651.722,315.894 649.047,314.213 646.308,312.602 643.525,311.113 640.641,309.764 637.613,308.585 634.529,307.653 631.416,307.016 628.377,306.705 625.428,306.698 622.577,306.955 619.82,307.44 617.196,308.132 614.642,309.043 612.076,310.204 609.531,311.592 606.951,313.243 604.411,315.148 601.997,317.26 599.78,319.476 597.706,321.778 595.697,324.153 593.764,326.477 591.862,328.73 589.962,330.942 587.974,333.108 585.91,335.214 583.781,337.231 581.576,339.192 579.228,341.158 576.772,343.053 574.266,344.873 571.67,346.642 568.999,348.339 566.282,349.952 563.534,351.463 560.754,352.889 557.959,354.281 555.156,355.579 552.299,356.872 549.461,358.131 546.638,359.354 543.761,360.585 540.903,361.824 538.026,363.039 535.144,364.26 532.281,365.477 529.427,366.686 526.594,367.877 523.725,369.083 520.812,370.311 517.907,371.528 515.028,372.735 512.164,373.929 509.276,375.119 506.447,376.265 503.592,377.389 500.647,378.492 497.647,379.519 494.609,380.441 491.523,381.242 488.402,381.903 485.288,382.406 482.184,382.754 479.105,382.946 476.026,382.989 472.987,382.887 469.997,382.64 467.028,382.251 464.107,381.719 461.209,381.044 458.343,380.218 455.544,379.262 452.816,378.183 450.102,376.954 447.412,375.578 444.81,374.082 442.282,372.47 439.794,370.713 437.377,368.83 435.029,366.832 432.743,364.71 430.534,362.478 428.392,360.149 426.306,357.696 424.341,355.151 422.511,352.575 420.804,349.948 419.192,347.252 417.645,344.485 416.188,341.689 414.793,338.916 413.451,336.152 412.107,333.365 410.778,330.564 409.468,327.75 408.155,324.913 406.824,322.036 405.513,319.183 404.268,316.405 402.971,313.558 401.647,310.645 400.378,307.829 399.111,305.046 397.838,302.205 396.565,299.37 395.267,296.497 393.988,293.628 392.682,290.738 391.396,287.877 390.145,285.089 388.895,282.24 387.589,279.394 386.329,276.573 385.06,273.672 383.748,270.835 382.49,267.997 381.216,265.105 379.913,262.23 378.633,259.421 377.375,256.588 376.099,253.718 374.814,250.882 373.508,248.051 372.238,245.166 370.943,242.334 369.68,239.518 368.39,236.663 367.071,233.797 365.783,230.967 364.488,228.092 363.186,225.235 361.916,222.461 360.627,219.647 359.312,216.796 357.984,213.943 356.653,211.065 355.33,208.218 354.015,205.404 352.7,202.563 351.358,199.731 350.047,196.916 348.732,194.125 347.397,191.315 346.062,188.521 344.719,185.704 343.37,182.888 342.011,180.056 340.649,177.229 339.291,174.392 337.908,171.536 336.547,168.718 335.178,165.89 333.805,163.06 332.439,160.254 331.065,157.427 329.674,154.596 328.285,151.752 326.886,148.905 325.494,146.097 324.072,143.258 322.627,140.44 321.161,137.687 319.615,134.955 317.949,132.271 316.122,129.665 314.106,127.159 311.888,124.81 309.489,122.69 306.98,120.905 304.455,119.51 302.018,118.495 299.681,117.794 297.331,117.338 294.952,117.118 292.407,117.143 289.713,117.459 286.921,118.121 284.044,119.19 281.193,120.694 278.513,122.597 276.117,124.821 274.024,127.316 272.247,130.028 270.774,132.913 269.592,135.913 268.676,139.023 268.026,142.201 267.644,145.432 267.522,148.701 267.64,151.917 267.97,155.087 268.492,158.199 269.197,161.252 270.075,164.249 271.093,167.138 272.252,169.965 273.512,172.702 274.879,175.37 276.348,177.995 277.913,180.57 279.561,183.148 281.258,185.681 282.987,188.198 284.719,190.723 286.436,193.29 288.138,195.947 289.761,198.666 291.28,201.458 292.641,204.255 293.84,207.113 294.857,210.033 295.644,212.925 296.205,215.811 296.544,218.77 296.633,221.771 296.455,224.705 296.015,227.545 295.303,230.338 294.291,233.104 292.989,235.778 291.453,238.247 289.708,240.5 287.72,242.59 285.452,244.507 283.024,246.141 280.471,247.51 277.836,248.61 275.125,249.453 272.297,250.049 269.412,250.393 266.492,250.488 263.618,250.34 260.777,249.958 257.886,249.335 255.016,248.482 252.187,247.395 249.414,246.066 246.736,244.518 244.097,242.726 241.568,240.759 239.114,238.617 236.823,236.422 234.654,234.172 232.569,231.863 230.58,229.516 228.593,227.065 226.652,224.608 224.765,222.188 222.866,219.741 220.921,217.262 218.988,214.82 217.069,212.412 215.147,209.994 213.171,207.522 211.239,205.081 209.341,202.677 207.404,200.179 205.512,197.683 203.711,195.208 201.941,192.628 200.21,189.925 198.596,187.182 197.123,184.437 195.732,181.592 194.471,178.668 193.379,175.727 192.441,172.813 191.635,169.889 190.975,167.012 190.43,164.092 190.018,161.186 189.751,158.261 189.607,155.267 189.595,152.331 189.728,149.39 189.991,146.455 190.394,143.482 190.931,140.463 191.616,137.467 192.43,134.455 193.388,131.457 194.48,128.47 195.681,125.588 197.006,122.709 198.429,119.89 199.958,117.116 201.561,114.407 203.234,111.752 204.89,109.226 206.559,106.729 208.288,104.165 210.11,101.465 211.893,98.816 213.545,96.329 215.221,93.788 217.022,91.04 218.662,88.489 220.332,85.896 222.083,83.207 223.691,80.684 225.43,78.049 227.139,75.415 228.871,72.832 230.623,70.242 232.427,67.706 234.358,65.134 236.292,62.709 238.307,60.399 240.528,58.041 242.868,55.794 245.38,53.612 247.856,51.663 250.206,49.988 252.726,48.376 255.423,46.84 258.213,45.439 260.879,44.268 263.534,43.264 266.385,42.338 269.409,41.532 272.292,40.945 275.116,40.514 278.038,40.213 281.124,40.045 284.013,40.0 287.079,40.097 290.094,40.315 293.298,40.688 296.412,41.219 299.501,41.895 302.557,42.717 305.574,43.68 308.449,44.689 311.583,45.942 314.472,47.29 317.162,48.707 319.817,50.169 322.435,51.712 325.005,53.376 327.661,54.934 330.621,56.782 333.074,58.38 335.528,59.991 338.252,61.804 340.973,63.647 343.426,65.326 345.888,67.019 348.639,68.91 351.131,70.617 353.641,72.324 356.452,74.219 359.0,75.926 361.56,77.639 364.126,79.361 366.699,81.087 369.282,82.813 371.876,84.538 374.479,86.262 377.091,87.988 379.711,89.716 382.338,91.446 384.972,93.179 387.613,94.913 390.262,96.647 392.919,98.382 395.583,100.119 397.955,101.665 400.63,103.406 403.31,105.149 405.997,106.894 408.688,108.641 410.186,109.613 413.455,112.363" fill="none" stroke="white" stroke-width="4"
            stroke-linejoin="round" stroke-linecap="round"/>
</svg>
