<?xml version="1.0" encoding="utf-8"?>
<svg xmlns="http://www.w3.org/2000/svg" width="1000" height="600">
  <polyline points="228.33,212.433 228.332,215.572 228.324,218.655 228.333,221.77 228.323,224.896 228.333,228.026 228.317,231.183 228.312,234.3 228.315,237.347 228.31,240.49 228.299,243.645 228.297,246.744 228.284,249.887 228.264,253.025 228.25,256.119 228.24,259.224 228.221,262.339 228.201,265.446 228.189,268.562 228.168,271.706 228.141,274.857 228.126,277.982 228.103,281.08 228.091,284.147 228.065,287.241 228.041,290.381 228.025,293.511 228.002,296.648 227.976,299.794 227.956,302.91 227.939,305.915 227.936,308.948 227.909,312.122 227.889,315.323 227.87,318.455 227.847,321.554 227.799,324.698 227.767,327.752 227.753,330.786 227.703,333.95 227.65,337.1 227.601,340.235 227.531,343.359 227.51,346.417 227.457,349.532 227.398,352.691 227.361,355.853 227.304,358.879 227.257,361.931 227.201,365.145 227.162,368.302 227.104,371.383 227.069,374.475 227.019,377.62 226.995,380.723 226.926,383.831 226.93,386.949 226.866,390.103 226.838,393.234 226.789,396.286 226.777,399.414 226.711,402.612 226.701,405.711 226.669,408.726 226.628,411.887 226.586,415.128 226.567,418.23 226.524,421.246 226.475,424.41 226.423,427.64 226.383,430.702 226.334,433.699 226.277,436.856 226.22,440.029 226.155,443.074 226.13,446.174 226.041,449.394 225.982,452.529 225.921,455.505 225.853,458.629 225.767,461.849 225.705,465.008 225.626,468.14 225.556,471.264 225.473,474.415 225.418,477.487 225.32,480.613 225.255,483.808 225.163,486.896 225.081,490.03 224.986,493.218 224.894,496.339 224.789,499.483 224.694,502.62 224.586,505.747 224.482,508.896 224.381,512.072 224.255,515.202 224.155,518.322 224.027,521.487 223.911,524.653 223.775,527.78 223.596,530.882 223.431,534.029 223.432,537.252 223.692,540.457 224.235,543.602 225.105,546.681 226.338,549.591 227.918,552.19 229.746,554.386 231.678,556.12 233.568,557.409 235.517,558.404 237.647,559.196 239.831,559.731 242.031,560.0 244.42,559.985 247.097,559.603 249.832,558.832 252.568,557.724 255.316,556.271 257.993,554.494 260.433,552.509 262.7,550.36 264.863,548.047 266.909,545.619 268.843,543.108 270.656,540.567 272.389,537.958 274.039,535.292 275.578,532.578 277.066,529.768 278.487,526.942 279.849,524.074 281.149,521.205 282.371,518.364 283.565,515.462 284.723,512.501 285.806,509.54 286.838,506.589 287.815,503.625 288.733,500.616 289.597,497.63 290.401,494.614 291.151,491.61 291.851,488.605 292.492,485.514 293.072,482.458 293.589,479.429 294.078,476.423 294.486,473.385 294.856,470.321 295.183,467.265 295.451,464.164 295.683,461.05 295.891,457.956 296.049,454.86 296.184,451.818 296.258,448.725 296.349,445.614 296.372,442.515 296.408,439.392 296.411,436.281 296.392,433.182 296.366,430.105 296.308,426.971 296.273,423.843 296.198,420.71 296.148,417.58 296.063,414.469 296.004,411.378 295.919,408.303 295.861,405.187 295.786,402.099 295.731,398.965 295.687,395.817 295.627,392.713 295.59,389.618 295.56,386.493 295.518,383.357 295.509,380.245 295.494,377.158 295.496,374.017 295.5,370.857 295.505,367.703 295.509,364.575 295.53,361.423 295.569,358.234 295.653,355.114 295.795,351.984 296.029,348.847 296.379,345.726 296.868,342.596 297.509,339.475 298.306,336.377 299.252,333.386 300.354,330.525 301.605,327.81 303.001,325.274 304.6,322.846 306.423,320.561 308.409,318.507 310.538,316.679 312.857,315.04 315.357,313.626 317.972,312.496 320.634,311.668 323.346,311.129 326.143,310.879 328.985,310.902 331.736,311.197 334.456,311.812 337.187,312.742 339.821,313.92 342.332,315.291 344.785,316.902 347.176,318.766 349.449,320.832 351.598,323.081 353.571,325.462 355.391,328.03 357.023,330.725 358.458,333.502 359.723,336.351 360.824,339.24 361.817,342.205 362.716,345.196 363.548,348.207 364.387,351.227 365.239,354.224 366.161,357.205 367.18,360.167 368.314,363.095 369.538,365.897 370.908,368.674 372.415,371.399 374.039,374.02 375.765,376.546 377.513,378.862 379.325,381.048 381.205,383.121 383.181,385.106 385.312,387.042 387.571,388.903 389.916,390.662 392.399,392.362 395.069,394.027 397.884,395.613 400.708,397.065 403.543,398.37 406.515,399.569 409.512,400.623 412.5,401.538 415.539,402.35 418.524,403.059 421.512,403.702 424.564,404.317 427.57,404.891 430.641,405.463 433.831,406.038 436.934,406.568 439.891,407.07 443.001,407.558 446.13,408.069 449.158,408.562 452.289,409.047 455.336,409.586 458.4,410.098 461.478,410.68 464.501,411.24 467.597,411.827 470.689,412.451 473.731,413.046 476.752,413.705 479.761,414.324 482.833,414.96 485.899,415.655 488.925,416.289 491.973,416.945 495.021,417.624 498.064,418.245 501.095,418.95 504.136,419.57 507.19,420.252 510.226,420.9 513.247,421.567 516.293,422.24 519.322,422.873 522.433,423.556 525.507,424.216 528.534,424.868 531.585,425.53 534.578,426.15 537.653,426.757 540.743,427.401 543.799,427.982 546.863,428.542 549.901,429.087 552.947,429.618 556.055,430.124 559.182,430.634 562.256,431.083 565.315,431.522 568.421,431.917 571.495,432.305 574.611,432.664 577.752,433.002 580.846,433.307 583.928,433.583 587.011,433.835 590.099,434.069 593.189,434.279 596.28,434.461 599.336,434.617 602.391,434.75 605.462,434.857 608.543,434.948 611.613,435.026 614.683,435.101 617.793,435.184 620.898,435.286 624.048,435.433 627.197,435.653 630.286,435.978 633.428,436.454 636.595,437.102 639.681,437.903 642.513,438.792 645.17,439.788 647.75,440.92 650.273,442.164 652.816,443.567 655.41,445.167 658.069,446.991 660.677,448.983 663.117,451.052 665.441,453.21 667.655,455.49 669.734,457.829 671.677,460.206 673.535,462.669 675.326,465.239 677.074,467.91 678.753,470.624 680.314,473.236 681.836,475.868 683.393,478.622 684.942,481.417 686.444,484.191 687.928,486.968 689.421,489.732 690.891,492.453 692.4,495.178 693.947,497.933 695.499,500.596 697.112,503.225 698.831,505.861 700.635,508.456 702.551,511.009 704.561,513.479 706.667,515.833 708.899,518.092 711.264,520.227 713.748,522.197 716.322,523.967 718.955,525.523 721.605,526.84 724.339,527.941 727.219,528.833 730.138,529.48 733.059,529.884 735.972,530.053 738.883,529.988 741.828,529.681 744.775,529.131 747.587,528.357 750.308,527.349 753.013,526.08 755.61,524.575 758.027,522.891 760.296,521.026 762.479,518.948 764.541,516.703 766.459,514.304 768.206,511.772 769.811,509.061 771.215,506.227 772.405,503.297 773.408,500.266 774.216,497.232 774.859,494.204 775.385,491.114 775.814,487.932 776.14,484.738 776.364,481.605 776.51,478.488 776.569,475.334 776.552,472.159 776.467,468.963 776.295,465.701 776.06,462.585 775.778,459.421 775.42,456.245 775.053,453.214 774.675,450.121 774.254,446.992 773.822,443.864 773.401,440.794 772.977,437.729 772.549,434.649 772.118,431.549 771.687,428.438 771.259,425.331 770.825,422.271 770.414,419.242 769.996,416.181 769.556,413.012 769.13,409.895 768.708,406.814 768.278,403.671 767.851,400.511 767.427,397.384 767.006,394.279 766.573,391.184 766.123,388.077 765.645,384.955 765.112,381.836 764.449,378.738 763.562,375.72 762.369,372.8 760.862,370.07 759.164,367.72 757.334,365.739 755.361,364.024 753.265,362.52 750.861,361.155 748.072,359.976 745.098,359.044 742.158,358.253 739.384,357.452 736.855,356.58 734.425,355.611 731.892,354.371 729.219,352.78 726.597,350.922 724.132,348.883 721.822,346.7 719.653,344.413 717.601,342.041 715.672,339.619 713.839,337.173 712.008,334.667 710.188,332.151 708.365,329.611 706.544,327.076 704.746,324.585 702.913,322.054 701.068,319.514 699.237,316.999 697.42,314.513 695.589,311.987 693.761,309.435 691.984,306.889 690.244,304.255 688.593,301.565 687.064,298.799 685.678,295.931 684.461,292.958 683.452,289.947 682.689,287.008 682.163,284.195 681.84,281.392 681.711,278.604 681.764,275.825 682.002,272.957 682.439,270.123 683.09,267.263 683.977,264.309 685.077,261.387 686.353,258.569 687.816,255.828 689.455,253.16 691.24,250.579 693.093,248.065 694.936,245.539 696.699,242.93 698.331,240.245 699.812,237.505 701.154,234.665 702.326,231.77 703.309,228.85 704.096,225.871 704.641,222.927 704.944,220.053 705.017,217.196 704.838,214.298 704.426,211.443 703.822,208.713 703.018,206.031 701.987,203.348 700.733,200.67 699.285,198.063 697.615,195.497 695.685,192.938 693.574,190.505 691.309,188.216 688.905,186.068 686.437,184.106 683.867,182.296 681.238,180.619 678.569,179.062 675.83,177.576 673.077,176.178 670.285,174.84 667.401,173.529 664.549,172.261 661.738,171.02 658.87,169.741 655.972,168.427 653.161,167.113 650.381,165.771 647.593,164.369 644.873,162.922 642.181,161.402 639.512,159.794 636.889,158.106 634.327,156.342 631.812,154.485 629.374,152.551 626.996,150.517 624.72,148.418 622.573,146.28 620.518,144.081 618.542,141.797 616.655,139.445 614.893,137.071 613.207,134.607 611.616,132.077 610.106,129.473 608.687,126.8 607.377,124.126 606.111,121.309 604.92,118.393 603.866,115.573 602.855,112.664 601.897,109.636 601.033,106.709 600.184,103.703 599.358,100.69 598.548,97.721 597.687,94.665 596.833,91.698 595.919,88.684 594.983,85.71 593.982,82.741 592.91,79.788 591.741,76.877 590.402,73.916 588.941,71.066 587.371,68.354 585.676,65.753 583.848,63.253 581.923,60.901 579.938,58.703 577.843,56.6 575.645,54.618 573.348,52.753 570.978,51.018 568.547,49.424 565.979,47.93 563.286,46.552 560.579,45.33 557.766,44.22 554.74,43.193 551.671,42.306 548.574,41.565 545.44,40.971 542.274,40.523 539.087,40.224 535.955,40.054 532.851,40.0 529.717,40.07 526.569,40.218 523.448,40.42 520.353,40.64 517.301,40.868 514.2,41.11 511.077,41.376 508.021,41.669 504.897,41.939 501.799,42.23 498.757,42.515 495.624,42.792 492.519,43.087 489.391,43.356 486.283,43.627 483.191,43.887 480.102,44.132 477.026,44.354 473.914,44.609 470.81,44.81 467.68,45.018 464.572,45.216 461.517,45.397 458.383,45.572 455.253,45.742 452.18,45.912 449.043,46.069 445.916,46.231 442.807,46.381 439.724,46.537 436.58,46.669 433.445,46.808 430.352,46.94 427.234,47.077 424.14,47.199 420.99,47.308 417.862,47.43 414.77,47.556 411.64,47.672 408.484,47.787 405.357,47.892 402.225,48.007 399.068,48.12 395.976,48.229 392.826,48.338 389.67,48.456 386.47,48.572 383.275,48.691 380.156,48.808 377.049,48.922 373.862,49.047 370.716,49.182 367.6,49.338 364.426,49.529 361.271,49.781 358.135,50.17 355.055,50.761 352.005,51.625 349.061,52.81 346.404,54.257 344.075,55.913 342.051,57.729 340.376,59.582 338.864,61.617 337.423,64.011 336.173,66.657 335.163,69.539 334.432,72.596 333.989,75.746 333.785,78.99 333.783,82.175 333.951,85.28 334.265,88.368 334.693,91.431 335.22,94.492 335.832,97.529 336.516,100.563 337.275,103.593 338.073,106.612 338.918,109.651 339.799,112.715 340.658,115.753 341.482,118.781 342.24,121.789 342.927,124.75 343.58,127.825 344.188,130.945 344.703,133.988 345.185,137.101 345.592,140.212 345.948,143.314 346.241,146.473 346.471,149.632 346.628,152.769 346.709,155.96 346.682,159.112 346.522,162.264 346.187,165.432 345.649,168.551 344.877,171.686 343.873,174.741 342.654,177.602 341.272,180.253 339.656,182.744 337.744,185.064 335.607,187.092 333.321,188.768 330.881,190.147 328.194,191.269 325.356,192.032 322.569,192.372 319.82,192.331 317.006,191.906 314.194,191.064 311.555,189.846 309.195,188.343 307.081,186.589 305.125,184.559 303.312,182.263 301.709,179.792 300.322,177.167 299.108,174.314 298.086,171.288 297.275,168.202 296.665,165.093 296.232,161.989 295.952,158.853 295.805,155.746 295.789,152.621 295.902,149.507 296.124,146.458 296.461,143.347 296.893,140.257 297.402,137.104 297.976,133.976 298.545,130.965 299.097,127.852 299.599,124.705 300.02,121.618 300.368,118.399 300.61,115.249 300.748,112.175 300.794,109.029 300.723,105.904 300.521,102.813 300.17,99.637 299.673,96.555 298.994,93.451 298.125,90.386 297.091,87.481 295.889,84.717 294.532,82.118 292.914,79.51 291.102,77.058 289.13,74.832 287.005,72.807 284.699,70.964 282.229,69.328 279.614,67.921 276.901,66.764 274.11,65.869 271.3,65.252 268.393,64.895 265.339,64.792 262.345,64.951 259.394,65.37 256.521,66.055 253.749,66.997 251.15,68.142 248.707,69.451 246.365,70.911 244.029,72.59 241.868,74.367 239.746,76.361 237.781,78.47 235.888,80.781 234.241,83.076 232.635,85.638 231.171,88.347 229.875,91.122 228.673,94.099 227.637,97.149 226.799,100.154 226.098,103.235 225.529,106.322 225.078,109.535 224.769,112.684 224.607,115.728 224.631,118.991 224.797,122.13 225.172,125.216 225.539,128.402 225.956,131.326 226.384,134.607 226.698,137.521 226.976,140.63 227.186,143.796 227.327,146.946 227.434,149.987 227.532,153.131 227.622,156.304 227.701,159.427 227.77,162.731 227.832,165.968 227.882,168.9 227.926,171.849 227.969,175.145 228.002,178.127 228.025,181.127 228.042,184.703 228.05,187.509 228.054,190.215 228.056,193.612 228.055,196.688 228.052,200.127 228.046,203.357 228.041,205.675 228.037,207.769 228.33,212.433" fill="none" stroke="white" stroke-width="4"
            stroke-linejoin="round" stroke-linecap="round"/>
</svg>
