<?xml version="1.0" encoding="utf-8"?>
<svg xmlns="http://www.w3.org/2000/svg" width="1000" height="600">
  <polyline points="728.253,336.933 726.531,339.005 724.803,341.038 723.075,343.104 721.404,345.133 719.725,347.122 717.992,349.211 716.244,351.281 714.514,353.344 712.839,355.385 711.098,357.456 709.418,359.485 707.714,361.515 706.061,363.528 704.358,365.567 702.634,367.622 700.939,369.698 699.234,371.745 697.524,373.806 695.798,375.896 694.139,377.915 692.393,379.996 690.663,382.113 688.929,384.213 687.222,386.286 685.527,388.344 683.804,390.434 682.149,392.457 680.458,394.518 678.768,396.507 677.106,398.579 675.404,400.635 673.655,402.766 671.951,404.854 670.207,406.982 668.538,409.034 666.872,411.038 665.178,413.112 663.468,415.198 661.746,417.297 660.04,419.373 658.369,421.449 656.693,423.451 654.999,425.534 653.256,427.655 651.569,429.72 649.924,431.714 648.225,433.796 646.468,435.935 644.758,438.018 643.123,440.007 641.455,442.034 639.695,444.168 637.966,446.252 636.322,448.281 634.655,450.293 632.905,452.435 631.187,454.54 629.506,456.567 627.871,458.591 626.136,460.719 624.438,462.765 622.834,464.725 621.141,466.828 619.35,469.022 617.644,471.101 616.031,473.042 614.339,475.143 612.581,477.295 610.898,479.331 609.229,481.356 607.486,483.499 605.785,485.635 604.097,487.65 602.409,489.714 600.699,491.824 599.013,493.919 597.336,495.95 595.617,498.016 593.91,500.145 592.231,502.182 590.578,504.259 588.893,506.299 587.204,508.384 585.494,510.49 583.8,512.588 582.113,514.698 580.384,516.781 578.702,518.858 576.978,520.977 575.306,523.063 573.592,525.158 571.877,527.211 570.179,529.353 568.487,531.409 566.801,533.478 565.075,535.587 563.369,537.678 561.651,539.783 559.964,541.868 558.258,543.926 556.554,546.018 554.81,548.112 552.995,550.163 551.143,552.185 549.093,554.062 546.944,555.82 544.659,557.336 542.206,558.594 539.667,559.47 537.187,559.925 534.92,560.0 532.911,559.797 530.977,559.346 529.073,558.64 527.338,557.725 525.751,556.629 524.165,555.23 522.647,553.494 521.28,551.461 520.093,549.183 519.131,546.704 518.396,544.076 517.901,541.406 517.601,538.715 517.47,536.018 517.458,533.312 517.569,530.588 517.774,527.902 518.074,525.226 518.45,522.535 518.938,519.869 519.507,517.222 520.134,514.596 520.797,511.993 521.536,509.373 522.298,506.77 523.131,504.21 523.969,501.658 524.879,499.154 525.846,496.623 526.85,494.08 527.894,491.615 528.967,489.188 530.1,486.785 531.227,484.388 532.478,481.988 533.719,479.671 535.007,477.334 536.348,474.97 537.742,472.671 539.134,470.436 540.542,468.237 542.011,466.074 543.505,463.908 545.06,461.749 546.614,459.629 548.184,457.522 549.827,455.385 551.524,453.231 553.178,451.168 554.807,449.138 556.523,447.085 558.241,445.023 559.959,442.999 561.665,440.982 563.414,438.972 565.168,436.943 566.934,434.911 568.706,432.899 570.452,430.897 572.213,428.904 573.985,426.889 575.739,424.884 577.485,422.9 579.272,420.861 581.045,418.82 582.743,416.859 584.506,414.836 586.268,412.77 588.021,410.729 589.774,408.667 591.511,406.608 593.225,404.568 594.948,402.506 596.679,400.44 598.414,398.359 600.151,396.258 601.823,394.209 603.492,392.104 605.144,389.945 606.719,387.751 608.222,385.487 609.619,383.169 610.919,380.769 612.096,378.308 613.132,375.807 613.999,373.275 614.67,370.81 615.144,368.399 615.428,365.914 615.485,363.408 615.31,360.967 614.921,358.6 614.304,356.255 613.432,353.926 612.325,351.727 611.041,349.731 609.55,347.879 607.831,346.157 605.965,344.62 603.994,343.298 601.855,342.199 599.544,341.303 597.179,340.63 594.773,340.148 592.277,339.857 589.679,339.766 587.013,339.873 584.368,340.168 581.738,340.652 579.131,341.338 576.601,342.204 574.141,343.231 571.736,344.407 569.367,345.725 567.087,347.123 564.871,348.574 562.664,350.094 560.436,351.628 558.198,353.145 555.958,354.596 553.653,355.986 551.324,357.273 548.986,358.44 546.528,359.524 544.002,360.497 541.501,361.323 539.01,362.022 536.589,362.582 534.195,363.023 531.833,363.349 529.434,363.567 526.964,363.666 524.464,363.645 521.939,363.508 519.362,363.256 516.662,362.874 513.935,362.37 511.307,361.767 508.678,361.046 506.076,360.202 503.563,359.26 501.103,358.217 498.68,357.084 496.286,355.877 493.921,354.628 491.563,353.343 489.21,352.029 486.921,350.736 484.619,349.417 482.28,348.056 479.956,346.679 477.676,345.328 475.372,343.959 473.05,342.578 470.765,341.221 468.421,339.864 466.122,338.523 463.818,337.227 461.499,335.923 459.172,334.62 456.806,333.338 454.431,332.023 452.114,330.795 449.741,329.537 447.355,328.236 445.029,327.03 442.649,325.768 440.268,324.494 437.954,323.29 435.574,322.054 433.177,320.773 430.806,319.516 428.47,318.293 426.132,317.081 423.711,315.811 421.304,314.535 418.963,313.291 416.635,312.081 414.285,310.856 411.884,309.587 409.485,308.301 407.117,307.041 404.782,305.781 402.443,304.486 400.098,303.191 397.803,301.902 395.513,300.593 393.159,299.25 390.843,297.87 388.546,296.483 386.253,295.083 383.985,293.667 381.724,292.236 379.469,290.791 377.234,289.307 375.017,287.823 372.81,286.319 370.626,284.81 368.468,283.29 366.32,281.753 364.183,280.199 362.042,278.618 359.912,277.022 357.826,275.423 355.764,273.812 353.664,272.163 351.553,270.487 349.461,268.825 347.423,267.21 345.337,265.582 343.192,263.941 340.967,262.333 338.69,260.801 336.407,259.417 334.019,258.127 331.543,256.953 329.159,255.964 326.824,255.142 324.546,254.474 322.22,253.909 319.668,253.409 317.088,253.034 314.399,252.773 311.624,252.646 308.87,252.652 306.126,252.795 303.397,253.066 300.718,253.454 298.119,253.953 295.537,254.56 292.957,255.257 290.382,256.044 287.811,256.898 285.257,257.785 282.709,258.713 280.178,259.658 277.707,260.618 275.257,261.587 272.76,262.576 270.25,263.585 267.724,264.587 265.238,265.557 262.749,266.492 260.206,267.42 257.653,268.271 255.105,269.054 252.536,269.755 249.848,270.388 247.17,270.904 244.468,271.296 241.72,271.554 239.01,271.654 236.325,271.584 233.66,271.332 231.07,270.905 228.567,270.304 226.149,269.518 223.787,268.526 221.514,267.346 219.369,266.003 217.354,264.505 215.467,262.849 213.695,261.017 212.085,259.06 210.655,256.993 209.416,254.819 208.349,252.525 207.468,250.11 206.796,247.637 206.327,245.151 206.037,242.592 205.917,239.988 205.977,237.358 206.222,234.708 206.665,232.021 207.307,229.376 208.137,226.807 209.143,224.28 210.288,221.839 211.561,219.46 212.931,217.138 214.368,214.881 215.895,212.633 217.489,210.438 219.127,208.3 220.839,206.172 222.648,204.042 224.449,202.02 226.301,200.044 228.251,198.036 230.181,196.133 232.092,194.307 234.081,192.459 236.059,190.629 238.004,188.865 239.958,187.072 241.931,185.289 243.918,183.485 245.908,181.673 247.872,179.884 249.836,178.105 251.823,176.3 253.842,174.459 255.863,172.617 257.852,170.805 259.822,169.01 261.807,167.192 263.828,165.354 265.823,163.53 267.792,161.727 269.79,159.906 271.806,158.064 273.816,156.24 275.819,154.442 277.826,152.672 279.877,150.918 282.002,149.25 284.268,147.739 286.674,146.472 289.161,145.512 291.579,144.898 293.886,144.601 296.119,144.56 298.324,144.728 300.658,145.156 303.148,145.92 305.63,146.952 307.996,148.049 310.265,149.049 312.406,149.867 314.531,150.566 316.873,151.144 319.503,151.568 322.264,151.792 324.998,151.81 327.718,151.648 330.413,151.335 333.074,150.903 335.667,150.374 338.253,149.767 340.833,149.127 343.41,148.477 346.014,147.809 348.6,147.144 351.158,146.496 353.738,145.845 356.363,145.19 358.972,144.54 361.506,143.912 364.102,143.26 366.705,142.593 369.293,141.892 371.91,141.117 374.438,140.272 376.956,139.301 379.478,138.167 381.91,136.888 384.217,135.475 386.373,133.94 388.278,132.372 390.028,130.714 391.646,128.955 393.154,127.083 394.563,125.087 395.841,122.977 397.009,120.693 398.048,118.269 398.933,115.748 399.65,113.171 400.195,110.587 400.582,107.956 400.831,105.274 400.996,102.575 401.177,99.869 401.454,97.208 401.855,94.57 402.399,91.919 403.078,89.319 403.899,86.78 404.868,84.299 405.986,81.92 407.251,79.68 408.643,77.609 410.181,75.676 411.87,73.895 413.709,72.245 415.633,70.762 417.635,69.443 419.797,68.24 422.117,67.161 424.518,66.24 427.022,65.476 429.667,64.865 432.391,64.427 435.164,64.165 437.904,64.073 440.609,64.138 443.301,64.352 445.953,64.694 448.585,65.144 451.2,65.667 453.781,66.252 456.383,66.915 458.997,67.63 461.575,68.37 464.16,69.106 466.747,69.846 469.313,70.559 471.894,71.25 474.469,71.907 477.08,72.523 479.703,73.083 482.28,73.567 484.903,73.983 487.567,74.324 490.242,74.581 492.911,74.747 495.583,74.819 498.254,74.794 500.89,74.666 503.515,74.445 506.098,74.129 508.611,73.724 511.147,73.216 513.669,72.61 516.108,71.919 518.546,71.134 520.969,70.248 523.335,69.283 525.734,68.214 528.085,67.065 530.393,65.842 532.732,64.523 534.974,63.168 537.221,61.74 539.509,60.236 541.674,58.751 543.866,57.246 546.062,55.73 548.271,54.22 550.567,52.69 552.793,51.224 555.065,49.786 557.352,48.384 559.683,47.04 562.047,45.775 564.49,44.595 567.055,43.508 569.632,42.571 572.212,41.784 574.782,41.154 577.312,40.675 579.842,40.322 582.389,40.094 584.907,40.0 587.43,40.035 589.94,40.199 592.424,40.487 594.952,40.919 597.451,41.479 599.917,42.167 602.416,42.994 604.957,43.975 607.468,45.082 609.941,46.316 612.382,47.681 614.714,49.134 616.958,50.68 619.127,52.299 621.219,53.989 623.249,55.767 625.194,57.56 627.093,59.355 629.006,61.207 630.965,63.106 632.885,64.987 634.738,66.815 636.632,68.722 638.531,70.634 640.382,72.465 642.27,74.387 644.167,76.287 646.051,78.194 647.94,80.083 649.822,81.958 651.728,83.846 653.618,85.705 655.52,87.56 657.431,89.416 659.381,91.269 661.309,93.147 663.276,94.985 665.174,96.785 667.124,98.634 669.133,100.478 671.034,102.268 672.976,104.1 674.969,105.931 676.92,107.731 678.86,109.535 680.838,111.375 682.852,113.193 684.808,114.983 686.774,116.777 688.75,118.597 690.754,120.412 692.736,122.196 694.731,123.995 696.705,125.797 698.668,127.573 700.703,129.406 702.708,131.213 704.697,133.011 706.74,134.855 708.761,136.674 710.742,138.468 712.736,140.275 714.737,142.083 716.738,143.896 718.761,145.724 720.771,147.546 722.774,149.381 724.765,151.225 726.723,153.081 728.651,154.987 730.485,156.961 732.19,159.054 733.714,161.297 734.997,163.695 735.959,166.135 736.583,168.515 736.911,170.8 736.993,172.947 736.865,175.14 736.494,177.505 735.858,179.934 734.935,182.387 733.727,184.805 732.271,187.133 730.63,189.36 728.876,191.456 727.069,193.395 725.156,195.259 723.168,197.052 721.158,198.75 719.064,200.425 716.919,202.058 714.77,203.624 712.561,205.18 710.338,206.706 708.142,208.195 705.911,209.704 703.713,211.238 701.543,212.805 699.38,214.435 697.245,216.092 695.203,217.767 693.14,219.509 691.094,221.309 689.105,223.13 687.156,224.994 685.216,226.908 683.325,228.868 681.497,230.844 679.708,232.877 677.978,234.983 676.34,237.158 674.828,239.41 673.46,241.768 672.245,244.244 671.23,246.779 670.443,249.372 669.889,251.892 669.588,254.38 669.569,256.975 669.862,259.506 670.443,261.869 671.282,264.112 672.427,266.329 673.876,268.402 675.532,270.17 677.37,271.659 679.448,272.922 681.753,273.911 684.158,274.561 686.537,274.873 688.898,274.883 691.326,274.62 693.782,274.107 696.168,273.374 698.524,272.414 700.893,271.209 703.224,269.787 705.476,268.187 707.624,266.444 709.612,264.635 711.484,262.759 713.282,260.79 715.0,258.753 716.642,256.64 718.198,254.469 719.67,252.256 721.102,249.966 722.47,247.638 723.82,245.252 725.173,242.85 726.514,240.502 727.902,238.184 729.348,235.908 730.856,233.677 732.416,231.501 734.051,229.363 735.754,227.296 737.524,225.288 739.387,223.348 741.354,221.474 743.383,219.724 745.575,218.038 747.791,216.536 750.113,215.176 752.424,214.023 754.697,213.081 757.238,212.242 759.77,211.628 762.274,211.251 764.824,211.086 767.392,211.144 769.91,211.43 772.353,211.932 774.78,212.666 777.12,213.619 779.329,214.774 781.458,216.16 783.49,217.755 785.399,219.539 787.153,221.497 788.629,223.484 789.887,225.539 791.001,227.744 791.901,229.955 792.658,232.254 793.252,234.618 793.701,237.079 793.969,239.493 794.083,241.915 794.05,244.453 793.852,247.011 793.487,249.585 792.976,252.085 792.316,254.562 791.454,257.197 790.43,259.826 789.327,262.283 788.086,264.705 786.732,267.072 785.291,269.374 783.771,271.603 782.201,273.769 780.567,275.869 778.889,277.956 777.173,279.98 775.419,282.008 773.678,283.99 772.018,285.832 770.065,287.972 768.23,290.033 766.468,292.027 764.695,294.048 763.156,295.859 761.404,297.901 759.593,299.981 757.768,302.083 755.93,304.204 754.082,306.344 752.412,308.282 750.734,310.233 748.863,312.416 747.172,314.392 745.477,316.379 743.776,318.376 742.07,320.384 740.169,322.628 738.452,324.658 736.73,326.698 735.004,328.747 733.272,330.806 731.535,332.874 730.568,334.026 728.253,336.933" fill="none" stroke="white" stroke-width="4"
            stroke-linejoin="round" stroke-linecap="round"/>
</svg>
