<?xml version="1.0" encoding="utf-8"?>
<svg xmlns="http://www.w3.org/2000/svg" width="1000" height="600">
  <polyline points="692.3,193.128 691.354,195.183 690.441,197.182 689.52,199.285 688.606,201.427 687.714,203.49 686.859,205.547 685.994,207.651 685.141,209.772 684.272,211.868 683.432,213.967 682.593,216.069 681.756,218.192 680.911,220.315 680.072,222.413 679.246,224.506 678.418,226.64 677.599,228.746 676.791,230.853 675.965,232.972 675.148,235.074 674.328,237.253 673.529,239.338 672.738,241.412 671.934,243.532 671.125,245.674 670.317,247.859 669.512,250.009 668.743,252.131 667.977,254.288 667.218,256.395 666.51,258.53 665.763,260.667 665.053,262.833 664.332,265.0 663.645,267.183 662.966,269.333 662.321,271.445 661.669,273.586 661.002,275.807 660.368,278.04 659.732,280.163 659.117,282.323 658.525,284.44 657.942,286.626 657.382,288.75 656.839,290.902 656.317,293.119 655.814,295.259 655.283,297.462 654.818,299.648 654.306,301.838 653.828,304.062 653.327,306.305 652.83,308.577 652.335,310.794 651.847,313.004 651.365,315.234 650.896,317.425 650.419,319.595 649.917,321.823 649.452,324.062 648.952,326.317 648.487,328.501 647.978,330.716 647.518,332.955 647.026,335.185 646.535,337.394 646.072,339.636 645.567,341.861 645.097,344.053 644.59,346.29 644.146,348.482 643.662,350.656 643.178,352.93 642.656,355.174 642.192,357.376 641.687,359.553 641.181,361.778 640.657,363.97 640.127,366.148 639.578,368.334 639.007,370.534 638.417,372.713 637.821,374.87 637.208,377.016 636.562,379.196 635.905,381.354 635.255,383.458 634.544,385.635 633.819,387.783 633.104,389.868 632.348,391.978 631.561,394.149 630.743,396.339 629.939,398.449 629.13,400.524 628.288,402.614 627.439,404.712 626.578,406.808 625.717,408.876 624.802,410.953 623.89,413.066 622.98,415.115 622.065,417.168 621.098,419.273 620.156,421.349 619.234,423.382 618.254,425.483 617.285,427.551 616.321,429.607 615.35,431.663 614.352,433.701 613.377,435.724 612.408,437.735 611.398,439.779 610.385,441.83 609.37,443.89 608.367,445.939 607.334,447.938 606.294,449.989 605.256,452.031 604.199,454.04 603.178,456.021 602.108,458.014 601.035,460.034 599.957,462.021 598.849,463.997 597.716,466.006 596.531,468.023 595.369,469.983 594.178,471.932 592.952,473.877 591.737,475.804 590.469,477.741 589.189,479.647 587.916,481.53 586.591,483.442 585.261,485.341 583.914,487.217 582.549,489.093 581.166,490.928 579.766,492.722 578.258,494.48 576.684,496.157 574.999,497.742 573.204,499.228 571.346,500.533 569.505,501.617 567.721,502.48 565.958,503.182 564.043,503.742 561.922,504.195 559.657,504.499 557.342,504.649 555.058,504.712 552.816,504.754 550.636,504.846 548.568,505.02 546.612,505.275 544.645,505.629 542.627,506.127 540.547,506.761 538.416,507.591 536.304,508.566 534.265,509.665 532.301,510.888 530.414,512.216 528.621,513.621 526.928,515.09 525.288,516.628 523.65,518.251 522.058,519.886 520.508,521.513 518.921,523.144 517.29,524.721 515.616,526.215 513.873,527.639 512.061,528.97 510.228,530.188 508.426,531.279 506.585,532.282 504.678,533.21 502.68,534.075 500.605,534.864 498.435,535.577 496.175,536.199 493.916,536.719 491.655,537.132 489.381,537.436 487.099,537.647 484.823,537.772 482.534,537.816 480.255,537.798 478.041,537.761 475.759,537.692 473.471,537.622 471.236,537.536 468.975,537.443 466.711,537.359 464.443,537.265 462.16,537.18 459.874,537.107 457.595,537.04 455.325,536.99 453.053,536.946 450.797,536.914 448.539,536.876 446.254,536.846 443.992,536.815 441.708,536.796 439.458,536.794 437.21,536.766 434.93,536.747 432.663,536.746 430.375,536.74 428.125,536.732 425.867,536.727 423.576,536.737 421.311,536.745 419.053,536.753 416.762,536.77 414.484,536.809 412.265,536.832 409.973,536.861 407.687,536.905 405.448,536.939 403.158,536.976 400.881,537.027 398.607,537.058 396.338,537.114 394.077,537.158 391.797,537.204 389.525,537.254 387.249,537.299 384.977,537.341 382.715,537.38 380.421,537.416 378.174,537.448 375.919,537.466 373.64,537.484 371.401,537.487 369.136,537.486 366.833,537.463 364.532,537.419 362.271,537.329 360.02,537.169 357.727,536.907 355.433,536.535 353.166,536.055 350.915,535.465 348.72,534.776 346.652,534.011 344.773,533.211 342.929,532.335 341.027,531.339 339.147,530.243 337.252,529.014 335.354,527.681 333.497,526.351 331.605,525.061 329.621,523.829 327.603,522.722 325.508,521.748 323.322,520.926 321.183,520.31 319.2,519.9 317.306,519.641 315.34,519.492 313.258,519.48 311.025,519.644 308.687,519.989 306.385,520.498 304.183,521.151 302.051,521.941 299.968,522.849 297.924,523.84 295.914,524.88 293.921,525.967 291.937,527.091 289.978,528.23 288.038,529.398 286.116,530.587 284.183,531.809 282.269,533.048 280.385,534.3 278.484,535.583 276.594,536.867 274.727,538.131 272.852,539.408 270.954,540.695 269.054,541.937 267.16,543.183 265.229,544.417 263.306,545.62 261.369,546.807 259.437,547.977 257.475,549.122 255.48,550.269 253.495,551.375 251.49,552.47 249.456,553.555 247.413,554.623 245.35,555.662 243.282,556.652 241.189,557.573 239.03,558.401 236.797,559.102 234.526,559.63 232.245,559.943 229.988,560.0 227.868,559.778 225.892,559.282 224.041,558.509 222.355,557.481 220.89,556.244 219.648,554.821 218.627,553.206 217.847,551.444 217.305,549.562 216.996,547.571 216.919,545.493 217.078,543.278 217.458,540.988 218.019,538.719 218.721,536.525 219.538,534.396 220.452,532.315 221.437,530.276 222.5,528.267 223.607,526.31 224.751,524.373 225.932,522.427 227.121,520.494 228.317,518.587 229.525,516.671 230.736,514.754 231.951,512.841 233.146,510.932 234.362,508.997 235.565,507.066 236.756,505.154 237.94,503.25 239.113,501.354 240.31,499.412 241.519,497.429 242.722,495.494 243.877,493.571 245.06,491.664 246.233,489.713 247.407,487.792 248.573,485.861 249.749,483.881 250.919,481.942 252.076,480.007 253.22,478.056 254.383,476.098 255.523,474.156 256.659,472.205 257.804,470.233 258.943,468.255 260.07,466.296 261.169,464.334 262.28,462.367 263.378,460.383 264.481,458.392 265.559,456.4 266.632,454.396 267.695,452.377 268.729,450.361 269.739,448.348 270.728,446.316 271.715,444.246 272.68,442.173 273.584,440.142 274.478,438.085 275.371,435.956 276.225,433.893 277.03,431.804 277.835,429.681 278.585,427.586 279.315,425.45 280.019,423.284 280.68,421.146 281.332,418.955 281.94,416.769 282.506,414.632 283.051,412.479 283.569,410.269 284.044,408.076 284.514,405.908 284.971,403.626 285.394,401.402 285.841,399.176 286.273,396.931 286.701,394.717 287.14,392.484 287.567,390.238 288.001,388.02 288.429,385.815 288.861,383.59 289.299,381.34 289.742,379.099 290.189,376.852 290.647,374.586 291.114,372.364 291.618,370.14 292.172,367.93 292.814,365.732 293.568,363.551 294.45,361.402 295.469,359.296 296.583,357.322 297.77,355.513 299.033,353.852 300.381,352.305 301.831,350.836 303.398,349.43 305.056,348.112 306.781,346.893 308.625,345.748 310.63,344.69 312.756,343.739 314.938,342.941 317.169,342.283 319.402,341.757 321.637,341.343 323.893,341.017 326.16,340.778 328.434,340.62 330.7,340.537 332.973,340.515 335.269,340.569 337.557,340.689 339.852,340.878 342.164,341.14 344.398,341.471 346.651,341.851 348.923,342.306 351.136,342.819 353.325,343.386 355.494,344.0 357.642,344.674 359.76,345.42 361.854,346.185 363.931,347.005 366.011,347.875 368.044,348.786 370.06,349.734 372.051,350.737 374.011,351.778 375.928,352.855 377.836,353.969 379.753,355.136 381.668,356.332 383.557,357.551 385.435,358.792 387.315,360.073 389.198,361.37 391.068,362.687 392.907,364.009 394.712,365.315 396.518,366.643 398.373,367.997 400.207,369.342 402.011,370.675 403.851,372.023 405.696,373.361 407.515,374.679 409.362,376.0 411.216,377.305 413.059,378.584 414.972,379.866 416.873,381.102 418.791,382.302 420.745,383.448 422.738,384.535 424.827,385.571 426.918,386.505 429.048,387.352 431.22,388.108 433.291,388.729 435.248,389.234 437.293,389.665 439.447,390.015 441.688,390.273 444.021,390.438 446.334,390.501 448.672,390.47 450.989,390.351 453.262,390.152 455.543,389.869 457.81,389.512 460.055,389.088 462.3,388.593 464.5,388.002 466.688,387.26 468.851,386.298 470.912,385.099 472.725,383.724 474.116,382.358 475.199,381.02 476.191,379.536 477.187,377.716 478.115,375.552 478.806,373.285 479.261,371.013 479.587,368.751 479.848,366.526 480.066,364.367 480.283,362.268 480.521,360.21 480.797,358.151 481.119,356.024 481.501,353.849 481.927,351.626 482.414,349.373 482.925,347.135 483.474,344.934 484.056,342.741 484.692,340.548 485.349,338.384 486.036,336.248 486.774,334.084 487.545,331.947 488.339,329.849 489.166,327.738 490.037,325.623 490.909,323.536 491.796,321.481 492.705,319.397 493.617,317.311 494.55,315.254 495.459,313.17 496.403,311.094 497.319,309.023 498.251,306.964 499.193,304.89 500.119,302.823 501.047,300.796 501.975,298.717 502.954,296.615 503.889,294.543 504.827,292.494 505.761,290.439 506.708,288.378 507.658,286.305 508.6,284.239 509.547,282.175 510.48,280.116 511.419,278.072 512.367,275.997 513.32,273.912 514.266,271.838 515.198,269.808 516.128,267.755 517.078,265.676 518.013,263.619 518.963,261.532 519.893,259.465 520.822,257.414 521.753,255.343 522.694,253.242 523.624,251.167 524.527,249.128 525.459,247.041 526.399,244.937 527.326,242.861 528.253,240.756 529.181,238.643 530.09,236.544 530.992,234.434 531.884,232.341 532.762,230.248 533.648,228.106 534.505,225.985 535.328,223.867 536.102,221.702 536.787,219.507 537.333,217.241 537.687,214.904 537.775,212.535 537.595,210.438 537.279,208.838 536.878,207.435 536.206,205.576 535.333,203.179 534.732,200.885 534.496,199.213 534.44,197.903 534.52,196.185 534.912,193.913 535.668,191.588 536.721,189.468 537.99,187.524 539.388,185.732 540.874,184.067 542.432,182.441 544.029,180.839 545.643,179.251 547.279,177.666 548.904,176.11 550.53,174.562 552.172,173.006 553.826,171.454 555.47,169.913 557.126,168.359 558.795,166.809 560.449,165.268 562.128,163.716 563.799,162.178 565.46,160.661 567.139,159.139 568.845,157.623 570.578,156.115 572.292,154.628 574.008,153.181 575.766,151.721 577.516,150.277 579.286,148.871 581.068,147.455 582.86,146.06 584.626,144.706 586.397,143.363 588.235,142.002 590.065,140.666 591.879,139.37 593.689,138.094 595.547,136.823 597.416,135.551 599.318,134.3 601.229,133.041 603.135,131.824 605.049,130.619 606.946,129.445 608.839,128.294 610.783,127.132 612.74,125.98 614.701,124.846 616.691,123.734 618.682,122.639 620.617,121.599 622.592,120.569 624.626,119.531 626.667,118.523 628.669,117.552 630.722,116.573 632.778,115.614 634.81,114.673 636.886,113.744 638.982,112.813 641.033,111.903 643.107,111.025 645.213,110.125 647.303,109.241 649.405,108.363 651.516,107.5 653.599,106.624 655.67,105.78 657.775,104.899 659.868,104.035 661.951,103.17 664.047,102.292 666.164,101.397 668.251,100.511 670.329,99.603 672.403,98.699 674.445,97.768 676.498,96.83 678.564,95.843 680.601,94.843 682.612,93.816 684.628,92.746 686.624,91.649 688.577,90.529 690.575,89.351 692.509,88.16 694.385,86.963 696.299,85.706 698.148,84.438 699.933,83.174 701.731,81.863 703.497,80.531 705.236,79.175 706.973,77.776 708.694,76.348 710.39,74.886 712.075,73.373 713.707,71.871 715.371,70.297 717.009,68.694 718.597,67.113 720.206,65.472 721.812,63.829 723.402,62.2 724.986,60.571 726.568,58.948 728.137,57.325 729.739,55.681 731.35,54.039 732.976,52.39 734.598,50.769 736.213,49.183 737.867,47.601 739.564,46.067 741.331,44.623 743.26,43.255 745.283,42.065 747.409,41.12 749.435,40.497 751.355,40.139 753.233,40.0 755.132,40.079 757.109,40.407 759.28,41.034 761.483,41.958 763.538,43.094 765.435,44.385 767.217,45.805 768.89,47.302 770.533,48.898 772.109,50.5 773.652,52.126 775.208,53.848 776.691,55.618 778.058,57.424 779.34,59.349 780.515,61.425 781.477,63.547 782.199,65.669 782.696,67.793 782.972,69.788 783.081,71.772 783.031,73.787 782.813,75.769 782.399,77.816 781.755,79.999 780.914,82.176 779.881,84.31 778.683,86.358 777.39,88.241 776.047,89.958 774.557,91.755 773.022,93.476 771.484,95.106 769.917,96.721 768.338,98.321 766.748,99.89 765.19,101.465 763.5,103.097 761.928,104.668 760.292,106.265 758.673,107.85 757.115,109.404 755.575,110.935 753.974,112.572 752.265,114.301 750.704,115.912 749.099,117.504 747.539,119.133 745.955,120.746 744.489,122.431 742.831,124.142 741.37,125.773 739.842,127.375 738.268,129.043 736.65,130.745 735.029,132.486 733.637,134.116 732.079,135.695 730.511,137.548 729.007,139.228 727.482,140.861 725.999,142.518 724.667,144.107 723.024,145.833 721.554,147.511 720.181,149.17 718.566,151.041 717.239,152.543 715.689,154.444 714.291,156.265 712.978,157.99 711.567,159.864 710.379,161.546 709.017,163.436 707.644,165.36 706.394,167.265 705.349,168.863 704.072,170.863 702.942,172.785 701.814,174.831 700.714,176.735 699.707,178.541 698.492,180.728 697.47,182.656 696.382,184.652 695.383,186.609 694.374,188.639 693.733,189.951 692.3,193.128" fill="none" stroke="white" stroke-width="4"
            stroke-linejoin="round" stroke-linecap="round"/>
</svg>
