<?xml version="1.0" encoding="utf-8"?>
<svg xmlns="http://www.w3.org/2000/svg" width="1000" height="600">
  <polyline points="390.738,168.688 390.868,170.479 390.987,172.211 391.116,173.966 391.206,175.741 391.287,177.468 391.38,179.23 391.432,181.007 391.502,182.748 391.536,184.514 391.614,186.291 391.639,188.044 391.699,189.789 391.729,191.558 391.795,193.35 391.833,195.105 391.863,196.831 391.917,198.59 391.936,200.355 391.998,202.142 392.018,203.911 392.053,205.641 392.071,207.383 392.1,209.173 392.116,210.952 392.137,212.704 392.16,214.475 392.157,216.233 392.138,217.989 392.131,219.747 392.118,221.508 392.096,223.281 392.048,225.057 391.991,226.811 391.945,228.546 391.87,230.302 391.779,232.07 391.706,233.84 391.602,235.609 391.512,237.371 391.408,239.11 391.298,240.837 391.186,242.567 391.052,244.283 390.905,245.999 390.753,247.737 390.562,249.47 390.373,251.194 390.176,252.939 389.954,254.692 389.723,256.424 389.5,258.156 389.258,259.886 389.031,261.608 388.775,263.369 388.537,265.155 388.299,266.898 388.046,268.625 387.804,270.356 387.55,272.108 387.298,273.857 387.056,275.577 386.812,277.308 386.554,279.081 386.293,280.865 386.059,282.611 385.819,284.365 385.565,286.109 385.33,287.822 385.086,289.567 384.846,291.301 384.606,293.026 384.366,294.797 384.119,296.564 383.896,298.325 383.657,300.074 383.431,301.802 383.215,303.52 383.001,305.238 382.794,306.978 382.606,308.729 382.421,310.447 382.265,312.192 382.093,313.976 381.955,315.721 381.833,317.445 381.727,319.192 381.622,320.96 381.553,322.721 381.489,324.47 381.444,326.219 381.404,327.979 381.399,329.73 381.394,331.469 381.416,333.22 381.432,334.948 381.486,336.685 381.535,338.435 381.606,340.207 381.673,341.988 381.755,343.748 381.864,345.495 381.989,347.252 382.103,348.997 382.214,350.757 382.374,352.522 382.512,354.256 382.677,356.032 382.805,357.812 382.963,359.567 383.115,361.322 383.291,363.08 383.45,364.852 383.614,366.602 383.791,368.328 383.962,370.056 384.141,371.838 384.336,373.605 384.526,375.342 384.727,377.1 384.936,378.867 385.146,380.644 385.364,382.4 385.595,384.142 385.828,385.88 386.083,387.609 386.333,389.37 386.624,391.125 386.918,392.857 387.224,394.593 387.574,396.362 387.908,398.12 388.291,399.86 388.676,401.604 389.083,403.356 389.507,405.099 389.932,406.809 390.386,408.521 390.851,410.274 391.316,412.004 391.798,413.709 392.314,415.406 392.851,417.086 393.457,418.77 394.162,420.428 394.964,422.025 395.881,423.567 396.904,425.026 397.965,426.307 399.032,427.391 400.126,428.357 401.361,429.282 402.777,430.186 404.353,431.028 405.999,431.781 407.646,432.441 409.271,433.079 410.845,433.735 412.303,434.41 413.647,435.107 414.982,435.883 416.326,436.785 417.684,437.811 419.006,438.974 420.276,440.233 421.473,441.581 422.593,443.008 423.62,444.481 424.536,445.957 425.39,447.493 426.192,449.081 426.932,450.661 427.647,452.261 428.349,453.879 429.064,455.478 429.83,457.061 430.654,458.608 431.546,460.114 432.517,461.579 433.517,462.942 434.551,464.232 435.64,465.467 436.776,466.641 437.997,467.796 439.309,468.93 440.691,470.016 442.151,471.058 443.672,472.042 445.23,472.955 446.814,473.787 448.419,474.545 450.028,475.232 451.648,475.861 453.319,476.454 455.004,477.035 456.66,477.587 458.337,478.136 460.025,478.676 461.691,479.214 463.36,479.748 465.04,480.288 466.711,480.833 468.354,481.379 470.026,481.936 471.71,482.51 473.368,483.083 475.034,483.659 476.716,484.247 478.38,484.827 480.011,485.408 481.678,486.0 483.378,486.609 485.053,487.205 486.682,487.796 488.308,488.359 489.967,488.977 491.648,489.585 493.283,490.178 494.938,490.779 496.622,491.404 498.261,492.022 499.889,492.628 501.549,493.26 503.183,493.88 504.828,494.517 506.494,495.153 508.12,495.781 509.754,496.416 511.39,497.045 513.058,497.704 514.692,498.336 516.331,498.98 517.982,499.626 519.63,500.265 521.278,500.914 522.917,501.545 524.544,502.177 526.174,502.806 527.829,503.436 529.479,504.063 531.115,504.675 532.766,505.29 534.444,505.899 536.112,506.497 537.781,507.072 539.478,507.623 541.156,508.103 542.895,508.525 544.67,508.867 546.446,509.122 548.249,509.293 550.026,509.377 551.716,509.371 553.319,509.288 554.909,509.141 556.568,508.915 558.25,508.609 559.951,508.215 561.653,507.756 563.346,507.29 565.072,506.857 566.858,506.491 568.643,506.227 570.411,506.083 572.216,506.072 573.943,506.192 575.502,506.42 576.951,506.732 578.418,507.143 579.944,507.688 581.538,508.406 583.148,509.277 584.691,510.264 586.142,511.345 587.479,512.484 588.74,513.69 589.955,514.948 591.142,516.246 592.319,517.585 593.455,518.916 594.566,520.265 595.671,521.628 596.757,523.006 597.846,524.412 598.907,525.826 599.946,527.238 600.983,528.67 602.023,530.118 603.056,531.557 604.095,533.006 605.127,534.42 606.174,535.85 607.244,537.282 608.305,538.669 609.394,540.077 610.496,541.467 611.598,542.838 612.724,544.201 613.876,545.569 615.041,546.922 616.202,548.243 617.386,549.568 618.59,550.889 619.809,552.189 621.051,553.46 622.342,554.697 623.704,555.878 625.121,556.964 626.628,557.948 628.211,558.786 629.822,559.424 631.423,559.83 632.998,560.0 634.562,559.934 636.064,559.635 637.464,559.122 638.753,558.409 639.923,557.503 640.966,556.421 641.861,555.196 642.612,553.838 643.225,552.334 643.702,550.672 644.036,548.908 644.232,547.123 644.307,545.336 644.281,543.549 644.174,541.794 644.0,540.052 643.761,538.3 643.476,536.573 643.158,534.85 642.823,533.136 642.473,531.428 642.107,529.7 641.738,527.968 641.363,526.25 641.004,524.543 640.631,522.835 640.275,521.093 639.903,519.364 639.548,517.662 639.191,515.94 638.835,514.214 638.479,512.503 638.138,510.789 637.777,509.047 637.427,507.314 637.085,505.575 636.748,503.858 636.41,502.164 636.081,500.411 635.746,498.69 635.421,496.979 635.095,495.237 634.777,493.486 634.46,491.749 634.147,490.034 633.837,488.298 633.528,486.553 633.221,484.814 632.929,483.084 632.636,481.336 632.353,479.607 632.085,477.898 631.818,476.182 631.568,474.445 631.315,472.693 631.089,470.939 630.869,469.178 630.663,467.418 630.488,465.689 630.321,463.963 630.172,462.199 630.043,460.442 629.938,458.712 629.854,456.957 629.787,455.153 629.749,453.429 629.745,451.69 629.745,449.943 629.784,448.226 629.848,446.455 629.935,444.683 630.054,442.968 630.184,441.209 630.339,439.469 630.523,437.742 630.732,436.038 630.961,434.286 631.216,432.53 631.48,430.797 631.753,429.054 632.036,427.301 632.31,425.572 632.584,423.857 632.864,422.108 633.142,420.383 633.42,418.64 633.702,416.87 633.983,415.135 634.26,413.391 634.538,411.628 634.805,409.902 635.073,408.142 635.329,406.382 635.556,404.62 635.74,402.846 635.859,401.08 635.889,399.283 635.818,397.479 635.638,395.685 635.349,393.932 634.961,392.28 634.483,390.736 633.914,389.252 633.246,387.792 632.485,386.361 631.64,384.978 630.695,383.613 629.642,382.272 628.475,380.979 627.195,379.739 625.815,378.575 624.372,377.503 622.882,376.518 621.358,375.611 619.814,374.776 618.239,373.995 616.626,373.271 614.973,372.595 613.299,371.964 611.596,371.383 609.904,370.86 608.231,370.403 606.486,369.973 604.713,369.598 602.986,369.279 601.231,369.006 599.477,368.784 597.734,368.609 595.963,368.485 594.217,368.404 592.501,368.369 590.757,368.372 588.995,368.426 587.258,368.505 585.549,368.626 583.844,368.783 582.133,368.979 580.418,369.215 578.7,369.489 576.99,369.793 575.277,370.131 573.572,370.488 571.853,370.872 570.137,371.278 568.447,371.707 566.758,372.139 565.087,372.59 563.393,373.066 561.67,373.559 559.961,374.055 558.308,374.535 556.638,375.023 554.927,375.526 553.237,376.016 551.56,376.498 549.854,376.986 548.149,377.461 546.466,377.918 544.773,378.361 543.07,378.78 541.348,379.18 539.604,379.546 537.862,379.865 536.109,380.125 534.361,380.316 532.582,380.442 530.768,380.493 529.005,380.463 527.336,380.368 525.734,380.207 524.129,379.969 522.5,379.652 520.8,379.237 519.052,378.729 517.342,378.155 515.662,377.519 514.005,376.814 512.391,376.058 510.803,375.245 509.252,374.384 507.741,373.488 506.245,372.541 504.77,371.508 503.369,370.382 502.066,369.119 500.877,367.691 499.918,366.197 499.27,364.833 498.84,363.575 498.515,362.232 498.278,360.63 498.186,358.795 498.293,356.967 498.566,355.204 498.93,353.478 499.338,351.788 499.761,350.163 500.177,348.558 500.562,346.981 500.911,345.409 501.251,343.764 501.563,342.071 501.842,340.346 502.095,338.596 502.322,336.837 502.512,335.077 502.674,333.31 502.802,331.559 502.905,329.794 502.979,328.027 503.013,326.272 503.029,324.511 503.01,322.771 502.971,321.022 502.904,319.269 502.822,317.499 502.731,315.732 502.629,313.999 502.509,312.247 502.404,310.486 502.279,308.736 502.159,306.977 502.037,305.204 501.914,303.441 501.786,301.71 501.653,299.947 501.521,298.174 501.385,296.414 501.247,294.654 501.114,292.9 500.972,291.146 500.833,289.391 500.696,287.644 500.558,285.898 500.42,284.134 500.28,282.361 500.14,280.589 500.0,278.826 499.867,277.084 499.728,275.365 499.591,273.617 499.451,271.853 499.315,270.09 499.175,268.33 499.037,266.585 498.903,264.822 498.762,263.052 498.633,261.293 498.499,259.557 498.367,257.784 498.239,256.003 498.105,254.233 497.984,252.502 497.855,250.735 497.731,248.929 497.615,247.162 497.5,245.38 497.398,243.604 497.297,241.837 497.207,240.068 497.119,238.303 497.043,236.532 496.979,234.75 496.941,232.963 496.953,231.184 497.039,229.412 497.243,227.625 497.604,225.835 498.17,224.085 498.862,222.602 499.515,221.528 500.182,220.611 501.18,219.421 502.448,217.91 503.496,216.397 504.12,215.227 504.506,214.293 504.896,213.036 505.206,211.292 505.269,209.4 505.069,207.563 504.682,205.822 504.158,204.144 503.52,202.501 502.824,200.898 502.096,199.302 501.351,197.709 500.599,196.124 499.837,194.542 499.063,192.96 498.291,191.394 497.52,189.837 496.728,188.249 495.935,186.674 495.141,185.097 494.353,183.532 493.554,181.977 492.749,180.409 491.937,178.851 491.103,177.279 490.279,175.725 489.429,174.183 488.556,172.615 487.68,171.071 486.814,169.567 485.908,168.07 485.001,166.543 484.068,165.042 483.144,163.556 482.213,162.086 481.248,160.624 480.292,159.161 479.335,157.734 478.356,156.299 477.326,154.822 476.296,153.371 475.283,151.963 474.235,150.547 473.188,149.138 472.129,147.75 471.051,146.364 469.97,144.992 468.88,143.629 467.782,142.285 466.68,140.949 465.556,139.618 464.397,138.268 463.231,136.938 462.084,135.65 460.906,134.352 459.717,133.079 458.541,131.831 457.316,130.562 456.063,129.28 454.834,128.041 453.595,126.805 452.321,125.558 451.074,124.357 449.802,123.138 448.507,121.92 447.235,120.723 445.93,119.526 444.647,118.338 443.337,117.136 442.036,115.948 440.741,114.763 439.445,113.571 438.148,112.388 436.857,111.194 435.55,109.993 434.258,108.787 433.009,107.619 431.727,106.406 430.449,105.182 429.184,103.951 427.934,102.709 426.703,101.459 425.48,100.186 424.284,98.897 423.088,97.569 421.925,96.236 420.802,94.903 419.675,93.528 418.577,92.139 417.524,90.759 416.485,89.359 415.478,87.948 414.505,86.53 413.527,85.06 412.599,83.606 411.724,82.202 410.831,80.721 409.954,79.207 409.118,77.702 408.288,76.139 407.485,74.562 406.697,72.993 405.955,71.418 405.2,69.824 404.457,68.192 403.723,66.58 402.995,64.966 402.271,63.343 401.54,61.722 400.811,60.101 400.086,58.486 399.362,56.893 398.624,55.278 397.869,53.659 397.106,52.06 396.325,50.482 395.502,48.926 394.587,47.39 393.554,45.895 392.393,44.488 391.1,43.235 389.763,42.219 388.454,41.445 387.152,40.857 385.755,40.411 384.189,40.119 382.447,40.0 380.608,40.088 378.808,40.37 377.065,40.813 375.402,41.371 373.764,42.031 372.155,42.752 370.58,43.503 368.992,44.291 367.434,45.107 365.896,45.988 364.395,46.951 362.941,48.014 361.52,49.222 360.243,50.529 359.156,51.884 358.26,53.261 357.528,54.639 356.915,56.073 356.419,57.541 356.054,59.027 355.805,60.669 355.693,62.413 355.729,64.272 355.913,66.086 356.231,67.828 356.686,69.577 357.225,71.267 357.817,72.901 358.466,74.547 359.164,76.162 359.866,77.73 360.61,79.344 361.37,80.969 362.116,82.55 362.855,84.109 363.615,85.719 364.389,87.357 365.119,88.925 365.839,90.48 366.548,92.128 367.281,93.749 368.003,95.335 368.711,96.91 369.465,98.479 370.219,100.12 370.916,101.72 371.657,103.372 372.337,104.981 373.036,106.607 373.703,108.18 374.38,109.766 375.1,111.457 375.802,113.119 376.462,114.685 377.15,116.314 377.822,117.956 378.474,119.557 379.124,121.17 379.769,122.795 380.409,124.431 381.039,126.08 381.66,127.743 382.27,129.417 382.869,131.105 383.453,132.806 384.007,134.463 384.525,136.069 385.044,137.753 385.53,139.393 385.987,140.97 386.455,142.69 386.908,144.419 387.299,146.034 387.697,147.725 388.084,149.484 388.441,151.118 388.753,152.768 389.067,154.518 389.333,156.188 389.597,157.858 389.843,159.64 390.138,161.537 390.342,163.217 390.529,164.904 390.645,166.031 390.738,168.688" fill="none" stroke="white" stroke-width="4"
            stroke-linejoin="round" stroke-linecap="round"/>
  <line x1="370.790" y1="170.136" x2="410.686" y2="167.240" stroke="red" stroke-width="3" stroke-linecap="round"/>
</svg>
