<?xml version="1.0" encoding="utf-8"?>
<svg xmlns="http://www.w3.org/2000/svg" width="1000" height="600">
  <polyline points="770.931,242.942 768.458,243.683 765.96,244.455 763.453,245.247 761.012,246.003 758.564,246.781 756.055,247.565 753.565,248.363 751.064,249.176 748.608,249.954 746.15,250.744 743.654,251.56 741.176,252.359 738.695,253.184 736.238,253.985 733.781,254.794 731.308,255.612 728.832,256.418 726.385,257.224 723.925,258.042 721.451,258.859 718.987,259.666 716.473,260.482 713.994,261.312 711.576,262.104 709.107,262.914 706.612,263.75 704.151,264.555 701.664,265.382 699.206,266.21 696.718,267.037 694.235,267.855 691.784,268.684 689.338,269.517 686.889,270.326 684.447,271.135 681.953,271.971 679.483,272.774 677.01,273.611 674.522,274.443 672.069,275.272 669.603,276.093 667.109,276.937 664.606,277.756 662.138,278.593 659.702,279.424 657.265,280.242 654.788,281.104 652.273,281.916 649.802,282.757 647.326,283.604 644.839,284.44 642.378,285.269 639.885,286.108 637.388,286.973 634.886,287.817 632.404,288.677 629.951,289.514 627.489,290.379 624.998,291.266 622.551,292.214 620.157,293.288 617.815,294.536 615.553,296.002 613.473,297.808 611.937,299.644 611.009,301.216 610.416,302.737 610.055,304.638 610.001,307.157 610.111,309.917 610.107,312.354 609.853,314.399 609.325,316.23 608.452,317.926 607.192,319.538 605.414,320.99 603.112,322.121 600.463,322.798 597.756,323.013 595.081,322.841 592.483,322.358 589.923,321.69 587.38,320.866 584.896,319.921 582.468,318.93 580.06,317.972 577.702,317.072 575.313,316.254 572.934,315.534 570.507,314.919 568.067,314.376 565.562,313.943 563.029,313.608 560.493,313.358 557.974,313.225 555.411,313.169 552.847,313.178 550.275,313.277 547.663,313.435 545.064,313.646 542.506,313.909 539.938,314.214 537.337,314.548 534.792,314.894 532.225,315.274 529.6,315.677 527.05,316.039 524.507,316.443 521.906,316.819 519.356,317.231 516.777,317.608 514.214,318.01 511.658,318.413 509.065,318.786 506.492,319.197 503.957,319.588 501.374,319.991 498.76,320.403 496.172,320.804 493.604,321.181 491.025,321.57 488.402,321.938 485.819,322.303 483.284,322.649 480.681,323.003 478.099,323.355 475.558,323.712 473.005,324.097 470.436,324.575 467.856,325.255 465.282,326.217 463.078,327.336 461.385,328.453 459.716,329.862 457.904,331.741 456.24,333.865 454.828,336.021 453.575,338.144 452.342,340.246 451.02,342.336 449.579,344.344 447.991,346.238 446.258,348.005 444.412,349.634 442.427,351.13 440.345,352.472 438.161,353.645 435.888,354.667 433.533,355.506 431.138,356.169 428.685,356.655 426.185,356.965 423.668,357.095 421.158,357.058 418.679,356.838 416.184,356.467 413.718,355.922 411.297,355.212 408.911,354.34 406.606,353.329 404.329,352.185 402.011,350.921 399.747,349.676 397.482,348.479 395.16,347.352 392.813,346.338 390.493,345.495 388.12,344.767 385.665,344.166 383.242,343.721 380.728,343.418 378.205,343.266 375.674,343.273 373.101,343.438 370.529,343.762 368.006,344.236 365.498,344.869 363.022,345.652 360.598,346.59 358.211,347.68 355.948,348.881 353.813,350.183 351.837,351.563 349.933,353.066 348.095,354.721 346.291,356.504 344.49,358.394 342.682,360.299 340.812,362.147 338.896,363.88 336.996,365.428 335.073,366.799 333.115,368.023 331.027,369.149 328.758,370.195 326.346,371.106 323.792,371.892 321.204,372.499 318.609,372.941 315.996,373.216 313.371,373.359 310.787,373.382 308.21,373.312 305.6,373.153 302.961,372.885 300.356,372.47 297.775,371.879 295.252,371.102 292.837,370.156 290.54,369.055 288.384,367.813 286.348,366.444 284.407,364.921 282.62,363.286 280.945,361.532 279.38,359.632 277.935,357.612 276.574,355.448 275.284,353.185 274.007,350.892 272.683,348.643 271.29,346.504 269.811,344.519 268.257,342.699 266.59,340.993 264.817,339.4 262.929,337.927 260.881,336.539 258.703,335.273 256.346,334.106 253.812,333.063 251.272,332.207 248.797,331.537 246.33,330.99 243.85,330.516 241.354,330.063 238.84,329.585 236.349,329.081 233.849,328.551 231.334,327.982 228.827,327.416 226.324,326.83 223.813,326.248 221.243,325.643 218.682,325.069 216.136,324.499 213.596,323.949 211.067,323.433 208.545,322.941 206.05,322.479 203.559,322.046 201.03,321.644 198.504,321.282 195.962,320.955 193.379,320.656 190.769,320.38 188.182,320.139 185.589,319.908 183.024,319.714 180.468,319.544 177.897,319.384 175.289,319.264 172.681,319.144 170.082,319.059 167.504,318.982 164.914,318.919 162.324,318.89 159.736,318.856 157.129,318.851 154.52,318.859 151.89,318.875 149.3,318.912 146.717,318.946 144.138,318.989 141.509,319.04 138.905,319.102 136.298,319.154 133.708,319.219 131.116,319.278 128.491,319.359 125.916,319.419 123.302,319.507 120.686,319.584 118.135,319.658 115.514,319.744 112.857,319.841 110.323,319.929 107.716,320.029 105.086,320.125 102.522,320.225 99.922,320.319 97.3,320.435 94.711,320.527 92.09,320.637 89.522,320.742 86.927,320.846 84.282,320.961 81.666,321.076 79.043,321.192 76.422,321.316 73.817,321.441 71.205,321.58 68.598,321.748 65.991,321.974 63.365,322.297 60.755,322.747 58.171,323.344 55.63,324.109 53.197,325.051 50.895,326.182 48.747,327.52 46.814,329.043 45.066,330.783 43.522,332.737 42.248,334.832 41.249,337.054 40.535,339.382 40.115,341.783 40.0,344.197 40.183,346.609 40.656,348.997 41.406,351.312 42.416,353.526 43.674,355.626 45.172,357.603 46.867,359.413 48.785,361.078 50.893,362.565 53.171,363.857 55.607,364.956 58.116,365.814 60.701,366.439 63.351,366.827 66.06,366.984 68.759,366.915 71.43,366.638 74.07,366.175 76.65,365.547 79.195,364.761 81.698,363.825 84.16,362.74 86.548,361.529 88.811,360.234 91.053,358.842 93.253,357.412 95.435,355.996 97.627,354.597 99.828,353.225 102.027,351.908 104.246,350.634 106.483,349.42 108.784,348.253 111.071,347.169 113.387,346.155 115.753,345.198 118.166,344.308 120.543,343.516 122.998,342.775 125.51,342.106 127.975,341.53 130.479,341.029 132.979,340.608 135.496,340.261 138.049,339.996 140.581,339.81 143.146,339.704 145.694,339.671 148.234,339.722 150.797,339.849 153.311,340.056 155.856,340.339 158.384,340.703 160.916,341.142 163.382,341.656 165.885,342.26 168.348,342.928 170.761,343.666 173.221,344.491 175.606,345.384 177.967,346.312 180.311,347.305 182.655,348.327 185.026,349.372 187.389,350.396 189.814,351.409 192.262,352.364 194.722,353.247 197.203,354.059 199.723,354.803 202.25,355.47 204.769,356.06 207.291,356.578 209.795,357.032 212.314,357.428 214.87,357.768 217.414,358.082 219.927,358.395 222.491,358.773 225.069,359.268 227.675,359.939 230.168,360.786 232.476,361.794 234.633,362.97 236.595,364.285 238.412,365.765 240.101,367.399 241.688,369.195 243.238,371.227 244.696,373.463 245.993,375.799 247.13,378.08 248.245,380.278 249.408,382.363 250.713,384.399 252.161,386.354 253.756,388.212 255.487,389.956 257.352,391.58 259.357,393.081 261.529,394.468 263.812,395.711 266.225,396.808 268.723,397.738 271.276,398.5 273.843,399.084 276.426,399.502 279.074,399.774 281.675,399.928 284.318,399.995 286.931,399.987 289.593,399.897 292.231,399.724 294.848,399.463 297.43,399.116 300.013,398.705 302.563,398.213 305.099,397.661 307.654,397.029 310.157,396.348 312.661,395.593 315.121,394.784 317.603,393.937 320.042,393.069 322.437,392.146 324.834,391.192 327.23,390.216 329.629,389.203 331.999,388.206 334.35,387.204 336.727,386.185 339.138,385.163 341.509,384.134 343.93,383.132 346.314,382.145 348.702,381.168 351.164,380.22 353.596,379.311 356.054,378.453 358.52,377.61 360.983,376.826 363.523,376.087 366.049,375.392 368.463,374.784 370.959,374.193 373.552,373.626 376.067,373.135 378.57,372.693 381.078,372.278 383.614,371.927 386.182,371.609 388.697,371.358 391.182,371.141 393.787,370.964 396.33,370.827 398.904,370.728 401.457,370.666 403.987,370.615 406.578,370.558 409.251,370.491 411.869,370.402 414.45,370.272 417.099,370.093 419.731,369.863 422.28,369.593 424.852,369.271 427.457,368.9 429.976,368.485 432.478,368.028 434.971,367.521 437.582,366.941 440.033,366.349 442.428,365.718 444.917,365.019 447.354,364.291 449.887,363.478 452.339,362.658 454.684,361.804 457.041,360.907 459.396,359.953 461.731,358.951 464.067,357.888 466.374,356.809 468.738,355.634 471.01,354.465 473.28,353.244 475.51,352.008 477.724,350.76 479.992,349.491 482.304,348.207 484.572,346.969 486.901,345.724 489.213,344.53 491.582,343.334 493.876,342.221 496.205,341.145 498.609,340.086 500.995,339.093 503.337,338.164 505.726,337.268 508.203,336.399 510.622,335.597 513.106,334.83 515.63,334.108 518.159,333.429 520.618,332.824 523.132,332.247 525.709,331.708 528.277,331.223 530.753,330.806 533.308,330.424 535.884,330.087 538.469,329.8 540.971,329.568 543.553,329.366 546.156,329.226 548.724,329.146 551.241,329.09 553.861,329.087 556.476,329.148 559.064,329.234 561.635,329.366 564.165,329.554 566.824,329.79 569.358,330.058 571.907,330.382 574.483,330.744 577.063,331.162 579.619,331.619 582.155,332.099 584.708,332.609 587.259,333.121 589.836,333.631 592.414,334.099 594.951,334.484 597.582,334.759 600.27,334.875 602.927,334.803 605.388,334.535 607.759,334.085 610.049,333.469 612.34,332.672 614.526,331.728 616.754,330.566 618.885,329.245 621.006,327.719 623.076,326.008 625.035,324.17 626.804,322.353 628.518,320.528 630.246,318.778 632.065,317.085 633.963,315.483 635.964,313.969 638.005,312.576 640.187,311.252 642.434,310.045 644.785,308.937 647.165,307.963 649.644,307.1 652.15,306.372 654.66,305.778 657.243,305.304 659.848,304.966 662.452,304.741 665.087,304.644 667.662,304.655 670.205,304.772 672.692,304.979 675.189,305.285 677.623,305.69 680.036,306.168 682.521,306.768 684.913,307.456 687.425,308.248 689.93,309.124 692.374,310.066 694.746,311.043 697.147,312.105 699.489,313.208 701.819,314.379 704.115,315.558 706.467,316.84 708.757,318.099 711.016,319.385 713.219,320.681 715.417,321.988 717.685,323.301 719.923,324.553 722.158,325.776 724.494,326.969 726.899,328.154 729.261,329.259 731.574,330.253 733.916,331.208 736.299,332.146 738.775,333.029 741.309,333.853 743.73,334.605 746.171,335.325 748.675,335.976 751.155,336.564 753.687,337.103 756.222,337.595 758.729,337.998 761.231,338.365 763.838,338.656 766.353,338.898 768.914,339.083 771.535,339.206 774.122,339.287 776.673,339.297 779.227,339.282 781.779,339.195 784.396,339.067 786.984,338.887 789.559,338.676 792.125,338.409 794.703,338.084 797.203,337.744 799.844,337.326 802.414,336.909 804.968,336.407 807.551,335.897 810.083,335.36 812.645,334.787 815.167,334.151 817.685,333.52 820.238,332.809 822.679,332.121 825.202,331.367 827.647,330.604 830.148,329.787 832.656,328.979 835.149,328.096 837.569,327.2 839.998,326.326 842.37,325.352 844.782,324.361 847.249,323.35 849.542,322.324 851.882,321.285 854.328,320.125 856.657,319.039 859.046,317.935 861.308,316.73 863.625,315.58 865.947,314.367 868.163,313.128 870.47,311.829 872.732,310.596 874.868,309.323 877.15,307.922 879.31,306.595 881.518,305.186 883.706,303.744 885.815,302.313 887.908,300.862 890.097,299.3 892.198,297.801 894.236,296.252 896.256,294.658 898.344,293.05 900.39,291.411 902.334,289.797 904.309,288.119 906.265,286.429 908.164,284.788 910.125,283.025 912.012,281.227 913.876,279.472 915.806,277.641 917.644,275.811 919.46,273.919 921.31,272.028 923.095,270.139 924.871,268.211 926.546,266.328 928.318,264.34 930.017,262.334 931.67,260.311 933.282,258.306 934.918,256.212 936.547,254.13 938.084,252.099 939.644,250.025 941.271,247.902 942.849,245.751 944.405,243.676 945.953,241.627 947.523,239.531 949.106,237.417 950.668,235.297 952.209,233.16 953.678,231.026 955.08,228.8 956.402,226.48 957.616,224.11 958.644,221.683 959.418,219.227 959.872,216.843 960.0,214.512 959.808,212.213 959.269,210.007 958.408,207.937 957.247,206.04 955.777,204.332 954.005,202.908 952.025,201.733 949.809,200.862 947.389,200.299 944.826,200.023 942.21,200.005 939.599,200.195 936.986,200.555 934.472,201.032 931.93,201.621 929.453,202.235 926.933,202.876 924.454,203.499 921.859,204.148 919.378,204.762 916.857,205.386 914.352,205.983 911.853,206.582 909.277,207.195 906.815,207.792 904.318,208.386 901.855,208.958 899.218,209.496 896.674,210.077 894.196,210.629 891.606,211.208 889.215,211.762 886.519,212.432 883.943,212.996 881.548,213.559 878.891,214.113 876.402,214.695 873.902,215.244 871.33,215.822 868.855,216.371 866.466,217.053 863.643,217.703 861.122,218.29 858.605,218.882 856.213,219.45 853.74,220.045 851.256,220.649 848.76,221.263 846.253,221.889 843.862,222.493 841.559,223.078 838.759,223.793 836.119,224.473 833.559,225.138 830.847,225.85 828.34,226.514 825.826,227.187 823.448,227.83 821.063,228.481 818.454,229.198 815.836,229.923 813.167,230.666 811.018,231.266 808.379,232.005 805.866,232.713 803.524,233.377 800.867,234.135 798.426,234.837 795.98,235.544 793.53,236.258 791.075,236.979 788.349,237.788 786.079,238.465 783.462,239.251 780.99,239.996 778.439,240.769 776.034,241.501 774.679,241.914 770.931,242.942" fill="none" stroke="white" stroke-width="4"
            stroke-linejoin="round" stroke-linecap="round"/>
</svg>
