<?xml version="1.0" encoding="utf-8"?>
<svg xmlns="http://www.w3.org/2000/svg" width="1000" height="600">
  <polyline points="354.291,150.13 355.419,151.754 356.525,153.446 357.619,154.999 358.734,156.663 359.895,158.355 361.019,160.016 362.128,161.66 363.22,163.264 364.291,164.856 365.454,166.539 366.549,168.168 367.662,169.816 368.841,171.506 369.936,173.168 371.014,174.745 372.155,176.418 373.272,178.07 374.354,179.674 375.495,181.347 376.614,183.034 377.743,184.709 378.83,186.306 379.947,187.939 381.026,189.572 382.16,191.229 383.232,192.843 384.344,194.474 385.455,196.139 386.578,197.84 387.724,199.472 388.786,201.11 389.888,202.765 390.972,204.436 392.143,206.077 393.238,207.779 394.345,209.427 395.416,211.023 396.516,212.693 397.602,214.294 398.678,215.968 399.819,217.668 400.956,219.322 402.009,220.929 403.121,222.642 404.233,224.289 405.348,225.938 406.457,227.616 407.572,229.282 408.644,230.865 409.746,232.547 410.891,234.262 411.986,235.924 413.104,237.596 414.203,239.253 415.303,240.948 416.41,242.657 417.504,244.29 418.588,245.992 419.622,247.663 420.664,249.387 421.599,251.181 422.449,253.024 423.143,254.964 423.58,257.009 423.674,258.851 423.51,260.274 423.153,261.47 422.458,262.806 421.278,264.348 419.923,265.932 418.772,267.378 417.933,268.727 417.373,270.103 417.099,271.532 417.116,273.101 417.519,274.796 418.394,276.556 419.686,278.2 421.23,279.567 422.931,280.667 424.742,281.577 426.586,282.349 428.481,283.055 430.419,283.636 432.387,284.2 434.288,284.751 436.139,285.321 437.942,285.945 439.723,286.653 441.503,287.404 443.232,288.268 444.961,289.18 446.62,290.144 448.251,291.195 449.838,292.294 451.404,293.446 452.967,294.714 454.458,295.982 455.926,297.27 457.405,298.624 458.846,300.015 460.227,301.383 461.627,302.788 463.066,304.267 464.412,305.691 465.761,307.105 467.098,308.508 468.493,309.997 469.865,311.443 471.216,312.89 472.623,314.371 473.933,315.752 475.309,317.223 476.682,318.681 478.027,320.095 479.41,321.56 480.736,322.99 482.122,324.45 483.479,325.886 484.846,327.318 486.225,328.757 487.644,330.238 489.03,331.64 490.395,333.053 491.808,334.498 493.208,335.916 494.581,337.335 495.947,338.767 497.251,340.245 498.483,341.847 499.592,343.632 500.409,345.365 500.896,346.84 501.255,348.48 501.462,350.448 501.473,352.522 501.315,354.484 501.078,356.367 500.84,358.204 500.645,360.091 500.567,361.982 500.641,363.845 500.842,365.731 501.207,367.61 501.7,369.42 502.329,371.188 503.083,372.9 503.983,374.583 505.022,376.217 506.179,377.753 507.431,379.189 508.767,380.511 510.207,381.761 511.742,382.909 513.349,383.952 515.023,384.893 516.798,385.72 518.554,386.425 520.383,387.006 522.316,387.501 524.212,387.87 526.147,388.19 528.139,388.516 530.073,388.872 531.959,389.289 533.834,389.788 535.677,390.386 537.429,391.062 539.161,391.846 540.87,392.74 542.503,393.722 544.079,394.806 545.639,396.025 547.11,397.324 548.469,398.673 549.778,400.137 551.013,401.7 552.134,403.301 553.171,405.016 554.131,406.851 554.904,408.59 555.56,410.352 556.114,412.162 556.546,413.952 556.885,415.793 557.132,417.696 557.345,419.694 557.551,421.699 557.801,423.689 558.146,425.646 558.576,427.511 559.09,429.211 559.69,430.834 560.426,432.507 561.283,434.154 562.316,435.87 563.499,437.571 564.73,439.127 566.076,440.62 567.491,442.011 569.014,443.328 570.582,444.556 572.214,445.727 573.871,446.848 575.547,447.891 577.348,448.893 579.199,449.765 581.104,450.491 583.009,451.051 584.877,451.45 586.79,451.719 588.621,451.844 590.495,451.834 592.363,451.687 594.18,451.412 596.035,450.991 597.84,450.442 599.689,449.752 601.503,448.993 603.348,448.204 605.236,447.455 607.072,446.826 608.842,446.34 610.652,445.967 612.471,445.716 614.247,445.588 616.091,445.579 618.003,445.698 619.937,445.954 621.921,446.357 623.906,446.91 625.865,447.59 627.666,448.343 629.404,449.164 631.116,450.041 632.857,450.944 634.596,451.843 636.326,452.701 638.092,453.556 639.83,454.367 641.619,455.203 643.405,456.03 645.196,456.845 647.045,457.711 648.883,458.553 650.694,459.42 652.48,460.289 654.225,461.151 655.961,462.027 657.73,462.944 659.48,463.885 661.129,464.803 662.826,465.765 664.494,466.755 666.177,467.769 667.894,468.834 669.58,469.89 671.269,470.992 672.859,472.053 674.494,473.139 676.165,474.288 677.782,475.421 679.353,476.532 680.982,477.707 682.629,478.903 684.193,480.064 685.757,481.241 687.366,482.459 688.944,483.666 690.509,484.889 692.088,486.143 693.644,487.371 695.192,488.61 696.742,489.857 698.287,491.108 699.811,492.347 701.343,493.608 702.888,494.854 704.456,496.152 705.961,497.382 707.468,498.634 709.033,499.915 710.549,501.191 712.106,502.475 713.582,503.714 715.094,504.979 716.658,506.291 718.195,507.586 719.698,508.861 721.232,510.156 722.756,511.444 724.258,512.709 725.736,513.963 727.235,515.232 728.764,516.521 730.304,517.833 731.817,519.119 733.333,520.413 734.841,521.706 736.385,523.035 737.878,524.316 739.398,525.638 740.904,526.972 742.364,528.324 743.803,529.754 745.158,531.237 746.451,532.825 747.628,534.487 748.653,536.201 749.515,537.978 750.177,539.78 750.633,541.638 750.866,543.498 750.876,545.371 750.66,547.242 750.218,549.059 749.551,550.81 748.68,552.445 747.615,553.953 746.368,555.325 744.986,556.522 743.452,557.565 741.808,558.426 740.074,559.101 738.249,559.592 736.366,559.893 734.435,560.0 732.459,559.908 730.436,559.613 728.474,559.136 726.571,558.481 724.731,557.649 722.932,556.63 721.224,555.453 719.629,554.143 718.174,552.753 716.793,551.234 715.496,549.603 714.314,547.914 713.248,546.181 712.282,544.388 711.429,542.574 710.66,540.711 709.966,538.818 709.311,536.942 708.656,535.058 707.988,533.176 707.318,531.355 706.616,529.544 705.855,527.684 705.066,525.881 704.239,524.128 703.371,522.408 702.466,520.743 701.467,519.02 700.433,517.358 699.359,515.752 698.238,514.17 697.05,512.607 695.836,511.106 694.559,509.63 693.212,508.166 691.855,506.783 690.457,505.433 688.996,504.118 687.523,502.875 685.981,501.64 684.421,500.481 682.853,499.374 681.219,498.305 679.557,497.281 677.864,496.315 676.198,495.425 674.434,494.559 672.613,493.732 670.816,492.983 669.021,492.305 667.138,491.635 665.274,491.051 663.438,490.516 661.576,490.019 659.647,489.521 657.736,489.04 655.831,488.547 653.873,488.02 651.96,487.444 650.068,486.836 648.183,486.163 646.324,485.436 644.482,484.648 642.701,483.833 640.977,482.988 639.262,482.092 637.501,481.118 635.834,480.147 634.168,479.148 632.46,478.129 630.748,477.158 628.968,476.246 627.097,475.428 625.19,474.761 623.318,474.282 621.491,473.984 619.688,473.856 617.888,473.896 616.076,474.096 614.241,474.447 612.363,474.948 610.474,475.603 608.603,476.401 606.845,477.245 605.132,478.052 603.442,478.767 601.702,479.378 599.897,479.881 598.085,480.248 596.239,480.485 594.338,480.591 592.43,480.554 590.475,480.373 588.478,480.043 586.525,479.572 584.576,478.96 582.707,478.232 580.889,477.38 579.107,476.409 577.386,475.333 575.742,474.206 574.128,473.019 572.544,471.781 570.989,470.479 569.499,469.15 568.027,467.75 566.629,466.333 565.265,464.867 563.951,463.377 562.679,461.846 561.442,460.255 560.233,458.654 559.113,457.049 558.0,455.412 556.902,453.74 555.856,452.056 554.846,450.389 553.856,448.715 552.88,447.015 551.894,445.273 550.927,443.55 549.973,441.843 549.002,440.096 548.035,438.363 547.081,436.646 546.103,434.929 545.118,433.18 544.102,431.438 543.089,429.737 542.042,428.055 540.963,426.378 539.847,424.699 538.727,423.07 537.576,421.487 536.39,419.898 535.185,418.343 533.938,416.8 532.663,415.274 531.399,413.822 530.084,412.359 528.754,410.926 527.393,409.521 525.993,408.134 524.593,406.792 523.173,405.481 521.72,404.178 520.252,402.907 518.744,401.637 517.231,400.398 515.712,399.17 514.18,397.923 512.643,396.665 511.109,395.386 509.577,394.072 508.079,392.728 506.626,391.381 505.208,390.015 503.791,388.6 502.416,387.176 501.084,385.739 499.75,384.245 498.456,382.74 497.215,381.239 496.015,379.73 494.825,378.183 493.649,376.581 492.514,374.992 491.429,373.4 490.352,371.774 489.303,370.124 488.299,368.464 487.314,366.759 486.347,365.005 485.453,363.3 484.585,361.581 483.724,359.808 482.908,358.02 482.129,356.241 481.351,354.43 480.584,352.587 479.811,350.761 479.027,348.922 478.229,347.088 477.421,345.273 476.593,343.482 475.738,341.678 474.858,339.904 473.949,338.15 473.013,336.418 472.035,334.693 471.025,332.989 469.968,331.276 468.891,329.61 467.794,327.977 466.671,326.378 465.506,324.781 464.318,323.218 463.114,321.69 461.857,320.155 460.578,318.651 459.286,317.185 457.938,315.72 456.562,314.275 455.196,312.893 453.793,311.525 452.344,310.166 450.881,308.844 449.415,307.564 447.907,306.3 446.362,305.051 444.824,303.848 443.25,302.665 441.635,301.499 440.023,300.372 438.393,299.272 436.734,298.203 435.039,297.16 433.339,296.153 431.639,295.189 429.887,294.231 428.111,293.297 426.339,292.392 424.563,291.504 422.809,290.63 421.051,289.748 419.289,288.83 417.536,287.853 415.806,286.779 414.133,285.597 412.593,284.335 411.201,282.991 409.972,281.595 408.878,280.138 407.894,278.614 407.005,276.989 406.213,275.25 405.54,273.436 404.982,271.527 404.539,269.538 404.22,267.541 404.005,265.591 403.817,263.681 403.6,261.822 403.3,259.957 402.906,258.107 402.42,256.279 401.836,254.459 401.158,252.675 400.368,250.885 399.478,249.124 398.482,247.388 397.388,245.698 396.215,244.08 394.967,242.529 393.628,241.031 392.221,239.607 390.787,238.284 389.253,236.993 387.665,235.764 386.086,234.648 384.493,233.61 382.867,232.629 381.204,231.719 379.49,230.864 377.734,230.075 375.931,229.347 374.038,228.646 372.131,228.011 370.261,227.442 368.341,226.895 366.348,226.401 364.396,225.971 362.52,225.593 360.572,225.238 358.638,224.902 356.67,224.596 354.68,224.305 352.695,224.033 350.693,223.786 348.709,223.513 346.822,223.22 344.866,222.904 342.845,222.53 340.936,222.14 339.028,221.69 337.082,221.208 335.223,220.692 333.329,220.116 331.441,219.507 329.61,218.862 327.756,218.174 325.918,217.429 324.119,216.665 322.35,215.867 320.613,215.021 318.842,214.116 317.129,213.186 315.434,212.213 313.755,211.211 312.083,210.145 310.46,209.07 308.841,207.939 307.227,206.784 305.643,205.583 304.1,204.372 302.594,203.125 301.088,201.843 299.628,200.522 298.149,199.177 296.705,197.805 295.331,196.439 293.935,195.024 292.559,193.581 291.197,192.102 289.896,190.617 288.595,189.094 287.305,187.551 286.029,185.989 284.817,184.428 283.643,182.881 282.435,181.305 281.264,179.701 280.08,178.046 278.957,176.427 277.841,174.809 276.748,173.141 275.639,171.435 274.564,169.748 273.555,168.064 272.535,166.377 271.553,164.705 270.575,162.926 269.595,161.179 268.687,159.463 267.744,157.648 266.835,155.863 265.986,154.163 265.117,152.337 264.298,150.562 263.468,148.752 262.657,146.88 261.884,145.047 261.166,143.24 260.426,141.382 259.746,139.571 259.069,137.701 258.399,135.798 257.762,133.907 257.169,132.069 256.617,130.212 256.008,128.274 255.457,126.374 254.968,124.495 254.446,122.556 253.994,120.7 253.534,118.753 253.117,116.83 252.696,114.908 252.297,112.956 251.948,110.982 251.579,109.11 251.28,107.126 250.943,105.105 250.682,103.135 250.437,101.17 250.181,99.243 249.97,97.233 249.786,95.245 249.624,93.298 249.475,91.262 249.365,89.253 249.255,87.293 249.192,85.292 249.15,83.264 249.124,81.292 249.13,79.363 249.152,77.344 249.176,75.29 249.197,73.328 249.245,71.329 249.28,69.297 249.314,67.304 249.365,65.299 249.397,63.3 249.453,61.318 249.533,59.274 249.652,57.294 249.85,55.289 250.13,53.257 250.529,51.258 251.057,49.272 251.721,47.457 252.562,45.794 253.591,44.286 254.767,43.007 256.131,41.907 257.647,41.029 259.235,40.428 260.967,40.06 262.701,40.0 264.494,40.229 266.226,40.741 267.936,41.539 269.582,42.601 271.145,43.867 272.583,45.225 273.93,46.675 275.227,48.165 276.484,49.73 277.679,51.253 278.891,52.824 280.116,54.396 281.323,55.988 282.551,57.535 283.763,59.0 285.051,60.626 286.265,62.177 287.494,63.703 288.678,65.222 289.902,66.7 291.186,68.273 292.465,69.868 293.714,71.418 294.972,72.954 296.202,74.48 297.47,76.004 298.735,77.508 300.079,79.03 301.476,80.682 302.665,82.115 304.044,83.722 305.174,85.112 306.374,86.658 307.657,88.273 308.917,89.835 310.046,91.287 311.35,92.794 312.672,94.467 313.902,95.998 315.119,97.482 316.349,99.113 317.624,100.729 318.897,102.347 320.074,103.855 321.267,105.36 322.465,106.896 323.725,108.512 324.968,110.096 326.105,111.689 327.253,113.05 328.44,114.73 329.771,116.251 331.011,118.218 332.038,119.592 332.86,120.696 334.197,122.498 335.455,124.197 336.736,125.93 337.977,127.614 339.26,129.361 340.227,130.682 341.228,132.054 342.471,133.764 343.569,135.281 344.977,137.236 346.146,138.867 347.252,140.418 348.3,141.891 349.507,143.592 350.49,144.981 351.681,146.668 352.509,147.844 354.291,150.13" fill="none" stroke="white" stroke-width="4"
            stroke-linejoin="round" stroke-linecap="round"/>
</svg>
