<?xml version="1.0" encoding="utf-8"?>
<svg xmlns="http://www.w3.org/2000/svg" width="1000" height="600">
  <polyline points="770.922,242.965 768.428,243.698 765.929,244.496 763.441,245.261 760.986,246.018 758.52,246.793 756.022,247.571 753.525,248.395 751.03,249.171 748.585,249.938 746.167,250.747 743.671,251.548 741.143,252.373 738.677,253.167 736.212,253.966 733.75,254.779 731.279,255.584 728.806,256.422 726.347,257.236 723.897,258.048 721.42,258.866 718.945,259.696 716.475,260.507 713.987,261.338 711.53,262.149 709.109,262.947 706.634,263.76 704.121,264.584 701.625,265.424 699.133,266.246 696.679,267.062 694.238,267.872 691.794,268.687 689.334,269.498 686.861,270.316 684.39,271.141 681.915,271.964 679.441,272.79 676.976,273.606 674.513,274.433 672.047,275.253 669.575,276.058 667.107,276.871 664.652,277.689 662.161,278.503 659.655,279.335 657.194,280.159 654.716,280.987 652.238,281.806 649.769,282.638 647.294,283.457 644.82,284.291 642.315,285.134 639.842,285.97 637.366,286.807 634.868,287.656 632.369,288.505 629.895,289.362 627.412,290.225 624.941,291.126 622.486,292.074 620.083,293.164 617.758,294.4 615.496,295.897 613.406,297.74 611.877,299.603 610.966,301.188 610.407,302.72 610.061,304.601 609.978,307.133 610.054,309.919 610.012,312.356 609.73,314.386 609.181,316.169 608.337,317.831 607.102,319.416 605.367,320.881 603.084,322.065 600.431,322.802 597.719,323.042 595.053,322.846 592.435,322.364 589.877,321.688 587.346,320.861 584.86,319.917 582.432,318.93 580.034,317.974 577.668,317.073 575.296,316.269 572.886,315.553 570.45,314.932 567.992,314.408 565.499,313.973 562.986,313.647 560.495,313.41 557.923,313.264 555.366,313.206 552.852,313.232 550.256,313.326 547.648,313.474 545.052,313.687 542.465,313.95 539.898,314.251 537.311,314.588 534.705,314.956 532.172,315.321 529.643,315.705 527.043,316.105 524.486,316.488 521.924,316.889 519.331,317.278 516.769,317.673 514.198,318.067 511.598,318.465 509.045,318.856 506.533,319.239 503.924,319.633 501.307,320.025 498.755,320.412 496.182,320.796 493.607,321.173 491.05,321.542 488.467,321.903 485.825,322.264 483.222,322.612 480.654,322.955 478.081,323.301 475.519,323.658 472.964,324.037 470.424,324.512 467.854,325.196 465.282,326.169 463.065,327.321 461.382,328.477 459.737,329.872 457.913,331.732 456.205,333.845 454.775,335.979 453.519,338.1 452.287,340.212 450.98,342.295 449.543,344.307 447.968,346.187 446.251,347.948 444.386,349.592 442.393,351.093 440.289,352.439 438.103,353.614 435.838,354.62 433.493,355.458 431.09,356.115 428.656,356.595 426.15,356.901 423.656,357.031 421.156,356.985 418.658,356.775 416.21,356.403 413.731,355.855 411.306,355.153 408.933,354.293 406.597,353.279 404.327,352.146 402.044,350.92 399.724,349.638 397.402,348.427 395.16,347.348 392.86,346.368 390.447,345.492 388.086,344.781 385.664,344.198 383.204,343.754 380.738,343.459 378.173,343.308 375.655,343.313 373.107,343.468 370.536,343.781 368.02,344.243 365.483,344.867 362.971,345.658 360.577,346.578 358.213,347.663 355.95,348.877 353.836,350.187 351.832,351.604 349.973,353.079 348.139,354.713 346.322,356.5 344.537,358.358 342.72,360.244 340.841,362.113 338.931,363.842 337.032,365.383 335.107,366.75 333.138,367.973 331.053,369.1 328.78,370.147 326.342,371.087 323.787,371.889 321.199,372.524 318.655,372.982 316.047,373.286 313.426,373.431 310.826,373.436 308.221,373.332 305.623,373.154 303.007,372.881 300.376,372.47 297.752,371.88 295.222,371.106 292.799,370.149 290.517,369.044 288.376,367.809 286.331,366.43 284.418,364.924 282.616,363.287 280.935,361.522 279.376,359.635 277.925,357.603 276.579,355.438 275.308,353.181 274.035,350.873 272.724,348.629 271.335,346.493 269.845,344.493 268.304,342.681 266.666,340.997 264.843,339.361 262.924,337.863 260.883,336.482 258.692,335.211 256.323,334.045 253.845,333.03 251.342,332.187 248.856,331.514 246.362,330.959 243.839,330.477 241.317,330.023 238.802,329.566 236.318,329.068 233.836,328.558 231.327,328.011 228.83,327.44 226.293,326.866 223.761,326.277 221.21,325.692 218.637,325.115 216.118,324.546 213.586,324.014 211.045,323.481 208.514,322.986 206.023,322.518 203.555,322.075 201.032,321.676 198.453,321.314 195.871,320.985 193.289,320.698 190.721,320.426 188.185,320.195 185.62,319.98 183.015,319.785 180.472,319.624 177.877,319.464 175.229,319.314 172.691,319.21 170.083,319.101 167.49,319.013 164.891,318.938 162.291,318.896 159.714,318.855 157.084,318.841 154.492,318.849 151.873,318.852 149.274,318.899 146.696,318.926 144.096,318.964 141.484,319.021 138.92,319.067 136.285,319.123 133.673,319.193 131.075,319.248 128.471,319.331 125.912,319.392 123.303,319.467 120.666,319.558 118.104,319.631 115.496,319.72 112.879,319.821 110.293,319.91 107.719,320.012 105.115,320.111 102.504,320.207 99.929,320.31 97.323,320.411 94.7,320.512 92.103,320.616 89.521,320.719 86.929,320.827 84.309,320.934 81.699,321.05 79.094,321.17 76.451,321.295 73.823,321.422 71.22,321.559 68.596,321.726 66.0,321.948 63.395,322.266 60.768,322.714 58.178,323.309 55.631,324.076 53.197,325.021 50.895,326.153 48.742,327.495 46.79,329.039 45.045,330.785 43.517,332.729 42.241,334.833 41.245,337.048 40.535,339.362 40.116,341.75 40.0,344.173 40.184,346.6 40.661,348.996 41.414,351.316 42.419,353.518 43.655,355.587 45.14,357.554 46.857,359.392 48.773,361.057 50.893,362.552 53.175,363.846 55.615,364.943 58.149,365.808 60.744,366.429 63.407,366.816 66.078,366.969 68.747,366.903 71.414,366.636 74.078,366.176 76.69,365.548 79.237,364.768 81.745,363.834 84.192,362.762 86.551,361.566 88.865,360.247 91.104,358.858 93.262,357.462 95.424,356.058 97.596,354.665 99.789,353.295 102.018,351.948 104.284,350.646 106.521,349.427 108.773,348.277 111.069,347.188 113.413,346.162 115.786,345.206 118.164,344.331 120.589,343.52 123.015,342.797 125.467,342.149 127.957,341.575 130.461,341.074 132.984,340.656 135.493,340.321 138.009,340.061 140.557,339.876 143.107,339.769 145.647,339.736 148.191,339.788 150.734,339.913 153.286,340.12 155.856,340.41 158.383,340.771 160.882,341.213 163.388,341.73 165.863,342.32 168.322,342.995 170.735,343.726 173.154,344.553 175.552,345.439 177.927,346.377 180.282,347.361 182.615,348.384 184.953,349.412 187.34,350.443 189.794,351.458 192.261,352.42 194.734,353.313 197.182,354.104 199.644,354.826 202.169,355.49 204.684,356.079 207.189,356.594 209.724,357.048 212.287,357.443 214.844,357.783 217.385,358.087 219.895,358.396 222.415,358.762 225.036,359.256 227.67,359.92 230.182,360.764 232.482,361.767 234.614,362.932 236.578,364.252 238.407,365.749 240.1,367.398 241.685,369.205 243.222,371.231 244.676,373.473 245.956,375.79 247.083,378.06 248.184,380.244 249.37,382.355 250.704,384.42 252.149,386.357 253.723,388.188 255.465,389.946 257.312,391.558 259.324,393.062 261.509,394.462 263.804,395.708 266.223,396.805 268.72,397.739 271.255,398.493 273.816,399.076 276.414,399.502 279.039,399.775 281.669,399.933 284.294,400.007 286.918,400.0 289.546,399.917 292.176,399.743 294.81,399.48 297.403,399.147 299.983,398.731 302.559,398.242 305.117,397.685 307.652,397.049 310.174,396.359 312.674,395.608 315.164,394.796 317.612,393.955 320.013,393.085 322.431,392.146 324.847,391.19 327.234,390.204 329.578,389.223 331.91,388.236 334.285,387.221 336.694,386.193 339.105,385.167 341.519,384.145 343.893,383.149 346.287,382.167 348.739,381.172 351.194,380.224 353.601,379.321 356.022,378.47 358.514,377.639 361.015,376.859 363.508,376.111 365.974,375.448 368.451,374.816 371.019,374.204 373.534,373.667 376.027,373.17 378.55,372.718 381.069,372.31 383.642,371.942 386.163,371.638 388.697,371.373 391.252,371.158 393.791,370.978 396.324,370.843 398.868,370.746 401.45,370.684 404.032,370.634 406.639,370.579 409.244,370.509 411.839,370.425 414.442,370.288 417.06,370.11 419.68,369.877 422.239,369.609 424.835,369.286 427.405,368.914 429.938,368.501 432.486,368.035 434.996,367.525 437.489,366.973 439.964,366.377 442.49,365.719 444.997,365.018 447.409,364.291 449.811,363.523 452.204,362.712 454.654,361.829 457.076,360.899 459.411,359.946 461.755,358.941 464.08,357.883 466.38,356.794 468.652,355.672 470.918,354.496 473.198,353.264 475.482,352.003 477.754,350.731 480.039,349.451 482.299,348.194 484.547,346.956 486.882,345.717 489.194,344.505 491.517,343.336 493.885,342.195 496.228,341.118 498.593,340.083 500.963,339.096 503.355,338.154 505.791,337.247 508.255,336.38 510.741,335.566 513.204,334.809 515.682,334.099 518.163,333.439 520.644,332.829 523.149,332.263 525.666,331.741 528.181,331.272 530.734,330.848 533.291,330.464 535.833,330.131 538.38,329.849 540.962,329.612 543.546,329.417 546.109,329.269 548.703,329.173 551.297,329.125 553.88,329.117 556.45,329.167 559.021,329.258 561.603,329.383 564.197,329.551 566.772,329.783 569.328,330.061 571.889,330.386 574.431,330.749 577.004,331.167 579.582,331.618 582.144,332.107 584.674,332.609 587.204,333.116 589.777,333.624 592.327,334.091 594.904,334.483 597.543,334.759 600.215,334.879 602.849,334.808 605.364,334.535 607.759,334.075 610.051,333.452 612.284,332.671 614.517,331.704 616.709,330.562 618.886,329.219 621.013,327.691 623.066,326.0 624.999,324.2 626.776,322.379 628.491,320.57 630.221,318.801 632.036,317.103 633.91,315.517 635.902,314.0 637.982,312.581 640.15,311.263 642.384,310.063 644.731,308.958 647.156,307.97 649.638,307.111 652.139,306.389 654.688,305.793 657.241,305.33 659.791,304.998 662.424,304.779 665.103,304.68 667.671,304.691 670.167,304.801 672.685,305.011 675.164,305.311 677.597,305.702 680.006,306.191 682.426,306.779 684.919,307.493 687.396,308.284 689.844,309.137 692.306,310.082 694.729,311.081 697.12,312.134 699.475,313.252 701.771,314.398 704.086,315.608 706.373,316.827 708.65,318.077 710.9,319.362 713.164,320.676 715.384,321.996 717.622,323.292 719.894,324.56 722.198,325.811 724.501,327.017 726.823,328.147 729.196,329.255 731.58,330.306 733.941,331.27 736.357,332.207 738.784,333.062 741.205,333.887 743.674,334.64 746.132,335.358 748.635,336.012 751.125,336.614 753.636,337.148 756.175,337.648 758.707,338.066 761.232,338.431 763.806,338.746 766.389,338.991 768.942,339.177 771.479,339.324 774.054,339.386 776.664,339.427 779.233,339.408 781.82,339.317 784.374,339.212 786.932,339.019 789.521,338.832 792.149,338.527 794.699,338.227 797.294,337.859 799.907,337.45 802.431,336.985 804.953,336.494 807.558,335.936 810.105,335.368 812.591,334.772 815.121,334.16 817.688,333.465 820.218,332.801 822.698,332.088 825.207,331.368 827.652,330.611 830.108,329.797 832.613,328.974 835.112,328.077 837.556,327.205 839.917,326.305 842.331,325.348 844.749,324.38 847.125,323.375 849.532,322.346 851.915,321.263 854.296,320.166 856.657,319.066 858.999,317.92 861.332,316.764 863.618,315.579 865.884,314.387 868.154,313.148 870.433,311.867 872.682,310.582 874.902,309.268 877.099,307.938 879.272,306.551 881.47,305.156 883.632,303.73 885.784,302.273 887.933,300.77 890.04,299.284 892.106,297.785 894.169,296.233 896.218,294.665 898.251,293.054 900.261,291.417 902.252,289.769 904.243,288.075 906.209,286.387 908.152,284.654 910.09,282.922 911.994,281.152 913.884,279.364 915.748,277.566 917.601,275.717 919.44,273.871 921.234,272.02 923.02,270.138 924.764,268.254 926.507,266.311 928.26,264.344 929.954,262.379 931.636,260.386 933.294,258.367 934.92,256.311 936.555,254.261 938.146,252.205 939.741,250.102 941.338,248.004 942.9,245.932 944.485,243.828 946.065,241.72 947.619,239.634 949.188,237.535 950.747,235.406 952.265,233.299 953.736,231.151 955.153,228.897 956.488,226.556 957.667,224.173 958.667,221.724 959.433,219.243 959.883,216.828 960.0,214.485 959.788,212.207 959.25,210.019 958.39,207.951 957.204,206.023 955.718,204.301 953.948,202.831 951.931,201.656 949.724,200.801 947.361,200.264 944.774,199.993 942.132,199.998 939.515,200.211 936.944,200.589 934.425,201.078 931.907,201.67 929.393,202.285 926.903,202.93 924.368,203.582 921.855,204.212 919.327,204.859 916.848,205.479 914.32,206.104 911.83,206.721 909.292,207.343 906.763,207.951 904.283,208.524 901.717,209.127 899.162,209.718 896.666,210.319 894.105,210.915 891.56,211.503 889.102,212.035 886.559,212.594 884.02,213.172 881.422,213.737 878.94,214.309 876.415,214.889 873.837,215.433 871.315,216.008 868.793,216.545 866.301,217.06 863.728,217.668 861.257,218.177 858.677,218.765 856.194,219.355 853.639,219.97 851.075,220.592 848.543,221.216 846.083,221.829 843.427,222.498 840.927,223.145 838.415,223.777 835.882,224.421 833.426,225.079 830.874,225.738 828.383,226.406 825.96,227.036 823.453,227.734 820.859,228.43 818.326,229.129 815.867,229.806 813.397,230.498 810.914,231.199 808.412,231.854 805.92,232.546 803.394,233.199 800.951,233.851 798.414,234.487 795.82,235.27 793.356,235.937 790.975,236.655 788.538,237.209 785.855,238.002 783.405,238.69 780.983,239.465 778.417,240.24 776.149,241.01 774.607,241.87 770.922,242.965" fill="none" stroke="white" stroke-width="4"
            stroke-linejoin="round" stroke-linecap="round"/>
</svg>
