<?xml version="1.0" encoding="utf-8"?>
<svg xmlns="http://www.w3.org/2000/svg" width="1000" height="600">
  <polyline points="893.418,133.678 891.11,131.209 888.65,128.701 886.157,126.377 883.676,124.063 881.145,121.83 878.563,119.592 875.984,117.319 873.413,115.079 870.822,112.867 868.223,110.609 865.664,108.355 863.031,106.104 860.491,103.881 857.988,101.691 855.413,99.399 852.844,97.164 850.266,94.89 847.77,92.619 845.129,90.298 842.592,87.947 840.104,85.745 837.494,83.402 834.953,81.121 832.451,78.828 829.853,76.514 827.299,74.2 824.731,71.909 822.19,69.642 819.621,67.362 817.044,65.086 814.393,62.861 811.73,60.666 808.953,58.626 806.075,56.732 802.99,55.017 799.706,53.554 796.369,52.487 793.279,51.887 790.543,51.703 787.806,51.846 784.985,52.347 782.158,53.303 779.321,54.735 776.613,56.674 774.154,59.081 772.05,61.86 770.359,64.96 769.136,68.314 768.403,71.838 768.168,75.428 768.4,78.958 769.039,82.415 770.06,85.821 771.402,89.075 773.028,92.155 774.893,95.062 776.952,97.822 779.115,100.454 781.348,102.995 783.639,105.408 785.944,107.827 788.242,110.242 790.539,112.729 792.836,115.308 795.005,117.995 797.024,120.836 798.843,123.736 800.424,126.743 801.761,129.789 802.88,132.916 803.745,136.068 804.405,139.238 804.805,142.425 804.962,145.651 804.894,148.948 804.597,152.256 804.005,155.488 803.207,158.764 802.136,161.948 800.845,165.04 799.313,168.051 797.595,170.911 795.609,173.704 793.455,176.365 791.15,178.843 788.671,181.188 785.996,183.331 783.184,185.323 780.221,187.101 777.133,188.732 774.011,190.117 770.764,191.316 767.341,192.328 763.98,193.097 760.469,193.691 757.099,194.096 753.735,194.364 750.253,194.54 746.792,194.646 743.402,194.711 740.005,194.754 736.649,194.764 733.166,194.812 729.809,194.83 726.437,194.871 723.019,194.902 719.587,194.925 716.162,194.967 712.747,194.999 709.244,195.011 705.919,195.074 702.526,195.105 699.144,195.117 695.728,195.175 692.279,195.218 688.82,195.256 685.469,195.306 682.025,195.366 678.683,195.425 675.372,195.492 671.925,195.561 668.517,195.622 665.061,195.72 661.622,195.781 658.265,195.857 654.811,195.941 651.411,196.025 647.974,196.086 644.585,196.211 641.157,196.26 637.845,196.331 634.254,196.425 630.923,196.504 627.562,196.553 624.182,196.629 620.704,196.709 617.322,196.806 613.87,196.894 610.457,197.024 607.117,197.119 603.759,197.197 600.236,197.325 596.807,197.426 593.398,197.46 589.98,197.592 586.586,197.674 583.197,197.793 579.804,197.848 576.353,197.965 572.815,198.037 569.543,198.081 566.202,198.251 562.725,198.291 559.321,198.363 555.969,198.449 552.594,198.548 549.104,198.655 545.632,198.759 542.209,198.803 538.808,198.956 535.378,199.019 532.018,199.102 528.616,199.228 525.234,199.324 521.748,199.413 518.39,199.503 514.934,199.642 511.517,199.732 508.18,199.805 504.816,199.886 501.348,199.994 497.939,200.102 494.467,200.191 491.092,200.276 487.61,200.372 484.175,200.468 480.811,200.552 477.44,200.613 474.042,200.734 470.696,200.782 467.243,200.885 463.814,200.953 460.298,201.038 456.945,201.132 453.455,201.182 450.042,201.295 446.651,201.35 443.174,201.414 439.735,201.477 436.287,201.569 432.789,201.651 429.366,201.703 425.859,201.749 422.463,201.842 419.051,201.888 415.631,201.907 412.175,201.882 408.715,201.716 405.27,201.376 401.854,200.737 398.471,199.74 395.483,198.398 393.032,196.88 390.948,195.107 389.057,192.931 387.388,190.257 386.0,187.115 385.042,183.729 384.533,180.334 384.307,176.967 384.27,173.547 384.32,170.169 384.46,166.766 384.63,163.315 384.884,159.941 385.181,156.523 385.475,153.142 385.787,149.749 386.073,146.312 386.391,142.937 386.6,139.493 386.773,136.074 386.888,132.736 386.923,129.296 386.871,125.869 386.719,122.461 386.46,119.039 386.104,115.658 385.643,112.328 385.028,108.95 384.314,105.674 383.485,102.384 382.514,99.164 381.419,95.922 380.206,92.808 378.876,89.67 377.436,86.7 375.888,83.702 374.18,80.779 372.41,77.999 370.561,75.302 368.466,72.491 366.4,69.974 364.102,67.337 361.884,65.001 359.484,62.652 356.95,60.367 354.36,58.183 351.684,56.087 348.896,54.088 346.183,52.233 343.217,50.375 340.307,48.65 337.265,46.968 334.133,45.356 330.926,43.902 327.701,42.628 324.386,41.575 320.92,40.729 317.463,40.179 313.92,40.0 310.396,40.322 306.914,41.258 303.806,42.709 301.517,44.251 299.765,45.808 297.997,48.077 296.178,51.139 294.595,54.086 293.1,56.619 291.351,58.831 289.274,60.748 286.792,62.318 284.041,63.44 281.081,63.996 278.017,64.001 274.856,63.476 271.689,62.482 268.632,61.057 265.679,59.334 262.809,57.488 259.925,55.604 256.984,53.819 253.96,52.228 250.718,50.946 247.293,50.181 243.865,50.118 240.818,50.651 238.157,51.653 235.758,53.079 233.581,54.959 231.676,57.321 230.068,60.283 228.947,63.644 228.332,67.007 228.036,70.391 227.893,73.815 227.843,77.162 227.795,80.59 227.786,83.977 227.766,87.368 227.775,90.84 227.791,94.158 227.809,97.611 227.843,100.952 227.873,104.434 227.914,107.815 227.965,111.281 228.025,114.686 228.055,118.117 228.112,121.444 228.17,124.869 228.212,128.231 228.256,131.702 228.305,135.042 228.367,138.481 228.407,141.932 228.463,145.349 228.514,148.696 228.571,152.092 228.608,155.558 228.651,159.002 228.695,162.415 228.723,165.759 228.735,169.201 228.72,172.644 228.68,175.989 228.617,179.385 228.512,182.799 228.371,186.236 228.184,189.686 227.936,193.132 227.668,196.451 227.305,199.888 226.924,203.221 226.466,206.508 225.952,209.873 225.343,213.335 224.676,216.718 223.932,220.065 223.141,223.297 222.214,226.659 221.263,229.827 220.196,233.043 218.991,236.306 217.692,239.482 216.294,242.576 214.77,245.661 213.174,248.613 211.483,251.482 209.683,254.314 207.708,257.177 205.777,259.779 203.725,262.355 201.475,264.975 199.258,267.377 196.911,269.746 194.405,272.105 191.975,274.222 189.413,276.3 186.666,278.361 184.039,280.199 181.172,282.047 178.256,283.806 175.402,285.417 172.356,286.979 169.234,288.497 166.206,289.869 163.134,291.162 159.949,292.442 156.653,293.701 153.552,294.838 150.237,296.046 147.063,297.223 143.941,298.396 140.788,299.621 137.614,300.897 134.474,302.245 131.334,303.667 128.254,305.165 125.061,306.825 122.187,308.423 119.198,310.207 116.277,312.058 113.461,313.988 110.662,316.038 108.037,318.119 105.459,320.297 102.92,322.613 100.499,325.003 98.157,327.517 95.917,330.1 93.796,332.726 91.679,335.553 89.753,338.318 87.907,341.2 86.177,344.141 84.615,347.04 83.066,350.206 81.632,353.42 80.373,356.516 79.168,359.759 78.047,363.059 77.041,366.298 76.073,369.666 75.176,372.984 74.311,376.315 73.481,379.684 72.67,383.088 71.917,386.427 71.197,389.803 70.56,393.226 70.055,396.616 69.736,400.017 69.729,403.485 70.207,407.04 71.297,410.491 72.64,413.05 73.997,414.859 76.009,416.937 78.813,419.094 81.785,420.811 84.745,422.268 87.752,423.637 90.779,424.983 93.844,426.367 96.967,427.785 100.036,429.199 103.14,430.655 106.2,432.115 109.253,433.587 112.329,435.098 115.39,436.623 118.37,438.122 121.406,439.67 124.463,441.224 127.503,442.814 130.496,444.328 133.499,445.921 136.558,447.554 139.503,449.118 142.461,450.73 145.507,452.355 148.453,453.968 151.479,455.644 154.473,457.275 157.426,458.913 160.37,460.522 163.322,462.132 166.403,463.83 169.45,465.517 172.375,467.116 175.357,468.761 178.32,470.398 181.303,472.039 184.349,473.692 187.381,475.359 190.41,476.991 193.383,478.615 196.364,480.209 199.326,481.804 202.372,483.391 205.335,484.943 208.369,486.488 211.526,488.068 214.485,489.555 217.547,491.055 220.685,492.582 223.793,494.069 226.83,495.475 229.932,496.925 233.026,498.362 236.122,499.727 239.241,501.114 242.364,502.465 245.521,503.831 248.522,505.108 251.684,506.471 254.874,507.772 257.972,509.063 261.196,510.378 264.379,511.604 267.504,512.837 270.672,514.029 273.887,515.198 277.053,516.383 280.315,517.486 283.548,518.64 286.761,519.732 289.978,520.791 293.243,521.841 296.47,522.895 299.644,523.887 302.949,524.928 306.324,525.893 309.516,526.89 312.727,527.828 316.051,528.778 319.477,529.747 322.681,530.602 325.946,531.492 329.165,532.349 332.506,533.177 335.819,534.022 339.166,534.837 342.428,535.594 345.741,536.375 349.129,537.131 352.419,537.824 355.851,538.604 359.102,539.249 362.44,539.963 365.747,540.565 369.015,541.222 372.347,541.839 375.754,542.473 379.172,543.044 382.513,543.66 385.953,544.169 389.352,544.713 392.626,545.208 396.015,545.715 399.327,546.19 402.709,546.631 406.14,547.102 409.544,547.498 412.864,547.926 416.336,548.34 419.635,548.681 423.077,549.05 426.442,549.415 429.864,549.7 433.267,550.082 436.569,550.366 439.937,550.603 443.352,550.878 446.763,551.133 450.115,551.371 453.586,551.602 457.07,551.761 460.47,551.947 463.779,552.16 467.263,552.24 470.709,552.433 474.067,552.521 477.369,552.642 480.827,552.675 484.192,552.798 487.62,552.827 491.055,552.872 494.484,552.914 497.946,552.924 501.354,552.964 504.786,552.963 508.191,552.944 511.622,552.988 515.085,552.961 518.44,552.954 521.901,552.989 525.303,552.947 528.71,552.983 532.156,552.958 535.495,552.991 538.892,552.967 542.274,552.993 545.744,552.958 549.165,552.99 552.556,552.966 555.994,552.985 559.429,552.99 562.817,552.957 566.237,552.981 569.707,553.005 573.034,552.97 576.529,552.981 579.974,553.026 583.343,553.017 586.802,553.076 590.178,553.077 593.498,553.104 596.893,553.143 600.329,553.227 603.694,553.286 607.126,553.371 610.423,553.463 613.89,553.581 617.331,553.645 620.787,553.756 624.212,553.84 627.603,553.965 631.054,554.038 634.357,554.163 637.793,554.231 641.207,554.334 644.546,554.442 647.997,554.531 651.418,554.603 654.84,554.667 658.342,554.827 661.736,554.906 665.117,555.003 668.514,555.127 671.923,555.21 675.376,555.355 678.794,555.446 682.18,555.548 685.597,555.658 689.009,555.786 692.413,555.883 695.826,555.98 699.305,556.095 702.692,556.205 706.086,556.325 709.502,556.419 712.868,556.541 716.216,556.655 719.613,556.755 723.072,556.849 726.576,556.983 729.966,557.082 733.38,557.191 736.836,557.298 740.233,557.441 743.608,557.535 746.991,557.648 750.465,557.735 753.85,557.822 757.313,557.917 760.763,558.017 764.105,558.097 767.511,558.222 770.833,558.277 774.329,558.364 777.733,558.457 781.093,558.566 784.504,558.649 787.935,558.738 791.386,558.838 794.881,558.934 798.214,558.997 801.7,559.098 805.09,559.123 808.428,559.226 811.944,559.327 815.243,559.369 818.71,559.39 822.149,559.499 825.576,559.6 828.985,559.621 832.416,559.661 835.89,559.705 839.328,559.816 842.631,559.739 846.024,559.802 849.565,559.873 853.049,559.84 856.543,559.894 859.977,559.907 863.416,559.988 866.846,559.93 870.26,559.997 873.701,560.0 877.159,559.983 880.587,559.948 883.992,559.861 887.453,559.607 890.931,559.035 894.371,557.947 897.538,556.271 899.892,554.502 901.511,552.887 903.09,550.855 904.655,547.988 905.888,544.629 906.893,541.294 907.8,538.441 908.729,535.99 909.929,533.352 911.562,530.457 913.52,527.603 915.606,524.86 917.688,522.135 919.705,519.368 921.592,516.58 923.235,513.826 924.64,511.151 925.879,508.379 927.017,505.329 928.02,502.048 928.836,498.635 929.459,495.21 929.888,491.818 930.145,488.396 930.256,484.981 930.271,481.586 930.239,478.17 930.185,474.78 930.114,471.359 930.034,467.965 929.949,464.557 929.857,461.162 929.76,457.728 929.66,454.31 929.575,450.956 929.48,447.549 929.407,444.112 929.326,440.697 929.264,437.341 929.193,433.915 929.144,430.49 929.089,427.052 929.042,423.687 928.997,420.189 928.958,416.851 928.908,413.42 928.848,409.96 928.815,406.628 928.757,403.28 928.726,399.895 928.651,396.446 928.58,392.969 928.504,389.494 928.463,386.131 928.402,382.694 928.36,379.306 928.318,375.924 928.296,372.554 928.267,369.049 928.246,365.651 928.241,362.278 928.247,358.925 928.286,355.468 928.279,352.075 928.356,348.68 928.365,345.291 928.502,341.872 928.545,338.4 928.582,335.095 928.63,331.599 928.697,328.282 928.753,324.809 928.842,321.369 928.841,318.001 928.92,314.536 928.941,311.09 929.064,307.741 929.136,304.241 929.205,300.877 929.284,297.497 929.335,294.025 929.436,290.553 929.507,287.256 929.563,283.864 929.654,280.442 929.68,277.174 929.776,273.617 929.82,270.142 929.872,266.735 929.927,263.437 929.952,259.953 929.97,256.523 930.002,253.108 930.01,249.591 930.026,246.219 930.036,243.04 930.054,239.33 930.049,236.016 930.036,232.695 930.012,229.142 929.983,225.831 929.896,222.489 929.708,218.895 929.505,215.694 929.217,212.344 928.815,208.73 928.333,205.238 927.806,202.08 927.168,198.819 926.383,195.316 925.486,191.83 924.513,188.479 923.548,185.461 922.509,182.469 921.28,179.208 919.966,175.981 918.697,173.079 917.363,170.204 915.976,167.353 914.53,164.531 913.018,161.742 911.276,158.718 909.464,155.735 907.933,153.325 906.0,150.423 904.002,147.566 901.941,144.758 899.815,142.001 897.627,139.294 896.408,137.838 893.418,133.678" fill="none" stroke="white" stroke-width="4"
            stroke-linejoin="round" stroke-linecap="round"/>
  <line x1="908.028" y1="120.020" x2="878.808" y2="147.336" stroke="red" stroke-width="3" stroke-linecap="round"/>
</svg>
