<?xml version="1.0" encoding="utf-8"?>
<svg xmlns="http://www.w3.org/2000/svg" width="1000" height="600">
  <polyline points="894.054,468.058 891.576,470.364 889.067,472.608 886.457,474.853 883.862,477.058 881.266,479.268 878.683,481.479 876.05,483.736 873.461,485.944 870.919,488.147 868.307,490.4 865.696,492.678 863.171,494.908 860.565,497.15 858.03,499.371 855.399,501.63 852.848,503.877 850.264,506.112 847.63,508.405 845.053,510.646 842.533,512.917 839.97,515.196 837.351,517.523 834.832,519.765 832.346,522.013 829.731,524.386 827.167,526.653 824.612,528.947 822.032,531.253 819.477,533.506 816.885,535.797 814.268,538.016 811.586,540.213 808.789,542.292 805.903,544.186 802.834,545.896 799.527,547.36 796.135,548.439 793.045,549.022 790.307,549.181 787.595,549.033 784.804,548.518 781.956,547.564 779.098,546.112 776.411,544.171 773.957,541.769 771.825,538.953 770.126,535.842 768.916,532.487 768.187,528.966 767.961,525.348 768.21,521.785 768.859,518.318 769.89,514.934 771.25,511.672 772.885,508.618 774.747,505.719 776.795,502.975 778.995,500.33 781.242,497.812 783.562,495.362 785.859,492.955 788.13,490.575 790.418,488.126 792.726,485.523 794.925,482.812 796.939,480.003 798.785,477.076 800.396,474.002 801.758,470.908 802.871,467.796 803.728,464.684 804.383,461.492 804.788,458.252 804.961,455.055 804.897,451.793 804.58,448.509 804.016,445.221 803.221,441.958 802.152,438.756 800.884,435.654 799.385,432.685 797.636,429.776 795.677,426.967 793.528,424.315 791.206,421.776 788.698,419.403 786.056,417.255 783.268,415.283 780.307,413.489 777.214,411.857 774.082,410.462 770.771,409.23 767.418,408.239 764.037,407.445 760.621,406.839 757.19,406.415 753.753,406.14 750.326,405.964 746.883,405.856 743.413,405.782 740.042,405.743 736.61,405.709 733.199,405.672 729.736,405.632 726.312,405.592 723.003,405.554 719.562,405.51 716.068,405.467 712.65,405.434 709.254,405.39 705.854,405.357 702.478,405.318 699.068,405.289 695.638,405.265 692.195,405.241 688.682,405.215 685.379,405.19 682.032,405.147 678.524,405.125 675.125,405.079 671.736,405.021 668.264,405.01 664.89,404.911 661.484,404.879 658.116,404.784 654.713,404.736 651.283,404.617 647.882,404.586 644.393,404.48 640.978,404.395 637.544,404.334 634.107,404.19 630.678,404.135 627.311,404.044 623.911,403.938 620.425,403.833 617.064,403.746 613.621,403.611 610.155,403.522 606.734,403.333 603.36,403.306 599.996,403.168 596.612,403.077 593.14,403.007 589.756,402.895 586.408,402.788 582.861,402.724 579.353,402.604 575.983,402.533 572.651,402.422 569.231,402.3 565.767,402.237 562.373,402.08 558.939,401.965 555.504,401.858 552.144,401.812 548.684,401.629 545.201,401.57 541.792,401.445 538.44,401.341 535.034,401.227 531.625,401.136 528.225,401.043 524.775,400.908 521.408,400.815 517.916,400.692 514.536,400.561 511.143,400.47 507.704,400.348 504.326,400.28 500.887,400.195 497.49,400.082 494.034,399.976 490.558,399.963 487.178,399.786 483.729,399.725 480.25,399.657 476.838,399.532 473.45,399.462 470.036,399.38 466.658,399.319 463.195,399.225 459.859,399.092 456.356,399.033 452.946,398.961 449.522,398.887 446.05,398.762 442.698,398.73 439.213,398.634 435.751,398.558 432.269,398.487 428.832,398.408 425.376,398.334 421.909,398.234 418.46,398.16 415.022,398.11 411.541,398.117 408.08,398.223 404.655,398.556 401.205,399.176 397.812,400.166 394.845,401.478 392.36,403.005 390.254,404.786 388.403,406.917 386.729,409.572 385.349,412.724 384.371,416.104 383.827,419.512 383.587,422.941 383.541,426.326 383.584,429.718 383.699,433.118 383.889,436.541 384.133,440.008 384.424,443.377 384.722,446.8 385.025,450.21 385.322,453.57 385.585,457.026 385.825,460.411 386.009,463.822 386.104,467.221 386.127,470.622 386.079,474.037 385.913,477.488 385.646,480.937 385.291,484.318 384.808,487.691 384.2,491.054 383.466,494.355 382.625,497.672 381.653,500.858 380.569,504.027 379.332,507.234 378.004,510.287 376.535,513.383 374.944,516.356 373.298,519.231 371.499,522.029 369.599,524.795 367.566,527.497 365.434,530.096 363.271,532.572 360.926,535.027 358.466,537.44 355.988,539.678 353.393,541.832 350.759,543.899 347.915,545.925 345.129,547.848 342.217,549.651 339.248,551.405 336.163,553.091 333.1,554.662 329.904,556.115 326.651,557.378 323.298,558.438 319.891,559.282 316.38,559.824 312.849,560.0 309.305,559.674 305.826,558.744 302.686,557.258 300.369,555.702 298.648,554.12 296.875,551.864 295.056,548.799 293.466,545.835 291.926,543.282 290.244,541.105 288.171,539.19 285.676,537.588 282.914,536.459 279.941,535.885 276.856,535.867 273.702,536.378 270.516,537.395 267.455,538.807 264.512,540.514 261.626,542.349 258.722,544.225 255.758,546.043 252.708,547.636 249.501,548.909 246.057,549.662 242.632,549.725 239.575,549.179 236.908,548.175 234.519,546.736 232.36,544.886 230.422,542.482 228.803,539.477 227.682,536.109 227.068,532.736 226.76,529.393 226.63,525.971 226.588,522.584 226.582,519.162 226.596,515.72 226.628,512.321 226.659,508.876 226.712,505.489 226.775,502.072 226.829,498.712 226.898,495.248 226.963,491.821 226.997,488.464 227.068,485.114 227.118,481.665 227.172,478.222 227.234,474.822 227.28,471.406 227.337,467.977 227.397,464.631 227.447,461.212 227.5,457.783 227.539,454.342 227.61,450.919 227.665,447.483 227.707,443.982 227.736,440.625 227.804,437.185 227.81,433.732 227.829,430.321 227.814,427.014 227.768,423.622 227.702,420.129 227.59,416.673 227.454,413.265 227.258,409.886 227.019,406.451 226.729,403.058 226.384,399.679 225.994,396.318 225.527,392.886 224.999,389.496 224.426,386.147 223.76,382.763 223.055,379.533 222.235,376.173 221.338,372.869 220.347,369.56 219.262,366.282 218.062,363.017 216.805,359.943 215.438,356.885 213.903,353.779 212.247,350.689 210.574,347.85 208.781,345.018 206.905,342.278 204.927,339.596 202.785,336.897 200.668,334.412 198.422,331.964 196.035,329.528 193.586,327.212 191.053,324.993 188.533,322.932 185.951,320.96 183.17,319.003 180.321,317.135 177.453,315.379 174.47,313.688 171.507,312.129 168.457,310.638 165.349,309.221 162.141,307.853 159.106,306.641 155.878,305.459 152.582,304.262 149.365,303.09 146.123,301.909 142.994,300.73 139.823,299.497 136.546,298.162 133.497,296.847 130.311,295.401 127.197,293.872 124.113,292.263 121.157,290.612 118.217,288.85 115.439,287.079 112.603,285.135 109.769,283.053 107.035,280.886 104.512,278.737 101.986,276.432 99.517,273.979 97.189,271.474 94.96,268.893 92.795,266.189 90.749,263.458 88.805,260.647 86.98,257.792 85.284,254.887 83.609,251.776 82.126,248.707 80.754,245.627 79.454,242.426 78.278,239.248 77.173,235.976 76.135,232.62 75.176,229.262 74.268,225.883 73.404,222.506 72.586,219.166 71.798,215.831 71.034,212.464 70.306,209.032 69.678,205.665 69.167,202.245 68.846,198.802 68.844,195.342 69.322,191.816 70.419,188.348 71.768,185.781 73.152,183.942 75.175,181.855 77.968,179.715 80.982,177.986 83.948,176.536 86.891,175.204 89.925,173.853 93.007,172.475 96.116,171.05 99.215,169.625 102.361,168.165 105.433,166.712 108.519,165.214 111.534,163.742 114.628,162.226 117.703,160.659 120.754,159.119 123.728,157.614 126.713,156.061 129.782,154.476 132.732,152.93 135.733,151.33 138.739,149.737 141.744,148.121 144.729,146.518 147.731,144.885 150.762,143.212 153.731,141.596 156.826,139.889 159.752,138.296 162.67,136.658 165.789,134.986 168.76,133.347 171.714,131.723 174.622,130.149 177.61,128.488 180.643,126.824 183.656,125.158 186.72,123.533 189.783,121.848 192.781,120.228 195.779,118.621 198.785,117.043 201.757,115.441 204.796,113.901 207.88,112.29 210.939,110.794 213.917,109.307 216.983,107.81 220.056,106.32 223.123,104.871 226.286,103.391 229.385,101.971 232.51,100.537 235.585,99.178 238.702,97.786 241.872,96.44 245.097,95.078 248.214,93.797 251.322,92.449 254.503,91.179 257.612,89.881 260.764,88.633 263.916,87.369 267.124,86.13 270.324,84.919 273.649,83.688 276.643,82.581 279.843,81.462 283.036,80.291 286.387,79.172 289.592,78.097 292.838,77.044 296.136,76.003 299.302,74.995 302.519,73.995 305.785,73.042 309.172,72.082 312.57,71.101 315.709,70.188 319.051,69.288 322.358,68.397 325.567,67.557 328.973,66.64 332.307,65.742 335.532,64.992 338.862,64.165 342.191,63.351 345.631,62.593 349.004,61.781 352.222,61.113 355.596,60.334 358.89,59.705 362.17,58.967 365.521,58.348 368.908,57.732 372.161,57.1 375.588,56.497 379.067,55.888 382.394,55.438 385.577,54.706 389.05,54.288 392.343,53.771 395.931,53.28 399.305,52.696 402.594,52.292 406.021,51.915 409.392,51.413 412.685,51.044 416.223,50.633 419.615,50.288 423.061,49.854 426.354,49.602 429.744,49.221 433.147,49.038 436.468,48.655 439.782,48.402 443.254,48.131 446.78,47.923 450.085,47.66 453.54,47.411 457.0,47.301 460.318,47.206 463.8,46.864 467.353,46.77 470.71,46.663 474.177,46.558 477.571,46.387 480.851,46.418 484.407,46.31 487.753,46.328 491.183,46.215 494.681,46.098 498.034,46.159 501.428,46.104 504.842,46.218 508.24,46.122 511.645,46.188 515.186,46.165 518.419,46.242 521.869,46.193 525.433,46.249 528.828,46.25 532.111,46.238 535.683,46.265 539.073,46.296 542.525,46.282 545.888,46.283 549.249,46.32 552.67,46.258 556.136,46.345 559.611,46.35 562.897,46.378 566.428,46.399 569.728,46.387 573.255,46.408 576.512,46.452 579.985,46.423 583.378,46.425 586.992,46.396 590.461,46.437 593.854,46.371 597.021,46.388 600.353,46.319 604.047,46.274 607.301,46.148 610.668,46.17 614.263,46.052 617.557,45.974 621.054,45.87 624.397,45.757 627.955,45.68 631.374,45.598 634.663,45.506 638.224,45.428 641.688,45.288 644.879,45.188 648.272,45.12 651.809,44.992 655.079,44.939 658.468,44.829 662.065,44.734 665.605,44.653 668.825,44.568 672.321,44.434 675.602,44.293 678.992,44.242 682.558,44.051 685.905,44.007 689.271,43.849 693.0,43.692 696.184,43.554 699.577,43.545 703.077,43.378 706.548,43.29 709.834,43.182 713.292,43.116 716.753,43.041 720.186,42.915 723.425,42.774 726.996,42.756 730.473,42.61 733.82,42.518 737.248,42.47 740.632,42.233 744.106,42.246 747.561,42.141 751.043,42.059 754.357,42.011 757.71,41.768 761.074,41.818 764.593,41.7 768.137,41.563 771.558,41.51 774.918,41.344 778.31,41.216 781.613,41.224 785.249,41.057 788.485,40.991 791.904,40.831 795.498,40.861 798.8,40.727 802.328,40.615 805.539,40.564 808.891,40.53 812.461,40.5 815.892,40.36 819.267,40.351 822.695,40.306 826.045,40.209 829.401,40.169 833.075,40.167 836.536,40.117 840.023,40.08 843.351,40.091 846.741,40.028 850.225,40.069 853.653,40.027 857.173,40.011 860.733,40.0 864.162,40.028 867.562,40.04 870.982,40.015 874.534,40.056 878.033,40.063 881.536,40.161 884.937,40.282 888.325,40.527 891.825,41.102 895.294,42.21 898.443,43.835 900.761,45.533 902.469,47.178 904.093,49.24 905.624,52.06 906.839,55.464 907.829,58.9 908.65,61.697 909.571,64.169 910.745,66.819 912.375,69.669 914.356,72.628 916.44,75.325 918.549,78.028 920.627,80.91 922.497,83.594 924.171,86.366 925.587,88.973 926.846,91.761 927.966,94.81 928.995,98.194 929.761,101.525 930.359,104.967 930.765,108.37 931.022,111.762 931.14,115.214 931.156,118.513 931.126,121.97 931.059,125.367 930.99,128.831 930.899,132.168 930.807,135.68 930.702,139.026 930.594,142.431 930.483,145.793 930.363,149.157 930.27,152.586 930.163,156.066 930.077,159.531 930.008,162.904 929.947,166.156 929.909,169.634 929.81,172.887 929.777,176.336 929.704,179.939 929.71,183.431 929.684,186.86 929.626,190.286 929.586,193.522 929.58,197.089 929.556,200.574 929.461,203.801 929.462,207.37 929.428,210.489 929.335,214.088 929.334,217.464 929.294,221.145 929.267,224.192 929.231,227.67 929.194,230.992 929.183,234.46 929.183,237.975 929.154,241.292 929.166,244.879 929.16,248.038 929.165,251.404 929.186,255.001 929.197,258.46 929.213,261.928 929.268,265.412 929.311,268.621 929.327,272.162 929.393,275.404 929.411,278.536 929.549,282.289 929.562,285.676 929.58,289.087 929.72,292.651 929.672,295.794 929.727,299.424 929.811,302.706 929.854,306.168 929.859,309.598 929.947,313.179 930.046,316.177 930.019,319.482 930.148,323.588 930.166,326.5 930.248,329.983 930.335,333.497 930.278,336.673 930.329,340.564 930.351,343.479 930.304,346.962 930.446,350.734 930.206,353.886 930.318,357.687 930.492,360.765 930.272,363.785 930.38,367.88 930.313,370.041 930.33,374.306 930.259,377.814 930.144,381.076 929.992,384.772 929.659,387.908 929.323,391.714 928.899,395.236 928.573,398.103 928.008,402.077 927.441,405.448 926.94,408.118 926.085,411.87 925.197,415.44 924.373,418.338 923.14,422.067 922.261,424.463 920.731,428.004 919.089,431.431 917.795,434.092 916.221,437.094 914.871,439.581 913.235,442.446 911.082,446.024 909.585,448.382 907.621,451.37 905.225,454.785 903.965,456.525 901.466,459.78 898.953,462.818 897.614,464.367 894.054,468.058" fill="none" stroke="white" stroke-width="4"
            stroke-linejoin="round" stroke-linecap="round"/>
</svg>
