<?xml version="1.0" encoding="utf-8"?>
<svg xmlns="http://www.w3.org/2000/svg" width="1000" height="600">
  <polyline points="667.068,414.049 664.565,415.446 662.127,416.791 659.732,418.123 657.236,419.499 654.752,420.901 652.261,422.269 649.815,423.619 647.378,424.974 644.881,426.353 642.395,427.739 639.928,429.098 637.48,430.466 635.004,431.835 632.54,433.197 630.105,434.562 627.608,435.932 625.144,437.307 622.697,438.682 620.184,440.055 617.721,441.431 615.287,442.796 612.79,444.157 610.327,445.547 607.884,446.915 605.418,448.256 602.959,449.65 600.483,450.999 598.051,452.361 595.562,453.753 593.094,455.107 590.627,456.501 588.151,457.856 585.717,459.229 583.234,460.577 580.76,461.97 578.292,463.325 575.828,464.695 573.366,466.082 570.874,467.449 568.396,468.839 565.956,470.183 563.499,471.57 561.025,472.929 558.537,474.322 556.081,475.689 553.611,477.054 551.166,478.416 548.703,479.799 546.2,481.169 543.728,482.578 541.25,483.935 538.833,485.314 536.372,486.67 533.876,488.081 531.383,489.488 528.941,490.836 526.522,492.21 524.054,493.574 521.575,494.986 519.117,496.361 516.671,497.724 514.218,499.103 511.781,500.475 509.287,501.881 506.803,503.266 504.356,504.647 501.916,506.004 499.456,507.423 496.958,508.811 494.526,510.215 492.104,511.549 489.619,512.961 487.167,514.385 484.691,515.764 482.253,517.142 479.826,518.51 477.343,519.904 474.886,521.308 472.43,522.686 470.019,524.066 467.542,525.433 465.038,526.852 462.573,528.27 460.157,529.624 457.675,531.009 455.234,532.417 452.769,533.787 450.309,535.16 447.907,536.562 445.39,537.935 442.91,539.321 440.473,540.74 438.005,542.126 435.524,543.483 433.074,544.882 430.634,546.291 428.151,547.661 425.643,549.019 423.185,550.413 420.647,551.779 418.096,553.14 415.582,554.414 412.998,555.631 410.341,556.772 407.646,557.784 404.889,558.639 402.123,559.33 399.325,559.773 396.549,560.0 393.827,559.986 391.155,559.727 388.53,559.247 386.015,558.51 383.581,557.55 381.269,556.372 379.115,555.005 377.047,553.434 375.175,551.676 373.464,549.761 371.934,547.657 370.582,545.426 369.477,543.084 368.569,540.586 367.883,537.97 367.456,535.294 367.289,532.555 367.358,529.733 367.686,526.919 368.267,524.051 369.09,521.196 370.095,518.515 371.282,515.932 372.61,513.463 374.054,511.047 375.622,508.656 377.263,506.373 378.969,504.125 380.766,501.912 382.613,499.712 384.45,497.591 386.319,495.431 388.19,493.26 390.021,491.098 391.817,488.866 393.544,486.63 395.242,484.35 396.893,482.058 398.468,479.733 400.028,477.322 401.496,474.877 402.827,472.44 404.109,469.835 405.229,467.216 406.198,464.484 406.97,461.687 407.512,458.864 407.777,456.118 407.784,453.364 407.524,450.67 407.04,448.064 406.329,445.522 405.41,443.094 404.292,440.775 402.96,438.559 401.405,436.472 399.69,434.52 397.807,432.735 395.744,431.096 393.527,429.61 391.117,428.276 388.545,427.107 385.838,426.14 383.05,425.348 380.224,424.761 377.404,424.334 374.577,424.05 371.745,423.877 368.921,423.809 366.11,423.838 363.312,423.947 360.509,424.108 357.668,424.306 354.825,424.521 352.022,424.757 349.216,424.985 346.406,425.195 343.616,425.381 340.818,425.519 338.027,425.599 335.217,425.603 332.42,425.52 329.625,425.333 326.842,425.029 324.178,424.631 321.569,424.131 319.006,423.541 316.466,422.838 313.896,422.014 311.362,421.076 308.851,420.038 306.351,418.89 303.832,417.612 301.287,416.19 298.822,414.689 296.484,413.143 294.161,411.5 291.908,409.79 289.698,408.03 287.531,406.221 285.425,404.401 283.291,402.529 281.186,400.644 279.091,398.768 276.995,396.87 274.908,394.971 272.824,393.073 270.762,391.158 268.706,389.291 266.589,387.36 264.47,385.433 262.434,383.582 260.334,381.677 258.19,379.737 256.103,377.854 254.039,375.997 251.975,374.127 249.857,372.24 247.754,370.347 245.638,368.454 243.498,366.555 241.39,364.669 239.303,362.815 237.189,360.938 235.042,359.046 232.925,357.172 230.825,355.315 228.72,353.455 226.609,351.591 224.484,349.713 222.368,347.844 220.274,345.983 218.16,344.096 216.053,342.202 213.98,340.314 211.888,338.364 209.852,336.388 207.893,334.374 205.959,332.217 204.126,329.951 202.43,327.598 200.896,325.183 199.544,322.714 198.384,320.212 197.439,317.71 196.691,315.194 196.124,312.628 195.746,310.087 195.548,307.562 195.534,304.979 195.711,302.364 196.085,299.752 196.665,297.134 197.472,294.445 198.5,291.755 199.72,289.164 201.122,286.645 202.666,284.243 204.336,281.934 206.113,279.697 207.951,277.555 209.855,275.485 211.848,273.463 213.912,271.548 216.107,269.719 218.47,267.977 220.953,266.393 223.465,265.031 226.029,263.876 228.617,262.931 231.181,262.206 233.71,261.694 236.249,261.368 238.807,261.218 241.413,261.253 243.988,261.469 246.559,261.869 249.104,262.448 251.719,263.252 254.378,264.282 256.997,265.493 259.568,266.868 262.016,268.354 264.36,269.912 266.662,271.577 268.896,273.323 271.054,275.125 273.167,277.005 275.225,278.932 277.225,280.915 279.196,282.977 281.13,285.038 283.021,287.137 284.899,289.251 286.753,291.38 288.612,293.53 290.477,295.687 292.32,297.829 294.184,299.981 296.084,302.15 297.985,304.305 299.904,306.41 301.863,308.507 303.859,310.563 305.866,312.556 307.901,314.512 309.994,316.431 312.162,318.289 314.4,320.054 316.747,321.706 319.219,323.211 321.84,324.499 324.516,325.439 327.144,325.926 329.677,325.95 332.078,325.536 334.335,324.724 336.392,323.519 338.166,322.0 339.67,320.177 340.89,318.046 341.748,315.666 342.239,313.032 342.36,310.159 342.151,307.263 341.696,304.422 341.046,301.643 340.241,298.919 339.343,296.281 338.361,293.652 337.323,291.029 336.257,288.431 335.142,285.832 334.003,283.257 332.842,280.735 331.602,278.133 330.377,275.582 329.108,273.085 327.836,270.556 326.536,268.027 325.25,265.517 323.936,262.979 322.654,260.489 321.369,258.017 320.064,255.478 318.766,252.969 317.491,250.451 316.206,247.9 314.964,245.35 313.75,242.82 312.567,240.299 311.415,237.775 310.26,235.21 309.118,232.606 307.99,229.984 306.866,227.325 305.779,224.704 304.708,222.092 303.685,219.547 302.649,216.89 301.646,214.206 300.697,211.5 299.835,208.788 299.046,205.95 298.421,203.186 297.95,200.383 297.657,197.494 297.575,194.668 297.703,191.902 298.069,189.194 298.68,186.588 299.549,184.061 300.648,181.665 301.934,179.442 303.447,177.337 305.175,175.389 307.06,173.647 309.101,172.102 311.308,170.769 313.669,169.643 316.121,168.766 318.63,168.15 321.182,167.781 323.839,167.663 326.481,167.793 329.138,168.171 331.79,168.795 334.429,169.668 337.039,170.803 339.574,172.176 342.044,173.792 344.336,175.555 346.473,177.421 348.498,179.328 350.435,181.281 352.37,183.292 354.304,185.285 356.24,187.212 358.203,189.102 360.224,190.959 362.319,192.772 364.452,194.51 366.651,196.198 368.893,197.811 371.165,199.34 373.53,200.824 375.956,202.241 378.376,203.56 380.845,204.812 383.326,205.978 385.89,207.082 388.491,208.11 391.068,209.053 393.685,209.942 396.286,210.768 398.907,211.558 401.592,212.352 404.219,213.136 406.887,213.959 409.57,214.847 412.262,215.85 414.94,217.007 417.524,218.288 419.93,219.652 422.213,221.114 424.36,222.655 426.329,224.241 428.261,225.974 430.103,227.805 431.825,229.711 433.494,231.775 435.063,233.994 436.528,236.346 437.914,238.879 439.166,241.498 440.247,244.111 441.193,246.793 441.977,249.489 442.628,252.255 443.152,255.017 443.566,257.801 443.896,260.649 444.15,263.462 444.379,266.322 444.606,269.176 444.865,272.059 445.183,274.931 445.582,277.746 446.09,280.567 446.714,283.337 447.472,286.097 448.391,288.82 449.489,291.453 450.826,294.072 452.384,296.513 454.148,298.693 456.092,300.58 458.175,302.189 460.368,303.548 462.622,304.636 464.951,305.468 467.376,306.069 469.884,306.423 472.455,306.51 475.065,306.301 477.698,305.813 480.426,305.037 483.147,303.978 485.757,302.695 488.24,301.229 490.623,299.575 492.869,297.789 494.991,295.881 497.014,293.876 498.951,291.762 500.794,289.565 502.551,287.316 504.249,284.992 505.888,282.627 507.447,280.223 508.961,277.756 510.378,275.333 511.741,272.862 513.088,270.307 514.361,267.751 515.564,265.232 516.717,262.661 517.86,260.01 518.924,257.383 519.923,254.765 520.875,252.135 521.784,249.437 522.645,246.738 523.458,244.075 524.21,241.378 524.928,238.691 525.608,235.976 526.229,233.203 526.81,230.51 527.356,227.737 527.834,225.012 528.277,222.283 528.702,219.523 529.053,216.774 529.373,214.054 529.64,211.294 529.868,208.517 530.052,205.749 530.21,202.978 530.283,200.16 530.339,197.353 530.373,194.565 530.327,191.809 530.263,189.017 530.153,186.168 530.013,183.416 529.828,180.607 529.604,177.782 529.348,174.965 529.042,172.181 528.699,169.324 528.343,166.491 527.929,163.685 527.521,160.934 527.077,158.153 526.614,155.404 526.155,152.578 525.689,149.836 525.218,147.071 524.746,144.255 524.275,141.452 523.813,138.705 523.378,135.931 522.932,133.062 522.53,130.296 522.139,127.516 521.768,124.719 521.415,121.889 521.091,119.047 520.805,116.232 520.586,113.411 520.428,110.572 520.373,107.785 520.412,104.947 520.559,102.085 520.819,99.254 521.212,96.396 521.716,93.614 522.337,90.903 523.046,88.311 523.848,85.81 524.776,83.286 525.814,80.806 526.956,78.399 528.168,76.104 529.533,73.785 530.986,71.572 532.548,69.413 534.3,67.205 536.122,65.114 538.059,63.075 540.148,61.068 542.328,59.144 544.582,57.33 546.844,55.662 549.204,54.048 551.64,52.514 553.966,51.137 556.422,49.746 558.987,48.352 561.493,47.063 564.037,45.826 566.636,44.685 569.273,43.646 572.006,42.7 574.754,41.896 577.566,41.206 580.342,40.681 582.974,40.32 585.597,40.096 588.21,40.0 590.792,40.018 593.33,40.157 595.937,40.432 598.619,40.853 601.314,41.428 604.076,42.17 606.858,43.057 609.497,44.042 612.213,45.197 614.777,46.428 617.321,47.783 619.72,49.163 622.098,50.625 624.482,52.121 626.882,53.64 629.259,55.122 631.659,56.632 634.077,58.155 636.448,59.658 638.736,61.142 641.136,62.748 643.45,64.397 645.68,66.118 647.89,67.976 649.971,69.909 652.009,71.993 653.916,74.171 655.641,76.379 657.161,78.574 658.578,80.884 659.795,83.145 660.9,85.478 661.864,87.826 662.705,90.275 663.431,92.825 664.011,95.43 664.466,98.241 664.766,101.169 664.902,104.05 664.898,106.954 664.747,109.731 664.477,112.587 664.104,115.443 663.639,118.203 663.105,120.901 662.486,123.677 661.801,126.448 661.066,129.214 660.304,131.907 659.487,134.602 658.663,137.339 657.855,139.992 657.008,142.757 656.187,145.45 655.372,148.125 654.534,150.866 653.707,153.59 652.864,156.374 652.053,159.043 651.284,161.692 650.491,164.429 649.732,167.185 648.979,169.993 648.326,172.627 647.664,175.368 647.049,178.15 646.495,180.839 645.968,183.714 645.53,186.5 645.19,189.299 644.965,192.183 644.872,195.069 644.931,197.944 645.157,200.813 645.562,203.677 646.092,206.269 646.77,208.795 647.601,211.276 648.569,213.657 649.694,216.02 650.934,218.263 652.352,220.497 653.959,222.71 655.69,224.821 657.649,226.917 659.767,228.909 661.979,230.775 664.283,232.504 666.616,234.094 669.052,235.59 671.514,237.019 674.031,238.363 676.551,239.675 678.965,240.863 681.459,242.079 684.088,243.316 686.678,244.518 689.229,245.672 691.747,246.809 694.348,247.985 696.998,249.144 699.542,250.321 702.127,251.435 704.636,252.564 707.275,253.708 709.851,254.867 712.477,256.019 715.006,257.114 717.611,258.302 720.131,259.393 722.78,260.574 725.36,261.7 727.943,262.849 730.566,264.022 733.085,265.116 735.687,266.272 738.251,267.423 740.877,268.578 743.448,269.747 746.029,270.897 748.504,272.043 751.049,273.216 753.66,274.419 756.239,275.626 758.807,276.864 761.376,278.078 764.035,279.369 766.572,280.599 769.031,281.798 771.536,283.027 773.961,284.232 776.595,285.56 779.078,286.824 781.585,288.145 784.163,289.57 786.609,291.021 788.98,292.563 791.375,294.312 793.585,296.147 795.654,298.135 797.54,300.257 799.171,302.424 800.659,304.798 801.84,307.135 802.844,309.676 803.584,312.168 804.077,314.597 804.381,317.195 804.466,319.756 804.314,322.361 803.926,324.937 803.289,327.497 802.456,329.974 801.389,332.433 800.058,334.875 798.533,337.173 796.813,339.341 794.788,341.51 792.71,343.437 790.5,345.254 788.129,346.991 785.705,348.591 783.35,350.017 780.849,351.42 778.403,352.77 775.964,354.075 773.45,355.425 770.972,356.747 768.531,358.009 766.014,359.391 763.596,360.629 761.054,361.986 758.591,363.32 756.079,364.736 753.593,366.136 751.158,367.432 748.79,368.767 746.369,370.12 743.807,371.525 741.262,372.979 738.801,374.339 736.358,375.655 733.987,377.031 731.489,378.394 729.03,379.772 726.458,381.155 724.114,382.494 721.567,383.876 719.088,385.22 716.638,386.572 714.19,387.937 711.735,389.308 709.283,390.638 706.781,392.024 704.27,393.423 701.858,394.754 699.579,396.11 696.865,397.496 694.305,398.976 691.941,400.243 689.703,401.371 686.962,402.778 684.325,404.181 682.118,405.41 679.308,406.682 676.95,407.991 674.638,409.277 672.395,410.523 670.734,411.445 667.068,414.049" fill="none" stroke="white" stroke-width="4"
            stroke-linejoin="round" stroke-linecap="round"/>
  <line x1="657.321" y1="396.585" x2="676.815" y2="431.513" stroke="red" stroke-width="3" stroke-linecap="round"/>
</svg>
