<?xml version="1.0" encoding="utf-8"?>
<svg xmlns="http://www.w3.org/2000/svg" width="1000" height="600">
  <polyline points="630.541,40.956 626.683,40.977 622.833,41.034 619.054,41.174 615.333,41.37 611.566,41.65 607.747,41.904 603.899,42.143 600.117,42.37 596.349,42.586 592.533,42.793 588.685,42.975 584.864,43.104 581.14,43.206 577.343,43.271 573.498,43.319 569.767,43.361 565.969,43.408 562.098,43.451 558.406,43.48 554.622,43.534 550.767,43.566 547.041,43.612 543.18,43.656 539.308,43.682 535.589,43.72 531.767,43.744 528.006,43.765 524.265,43.811 520.407,43.767 516.642,43.803 512.835,43.748 509.058,43.758 505.21,43.736 501.336,43.685 497.564,43.742 493.801,43.63 490.019,43.697 486.251,43.626 482.498,43.699 478.702,43.61 474.863,43.691 471.061,43.629 467.256,43.634 463.462,43.626 459.693,43.654 455.915,43.62 452.095,43.715 448.313,43.673 444.528,43.741 440.717,43.698 436.925,43.784 433.111,43.689 429.29,43.767 425.494,43.677 421.709,43.679 417.91,43.611 414.141,43.609 410.32,43.492 406.512,43.485 402.699,43.353 398.869,43.34 395.06,43.256 391.296,43.18 387.487,43.104 383.705,43.077 379.919,42.958 376.122,42.901 372.337,42.881 368.522,42.802 364.732,42.749 360.974,42.67 357.16,42.623 353.332,42.594 349.551,42.513 345.725,42.452 341.944,42.414 338.143,42.369 334.32,42.316 330.542,42.265 326.721,42.226 322.925,42.153 319.146,42.131 315.354,42.066 311.541,42.026 307.736,41.957 303.959,41.908 300.188,41.876 296.4,41.809 292.559,41.748 288.811,41.703 285.008,41.64 281.19,41.605 277.319,41.558 273.491,41.535 269.725,41.468 265.92,41.441 262.073,41.421 258.249,41.403 254.449,41.397 250.656,41.383 246.829,41.413 242.978,41.464 239.141,41.578 235.274,41.849 231.418,42.338 227.62,43.057 223.904,44.024 220.343,45.272 216.946,46.789 213.742,48.595 210.745,50.628 208.008,52.911 205.523,55.396 203.311,58.114 201.362,61.0 199.688,64.041 198.315,67.233 197.251,70.541 196.49,73.946 196.065,77.406 195.939,80.871 196.178,84.422 196.759,87.972 197.677,91.426 198.943,94.841 200.547,98.194 202.481,101.401 204.728,104.492 207.308,107.482 210.105,110.256 213.07,112.768 216.157,115.021 219.361,117.071 222.657,118.959 226.027,120.703 229.497,122.325 232.986,123.848 236.502,125.271 240.045,126.623 243.666,127.944 247.329,129.278 250.936,130.588 254.473,131.959 258.004,133.38 261.521,134.896 265.005,136.455 268.416,138.074 271.841,139.793 275.235,141.601 278.529,143.494 281.782,145.547 284.945,147.744 287.952,150.087 290.891,152.66 293.638,155.461 296.11,158.42 298.243,161.525 300.032,164.719 301.476,168.03 302.619,171.412 303.447,174.86 303.96,178.315 304.159,181.784 304.056,185.272 303.614,188.764 302.86,192.186 301.838,195.538 300.484,198.825 298.834,202.046 296.887,205.169 294.646,208.163 292.119,211.059 289.306,213.834 286.326,216.4 283.301,218.697 280.174,220.853 276.959,222.9 273.705,224.814 270.353,226.634 266.942,228.367 263.556,229.995 260.167,231.6 256.656,233.217 253.194,234.766 249.817,236.322 246.352,237.902 242.877,239.548 239.504,241.215 236.182,242.943 232.858,244.775 229.592,246.74 226.433,248.783 223.435,250.903 220.565,253.118 217.796,255.432 215.128,257.85 212.578,260.381 210.133,262.989 207.79,265.735 205.499,268.63 203.335,271.677 201.234,274.831 199.238,278.158 197.349,281.532 195.606,284.929 193.988,288.389 192.471,291.875 191.026,295.414 189.692,298.981 188.39,302.532 187.141,306.117 185.939,309.691 184.702,313.239 183.5,316.899 182.285,320.477 181.107,324.028 179.91,327.677 178.691,331.251 177.507,334.822 176.279,338.455 175.069,342.077 173.839,345.677 172.641,349.225 171.42,352.782 170.175,356.434 168.928,360.06 167.678,363.662 166.442,367.248 165.212,370.809 163.981,374.379 162.726,377.931 161.459,381.527 160.206,385.119 158.953,388.683 157.688,392.25 156.425,395.845 155.151,399.445 153.897,403.005 152.643,406.569 151.383,410.15 150.117,413.77 148.877,417.387 147.667,420.949 146.458,424.604 145.259,428.299 144.197,431.886 143.191,435.59 142.332,439.383 141.682,443.15 141.2,447.035 140.962,450.915 140.971,454.735 141.244,458.454 141.743,462.0 142.502,465.454 143.468,468.792 144.673,472.019 146.127,475.175 147.798,478.226 149.713,481.183 151.889,484.0 154.33,486.721 157.057,489.357 160.024,491.805 163.167,494.023 166.494,496.055 169.938,497.879 173.396,499.484 176.92,500.937 180.51,502.262 184.114,503.453 187.737,504.509 191.43,505.41 195.255,506.127 199.13,506.614 203.028,506.843 206.88,506.8 210.645,506.481 214.282,505.9 217.744,505.082 221.093,504.017 224.343,502.71 227.447,501.206 230.376,499.515 233.266,497.567 236.077,495.364 238.729,492.958 241.243,490.31 243.635,487.414 245.926,484.264 248.031,480.986 249.939,477.628 251.692,474.199 253.293,470.756 254.761,467.256 256.095,463.726 257.349,460.116 258.496,456.509 259.543,452.888 260.52,449.189 261.414,445.501 262.263,441.791 263.077,438.109 263.867,434.399 264.653,430.64 265.438,426.884 266.215,423.133 267.02,419.33 267.831,415.54 268.658,411.8 269.536,408.051 270.47,404.322 271.469,400.621 272.539,396.914 273.658,393.272 274.856,389.674 276.187,386.075 277.664,382.538 279.335,379.076 281.271,375.666 283.525,372.415 286.046,369.571 288.804,367.294 291.751,365.614 294.837,364.529 298.025,364.001 301.213,364.069 304.301,364.692 307.273,365.854 310.083,367.545 312.642,369.765 314.964,372.554 317.001,375.859 318.67,379.423 319.995,383.055 321.052,386.732 321.894,390.451 322.579,394.16 323.157,397.905 323.664,401.663 324.118,405.393 324.523,409.15 324.875,412.912 325.179,416.707 325.446,420.526 325.673,424.3 325.854,428.054 325.99,431.845 326.125,435.666 326.25,439.465 326.374,443.26 326.486,447.104 326.616,450.95 326.727,454.725 326.859,458.495 326.997,462.347 327.157,466.177 327.362,469.912 327.587,473.702 327.853,477.539 328.15,481.34 328.474,485.112 328.83,488.883 329.208,492.637 329.613,496.418 330.047,500.21 330.496,503.912 330.973,507.678 331.493,511.49 332.062,515.272 332.713,519.06 333.483,522.85 334.39,526.605 335.463,530.287 336.756,533.935 338.299,537.519 340.06,540.915 342.025,544.088 344.234,547.035 346.66,549.695 349.323,552.08 352.17,554.167 355.168,555.954 358.353,557.447 361.642,558.595 365.002,559.405 368.433,559.882 371.89,560.0 375.362,559.776 378.785,559.209 382.153,558.285 385.463,557.017 388.608,555.439 391.605,553.57 394.508,551.368 397.226,548.887 399.759,546.124 402.072,543.095 404.141,539.838 405.993,536.309 407.54,532.713 408.832,529.108 409.951,525.574 410.954,521.986 411.914,518.32 412.869,514.762 413.883,511.214 414.953,507.7 416.105,504.224 417.367,500.74 418.744,497.277 420.218,493.862 421.812,490.463 423.5,487.131 425.282,483.895 427.16,480.706 429.144,477.558 431.239,474.443 433.426,471.404 435.69,468.458 438.041,465.579 440.446,462.786 442.948,460.019 445.498,457.303 448.098,454.614 450.704,451.952 453.262,449.332 455.853,446.616 458.446,443.791 460.947,440.854 463.32,437.76 465.513,434.567 467.454,431.384 469.18,428.165 470.688,424.969 471.987,421.751 473.116,418.464 474.052,415.218 474.841,411.8 475.456,408.252 475.847,404.683 476.025,400.881 475.992,396.981 475.745,393.094 475.299,389.276 474.653,385.545 473.814,381.864 472.768,378.192 471.559,374.586 470.211,371.008 468.725,367.44 467.158,363.931 465.567,360.441 463.967,356.959 462.399,353.435 460.899,349.877 459.517,346.28 458.281,342.683 457.199,339.014 456.283,335.279 455.583,331.511 455.138,327.647 454.988,323.727 455.215,319.814 455.862,316.065 456.919,312.545 458.316,309.293 459.979,306.302 461.93,303.524 464.128,301.015 466.567,298.736 469.283,296.673 472.234,294.89 475.417,293.429 478.877,292.262 482.557,291.392 486.445,290.851 490.373,290.647 494.249,290.741 498.161,291.124 501.957,291.751 505.677,292.589 509.387,293.627 513.064,294.841 516.7,296.229 520.254,297.73 523.753,299.33 527.22,301.038 530.623,302.834 533.95,304.707 537.259,306.654 540.486,308.665 543.677,310.753 546.88,312.956 549.968,315.133 552.998,317.369 556.032,319.742 559.037,322.156 561.871,324.555 564.741,327.022 567.571,329.6 570.337,332.189 572.968,334.781 575.695,337.462 578.336,340.193 580.858,342.927 583.372,345.655 585.848,348.522 588.306,351.402 590.674,354.299 592.994,357.216 595.271,360.157 597.52,363.184 599.714,366.226 601.847,369.27 603.941,372.434 605.999,375.567 607.953,378.706 609.874,381.897 611.767,385.124 613.622,388.392 615.425,391.698 617.168,395.042 618.849,398.34 620.557,401.775 622.176,405.225 623.797,408.728 625.292,412.1 626.756,415.55 628.183,419.01 629.606,422.582 631.007,426.208 632.348,429.771 633.657,433.35 634.961,436.94 636.222,440.486 637.479,444.01 638.763,447.652 640.026,451.195 641.275,454.718 642.595,458.356 643.918,461.961 645.239,465.536 646.561,469.004 647.91,472.494 649.329,476.096 650.73,479.566 652.185,483.071 653.734,486.643 655.308,490.1 657.004,493.582 658.754,496.891 660.683,500.249 662.694,503.461 664.893,506.667 667.164,509.711 669.597,512.676 672.09,515.443 674.68,518.084 677.267,520.51 679.944,522.812 682.771,525.043 685.638,527.103 688.623,529.051 691.677,530.847 694.844,532.509 698.229,534.084 701.678,535.511 705.274,536.806 708.906,537.931 712.727,538.937 716.435,539.739 720.169,540.38 723.929,540.866 727.711,541.215 731.528,541.429 735.37,541.526 739.168,541.554 742.883,541.513 746.661,541.398 750.459,541.176 754.308,540.838 758.154,540.325 761.923,539.66 765.795,538.793 769.536,537.768 773.197,536.552 776.466,535.28 779.657,533.852 782.77,532.267 785.814,530.559 788.72,528.728 791.7,526.641 794.516,524.444 797.24,522.071 800.076,519.322 802.762,516.48 805.279,513.52 807.664,510.432 809.882,507.315 811.971,504.078 813.894,500.851 815.68,497.713 817.529,494.327 819.38,490.935 821.191,487.633 822.981,484.363 824.806,481.015 826.613,477.68 828.439,474.263 830.184,470.827 831.781,467.462 833.278,464.016 834.64,460.428 835.874,456.669 836.912,452.883 837.745,448.994 838.312,445.397 838.671,441.774 838.829,438.198 838.789,434.907 838.564,431.322 838.137,427.703 837.564,424.472 836.749,420.994 835.74,417.541 834.477,414.021 832.921,410.388 831.188,406.839 829.263,403.398 827.198,400.091 825.017,396.918 822.73,393.866 820.39,390.92 817.998,388.106 815.433,385.235 812.858,382.469 810.277,379.751 807.666,377.13 804.849,374.412 802.068,371.752 799.306,369.117 796.612,366.485 793.871,363.839 791.095,361.183 788.313,358.511 785.617,355.919 782.861,353.291 780.066,350.591 777.405,347.954 774.65,345.245 772.086,342.625 769.453,339.899 766.787,337.105 764.148,334.227 761.653,331.422 759.186,328.567 756.724,325.586 754.442,322.681 752.177,319.585 750.012,316.37 748.032,313.092 746.181,309.631 744.537,306.085 743.153,302.539 742.037,299.068 741.168,295.657 740.506,292.215 740.069,288.834 739.834,285.408 739.801,281.825 740.008,278.132 740.432,274.545 741.105,270.812 741.999,267.156 743.143,263.526 744.537,259.853 746.072,256.369 747.82,252.886 749.652,249.587 751.575,246.361 753.581,243.176 755.739,239.932 757.93,236.744 759.998,233.806 762.07,230.859 764.375,227.699 766.857,224.375 768.971,221.536 771.172,218.598 773.573,215.372 775.966,212.201 778.18,209.246 780.389,206.408 782.635,203.275 785.01,200.194 787.263,197.187 789.486,194.229 791.728,191.268 794.131,188.027 796.434,185.061 798.597,182.16 800.849,179.093 803.263,175.946 805.534,172.973 807.755,169.961 810.034,166.913 812.401,163.704 814.655,160.71 816.871,157.726 819.11,154.643 821.364,151.586 823.583,148.512 825.783,145.409 827.948,142.404 830.197,139.207 832.343,136.131 834.516,133.032 836.66,129.96 838.849,126.783 841.012,123.636 843.193,120.446 845.338,117.239 847.421,114.047 849.496,110.71 851.43,107.411 853.265,103.944 854.952,100.309 856.364,96.676 857.464,93.125 858.295,89.495 858.829,85.737 859.038,81.907 858.9,78.361 858.459,74.907 857.698,71.434 856.703,68.24 855.393,65.025 853.815,61.914 851.959,58.96 849.744,56.065 847.376,53.509 844.804,51.153 841.999,48.973 838.926,47.01 835.542,45.239 831.929,43.744 828.258,42.561 824.686,41.673 821.017,40.974 817.168,40.482 813.467,40.186 809.472,40.028 805.651,40.0 801.715,40.035 797.82,40.086 794.082,40.126 790.269,40.181 786.426,40.303 782.696,40.395 778.794,40.47 775.055,40.562 771.537,40.521 768.147,40.661 764.072,40.723 759.972,40.724 756.025,40.799 752.411,40.839 748.838,40.855 745.173,40.796 741.184,40.78 737.464,40.74 733.319,40.696 729.779,40.676 726.215,40.729 722.25,40.761 718.49,40.723 714.635,40.74 710.562,40.698 707.069,40.726 703.426,40.717 699.577,40.745 695.579,40.804 691.969,40.774 688.447,40.828 684.612,41.009 680.5,40.883 677.402,40.746 673.56,40.9 669.111,40.933 665.077,40.706 661.973,41.231 657.638,40.861 654.132,41.216 650.247,41.387 646.106,41.393 643.588,41.397 638.762,41.405 636.903,41.408 630.541,40.956" fill="none" stroke="white" stroke-width="4"
            stroke-linejoin="round" stroke-linecap="round"/>
</svg>
