<?xml version="1.0" encoding="utf-8"?>
<svg xmlns="http://www.w3.org/2000/svg" width="1000" height="600">
  <polyline points="661.899,343.319 660.285,344.964 658.672,346.671 657.027,348.361 655.459,350.011 653.845,351.671 652.226,353.37 650.616,355.046 649.0,356.739 647.364,358.419 645.75,360.129 644.119,361.818 642.504,363.496 640.876,365.19 639.26,366.881 637.655,368.55 636.029,370.235 634.426,371.942 632.804,373.611 631.218,375.309 629.616,376.973 628.019,378.677 626.378,380.386 624.784,382.099 623.177,383.76 621.574,385.468 619.95,387.176 618.363,388.852 616.779,390.53 615.186,392.211 613.568,393.914 611.941,395.653 610.339,397.314 608.749,399.031 607.137,400.698 605.535,402.425 603.915,404.111 602.326,405.808 600.714,407.482 599.127,409.158 597.476,410.89 595.847,412.595 594.236,414.277 592.656,415.975 591.017,417.673 589.372,419.4 587.729,421.109 586.085,422.795 584.434,424.429 582.747,426.027 580.958,427.587 579.069,429.06 577.082,430.42 574.97,431.65 572.708,432.723 570.411,433.568 568.483,434.106 567.024,434.405 565.683,434.607 563.847,434.797 561.355,434.899 558.772,434.837 556.373,434.628 554.093,434.293 551.828,433.848 549.716,433.363 547.661,432.91 545.525,432.495 543.343,432.155 541.128,431.923 538.944,431.797 536.73,431.782 534.506,431.874 532.309,432.078 530.07,432.399 527.839,432.841 525.632,433.397 523.472,434.063 521.304,434.852 519.226,435.726 517.156,436.718 515.088,437.836 513.068,439.055 511.147,440.344 509.22,441.778 507.348,443.3 505.59,444.847 503.891,446.471 502.249,448.157 500.668,449.878 499.14,451.608 497.664,453.337 496.141,455.138 494.627,456.946 493.155,458.718 491.654,460.489 490.156,462.268 488.643,464.014 487.117,465.766 485.569,467.505 484.004,469.236 482.425,470.95 480.854,472.634 479.258,474.334 477.641,476.01 476.033,477.668 474.402,479.324 472.747,480.981 471.09,482.604 469.419,484.247 467.75,485.861 466.077,487.471 464.408,489.079 462.723,490.678 461.036,492.279 459.345,493.856 457.632,495.457 455.923,497.046 454.198,498.619 452.464,500.196 450.713,501.765 448.986,503.294 447.272,504.803 445.51,506.349 443.72,507.91 441.966,509.402 440.248,510.867 438.467,512.39 436.647,513.922 434.851,515.393 433.038,516.897 431.238,518.36 429.461,519.791 427.639,521.26 425.784,522.738 423.932,524.185 422.098,525.611 420.256,527.038 418.408,528.462 416.551,529.852 414.676,531.261 412.795,532.658 410.905,534.05 409.026,535.416 407.142,536.769 405.211,538.137 403.25,539.503 401.303,540.843 399.369,542.155 397.44,543.433 395.469,544.722 393.469,546.008 391.47,547.278 389.481,548.517 387.466,549.755 385.44,550.97 383.395,552.173 381.337,553.371 379.281,554.54 377.23,555.675 375.145,556.782 373.037,557.807 370.863,558.705 368.565,559.43 366.142,559.894 363.679,560.0 361.515,559.737 359.852,559.282 358.462,558.724 357.09,557.995 355.512,556.868 353.8,555.228 352.31,553.271 351.173,551.159 350.376,548.911 349.894,546.627 349.636,544.338 349.528,541.959 349.52,539.577 349.521,537.239 349.448,534.879 349.242,532.509 348.866,530.179 348.301,527.898 347.538,525.695 346.555,523.549 345.367,521.515 344.049,519.702 342.641,518.12 341.148,516.732 339.555,515.502 337.815,514.398 335.866,513.396 333.682,512.52 331.372,511.834 329.026,511.364 326.654,511.091 324.315,510.994 321.999,511.018 319.663,511.133 317.336,511.341 315.022,511.616 312.724,511.952 310.416,512.357 308.087,512.806 305.773,513.282 303.475,513.761 301.188,514.237 298.881,514.693 296.584,515.111 294.269,515.488 291.946,515.8 289.661,516.048 287.338,516.23 284.984,516.335 282.641,516.347 280.288,516.258 277.93,516.057 275.604,515.742 273.303,515.307 271.016,514.743 268.883,514.088 266.896,513.357 264.965,512.537 263.04,511.607 261.129,510.56 259.196,509.365 257.229,508.003 255.329,506.535 253.516,504.984 251.804,503.365 250.173,501.66 248.625,499.889 247.181,498.09 245.787,496.231 244.415,494.333 243.075,492.45 241.739,490.512 240.421,488.571 239.148,486.624 237.895,484.672 236.669,482.678 235.447,480.671 234.275,478.632 233.095,476.566 231.993,474.526 230.896,472.437 229.806,470.341 228.781,468.304 227.745,466.247 226.736,464.185 225.733,462.123 224.723,460.033 223.739,457.92 222.769,455.829 221.821,453.737 220.871,451.625 219.929,449.52 218.972,447.384 218.013,445.241 217.056,443.114 216.09,440.983 215.112,438.862 214.131,436.749 213.135,434.649 212.132,432.561 211.112,430.474 210.054,428.385 208.979,426.284 207.899,424.208 206.806,422.132 205.71,420.064 204.604,418.024 203.522,416.026 202.418,414.0 201.295,411.944 200.173,409.895 199.057,407.836 197.965,405.786 196.898,403.69 195.906,401.54 195.021,399.314 194.271,397.019 193.685,394.662 193.285,392.278 193.084,389.983 193.052,387.99 193.127,386.326 193.292,384.655 193.576,382.731 194.022,380.47 194.649,378.0 195.426,375.576 196.305,373.291 197.26,371.159 198.291,369.134 199.381,367.182 200.472,365.247 201.539,363.318 202.561,361.379 203.539,359.382 204.46,357.334 205.318,355.247 206.11,353.132 206.838,350.972 207.515,348.752 208.131,346.494 208.686,344.189 209.17,341.872 209.593,339.542 209.978,337.215 210.33,334.956 210.696,332.69 211.096,330.43 211.528,328.202 212.009,326.021 212.554,323.833 213.171,321.614 213.853,319.454 214.597,317.301 215.412,315.172 216.285,313.104 217.237,311.032 218.264,308.97 219.341,306.99 220.496,305.022 221.723,303.079 222.991,301.205 224.313,299.391 225.707,297.608 227.179,295.838 228.721,294.106 230.287,292.445 231.892,290.848 233.567,289.297 235.262,287.815 237.026,286.365 238.868,284.951 240.749,283.599 242.656,282.292 244.615,281.055 246.599,279.866 248.592,278.756 250.627,277.685 252.711,276.677 254.822,275.706 256.975,274.789 259.153,273.919 261.345,273.097 263.551,272.335 265.789,271.608 268.061,270.933 270.341,270.3 272.59,269.716 274.82,269.181 277.077,268.672 279.356,268.175 281.636,267.695 283.93,267.243 286.249,266.81 288.556,266.41 290.875,266.041 293.208,265.71 295.536,265.419 297.898,265.169 300.255,264.958 302.567,264.784 304.874,264.644 307.217,264.546 309.524,264.494 311.833,264.478 314.197,264.487 316.525,264.541 318.822,264.632 321.15,264.756 323.449,264.907 325.748,265.105 328.076,265.326 330.369,265.582 332.642,265.863 334.896,266.192 337.183,266.553 339.442,266.955 341.706,267.397 343.966,267.88 346.182,268.404 348.408,268.972 350.646,269.593 352.858,270.262 355.027,270.948 357.254,271.704 359.457,272.483 361.608,273.279 363.772,274.094 365.942,274.931 368.078,275.781 370.231,276.631 372.396,277.496 374.538,278.365 376.749,279.237 378.91,280.084 381.072,280.928 383.272,281.758 385.442,282.576 387.654,283.378 389.842,284.155 392.063,284.896 394.274,285.627 396.496,286.325 398.775,287.002 401.027,287.664 403.288,288.276 405.55,288.888 407.823,289.447 410.05,289.991 412.321,290.51 414.608,290.991 416.889,291.468 419.185,291.897 421.446,292.294 423.748,292.683 426.046,293.018 428.3,293.341 430.623,293.622 432.919,293.873 435.164,294.09 437.537,294.273 439.81,294.41 442.056,294.514 444.396,294.59 446.734,294.625 449.056,294.619 451.341,294.581 453.634,294.5 455.93,294.379 458.227,294.222 460.528,294.027 462.776,293.798 465.047,293.528 467.311,293.223 469.619,292.872 471.917,292.484 474.175,292.065 476.408,291.612 478.644,291.106 480.865,290.57 483.096,289.971 485.306,289.352 487.516,288.669 489.739,287.96 491.873,287.232 494.077,286.428 496.245,285.612 498.337,284.771 500.503,283.877 502.603,282.947 504.697,281.983 506.786,281.006 508.863,279.969 510.904,278.911 512.929,277.851 514.992,276.666 516.987,275.516 518.934,274.357 520.897,273.105 522.842,271.837 524.777,270.551 526.683,269.224 528.528,267.871 530.401,266.506 532.234,265.102 534.092,263.628 535.908,262.146 537.671,260.668 539.442,259.115 541.165,257.573 542.908,255.988 544.619,254.344 546.29,252.737 547.983,251.058 549.615,249.382 551.216,247.712 552.836,245.978 554.409,244.247 555.95,242.517 557.503,240.759 559.011,238.997 560.534,237.229 562.039,235.476 563.537,233.681 565.05,231.891 566.572,230.118 568.058,228.328 569.584,226.501 571.07,224.65 572.508,222.82 573.896,220.913 575.229,218.926 576.434,216.927 577.573,214.807 578.56,212.664 579.421,210.513 580.12,208.387 580.672,206.359 581.1,204.331 581.431,202.25 581.639,200.014 581.732,197.752 581.7,195.433 581.516,193.088 581.227,190.792 580.812,188.474 580.323,186.171 579.835,183.881 579.398,181.599 579.047,179.303 578.804,176.962 578.68,174.624 578.681,172.258 578.813,169.889 579.072,167.588 579.457,165.357 579.952,163.279 580.57,161.23 581.357,159.063 582.274,156.861 583.294,154.698 584.41,152.595 585.622,150.55 586.887,148.634 588.198,146.796 589.588,144.989 591.087,143.159 592.66,141.329 594.216,139.559 595.764,137.793 597.338,136.015 598.88,134.257 600.408,132.539 601.943,130.782 603.505,129.018 605.049,127.262 606.585,125.52 608.136,123.765 609.657,122.015 611.205,120.272 612.745,118.514 614.295,116.78 615.839,115.034 617.387,113.271 618.957,111.524 620.509,109.814 622.079,108.099 623.665,106.398 625.263,104.738 626.902,103.046 628.578,101.385 630.258,99.747 631.998,98.125 633.663,96.566 635.418,95.021 637.202,93.48 638.941,92.019 640.648,90.633 642.465,89.176 644.302,87.753 646.143,86.385 647.93,85.079 649.827,83.774 651.742,82.506 653.625,81.287 655.644,80.066 657.59,78.927 659.564,77.808 661.644,76.688 663.698,75.624 665.734,74.577 667.843,73.575 669.934,72.606 672.053,71.641 674.25,70.704 676.366,69.82 678.529,68.957 680.735,68.111 682.886,67.287 685.075,66.487 687.271,65.719 689.489,64.925 691.735,64.182 693.897,63.431 696.149,62.702 698.331,61.956 700.54,61.237 702.782,60.513 705.001,59.784 707.238,59.065 709.395,58.36 711.67,57.629 713.85,56.92 716.085,56.193 718.308,55.494 720.504,54.761 722.72,54.074 724.958,53.331 727.179,52.63 729.385,51.911 731.643,51.182 733.904,50.445 736.122,49.731 738.339,49.023 740.565,48.3 742.816,47.577 745.096,46.847 747.322,46.126 749.54,45.421 751.782,44.711 754.077,43.999 756.325,43.321 758.604,42.659 760.914,42.033 763.248,41.454 765.602,40.937 767.924,40.506 770.222,40.181 772.591,40.0 774.98,40.009 777.428,40.28 779.896,40.896 781.87,41.682 783.127,42.36 784.207,43.09 785.756,44.397 787.505,46.268 788.931,48.277 790.083,50.367 791.055,52.528 791.894,54.737 792.613,56.952 793.246,59.204 793.785,61.438 794.262,63.691 794.706,66.005 795.12,68.332 795.531,70.602 795.973,72.871 796.463,75.149 796.995,77.412 797.552,79.641 798.146,81.917 798.754,84.111 799.388,86.318 800.048,88.592 800.721,90.805 801.385,93.0 802.051,95.185 802.756,97.456 803.443,99.684 804.127,101.919 804.791,104.151 805.404,106.358 805.954,108.621 806.408,110.955 806.742,113.378 806.922,115.751 806.948,118.012 806.822,120.329 806.555,122.543 806.149,124.71 805.629,126.758 804.951,128.853 804.165,130.857 803.252,132.804 802.197,134.727 800.98,136.645 799.628,138.494 798.126,140.293 796.498,142.011 794.708,143.69 792.893,145.216 791.041,146.617 789.165,147.921 787.183,149.178 785.157,150.357 783.081,151.483 780.991,152.504 778.839,153.469 776.68,154.359 774.487,155.216 772.283,156.069 770.117,156.924 767.917,157.796 765.734,158.714 763.543,159.666 761.393,160.661 759.297,161.681 757.17,162.777 755.106,163.906 753.059,165.097 751.032,166.35 749.05,167.661 747.124,169.069 745.31,170.589 743.603,172.29 742.108,174.166 740.881,176.291 740.131,178.292 739.815,179.805 739.7,181.184 739.775,182.84 740.243,185.016 741.212,187.355 742.525,189.341 744.133,191.041 746.002,192.501 748.044,193.726 750.225,194.796 752.351,195.84 754.404,196.981 756.364,198.252 758.195,199.666 759.895,201.234 761.482,203.0 762.923,204.926 764.151,206.921 765.175,208.965 766.014,211.087 766.658,213.196 767.124,215.295 767.423,217.365 767.574,219.513 767.57,221.65 767.428,223.716 767.135,225.891 766.705,228.027 766.116,230.212 765.36,232.452 764.445,234.654 763.38,236.801 762.16,238.906 760.828,240.908 759.425,242.8 757.897,244.63 756.374,246.292 754.753,247.979 753.122,249.634 751.484,251.285 749.845,252.943 748.153,254.626 746.495,256.255 744.899,257.835 743.243,259.509 741.578,261.125 739.843,262.825 738.248,264.404 736.666,266.078 734.949,267.798 733.368,269.417 731.759,271.028 730.141,272.658 728.499,274.323 726.846,275.992 725.226,277.662 723.589,279.349 721.98,280.994 720.271,282.791 718.501,284.53 716.959,286.162 715.455,287.729 713.656,289.591 712.119,291.216 710.462,292.872 708.889,294.571 707.345,296.171 705.734,297.741 704.184,299.42 702.474,301.188 700.762,302.886 699.132,304.634 697.573,306.346 696.056,307.76 694.391,309.551 692.743,311.24 691.128,312.792 689.583,314.438 687.848,316.288 686.152,318.015 684.492,319.789 682.965,321.393 681.338,322.891 679.782,324.563 678.23,326.162 676.407,328.046 674.824,329.753 673.307,331.293 671.576,333.117 670.119,334.657 668.611,336.341 667.015,338.002 665.35,339.734 664.283,340.845 661.899,343.319" fill="none" stroke="white" stroke-width="4"
            stroke-linejoin="round" stroke-linecap="round"/>
  <line x1="647.623" y1="329.312" x2="676.175" y2="357.326" stroke="red" stroke-width="3" stroke-linecap="round"/>
</svg>
