<?xml version="1.0" encoding="utf-8"?>
<svg xmlns="http://www.w3.org/2000/svg" width="1000" height="600">
  <polyline points="566.948,78.407 563.828,78.318 560.778,78.26 557.686,78.191 554.673,78.111 551.628,78.046 548.542,77.943 545.517,77.918 542.412,77.825 539.398,77.782 536.325,77.698 533.252,77.631 530.249,77.585 527.154,77.505 524.128,77.455 521.063,77.38 517.968,77.347 514.889,77.258 511.853,77.194 508.803,77.138 505.713,77.064 502.677,76.99 499.618,76.916 496.577,76.853 493.546,76.747 490.467,76.684 487.431,76.597 484.395,76.497 481.305,76.421 478.234,76.322 475.157,76.222 472.099,76.133 469.031,76.048 466.008,75.935 462.942,75.861 459.842,75.755 456.826,75.643 453.768,75.567 450.64,75.45 447.595,75.347 444.553,75.244 441.487,75.156 438.392,75.03 435.3,74.924 432.214,74.818 429.121,74.713 426.064,74.61 422.949,74.514 419.859,74.395 416.812,74.355 413.763,74.446 410.653,74.732 407.523,75.232 404.46,75.967 401.389,76.992 398.475,78.267 396.167,79.527 394.524,80.601 393.124,81.659 391.286,83.218 388.928,85.473 386.644,87.948 384.658,90.381 382.899,92.815 381.28,95.275 379.754,97.718 378.23,100.124 376.615,102.523 374.916,104.841 373.121,107.071 371.191,109.262 369.168,111.345 367.017,113.347 364.78,115.232 362.426,117.018 359.967,118.698 357.45,120.239 354.808,121.677 352.103,122.98 349.352,124.14 346.505,125.181 343.555,126.093 340.562,126.866 337.533,127.492 334.47,127.981 331.376,128.335 328.247,128.56 325.146,128.659 322.056,128.64 319.039,128.539 316.035,128.372 312.978,128.172 309.958,127.963 306.9,127.732 303.851,127.488 300.821,127.262 297.772,127.036 294.731,126.826 291.698,126.648 288.672,126.489 285.611,126.348 282.593,126.245 279.559,126.173 276.503,126.109 273.431,126.083 270.381,126.076 267.37,126.087 264.317,126.107 261.277,126.144 258.236,126.194 255.197,126.254 252.173,126.326 249.122,126.414 246.06,126.515 242.987,126.628 239.931,126.753 236.955,126.879 233.953,127.019 230.868,127.179 227.792,127.349 224.707,127.543 221.627,127.746 218.59,127.969 215.572,128.187 212.583,128.428 209.519,128.676 206.438,128.943 203.35,129.228 200.332,129.516 197.373,129.816 194.314,130.125 191.232,130.461 188.211,130.809 185.219,131.158 182.155,131.538 179.1,131.91 176.127,132.302 173.086,132.712 170.009,133.138 166.979,133.568 163.983,134.008 160.948,134.474 157.894,134.942 154.888,135.431 151.849,135.939 148.805,136.461 145.813,137.006 142.802,137.566 139.741,138.16 136.702,138.772 133.689,139.401 130.658,140.06 127.633,140.738 124.631,141.437 121.631,142.163 118.609,142.918 115.601,143.698 112.615,144.499 109.617,145.332 106.658,146.191 103.732,147.093 100.815,148.105 97.939,149.31 95.164,150.774 92.513,152.601 90.142,154.807 88.393,157.071 87.282,159.053 86.526,160.856 85.944,162.804 85.541,165.331 85.494,168.428 85.944,171.607 86.874,174.647 88.227,177.454 89.918,180.009 91.853,182.392 93.947,184.644 96.148,186.828 98.356,189.008 100.485,191.231 102.487,193.572 104.31,196.05 105.924,198.674 107.296,201.441 108.407,204.366 109.212,207.356 109.689,210.257 109.868,213.017 109.791,215.671 109.473,218.299 108.898,220.961 108.041,223.696 106.86,226.516 105.363,229.321 103.619,231.976 101.703,234.423 99.645,236.68 97.475,238.823 95.246,240.861 92.916,242.833 90.507,244.749 88.057,246.59 85.553,248.372 83.025,250.098 80.449,251.818 77.855,253.537 75.296,255.244 72.771,256.964 70.251,258.736 67.763,260.563 65.342,262.445 62.996,264.368 60.703,266.364 58.456,268.453 56.289,270.627 54.21,272.898 52.238,275.271 50.357,277.781 48.617,280.375 47.08,282.964 45.737,285.538 44.571,288.107 43.542,290.706 42.651,293.316 41.867,296.07 41.193,299.013 40.665,302.042 40.283,305.167 40.062,308.303 40.0,311.416 40.086,314.473 40.307,317.51 40.667,320.558 41.116,323.562 41.611,326.581 42.151,329.619 42.718,332.602 43.309,335.62 43.965,338.614 44.637,341.626 45.368,344.615 46.107,347.565 46.923,350.538 47.77,353.481 48.653,356.423 49.593,359.369 50.539,362.271 51.516,365.189 52.504,368.078 53.49,370.923 54.499,373.759 55.508,376.564 56.539,379.359 57.598,382.187 58.688,385.029 59.788,387.851 60.885,390.67 61.986,393.499 63.089,396.34 64.193,399.191 65.294,402.055 66.383,404.934 67.457,407.812 68.514,410.707 69.556,413.614 70.57,416.541 71.562,419.466 72.527,422.393 73.461,425.293 74.378,428.173 75.288,431.061 76.193,433.962 77.085,436.883 77.96,439.777 78.853,442.721 79.741,445.667 80.625,448.569 81.539,451.485 82.505,454.381 83.597,457.279 84.878,460.19 86.343,463.02 87.991,465.711 89.847,468.275 91.798,470.571 93.608,472.418 95.256,473.908 96.965,475.29 99.02,476.791 101.549,478.461 104.443,480.151 107.436,481.665 110.374,482.947 113.226,484.009 116.042,484.907 118.88,485.692 121.703,486.463 124.47,487.241 127.224,488.07 129.987,489.0 132.758,490.03 135.52,491.162 138.236,492.385 140.928,493.698 143.613,495.11 146.3,496.627 148.965,498.235 151.571,499.915 154.104,501.637 156.595,503.404 159.057,505.167 161.493,506.892 163.961,508.593 166.432,510.228 168.945,511.812 171.522,513.335 174.111,514.767 176.76,516.131 179.467,517.416 182.185,518.605 184.958,519.717 187.757,520.729 190.581,521.65 193.465,522.489 196.349,523.224 199.24,523.851 202.196,524.392 205.187,524.843 208.163,525.193 211.09,525.436 214.032,525.587 217.048,525.645 220.079,525.608 223.1,525.484 226.108,525.26 229.062,524.937 232.015,524.533 234.961,524.041 237.897,523.454 240.828,522.773 243.777,522.024 246.699,521.17 249.606,520.238 252.495,519.232 255.332,518.142 258.165,516.984 261.003,515.744 263.791,514.441 266.567,513.078 269.314,511.644 272.009,510.166 274.651,508.638 277.273,507.056 279.87,505.426 282.424,503.794 284.961,502.154 287.49,500.463 290.01,498.749 292.524,497.012 295.065,495.194 297.578,493.341 300.027,491.491 302.405,489.643 304.767,487.697 307.159,485.708 309.484,483.686 311.767,481.608 313.956,479.539 316.19,477.405 318.369,475.24 320.475,473.039 322.595,470.803 324.624,468.581 326.62,466.298 328.61,464.006 330.521,461.698 332.433,459.387 334.307,456.998 336.139,454.573 337.952,452.148 339.701,449.688 341.375,447.22 343.062,444.703 344.677,442.164 346.238,439.588 347.77,436.955 349.228,434.316 350.624,431.686 352.006,428.958 353.327,426.21 354.634,423.462 355.864,420.704 357.095,417.954 358.304,415.148 359.507,412.317 360.692,409.537 361.865,406.718 363.071,403.862 364.249,401.069 365.45,398.289 366.659,395.471 367.889,392.686 369.139,389.87 370.434,387.1 371.721,384.317 373.083,381.566 374.424,378.842 375.858,376.096 377.289,373.362 378.75,370.659 380.231,368.015 381.764,365.347 383.331,362.675 384.921,360.039 386.5,357.473 388.131,354.938 389.807,352.374 391.509,349.819 393.258,347.329 394.972,344.86 396.761,342.42 398.612,339.939 400.436,337.56 402.279,335.234 404.222,332.85 406.196,330.513 408.158,328.261 410.184,326.002 412.235,323.791 414.306,321.623 416.439,319.46 418.608,317.332 420.783,315.273 423.027,313.222 425.293,311.221 427.571,309.275 429.877,307.371 432.216,305.502 434.625,303.64 437.055,301.831 439.47,300.082 441.949,298.349 444.456,296.665 447.015,295.014 449.572,293.435 452.149,291.904 454.782,290.419 457.43,288.97 460.136,287.556 462.827,286.215 465.496,284.939 468.273,283.652 471.056,282.438 473.815,281.298 476.636,280.154 479.488,279.096 482.249,278.096 485.134,277.095 488.097,276.143 490.934,275.244 493.853,274.426 496.815,273.62 499.743,272.862 502.717,272.176 505.68,271.505 508.647,270.92 511.62,270.364 514.628,269.823 517.655,269.392 520.67,268.937 523.751,268.579 526.747,268.248 529.731,267.957 532.825,267.754 535.863,267.537 538.936,267.4 542.034,267.301 545.085,267.214 548.145,267.197 551.222,267.198 554.3,267.263 557.373,267.329 560.409,267.455 563.444,267.617 566.532,267.782 569.622,267.974 572.643,268.197 575.651,268.418 578.744,268.633 581.826,268.886 584.893,269.116 587.982,269.359 591.034,269.619 594.031,269.908 597.089,270.274 600.164,270.717 603.206,271.3 606.257,272.032 609.257,272.92 612.179,273.973 614.975,275.15 617.523,276.405 619.909,277.747 622.217,279.23 624.518,280.869 626.808,282.73 629.038,284.767 631.172,286.938 633.173,289.232 635.067,291.659 636.827,294.134 638.489,296.663 640.191,299.257 641.938,301.796 643.768,304.24 645.713,306.6 647.8,308.886 649.983,311.036 652.287,313.075 654.762,315.022 657.212,316.725 659.546,318.145 662.018,319.45 664.761,320.712 667.662,321.883 670.648,322.932 673.642,323.822 676.661,324.571 679.642,325.156 682.534,325.621 685.532,325.98 688.596,326.256 691.707,326.465 694.857,326.648 697.948,326.815 700.977,326.969 704.033,327.13 707.118,327.285 710.159,327.456 713.219,327.613 716.274,327.76 719.323,327.941 722.401,328.108 725.456,328.254 728.507,328.441 731.554,328.601 734.592,328.764 737.66,328.926 740.732,329.091 743.767,329.234 746.83,329.372 749.896,329.484 752.948,329.562 756.016,329.614 759.11,329.632 762.205,329.617 765.252,329.549 768.309,329.437 771.361,329.284 774.312,329.105 777.272,328.879 780.316,328.594 783.365,328.28 786.359,327.918 789.258,327.543 792.214,327.106 795.196,326.607 798.092,326.065 801.053,325.453 804.002,324.777 806.847,324.055 809.781,323.265 812.708,322.414 815.532,321.547 818.446,320.616 821.336,319.63 824.134,318.625 827.038,317.551 829.903,316.442 832.671,315.308 835.542,314.099 838.345,312.87 841.085,311.659 843.888,310.358 846.665,309.038 849.44,307.723 852.155,306.356 854.927,305.003 857.662,303.606 860.378,302.259 863.102,300.844 865.836,299.472 868.532,298.05 871.272,296.658 873.959,295.266 876.679,293.846 879.402,292.427 882.14,291.023 884.838,289.603 887.545,288.213 890.274,286.774 892.981,285.389 895.668,283.961 898.381,282.567 901.093,281.165 903.816,279.738 906.545,278.331 909.269,276.902 911.982,275.504 914.72,274.063 917.475,272.629 920.208,271.204 922.957,269.769 925.697,268.329 928.425,266.886 931.189,265.403 933.91,263.924 936.636,262.387 939.354,260.798 942.008,259.164 944.642,257.452 947.198,255.671 949.624,253.817 951.971,251.784 954.18,249.537 956.18,247.013 957.867,244.171 958.967,241.575 959.499,239.76 959.807,238.083 960.0,235.448 959.849,232.095 959.276,228.87 958.377,225.851 957.265,222.99 955.988,220.21 954.579,217.508 953.07,214.872 951.456,212.273 949.768,209.723 948.047,207.227 946.285,204.745 944.499,202.221 942.772,199.726 941.116,197.186 939.472,194.578 937.891,191.982 936.357,189.386 934.849,186.76 933.367,184.134 931.903,181.474 930.435,178.792 928.989,176.119 927.55,173.448 926.114,170.768 924.672,168.076 923.231,165.41 921.78,162.766 920.267,160.128 918.646,157.498 916.852,154.876 914.921,152.357 912.89,150.025 910.754,147.87 908.532,145.904 906.214,144.108 903.819,142.491 901.387,141.065 898.832,139.781 896.235,138.669 893.574,137.729 890.755,136.931 887.901,136.318 884.936,135.885 881.88,135.633 878.783,135.575 875.596,135.706 872.523,135.995 869.502,136.438 866.463,137.009 863.463,137.708 860.501,138.521 857.598,139.414 854.697,140.419 851.864,141.527 849.022,142.737 846.179,144.002 843.384,145.256 840.591,146.492 837.75,147.734 834.9,148.928 832.006,150.081 829.093,151.171 826.146,152.208 823.174,153.18 820.176,154.075 817.227,154.873 814.18,155.615 811.141,156.251 808.093,156.746 804.976,157.041 801.804,157.066 798.661,156.727 795.607,155.937 793.045,154.798 791.326,153.7 789.929,152.539 788.456,150.959 786.841,148.503 785.56,145.455 784.921,142.375 784.819,139.327 785.166,136.284 785.894,133.22 786.915,130.188 787.961,127.177 788.768,124.234 789.319,121.22 789.64,118.195 789.715,115.205 789.519,112.061 789.04,108.935 788.324,106.025 787.36,103.169 786.178,100.462 784.836,97.957 783.312,95.582 781.604,93.317 779.804,91.263 777.818,89.298 775.669,87.439 773.464,85.775 771.019,84.168 768.515,82.756 765.769,81.424 762.863,80.233 759.805,79.229 756.806,78.435 753.723,77.818 750.583,77.385 747.528,77.114 744.544,76.988 741.495,76.957 738.378,76.965 735.435,76.979 732.373,77.029 729.247,77.078 726.184,77.125 723.14,77.099 720.112,77.227 717.035,77.272 713.867,77.344 710.948,77.366 708.004,77.427 704.934,77.417 701.809,77.453 698.766,77.542 695.574,77.564 692.715,77.521 689.451,77.556 686.423,77.632 683.471,77.6 680.526,77.618 677.235,77.542 674.383,77.511 671.198,77.56 668.176,77.789 664.977,77.953 661.933,78.169 658.974,78.338 656.041,78.558 652.951,78.95 650.248,79.086 646.865,79.243 643.753,79.362 640.636,79.409 637.7,79.46 634.603,79.474 631.452,79.467 628.345,79.452 625.227,79.491 622.228,79.447 619.133,79.47 616.017,79.336 613.299,79.334 610.187,79.268 607.272,79.283 604.008,79.235 600.762,79.179 597.835,79.153 594.911,79.009 591.769,79.013 588.368,78.857 585.511,78.854 582.664,78.771 579.987,78.658 576.513,78.619 573.693,78.642 571.496,78.669 566.948,78.407" fill="none" stroke="white" stroke-width="4"
            stroke-linejoin="round" stroke-linecap="round"/>
</svg>
