<?xml version="1.0" encoding="utf-8"?>
<svg xmlns="http://www.w3.org/2000/svg" width="1000" height="600">
  <polyline points="317.134,486.252 317.397,484.415 317.674,482.521 317.956,480.617 318.255,478.656 318.546,476.8 318.826,474.923 319.132,473.023 319.424,471.164 319.722,469.243 320.043,467.313 320.34,465.435 320.652,463.507 320.946,461.621 321.265,459.716 321.562,457.884 321.877,455.927 322.19,454.029 322.48,452.158 322.792,450.232 323.101,448.311 323.409,446.468 323.702,444.525 323.999,442.633 324.32,440.706 324.615,438.775 324.899,436.917 325.211,435.049 325.507,433.114 325.8,431.217 326.099,429.332 326.401,427.453 326.675,425.571 326.971,423.658 327.258,421.767 327.571,419.832 327.831,418.009 328.132,416.082 328.441,414.103 328.71,412.195 328.989,410.343 329.274,408.479 329.581,406.445 329.853,404.57 330.136,402.687 330.425,400.758 330.695,398.928 330.962,397.063 331.258,395.102 331.519,393.199 331.821,391.28 332.093,389.393 332.346,387.513 332.628,385.624 332.908,383.67 333.189,381.754 333.441,379.867 333.717,377.969 334.002,376.085 334.27,374.135 334.536,372.216 334.807,370.344 335.079,368.383 335.339,366.502 335.606,364.608 335.866,362.715 336.142,360.776 336.42,358.805 336.688,356.835 336.934,355.025 337.187,353.132 337.456,351.262 337.711,349.376 337.985,347.382 338.243,345.568 338.502,343.613 338.779,341.67 339.031,339.772 339.301,337.854 339.56,335.991 339.821,334.139 340.055,332.225 340.345,330.27 340.621,328.285 340.873,326.399 341.106,324.505 341.414,322.621 341.593,320.815 341.861,318.857 342.134,316.846 342.388,315.049 342.601,313.141 342.844,311.278 343.14,309.241 343.335,307.347 343.592,305.465 343.849,303.587 344.102,301.681 344.315,299.746 344.565,297.846 344.809,296.011 345.058,293.98 345.317,292.112 345.538,290.23 345.773,288.32 346.025,286.324 346.267,284.45 346.507,282.563 346.734,280.531 346.993,278.733 347.195,276.942 347.441,274.914 347.682,272.953 347.938,270.982 348.163,269.134 348.427,267.163 348.617,265.393 348.834,263.576 349.092,261.564 349.35,259.598 349.577,257.735 349.811,255.758 350.052,253.874 350.28,251.997 350.509,250.082 350.767,248.133 350.96,246.269 351.241,244.345 351.466,242.465 351.67,240.526 351.93,238.614 352.162,236.681 352.397,234.725 352.656,232.868 352.895,231.006 353.097,228.999 353.351,227.186 353.584,225.205 353.822,223.249 354.081,221.429 354.302,219.556 354.553,217.648 354.754,215.715 355.031,213.784 355.259,211.916 355.512,209.912 355.772,208.088 355.961,206.128 356.218,204.238 356.486,202.358 356.702,200.445 356.955,198.497 357.182,196.605 357.427,194.647 357.682,192.727 357.904,190.817 358.131,188.887 358.405,187.015 358.661,185.04 358.834,183.142 359.104,181.26 359.348,179.296 359.588,177.439 359.82,175.496 360.061,173.644 360.277,171.735 360.507,169.827 360.786,167.875 360.976,165.999 361.216,164.026 361.488,162.157 361.674,160.262 361.919,158.369 362.173,156.403 362.432,154.518 362.652,152.584 362.867,150.695 363.104,148.739 363.339,146.829 363.581,144.933 363.836,143.095 364.041,141.208 364.295,139.23 364.521,137.336 364.746,135.419 364.967,133.432 365.238,131.584 365.454,129.707 365.704,127.832 365.927,125.843 366.191,123.94 366.443,121.986 366.693,120.112 366.945,118.177 367.17,116.335 367.429,114.417 367.651,112.444 367.934,110.472 368.176,108.622 368.426,106.769 368.637,104.851 368.919,102.956 369.157,100.946 369.453,99.043 369.685,97.111 369.96,95.214 370.226,93.275 370.507,91.389 370.776,89.429 371.061,87.519 371.357,85.629 371.673,83.658 371.963,81.786 372.326,79.845 372.628,77.899 372.999,76.014 373.391,74.093 373.813,72.192 374.328,70.27 374.924,68.382 375.6,66.574 376.419,64.766 377.424,62.953 378.593,61.221 379.982,59.573 381.4,58.236 382.537,57.354 383.448,56.748 384.343,56.253 385.417,55.753 386.801,55.232 388.544,54.815 390.491,54.574 392.398,54.582 394.284,54.748 396.165,55.063 398.041,55.415 399.968,55.749 401.929,55.997 403.906,56.084 405.904,55.958 407.817,55.584 409.499,55.008 410.841,54.343 411.992,53.617 413.082,52.747 414.269,51.499 415.465,49.962 416.611,48.393 417.812,46.856 419.106,45.433 420.414,44.2 421.643,43.231 422.844,42.449 424.161,41.737 425.825,41.057 427.737,40.505 429.705,40.153 431.695,40.0 433.666,40.011 435.605,40.127 437.533,40.355 439.459,40.661 441.415,41.049 443.344,41.495 445.223,42.019 447.112,42.592 448.926,43.186 450.744,43.833 452.5,44.503 454.397,45.261 456.104,45.962 457.911,46.749 459.692,47.54 461.476,48.325 463.251,49.149 465.01,49.989 466.664,50.784 468.448,51.671 470.209,52.559 471.88,53.383 473.689,54.342 475.355,55.24 477.017,56.128 478.704,57.095 480.408,58.055 482.101,59.025 483.724,59.961 485.406,61.003 487.027,61.97 488.662,62.905 490.308,63.977 491.976,64.985 493.639,65.983 495.311,67.049 496.89,68.001 498.476,68.959 500.229,70.055 501.845,71.053 503.457,72.059 505.079,73.05 506.752,74.055 508.344,75.119 510.012,76.103 511.613,77.112 513.248,78.156 514.871,79.144 516.489,80.169 518.158,81.175 519.773,82.236 521.405,83.248 523.047,84.261 524.687,85.266 526.317,86.31 527.936,87.312 529.562,88.352 531.201,89.366 532.829,90.348 534.431,91.392 536.06,92.385 537.724,93.45 539.341,94.484 541.047,95.509 542.599,96.514 544.253,97.544 545.912,98.583 547.435,99.557 549.126,100.64 550.743,101.636 552.328,102.64 553.965,103.704 555.634,104.754 557.209,105.77 558.875,106.845 560.505,107.861 562.062,108.851 563.673,109.918 565.385,111.062 566.951,112.042 568.59,113.088 570.185,114.14 571.782,115.231 573.416,116.257 574.972,117.324 576.563,118.391 578.259,119.487 579.818,120.558 581.38,121.607 582.992,122.672 584.617,123.771 586.192,124.849 587.724,125.909 589.346,126.977 590.962,128.091 592.547,129.163 594.082,130.196 595.667,131.341 597.249,132.441 598.836,133.603 600.445,134.752 601.972,135.841 603.556,136.966 605.044,138.084 606.619,139.212 608.234,140.392 609.752,141.502 611.306,142.651 612.856,143.793 614.432,144.934 615.992,146.092 617.585,147.259 619.141,148.374 620.72,149.539 622.358,150.702 623.844,151.77 625.448,152.871 627.133,153.95 628.814,154.906 630.638,155.775 632.483,156.522 634.469,157.073 636.527,157.377 638.308,157.411 639.729,157.241 640.915,156.968 642.025,156.577 643.265,155.995 644.725,155.023 646.194,153.723 647.455,152.258 648.619,150.695 649.657,149.114 650.701,147.512 651.86,145.92 653.167,144.465 654.575,143.288 656.028,142.442 657.299,141.935 658.45,141.698 659.845,141.644 661.487,141.897 663.338,142.538 665.109,143.53 666.661,144.757 668.015,146.122 669.251,147.58 670.397,149.112 671.524,150.678 672.615,152.289 673.68,153.841 674.77,155.463 675.861,157.062 676.937,158.606 678.069,160.236 679.172,161.874 680.253,163.44 681.286,165.068 682.302,166.762 683.2,168.509 684.009,170.341 684.626,172.222 684.993,174.098 685.09,175.825 684.965,177.402 684.628,178.896 684.037,180.379 683.254,181.723 682.262,182.905 681.159,183.907 679.873,184.762 678.249,185.513 676.402,186.072 674.454,186.432 672.508,186.615 670.574,186.649 668.633,186.595 666.712,186.452 664.785,186.243 662.89,185.998 661.022,185.703 659.101,185.38 657.248,185.031 655.341,184.674 653.447,184.288 651.552,183.888 649.672,183.529 647.828,183.138 645.9,182.747 644.033,182.334 642.129,181.953 640.317,181.58 638.403,181.156 636.481,180.757 634.582,180.379 632.75,179.981 630.847,179.582 628.932,179.17 627.018,178.787 625.194,178.394 623.319,177.994 621.366,177.636 619.489,177.222 617.612,176.872 615.726,176.508 613.882,176.164 611.97,175.81 610.097,175.477 608.206,175.16 606.296,174.832 604.351,174.525 602.472,174.22 600.551,173.931 598.654,173.644 596.753,173.372 594.851,173.094 592.899,172.826 590.978,172.567 589.1,172.326 587.137,172.105 585.201,171.938 583.278,171.855 581.264,171.889 579.301,172.039 577.282,172.334 575.373,172.747 573.486,173.293 571.829,173.886 570.284,174.541 568.927,175.207 567.525,175.981 566.076,176.898 564.528,178.02 563.094,179.205 561.629,180.566 560.289,181.951 559.007,183.441 557.801,184.968 556.654,186.538 555.559,188.076 554.466,189.623 553.312,191.207 552.219,192.648 551.061,194.076 549.865,195.453 548.62,196.791 547.338,198.074 546.015,199.302 544.659,200.46 543.186,201.618 541.707,202.686 540.16,203.711 538.647,204.648 537.08,205.586 535.441,206.572 533.804,207.569 532.139,208.63 530.482,209.732 528.905,210.843 527.383,212.002 525.987,213.138 524.603,214.363 523.259,215.654 522.048,216.92 520.844,218.29 519.727,219.669 518.699,221.053 517.629,222.625 516.701,224.134 515.85,225.667 515.025,227.329 514.261,229.035 513.561,230.824 512.955,232.586 512.409,234.442 511.945,236.303 511.564,238.181 511.252,240.128 511.022,242.031 510.86,243.933 510.752,245.878 510.664,247.796 510.587,249.696 510.498,251.675 510.38,253.636 510.234,255.521 510.047,257.408 509.784,259.331 509.453,261.24 509.034,263.158 508.549,264.988 507.947,266.892 507.281,268.71 506.546,270.462 505.699,272.236 504.805,273.896 503.801,275.569 502.804,277.062 501.727,278.534 500.573,279.97 499.42,281.289 498.225,282.545 496.944,283.786 495.677,284.917 494.247,286.087 492.77,287.193 491.203,288.275 489.608,289.277 487.943,290.251 486.215,291.193 484.543,292.079 482.83,292.972 481.107,293.9 479.482,294.801 478.006,295.674 476.563,296.56 475.073,297.557 473.656,298.577 472.26,299.651 470.833,300.844 469.406,302.126 468.005,303.512 466.682,304.898 465.376,306.407 464.136,307.92 462.964,309.49 461.845,311.077 460.796,312.694 459.798,314.314 458.85,315.992 457.924,317.677 457.056,319.384 456.106,321.149 455.277,322.799 454.411,324.502 453.559,326.242 452.75,327.978 451.917,329.789 451.144,331.582 450.418,333.279 449.662,335.136 448.983,336.879 448.277,338.699 447.634,340.551 446.978,342.391 446.349,344.229 445.744,346.093 445.136,347.941 444.608,349.706 444.03,351.563 443.532,353.37 443.006,355.225 442.48,357.069 442.015,358.922 441.554,360.723 441.11,362.519 440.637,364.429 440.256,366.241 439.83,368.077 439.403,370.062 439.045,371.831 438.648,373.756 438.292,375.64 437.93,377.487 437.611,379.374 437.258,381.371 436.928,383.243 436.61,385.115 436.3,387.01 436.003,388.904 435.686,390.818 435.415,392.707 435.096,394.62 434.82,396.504 434.553,398.407 434.245,400.325 433.991,402.236 433.717,404.147 433.454,406.074 433.214,407.919 432.935,409.837 432.721,411.682 432.46,413.625 432.226,415.607 431.982,417.484 431.767,419.398 431.535,421.298 431.302,423.192 431.05,425.061 430.827,427.139 430.596,429.004 430.357,430.87 430.117,432.736 429.897,434.664 429.669,436.545 429.41,438.505 429.174,440.435 428.947,442.301 428.686,444.292 428.476,446.19 428.211,448.118 427.986,450.029 427.754,451.923 427.484,453.825 427.251,455.783 427.006,457.683 426.737,459.583 426.479,461.556 426.21,463.514 425.943,465.42 425.665,467.338 425.388,469.218 425.081,471.173 424.758,473.072 424.388,474.997 423.915,476.863 423.351,478.756 422.644,480.641 421.806,482.473 420.829,484.222 419.79,485.782 418.702,487.141 417.747,488.201 416.759,489.137 415.457,490.158 413.79,491.264 411.925,492.225 410.123,492.965 408.286,493.565 406.389,494.05 404.494,494.414 402.601,494.668 400.655,494.845 398.736,494.944 396.834,494.987 394.937,494.967 392.965,494.888 391.014,494.775 389.129,494.61 387.151,494.405 385.149,494.19 383.2,493.972 381.233,493.765 379.287,493.592 377.332,493.449 375.376,493.369 373.437,493.356 371.492,493.44 369.541,493.643 367.603,493.994 365.664,494.55 363.79,495.374 362.047,496.562 360.639,498.057 359.754,499.553 359.291,500.893 359.095,502.134 359.093,503.3 359.3,504.586 359.772,505.968 360.623,507.516 361.772,509.13 362.957,510.684 364.07,512.258 364.995,513.785 365.725,515.259 366.284,516.679 366.715,518.077 367.044,519.599 367.242,521.273 367.284,523.068 367.177,525.042 366.962,527.024 366.692,528.948 366.42,530.756 366.145,532.517 365.872,534.351 365.621,536.15 365.373,538.0 365.109,539.922 364.839,541.857 364.553,543.728 364.206,545.695 363.791,547.559 363.245,549.441 362.526,551.339 361.598,553.16 360.43,554.834 359.23,556.142 358.086,557.119 357.027,557.856 355.768,558.554 354.202,559.199 352.479,559.665 350.588,559.945 348.634,560.0 346.656,559.839 344.683,559.463 342.771,558.897 340.963,558.191 339.111,557.304 337.373,556.314 335.856,555.329 334.196,554.124 332.688,552.913 331.197,551.592 329.719,550.147 328.354,548.71 327.129,547.284 325.919,545.749 324.803,544.209 323.668,542.491 322.64,540.792 321.733,539.155 320.835,537.38 320.08,535.741 319.348,533.995 318.656,532.163 318.02,530.28 317.536,528.682 316.997,526.671 316.566,524.827 316.197,523.029 315.892,521.278 315.578,519.123 315.363,517.353 315.172,515.327 315.047,513.514 314.959,511.487 314.911,509.479 314.91,507.475 314.933,505.814 315.004,503.516 315.106,501.77 315.288,499.454 315.446,497.768 315.637,495.954 315.858,494.049 316.099,492.093 316.387,489.88 316.53,488.811 317.134,486.252" fill="none" stroke="white" stroke-width="4"
            stroke-linejoin="round" stroke-linecap="round"/>
</svg>
