<?xml version="1.0" encoding="utf-8"?>
<svg xmlns="http://www.w3.org/2000/svg" width="1000" height="600">
  <polyline points="127.529,181.646 130.266,183.285 132.934,184.993 135.659,186.66 138.404,188.324 141.127,190.003 143.898,191.659 146.625,193.3 149.398,194.983 152.189,196.647 154.942,198.289 157.684,199.951 160.449,201.574 163.255,203.243 166.012,204.897 168.758,206.501 171.566,208.169 174.361,209.817 177.1,211.431 179.846,213.075 182.65,214.715 185.41,216.38 188.178,218.013 190.902,219.641 193.653,221.312 196.449,222.958 199.202,224.624 201.963,226.296 204.74,227.959 207.506,229.626 210.222,231.283 212.969,232.939 215.71,234.617 218.425,236.248 221.153,237.912 223.965,239.622 226.783,241.335 229.506,243.009 232.206,244.661 234.962,246.347 237.741,248.053 240.461,249.738 243.2,251.404 245.939,253.08 248.7,254.803 251.493,256.492 254.257,258.214 256.99,259.903 259.744,261.6 262.452,263.277 265.144,264.971 267.88,266.681 270.62,268.356 273.315,270.037 276.058,271.724 278.805,273.439 281.504,275.132 284.24,276.823 287.003,278.564 289.746,280.28 292.45,281.985 295.206,283.69 297.903,285.38 300.619,287.084 303.3,288.795 306.043,290.482 308.782,292.211 311.523,293.911 314.281,295.645 317.053,297.394 319.828,299.142 322.594,300.877 325.276,302.565 327.908,304.241 330.609,305.934 333.331,307.675 336.105,309.41 338.866,311.131 341.551,312.861 344.266,314.548 346.97,316.267 349.669,317.922 352.377,319.661 355.111,321.395 357.86,323.112 360.567,324.819 363.273,326.533 366.042,328.298 368.761,330.036 371.419,331.714 374.099,333.44 376.85,335.171 379.601,336.938 382.319,338.651 385.012,340.362 387.711,342.11 390.389,343.811 393.096,345.55 395.798,347.322 398.567,349.087 401.343,350.871 404.051,352.579 406.682,354.324 409.31,356.024 412.027,357.744 414.75,359.543 417.52,361.317 420.226,363.074 422.905,364.794 425.616,366.548 428.263,368.283 430.971,370.014 433.699,371.815 436.443,373.557 439.155,375.317 441.875,377.097 444.595,378.848 447.233,380.573 449.881,382.275 452.591,384.047 455.383,385.839 458.137,387.616 460.892,389.394 463.559,391.163 466.132,392.832 468.797,394.538 471.558,396.31 474.253,398.088 477.014,399.895 479.764,401.677 482.444,403.427 485.151,405.134 487.843,406.866 490.522,408.623 493.236,410.366 495.932,412.164 498.647,413.942 501.329,415.619 504.013,417.374 506.766,419.168 509.488,420.904 512.165,422.66 514.827,424.455 517.523,426.156 520.227,427.92 522.946,429.666 525.667,431.441 528.429,433.229 531.056,435.009 533.725,436.679 536.452,438.449 539.192,440.24 541.918,441.981 544.624,443.745 547.325,445.53 549.965,447.253 552.626,448.936 555.359,450.71 558.1,452.467 560.775,454.209 563.512,455.977 566.231,457.731 568.938,459.501 571.65,461.308 574.307,462.97 576.954,464.684 579.699,466.476 582.439,468.271 585.169,470.002 587.867,471.788 590.609,473.534 593.288,475.308 595.963,476.96 598.664,478.74 601.417,480.51 604.143,482.281 606.857,484.0 609.531,485.737 612.237,487.463 614.913,489.236 617.635,490.976 620.38,492.713 623.129,494.485 625.809,496.21 628.457,497.905 631.193,499.688 633.917,501.452 636.62,503.177 639.296,504.941 642.008,506.647 644.752,508.416 647.471,510.147 650.168,511.916 652.861,513.654 655.566,515.365 658.311,517.13 661.044,518.913 663.752,520.662 666.418,522.4 669.119,524.115 671.849,525.862 674.583,527.602 677.272,529.371 680.009,531.083 682.736,532.801 685.492,534.569 688.285,536.318 691.034,538.001 693.734,539.726 696.581,541.422 699.372,543.155 702.157,544.812 704.993,546.445 707.775,548.099 710.63,549.686 713.51,551.266 716.341,552.829 719.268,554.245 722.221,555.673 725.318,556.912 728.435,558.049 731.635,558.946 734.96,559.597 738.386,560.0 742.002,559.999 745.245,559.669 747.626,559.178 749.376,558.686 750.987,558.07 752.821,557.224 754.917,556.027 757.308,554.236 759.718,551.979 761.789,549.512 763.596,546.883 765.203,544.179 766.773,541.375 768.421,538.557 770.193,535.801 772.184,533.177 774.493,530.755 777.048,528.678 779.571,527.132 781.867,526.102 784.03,525.41 786.345,524.942 789.213,524.78 792.483,524.9 795.752,525.12 799.007,525.233 802.221,525.111 805.212,524.755 807.8,524.206 810.061,523.523 812.393,522.587 815.022,521.207 817.775,519.342 820.359,517.151 822.687,514.782 824.779,512.263 826.723,509.641 828.524,506.921 830.179,504.131 831.764,501.258 833.248,498.318 834.633,495.355 835.938,492.37 837.143,489.325 838.29,486.256 839.336,483.223 840.371,480.152 841.329,477.076 842.272,473.999 843.179,470.842 844.069,467.678 844.918,464.522 845.773,461.421 846.554,458.324 847.303,455.177 848.076,452.039 848.771,448.894 849.485,445.714 850.151,442.532 850.799,439.351 851.426,436.18 851.997,433.011 852.548,429.838 853.09,426.665 853.642,423.465 854.159,420.267 854.653,417.084 855.173,413.929 855.656,410.76 856.152,407.557 856.669,404.37 857.134,401.168 857.618,397.967 858.089,394.793 858.534,391.601 859.027,388.418 859.477,385.238 859.946,382.1 860.388,378.926 860.868,375.725 861.33,372.558 861.78,369.359 862.255,366.133 862.668,362.952 863.129,359.772 863.566,356.567 864.017,353.375 864.476,350.189 864.91,347.019 865.364,343.812 865.833,340.607 866.244,337.425 866.74,334.243 867.169,331.057 867.593,327.895 868.058,324.682 868.496,321.485 868.912,318.314 869.385,315.11 869.794,311.973 870.198,308.791 870.642,305.544 871.084,302.353 871.507,299.155 871.93,295.971 872.327,292.786 872.759,289.573 873.199,286.372 873.593,283.189 874.003,280.022 874.393,276.835 874.809,273.603 875.191,270.399 875.585,267.207 875.982,263.999 876.327,260.755 876.759,257.538 877.116,254.377 877.473,251.195 877.835,248.01 878.174,244.834 878.519,241.635 878.897,238.369 879.213,235.121 879.575,231.952 879.906,228.774 880.228,225.629 880.544,222.442 880.899,219.185 881.211,215.97 881.534,212.793 881.807,209.608 882.089,206.443 882.345,203.226 882.579,199.966 882.819,196.735 883.06,193.537 883.281,190.316 883.508,187.103 883.734,183.882 883.971,180.672 884.136,177.47 884.382,174.207 884.593,170.929 884.794,167.677 885.01,164.433 885.235,161.205 885.442,157.977 885.67,154.762 885.91,151.544 886.164,148.286 886.47,145.053 886.886,141.824 887.493,138.589 888.313,135.348 889.361,132.162 890.756,129.041 892.553,126.095 894.445,123.75 896.155,122.126 897.728,120.921 899.445,119.867 901.588,118.855 904.385,118.04 907.637,117.576 910.852,117.537 914.063,117.756 917.262,118.129 920.47,118.508 923.73,118.736 926.97,118.622 930.015,118.092 932.691,117.133 934.684,116.043 936.279,114.847 937.829,113.134 939.293,110.697 940.411,107.639 941.008,104.335 941.091,101.054 940.781,97.823 940.227,94.652 939.503,91.524 938.684,88.395 937.82,85.289 936.932,82.194 936.061,79.097 935.208,76.002 934.353,72.895 933.499,69.762 932.658,66.628 931.769,63.487 930.817,60.37 929.724,57.278 928.477,54.235 927.003,51.265 925.239,48.433 923.212,45.939 921.088,43.948 918.986,42.454 916.716,41.291 914.179,40.433 911.554,40.008 908.986,40.0 906.551,40.336 904.06,41.07 901.352,42.328 898.623,44.098 896.08,46.201 893.755,48.51 891.603,50.951 889.582,53.481 887.682,56.091 885.885,58.738 884.163,61.449 882.499,64.192 880.877,66.962 879.285,69.773 877.73,72.569 876.193,75.374 874.65,78.21 873.11,81.047 871.598,83.885 870.074,86.723 868.55,89.57 867.048,92.383 865.526,95.22 863.999,98.084 862.469,100.946 860.958,103.784 859.459,106.596 857.921,109.456 856.428,112.292 854.892,115.117 853.382,117.98 851.846,120.804 850.303,123.687 848.76,126.529 847.224,129.326 845.672,132.13 844.086,134.946 842.495,137.756 840.906,140.528 839.296,143.299 837.661,146.082 836.007,148.863 834.357,151.616 832.671,154.374 830.954,157.173 829.25,159.926 827.587,162.599 825.892,165.316 824.151,168.062 822.37,170.822 820.573,173.538 818.7,176.195 816.721,178.76 814.587,181.224 812.236,183.619 809.729,185.854 807.052,187.924 804.35,189.734 801.766,191.241 799.34,192.48 797.013,193.517 794.519,194.484 791.764,195.376 788.769,196.136 785.588,196.735 782.318,197.146 779.053,197.363 775.805,197.405 772.569,197.297 769.346,197.076 766.123,196.809 762.926,196.546 759.796,196.322 756.716,196.176 753.624,196.118 750.543,196.176 747.466,196.328 744.438,196.592 741.47,196.967 738.473,197.468 735.459,198.095 732.499,198.843 729.603,199.693 726.705,200.651 723.779,201.667 720.851,202.679 717.725,203.722 714.529,204.74 711.467,205.641 708.393,206.457 705.309,207.168 702.245,207.755 699.163,208.22 696.071,208.556 693.067,208.751 690.139,208.822 687.1,208.771 684.08,208.593 681.16,208.295 678.165,207.854 675.09,207.257 672.1,206.534 669.225,205.706 666.272,204.719 663.278,203.568 660.305,202.271 657.386,200.845 654.579,199.323 651.844,197.688 649.126,195.914 646.467,194.037 643.849,192.084 641.28,190.107 638.748,188.15 636.184,186.196 633.56,184.242 630.917,182.354 628.241,180.537 625.548,178.833 622.767,177.225 619.887,175.718 616.952,174.342 613.956,173.096 610.893,171.989 607.788,171.027 604.604,170.205 601.411,169.548 598.393,169.067 595.329,168.726 592.28,168.528 589.285,168.456 586.315,168.519 583.368,168.697 580.476,168.995 577.522,169.422 574.554,169.986 571.575,170.68 568.526,171.521 565.455,172.502 562.406,173.598 559.396,174.77 556.339,176.02 553.399,177.226 550.468,178.397 547.588,179.503 544.807,180.499 542.083,181.391 539.317,182.205 536.464,182.94 533.599,183.571 530.495,184.125 527.32,184.564 524.123,184.886 520.797,185.075 517.511,185.148 514.219,185.089 510.935,184.914 507.739,184.634 504.495,184.245 501.291,183.752 498.16,183.213 495.016,182.559 491.866,181.878 488.744,181.177 485.555,180.441 482.433,179.708 479.339,178.915 476.236,178.135 473.142,177.25 470.056,176.354 466.938,175.359 463.873,174.409 460.802,173.357 457.674,172.262 454.627,171.142 451.628,170.031 448.579,168.829 445.596,167.633 442.552,166.374 439.635,165.119 436.757,163.907 433.818,162.61 430.905,161.274 428.095,160.016 425.261,158.654 422.355,157.265 419.438,155.846 416.579,154.393 413.817,152.996 410.943,151.49 408.156,149.976 405.355,148.5 402.477,146.959 399.637,145.345 396.867,143.788 394.081,142.208 391.341,140.638 388.578,138.995 385.835,137.387 383.061,135.741 380.273,134.098 377.565,132.425 374.85,130.772 371.97,129.018 369.26,127.379 366.583,125.724 363.838,124.017 361.074,122.264 358.274,120.548 355.633,118.862 352.892,117.135 350.167,115.405 347.464,113.712 344.81,111.95 341.991,110.165 339.324,108.4 336.599,106.709 333.834,104.898 331.205,103.192 328.526,101.435 325.773,99.657 323.099,97.886 320.41,96.167 317.773,94.445 315.06,92.681 312.432,91.022 309.63,89.18 306.896,87.407 304.126,85.619 301.502,83.919 298.8,82.146 296.033,80.355 293.281,78.571 290.621,76.837 287.869,75.074 285.169,73.363 282.41,71.586 279.695,69.859 276.973,68.132 274.212,66.396 271.431,64.652 268.618,62.901 265.837,61.192 263.067,59.522 260.258,57.888 257.444,56.341 254.522,54.889 251.476,53.582 248.321,52.462 245.103,51.583 241.772,50.961 238.598,50.646 235.691,50.598 233.319,50.734 231.042,51.01 228.416,51.536 225.23,52.476 222.093,53.725 218.995,55.294 216.218,56.995 213.588,58.876 211.092,60.904 208.668,63.115 206.431,65.349 204.245,67.698 202.156,70.095 200.114,72.583 198.151,75.128 196.194,77.765 194.279,80.486 192.443,83.215 190.58,85.996 188.766,88.712 186.982,91.347 185.071,94.106 183.107,96.795 181.163,99.326 179.063,101.848 176.829,104.285 174.439,106.597 171.888,108.717 169.084,110.609 166.03,112.121 162.653,113.077 159.223,113.287 156.381,112.831 154.141,111.985 152.339,110.911 150.807,109.632 149.399,108.01 148.146,105.954 147.069,103.223 146.228,100.024 145.516,96.863 144.711,93.772 143.743,90.887 142.671,88.406 141.502,86.225 140.126,84.072 138.551,82.017 136.597,79.925 134.291,77.89 131.613,75.877 128.896,74.053 126.347,72.455 123.661,70.837 121.036,69.247 118.471,67.667 115.897,66.06 113.233,64.366 110.451,62.597 107.903,61.018 104.99,59.236 102.173,57.595 99.234,56.059 96.182,54.702 93.082,53.604 89.756,52.818 86.294,52.489 83.386,52.594 80.926,52.987 78.637,53.595 76.438,54.436 73.943,55.738 71.589,57.373 69.173,59.494 66.945,61.975 65.063,64.604 63.402,67.533 62.021,70.683 60.961,73.802 60.135,76.997 59.543,80.154 59.138,83.539 58.939,86.952 58.909,90.397 58.997,92.89 59.265,96.366 59.704,99.82 60.254,103.063 60.936,106.184 61.758,109.394 62.738,112.581 63.333,114.516 64.836,118.008 66.026,120.902 67.583,124.126 68.848,126.601 70.662,129.799 72.51,132.775 74.256,135.387 75.608,137.307 77.57,139.916 79.873,142.768 82.106,145.374 84.066,147.535 86.094,149.668 88.188,151.772 90.93,154.386 93.437,156.654 96.127,158.979 98.325,160.802 100.734,162.734 103.318,164.735 106.112,166.819 108.904,168.827 111.819,170.848 113.848,172.222 116.368,173.888 119.367,175.834 122.478,177.825 125.211,179.555 127.529,181.646" fill="none" stroke="white" stroke-width="4"
            stroke-linejoin="round" stroke-linecap="round"/>
</svg>
