<?xml version="1.0" encoding="utf-8"?>
<svg xmlns="http://www.w3.org/2000/svg" width="1000" height="600">
  <polyline points="427.232,346.882 428.336,344.807 429.453,342.78 430.594,340.744 431.739,338.701 432.911,336.679 434.095,334.642 435.292,332.604 436.483,330.594 437.673,328.577 438.876,326.559 440.064,324.553 441.274,322.525 442.468,320.508 443.669,318.515 444.882,316.483 446.082,314.477 447.271,312.499 448.462,310.487 449.673,308.485 450.884,306.461 452.109,304.438 453.286,302.438 454.477,300.457 455.698,298.416 456.91,296.378 458.084,294.385 459.273,292.381 460.496,290.349 461.682,288.32 462.858,286.308 464.071,284.313 465.235,282.305 466.443,280.254 467.653,278.208 468.799,276.235 469.982,274.227 471.187,272.171 472.396,270.124 473.591,268.096 474.78,266.08 475.981,264.039 477.191,261.985 478.403,259.941 479.602,257.91 480.792,255.912 481.987,253.895 483.213,251.84 484.432,249.801 485.648,247.786 486.876,245.775 488.112,243.784 489.403,241.804 490.772,239.861 492.245,237.998 493.898,236.216 495.819,234.606 497.979,233.334 500.033,232.569 501.797,232.224 503.416,232.154 504.997,232.304 506.666,232.687 508.626,233.466 510.684,234.693 512.504,236.198 514.154,237.858 515.71,239.61 517.224,241.362 518.767,243.098 520.418,244.813 522.116,246.376 523.804,247.738 525.556,248.954 527.376,250.031 529.268,250.951 531.292,251.731 533.423,252.35 535.652,252.81 538.03,253.116 540.445,253.248 542.737,253.266 544.946,253.284 547.153,253.362 549.358,253.521 551.541,253.803 553.707,254.215 555.838,254.769 557.925,255.463 559.978,256.318 561.989,257.305 563.935,258.437 565.835,259.724 567.659,261.136 569.385,262.663 571.036,264.324 572.635,266.124 574.097,267.996 575.44,269.928 576.681,271.963 577.803,274.065 578.801,276.221 579.676,278.411 580.437,280.64 581.099,282.916 581.66,285.252 582.119,287.588 582.495,289.921 582.768,292.264 582.964,294.612 583.078,296.969 583.114,299.325 583.078,301.671 582.961,303.986 582.782,306.313 582.536,308.63 582.203,310.949 581.831,313.228 581.364,315.488 580.868,317.737 580.301,319.946 579.672,322.176 579.004,324.361 578.272,326.527 577.478,328.716 576.645,330.837 575.771,332.925 574.826,335.026 573.838,337.098 572.814,339.15 571.745,341.217 570.636,343.273 569.487,345.307 568.311,347.362 567.123,349.385 565.942,351.362 564.741,353.377 563.533,355.374 562.336,357.35 561.094,359.373 559.855,361.407 558.634,363.399 557.413,365.388 556.184,367.394 554.953,369.394 553.729,371.381 552.508,373.35 551.293,375.318 550.065,377.3 548.838,379.289 547.604,381.277 546.364,383.279 545.127,385.285 543.892,387.299 542.659,389.309 541.439,391.304 540.225,393.282 539.022,395.26 537.815,397.284 536.622,399.346 535.483,401.42 534.411,403.513 533.415,405.642 532.489,407.845 531.659,410.102 530.954,412.357 530.363,414.625 529.88,416.936 529.525,419.207 529.288,421.454 529.164,423.73 529.154,425.964 529.252,428.186 529.462,430.389 529.782,432.584 530.216,434.757 530.778,436.924 531.444,439.02 532.237,441.097 533.143,443.159 534.129,445.173 535.219,447.267 536.315,449.345 537.394,451.428 538.447,453.573 539.416,455.734 540.253,457.857 540.969,459.997 541.551,462.14 541.997,464.295 542.312,466.446 542.495,468.609 542.549,470.78 542.476,472.902 542.27,475.091 541.928,477.281 541.455,479.41 540.849,481.527 540.113,483.622 539.231,485.709 538.205,487.78 537.042,489.803 535.759,491.776 534.368,493.715 532.928,495.634 531.532,497.516 530.198,499.381 528.941,501.227 527.771,503.083 526.686,504.987 525.707,506.924 524.834,508.891 524.07,510.892 523.404,512.957 522.832,515.112 522.384,517.292 522.057,519.52 521.85,521.823 521.773,524.195 521.834,526.584 522.031,528.944 522.36,531.284 522.827,533.599 523.444,535.912 524.219,538.214 525.144,540.465 526.211,542.636 527.432,544.745 528.81,546.785 530.315,548.713 531.938,550.523 533.697,552.235 535.586,553.826 537.58,555.275 539.686,556.572 541.899,557.69 544.206,558.616 546.592,559.327 549.022,559.795 551.481,560.0 553.968,559.919 556.398,559.538 558.728,558.855 560.919,557.883 562.934,556.643 564.693,555.201 566.147,553.65 567.356,552.0 568.35,550.284 569.192,548.466 569.911,546.511 570.506,544.358 570.965,541.987 571.269,539.578 571.439,537.198 571.505,534.88 571.498,532.61 571.455,530.379 571.411,528.13 571.395,525.844 571.419,523.609 571.49,521.363 571.607,519.072 571.771,516.736 571.974,514.413 572.209,512.128 572.496,509.805 572.8,507.485 573.126,505.165 573.478,502.839 573.85,500.518 574.218,498.191 574.581,495.88 574.949,493.552 575.311,491.234 575.666,488.932 576.013,486.616 576.335,484.304 576.643,482.019 576.932,479.728 577.206,477.413 577.453,475.127 577.67,472.846 577.86,470.544 578.016,468.233 578.148,465.937 578.246,463.628 578.313,461.325 578.374,459.018 578.397,456.658 578.406,454.305 578.388,451.963 578.369,449.64 578.319,447.306 578.258,444.943 578.2,442.611 578.113,440.26 578.041,437.918 577.956,435.6 577.877,433.286 577.798,430.983 577.718,428.661 577.636,426.332 577.558,423.992 577.474,421.636 577.393,419.283 577.311,416.922 577.235,414.566 577.164,412.213 577.103,409.842 577.055,407.475 577.022,405.125 577.005,402.769 577.018,400.44 577.044,398.132 577.113,395.784 577.185,393.443 577.31,391.097 577.447,388.736 577.614,386.372 577.81,384.03 578.022,381.72 578.264,379.395 578.538,377.08 578.828,374.802 579.139,372.545 579.496,370.34 579.912,368.085 580.381,365.775 580.89,363.576 581.447,361.358 582.049,359.06 582.651,356.834 583.292,354.632 583.962,352.329 584.653,350.052 585.344,347.865 586.059,345.627 586.782,343.371 587.506,341.169 588.222,338.931 588.956,336.681 589.686,334.456 590.402,332.231 591.106,330.012 591.822,327.811 592.531,325.548 593.229,323.303 593.912,321.082 594.572,318.8 595.208,316.583 595.817,314.293 596.427,312.016 596.956,309.778 597.509,307.53 597.994,305.25 598.491,302.982 598.916,300.685 599.35,298.382 599.719,296.087 600.083,293.79 600.39,291.489 600.696,289.184 600.95,286.89 601.196,284.577 601.395,282.247 601.576,279.923 601.71,277.647 601.82,275.338 601.899,273.035 601.933,270.701 601.95,268.347 601.918,266.057 601.878,263.737 601.794,261.425 601.666,259.111 601.519,256.802 601.338,254.497 601.118,252.155 600.871,249.868 600.608,247.546 600.29,245.231 599.948,242.978 599.608,240.66 599.194,238.343 598.77,236.06 598.35,233.764 597.849,231.487 597.375,229.217 596.86,226.916 596.291,224.644 595.733,222.357 595.132,220.094 594.538,217.821 593.872,215.55 593.229,213.328 592.553,211.063 591.82,208.82 591.129,206.618 590.363,204.382 589.621,202.158 588.835,199.972 588.032,197.76 587.239,195.571 586.415,193.356 585.583,191.162 584.785,189.009 583.956,186.775 583.111,184.54 582.303,182.383 581.482,180.198 580.645,177.979 579.843,175.818 579.013,173.617 578.176,171.375 577.372,169.228 576.556,167.029 575.721,164.825 574.895,162.637 574.068,160.427 573.264,158.245 572.424,156.088 571.612,153.869 570.769,151.64 569.949,149.463 569.131,147.265 568.292,145.065 567.456,142.872 566.634,140.661 565.786,138.477 564.932,136.286 564.049,134.087 563.171,131.896 562.281,129.749 561.349,127.594 560.415,125.412 559.471,123.274 558.471,121.119 557.48,118.957 556.477,116.828 555.456,114.717 554.43,112.597 553.342,110.453 552.261,108.315 551.177,106.222 550.067,104.123 548.947,102.038 547.81,99.974 546.651,97.886 545.475,95.794 544.303,93.732 543.127,91.678 541.923,89.59 540.722,87.528 539.513,85.491 538.272,83.471 536.989,81.466 535.644,79.497 534.228,77.599 532.687,75.788 530.959,74.08 528.994,72.555 526.69,71.329 524.407,70.645 522.654,70.445 521.297,70.482 519.999,70.675 518.419,71.129 516.381,72.093 514.326,73.535 512.548,75.19 510.969,76.954 509.497,78.747 508.035,80.556 506.601,82.269 505.172,83.815 503.664,85.241 502.012,86.546 500.225,87.681 498.308,88.584 496.254,89.214 494.091,89.532 491.926,89.499 489.793,89.11 487.746,88.379 485.878,87.344 484.24,86.078 482.843,84.637 481.662,83.043 480.669,81.297 479.844,79.379 479.173,77.271 478.663,74.996 478.321,72.657 478.113,70.319 477.966,67.974 477.808,65.646 477.581,63.313 477.248,61.061 476.798,58.959 476.224,56.956 475.513,55.007 474.63,53.053 473.559,51.124 472.267,49.21 470.732,47.343 469.015,45.615 467.173,44.083 465.225,42.755 463.146,41.62 460.958,40.731 458.593,40.144 456.078,40.0 454.252,40.245 453.075,40.592 451.353,41.37 449.199,42.615 447.542,43.566 446.291,44.182 444.628,44.796 442.411,45.285 440.034,45.333 437.744,44.882 435.548,44.073 433.413,43.044 431.241,41.975 429.047,41.036 426.794,40.342 424.422,40.041 421.973,40.283 419.854,41.015 418.333,41.924 417.008,43.11 415.766,44.774 414.757,46.815 414.025,49.066 413.528,51.375 413.213,53.689 413.022,56.015 412.903,58.361 412.82,60.688 412.752,63.002 412.691,65.315 412.634,67.659 412.577,70.014 412.522,72.354 412.464,74.676 412.41,76.999 412.348,79.366 412.294,81.723 412.235,84.058 412.171,86.375 412.12,88.679 412.06,91.039 412.0,93.388 411.944,95.705 411.878,98.041 411.821,100.356 411.767,102.714 411.707,105.045 411.652,107.39 411.595,109.744 411.549,112.066 411.471,114.375 411.42,116.727 411.367,119.03 411.304,121.379 411.254,123.752 411.198,126.095 411.15,128.419 411.08,130.731 411.036,133.121 410.982,135.427 410.917,137.787 410.862,140.108 410.807,142.467 410.762,144.819 410.685,147.149 410.63,149.503 410.57,151.796 410.519,154.162 410.455,156.494 410.389,158.851 410.33,161.174 410.261,163.515 410.194,165.857 410.134,168.221 410.074,170.568 410.007,172.903 409.951,175.218 409.884,177.556 409.827,179.916 409.768,182.256 409.699,184.598 409.626,186.937 409.574,189.255 409.492,191.6 409.452,193.943 409.361,196.285 409.298,198.644 409.213,200.984 409.15,203.312 409.075,205.677 409.012,208.028 408.948,210.356 408.865,212.676 408.794,215.0 408.717,217.355 408.631,219.678 408.568,222.03 408.489,224.322 408.398,226.639 408.327,229.069 408.255,231.347 408.182,233.686 408.081,236.096 408.015,238.392 407.943,240.722 407.839,243.071 407.771,245.449 407.68,247.803 407.626,250.103 407.528,252.437 407.443,254.776 407.385,257.062 407.28,259.477 407.195,261.838 407.113,264.134 407.045,266.484 406.959,268.778 406.875,271.17 406.791,273.487 406.699,275.846 406.605,278.141 406.553,280.499 406.447,282.864 406.394,285.209 406.304,287.541 406.222,289.92 406.159,292.216 406.049,294.549 405.97,296.903 405.873,299.223 405.787,301.556 405.717,303.936 405.627,306.193 405.555,308.6 405.451,310.924 405.381,313.273 405.28,315.626 405.191,317.955 405.104,320.287 405.018,322.642 404.928,325.013 404.813,327.358 404.746,329.603 404.659,332.005 404.541,334.393 404.468,336.66 404.365,339.005 404.277,341.371 404.16,343.724 404.081,346.114 403.99,348.416 403.849,350.721 403.79,353.129 403.639,355.39 403.567,357.714 403.453,360.163 403.343,362.436 403.233,364.785 403.153,367.164 403.033,369.494 402.962,371.708 402.816,374.121 402.711,376.508 402.584,378.817 402.512,381.152 402.363,383.482 402.284,385.827 402.202,388.178 402.086,390.523 401.968,392.867 401.871,395.201 401.791,397.648 401.659,399.886 401.557,402.189 401.478,404.591 401.376,406.939 401.236,409.242 401.154,411.558 401.017,413.941 400.928,416.31 400.807,418.591 400.716,420.919 400.605,423.334 400.5,425.625 400.36,427.932 400.288,430.359 400.162,432.735 400.06,434.997 399.948,437.319 399.862,439.698 399.726,442.075 399.645,444.421 399.538,446.733 399.437,449.138 399.324,451.522 399.193,453.916 399.095,456.197 398.997,458.624 398.873,460.951 398.785,463.35 398.682,465.728 398.602,468.084 398.485,470.385 398.4,472.81 398.303,475.186 398.206,477.527 398.102,479.922 398.05,482.235 398.078,484.588 398.257,486.99 398.682,489.436 399.455,491.727 400.605,493.641 401.917,494.964 403.31,495.83 404.832,496.39 406.707,496.601 408.895,496.38 411.137,495.608 413.314,494.328 415.24,492.809 416.94,491.026 418.407,489.29 419.779,487.408 421.127,485.526 422.38,483.535 423.539,481.484 424.706,479.439 425.662,477.373 426.619,475.115 427.541,472.865 428.197,470.656 428.776,468.274 429.184,466.137 429.517,464.007 429.76,461.787 429.884,459.513 429.862,457.218 429.767,455.235 429.565,453.162 429.213,450.897 428.799,448.719 428.25,446.52 427.667,444.367 427.032,442.39 426.181,439.941 425.325,437.645 424.518,435.453 423.713,433.383 422.909,431.218 422.054,428.946 421.22,426.772 420.414,424.591 419.635,422.422 418.884,420.271 418.111,417.778 417.481,415.692 416.943,413.665 416.391,411.375 415.928,409.141 415.489,406.884 415.148,404.627 414.832,402.48 414.626,400.14 414.442,397.819 414.326,395.521 414.311,393.384 414.305,391.043 414.357,388.847 414.498,386.879 414.711,384.467 415.013,381.869 415.297,379.699 415.711,377.507 415.891,375.841 416.456,373.314 417.087,370.817 417.726,368.587 418.456,366.262 419.142,364.265 419.793,362.486 420.705,360.153 421.806,357.5 422.649,355.574 423.461,353.793 424.559,351.504 425.243,350.119 427.232,346.882" fill="none" stroke="white" stroke-width="4"
            stroke-linejoin="round" stroke-linecap="round"/>
</svg>
