<?xml version="1.0" encoding="utf-8"?>
<svg xmlns="http://www.w3.org/2000/svg" width="1000" height="600">
  <polyline points="427.258,346.891 428.35,344.864 429.478,342.789 430.609,340.756 431.755,338.77 432.916,336.735 434.114,334.715 435.294,332.687 436.516,330.654 437.691,328.624 438.896,326.62 440.079,324.625 441.287,322.585 442.502,320.597 443.711,318.605 444.907,316.57 446.125,314.563 447.324,312.544 448.543,310.542 449.749,308.51 450.962,306.514 452.18,304.472 453.382,302.498 454.567,300.528 455.768,298.499 456.981,296.554 458.208,294.501 459.451,292.442 460.624,290.495 461.822,288.51 463.035,286.458 464.251,284.419 465.465,282.389 466.64,280.42 467.86,278.425 469.051,276.392 470.272,274.376 471.467,272.372 472.651,270.333 473.879,268.286 475.082,266.253 476.257,264.25 477.455,262.233 478.65,260.231 479.848,258.179 481.038,256.123 482.276,254.058 483.464,252.019 484.665,249.99 485.866,247.952 487.086,245.904 488.307,243.908 489.571,241.92 490.914,239.951 492.333,238.073 493.958,236.272 495.818,234.649 497.947,233.35 499.986,232.546 501.743,232.17 503.374,232.081 504.987,232.211 506.699,232.598 508.665,233.403 510.68,234.646 512.493,236.179 514.135,237.85 515.686,239.616 517.206,241.373 518.751,243.116 520.376,244.817 522.052,246.383 523.728,247.76 525.481,248.998 527.302,250.082 529.224,251.024 531.268,251.808 533.392,252.414 535.643,252.852 538.009,253.132 540.366,253.241 542.676,253.265 544.939,253.291 547.164,253.37 549.325,253.54 551.503,253.814 553.64,254.226 555.774,254.778 557.881,255.49 559.915,256.326 561.927,257.309 563.894,258.453 565.791,259.728 567.596,261.127 569.334,262.665 570.989,264.318 572.563,266.088 574.028,267.946 575.379,269.889 576.626,271.921 577.756,274.033 578.768,276.219 579.641,278.417 580.403,280.638 581.071,282.95 581.633,285.282 582.095,287.599 582.469,289.926 582.747,292.256 582.942,294.62 583.06,296.973 583.097,299.309 583.067,301.656 582.957,304.009 582.78,306.334 582.545,308.601 582.217,310.934 581.829,313.256 581.387,315.509 580.883,317.742 580.309,319.998 579.682,322.206 579.008,324.372 578.288,326.529 577.495,328.705 576.654,330.83 575.78,332.934 574.838,335.04 573.842,337.122 572.821,339.174 571.744,341.254 570.61,343.332 569.493,345.352 568.329,347.353 567.144,349.384 565.934,351.41 564.72,353.415 563.507,355.424 562.322,357.388 561.092,359.402 559.854,361.428 558.614,363.433 557.377,365.438 556.155,367.434 554.93,369.405 553.708,371.384 552.484,373.357 551.241,375.363 549.989,377.382 548.759,379.365 547.546,381.322 546.313,383.304 545.092,385.283 543.876,387.26 542.648,389.264 541.4,391.297 540.151,393.337 538.936,395.332 537.769,397.291 536.604,399.302 535.455,401.386 534.378,403.487 533.366,405.648 532.456,407.81 531.637,410.032 530.918,412.315 530.304,414.667 529.828,416.943 529.474,419.198 529.237,421.444 529.113,423.721 529.102,425.952 529.201,428.158 529.413,430.38 529.733,432.582 530.171,434.758 530.725,436.904 531.397,439.004 532.195,441.1 533.093,443.138 534.103,445.206 535.18,447.277 536.263,449.333 537.347,451.426 538.405,453.576 539.355,455.702 540.19,457.818 540.914,459.977 541.495,462.12 541.946,464.298 542.262,466.453 542.444,468.587 542.501,470.767 542.43,472.915 542.23,475.072 541.893,477.262 541.412,479.429 540.809,481.54 540.052,483.678 539.185,485.724 538.148,487.814 536.959,489.862 535.677,491.836 534.321,493.73 532.881,495.654 531.51,497.502 530.152,499.397 528.895,501.232 527.711,503.112 526.641,504.988 525.662,506.924 524.767,508.944 524.012,510.934 523.355,512.968 522.797,515.075 522.343,517.271 522.006,519.573 521.803,521.865 521.727,524.213 521.787,526.58 521.986,528.953 522.319,531.307 522.781,533.595 523.402,535.92 524.182,538.231 525.1,540.46 526.172,542.632 527.408,544.761 528.778,546.78 530.281,548.701 531.906,550.508 533.666,552.213 535.566,553.812 537.541,555.247 539.645,556.544 541.846,557.661 544.142,558.591 546.526,559.308 548.972,559.79 551.471,560.0 553.963,559.919 556.358,559.542 558.683,558.859 560.894,557.875 562.918,556.625 564.668,555.184 566.105,553.65 567.297,552.026 568.307,550.29 569.163,548.448 569.871,546.514 570.461,544.372 570.916,542.006 571.217,539.574 571.384,537.205 571.446,534.933 571.436,532.666 571.385,530.374 571.342,528.106 571.318,525.857 571.341,523.588 571.409,521.304 571.514,519.034 571.68,516.748 571.879,514.414 572.112,512.135 572.386,509.791 572.698,507.462 573.031,505.14 573.38,502.809 573.727,500.519 574.091,498.212 574.451,495.899 574.813,493.56 575.176,491.265 575.523,488.946 575.867,486.633 576.218,484.289 576.518,481.946 576.802,479.712 577.086,477.422 577.343,475.098 577.559,472.813 577.746,470.55 577.894,468.273 578.03,465.95 578.123,463.616 578.183,461.312 578.238,458.978 578.245,456.664 578.267,454.281 578.247,451.988 578.209,449.627 578.173,447.223 578.119,444.944 578.051,442.655 577.995,440.253 577.9,437.928 577.827,435.618 577.742,433.266 577.668,430.926 577.597,428.617 577.502,426.277 577.426,423.911 577.332,421.52 577.269,419.129 577.181,416.835 577.121,414.542 577.045,412.2 577.006,409.889 576.948,407.556 576.932,405.203 576.921,402.848 576.936,400.471 576.977,398.132 577.051,395.831 577.138,393.469 577.253,391.105 577.408,388.755 577.597,386.352 577.783,384.04 577.989,381.719 578.231,379.423 578.499,377.103 578.791,374.791 579.101,372.57 579.45,370.345 579.858,368.15 580.349,365.789 580.837,363.611 581.402,361.353 582.022,359.057 582.601,356.845 583.234,354.603 583.907,352.331 584.607,350.06 585.3,347.836 586.003,345.646 586.747,343.395 587.468,341.153 588.192,338.975 588.915,336.734 589.641,334.535 590.403,332.247 591.105,330.028 591.826,327.831 592.527,325.573 593.249,323.286 593.905,321.115 594.569,318.856 595.215,316.571 595.826,314.329 596.402,312.108 596.974,309.795 597.518,307.522 598.011,305.243 598.492,302.976 598.953,300.694 599.341,298.367 599.746,296.125 600.086,293.842 600.439,291.481 600.699,289.183 600.992,286.845 601.224,284.6 601.432,282.249 601.592,279.959 601.744,277.644 601.847,275.305 601.92,273.044 601.957,270.696 601.978,268.41 601.94,266.09 601.879,263.754 601.79,261.398 601.668,259.067 601.509,256.828 601.328,254.484 601.105,252.143 600.847,249.812 600.618,247.549 600.292,245.243 599.935,242.898 599.603,240.686 599.207,238.359 598.802,236.04 598.354,233.8 597.87,231.482 597.414,229.174 596.856,226.911 596.351,224.615 595.747,222.346 595.158,220.002 594.55,217.815 593.907,215.59 593.252,213.279 592.533,211.007 591.856,208.795 591.148,206.597 590.369,204.389 589.586,202.058 588.82,199.947 588.053,197.788 587.229,195.583 586.402,193.359 585.556,191.137 584.767,188.972 583.919,186.727 583.098,184.567 582.27,182.313 581.436,180.176 580.662,178.042 579.773,175.759 578.999,173.538 578.167,171.437 577.333,169.212 576.495,167.021 575.691,164.837 574.854,162.576 573.99,160.34 573.238,158.259 572.378,156.049 571.526,153.796 570.752,151.661 569.906,149.492 569.088,147.277 568.259,145.035 567.391,142.86 566.617,140.724 565.73,138.47 564.899,136.328 563.982,134.096 563.123,131.917 562.221,129.742 561.313,127.596 560.328,125.396 559.368,123.213 558.402,121.104 557.406,118.954 556.376,116.812 555.377,114.686 554.295,112.582 553.278,110.48 552.148,108.359 551.059,106.223 549.944,104.129 548.797,102.06 547.657,99.968 546.516,97.884 545.32,95.818 544.166,93.774 542.983,91.714 541.781,89.639 540.611,87.595 539.386,85.571 538.148,83.537 536.869,81.529 535.505,79.527 534.099,77.623 532.572,75.818 530.865,74.114 528.904,72.568 526.6,71.328 524.352,70.637 522.583,70.43 521.236,70.443 519.927,70.641 518.33,71.107 516.298,72.079 514.271,73.516 512.501,75.171 510.93,76.951 509.469,78.781 508.03,80.597 506.613,82.292 505.167,83.834 503.65,85.269 501.994,86.58 500.202,87.717 498.283,88.617 496.192,89.259 494.046,89.57 491.909,89.536 489.774,89.154 487.708,88.422 485.821,87.388 484.161,86.118 482.762,84.671 481.577,83.091 480.569,81.315 479.732,79.37 479.074,77.233 478.572,74.97 478.247,72.647 478.059,70.316 477.913,67.973 477.76,65.66 477.544,63.338 477.231,61.089 476.802,58.948 476.233,56.929 475.526,54.959 474.644,53.01 473.563,51.094 472.255,49.183 470.687,47.319 468.986,45.62 467.141,44.089 465.202,42.765 463.129,41.63 460.931,40.734 458.549,40.142 456.027,40.0 454.232,40.239 453.05,40.586 451.31,41.372 449.169,42.613 447.506,43.563 446.248,44.182 444.574,44.803 442.346,45.297 439.98,45.341 437.698,44.877 435.504,44.061 433.349,43.024 431.218,41.973 429.032,41.036 426.738,40.33 424.37,40.032 421.933,40.277 419.826,41.003 418.295,41.916 416.976,43.089 415.7,44.781 414.68,46.826 413.962,49.055 413.475,51.345 413.159,53.698 412.966,56.013 412.848,58.353 412.762,60.718 412.691,63.042 412.629,65.326 412.565,67.675 412.503,70.025 412.447,72.32 412.382,74.66 412.318,77.014 412.266,79.386 412.198,81.699 412.14,84.009 412.078,86.366 412.025,88.687 411.957,91.035 411.907,93.326 411.836,95.696 411.773,98.097 411.705,100.417 411.646,102.791 411.576,105.124 411.527,107.39 411.465,109.719 411.4,112.111 411.347,114.425 411.282,116.734 411.205,119.101 411.179,121.393 411.105,123.764 411.05,126.126 411.005,128.357 410.933,130.711 410.885,133.079 410.831,135.441 410.735,137.795 410.729,140.146 410.638,142.501 410.58,144.772 410.528,147.132 410.482,149.534 410.393,151.87 410.351,154.118 410.291,156.512 410.21,158.904 410.168,161.206 410.095,163.491 410.022,165.879 409.976,168.156 409.875,170.442 409.849,172.906 409.747,175.263 409.71,177.623 409.635,179.985 409.554,182.342 409.468,184.61 409.437,186.972 409.338,189.322 409.299,191.615 409.214,193.938 409.145,196.293 409.06,198.723 408.992,201.112 408.942,203.447 408.845,205.739 408.775,208.091 408.692,210.423 408.647,212.711 408.555,214.997 408.488,217.398 408.434,219.749 408.323,222.029 408.292,224.375 408.196,226.742 408.11,229.062 408.038,231.403 407.979,233.725 407.907,236.078 407.804,238.415 407.713,240.733 407.655,243.063 407.553,245.383 407.488,247.809 407.418,250.125 407.331,252.507 407.258,254.803 407.217,257.114 407.108,259.489 407.031,261.751 406.957,264.2 406.886,266.598 406.822,268.911 406.756,271.206 406.646,273.554 406.61,275.879 406.519,278.168 406.401,280.566 406.348,282.936 406.27,285.28 406.223,287.622 406.144,289.904 405.977,292.243 405.972,294.554 405.837,296.978 405.766,299.366 405.722,301.696 405.626,304.081 405.476,306.357 405.444,308.758 405.348,311.163 405.287,313.307 405.137,315.676 405.088,318.039 404.992,320.384 404.929,322.746 404.818,325.039 404.753,327.395 404.595,329.725 404.542,332.088 404.456,334.486 404.346,336.843 404.31,339.096 404.166,341.476 404.082,343.791 403.979,346.189 403.913,348.503 403.83,350.882 403.732,353.143 403.629,355.479 403.543,357.775 403.437,360.218 403.358,362.531 403.238,364.831 403.114,367.221 403.036,369.494 402.953,371.936 402.792,374.322 402.709,376.538 402.621,378.873 402.492,381.283 402.427,383.563 402.238,385.972 402.176,388.362 402.078,390.6 401.968,392.953 401.843,395.393 401.77,397.769 401.614,399.968 401.522,402.273 401.411,404.675 401.301,407.042 401.189,409.369 401.068,411.684 400.951,414.023 400.833,416.418 400.754,418.733 400.669,421.137 400.551,423.389 400.406,425.693 400.308,428.101 400.246,430.462 400.085,432.699 400.007,435.05 399.877,437.439 399.813,439.796 399.666,442.227 399.566,444.568 399.456,446.873 399.389,449.265 399.251,451.572 399.136,453.928 399.07,456.308 398.932,458.653 398.847,461.023 398.743,463.413 398.651,465.809 398.538,468.167 398.449,470.515 398.343,472.84 398.222,475.227 398.157,477.604 398.077,479.95 398.022,482.311 398.054,484.686 398.229,487.053 398.64,489.449 399.418,491.753 400.59,493.658 401.918,494.98 403.277,495.829 404.818,496.373 406.676,496.595 408.85,496.358 411.149,495.558 413.26,494.321 415.216,492.761 416.885,491.076 418.421,489.298 419.871,487.416 421.239,485.454 422.499,483.514 423.658,481.553 424.811,479.402 425.805,477.334 426.716,475.168 427.544,472.877 428.251,470.553 428.805,468.302 429.257,465.968 429.568,463.756 429.774,461.563 429.868,459.412 429.883,457.152 429.768,454.996 429.571,453.001 429.267,450.853 428.838,448.649 428.325,446.461 427.711,444.261 427.028,442.072 426.218,439.718 425.409,437.548 424.58,435.37 423.73,433.209 422.883,430.998 421.992,428.716 421.192,426.597 420.399,424.514 419.556,422.214 418.785,419.949 418.11,417.85 417.524,415.765 416.873,413.321 416.356,411.148 415.884,408.912 415.486,406.746 415.15,404.571 414.867,402.313 414.655,400.218 414.503,398.045 414.393,395.513 414.35,393.287 414.351,390.805 414.443,388.579 414.566,386.714 414.79,384.336 415.055,382.093 415.38,379.9 415.756,377.753 416.227,375.437 416.763,373.128 417.414,370.673 418.096,368.37 418.751,366.346 419.428,364.416 420.307,362.093 421.172,359.943 422.065,357.843 423.051,355.636 423.87,353.874 424.92,351.696 425.559,350.407 427.258,346.891" fill="none" stroke="white" stroke-width="4"
            stroke-linejoin="round" stroke-linecap="round"/>
</svg>
