<?xml version="1.0" encoding="utf-8"?>
<svg xmlns="http://www.w3.org/2000/svg" width="1000" height="600">
  <polyline points="180.376,269.321 181.151,272.189 181.938,274.983 182.745,277.8 183.566,280.667 184.387,283.452 185.24,286.271 186.138,289.178 187.038,291.989 187.965,294.773 188.928,297.594 189.896,300.348 190.907,303.116 191.968,305.925 193.059,308.762 194.122,311.425 195.254,314.175 196.413,316.938 197.582,319.634 198.793,322.342 200.029,325.042 201.266,327.675 202.566,330.36 203.906,333.082 205.216,335.662 206.569,338.259 207.965,340.875 209.389,343.49 210.854,346.096 212.315,348.63 213.857,351.267 215.387,353.809 216.93,356.339 218.533,358.918 220.106,361.422 221.678,363.918 223.267,366.482 224.848,369.095 226.357,371.652 227.778,374.103 229.158,376.501 230.567,378.931 231.955,381.304 233.351,383.652 234.854,386.119 236.483,388.657 238.26,391.161 240.252,393.629 242.47,395.983 244.804,398.072 247.091,399.786 249.005,401.008 250.494,401.824 251.935,402.519 253.659,403.255 256.061,404.111 259.01,404.86 262.044,405.309 265.066,405.501 268.069,405.485 271.054,405.299 273.999,404.969 276.862,404.524 279.683,403.97 282.558,403.32 285.383,402.643 288.194,401.949 291.023,401.238 293.874,400.514 296.701,399.796 299.538,399.079 302.425,398.365 305.27,397.674 308.117,396.998 310.962,396.355 313.86,395.7 316.766,395.068 319.611,394.481 322.426,393.91 325.246,393.374 328.107,392.858 330.933,392.338 333.782,391.872 336.67,391.406 339.541,390.968 342.446,390.55 345.343,390.145 348.222,389.744 351.127,389.372 354.019,388.996 356.915,388.628 359.829,388.261 362.75,387.889 365.662,387.518 368.551,387.118 371.463,386.718 374.406,386.29 377.303,385.868 380.155,385.453 383.049,385.0 385.975,384.522 388.913,384.045 391.773,383.584 394.608,383.129 397.475,382.62 400.301,382.14 403.107,381.672 405.893,381.181 408.751,380.72 411.719,380.242 414.598,379.78 417.497,379.348 420.449,378.928 423.344,378.536 426.302,378.198 429.194,377.85 432.139,377.564 435.103,377.297 437.996,377.04 440.869,376.855 443.729,376.674 446.592,376.539 449.446,376.438 452.353,376.346 455.157,376.301 458.029,376.279 460.951,376.286 463.885,376.33 466.833,376.388 469.743,376.474 472.698,376.563 475.687,376.671 478.638,376.759 481.543,376.851 484.48,376.91 487.378,376.938 490.33,376.925 493.276,376.86 496.16,376.768 499.06,376.626 501.936,376.456 504.847,376.27 507.716,376.025 510.555,375.753 513.491,375.461 516.385,375.115 519.204,374.733 522.091,374.296 525.0,373.83 527.783,373.308 530.626,372.754 533.589,372.159 536.454,371.549 539.325,370.954 542.283,370.33 545.142,369.723 548.013,369.127 550.883,368.522 553.78,367.933 556.691,367.347 559.535,366.797 562.525,366.256 565.471,365.771 568.299,365.37 571.29,365.029 574.322,364.779 577.303,364.646 580.369,364.619 583.381,364.711 586.28,364.922 589.216,365.259 592.189,365.733 595.116,366.332 598.037,367.064 600.898,367.919 603.691,368.895 606.445,370.004 609.131,371.246 611.722,372.615 614.211,374.11 616.61,375.748 618.914,377.535 621.115,379.453 623.154,381.426 625.011,383.436 626.702,385.501 628.272,387.658 629.769,389.967 631.177,392.406 632.478,394.967 633.651,397.636 634.663,400.359 635.508,403.129 636.186,405.976 636.69,408.879 637.017,411.756 637.174,414.625 637.135,417.553 636.87,420.475 636.397,423.33 635.748,426.137 634.954,428.875 634.046,431.573 633.053,434.241 631.995,436.884 630.878,439.55 629.751,442.22 628.617,444.965 627.542,447.73 626.586,450.523 625.743,453.486 625.101,456.475 624.697,459.405 624.513,462.33 624.525,465.035 624.688,467.509 625.032,469.879 625.582,472.206 626.393,474.695 627.462,477.316 628.696,479.813 630.109,482.202 631.725,484.576 633.507,486.937 635.385,489.214 637.33,491.374 639.406,493.501 641.569,495.589 643.799,497.599 646.127,499.518 648.544,501.288 651.021,502.918 653.517,504.433 656.07,505.913 658.633,507.352 661.185,508.732 663.768,510.098 666.352,511.472 668.951,512.873 671.534,514.289 674.125,515.758 676.672,517.253 679.154,518.726 681.629,520.271 684.102,521.825 686.564,523.424 689.052,525.035 691.484,526.661 693.882,528.261 696.338,529.918 698.799,531.591 701.208,533.242 703.636,534.893 706.082,536.563 708.533,538.213 710.986,539.881 713.45,541.533 715.929,543.183 718.409,544.822 720.887,546.438 723.376,548.05 725.857,549.636 728.334,551.201 730.837,552.755 733.401,554.308 735.983,555.799 738.612,557.168 741.373,558.379 744.271,559.337 747.209,559.894 749.994,560.0 752.5,559.721 754.792,559.115 756.992,558.14 759.059,556.761 760.907,555.024 762.491,552.987 763.819,550.652 764.832,548.119 765.499,545.5 765.833,542.779 765.884,539.902 765.727,536.936 765.423,534.006 765.018,531.104 764.582,528.243 764.154,525.471 763.804,522.823 763.554,520.129 763.434,517.298 763.487,514.392 763.661,511.422 763.927,508.432 764.26,505.463 764.629,502.523 765.003,499.645 765.399,496.79 765.814,493.967 766.295,491.14 767.027,488.191 768.206,485.287 769.844,482.881 771.848,481.198 774.085,480.259 776.322,480.111 778.348,480.633 780.076,481.718 781.447,483.312 782.339,485.37 782.677,487.908 782.434,490.785 781.725,493.666 780.694,496.377 779.475,498.99 778.149,501.574 776.736,504.187 775.417,506.829 774.249,509.534 773.291,512.371 772.65,515.246 772.406,518.227 772.597,521.116 773.175,523.725 774.059,526.027 775.241,528.121 776.665,529.998 778.287,531.622 780.23,533.089 782.654,534.453 785.425,535.601 788.324,536.44 791.197,537.019 794.087,537.432 797.019,537.709 799.975,537.9 802.91,538.034 805.856,538.108 808.937,538.088 812.078,537.911 815.148,537.533 818.151,536.903 821.018,535.98 823.743,534.699 826.284,533.037 828.497,531.075 830.251,528.993 831.498,527.043 832.366,525.316 833.063,523.564 833.699,521.266 834.135,518.384 834.231,515.281 834.003,512.184 833.505,509.212 832.805,506.347 831.938,503.515 830.949,500.735 829.865,498.01 828.703,495.324 827.472,492.663 826.188,490.028 824.835,487.369 823.467,484.769 822.078,482.193 820.665,479.589 819.243,477.003 817.808,474.425 816.359,471.828 814.899,469.25 813.42,466.68 811.92,464.133 810.398,461.571 808.841,458.986 807.305,456.449 805.81,454.003 804.21,451.489 802.638,448.979 801.047,446.528 799.451,444.058 797.833,441.609 796.17,439.153 794.569,436.747 792.877,434.29 791.184,431.842 789.478,429.426 787.792,427.005 786.115,424.652 784.411,422.286 782.656,419.862 780.87,417.456 779.106,415.091 777.332,412.752 775.568,410.45 773.758,408.109 771.931,405.787 770.07,403.486 768.161,401.154 766.256,398.871 764.331,396.606 762.443,394.443 760.51,392.267 758.465,390.017 756.43,387.841 754.425,385.769 752.343,383.681 750.167,381.562 748.05,379.574 745.879,377.616 743.599,375.612 741.354,373.726 739.05,371.871 736.747,370.067 734.41,368.344 731.948,366.583 729.517,364.931 727.047,363.323 724.587,361.792 722.13,360.322 719.599,358.884 717.046,357.483 714.481,356.142 711.91,354.853 709.335,353.621 706.717,352.443 704.064,351.307 701.397,350.255 698.692,349.258 695.924,348.302 693.209,347.425 690.4,346.528 687.551,345.719 684.714,344.914 681.828,344.218 678.97,343.488 676.076,342.884 673.175,342.249 670.255,341.734 667.406,341.194 664.475,340.715 661.544,340.279 658.617,339.841 655.64,339.441 652.772,339.044 649.854,338.632 646.918,338.286 644.073,337.92 641.147,337.52 638.188,337.202 635.302,336.868 632.35,336.492 629.389,336.223 626.505,335.89 623.59,335.574 620.587,335.328 617.663,335.02 614.805,334.759 611.868,334.543 608.886,334.277 605.97,334.089 603.109,333.878 600.149,333.751 597.18,333.557 594.285,333.455 591.403,333.362 588.48,333.254 585.493,333.214 582.555,333.133 579.679,333.146 576.804,333.15 573.813,333.163 570.826,333.246 567.955,333.299 565.065,333.426 562.152,333.554 559.17,333.724 556.195,333.933 553.294,334.148 550.42,334.393 547.551,334.671 544.598,334.948 541.646,335.305 538.738,335.651 535.802,335.995 532.864,336.383 529.942,336.788 527.023,337.211 524.084,337.64 521.188,338.111 518.276,338.586 515.319,339.101 512.402,339.616 509.518,340.142 506.652,340.676 503.721,341.226 500.75,341.791 497.854,342.338 494.961,342.876 492.034,343.394 489.11,343.869 486.148,344.253 483.132,344.485 480.084,344.506 476.957,344.227 474.085,343.617 471.915,342.86 470.157,342.006 468.112,340.746 465.629,339.061 463.025,337.364 460.834,336.22 459.395,335.618 457.828,335.072 455.404,334.512 452.524,334.393 449.743,334.938 447.31,335.93 444.931,337.107 442.461,338.484 439.893,339.979 437.467,341.392 435.286,342.626 433.055,343.832 430.552,345.101 427.846,346.4 425.12,347.632 422.4,348.779 419.658,349.873 416.883,350.894 414.074,351.871 411.279,352.754 408.491,353.582 405.67,354.378 402.83,355.149 400.007,355.877 397.172,356.599 394.31,357.328 391.478,358.027 388.648,358.73 385.779,359.437 382.918,360.148 380.08,360.837 377.209,361.536 374.356,362.241 371.524,362.926 368.698,363.615 365.825,364.311 362.948,365.015 360.08,365.708 357.179,366.423 354.363,367.111 351.552,367.797 348.687,368.502 345.812,369.207 342.914,369.922 340.036,370.629 337.203,371.324 334.366,372.02 331.509,372.721 328.665,373.417 325.818,374.111 322.935,374.809 320.067,375.499 317.211,376.162 314.346,376.808 311.422,377.432 308.48,378.008 305.547,378.505 302.579,378.896 299.604,379.161 296.597,379.284 293.554,379.244 290.547,379.037 287.644,378.671 284.937,378.168 282.403,377.538 279.831,376.766 277.172,375.842 274.51,374.781 271.871,373.58 269.275,372.247 266.716,370.774 264.184,369.163 261.735,367.451 259.341,365.617 257.015,363.656 254.863,361.656 252.783,359.54 250.755,357.29 248.852,355.006 246.983,352.634 245.183,350.243 243.426,347.786 241.73,345.308 240.14,342.887 238.591,340.407 237.033,337.785 235.542,335.122 234.194,332.53 232.938,329.913 231.745,327.209 230.627,324.419 229.578,321.521 228.643,318.626 227.838,315.811 227.121,312.958 226.495,310.055 225.971,307.12 225.557,304.194 225.257,301.35 225.062,298.586 224.966,295.792 224.967,292.944 225.062,290.155 225.247,287.444 225.515,284.61 225.878,281.655 226.329,278.717 226.878,275.749 227.454,272.842 227.981,270.246 228.45,267.815 228.877,265.44 229.272,263.107 229.652,260.631 230.033,257.904 230.351,254.952 230.611,251.925 230.776,248.927 230.898,245.926 230.925,242.9 230.902,239.899 230.847,236.958 230.729,233.999 230.543,231.026 230.305,228.06 230.026,225.121 229.69,222.169 229.309,219.185 228.869,216.215 228.393,213.28 227.863,210.308 227.29,207.404 226.639,204.528 225.868,201.659 224.948,198.821 223.82,195.961 222.499,193.188 220.991,190.534 219.262,187.942 217.526,185.665 215.991,183.832 214.746,182.45 213.595,181.248 212.273,179.967 210.491,178.306 208.253,176.189 206.054,173.935 204.24,171.874 202.867,170.122 201.713,168.498 200.479,166.597 199.113,164.27 197.828,161.599 196.705,158.755 195.804,155.872 195.104,152.96 194.599,150.053 194.243,147.106 194.028,144.154 193.921,141.19 193.913,138.255 193.974,135.202 194.089,132.208 194.255,129.302 194.48,126.401 194.788,123.456 195.199,120.461 195.723,117.496 196.353,114.571 197.087,111.675 197.923,108.811 198.853,105.996 199.879,103.204 201.022,100.396 202.233,97.696 203.518,95.043 204.893,92.434 206.36,89.839 207.884,87.298 209.444,84.843 211.048,82.432 212.717,80.034 214.346,77.755 215.999,75.503 217.711,73.207 219.443,70.89 221.202,68.5 222.971,66.0 224.626,63.455 226.102,60.867 227.259,58.37 228.058,55.965 228.489,53.582 228.522,51.201 228.078,48.833 227.312,46.958 226.375,45.481 224.958,43.911 222.83,42.309 220.052,41.038 216.996,40.293 214.031,40.011 211.043,40.0 208.052,40.173 205.055,40.449 202.045,40.797 199.004,41.204 196.047,41.673 193.053,42.29 190.163,43.106 187.379,44.157 184.695,45.482 182.181,47.103 179.75,49.137 177.559,51.53 175.872,53.927 174.848,55.767 174.124,57.377 173.42,59.351 172.757,61.963 172.235,65.111 171.945,68.027 171.817,70.822 171.77,73.541 171.774,76.235 171.763,79.076 171.743,81.858 171.679,84.811 171.546,87.699 171.384,90.606 171.184,93.609 170.955,96.528 170.756,99.35 170.509,102.332 170.274,105.301 170.04,108.148 169.798,110.951 169.577,113.828 169.296,116.853 168.972,119.732 168.596,122.522 168.171,125.492 167.775,128.382 167.368,131.33 167.019,134.209 166.706,137.026 166.376,140.09 166.121,143.097 165.941,145.899 165.829,148.727 165.779,151.579 165.769,154.591 165.788,157.719 165.82,160.766 165.871,163.715 165.954,166.592 166.04,169.377 166.146,172.217 166.279,175.243 166.434,178.288 166.609,181.351 166.792,184.249 166.996,187.138 167.222,190.044 167.467,192.985 167.732,195.941 167.99,198.516 168.336,201.848 168.64,204.656 168.962,207.48 169.349,210.724 169.706,213.577 170.082,216.441 170.475,219.318 170.887,222.205 171.317,225.098 171.765,227.998 172.301,231.318 172.789,234.23 173.298,237.146 173.825,240.067 174.292,242.575 174.855,245.505 175.439,248.439 176.049,251.375 176.685,254.314 177.349,257.253 178.039,260.194 178.758,263.136 179.284,265.239 180.376,269.321" fill="none" stroke="white" stroke-width="4"
            stroke-linejoin="round" stroke-linecap="round"/>
</svg>
