<?xml version="1.0" encoding="utf-8"?>
<svg xmlns="http://www.w3.org/2000/svg" width="1000" height="600">
  <polyline points="627.305,558.171 624.445,558.428 621.55,558.709 618.718,558.939 615.856,559.156 612.949,559.331 610.093,559.525 607.24,559.647 604.369,559.766 601.448,559.861 598.555,559.936 595.731,559.976 592.793,560.0 589.877,559.974 587.064,559.954 584.177,559.901 581.276,559.786 578.415,559.679 575.565,559.574 572.675,559.38 569.82,559.184 566.959,558.975 564.123,558.751 561.211,558.469 558.32,558.178 555.477,557.873 552.637,557.518 549.788,557.16 546.909,556.777 544.071,556.39 541.19,555.955 538.316,555.539 535.383,555.079 532.498,554.636 529.674,554.168 526.776,553.7 523.927,553.229 521.011,552.746 518.111,552.271 515.354,551.819 512.616,551.353 509.938,550.894 507.311,550.434 504.716,549.958 501.965,549.427 499.067,548.795 496.133,548.008 493.173,547.01 490.276,545.773 487.567,544.32 485.215,542.779 483.48,541.445 482.255,540.368 481.135,539.277 479.875,537.932 478.296,536.029 476.642,533.61 475.207,530.974 473.995,528.216 472.99,525.43 472.168,522.662 471.491,519.883 470.935,517.076 470.491,514.247 470.128,511.426 469.797,508.578 469.489,505.749 469.188,502.928 468.9,500.084 468.603,497.255 468.304,494.38 467.991,491.511 467.666,488.66 467.336,485.852 466.977,483.009 466.616,480.114 466.219,477.278 465.828,474.434 465.374,471.641 464.949,468.858 464.458,466.026 463.956,463.262 463.437,460.546 462.899,457.773 462.313,454.913 461.7,452.074 461.108,449.33 460.493,446.571 459.87,443.792 459.23,440.975 458.577,438.142 457.934,435.344 457.289,432.529 456.673,429.727 456.048,426.971 455.443,424.193 454.855,421.394 454.298,418.59 453.718,415.758 453.182,412.921 452.612,410.097 452.065,407.254 451.559,404.492 451.068,401.734 450.525,398.913 450.031,396.125 449.565,393.416 449.041,390.628 448.528,387.838 447.995,385.043 447.428,382.164 446.865,379.396 446.273,376.598 445.637,373.725 444.974,370.933 444.3,368.077 443.592,365.327 442.878,362.58 442.102,359.736 441.328,357.016 440.543,354.333 439.728,351.668 438.871,349.029 438.014,346.38 437.085,343.694 436.157,341.053 435.172,338.391 434.158,335.733 433.122,333.067 432.061,330.401 430.994,327.725 429.906,325.035 428.832,322.343 427.76,319.654 426.747,317.054 425.727,314.334 424.729,311.568 423.815,308.907 422.926,306.175 422.082,303.513 421.261,300.788 420.464,298.01 419.725,295.352 419.019,292.676 418.326,289.874 417.663,287.094 417.056,284.385 416.503,281.578 415.96,278.74 415.467,275.955 415.04,273.131 414.621,270.285 414.194,267.432 413.815,264.605 413.412,261.735 412.987,258.824 412.605,256.026 412.201,253.205 411.762,250.259 411.338,247.407 410.899,244.605 410.388,241.673 409.861,238.84 409.287,236.077 408.59,233.187 407.809,230.309 406.948,227.565 405.95,224.741 404.861,222.006 403.675,219.359 402.342,216.701 400.92,214.15 399.417,211.708 397.809,209.331 396.072,206.996 394.219,204.726 392.272,202.561 390.277,200.55 388.142,198.616 385.895,196.796 383.591,195.143 381.187,193.631 378.73,192.272 376.245,191.063 373.752,190.015 371.279,189.148 368.755,188.42 366.124,187.813 363.412,187.334 360.609,186.992 357.741,186.806 354.921,186.789 352.088,186.942 349.249,187.27 346.455,187.772 343.674,188.438 340.933,189.27 338.249,190.288 335.662,191.5 333.218,192.873 330.885,194.383 328.59,196.051 326.397,197.799 324.293,199.603 322.187,201.497 320.147,203.375 318.076,205.308 315.939,207.276 313.748,209.2 311.475,211.038 309.087,212.768 306.538,214.373 303.984,215.725 301.369,216.871 298.835,217.784 296.539,218.453 294.264,218.929 291.943,219.205 289.379,219.293 286.588,219.186 283.89,218.886 281.234,218.39 278.498,217.697 275.773,216.869 273.053,215.907 270.335,214.815 267.688,213.629 265.1,212.37 262.513,211.007 259.964,209.514 257.509,207.887 255.211,206.177 252.958,204.386 250.709,202.524 248.527,200.665 246.376,198.752 244.226,196.831 242.074,194.915 239.907,193.004 237.74,191.136 235.6,189.293 233.396,187.456 231.112,185.642 228.884,183.865 226.624,182.129 224.352,180.392 222.059,178.694 219.736,176.957 217.404,175.245 215.11,173.601 212.796,171.901 210.452,170.232 208.095,168.535 205.745,166.83 203.406,165.123 201.072,163.437 198.745,161.721 196.383,159.978 194.067,158.253 191.755,156.518 189.431,154.749 187.135,152.98 184.885,151.23 182.652,149.467 180.382,147.636 178.137,145.744 175.963,143.747 173.927,141.611 172.091,139.28 170.595,136.754 169.574,134.238 168.998,131.86 168.791,129.539 168.95,127.203 169.515,124.861 170.493,122.566 171.832,120.428 173.523,118.434 175.518,116.649 177.701,115.16 180.079,113.947 182.711,112.931 185.494,112.078 188.301,111.373 191.11,110.773 193.88,110.218 196.548,109.69 199.12,109.119 201.694,108.447 204.336,107.608 206.977,106.599 209.632,105.453 212.301,104.213 214.932,102.919 217.518,101.597 220.053,100.27 222.528,98.941 224.959,97.613 227.413,96.209 229.872,94.553 232.142,92.512 233.818,90.186 234.692,87.794 234.815,85.418 234.219,83.301 233.046,81.596 231.452,80.365 229.521,79.642 227.331,79.513 224.886,80.047 222.305,81.233 219.908,82.854 217.751,84.721 215.765,86.731 213.837,88.82 211.918,90.976 209.941,93.07 207.838,95.062 205.555,96.893 203.117,98.452 200.48,99.667 197.767,100.46 195.173,100.804 192.754,100.763 190.426,100.38 188.215,99.697 186.191,98.754 184.182,97.454 182.119,95.686 180.134,93.524 178.409,91.164 176.901,88.692 175.539,86.147 174.323,83.585 173.172,80.963 172.05,78.278 170.987,75.573 169.969,72.721 169.075,69.757 168.402,66.832 167.98,63.901 167.867,60.935 168.132,57.992 168.81,55.11 169.875,52.414 171.199,50.11 172.586,48.296 173.892,46.911 175.265,45.69 177.127,44.362 179.649,42.988 182.489,41.853 185.377,41.036 188.288,40.495 191.161,40.179 194.033,40.023 196.92,40.0 199.779,40.081 202.637,40.248 205.527,40.491 208.376,40.79 211.215,41.13 214.071,41.52 216.94,41.937 219.811,42.37 222.661,42.808 225.528,43.255 228.384,43.706 231.23,44.193 234.056,44.693 236.889,45.205 239.755,45.743 242.604,46.288 245.497,46.872 248.37,47.473 251.137,48.037 253.95,48.672 256.763,49.306 259.556,49.952 262.379,50.626 265.191,51.321 267.986,52.006 270.75,52.715 273.55,53.461 276.377,54.214 279.16,54.955 281.92,55.728 284.686,56.505 287.435,57.298 290.203,58.108 292.982,58.947 295.74,59.797 298.513,60.666 301.28,61.556 304.037,62.471 306.751,63.389 309.447,64.338 312.19,65.326 314.898,66.344 317.6,67.371 320.263,68.419 322.919,69.513 325.595,70.662 328.255,71.835 330.858,73.04 333.453,74.301 336.099,75.636 338.637,76.966 341.132,78.348 343.698,79.818 346.138,81.286 348.599,82.835 351.042,84.433 353.365,86.045 355.74,87.744 358.012,89.459 360.257,91.212 362.458,93.011 364.631,94.837 366.75,96.714 368.86,98.621 370.911,100.572 372.9,102.514 374.862,104.524 376.771,106.572 378.638,108.661 380.463,110.84 382.261,113.032 384.01,115.286 385.78,117.575 387.469,119.916 389.137,122.244 390.766,124.645 392.36,127.038 393.889,129.472 395.41,131.919 396.897,134.405 398.343,136.932 399.759,139.43 401.145,141.978 402.541,144.53 403.912,147.105 405.228,149.629 406.555,152.139 407.896,154.749 409.191,157.267 410.51,159.822 411.833,162.418 413.091,164.95 414.41,167.551 415.687,170.165 416.917,172.733 418.159,175.313 419.448,177.92 420.668,180.507 421.843,183.09 423.074,185.721 424.325,188.328 425.439,190.962 426.602,193.589 427.742,196.21 428.873,198.823 429.949,201.458 430.983,204.141 432.111,206.832 433.133,209.485 434.165,212.11 435.12,214.788 436.101,217.508 437.084,220.254 438.004,222.914 438.885,225.588 439.777,228.334 440.636,231.157 441.488,233.947 442.286,236.635 443.034,239.364 443.793,242.112 444.487,244.871 445.216,247.715 445.921,250.58 446.56,253.337 447.191,256.111 447.845,258.934 448.451,261.785 449.023,264.558 449.604,267.374 450.164,270.269 450.704,273.146 451.21,275.944 451.704,278.779 452.206,281.692 452.679,284.563 453.144,287.372 453.602,290.206 454.076,293.094 454.554,295.961 455.055,298.809 455.604,301.682 456.237,304.519 457.028,307.347 458.027,310.154 459.317,312.911 460.864,315.388 462.301,317.146 463.648,318.447 465.493,319.908 467.878,321.63 470.309,323.455 472.108,325.102 473.139,326.22 474.157,327.46 475.491,329.49 476.573,332.088 476.998,334.846 476.89,337.437 476.602,340.008 476.167,342.727 475.658,345.583 475.173,348.304 474.77,350.717 474.414,353.165 474.081,355.936 473.808,358.833 473.59,361.709 473.444,364.614 473.359,367.523 473.359,370.392 473.402,373.269 473.525,376.133 473.704,378.999 473.914,381.869 474.168,384.726 474.426,387.587 474.73,390.423 475.031,393.292 475.321,396.177 475.629,399.043 475.93,401.9 476.242,404.724 476.546,407.534 476.868,410.418 477.174,413.281 477.49,416.119 477.809,418.973 478.126,421.832 478.439,424.703 478.755,427.543 479.069,430.428 479.388,433.307 479.697,436.127 480.003,438.959 480.308,441.833 480.624,444.711 480.932,447.561 481.241,450.395 481.549,453.233 481.86,456.092 482.175,458.97 482.494,461.849 482.812,464.727 483.141,467.582 483.479,470.417 483.849,473.294 484.255,476.191 484.702,479.062 485.231,481.936 485.863,484.806 486.626,487.665 487.531,490.502 488.576,493.257 489.757,495.916 491.043,498.423 492.427,500.769 493.895,502.952 495.454,505.037 497.158,507.129 499.017,509.214 501.03,511.264 503.176,513.248 505.431,515.137 507.744,516.908 510.09,518.545 512.539,520.106 515.105,521.579 517.704,522.909 520.369,524.116 523.089,525.22 525.848,526.216 528.639,527.136 531.423,527.982 534.23,528.764 537.092,529.5 539.927,530.166 542.72,530.757 545.599,531.303 548.543,531.775 551.457,532.156 554.306,532.439 557.18,532.623 560.057,532.716 562.95,532.708 565.853,532.606 568.747,532.407 571.646,532.111 574.562,531.711 577.435,531.212 580.223,530.625 582.957,529.945 585.638,529.178 588.298,528.312 590.854,527.38 593.324,526.383 595.857,525.265 598.382,524.062 600.897,522.779 603.465,521.363 606.035,519.846 608.492,518.34 610.72,516.995 612.767,515.758 614.806,514.56 616.87,513.392 619.022,512.211 621.432,510.951 623.995,509.682 626.597,508.493 629.32,507.314 632.154,506.176 634.932,505.118 637.576,504.159 640.332,503.226 643.163,502.326 645.894,501.509 648.669,500.739 651.503,500.006 654.318,499.325 657.219,498.675 660.074,498.084 662.9,497.55 665.809,497.043 668.676,496.598 671.535,496.234 674.446,495.983 677.416,495.879 680.373,495.96 683.345,496.245 686.343,496.751 689.307,497.475 691.926,498.291 694.143,499.1 695.855,499.79 697.314,500.439 698.935,501.219 701.057,502.298 703.725,503.629 706.577,504.91 709.107,505.896 711.142,506.559 712.988,507.067 715.181,507.572 717.799,508.06 720.679,508.354 723.682,508.436 726.638,508.293 729.509,507.954 732.378,507.432 735.229,506.755 738.029,505.96 740.706,505.094 743.431,504.121 746.221,503.049 748.88,501.969 751.525,500.832 754.144,499.642 756.742,498.374 759.336,497.003 761.864,495.544 764.354,493.977 766.785,492.325 769.148,490.583 771.448,488.773 773.674,486.885 775.841,484.919 777.936,482.891 779.933,480.83 781.845,478.719 783.731,476.521 785.602,474.207 787.344,471.949 788.998,469.705 790.656,467.353 792.228,465.057 793.717,462.81 795.224,460.517 796.783,458.14 798.414,455.688 800.112,453.228 801.873,450.878 803.766,448.635 805.679,446.717 807.622,445.165 809.693,443.951 811.898,443.108 814.193,442.727 816.159,442.81 817.837,443.194 819.713,443.965 821.932,445.409 824.054,447.569 825.716,450.068 826.994,452.77 827.996,455.48 828.814,458.196 829.57,461.066 830.263,463.957 830.911,466.907 831.486,469.838 831.912,472.744 832.133,475.68 832.101,478.616 831.788,481.487 831.136,484.381 830.11,487.225 828.603,490.117 826.998,492.436 825.646,493.994 824.387,495.222 822.811,496.529 820.547,498.074 817.963,499.537 815.383,500.78 812.813,501.864 810.263,502.849 807.766,503.763 805.29,504.701 802.672,505.73 800.057,506.823 797.51,507.921 794.914,509.103 792.21,510.416 789.636,511.596 787.067,512.844 784.534,514.046 782.008,515.254 779.346,516.415 776.798,517.618 774.186,518.831 771.612,520.048 769.036,521.116 766.544,522.254 763.868,523.367 761.153,524.525 758.488,525.582 755.877,526.655 753.238,527.741 750.531,528.749 748.006,529.709 745.217,530.723 742.422,531.768 739.707,532.768 736.922,533.721 734.374,534.934 731.675,535.856 728.948,536.77 726.193,537.676 723.412,538.573 720.778,539.401 718.127,540.227 715.269,541.093 712.558,541.903 709.837,542.689 707.105,543.463 704.327,544.242 701.356,545.05 698.738,545.747 696.102,546.431 693.067,547.2 690.393,547.86 687.859,548.475 684.935,549.193 682.204,549.819 679.067,550.52 676.308,551.119 673.536,551.703 670.748,552.274 667.948,552.829 665.137,553.37 662.314,553.895 659.48,554.405 656.634,554.898 653.778,555.377 650.911,555.838 648.033,556.282 645.144,556.708 642.246,557.116 639.337,557.506 636.418,557.878 633.908,558.181 632.231,558.376 627.305,558.171" fill="none" stroke="white" stroke-width="4"
            stroke-linejoin="round" stroke-linecap="round"/>
</svg>
