<?xml version="1.0" encoding="utf-8"?>
<svg xmlns="http://www.w3.org/2000/svg" width="1000" height="600">
  <polyline points="796.411,175.812 798.92,175.405 801.55,175.136 804.145,174.758 806.762,174.539 809.267,174.248 812.017,174.006 814.52,173.834 817.243,173.646 819.816,173.495 822.379,173.436 825.182,173.315 827.764,173.271 830.523,173.211 833.142,173.193 835.575,173.203 838.221,173.269 840.671,173.323 843.35,173.402 846.09,173.504 848.734,173.633 851.204,173.797 854.013,174.001 856.519,174.206 859.157,174.474 861.839,174.765 864.35,175.058 867.007,175.388 869.601,175.713 872.144,176.067 874.744,176.426 877.443,176.788 880.001,177.137 882.55,177.472 885.303,177.847 887.884,178.192 890.534,178.53 893.195,178.854 895.808,179.132 898.473,179.363 901.161,179.485 903.764,179.455 906.473,179.225 909.171,178.773 911.908,178.049 914.337,177.152 916.312,176.211 918.006,175.246 919.564,174.229 921.269,172.973 923.201,171.323 925.021,169.408 926.669,167.291 928.132,165.045 929.48,162.752 930.793,160.477 932.196,158.239 933.704,156.186 935.244,154.519 936.916,153.149 938.693,152.093 940.669,151.323 942.724,150.905 944.804,150.85 946.929,151.166 948.992,151.851 950.96,152.886 952.828,154.268 954.506,155.932 955.959,157.827 957.22,159.985 958.239,162.328 959.007,164.809 959.546,167.407 959.862,169.994 960.0,172.661 959.965,175.442 959.774,178.075 959.45,180.713 959.013,183.298 958.455,185.879 957.812,188.433 957.078,190.981 956.287,193.493 955.462,195.95 954.585,198.497 953.665,200.975 952.772,203.403 951.821,205.822 950.796,208.369 949.836,210.684 948.756,213.185 947.644,215.62 946.538,218.03 945.451,220.299 944.241,222.734 943.036,225.079 941.774,227.476 940.567,229.691 939.279,231.981 937.994,234.238 936.687,236.425 935.28,238.721 933.862,241.004 932.433,243.218 930.973,245.453 929.489,247.659 928.004,249.801 926.491,251.992 924.98,254.11 923.431,256.227 921.855,258.34 920.235,260.461 918.646,262.505 917.006,264.558 915.328,266.662 913.657,268.711 912.024,270.676 910.308,272.712 908.561,274.78 906.841,276.761 905.127,278.731 903.365,280.719 901.551,282.767 899.802,284.68 897.966,286.617 896.098,288.48 894.091,290.327 892.067,292.014 889.851,293.652 887.581,295.127 885.212,296.452 882.79,297.597 880.424,298.537 878.128,299.308 876.072,299.896 874.205,300.316 872.138,300.611 869.77,300.778 867.087,300.789 864.343,300.673 861.658,300.504 859.072,300.364 856.581,300.316 854.276,300.382 852.081,300.558 849.96,300.842 847.725,301.287 845.414,301.889 842.849,302.686 840.32,303.606 837.767,304.685 835.308,305.876 832.954,307.171 830.772,308.505 828.583,310.007 826.443,311.626 824.447,313.289 822.482,315.037 820.539,316.864 818.713,318.703 816.892,320.585 815.049,322.589 813.341,324.498 811.581,326.509 809.834,328.493 808.056,330.569 806.336,332.554 804.592,334.549 802.854,336.578 801.166,338.516 799.484,340.46 797.875,342.321 796.246,344.225 794.654,346.07 792.992,347.984 791.238,349.952 789.481,351.884 787.594,353.869 785.718,355.73 783.766,357.565 781.767,359.324 779.745,360.983 777.702,362.552 775.594,364.064 773.54,365.45 771.392,366.804 769.248,368.069 766.972,369.303 764.722,370.441 762.458,371.486 760.152,372.464 757.786,373.393 755.37,374.236 752.954,375.007 750.517,375.702 748.109,376.316 745.607,376.856 743.107,377.33 740.506,377.746 737.978,378.071 735.348,378.323 732.775,378.518 730.154,378.634 727.518,378.708 724.869,378.712 722.25,378.636 719.637,378.571 716.96,378.42 714.354,378.306 711.669,378.108 709.063,377.956 706.415,377.782 703.769,377.587 701.179,377.414 698.459,377.238 695.824,377.059 693.121,376.896 690.523,376.754 687.817,376.642 685.173,376.575 682.513,376.559 679.921,376.613 677.241,376.783 674.558,377.103 671.94,377.591 669.303,378.294 666.71,379.243 664.325,380.428 662.237,381.786 660.527,383.201 659.058,384.691 657.775,386.297 656.663,388.042 655.748,389.896 655.012,391.902 654.458,394.094 654.109,396.477 653.916,399.086 653.792,401.838 653.642,404.433 653.413,406.927 653.069,409.355 652.613,411.605 652.024,413.838 651.288,416.051 650.364,418.316 649.332,420.441 648.126,422.544 646.735,424.641 645.232,426.631 643.577,428.568 641.82,430.399 639.911,432.176 637.895,433.84 635.773,435.404 633.525,436.864 631.18,438.212 628.75,439.425 626.288,440.5 623.821,441.424 621.241,442.255 618.701,442.971 616.06,443.588 613.512,444.099 610.917,444.551 608.272,444.94 605.682,445.291 603.005,445.63 600.386,445.901 597.779,446.166 595.114,446.413 592.522,446.617 589.842,446.814 587.162,447.003 584.567,447.196 581.963,447.356 579.354,447.51 576.711,447.655 574.054,447.819 571.5,447.941 568.9,448.064 566.276,448.207 563.583,448.336 560.995,448.45 558.338,448.569 555.672,448.661 553.088,448.735 550.496,448.832 547.775,448.919 545.154,448.966 542.598,449.009 539.912,449.075 537.194,449.084 534.694,449.114 532.111,449.15 529.454,449.141 526.764,449.109 524.15,449.145 521.555,449.118 518.906,449.045 516.264,449.022 513.628,449.031 510.901,448.926 508.397,448.866 505.731,448.795 503.039,448.703 500.463,448.577 497.821,448.478 495.335,448.395 492.599,448.229 490.12,448.09 487.517,447.981 484.694,447.762 482.047,447.622 479.529,447.443 476.926,447.219 474.346,446.993 471.695,446.779 469.035,446.569 466.484,446.305 463.807,446.054 461.204,445.76 458.71,445.505 455.99,445.214 453.335,444.863 450.83,444.531 448.302,444.228 445.658,443.868 443.01,443.503 440.446,443.139 437.891,442.74 435.261,442.349 432.599,441.944 430.105,441.529 427.412,441.069 424.824,440.669 422.202,440.202 419.728,439.787 417.094,439.305 414.51,438.808 411.921,438.322 409.235,437.811 406.705,437.293 404.17,436.796 401.458,436.222 399.043,435.693 396.472,435.13 393.847,434.552 391.255,433.943 388.721,433.373 386.022,432.729 383.578,432.161 380.964,431.554 378.406,430.948 375.853,430.34 373.329,429.729 370.702,429.095 368.094,428.459 365.524,427.827 362.966,427.183 360.366,426.498 357.825,425.766 355.277,424.916 352.783,423.928 350.387,422.782 348.03,421.422 345.723,419.825 343.714,418.182 341.965,416.511 340.584,414.995 339.385,413.519 338.223,411.932 336.967,409.976 335.61,407.545 334.423,405.076 333.422,402.777 332.458,400.609 331.487,398.601 330.437,396.655 329.234,394.649 327.957,392.737 326.503,390.793 324.94,388.933 323.179,387.052 321.313,385.266 319.265,383.51 317.121,381.85 314.953,380.337 312.652,378.895 310.338,377.596 307.936,376.392 305.532,375.32 303.089,374.362 300.571,373.484 298.055,372.686 295.566,371.972 292.95,371.238 290.43,370.534 287.91,369.886 285.304,369.226 282.797,368.618 280.224,368.012 277.677,367.417 275.118,366.825 272.502,366.23 269.925,365.661 267.413,365.063 264.853,364.518 262.306,363.965 259.706,363.375 257.09,362.823 254.446,362.253 251.995,361.721 249.39,361.199 246.764,360.691 244.122,360.108 241.606,359.651 239.037,359.117 236.461,358.64 233.959,358.156 231.303,357.655 228.654,357.185 226.151,356.7 223.5,356.22 220.898,355.804 218.393,355.382 215.822,354.895 213.171,354.486 210.61,354.089 208.021,353.671 205.417,353.268 202.786,352.856 200.152,352.494 197.492,352.158 194.967,351.779 192.369,351.499 189.802,351.199 187.206,350.925 184.511,350.648 181.82,350.385 179.236,350.157 176.607,349.967 173.935,349.766 171.408,349.624 168.738,349.436 166.146,349.359 163.551,349.231 160.945,349.146 158.327,349.101 155.622,349.06 153.056,349.043 150.406,349.059 147.772,349.098 145.183,349.182 142.505,349.31 139.853,349.423 137.268,349.602 134.59,349.799 132.049,350.018 129.527,350.252 126.845,350.542 124.316,350.81 121.69,351.155 119.074,351.55 116.506,351.938 113.922,352.373 111.403,352.825 108.855,353.304 106.246,353.837 103.711,354.351 101.051,354.904 98.544,355.476 95.913,356.054 93.328,356.633 90.75,357.227 88.128,357.82 85.575,358.41 82.929,359.019 80.371,359.606 77.823,360.192 75.212,360.793 72.632,361.382 70.047,361.965 67.421,362.56 64.838,363.134 62.233,363.693 59.626,364.229 57.026,364.721 54.377,365.09 51.734,365.244 49.005,365.096 46.286,364.495 43.984,363.407 42.21,361.935 40.988,360.223 40.282,358.439 40.0,356.549 40.133,354.67 40.652,352.844 41.545,351.033 42.866,349.22 44.723,347.379 46.882,345.797 49.311,344.457 51.787,343.426 54.313,342.634 56.919,342.022 59.539,341.566 62.184,341.216 64.795,340.939 67.39,340.721 70.056,340.516 72.702,340.333 75.386,340.146 77.945,339.944 80.498,339.719 82.982,339.446 85.468,339.132 87.881,338.77 90.412,338.323 92.898,337.801 95.415,337.253 97.917,336.616 100.428,335.992 102.899,335.295 105.398,334.529 108.021,333.726 110.484,332.922 112.972,332.077 115.47,331.145 117.939,330.256 120.4,329.305 122.863,328.379 125.272,327.413 127.67,326.494 130.087,325.472 132.544,324.473 134.963,323.455 137.33,322.494 139.852,321.424 142.233,320.447 144.567,319.499 147.088,318.448 149.467,317.461 151.875,316.472 154.256,315.483 156.785,314.44 159.139,313.476 161.571,312.48 164.035,311.469 166.455,310.464 168.924,309.444 171.275,308.458 173.733,307.46 176.114,306.498 178.572,305.451 181.002,304.507 183.45,303.453 185.855,302.495 188.315,301.522 190.654,300.6 193.173,299.559 195.57,298.595 198.032,297.616 200.451,296.665 202.918,295.723 205.403,294.768 207.891,293.804 210.314,292.916 212.801,291.918 215.231,291.018 217.687,290.125 220.166,289.182 222.591,288.292 225.105,287.388 227.54,286.471 230.016,285.579 232.499,284.752 235.002,283.834 237.48,282.943 240.001,282.083 242.478,281.187 244.978,280.385 247.453,279.511 249.904,278.691 252.343,277.888 254.745,277.129 257.183,276.318 259.663,275.561 262.147,274.739 264.723,274.046 267.248,273.261 269.712,272.556 272.178,271.879 274.733,271.132 277.345,270.368 279.873,269.731 282.351,269.004 284.952,268.323 287.43,267.659 289.996,266.959 292.538,266.333 295.127,265.642 297.521,264.99 300.12,264.368 302.806,263.742 305.326,263.075 307.861,262.529 310.339,261.894 312.986,261.304 315.554,260.695 318.14,260.129 320.687,259.53 323.228,258.96 325.695,258.409 328.386,257.833 330.961,257.247 333.477,256.691 336.053,256.157 338.672,255.575 341.225,255.026 343.827,254.469 346.39,253.908 348.904,253.331 351.482,252.767 354.02,252.281 356.567,251.731 359.223,251.145 361.77,250.611 364.344,250.091 366.886,249.507 369.417,248.981 371.956,248.427 374.572,247.882 377.271,247.334 379.754,246.752 382.285,246.256 384.88,245.705 387.483,245.145 389.995,244.596 392.526,244.035 395.153,243.49 397.796,242.924 400.346,242.349 402.876,241.842 405.471,241.249 408.057,240.719 410.642,240.142 413.19,239.589 415.737,239.038 418.284,238.472 420.929,237.927 423.473,237.373 425.986,236.825 428.559,236.266 431.146,235.713 433.752,235.165 436.279,234.587 438.878,234.076 441.461,233.523 443.933,232.959 446.559,232.432 449.146,231.844 451.747,231.297 454.29,230.762 456.908,230.198 459.434,229.658 462.026,229.099 464.621,228.541 467.198,227.994 469.704,227.425 472.202,226.892 474.899,226.363 477.406,225.77 479.998,225.26 482.551,224.656 485.136,224.174 487.739,223.566 490.422,223.047 492.895,222.461 495.458,221.969 498.064,221.349 500.565,220.852 503.146,220.301 505.689,219.746 508.229,219.195 510.854,218.653 513.419,218.07 515.98,217.556 518.571,216.987 521.092,216.431 523.71,215.878 526.33,215.333 528.953,214.764 531.478,214.183 534.012,213.581 536.587,213.043 539.111,212.498 541.742,211.938 544.365,211.373 546.941,210.821 549.598,210.249 552.165,209.698 554.759,209.149 557.313,208.614 559.91,208.072 562.58,207.535 565.123,207.05 567.73,206.616 570.345,206.286 573.064,206.083 575.77,206.041 578.476,206.173 581.267,206.508 583.843,207.008 586.254,207.663 588.079,208.284 589.351,208.791 591.229,209.637 593.814,210.92 596.37,212.231 598.395,213.22 600.041,213.946 601.644,214.584 603.639,215.281 606.158,215.981 608.821,216.546 611.526,216.955 614.284,217.202 616.918,217.277 619.568,217.192 622.281,216.948 624.868,216.577 627.405,216.094 629.99,215.519 632.563,214.912 635.038,214.327 637.62,213.71 640.144,213.096 642.712,212.484 645.288,211.85 647.829,211.209 650.365,210.601 652.986,209.963 655.499,209.338 658.063,208.706 660.635,208.084 663.181,207.461 665.794,206.818 668.322,206.197 670.862,205.551 673.342,204.907 675.789,204.294 678.425,203.614 681.099,202.928 683.475,202.316 686.007,201.659 688.617,201.052 691.119,200.399 693.65,199.767 696.26,199.094 698.811,198.446 701.384,197.79 703.9,197.145 706.498,196.502 709.043,195.855 711.456,195.244 714.097,194.599 716.684,193.951 719.211,193.327 721.742,192.706 724.293,192.082 726.928,191.452 729.455,190.809 732.008,190.202 734.341,189.652 737.06,189.008 739.717,188.371 742.186,187.773 744.664,187.174 747.151,186.574 749.992,185.901 752.568,185.27 755.081,184.665 757.43,184.081 760.002,183.434 762.519,182.828 765.285,182.163 767.577,181.614 770.281,180.989 772.823,180.429 775.669,179.868 778.203,179.319 780.745,178.785 782.977,178.336 785.924,177.777 788.431,177.329 791.012,176.893 792.629,176.631 796.411,175.812" fill="none" stroke="white" stroke-width="4"
            stroke-linejoin="round" stroke-linecap="round"/>
  <line x1="799.613" y1="195.554" x2="793.209" y2="156.070" stroke="red" stroke-width="3" stroke-linecap="round"/>
</svg>
