<?xml version="1.0" encoding="utf-8"?>
<svg xmlns="http://www.w3.org/2000/svg" width="1000" height="600">
  <polyline points="250.156,421.299 248.2,422.808 246.286,424.262 244.337,425.794 242.452,427.264 240.556,428.819 238.652,430.37 236.803,431.924 234.972,433.55 233.153,435.114 231.313,436.702 229.471,438.373 227.705,439.976 225.935,441.606 224.208,443.257 222.449,444.931 220.712,446.597 218.976,448.323 217.285,450.025 215.585,451.775 213.897,453.534 212.243,455.339 210.597,457.116 209.059,458.947 207.479,460.8 205.924,462.717 204.383,464.654 202.892,466.555 201.411,468.455 199.931,470.393 198.412,472.334 196.935,474.305 195.41,476.27 193.918,478.221 192.415,480.164 190.915,482.126 189.379,484.092 187.858,486.013 186.32,487.916 184.723,489.798 183.042,491.616 181.26,493.368 179.351,494.994 177.296,496.505 175.087,497.827 172.949,498.866 171.019,499.601 169.239,500.121 167.529,500.502 165.546,500.801 163.212,500.962 160.726,500.854 158.286,500.508 155.899,499.964 153.499,499.329 151.105,498.679 148.702,498.12 146.419,497.741 144.304,497.619 142.304,497.786 140.407,498.237 138.611,499.032 136.971,500.103 135.529,501.447 134.31,503.083 133.401,504.909 132.779,506.9 132.463,509.045 132.459,511.233 132.766,513.454 133.378,515.703 134.261,517.895 135.399,520.03 136.75,522.081 138.264,524.015 139.944,525.866 141.774,527.633 143.66,529.237 145.603,530.726 147.608,532.131 149.666,533.457 151.784,534.708 153.941,535.9 156.109,537.043 158.288,538.157 160.461,539.194 162.677,540.245 164.918,541.27 167.107,542.255 169.344,543.209 171.588,544.135 173.875,545.053 176.21,545.962 178.551,546.826 180.84,547.6 183.146,548.414 185.472,549.152 187.807,549.892 190.184,550.576 192.505,551.234 194.81,551.856 197.15,552.458 199.585,553.046 202.008,553.614 204.412,554.132 206.783,554.636 209.177,555.112 211.536,555.545 213.938,555.977 216.392,556.391 218.825,556.763 221.291,557.126 223.692,557.461 226.082,557.754 228.55,558.034 231.009,558.309 233.384,558.536 235.847,558.769 238.318,558.982 240.737,559.184 243.175,559.359 245.616,559.525 248.085,559.682 250.587,559.818 253.069,559.941 255.529,560.0 257.989,559.998 260.459,559.887 262.938,559.675 265.437,559.296 267.907,558.797 270.367,558.118 272.721,557.296 274.882,556.392 276.878,555.425 278.632,554.486 280.189,553.514 281.723,552.362 283.392,550.876 285.173,549.095 286.848,547.249 288.488,545.386 290.133,543.557 291.743,541.891 293.3,540.425 294.83,539.124 296.409,537.918 298.161,536.744 300.089,535.601 302.251,534.452 304.602,533.344 306.937,532.388 309.284,531.563 311.66,530.855 314.053,530.28 316.488,529.817 318.936,529.474 321.334,529.246 323.761,529.104 326.19,529.029 328.63,529.015 331.098,529.051 333.573,529.139 336.029,529.261 338.459,529.409 340.976,529.573 343.43,529.759 345.911,529.953 348.396,530.139 350.859,530.334 353.254,530.525 355.586,530.718 357.893,530.902 360.177,531.085 362.454,531.264 364.763,531.434 367.258,531.589 369.783,531.704 372.271,531.765 374.706,531.761 377.133,531.68 379.6,531.523 382.003,531.293 384.407,530.98 386.734,530.609 389.064,530.163 391.396,529.641 393.676,529.054 395.894,528.406 398.092,527.679 400.299,526.864 402.457,525.987 404.607,525.034 406.723,524.019 408.807,522.936 410.854,521.793 412.906,520.55 414.884,519.265 416.834,517.936 418.726,516.536 420.621,515.07 422.528,513.498 424.379,511.878 426.166,510.246 427.924,508.54 429.628,506.841 431.322,505.064 433.002,503.277 434.627,501.489 436.3,499.648 437.909,497.826 439.556,495.978 441.183,494.13 442.763,492.326 444.414,490.469 446.088,488.588 447.729,486.739 449.372,484.905 451.042,483.064 452.7,481.283 454.416,479.505 456.149,477.771 457.92,476.093 459.798,474.461 461.766,472.931 463.843,471.517 466.047,470.25 468.338,469.189 470.685,468.398 472.938,467.917 475.012,467.72 477.01,467.74 478.884,467.955 480.75,468.372 482.584,468.998 484.366,469.827 486.153,470.893 487.956,472.241 489.801,473.838 491.657,475.541 493.486,477.174 495.287,478.676 497.061,480.01 498.826,481.185 500.718,482.289 502.699,483.283 504.746,484.143 506.859,484.872 509.052,485.463 511.269,485.914 513.519,486.232 515.844,486.421 518.243,486.479 520.682,486.392 523.138,486.165 525.568,485.796 527.98,485.289 530.381,484.638 532.758,483.848 535.115,482.924 537.422,481.883 539.625,480.758 541.762,479.544 543.851,478.249 545.91,476.888 547.893,475.485 549.881,474.018 551.845,472.525 553.776,471.008 555.708,469.45 557.615,467.898 559.474,466.342 561.341,464.767 563.199,463.175 565.023,461.582 566.885,459.961 568.749,458.316 570.589,456.706 572.445,455.03 574.246,453.459 576.054,451.82 577.869,450.159 579.658,448.604 581.49,446.892 583.293,445.278 585.051,443.615 586.866,441.979 588.647,440.316 590.433,438.619 592.216,436.976 593.943,435.293 595.777,433.546 597.528,431.891 599.207,430.241 600.937,428.532 602.722,426.767 604.522,424.998 606.272,423.234 607.952,421.552 609.624,419.835 611.348,418.104 613.045,416.334 614.754,414.562 616.465,412.784 618.101,411.067 619.775,409.27 621.471,407.483 623.13,405.685 624.799,403.882 626.488,402.049 628.112,400.219 629.691,398.496 631.319,396.657 632.938,394.838 634.539,393.025 636.131,391.166 637.726,389.299 639.304,387.461 640.893,385.606 642.456,383.689 644.043,381.846 645.537,379.971 647.092,378.05 648.613,376.161 650.12,374.266 651.641,372.367 653.171,370.392 654.612,368.486 656.119,366.537 657.616,364.579 659.06,362.628 660.468,360.705 661.982,358.677 663.417,356.734 664.779,354.799 666.232,352.827 667.708,350.792 669.056,348.82 670.435,346.891 671.856,344.892 673.221,342.853 674.617,340.815 676.024,338.777 677.383,336.727 678.732,334.644 680.086,332.623 681.439,330.523 682.739,328.475 684.037,326.425 685.348,324.35 686.634,322.283 687.926,320.216 689.234,318.113 690.527,316.034 691.831,313.932 693.124,311.829 694.395,309.761 695.683,307.657 696.966,305.553 698.248,303.439 699.509,301.34 700.757,299.206 701.955,297.047 703.069,294.83 704.058,292.55 704.895,290.186 705.55,287.749 706.014,285.217 706.264,282.763 706.319,280.576 706.231,278.642 706.053,276.884 705.783,275.058 705.327,272.894 704.641,270.462 703.787,268.031 702.935,265.888 702.157,263.891 701.454,261.88 700.853,259.877 700.338,257.807 699.916,255.672 699.6,253.447 699.408,251.141 699.339,248.78 699.396,246.412 699.588,243.964 699.906,241.479 700.34,239.056 700.897,236.636 701.579,234.212 702.359,231.874 703.269,229.526 704.252,227.259 705.312,225.085 706.447,222.925 707.632,220.795 708.848,218.639 710.082,216.5 711.307,214.418 712.563,212.316 713.836,210.257 715.141,208.154 716.441,206.083 717.716,204.044 719.024,201.976 720.351,199.886 721.646,197.852 722.964,195.783 724.294,193.713 725.625,191.642 726.966,189.566 728.325,187.516 729.628,185.471 730.978,183.472 732.308,181.423 733.669,179.423 735.008,177.399 736.392,175.359 737.801,173.291 739.159,171.267 740.561,169.274 741.912,167.286 743.316,165.25 744.689,163.266 746.094,161.274 747.528,159.255 748.95,157.244 750.336,155.296 751.812,153.248 753.233,151.292 754.647,149.387 756.102,147.406 757.572,145.453 759.071,143.463 760.595,141.496 762.049,139.649 763.558,137.722 765.081,135.822 766.619,133.93 768.166,132.036 769.754,130.159 771.361,128.271 772.952,126.406 774.558,124.583 776.192,122.751 777.842,120.911 779.496,119.124 781.162,117.338 782.861,115.539 784.526,113.846 786.296,112.055 788.028,110.344 789.724,108.679 791.466,107.048 793.248,105.386 795.129,103.733 796.868,102.106 798.74,100.517 800.594,98.922 802.45,97.383 804.336,95.855 806.199,94.357 808.17,92.845 810.094,91.38 812.067,89.939 814.053,88.51 816.041,87.123 817.988,85.794 820.015,84.448 822.094,83.087 824.13,81.779 826.24,80.434 828.27,79.116 830.421,77.817 832.492,76.481 834.556,75.209 836.612,73.872 838.718,72.614 840.828,71.304 842.887,70.006 845.026,68.667 847.132,67.364 849.172,66.067 851.307,64.746 853.385,63.438 855.47,62.102 857.552,60.753 859.59,59.396 861.579,57.92 863.453,56.282 865.155,54.401 866.537,52.253 867.34,50.04 867.541,47.929 867.227,46.008 866.521,44.357 865.484,42.941 864.172,41.79 862.632,40.926 860.865,40.327 858.786,40.0 856.407,40.006 853.907,40.386 851.461,41.087 849.14,42.036 846.934,43.18 844.818,44.485 842.815,45.886 840.879,47.353 838.934,48.913 837.025,50.504 835.178,52.088 833.325,53.676 831.463,55.297 829.592,56.9 827.792,58.394 825.982,59.866 824.13,61.284 822.227,62.684 820.318,64.029 818.377,65.307 816.405,66.54 814.358,67.778 812.258,69.014 810.122,70.2 807.972,71.38 805.805,72.483 803.61,73.607 801.415,74.685 799.193,75.742 796.93,76.755 794.709,77.779 792.505,78.765 790.306,79.713 788.043,80.686 785.769,81.626 783.528,82.576 781.317,83.498 779.099,84.399 776.78,85.376 774.595,86.274 772.359,87.209 770.091,88.124 767.904,89.055 765.623,89.988 763.309,90.944 761.077,91.887 758.81,92.808 756.623,93.745 754.407,94.665 752.156,95.601 749.861,96.567 747.615,97.486 745.356,98.467 743.129,99.383 740.823,100.346 738.636,101.279 736.32,102.243 734.033,103.228 731.866,104.111 729.651,105.089 727.372,106.048 725.125,107.001 722.919,107.985 720.639,108.949 718.462,109.917 716.199,110.893 713.952,111.886 711.734,112.907 709.459,113.87 707.18,114.92 705.027,115.907 702.864,116.872 700.617,117.905 698.381,118.971 696.209,119.949 694.008,120.992 691.772,122.067 689.622,123.073 687.397,124.161 685.237,125.164 683.085,126.24 680.824,127.325 678.656,128.409 676.471,129.491 674.277,130.595 672.069,131.719 670.097,132.72 667.917,133.861 665.711,135.027 663.583,136.168 661.548,137.277 659.381,138.474 657.276,139.631 655.087,140.826 652.988,142.052 650.852,143.204 648.746,144.429 646.552,145.695 644.406,146.879 642.359,148.093 640.263,149.33 638.136,150.54 636.044,151.834 633.887,153.042 631.83,154.35 629.707,155.602 627.654,156.851 625.551,158.148 623.476,159.441 621.458,160.718 619.394,161.963 617.333,163.302 615.189,164.63 613.096,165.901 611.052,167.283 608.99,168.518 606.923,169.845 604.963,171.179 602.891,172.432 600.816,173.76 598.703,175.136 596.678,176.454 594.638,177.755 592.564,179.059 590.519,180.452 588.49,181.72 586.427,183.068 584.395,184.351 582.299,185.729 580.205,187.047 578.212,188.391 576.19,189.646 574.147,190.998 572.114,192.276 570.042,193.632 567.918,194.994 565.968,196.274 563.885,197.6 561.817,198.926 559.7,200.313 557.625,201.592 555.59,202.982 553.522,204.246 551.48,205.581 549.497,206.909 547.486,208.205 545.337,209.575 543.286,210.957 541.31,212.231 539.27,213.543 537.292,214.84 535.231,216.214 533.157,217.555 530.979,218.868 528.958,220.331 526.969,221.537 524.8,222.894 522.851,224.274 520.819,225.51 518.764,226.87 516.713,228.289 514.626,229.602 512.631,230.884 510.664,232.236 508.561,233.563 506.562,234.822 504.57,236.203 502.462,237.52 500.456,238.779 498.279,240.24 496.323,241.541 494.236,242.87 492.075,244.243 490.118,245.518 488.009,246.852 486.03,248.311 483.886,249.422 481.956,250.856 479.845,252.136 477.817,253.637 475.759,254.751 473.842,256.131 471.704,257.386 469.702,258.798 467.54,260.119 465.429,261.584 463.379,262.761 461.351,264.183 459.273,265.426 457.28,266.821 455.198,268.113 453.143,269.495 451.209,270.75 449.019,272.133 446.948,273.524 445.04,274.842 442.895,276.026 440.919,277.487 438.651,278.758 436.623,280.181 434.595,281.496 432.51,282.875 430.478,284.097 428.436,285.44 426.339,286.815 424.261,288.183 422.139,289.547 420.194,290.938 418.248,292.483 416.345,294.021 414.516,295.787 412.816,297.62 411.208,299.596 409.805,301.601 408.596,303.561 407.719,305.113 407.16,306.304 406.514,308.127 405.656,310.789 404.9,313.29 404.265,315.277 403.672,316.803 403.056,318.319 402.184,320.1 401.007,322.112 399.573,324.215 398.016,326.237 396.373,328.119 394.641,329.902 392.877,331.53 390.967,333.111 388.99,334.62 387.011,335.994 384.992,337.346 383.01,338.628 380.839,339.979 378.783,341.269 376.636,342.613 374.527,343.908 372.65,345.081 370.408,346.494 368.455,347.677 366.52,348.873 364.473,350.157 362.305,351.491 360.101,352.825 358.041,354.104 356.004,355.351 353.987,356.58 351.614,358.024 349.656,359.177 347.747,360.29 345.489,361.644 343.298,362.941 341.384,364.092 339.423,365.217 337.209,366.568 335.057,367.823 332.912,369.137 330.777,370.44 328.718,371.672 326.659,372.923 324.494,374.24 322.518,375.443 320.398,376.74 318.214,378.061 316.322,379.234 314.293,380.513 312.111,381.88 310.095,383.179 308.306,384.326 306.067,385.766 303.723,387.283 301.916,388.441 299.856,389.75 297.761,391.05 295.82,392.227 293.772,393.467 291.466,394.86 289.321,396.138 287.265,397.374 285.202,398.59 282.871,399.952 280.942,401.131 278.834,402.356 276.479,403.754 274.47,404.95 272.672,406.028 270.591,407.29 268.512,408.57 266.432,409.87 264.292,411.27 262.276,412.537 260.559,413.672 258.301,415.229 256.605,416.551 254.451,418.277 253.265,419.125 250.156,421.299" fill="none" stroke="white" stroke-width="4"
            stroke-linejoin="round" stroke-linecap="round"/>
</svg>
