<?xml version="1.0" encoding="utf-8"?>
<svg xmlns="http://www.w3.org/2000/svg" width="1000" height="600">
  <polyline points="211.067,204.705 212.607,206.599 214.155,208.49 215.693,210.364 217.218,212.268 218.75,214.169 220.269,216.055 221.764,217.897 223.292,219.77 224.859,221.673 226.417,223.567 227.99,225.48 229.547,227.342 231.068,229.192 232.614,231.064 234.175,232.935 235.729,234.836 237.303,236.731 238.811,238.584 240.325,240.428 241.879,242.319 243.459,244.228 245.023,246.112 246.54,247.935 248.067,249.776 249.642,251.662 251.242,253.564 252.769,255.416 254.31,257.246 255.912,259.14 257.507,261.046 259.049,262.905 260.559,264.704 262.141,266.573 263.754,268.478 265.285,270.339 266.83,272.178 268.41,274.056 269.971,275.937 271.529,277.802 273.072,279.67 274.646,281.549 276.195,283.417 277.722,285.255 279.312,287.144 280.871,289.028 282.425,290.853 283.991,292.701 285.57,294.593 287.16,296.444 288.696,298.257 290.272,300.113 291.862,302.002 293.44,303.838 295.012,305.698 296.592,307.557 298.139,309.389 299.725,311.229 301.297,313.112 302.877,314.953 304.441,316.817 306.008,318.68 307.573,320.508 309.142,322.405 310.729,324.289 312.263,326.114 313.829,327.974 315.411,329.869 316.962,331.7 318.526,333.566 320.114,335.445 321.652,337.293 323.237,339.164 324.833,341.056 326.386,342.916 327.934,344.785 329.513,346.635 331.059,348.486 332.632,350.359 334.185,352.195 335.747,354.043 337.354,355.94 338.882,357.8 340.462,359.624 342.041,361.528 343.644,363.395 345.177,365.24 346.738,367.06 348.312,368.949 349.872,370.821 351.45,372.662 353.012,374.549 354.577,376.419 356.112,378.278 357.681,380.148 359.267,381.987 360.808,383.893 362.343,385.787 363.915,387.593 365.474,389.47 367.051,391.383 368.579,393.223 370.156,395.085 371.756,397.008 373.301,398.83 374.821,400.714 376.425,402.614 377.991,404.522 379.539,406.404 381.098,408.303 382.657,410.188 384.171,412.082 385.715,413.981 387.287,415.891 388.818,417.814 390.357,419.707 391.901,421.606 393.45,423.519 394.998,425.429 396.538,427.324 398.083,429.234 399.62,431.147 401.154,433.043 402.714,434.934 404.376,436.766 406.212,438.453 408.289,439.864 410.458,440.763 412.37,441.098 414.121,440.99 416.099,440.448 418.327,439.648 420.529,439.056 422.444,438.928 424.214,439.258 426.096,440.19 427.923,441.764 429.438,443.733 430.623,445.859 431.609,448.061 432.497,450.328 433.333,452.603 434.144,454.867 434.948,457.144 435.751,459.445 436.56,461.717 437.37,464.005 438.217,466.299 439.089,468.56 440.014,470.79 440.957,472.977 441.965,475.143 443.023,477.302 444.123,479.423 445.254,481.517 446.461,483.629 447.711,485.732 448.974,487.783 450.274,489.811 451.596,491.786 452.942,493.763 454.352,495.769 455.786,497.736 457.225,499.675 458.694,501.6 460.187,503.527 461.712,505.461 463.216,507.341 464.719,509.204 466.265,511.097 467.828,513.001 469.392,514.885 470.958,516.743 472.525,518.584 474.108,520.41 475.707,522.217 477.342,524.0 479.005,525.765 480.72,527.532 482.439,529.241 484.152,530.899 485.957,532.561 487.77,534.181 489.592,535.745 491.467,537.283 493.38,538.767 495.302,540.191 497.251,541.554 499.24,542.89 501.266,544.173 503.358,545.44 505.454,546.64 507.563,547.786 509.731,548.897 511.868,549.934 514.029,550.926 516.279,551.887 518.497,552.786 520.729,553.608 523.004,554.407 525.295,555.149 527.589,555.833 529.852,556.455 532.143,557.025 534.458,557.566 536.793,558.034 539.176,558.458 541.594,558.847 544.002,559.173 546.381,559.436 548.757,559.654 551.164,559.813 553.579,559.929 556.021,559.996 558.47,560.0 560.878,559.956 563.301,559.867 565.724,559.717 568.127,559.53 570.538,559.275 572.974,558.988 575.404,558.632 577.789,558.252 580.146,557.823 582.499,557.348 584.881,556.823 587.267,556.262 589.623,555.649 591.959,554.997 594.287,554.3 596.607,553.568 598.908,552.801 601.181,552.011 603.442,551.178 605.727,550.298 608.006,549.394 610.253,548.464 612.49,547.497 614.712,546.491 616.916,545.464 619.108,544.4 621.291,543.309 623.465,542.19 625.63,541.045 627.788,539.876 629.942,538.688 632.069,537.488 634.149,536.298 636.226,535.115 638.316,533.893 640.411,532.651 642.507,531.399 644.587,530.141 646.667,528.873 648.773,527.593 650.872,526.292 652.909,525.049 654.924,523.793 657.027,522.506 659.141,521.184 661.219,519.89 663.215,518.638 665.263,517.384 667.38,516.048 669.473,514.738 671.474,513.475 673.542,512.192 675.648,510.87 677.696,509.582 679.722,508.311 681.761,507.018 683.855,505.705 685.939,504.39 687.987,503.092 690.066,501.777 692.137,500.461 694.177,499.165 696.217,497.879 698.278,496.567 700.37,495.233 702.438,493.92 704.504,492.603 706.572,491.278 708.643,489.95 710.711,488.627 712.774,487.302 714.84,485.977 716.905,484.657 718.974,483.341 721.047,482.042 723.14,480.77 725.288,479.571 727.519,478.53 729.857,477.698 732.238,477.156 734.473,476.977 736.437,477.106 738.339,477.472 740.473,478.156 742.785,479.053 745.008,479.858 746.96,480.406 748.86,480.749 751.087,480.894 753.562,480.788 756.037,480.422 758.404,479.845 760.692,479.109 762.947,478.268 765.177,477.389 767.403,476.517 769.647,475.653 771.892,474.791 774.148,473.937 776.429,473.104 778.716,472.291 781.013,471.531 783.296,470.791 785.616,470.067 787.954,469.366 790.289,468.678 792.607,468.002 794.921,467.337 797.271,466.669 799.612,466.012 801.941,465.363 804.277,464.723 806.645,464.07 808.99,463.429 811.323,462.789 813.696,462.142 816.047,461.491 818.372,460.849 820.697,460.202 823.039,459.545 825.389,458.881 827.737,458.214 830.043,457.556 832.352,456.889 834.707,456.191 837.05,455.459 839.405,454.663 841.714,453.781 843.965,452.774 846.151,451.612 848.234,450.326 850.214,448.923 852.043,447.383 853.682,445.736 855.163,444.0 856.54,442.125 857.768,440.163 858.836,438.119 859.742,436.007 860.478,433.834 861.058,431.6 861.476,429.314 861.724,426.994 861.794,424.641 861.691,422.23 861.406,419.817 860.937,417.385 860.302,414.958 859.528,412.605 858.635,410.319 857.632,408.096 856.537,405.929 855.349,403.784 854.124,401.679 852.873,399.608 851.596,397.517 850.304,395.457 849.002,393.404 847.691,391.341 846.415,389.302 845.137,387.235 843.881,385.148 842.657,383.058 841.45,380.955 840.256,378.855 839.066,376.741 837.877,374.616 836.693,372.483 835.505,370.338 834.32,368.203 833.148,366.094 831.961,363.975 830.747,361.819 829.533,359.679 828.304,357.55 827.053,355.459 825.74,353.396 824.313,351.368 822.757,349.441 821.054,347.642 819.244,346.032 817.388,344.669 815.51,343.537 813.602,342.573 811.616,341.735 809.419,340.997 807.026,340.397 804.556,339.964 802.085,339.7 799.603,339.607 797.145,339.662 794.716,339.853 792.322,340.112 789.922,340.399 787.516,340.716 785.135,341.047 782.739,341.4 780.327,341.76 777.913,342.112 775.509,342.449 773.092,342.798 770.697,343.104 768.311,343.418 765.902,343.713 763.511,344.001 761.101,344.277 758.674,344.556 756.266,344.833 753.861,345.106 751.451,345.375 749.014,345.639 746.572,345.906 744.189,346.165 741.816,346.421 739.366,346.676 736.952,346.947 734.538,347.194 732.122,347.454 729.715,347.703 727.295,347.952 724.896,348.205 722.435,348.441 720.033,348.687 717.627,348.916 715.175,349.131 712.782,349.352 710.375,349.552 707.936,349.745 705.511,349.927 703.056,350.09 700.631,350.247 698.229,350.396 695.805,350.53 693.403,350.648 690.968,350.749 688.513,350.828 686.093,350.891 683.699,350.939 681.286,350.963 678.866,350.977 676.451,350.959 674.028,350.927 671.621,350.881 669.187,350.816 666.745,350.734 664.335,350.635 661.907,350.529 659.485,350.402 657.071,350.264 654.639,350.115 652.23,349.952 649.801,349.778 647.368,349.587 644.966,349.392 642.565,349.178 640.115,348.961 637.676,348.728 635.314,348.489 632.889,348.255 630.427,347.999 628.038,347.74 625.629,347.484 623.181,347.22 620.778,346.963 618.361,346.68 615.911,346.415 613.524,346.149 611.094,345.873 608.645,345.61 606.25,345.334 603.806,345.072 601.401,344.819 598.991,344.552 596.58,344.279 594.175,344.04 591.722,343.737 589.326,343.491 586.924,343.219 584.491,342.941 582.088,342.664 579.674,342.39 577.266,342.111 574.824,341.834 572.423,341.55 570.004,341.281 567.584,341.007 565.177,340.737 562.724,340.467 560.309,340.163 557.875,339.926 555.483,339.62 553.06,339.374 550.649,339.073 548.214,338.833 545.797,338.537 543.418,338.275 540.981,338.009 538.576,337.725 536.16,337.486 533.742,337.189 531.313,336.943 528.918,336.666 526.5,336.41 524.06,336.158 521.642,335.902 519.254,335.64 516.846,335.387 514.416,335.13 511.996,334.861 509.591,334.626 507.186,334.372 504.776,334.123 502.34,333.877 499.887,333.606 497.447,333.374 495.02,333.104 492.592,332.839 490.155,332.6 487.698,332.339 485.236,332.084 482.808,331.821 480.366,331.571 477.946,331.31 475.533,331.032 473.104,330.697 470.664,330.281 468.226,329.739 465.84,329.066 463.522,328.229 461.366,327.255 459.432,326.189 457.687,325.022 455.976,323.67 454.263,322.082 452.592,320.302 451.008,318.388 449.562,316.434 448.202,314.443 446.868,312.475 445.499,310.589 444.003,308.742 442.441,307.016 440.827,305.415 439.064,303.861 437.174,302.393 435.228,301.076 433.226,299.899 431.13,298.83 428.983,297.883 426.803,297.06 424.585,296.358 422.327,295.759 419.982,295.203 417.565,294.624 415.18,293.974 412.863,293.239 410.73,292.456 408.778,291.643 406.801,290.719 404.739,289.646 402.629,288.424 400.514,287.069 398.462,285.623 396.507,284.11 394.624,282.527 392.824,280.882 391.09,279.173 389.415,277.401 387.819,275.587 386.259,273.732 384.697,271.852 383.135,269.971 381.579,268.097 380.031,266.23 378.49,264.362 376.936,262.479 375.375,260.602 373.858,258.748 372.304,256.886 370.748,254.991 369.194,253.127 367.657,251.256 366.114,249.397 364.554,247.51 363.004,245.622 361.445,243.767 359.894,241.881 358.353,240.021 356.798,238.161 355.23,236.26 353.68,234.388 352.14,232.533 350.606,230.668 349.051,228.806 347.503,226.928 345.934,225.017 344.359,223.127 342.834,221.285 341.297,219.43 339.741,217.554 338.195,215.689 336.645,213.818 335.078,211.937 333.529,210.064 331.987,208.205 330.433,206.333 328.877,204.456 327.33,202.594 325.783,200.725 324.232,198.851 322.664,196.969 321.083,195.077 319.516,193.212 317.971,191.354 316.417,189.513 314.854,187.656 313.275,185.776 311.713,183.925 310.163,182.088 308.587,180.219 306.996,178.342 305.425,176.476 303.837,174.618 302.244,172.743 300.677,170.889 299.118,169.057 297.546,167.214 295.981,165.362 294.389,163.512 292.806,161.665 291.26,159.807 289.667,157.953 288.078,156.102 286.516,154.257 284.948,152.449 283.369,150.559 281.758,148.69 280.167,146.843 278.597,145.004 277.012,143.176 275.452,141.319 273.858,139.477 272.26,137.646 270.685,135.792 269.079,133.951 267.486,132.099 265.908,130.288 264.309,128.443 262.74,126.612 261.14,124.76 259.577,122.92 257.987,121.092 256.384,119.235 254.8,117.362 253.201,115.506 251.634,113.647 250.043,111.827 248.489,109.983 246.93,108.176 245.324,106.321 243.732,104.442 242.176,102.634 240.593,100.777 239.008,98.944 237.422,97.077 235.858,95.238 234.261,93.377 232.729,91.549 231.125,89.687 229.493,87.77 227.957,85.945 226.404,84.128 224.831,82.256 223.248,80.407 221.668,78.544 220.089,76.679 218.536,74.871 216.946,73.001 215.356,71.135 213.774,69.266 212.227,67.415 210.655,65.57 209.065,63.683 207.496,61.823 205.88,59.961 204.294,58.114 202.706,56.285 201.091,54.453 199.397,52.65 197.645,50.878 195.857,49.235 193.923,47.61 191.951,46.129 189.932,44.804 187.857,43.632 185.747,42.623 183.516,41.753 181.293,41.067 179.075,40.561 176.862,40.223 174.565,40.026 172.298,40.0 170.011,40.15 167.684,40.48 165.439,40.984 163.218,41.67 161.074,42.476 158.979,43.495 156.852,44.661 154.921,45.959 152.977,47.446 151.186,49.065 149.484,50.825 147.885,52.682 146.395,54.648 145.03,56.716 143.786,58.827 142.704,61.021 141.687,63.423 140.824,65.761 140.065,68.198 139.496,70.544 139.014,73.079 138.641,75.514 138.39,78.112 138.252,80.482 138.206,83.021 138.23,85.445 138.318,88.028 138.507,90.408 138.902,92.866 139.372,95.438 139.92,97.875 140.493,100.146 141.175,102.619 141.907,104.937 142.717,107.223 143.566,109.453 144.492,111.771 145.504,114.082 146.497,116.31 147.606,118.503 148.682,120.556 149.764,122.743 151.011,124.9 152.312,127.089 153.575,129.134 154.919,131.188 156.356,133.395 157.598,135.276 158.989,137.375 160.277,139.271 161.816,141.366 163.236,143.415 164.509,145.185 165.937,147.259 167.346,149.132 168.602,150.794 170.26,152.991 171.702,154.919 173.348,157.103 174.784,158.998 176.339,161.043 177.847,163.018 179.251,164.85 180.661,166.684 182.221,168.704 183.789,170.727 184.791,172.016 186.469,174.168 187.815,175.891 189.7,178.296 191.01,179.962 192.649,182.039 194.335,184.167 195.713,185.9 197.123,187.665 198.689,189.617 200.188,191.475 201.543,193.148 203.204,195.195 204.568,196.872 206.423,199.148 208.07,201.165 208.987,202.286 211.067,204.705" fill="none" stroke="white" stroke-width="4"
            stroke-linejoin="round" stroke-linecap="round"/>
</svg>
