<?xml version="1.0" encoding="utf-8"?>
<svg xmlns="http://www.w3.org/2000/svg" width="1000" height="600">
  <polyline points="746.815,554.62 743.849,554.398 740.878,554.15 737.886,553.897 734.94,553.649 732.019,553.412 729.064,553.153 726.087,552.893 723.09,552.626 720.088,552.367 717.128,552.137 714.189,551.846 711.206,551.577 708.251,551.356 705.295,551.08 702.285,550.821 699.319,550.566 696.42,550.31 693.468,550.049 690.436,549.819 687.496,549.502 684.505,549.284 681.491,549.018 678.525,548.736 675.581,548.515 672.678,548.239 669.661,547.987 666.692,547.687 663.78,547.451 660.764,547.188 657.714,546.893 654.771,546.654 651.893,546.382 648.939,546.108 645.896,545.85 642.929,545.575 639.975,545.308 637.017,545.086 634.078,544.793 631.077,544.496 628.103,544.253 625.104,543.982 622.186,543.725 619.224,543.456 616.23,543.225 613.262,542.909 610.252,542.667 607.309,542.414 604.384,542.179 601.39,541.875 598.372,541.643 595.444,541.358 592.494,541.131 589.471,540.837 586.545,540.576 583.589,540.296 580.565,540.026 577.613,539.743 574.675,539.487 571.682,539.187 568.727,538.916 565.769,538.61 562.771,538.375 559.842,538.052 556.869,537.8 553.85,537.525 550.944,537.222 548.009,536.986 544.989,536.705 542.053,536.436 539.057,536.179 536.019,535.898 533.09,535.638 530.149,535.357 527.13,535.116 524.211,534.84 521.252,534.607 518.252,534.297 515.282,534.045 512.297,533.809 509.345,533.519 506.373,533.26 503.395,533.015 500.439,532.754 497.467,532.483 494.477,532.234 491.488,531.956 488.53,531.717 485.613,531.425 482.604,531.191 479.618,530.92 476.648,530.651 473.712,530.375 470.764,530.12 467.741,529.834 464.837,529.572 461.876,529.255 458.84,529.019 455.897,528.725 452.91,528.47 449.895,528.164 446.932,527.907 443.981,527.655 441.059,527.357 438.095,527.121 435.092,526.864 432.117,526.597 429.103,526.362 426.102,526.127 423.149,525.873 420.142,525.646 417.097,525.42 414.091,525.175 411.073,524.953 408.081,524.731 405.096,524.499 402.1,524.272 399.12,524.041 396.118,523.832 393.121,523.624 390.105,523.402 387.096,523.188 384.115,522.966 381.109,522.699 378.104,522.298 375.126,521.645 372.249,520.598 369.814,519.095 368.108,517.406 366.972,515.542 366.138,513.151 365.417,510.348 364.524,507.712 363.347,505.658 361.755,504.074 359.479,502.863 356.632,502.16 353.593,502.034 350.618,502.36 347.71,502.915 344.826,503.594 341.964,504.329 339.11,505.083 336.253,505.867 333.368,506.664 330.51,507.457 327.651,508.227 324.749,508.974 321.836,509.673 318.939,510.306 316.051,510.87 313.145,511.37 310.286,511.795 307.397,512.168 304.478,512.485 301.529,512.75 298.543,512.955 295.609,513.107 292.668,513.218 289.681,513.275 286.754,513.292 283.823,513.275 280.779,513.218 277.834,513.125 274.861,512.993 271.874,512.847 268.974,512.676 266.011,512.472 262.974,512.261 259.967,512.033 257.023,511.792 254.084,511.539 251.122,511.268 248.153,510.981 245.165,510.661 242.186,510.305 239.246,509.912 236.307,509.48 233.399,509.007 230.494,508.479 227.529,507.885 224.653,507.254 221.822,506.569 218.918,505.807 216.092,505.002 213.258,504.113 210.476,503.173 207.705,502.154 204.951,501.079 202.233,499.936 199.518,498.722 196.875,497.467 194.229,496.121 191.633,494.745 189.113,493.322 186.535,491.793 184.016,490.231 181.593,488.633 179.153,486.944 176.751,485.202 174.422,483.435 172.16,481.621 169.95,479.78 167.784,477.898 165.613,475.924 163.482,473.88 161.39,471.786 159.324,469.633 157.352,467.468 155.426,465.271 153.499,462.971 151.617,460.627 149.821,458.266 148.068,455.866 146.384,453.462 144.757,451.033 143.169,448.538 141.629,446.006 140.113,443.416 138.669,440.783 137.284,438.162 135.934,435.482 134.631,432.759 133.395,430.032 132.205,427.297 131.082,424.544 130.001,421.786 128.978,419.035 128.013,416.258 127.081,413.433 126.203,410.587 125.367,407.739 124.571,404.874 123.818,401.994 123.107,399.115 122.438,396.204 121.801,393.266 121.206,390.331 120.649,387.399 120.143,384.469 119.682,381.545 119.236,378.612 118.834,375.635 118.459,372.65 118.12,369.688 117.807,366.734 117.528,363.755 117.27,360.804 117.007,357.846 116.77,354.865 116.547,351.878 116.342,348.837 116.16,345.852 115.969,342.953 115.807,339.993 115.633,336.95 115.481,333.967 115.304,331.016 115.146,328.025 114.999,325.049 114.846,322.053 114.688,319.14 114.55,316.201 114.4,313.13 114.261,310.102 114.122,307.159 113.968,304.213 113.844,301.246 113.71,298.279 113.574,295.296 113.431,292.299 113.302,289.332 113.171,286.354 113.049,283.359 112.923,280.383 112.793,277.411 112.67,274.459 112.542,271.468 112.411,268.41 112.284,265.388 112.169,262.379 112.048,259.374 111.939,256.372 111.824,253.369 111.72,250.414 111.608,247.407 111.492,244.364 111.377,241.362 111.259,238.373 111.119,235.364 110.933,232.389 110.646,229.401 110.135,226.372 109.317,223.419 108.164,220.656 106.773,218.297 105.269,216.409 103.577,214.751 101.422,213.095 98.91,211.41 96.514,209.724 94.568,208.127 92.898,206.463 91.208,204.347 89.586,201.786 88.206,198.996 87.127,196.17 86.284,193.384 85.557,190.543 84.883,187.687 84.21,184.865 83.515,182.005 82.811,179.122 82.092,176.246 81.351,173.392 80.569,170.518 79.738,167.666 78.87,164.818 77.964,161.969 77.039,159.126 76.095,156.282 75.151,153.485 74.205,150.705 73.234,147.891 72.261,145.071 71.279,142.281 70.289,139.465 69.286,136.635 68.288,133.817 67.296,131.009 66.298,128.194 65.305,125.377 64.32,122.569 63.343,119.774 62.364,116.955 61.397,114.141 60.426,111.322 59.468,108.525 58.517,105.707 57.579,102.87 56.671,99.984 55.833,97.085 55.107,94.169 54.536,91.186 54.17,88.15 54.01,85.143 54.039,82.187 54.308,79.293 54.825,76.47 55.546,73.747 56.465,71.075 57.585,68.465 58.896,65.958 60.396,63.559 62.066,61.3 63.906,59.161 65.906,57.148 68.068,55.281 70.397,53.555 72.885,51.982 75.513,50.583 78.28,49.351 81.15,48.303 84.046,47.433 86.976,46.733 89.99,46.169 92.975,45.756 95.905,45.457 98.807,45.229 101.807,45.023 104.798,44.848 107.768,44.702 110.74,44.582 113.745,44.451 116.733,44.312 119.708,44.144 122.656,43.953 125.601,43.725 128.58,43.465 131.545,43.197 134.494,42.914 137.477,42.626 140.441,42.328 143.377,42.026 146.323,41.729 149.326,41.427 152.328,41.136 155.307,40.854 158.298,40.581 161.281,40.329 164.296,40.122 167.3,40.0 170.305,40.015 173.354,40.229 176.375,40.687 179.252,41.383 181.916,42.299 184.344,43.387 186.649,44.63 188.93,46.071 191.204,47.763 193.46,49.736 195.633,51.932 197.634,54.247 199.445,56.659 201.085,59.136 202.598,61.714 204.024,64.322 205.42,66.942 206.792,69.603 208.138,72.263 209.467,74.927 210.798,77.632 212.113,80.274 213.428,82.908 214.783,85.59 216.134,88.205 217.497,90.826 218.894,93.502 220.281,96.098 221.65,98.681 223.085,101.322 224.502,103.965 225.906,106.563 227.323,109.173 228.746,111.799 230.176,114.42 231.599,117.048 233.015,119.646 234.445,122.229 235.875,124.864 237.327,127.488 238.731,130.058 240.166,132.643 241.625,135.294 243.074,137.9 244.526,140.494 245.958,143.09 247.433,145.691 248.922,148.307 250.397,150.899 251.867,153.456 253.346,155.976 254.858,158.548 256.43,161.16 257.974,163.739 259.528,166.273 261.084,168.802 262.645,171.322 264.235,173.817 265.835,176.301 267.475,178.789 269.131,181.256 270.781,183.684 272.469,186.115 274.175,188.545 275.895,190.935 277.628,193.307 279.372,195.682 281.153,198.059 282.946,200.437 284.782,202.835 286.64,205.224 288.482,207.552 290.306,209.884 292.145,212.173 294.003,214.479 295.934,216.838 297.877,219.178 299.748,221.457 301.635,223.683 303.569,225.972 305.501,228.25 307.439,230.482 309.344,232.749 311.342,235.016 313.307,237.278 315.229,239.501 317.182,241.769 319.096,243.961 321.049,246.216 323.046,248.527 325.027,250.77 326.923,252.986 328.891,255.244 330.895,257.558 332.838,259.783 334.764,262.037 336.745,264.286 338.651,266.508 340.58,268.75 342.577,271.032 344.552,273.268 346.458,275.497 348.45,277.772 350.456,280.058 352.355,282.244 354.294,284.447 356.302,286.768 358.274,289.043 360.242,291.26 362.178,293.517 364.145,295.763 366.128,298.016 368.048,300.249 370.013,302.483 371.993,304.767 373.969,307.03 375.896,309.236 377.832,311.475 379.789,313.706 381.766,315.977 383.719,318.233 385.665,320.47 387.631,322.737 389.555,324.93 391.544,327.229 393.513,329.508 395.456,331.752 397.377,333.963 399.317,336.214 401.253,338.465 403.186,340.699 405.126,342.962 407.059,345.204 409.017,347.473 410.95,349.726 412.905,351.99 414.849,354.251 416.827,356.538 418.807,358.84 420.77,361.119 422.703,363.361 424.638,365.606 426.645,367.932 428.618,370.215 430.589,372.488 432.57,374.764 434.531,376.971 436.545,379.145 438.692,381.302 440.96,383.341 443.377,385.235 445.915,386.928 448.454,388.349 450.907,389.489 453.302,390.396 455.859,391.179 458.645,391.831 461.593,392.306 464.609,392.594 467.596,392.703 470.516,392.686 473.447,392.649 476.387,392.713 479.248,392.922 482.05,393.285 484.829,393.797 487.624,394.481 490.414,395.352 493.1,396.385 495.697,397.58 498.223,398.933 500.665,400.426 503.026,402.058 505.277,403.795 507.453,405.648 509.653,407.623 511.931,409.657 514.226,411.586 516.598,413.415 518.887,415.023 521.043,416.402 523.387,417.766 525.906,419.092 528.616,420.372 531.457,421.559 534.305,422.604 537.216,423.527 540.169,424.333 543.079,424.997 545.998,425.549 548.933,425.999 551.873,426.341 554.838,426.62 557.821,426.883 560.81,427.152 563.78,427.417 566.734,427.674 569.732,427.937 572.719,428.194 575.639,428.448 578.591,428.698 581.573,428.949 584.553,429.212 587.521,429.46 590.485,429.718 593.427,429.961 596.412,430.227 599.4,430.475 602.312,430.733 605.332,430.978 608.325,431.242 611.215,431.487 614.22,431.739 617.241,432.0 620.182,432.257 623.147,432.504 626.089,432.754 629.072,433.019 632.077,433.274 635.05,433.527 638.03,433.783 640.994,434.036 643.919,434.292 646.89,434.542 649.861,434.792 652.802,435.045 655.764,435.294 658.741,435.557 661.757,435.813 664.765,436.076 667.717,436.332 670.654,436.587 673.626,436.847 676.608,437.109 679.609,437.375 682.546,437.635 685.454,437.9 688.418,438.167 691.42,438.44 694.42,438.714 697.374,438.97 700.308,439.263 703.299,439.539 706.312,439.806 709.292,440.105 712.248,440.375 715.223,440.666 718.171,440.939 721.102,441.239 724.109,441.519 727.087,441.795 730.012,442.108 732.962,442.398 735.927,442.724 738.931,443.028 741.929,443.306 744.851,443.617 747.802,443.895 750.785,444.22 753.772,444.515 756.748,444.831 759.657,445.113 762.584,445.423 765.585,445.739 768.551,446.025 771.532,446.351 774.51,446.661 777.485,446.96 780.435,447.3 783.356,447.581 786.37,447.913 789.356,448.207 792.289,448.509 795.242,448.835 798.216,449.113 801.189,449.44 804.118,449.698 807.074,450.031 810.1,450.325 813.069,450.625 815.968,450.902 818.937,451.184 821.954,451.517 824.923,451.809 827.844,452.063 830.851,452.384 833.832,452.69 836.729,452.96 839.747,453.24 842.725,453.531 845.683,453.835 848.66,454.112 851.62,454.369 854.53,454.673 857.536,454.931 860.523,455.225 863.435,455.512 866.46,455.776 869.429,456.088 872.331,456.362 875.343,456.635 878.382,456.938 881.34,457.209 884.22,457.503 887.152,457.779 890.163,458.065 893.189,458.362 896.175,458.669 899.175,458.968 902.171,459.289 905.123,459.651 908.071,460.066 911.043,460.593 914.02,461.233 916.995,462.023 919.886,462.967 922.646,464.058 925.291,465.316 927.776,466.73 930.174,468.32 932.429,470.082 934.506,471.965 936.456,473.982 938.257,476.159 939.868,478.431 941.307,480.84 942.581,483.412 943.654,486.006 944.525,488.71 945.185,491.509 945.657,494.334 945.942,497.244 945.99,500.163 945.809,503.116 945.423,506.067 944.82,509.025 944.033,511.92 943.072,514.766 941.929,517.581 940.632,520.286 939.153,523.009 937.527,525.648 935.774,528.152 933.91,530.564 931.888,532.905 929.695,535.174 927.465,537.277 925.171,539.265 922.725,541.164 920.243,542.92 917.686,544.616 915.101,546.148 912.455,547.62 909.712,549.005 906.99,550.197 904.209,551.342 901.354,552.413 898.483,553.393 895.577,554.304 892.633,555.16 889.758,555.881 886.78,556.558 883.83,557.161 880.89,557.685 877.917,558.12 874.92,558.504 871.894,558.846 868.93,559.098 865.996,559.343 862.99,559.489 859.964,559.655 856.97,559.756 853.959,559.848 850.924,559.923 847.975,559.96 845.001,559.997 842.023,560.0 839.068,559.994 836.107,559.977 833.147,559.906 830.188,559.853 827.249,559.755 824.177,559.662 821.276,559.522 818.299,559.34 815.258,559.143 812.274,558.945 809.42,558.767 806.337,558.556 803.194,558.385 800.236,558.173 797.425,558.044 794.523,557.831 791.459,557.694 788.262,557.493 785.405,557.278 782.501,557.129 779.676,557.105 776.812,557.022 773.844,556.735 770.41,556.345 767.494,556.135 764.69,555.929 761.645,555.702 758.712,555.48 755.774,555.255 752.831,555.026 751.063,554.887 746.815,554.62" fill="none" stroke="white" stroke-width="4"
            stroke-linejoin="round" stroke-linecap="round"/>
  <line x1="748.308" y1="534.676" x2="745.322" y2="574.564" stroke="red" stroke-width="3" stroke-linecap="round"/>
</svg>
