<?xml version="1.0" encoding="utf-8"?>
<svg xmlns="http://www.w3.org/2000/svg" width="1000" height="600">
  <polyline points="585.915,548.891 581.578,548.688 577.239,548.481 572.924,548.271 568.641,548.088 564.346,547.889 559.996,547.683 555.656,547.488 551.299,547.27 546.923,547.075 542.612,546.879 538.314,546.676 533.936,546.486 529.558,546.282 525.24,546.077 520.96,545.903 516.655,545.706 512.266,545.495 507.9,545.299 503.599,545.103 499.281,544.903 494.916,544.697 490.628,544.505 486.303,544.292 481.945,544.104 477.611,543.907 473.248,543.705 468.936,543.514 464.612,543.307 460.281,543.125 455.902,542.928 451.559,542.733 447.313,542.549 442.945,542.377 438.541,542.186 434.263,542.002 429.993,541.823 425.56,541.637 421.151,541.437 416.855,541.27 412.567,541.092 408.304,540.9 403.868,540.74 399.43,540.556 395.189,540.381 390.944,540.215 386.544,540.036 382.219,539.865 377.897,539.676 373.46,539.509 369.169,539.33 364.908,539.157 360.558,538.996 356.233,538.822 351.934,538.66 347.522,538.507 343.143,538.336 338.831,538.171 334.463,538.021 330.152,537.859 325.811,537.696 321.463,537.544 317.228,537.381 312.847,537.231 308.447,537.069 304.179,536.913 299.778,536.76 295.413,536.608 291.152,536.451 286.733,536.302 282.46,536.154 278.179,536.002 273.744,535.836 269.467,535.699 265.161,535.533 260.754,535.373 256.454,535.238 252.103,535.072 247.699,534.901 243.394,534.785 239.116,534.597 234.756,534.468 230.383,534.302 226.022,534.151 221.715,533.978 217.4,533.85 213.018,533.674 208.678,533.52 204.297,533.377 199.864,533.206 195.476,533.068 191.107,532.912 186.743,532.749 182.384,532.61 177.981,532.449 173.625,532.283 169.223,532.132 164.826,531.963 160.488,531.81 156.105,531.639 151.7,531.448 147.359,531.219 143.001,530.889 138.635,530.316 134.281,529.428 129.971,528.033 125.814,525.768 122.543,522.756 120.864,520.275 120.141,518.661 119.64,516.906 119.388,514.104 119.906,510.088 121.521,505.908 123.855,502.208 126.637,498.871 129.668,495.784 132.745,492.77 135.754,489.68 138.597,486.429 141.199,482.991 143.57,479.314 145.483,475.717 146.88,472.563 147.914,469.67 148.809,466.537 149.593,462.727 150.156,458.322 150.385,453.758 150.258,449.277 149.806,444.85 149.114,440.507 148.242,436.262 147.196,432.067 145.992,427.885 144.724,423.784 143.474,419.729 142.283,415.653 141.248,411.67 140.329,407.699 139.55,403.7 138.879,399.758 138.352,395.658 137.924,391.453 137.608,387.223 137.42,382.9 137.379,378.455 137.436,374.011 137.592,369.705 137.891,365.385 138.241,361.027 138.708,356.712 139.281,352.37 139.894,348.051 140.578,343.803 141.322,339.545 142.076,335.272 142.892,331.022 143.717,326.771 144.493,322.551 145.372,318.291 146.203,314.036 147.023,309.809 147.92,305.533 148.788,301.229 149.614,296.976 150.446,292.785 151.321,288.5 152.142,284.18 152.982,279.965 153.79,275.731 154.621,271.493 155.438,267.23 156.272,262.957 157.109,258.702 157.903,254.465 158.715,250.213 159.525,245.924 160.345,241.638 161.159,237.381 161.955,233.132 162.756,228.893 163.547,224.64 164.355,220.374 165.166,216.12 166.0,211.878 166.792,207.595 167.609,203.3 168.414,199.012 169.234,194.786 170.044,190.635 170.828,186.314 171.648,182.028 172.46,177.729 173.243,173.457 174.038,169.335 174.833,165.07 175.632,160.695 176.403,156.456 177.207,152.212 177.991,147.927 178.754,143.665 179.497,139.431 180.311,135.154 181.079,130.821 181.835,126.497 182.618,122.216 183.378,117.959 184.142,113.625 184.9,109.307 185.696,105.024 186.447,100.701 187.207,96.399 187.882,92.115 188.712,87.772 189.489,83.426 190.312,79.147 191.195,74.865 192.215,70.572 193.457,66.348 194.965,62.195 196.831,58.114 199.149,54.121 201.944,50.421 204.729,47.57 207.041,45.689 209.065,44.316 211.028,43.229 213.188,42.219 215.817,41.282 219.133,40.478 223.029,40.004 227.208,40.0 231.411,40.516 235.724,41.553 240.067,43.13 244.335,45.299 248.198,47.837 251.614,50.577 254.786,53.545 257.713,56.664 260.457,59.938 263.101,63.36 265.679,66.876 268.216,70.421 270.679,73.937 273.144,77.472 275.579,80.981 278.058,84.53 280.489,88.012 282.937,91.488 285.37,94.912 287.861,98.337 290.486,101.856 293.19,105.335 295.901,108.667 298.664,111.979 301.592,115.282 304.494,118.438 307.522,121.502 310.655,124.521 313.863,127.418 317.161,130.248 320.491,132.941 323.832,135.499 327.23,137.939 330.711,140.322 334.217,142.622 337.719,144.789 341.257,146.926 344.851,149.004 348.434,151.011 352.139,153.149 355.935,155.391 359.631,157.802 363.313,160.478 366.801,163.364 369.955,166.342 372.806,169.42 375.372,172.587 377.642,175.801 379.682,179.13 381.494,182.577 383.054,186.071 384.405,189.688 385.571,193.494 386.466,197.481 387.146,201.683 387.549,206.034 387.684,210.417 387.617,214.8 387.385,219.158 387.106,223.438 386.859,227.714 386.725,231.982 386.778,236.162 387.005,240.198 387.44,244.043 388.057,247.971 388.909,251.945 389.994,255.846 391.318,259.701 392.88,263.547 394.721,267.34 396.838,271.138 399.239,274.866 401.827,278.435 404.651,281.905 407.644,285.223 410.712,288.318 413.896,291.199 417.196,293.997 420.687,296.672 424.212,299.221 427.76,301.634 431.441,303.956 435.217,306.219 438.999,308.353 442.851,310.469 446.721,312.603 450.605,314.707 454.464,316.853 458.317,319.054 462.133,321.307 465.887,323.604 469.611,325.947 473.326,328.372 476.991,330.842 480.564,333.364 484.052,336.016 487.35,338.868 490.418,342.02 493.207,345.679 495.395,349.892 496.557,354.223 496.701,357.967 496.214,360.914 495.33,363.49 493.809,366.303 491.345,369.36 488.077,372.047 484.16,374.107 479.796,375.516 475.324,376.303 470.835,376.578 466.322,376.454 461.917,376.052 457.657,375.48 453.419,374.8 449.13,374.047 444.912,373.24 440.691,372.381 436.441,371.479 432.236,370.56 428.0,369.601 423.769,368.618 419.571,367.608 415.305,366.611 411.076,365.592 406.874,364.578 402.645,363.57 398.41,362.535 394.141,361.488 389.94,360.467 385.747,359.435 381.533,358.395 377.299,357.359 373.1,356.338 368.869,355.311 364.606,354.304 360.401,353.321 356.201,352.379 351.973,351.463 347.7,350.571 343.4,349.713 339.112,348.907 334.897,348.18 330.706,347.489 326.37,346.843 321.978,346.264 317.757,345.812 313.475,345.458 309.04,345.196 304.652,345.064 300.232,345.068 295.852,345.202 291.462,345.488 287.085,345.92 282.923,346.477 278.801,347.169 274.651,348.024 270.585,349.032 266.504,350.225 262.442,351.616 258.388,353.24 254.377,355.11 250.444,357.254 246.624,359.715 243.024,362.491 239.746,365.544 236.831,368.816 234.229,372.357 232.036,376.227 230.538,380.664 230.157,385.191 230.649,388.375 231.24,390.073 232.014,391.619 234.004,394.352 237.548,397.46 241.58,399.627 245.691,401.072 249.878,402.108 254.125,402.906 258.36,403.553 262.638,404.133 266.966,404.67 271.309,405.16 275.604,405.604 279.899,406.027 284.182,406.435 288.482,406.821 292.824,407.219 297.13,407.584 301.468,407.981 305.808,408.313 310.131,408.686 314.48,409.018 318.792,409.345 323.111,409.656 327.462,409.934 331.773,410.218 336.122,410.482 340.448,410.735 344.735,410.986 349.133,411.199 353.477,411.43 357.782,411.658 362.156,411.865 366.444,412.088 370.755,412.31 375.116,412.493 379.412,412.725 383.749,412.937 388.085,413.128 392.374,413.336 396.736,413.553 401.034,413.749 405.317,413.927 409.756,414.136 414.118,414.332 418.368,414.508 422.639,414.672 427.025,414.874 431.411,415.049 435.737,415.279 440.069,415.463 444.442,415.622 448.816,415.828 453.146,416.005 457.38,416.194 461.655,416.384 465.99,416.565 470.342,416.78 474.711,416.983 479.051,417.225 483.384,417.389 487.731,417.618 492.07,417.833 496.394,418.048 500.737,418.286 505.07,418.544 509.415,418.765 513.702,418.962 518.0,419.221 522.384,419.458 526.682,419.726 530.943,419.924 535.336,420.167 539.794,420.426 544.067,420.64 548.31,420.905 552.676,421.161 557.017,421.395 561.382,421.654 565.702,421.875 569.992,422.153 574.376,422.402 578.691,422.652 583.007,422.906 587.364,423.159 591.682,423.412 596.079,423.64 600.479,423.905 604.741,424.145 609.017,424.365 613.436,424.631 617.828,424.854 622.167,425.111 626.545,425.331 630.924,425.562 635.293,425.766 639.597,425.954 643.963,426.096 648.36,426.119 652.737,425.989 657.139,425.597 661.61,424.886 665.999,423.829 670.192,422.391 674.053,420.611 677.407,418.666 680.361,416.55 683.08,414.214 685.673,411.568 688.112,408.596 690.418,405.201 692.523,401.386 694.264,397.369 695.646,393.161 696.66,388.769 697.285,384.287 697.519,379.846 697.376,375.345 696.879,370.826 696.071,366.363 694.928,361.995 693.485,357.729 691.744,353.532 689.736,349.517 687.479,345.633 684.943,341.928 682.234,338.416 679.31,335.093 676.207,331.953 672.927,328.979 669.468,326.168 665.928,323.549 662.321,321.156 658.638,318.888 654.88,316.75 651.12,314.75 647.365,312.874 643.589,311.09 639.74,309.338 635.827,307.646 631.91,306.005 627.97,304.39 623.964,302.753 620.01,301.117 616.067,299.471 612.057,297.75 608.081,295.949 604.149,294.001 600.249,291.925 596.425,289.686 592.787,287.331 589.261,284.799 585.856,282.108 582.62,279.303 579.537,276.34 576.583,273.278 573.784,270.057 571.155,266.725 568.679,263.313 566.405,259.809 564.28,256.255 562.333,252.589 560.53,248.81 558.887,244.965 557.441,241.047 556.144,237.092 555.054,233.046 554.13,228.924 553.402,224.861 552.871,220.751 552.468,216.529 552.304,212.298 552.266,208.006 552.441,203.74 552.816,199.452 553.343,195.163 554.072,190.883 555.006,186.494 556.092,182.283 557.365,178.015 558.813,173.836 560.426,169.781 562.128,165.803 563.958,161.897 565.866,157.933 567.778,154.099 569.671,150.271 571.658,146.362 573.656,142.409 575.621,138.528 577.615,134.671 579.657,130.776 581.799,126.876 584.072,122.961 586.435,119.226 589.0,115.599 591.804,112.055 594.841,108.688 598.078,105.59 601.563,102.796 605.338,100.346 609.293,98.339 613.379,96.782 617.543,95.695 621.655,95.055 625.586,94.823 629.233,94.945 632.74,95.409 636.381,96.253 640.251,97.575 644.224,99.364 648.093,101.578 651.735,104.135 655.154,107.017 658.342,110.188 661.234,113.574 663.884,117.135 666.308,120.82 668.561,124.58 670.702,128.35 672.805,132.119 674.898,135.933 676.954,139.704 679.008,143.512 681.08,147.374 683.104,151.183 685.136,154.987 687.152,158.838 689.189,162.678 691.209,166.495 693.194,170.275 695.199,174.081 697.225,177.933 699.258,181.769 701.26,185.609 703.284,189.466 705.307,193.326 707.344,197.222 709.383,201.073 711.404,204.848 713.433,208.714 715.473,212.513 717.505,216.303 719.579,220.127 721.617,223.957 723.708,227.767 725.751,231.599 727.843,235.424 729.917,239.225 731.958,243.031 734.06,246.825 736.151,250.648 738.223,254.437 740.279,258.209 742.371,262.003 744.529,265.832 746.632,269.64 748.725,273.375 750.813,277.105 752.919,280.873 755.047,284.693 757.183,288.528 759.28,292.328 761.382,296.115 763.509,299.931 765.62,303.721 767.727,307.504 769.842,311.245 771.857,314.969 773.962,318.721 776.097,322.573 778.209,326.397 780.276,330.179 782.402,333.969 784.549,337.789 786.64,341.622 788.724,345.394 790.791,349.125 792.894,352.88 795.017,356.717 797.151,360.557 799.261,364.366 801.363,368.161 803.487,371.954 805.629,375.719 807.722,379.517 809.828,383.293 811.926,386.986 814.079,390.814 816.24,394.665 818.347,398.437 820.506,402.191 822.623,405.978 824.755,409.701 826.886,413.461 829.075,417.311 831.232,421.053 833.332,424.785 835.504,428.556 837.712,432.376 839.859,436.073 841.98,439.777 844.241,443.675 846.422,447.412 848.492,451.031 850.689,454.863 852.895,458.663 855.075,462.43 857.255,466.213 859.537,470.068 861.703,473.851 863.889,477.696 866.122,481.411 868.393,485.26 870.565,489.122 872.652,492.936 874.676,496.797 876.541,500.692 878.19,504.789 879.517,509.129 880.363,513.595 880.612,518.27 880.257,522.783 879.567,526.294 878.74,529.016 877.651,531.651 875.848,534.985 873.274,538.755 870.28,542.258 866.944,545.373 863.392,548.039 859.664,550.331 855.78,552.319 851.774,554.052 847.492,555.593 843.141,556.883 838.604,557.955 834.109,558.775 829.657,559.359 825.182,559.732 820.613,559.942 816.172,560.0 811.876,559.965 807.466,559.87 803.018,559.708 798.649,559.507 794.47,559.368 790.032,559.17 785.77,558.919 781.677,558.63 777.232,558.324 772.783,558.039 768.443,557.818 764.149,557.576 759.813,557.337 755.436,557.099 751.117,556.837 746.758,556.625 742.271,556.379 738.127,556.152 733.953,555.923 729.466,555.653 725.037,555.467 720.797,555.189 716.407,554.988 712.096,554.766 707.856,554.522 703.585,554.203 699.228,553.843 694.939,553.634 690.621,553.411 686.15,553.253 681.661,552.969 677.412,552.792 673.146,552.558 668.733,552.335 664.428,552.159 660.246,551.956 656.047,551.753 651.554,551.48 647.042,551.318 642.933,550.779 638.562,550.441 634.34,550.239 629.885,550.02 625.427,549.812 621.158,549.609 617.049,549.406 612.455,549.135 608.19,548.932 603.915,548.728 599.629,548.524 595.333,548.319 592.75,548.197 585.915,548.891" fill="none" stroke="white" stroke-width="4"
            stroke-linejoin="round" stroke-linecap="round"/>
  <line x1="586.850" y1="528.913" x2="584.980" y2="568.869" stroke="red" stroke-width="3" stroke-linecap="round"/>
</svg>
