<?xml version="1.0" encoding="utf-8"?>
<svg xmlns="http://www.w3.org/2000/svg" width="1000" height="600">
  <polyline points="586.013,548.805 581.774,548.498 577.432,548.399 572.961,548.154 568.565,547.902 564.32,547.788 560.242,547.527 555.9,547.324 551.444,547.156 547.058,546.948 542.756,546.753 538.412,546.574 534.044,546.365 529.887,546.106 525.526,545.996 521.082,545.744 516.61,545.569 512.347,545.352 508.217,545.176 503.649,544.931 499.334,544.702 495.13,544.613 490.652,544.279 486.306,544.13 482.061,544.044 477.722,543.715 473.296,543.558 468.985,543.399 464.647,543.163 460.29,542.932 455.972,542.845 451.712,542.547 447.289,542.413 442.913,542.234 438.719,542.007 434.363,541.859 430.008,541.615 425.579,541.487 421.342,541.29 417.01,541.14 412.582,540.91 408.363,540.772 404.056,540.556 399.506,540.343 395.14,540.27 390.827,540.048 386.481,539.848 382.137,539.677 377.865,539.504 373.631,539.372 369.21,539.11 364.774,539.045 360.579,538.817 356.173,538.628 351.751,538.481 347.462,538.336 343.149,538.153 338.841,538.021 334.518,537.869 330.193,537.704 325.863,537.581 321.533,537.344 317.174,537.199 312.76,537.16 308.45,536.875 304.071,536.811 299.866,536.653 295.364,536.458 291.236,536.337 286.881,536.197 282.668,536.053 278.278,535.933 273.733,535.726 269.445,535.659 265.119,535.466 260.749,535.305 256.265,535.234 252.117,535.015 247.765,534.884 243.414,534.768 239.078,534.664 234.731,534.466 230.325,534.374 226.087,534.192 221.814,534.11 217.286,533.935 212.825,533.816 208.481,533.678 204.032,533.529 199.661,533.389 195.343,533.264 191.012,533.119 186.712,532.981 182.282,532.828 177.818,532.686 173.451,532.535 169.138,532.355 164.725,532.243 160.334,532.052 155.945,531.916 151.561,531.693 147.27,531.503 142.89,531.149 138.531,530.594 134.172,529.735 129.819,528.326 125.683,526.124 122.418,523.156 120.684,520.654 119.919,519.021 119.427,517.244 119.179,514.38 119.725,510.386 121.362,506.214 123.711,502.508 126.487,499.204 129.503,496.114 132.59,493.1 135.585,489.982 138.475,486.703 141.094,483.282 143.408,479.623 145.373,475.943 146.726,472.879 147.78,469.906 148.702,466.71 149.467,463.032 150.037,458.542 150.261,453.952 150.109,449.52 149.673,445.093 148.958,440.77 148.037,436.528 146.97,432.386 145.783,428.208 144.465,424.074 143.223,420.056 142.013,416.025 140.945,412.001 140.03,408.089 139.232,404.083 138.517,400.043 137.959,396.004 137.54,391.856 137.228,387.428 137.009,383.01 136.971,378.681 137.004,374.317 137.203,369.906 137.446,365.569 137.884,361.115 138.287,356.86 138.851,352.546 139.483,348.309 140.151,343.935 140.925,339.566 141.736,335.312 142.473,331.153 143.323,326.93 144.146,322.676 145.006,318.409 145.83,314.158 146.731,309.94 147.57,305.575 148.452,301.439 149.341,297.199 150.161,292.923 151.007,288.752 151.922,284.361 152.723,280.163 153.588,275.871 154.447,271.475 155.224,267.277 156.112,263.214 156.938,258.886 157.784,254.601 158.601,250.461 159.422,246.185 160.23,241.982 161.109,237.62 161.939,233.438 162.77,229.09 163.608,224.879 164.389,220.681 165.29,216.24 166.029,211.965 166.894,207.896 167.576,203.491 168.576,199.25 169.25,194.948 169.996,190.691 170.808,186.565 171.704,182.182 172.375,177.9 173.25,173.63 174.043,169.339 174.751,165.197 175.6,160.894 176.38,156.666 177.157,152.388 177.886,148.112 178.803,143.743 179.512,139.495 180.219,135.264 181.055,130.85 181.883,126.561 182.602,122.384 183.305,118.02 184.129,113.645 184.84,109.388 185.619,105.085 186.441,100.865 187.151,96.538 187.961,92.174 188.753,87.847 189.52,83.616 190.36,79.252 191.257,74.904 192.286,70.754 193.481,66.541 195.009,62.349 196.89,58.161 199.183,54.141 201.922,50.474 204.617,47.66 206.885,45.753 208.952,44.337 210.948,43.165 213.17,42.145 215.75,41.228 219.037,40.44 222.958,40.011 227.129,40.0 231.336,40.55 235.622,41.607 239.949,43.205 244.21,45.35 248.078,47.892 251.55,50.68 254.719,53.635 257.649,56.746 260.437,60.059 263.072,63.46 265.667,66.993 268.178,70.526 270.629,74.025 273.126,77.617 275.541,81.11 277.947,84.591 280.34,88.051 282.804,91.513 285.285,95.057 287.805,98.5 290.419,101.994 293.053,105.391 295.801,108.776 298.602,112.115 301.441,115.34 304.388,118.54 307.46,121.649 310.591,124.654 313.875,127.624 317.077,130.37 320.489,133.097 323.891,135.694 327.333,138.151 330.778,140.482 334.253,142.753 337.71,144.897 341.345,147.065 344.774,149.04 348.405,151.078 352.202,153.242 356.026,155.517 359.742,157.948 363.373,160.615 366.732,163.399 369.928,166.433 372.776,169.541 375.36,172.762 377.586,175.961 379.56,179.253 381.347,182.7 382.903,186.223 384.278,189.915 385.421,193.685 386.358,197.744 387.028,201.869 387.45,206.155 387.623,210.552 387.57,214.974 387.358,219.312 387.086,223.62 386.85,227.915 386.75,232.201 386.831,236.452 387.094,240.403 387.546,244.365 388.165,248.194 388.993,252.06 390.046,255.903 391.359,259.794 392.891,263.6 394.745,267.506 396.845,271.331 399.197,275.056 401.805,278.684 404.579,282.156 407.504,285.437 410.657,288.635 413.854,291.597 417.131,294.361 420.561,297.03 424.131,299.592 427.792,302.066 431.434,304.375 435.101,306.582 439.025,308.771 442.883,310.927 446.739,312.977 450.552,315.052 454.425,317.223 458.278,319.41 462.081,321.633 465.826,323.915 469.597,326.279 473.319,328.689 477.0,331.147 480.625,333.693 484.119,336.328 487.391,339.151 490.445,342.284 493.246,345.958 495.438,350.188 496.593,354.496 496.732,358.232 496.251,361.188 495.38,363.749 493.883,366.544 491.41,369.607 488.084,372.324 484.166,374.37 479.834,375.769 475.393,376.558 470.88,376.844 466.41,376.723 462.021,376.318 457.776,375.74 453.397,375.032 449.096,374.257 444.917,373.456 440.658,372.6 436.484,371.712 432.306,370.793 428.001,369.812 423.852,368.852 419.59,367.837 415.313,366.828 411.053,365.803 406.888,364.812 402.654,363.786 398.408,362.744 394.189,361.733 390.058,360.72 385.762,359.649 381.52,358.615 377.272,357.575 373.04,356.542 368.919,355.525 364.647,354.53 360.366,353.536 356.18,352.586 351.893,351.648 347.62,350.767 343.365,349.927 339.14,349.135 334.912,348.401 330.623,347.702 326.329,347.06 322.105,346.508 317.76,346.04 313.398,345.675 309.058,345.421 304.633,345.28 300.266,345.282 295.812,345.426 291.394,345.708 287.054,346.133 282.921,346.689 278.699,347.404 274.672,348.23 270.537,349.265 266.447,350.464 262.436,351.842 258.322,353.497 254.278,355.385 250.4,357.504 246.574,359.971 242.98,362.744 239.673,365.829 236.762,369.089 234.148,372.637 231.975,376.467 230.472,380.901 230.077,385.452 230.553,388.611 231.153,390.338 231.941,391.911 233.897,394.595 237.452,397.729 241.498,399.914 245.599,401.357 249.815,402.404 254.033,403.202 258.31,403.872 262.589,404.468 266.883,405.011 271.21,405.531 275.473,405.996 279.728,406.431 284.14,406.882 288.422,407.294 292.717,407.682 297.089,408.045 301.403,408.444 305.748,408.834 310.17,409.184 314.461,409.496 318.711,409.838 323.067,410.156 327.429,410.438 331.769,410.729 336.035,411.009 340.425,411.246 344.701,411.504 349.143,411.757 353.456,411.95 357.709,412.166 362.052,412.4 366.346,412.638 370.638,412.814 374.988,413.058 379.376,413.241 383.716,413.463 388.105,413.689 392.282,413.88 396.612,414.077 401.035,414.295 405.406,414.482 409.755,414.688 414.092,414.923 418.49,415.097 422.519,415.299 426.993,415.479 431.374,415.735 435.685,415.902 440.02,416.086 444.401,416.309 448.752,416.496 453.049,416.701 457.34,416.897 461.734,417.098 466.067,417.31 470.368,417.494 474.629,417.689 479.045,417.936 483.427,418.136 487.76,418.311 491.907,418.548 496.319,418.768 500.75,418.973 505.108,419.235 509.416,419.455 513.667,419.671 518.117,419.894 522.446,420.123 526.741,420.367 531.005,420.575 535.346,420.801 539.712,421.022 544.075,421.235 548.425,421.438 552.786,421.679 557.057,421.883 561.445,422.123 565.948,422.39 570.264,422.621 574.542,422.857 578.826,423.061 583.251,423.307 587.641,423.532 591.915,423.783 596.184,423.971 600.673,424.234 604.914,424.465 609.242,424.682 613.588,424.935 617.928,425.146 622.239,425.39 626.646,425.585 630.923,425.83 635.38,426.064 639.826,426.231 644.22,426.358 648.531,426.447 652.94,426.302 657.254,425.958 661.722,425.274 666.24,424.196 670.365,422.751 674.136,421.031 677.552,419.02 680.528,416.887 683.205,414.589 685.801,411.899 688.274,408.872 690.553,405.466 692.638,401.713 694.42,397.607 695.83,393.268 696.819,388.887 697.435,384.56 697.648,380.115 697.53,375.615 697.03,371.128 696.224,366.638 695.089,362.244 693.641,358.001 691.902,353.826 689.918,349.847 687.616,345.947 685.089,342.227 682.371,338.743 679.377,335.362 676.258,332.216 672.942,329.209 669.566,326.502 666.094,323.973 662.354,321.476 658.605,319.218 654.951,317.127 651.271,315.18 647.499,313.295 643.624,311.47 639.802,309.725 635.975,308.036 632.052,306.385 628.044,304.727 624.034,303.071 620.106,301.422 616.191,299.794 612.143,298.058 608.176,296.21 604.265,294.293 600.355,292.215 596.512,289.972 592.925,287.618 589.427,285.119 585.899,282.356 582.743,279.59 579.585,276.584 576.7,273.567 573.873,270.332 571.215,266.993 568.79,263.664 566.447,260.092 564.256,256.429 562.26,252.7 560.535,249.009 558.923,245.222 557.437,241.274 556.151,237.354 555.056,233.323 554.116,229.17 553.396,225.088 552.803,220.896 552.43,216.668 552.209,212.391 552.198,208.219 552.359,203.985 552.729,199.525 553.257,195.32 553.998,191.109 554.887,186.724 556.021,182.313 557.357,177.9 558.725,173.921 560.314,169.848 562.105,165.804 563.933,161.875 565.887,157.94 567.715,154.178 569.657,150.422 571.632,146.483 573.615,142.549 575.686,138.57 577.707,134.677 579.747,130.785 581.9,126.865 584.133,123.047 586.483,119.369 589.081,115.739 591.92,112.156 594.949,108.8 598.191,105.71 601.672,102.944 605.365,100.521 609.395,98.467 613.559,96.88 617.718,95.803 621.776,95.155 625.704,94.924 629.3,95.07 632.803,95.495 636.47,96.377 640.38,97.7 644.338,99.48 648.213,101.677 651.899,104.257 655.38,107.177 658.475,110.257 661.419,113.682 664.077,117.25 666.506,120.94 668.762,124.689 670.95,128.534 673.071,132.313 675.088,135.988 677.156,139.772 679.259,143.637 681.363,147.533 683.41,151.328 685.429,155.104 687.434,158.86 689.495,162.707 691.545,166.555 693.605,170.461 695.631,174.24 697.65,178.035 699.695,181.834 701.717,185.713 703.765,189.514 705.797,193.358 707.866,197.185 709.87,201.009 711.89,204.752 713.88,208.613 716.011,212.446 718.108,216.339 720.166,220.251 722.194,223.878 724.216,227.699 726.289,231.576 728.393,235.3 730.434,239.203 732.573,243.06 734.665,246.863 736.698,250.639 738.808,254.457 740.874,258.251 742.99,262.047 745.106,265.904 747.192,269.705 749.294,273.472 751.356,277.179 753.465,281.008 755.556,284.845 757.677,288.605 759.765,292.425 761.804,296.106 763.89,299.94 766.039,303.78 768.176,307.639 770.234,311.419 772.302,315.093 774.434,319.01 776.553,322.848 778.615,326.57 780.753,330.446 782.836,334.227 784.879,337.947 786.981,341.706 789.033,345.552 791.231,349.447 793.274,353.196 795.25,356.9 797.413,360.774 799.566,364.609 801.64,368.428 803.713,372.158 805.812,375.958 807.972,379.81 810.062,383.677 812.173,387.433 814.281,391.183 816.31,394.878 818.538,398.6 820.542,402.478 822.764,406.254 824.816,410.093 826.998,413.738 829.111,417.598 831.31,421.443 833.537,425.28 835.624,428.919 837.593,432.643 839.959,436.486 842.137,440.284 844.172,444.119 846.493,447.802 848.621,451.553 850.824,455.28 853.036,459.147 855.162,462.914 857.373,466.696 859.68,470.539 861.781,474.307 864.085,478.17 866.2,481.943 868.292,485.787 870.514,489.534 872.546,493.291 874.657,497.247 876.612,501.215 878.234,505.297 879.568,509.417 880.491,513.949 880.821,518.654 880.538,523.115 879.931,526.672 879.124,529.425 878.031,532.145 876.258,535.368 873.649,539.152 870.627,542.568 867.208,545.693 863.61,548.358 859.918,550.535 855.991,552.506 851.867,554.292 847.54,555.768 843.229,557.044 838.89,558.039 834.222,558.882 829.733,559.383 825.154,559.718 820.755,559.869 816.296,560.0 811.892,559.81 807.723,559.75 803.353,559.412 799.224,559.222 794.929,559.012 790.34,558.773 785.88,558.549 781.732,558.346 777.454,558.178 773.127,557.887 768.831,557.608 764.535,557.454 759.936,557.29 755.955,556.943 751.531,556.874 747.082,556.608 742.578,556.384 738.396,556.174 734.102,555.965 729.778,555.698 725.42,555.521 721.17,555.316 716.504,555.062 712.073,554.827 708.136,554.652 703.765,554.436 699.418,554.282 694.949,553.945 690.716,553.859 687.167,553.515 682.451,553.191 677.803,552.961 673.566,552.753 668.877,552.523 664.604,552.315 660.423,552.111 655.896,551.892 651.6,551.683 647.455,551.483 642.907,551.263 638.873,551.069 634.769,550.872 630.205,550.654 625.851,550.446 621.624,550.244 617.046,550.025 612.142,549.791 607.85,549.586 603.96,549.401 599.318,549.18 595.167,548.983 593.446,548.901 586.013,548.805" fill="none" stroke="white" stroke-width="4"
            stroke-linejoin="round" stroke-linecap="round"/>
</svg>
