<?xml version="1.0" encoding="utf-8"?>
<svg xmlns="http://www.w3.org/2000/svg" width="1000" height="600">
  <polyline points="585.886,51.72 581.67,52.023 577.208,52.222 573.008,52.396 568.749,52.664 564.384,52.849 559.899,53.046 555.477,53.304 551.278,53.471 547.002,53.719 542.58,53.872 538.362,54.138 533.94,54.306 529.684,54.488 525.324,54.747 520.892,54.906 516.684,55.124 512.473,55.37 508.097,55.5 503.759,55.78 499.457,55.974 495.152,56.123 490.757,56.384 486.333,56.551 482.129,56.774 477.766,56.984 473.271,57.191 469.019,57.344 464.652,57.611 460.374,57.693 456.137,57.999 451.819,58.126 447.428,58.291 443.046,58.578 438.716,58.637 434.459,59.03 430.184,59.021 425.912,59.288 421.627,59.452 417.238,59.633 412.825,59.85 408.51,59.996 404.233,60.162 399.857,60.409 395.476,60.548 391.107,60.694 386.907,60.97 382.789,61.003 378.286,61.277 373.837,61.429 369.44,61.553 365.195,61.817 360.886,61.895 356.493,62.149 352.259,62.205 347.869,62.535 343.541,62.59 339.169,62.817 334.832,63.005 330.512,63.143 326.25,63.287 321.86,63.472 317.567,63.655 313.318,63.785 308.984,64.056 304.607,64.138 300.257,64.307 295.885,64.522 291.548,64.622 287.312,64.83 283.02,65.001 278.592,65.148 274.175,65.408 269.844,65.473 265.561,65.674 261.231,65.834 256.917,65.942 252.518,66.18 248.363,66.367 243.893,66.404 239.487,66.718 235.24,66.7 231.076,66.899 226.659,67.068 222.292,67.221 217.878,67.361 213.642,67.516 209.247,67.653 204.806,67.752 200.4,67.996 196.126,68.028 191.884,68.264 187.478,68.39 183.001,68.553 178.613,68.738 174.188,68.873 169.876,69.016 165.514,69.165 161.165,69.318 156.833,69.486 152.422,69.585 148.048,69.838 143.724,70.112 139.347,70.6 134.98,71.415 130.623,72.711 126.469,74.871 123.187,77.74 121.383,80.141 120.604,81.821 120.091,83.638 119.882,86.571 120.483,90.585 122.152,94.674 124.521,98.344 127.309,101.654 130.342,104.75 133.404,107.775 136.421,110.852 139.271,114.148 141.845,117.507 144.23,121.246 146.206,124.88 147.586,127.937 148.63,130.857 149.541,133.972 150.318,137.798 150.877,142.197 151.111,146.779 150.958,151.26 150.53,155.581 149.822,159.912 148.93,164.145 147.861,168.324 146.656,172.574 145.401,176.613 144.181,180.554 143.004,184.59 141.917,188.725 140.986,192.678 140.194,196.641 139.551,200.558 138.992,204.714 138.56,209.052 138.243,213.274 138.071,217.451 138.029,221.949 138.062,226.308 138.271,230.574 138.491,234.92 138.873,239.312 139.378,243.609 139.884,247.903 140.495,252.188 141.16,256.475 141.907,260.778 142.719,265.06 143.491,269.421 144.321,273.662 145.167,277.889 145.974,282.192 146.832,286.228 147.659,290.523 148.57,294.784 149.409,299.093 150.325,303.342 151.142,307.579 152.051,311.68 152.909,316.016 153.775,320.255 154.65,324.426 155.512,328.666 156.406,332.911 157.3,337.269 158.163,341.464 159.044,345.705 159.894,349.905 160.804,354.09 161.608,358.224 162.492,362.603 163.288,366.756 164.202,371.066 165.039,375.427 165.863,379.573 166.679,383.819 167.54,388.026 168.387,392.321 169.197,396.563 169.994,400.827 170.79,405.105 171.6,409.307 172.413,413.614 173.211,417.837 174.033,422.23 174.879,426.46 175.621,430.779 176.317,434.967 177.204,439.176 177.884,443.41 178.797,447.849 179.421,452.004 180.276,456.113 181.063,460.428 181.752,464.72 182.509,469.099 183.437,473.422 184.092,477.667 184.9,481.88 185.599,486.3 186.386,490.503 187.08,494.858 187.93,499.177 188.679,503.395 189.467,507.679 190.163,512.022 190.987,516.39 191.744,520.618 192.663,524.828 193.673,529.179 194.899,533.474 196.313,537.588 198.079,541.632 200.344,545.652 203.063,549.401 205.768,552.316 208.01,554.235 210.052,555.634 212.018,556.797 214.22,557.875 216.933,558.818 220.292,559.554 224.206,560.0 228.305,559.924 232.437,559.37 236.677,558.302 241.095,556.701 245.288,554.51 249.137,551.978 252.617,549.145 255.728,546.184 258.676,543.053 261.419,539.74 264.005,536.343 266.563,532.84 269.085,529.304 271.512,525.854 273.973,522.33 276.413,518.806 278.877,515.266 281.322,511.714 283.804,508.248 286.236,504.795 288.777,501.291 291.404,497.858 294.011,494.479 296.776,491.088 299.528,487.849 302.453,484.545 305.439,481.327 308.448,478.287 311.505,475.344 314.739,472.426 317.931,469.682 321.344,466.924 324.721,464.343 328.08,461.918 331.532,459.56 335.013,457.272 338.553,455.055 342.098,452.929 345.602,450.915 349.099,448.938 352.956,446.74 356.927,444.359 360.517,441.999 364.074,439.374 367.524,436.5 370.68,433.487 373.497,430.402 375.994,427.281 378.291,423.974 380.276,420.646 382.05,417.205 383.588,413.711 384.942,410.067 386.079,406.313 386.986,402.391 387.675,398.18 388.097,393.818 388.259,389.503 388.212,385.209 388.011,380.915 387.739,376.539 387.496,372.193 387.382,367.991 387.449,363.823 387.701,359.722 388.14,355.788 388.751,351.966 389.583,348.055 390.63,344.205 391.918,340.377 393.498,336.457 395.348,332.555 397.452,328.755 399.73,325.136 402.315,321.539 405.145,318.002 408.105,314.691 411.053,311.693 414.357,308.641 417.813,305.724 421.118,303.162 424.655,300.652 428.15,298.259 431.82,295.94 435.496,293.69 439.346,291.511 443.297,289.36 447.13,287.269 450.966,285.203 454.895,283.018 458.692,280.832 462.532,278.572 466.353,276.241 470.087,273.882 473.745,271.506 477.355,269.054 480.911,266.541 484.384,263.899 487.711,261.019 490.767,257.873 493.557,254.193 495.701,250.035 496.857,245.692 496.996,241.916 496.509,239.019 495.65,236.494 494.119,233.652 491.626,230.574 488.395,227.932 484.459,225.87 480.122,224.475 475.636,223.688 471.193,223.416 466.708,223.539 462.347,223.935 458.05,224.513 453.744,225.208 449.449,225.953 445.3,226.752 441.127,227.593 436.853,228.499 432.64,229.43 428.363,230.401 424.204,231.347 420.018,232.378 415.795,233.351 411.526,234.403 407.317,235.401 403.1,236.433 398.923,237.447 394.598,238.532 390.397,239.552 386.326,240.554 382.066,241.631 377.828,242.662 373.546,243.703 369.335,244.721 365.148,245.74 360.987,246.701 356.79,247.659 352.379,248.619 348.324,249.476 344.025,250.331 339.767,251.145 335.384,251.906 331.207,252.607 326.885,253.264 322.643,253.818 318.277,254.298 314.042,254.651 309.637,254.919 305.178,255.063 300.817,255.056 296.376,254.926 291.964,254.644 287.828,254.233 283.608,253.682 279.326,252.969 275.232,252.125 271.172,251.116 267.102,249.933 263.16,248.582 259.117,246.972 255.104,245.115 251.175,242.984 247.309,240.501 243.721,237.743 240.46,234.71 237.518,231.418 234.908,227.876 232.732,224.048 231.234,219.641 230.827,215.075 231.304,211.903 231.9,210.185 232.662,208.664 234.66,205.924 238.168,202.826 242.178,200.652 246.288,199.196 250.44,198.162 254.634,197.368 258.948,196.691 263.143,196.12 267.41,195.576 271.807,195.08 276.107,194.62 280.376,194.202 284.789,193.753 289.105,193.348 293.399,192.96 297.73,192.559 302.0,192.148 306.342,191.816 310.728,191.417 314.973,191.104 319.254,190.722 323.564,190.461 327.855,190.105 332.239,189.828 336.608,189.572 340.826,189.309 345.102,189.078 349.435,188.838 353.942,188.641 358.181,188.367 362.529,188.201 366.902,187.968 371.091,187.692 375.532,187.518 379.811,187.296 384.129,187.051 388.453,186.848 392.61,186.619 397.008,186.457 401.334,186.256 405.714,186.027 409.975,185.836 414.258,185.654 418.527,185.437 422.963,185.238 427.286,185.035 431.61,184.822 435.891,184.639 440.276,184.466 444.527,184.233 448.893,184.104 453.416,183.905 457.492,183.661 461.678,183.599 466.211,183.319 470.449,183.123 474.664,182.947 479.088,182.807 483.479,182.562 487.89,182.381 492.174,182.174 496.427,182.013 500.835,181.792 505.161,181.529 509.349,181.339 513.555,181.058 518.086,180.946 522.469,180.725 526.786,180.544 531.188,180.247 535.558,179.955 539.661,179.726 544.004,179.426 548.234,179.407 552.774,179.13 556.843,178.581 561.318,178.406 565.529,178.369 569.973,178.022 574.22,177.817 578.711,177.607 583.013,177.285 587.396,177.006 591.797,176.873 595.919,176.48 600.405,176.252 604.772,176.062 608.997,175.584 613.354,175.546 617.611,175.253 622.038,175.034 626.474,174.829 630.831,174.543 635.379,174.334 639.61,174.156 643.884,173.955 648.421,173.981 652.768,174.001 657.194,174.347 661.582,175.027 665.86,176.016 670.095,177.473 673.913,179.177 677.281,181.14 680.315,183.227 682.958,185.523 685.536,188.182 688.007,191.037 690.314,194.481 692.468,198.272 694.178,202.217 695.623,206.497 696.641,210.93 697.272,215.358 697.528,219.686 697.406,224.192 696.899,228.867 696.152,233.248 694.973,237.696 693.552,241.912 691.92,245.943 690.03,249.688 687.692,253.742 685.218,257.465 682.435,261.128 679.545,264.4 676.455,267.598 673.14,270.576 669.72,273.352 666.398,275.846 662.651,278.341 658.92,280.618 655.356,282.678 651.403,284.835 647.632,286.706 643.843,288.489 640.25,290.16 636.574,291.695 632.429,293.538 628.459,295.186 624.414,296.764 620.58,298.394 616.578,300.115 612.59,301.777 608.72,303.525 604.798,305.544 600.866,307.609 597.141,309.702 593.343,312.171 589.832,314.673 586.54,317.19 583.376,320.057 580.091,323.055 577.174,326.119 574.465,329.248 571.649,332.657 569.307,335.951 567.122,339.276 564.793,343.034 562.933,346.663 561.146,350.174 559.389,354.366 557.845,358.301 556.689,362.127 555.52,365.898 554.604,370.033 553.9,374.34 553.202,378.297 552.952,382.724 552.575,386.851 552.639,391.125 552.8,395.494 553.083,399.338 553.612,403.942 554.387,408.425 555.121,412.132 556.322,417.075 557.507,421.013 558.974,425.219 560.5,429.267 562.122,433.264 564.132,437.186 565.75,440.817 567.977,445.105 569.727,448.623 571.716,452.735 573.7,456.665 575.599,460.197 577.739,464.501 579.75,468.129 581.792,472.019 584.263,476.209 586.627,479.897 589.215,483.632 592.049,487.229 594.869,490.345 598.081,493.504 601.651,496.392 605.429,498.893 609.468,501.0 613.519,502.564 617.752,503.707 621.798,504.366 625.667,504.588 629.421,504.541 632.757,503.992 636.451,503.247 640.322,502.012 644.257,500.212 648.146,498.097 651.728,495.57 655.26,492.669 658.491,489.473 661.364,486.166 663.979,482.702 666.573,478.848 668.807,475.144 670.984,471.318 673.007,467.756 675.106,463.95 677.303,459.98 679.434,456.102 681.312,452.562 683.458,448.7 685.383,444.937 687.45,441.154 689.532,437.313 691.453,433.67 693.464,429.8 695.562,425.987 697.631,422.066 699.65,418.249 701.812,414.414 703.719,410.619 705.783,406.721 707.828,402.864 709.721,399.276 711.89,395.147 713.927,391.356 715.887,387.723 717.838,383.872 720.052,379.975 721.847,376.258 724.049,372.472 726.002,368.736 728.148,364.942 730.156,361.081 732.232,357.26 734.257,353.61 736.341,349.664 738.55,345.863 740.461,342.001 742.729,338.276 744.576,334.482 746.879,330.593 748.712,326.897 751.02,323.103 752.996,319.007 755.056,315.548 756.958,311.778 759.179,307.949 761.222,304.057 763.33,300.114 765.483,296.596 767.388,292.791 769.52,288.964 771.741,284.942 773.676,281.481 775.845,277.525 777.887,273.574 780.175,270.045 782.25,265.947 784.253,262.089 786.386,258.774 788.491,254.716 790.512,250.872 792.575,247.309 794.758,243.296 796.828,239.573 798.857,235.918 801.121,232.282 803.051,228.266 805.315,224.521 807.295,220.73 809.524,216.868 811.6,213.023 813.617,209.393 816.03,205.494 817.985,201.647 820.193,198.027 822.163,194.367 824.458,190.598 826.523,186.699 828.737,183.232 830.802,179.399 832.984,175.562 835.177,172.06 837.223,167.986 839.514,164.39 841.642,160.563 843.661,156.86 845.996,152.879 848.172,149.018 850.359,145.313 852.561,141.44 854.748,137.705 856.739,133.959 859.122,130.148 861.254,126.265 863.492,122.303 865.567,118.536 867.758,114.774 869.885,110.862 872.007,107.037 873.971,103.159 875.987,98.964 877.61,94.942 878.851,90.834 879.76,86.393 880.118,81.605 879.902,77.243 879.353,73.921 878.529,71.194 877.558,68.351 875.749,64.861 873.192,61.145 870.277,57.98 866.772,54.671 863.07,52.037 859.458,49.753 855.649,47.839 851.451,46.062 847.353,44.544 842.99,43.231 838.628,42.164 833.974,41.304 829.385,40.72 824.987,40.307 820.558,40.074 816.216,40.046 811.886,40.0 807.653,40.218 803.298,40.419 799.334,40.398 794.762,40.685 790.201,41.069 785.854,41.216 781.552,41.549 777.112,41.785 773.031,41.883 768.721,42.088 764.351,42.461 759.697,42.446 756.376,42.566 751.634,42.905 746.62,43.207 742.663,43.387 738.633,43.574 733.844,43.99 729.791,44.018 725.596,44.476 721.259,44.432 716.894,44.908 712.173,45.164 708.563,45.26 703.746,45.674 699.231,45.834 695.576,46.033 691.164,46.258 686.443,46.522 682.302,46.586 678.411,46.957 673.217,47.04 669.986,47.146 664.739,47.469 660.383,47.476 656.559,48.08 651.751,47.818 647.922,48.84 643.727,48.212 639.554,49.252 634.764,48.859 631.154,49.328 625.721,49.257 621.619,49.725 617.507,49.724 613.099,49.871 609.858,49.691 604.457,49.953 600.897,50.125 595.897,50.366 592.75,50.518 585.886,51.72" fill="none" stroke="white" stroke-width="4"
            stroke-linejoin="round" stroke-linecap="round"/>
</svg>
