<?xml version="1.0" encoding="utf-8"?>
<svg xmlns="http://www.w3.org/2000/svg" width="1000" height="600">
  <polyline points="638.781,256.965 639.485,259.796 640.215,262.576 640.953,265.398 641.668,268.193 642.379,270.932 643.106,273.774 643.788,276.527 644.5,279.314 645.231,282.187 645.939,284.965 646.636,287.731 647.354,290.589 648.039,293.291 648.778,296.171 649.512,299.032 650.24,301.85 650.953,304.594 651.641,307.372 652.386,310.179 653.096,312.984 653.829,315.793 654.506,318.564 655.235,321.336 655.938,324.204 656.673,327.035 657.378,329.816 658.03,332.582 658.775,335.479 659.519,338.279 660.195,341.012 660.919,343.857 661.608,346.619 662.357,349.473 663.071,352.245 663.787,355.096 664.481,357.822 665.202,360.636 665.931,363.42 666.626,366.263 667.351,369.042 668.075,371.922 668.773,374.716 669.539,377.581 670.178,380.271 670.873,383.001 671.628,385.873 672.307,388.618 673.004,391.424 673.717,394.328 674.428,397.142 675.117,399.894 675.784,402.604 676.504,405.464 677.205,408.294 677.909,411.112 678.612,413.995 679.279,416.753 679.985,419.52 680.666,422.356 681.411,425.268 682.071,428.09 682.743,430.857 683.439,433.631 684.099,436.496 684.741,439.306 685.422,442.084 685.985,444.794 686.592,447.769 687.126,450.632 687.566,453.451 687.873,456.324 688.127,459.309 688.219,462.309 688.223,465.236 688.025,468.089 687.747,471.104 687.318,473.86 686.763,476.534 686.05,479.317 685.244,481.933 684.283,484.525 683.221,487.08 681.971,489.559 680.621,491.995 679.126,494.302 677.51,496.521 675.758,498.609 673.865,500.629 671.766,502.508 669.578,504.267 667.263,505.816 664.881,507.186 662.246,508.433 659.655,509.4 656.946,510.187 654.093,510.764 651.207,511.052 648.272,511.123 645.471,510.93 642.648,510.496 639.856,509.799 637.192,508.841 634.606,507.654 632.175,506.24 629.878,504.49 627.812,502.494 626.036,500.322 624.511,497.948 623.268,495.321 622.409,492.631 621.929,489.829 621.856,486.944 622.231,484.161 623.01,481.565 624.2,479.183 625.746,477.07 627.502,475.374 629.496,473.994 631.619,473.002 633.89,472.369 636.311,472.096 638.923,472.168 641.683,472.5 644.526,472.993 647.417,473.411 650.296,473.564 652.951,473.395 655.333,472.887 657.489,472.065 659.501,470.886 661.328,469.336 662.822,467.464 663.909,465.355 664.55,463.055 664.739,460.612 664.439,458.091 663.641,455.588 662.353,453.162 660.634,450.905 658.554,448.9 656.184,447.188 653.601,445.778 650.914,444.667 648.144,443.84 645.286,443.268 642.443,442.966 639.582,442.866 636.756,442.985 633.98,443.273 631.345,443.733 628.684,444.349 626.026,445.101 623.395,446.017 620.719,447.05 618.094,448.241 615.557,449.509 612.948,450.956 610.494,452.43 607.968,454.102 605.557,455.826 603.326,457.557 601.085,459.359 598.912,461.245 596.778,463.114 594.653,465.052 592.486,467.016 590.361,468.997 588.236,470.954 586.121,472.918 584.015,474.894 581.944,476.868 579.804,478.833 577.699,480.861 575.645,482.78 573.477,484.79 571.414,486.709 569.258,488.741 567.204,490.634 564.992,492.679 562.937,494.636 560.753,496.628 558.626,498.566 556.498,500.463 554.402,502.365 552.186,504.355 550.028,506.233 547.844,508.136 545.685,509.976 543.415,511.823 541.159,513.654 538.927,515.394 536.627,517.194 534.377,518.88 532.032,520.556 529.659,522.241 527.386,523.745 525.05,525.266 522.696,526.747 520.307,528.124 517.884,529.571 515.335,530.924 512.745,532.329 510.082,533.686 507.533,534.917 504.889,536.189 502.235,537.398 499.657,538.525 496.93,539.716 494.264,540.793 491.562,541.864 488.858,542.909 486.172,543.957 483.372,544.978 480.693,546.001 477.93,546.998 475.195,548.024 472.502,548.992 469.736,550.001 467.034,550.951 464.281,551.935 461.475,552.929 458.813,553.885 456.059,554.851 453.262,555.855 450.516,556.803 447.737,557.768 444.965,558.665 442.14,559.401 439.187,559.911 436.163,560.0 433.197,559.501 430.714,558.462 428.899,557.113 427.572,555.606 426.535,553.766 425.867,551.512 425.694,548.909 426.001,546.031 426.777,543.176 427.923,540.413 429.35,537.779 430.956,535.341 432.711,532.968 434.578,530.705 436.514,528.531 438.524,526.467 440.668,524.407 442.896,522.379 445.106,520.555 447.356,518.771 449.729,516.993 452.189,515.322 454.581,513.713 457.045,512.167 459.612,510.652 462.155,509.203 464.659,507.861 467.261,506.509 469.802,505.22 472.378,503.952 474.942,502.688 477.618,501.405 480.23,500.154 482.842,498.891 485.372,497.675 488.074,496.399 490.678,495.134 493.256,493.905 495.837,492.634 498.489,491.323 501.08,490.023 503.611,488.736 506.116,487.427 508.775,486.019 511.375,484.627 513.769,483.312 516.299,481.903 518.818,480.472 521.341,478.983 523.86,477.404 526.266,475.797 528.667,474.074 531.058,472.176 533.234,470.258 535.357,468.163 537.317,466.01 539.156,463.753 540.875,461.41 542.445,459.001 543.948,456.396 545.224,453.9 546.386,451.274 547.461,448.497 548.313,445.871 549.064,443.138 549.662,440.416 550.143,437.61 550.47,434.802 550.666,431.982 550.719,429.198 550.635,426.491 550.425,423.662 550.084,420.889 549.624,418.203 549.016,415.457 548.297,412.811 547.44,410.174 546.458,407.601 545.35,405.09 544.134,402.593 542.746,400.161 541.298,397.779 539.744,395.545 538.035,393.296 536.233,391.177 534.311,389.091 532.333,387.124 530.289,385.306 528.05,383.473 525.71,381.74 523.366,380.169 520.869,378.68 518.365,377.312 515.747,376.023 513.113,374.878 510.411,373.755 507.713,372.645 505.101,371.537 502.424,370.32 499.81,369.031 497.259,367.651 494.81,366.184 492.392,364.581 489.996,362.796 487.841,360.985 485.815,359.056 483.883,356.954 482.165,354.796 480.611,352.552 479.17,350.132 477.986,347.776 476.938,345.269 476.083,342.724 475.406,340.129 474.921,337.475 474.65,334.844 474.588,332.16 474.715,329.489 475.055,326.747 475.582,324.128 476.316,321.568 477.27,319.019 478.44,316.546 479.763,314.207 481.28,311.917 482.955,309.81 484.817,307.827 486.882,305.947 489.049,304.263 491.384,302.723 493.892,301.327 496.473,300.122 499.135,299.06 501.838,298.054 504.572,297.028 507.294,295.947 509.976,294.76 512.588,293.423 515.076,291.866 517.461,289.94 519.477,287.723 521.071,285.284 522.172,282.867 522.885,280.463 523.239,278.226 523.311,275.923 523.097,273.52 522.537,270.966 521.591,268.275 520.267,265.616 518.613,263.091 516.721,260.796 514.681,258.768 512.471,256.947 510.04,255.276 507.514,253.825 504.841,252.584 501.978,251.551 499.068,250.763 496.339,250.244 493.892,249.96 491.548,249.835 489.078,249.845 486.458,250.024 483.541,250.408 480.528,251.014 477.594,251.814 474.839,252.766 472.099,253.923 469.565,255.173 467.071,256.558 464.636,258.038 462.144,259.641 459.703,261.212 457.343,262.725 454.877,264.349 452.427,265.961 450.058,267.532 447.669,269.114 445.222,270.717 442.856,272.252 440.326,273.893 437.955,275.422 435.589,276.912 433.144,278.467 430.695,280.005 428.245,281.543 425.789,283.068 423.322,284.62 420.875,286.082 418.341,287.689 415.898,289.138 413.441,290.682 411.004,292.14 408.566,293.661 406.032,295.163 403.627,296.63 401.176,298.143 398.666,299.629 396.106,301.176 393.668,302.633 391.214,304.126 388.641,305.648 386.215,307.093 383.807,308.539 381.346,309.999 378.836,311.492 376.228,313.035 373.779,314.469 371.262,315.96 368.757,317.444 366.284,318.897 363.804,320.338 361.307,321.813 358.763,323.303 356.268,324.766 353.744,326.246 351.278,327.692 348.767,329.167 346.225,330.659 343.73,332.125 341.192,333.621 338.646,335.123 336.152,336.611 333.668,338.118 331.226,339.692 328.852,341.471 326.702,343.52 324.855,345.99 323.541,348.786 322.959,351.102 322.789,352.852 322.85,354.76 323.35,357.21 324.452,359.847 326.078,362.26 328.013,364.425 330.061,366.522 331.935,368.63 333.521,370.787 334.769,373.0 335.675,375.214 336.244,377.502 336.486,379.89 336.38,382.393 335.861,384.991 334.914,387.652 333.547,390.296 331.84,392.766 329.825,395.021 327.568,396.989 325.041,398.688 322.312,400.068 319.452,401.136 316.508,401.898 313.478,402.369 310.462,402.541 307.478,402.431 304.489,402.038 301.551,401.384 298.728,400.51 296.009,399.405 293.467,398.117 291.016,396.632 288.734,394.992 286.644,393.269 284.635,391.376 282.805,389.395 281.087,387.272 279.552,385.123 278.11,382.808 276.844,380.465 275.659,377.93 274.676,375.393 273.84,372.755 273.142,370.032 272.601,367.177 272.263,364.433 272.084,361.62 272.065,358.699 272.211,355.867 272.526,353.064 272.994,350.237 273.639,347.405 274.456,344.568 275.446,341.77 276.533,339.151 277.816,336.501 279.246,333.91 280.795,331.418 282.48,328.997 284.302,326.659 286.236,324.403 288.251,322.293 290.38,320.27 292.587,318.349 294.934,316.46 297.268,314.721 299.639,313.08 302.057,311.416 304.408,309.847 306.862,308.218 309.235,306.664 311.678,305.066 314.08,303.502 316.495,301.953 318.916,300.406 321.377,298.826 323.831,297.255 326.263,295.716 328.671,294.162 331.103,292.603 333.539,291.08 335.976,289.526 338.42,287.945 340.855,286.41 343.31,284.828 345.771,283.265 348.181,281.737 350.656,280.158 353.047,278.621 355.544,277.028 357.991,275.468 360.413,273.909 362.867,272.344 365.226,270.82 367.668,269.291 370.105,267.692 372.485,266.178 375.027,264.544 377.455,262.992 379.804,261.492 382.261,259.909 384.689,258.338 387.124,256.782 389.616,255.182 392.027,253.621 394.467,252.037 396.865,250.481 399.302,248.904 401.723,247.341 404.119,245.785 406.515,244.239 408.948,242.641 411.359,241.077 413.792,239.509 416.198,237.943 418.618,236.346 421.055,234.775 423.515,233.153 425.931,231.569 428.362,230.005 430.731,228.444 433.172,226.878 435.598,225.243 438.073,223.646 440.415,222.143 442.813,220.526 445.322,218.899 447.675,217.348 450.133,215.744 452.53,214.173 454.973,212.566 457.406,210.964 459.769,209.415 462.251,207.783 464.657,206.233 467.053,204.618 469.391,203.104 471.839,201.501 474.285,199.865 476.684,198.314 479.073,196.726 481.466,195.169 483.944,193.531 486.293,191.986 488.729,190.328 491.176,188.759 493.603,187.118 496.005,185.563 498.362,183.957 500.799,182.373 503.259,180.739 505.691,179.161 508.09,177.543 510.478,175.987 512.878,174.412 515.26,172.857 517.76,171.216 520.162,169.607 522.609,168.042 525.008,166.44 527.418,164.875 529.816,163.304 532.252,161.708 534.645,160.134 537.055,158.583 539.545,156.958 541.959,155.351 544.365,153.808 546.728,152.265 549.128,150.647 551.593,149.085 553.996,147.472 556.421,145.908 558.874,144.319 561.178,142.725 563.692,141.138 566.092,139.566 568.546,137.971 570.926,136.353 573.36,134.766 575.737,133.227 578.154,131.553 580.587,129.991 583.009,128.372 585.426,126.776 587.817,125.177 590.248,123.593 592.643,121.937 595.038,120.364 597.454,118.781 599.822,117.169 602.248,115.579 604.648,113.923 607.072,112.355 609.42,110.759 611.908,109.152 614.316,107.514 616.712,105.913 619.096,104.305 621.515,102.646 623.929,101.15 626.318,99.493 628.748,97.884 631.111,96.243 633.565,94.722 635.96,93.027 638.287,91.514 640.734,89.893 643.176,88.213 645.603,86.659 647.932,85.015 650.388,83.403 652.801,81.831 655.14,80.198 657.548,78.625 659.996,76.979 662.378,75.381 664.777,73.76 667.238,72.139 669.602,70.54 672.008,68.922 674.44,67.309 676.876,65.695 679.267,64.089 681.713,62.438 684.187,60.805 686.59,59.205 689.041,57.563 691.466,55.941 693.913,54.326 696.346,52.711 698.781,51.093 701.244,49.469 703.662,47.875 706.115,46.278 708.585,44.682 711.041,43.142 713.635,41.684 716.423,40.529 719.433,40.0 722.257,40.36 724.0,41.094 724.989,41.773 726.094,42.956 727.351,45.28 727.935,48.43 727.589,51.532 726.661,54.469 725.377,57.216 723.891,59.771 722.219,62.217 720.413,64.561 718.501,66.837 716.466,69.032 714.361,71.128 712.185,73.13 709.871,75.012 707.499,76.848 705.105,78.594 702.714,80.216 700.316,81.813 697.918,83.343 695.461,84.896 693.001,86.425 690.557,87.932 688.062,89.493 685.622,91.001 683.167,92.52 680.728,94.048 678.229,95.583 675.748,97.08 673.296,98.635 670.806,100.151 668.399,101.677 666.003,103.174 663.513,104.724 660.986,106.345 658.519,107.933 656.159,109.487 653.741,111.095 651.375,112.698 649.028,114.248 646.663,115.881 644.255,117.521 641.812,119.208 639.423,120.836 637.022,122.423 634.62,124.122 632.223,125.831 629.921,127.513 627.582,129.328 625.351,131.266 623.296,133.259 621.321,135.509 619.528,137.976 618.064,140.441 617.021,142.616 616.231,144.699 615.538,146.985 614.93,149.66 614.457,152.699 614.224,155.757 614.232,158.707 614.447,161.572 614.875,164.522 615.42,167.277 616.079,170.08 616.774,172.875 617.475,175.602 618.205,178.447 618.968,181.316 619.7,184.075 620.408,186.74 621.141,189.481 621.916,192.387 622.625,195.153 623.38,197.954 624.097,200.76 624.846,203.548 625.57,206.337 626.296,209.215 627.046,212.068 627.749,214.838 628.417,217.51 629.084,220.351 629.785,223.069 630.428,225.836 631.187,228.879 631.885,231.598 632.489,234.136 633.113,237.306 633.815,240.05 634.522,242.81 635.232,245.584 635.945,248.374 636.661,251.178 637.054,252.712 638.781,256.965" fill="none" stroke="white" stroke-width="4"
            stroke-linejoin="round" stroke-linecap="round"/>
  <line x1="619.372" y1="261.792" x2="658.190" y2="252.138" stroke="red" stroke-width="3" stroke-linecap="round"/>
</svg>
