<?xml version="1.0" encoding="utf-8"?>
<svg xmlns="http://www.w3.org/2000/svg" width="1000" height="600">
  <polyline points="369.803,240.464 371.08,244.352 372.388,248.293 373.68,252.206 374.964,256.096 376.249,259.982 377.574,263.984 378.846,267.832 380.12,271.675 381.425,275.613 382.733,279.549 384.004,283.393 385.329,287.357 386.621,291.223 387.906,295.086 389.221,299.02 390.539,302.952 391.844,306.856 393.138,310.752 394.428,314.689 395.72,318.607 397.009,322.533 398.302,326.431 399.607,330.266 400.958,334.155 402.322,338.137 403.664,342.045 405.024,345.95 406.352,349.838 407.658,353.688 409.001,357.568 410.363,361.53 411.677,365.422 412.932,369.253 414.267,373.114 415.613,377.084 416.936,381.041 418.264,384.918 419.579,388.804 420.873,392.662 422.181,396.535 423.537,400.456 424.871,404.372 426.223,408.281 427.561,412.185 428.871,416.094 430.222,419.882 431.573,423.794 432.928,427.735 434.31,431.621 435.638,435.473 436.983,439.361 438.385,443.337 439.723,447.183 441.026,451.063 442.407,454.968 443.766,458.89 445.108,462.841 446.46,466.697 447.814,470.566 449.148,474.475 450.517,478.347 451.821,482.197 453.253,486.153 454.641,489.994 455.961,493.868 457.415,497.788 458.855,501.577 460.384,505.509 461.938,509.293 463.632,513.057 465.455,516.809 467.46,520.489 469.626,524.129 471.923,527.586 474.36,530.965 476.948,534.176 479.652,537.185 482.408,540.037 485.396,542.762 488.41,545.291 491.513,547.657 494.746,549.826 498.065,551.833 501.553,553.686 505.175,555.311 508.868,556.759 512.588,557.908 516.471,558.851 520.385,559.521 524.371,559.894 528.348,560.0 532.305,559.778 536.347,559.24 540.328,558.392 544.143,557.243 547.944,555.758 551.621,553.925 555.118,551.796 558.363,549.388 561.432,546.677 564.237,543.641 566.734,540.372 568.87,537.004 570.707,533.381 572.098,529.55 573.024,525.604 573.487,521.629 573.476,517.584 572.939,513.494 571.877,509.584 570.311,505.9 568.16,502.38 565.575,499.325 562.619,496.801 559.351,494.837 555.893,493.509 552.454,492.793 549.01,492.656 545.672,493.098 542.427,494.098 539.268,495.666 536.235,497.765 533.225,500.318 530.199,503.137 527.085,505.886 523.785,508.294 520.516,510.163 517.267,511.414 513.981,512.123 510.634,512.258 507.254,511.81 504.054,510.724 501.126,509.042 498.562,506.775 496.441,503.979 494.849,500.707 493.89,497.08 493.587,493.161 493.934,489.114 494.868,485.142 496.373,481.273 498.369,477.597 500.757,474.185 503.454,471.022 506.424,468.147 509.615,465.575 512.912,463.289 516.329,461.264 519.911,459.465 523.535,457.922 527.17,456.62 530.848,455.521 534.681,454.554 538.641,453.751 542.696,453.15 546.819,452.7 550.977,452.41 555.196,452.308 559.356,452.367 563.518,452.578 567.626,452.922 571.691,453.384 575.771,453.944 579.791,454.589 583.885,455.222 587.994,455.934 592.029,456.644 596.087,457.381 600.109,458.111 604.068,458.811 608.098,459.537 612.231,460.29 616.319,461.031 620.256,461.745 624.285,462.47 628.372,463.216 632.417,463.941 636.494,464.659 640.539,465.379 644.616,466.091 648.66,466.777 652.68,467.459 656.805,468.136 660.849,468.78 664.899,469.403 669.001,470.019 673.041,470.6 677.116,471.128 681.238,471.592 685.354,472.064 689.456,472.45 693.524,472.777 697.588,473.07 701.631,473.285 705.632,473.438 709.627,473.534 713.575,473.566 717.514,473.502 721.478,473.376 725.522,473.155 729.634,472.874 733.754,472.537 737.932,472.122 742.069,471.623 746.14,471.098 750.191,470.516 754.264,469.876 758.352,469.179 762.391,468.43 766.461,467.642 770.571,466.788 774.601,465.931 778.6,465.057 782.643,464.167 786.677,463.27 790.731,462.369 794.818,461.426 798.886,460.486 802.931,459.53 806.98,458.581 811.008,457.64 815.001,456.677 819.052,455.722 823.118,454.75 827.161,453.77 831.198,452.767 835.214,451.685 839.152,450.393 843.05,448.727 846.753,446.49 849.924,443.59 852.095,440.418 853.238,437.395 853.641,434.546 853.449,431.562 852.522,428.371 850.731,425.099 848.128,421.874 844.978,419.026 841.474,416.616 837.771,414.593 833.967,412.899 830.067,411.43 826.072,410.153 822.017,409.029 817.938,408.074 813.843,407.269 809.726,406.598 805.595,406.065 801.432,405.679 797.226,405.414 793.058,405.237 788.946,405.214 784.792,405.253 780.596,405.427 776.469,405.659 772.367,405.99 768.27,406.369 764.219,406.813 760.094,407.281 756.001,407.789 751.877,408.3 747.826,408.828 743.769,409.326 739.654,409.848 735.503,410.396 731.435,410.891 727.365,411.403 723.314,411.875 719.226,412.339 715.099,412.783 710.995,413.189 706.901,413.571 702.812,413.901 698.652,414.222 694.595,414.518 690.505,414.772 686.369,415.012 682.311,415.159 678.147,415.23 673.962,415.149 669.779,414.949 665.53,414.562 661.34,413.934 657.215,413.094 653.185,412.034 649.227,410.768 645.281,409.26 641.479,407.571 637.821,405.706 634.258,403.637 630.853,401.417 627.545,399.005 624.38,396.443 621.346,393.706 618.516,390.89 615.837,387.958 613.326,384.884 610.918,381.666 608.706,378.345 606.659,374.957 604.794,371.502 603.097,367.974 601.541,364.305 600.156,360.585 598.986,356.889 597.978,353.063 597.162,349.251 596.535,345.385 596.096,341.433 595.833,337.473 595.774,333.575 595.88,329.616 596.189,325.652 596.715,321.691 597.404,317.74 598.267,313.879 599.296,310.011 600.566,306.129 601.978,302.325 603.642,298.545 605.425,294.897 607.399,291.284 609.527,287.774 611.779,284.343 614.106,280.953 616.468,277.579 618.763,274.176 621.01,270.699 623.143,267.145 625.139,263.512 627.004,259.738 628.656,255.947 630.113,252.056 631.306,248.176 632.259,244.225 632.928,240.322 633.313,236.5 633.444,232.528 633.305,228.563 632.892,224.73 632.222,220.977 631.291,217.301 630.091,213.638 628.623,210.084 626.907,206.711 624.918,203.47 622.691,200.356 620.198,197.372 617.524,194.622 614.652,192.11 611.542,189.797 608.223,187.737 604.815,185.952 601.304,184.412 597.634,183.168 593.855,182.224 590.007,181.576 586.074,181.225 582.039,181.179 577.984,181.438 573.987,181.997 570.006,182.786 565.949,183.69 561.86,184.579 557.802,185.381 553.729,186.029 549.574,186.443 545.351,186.5 541.076,186.035 536.868,184.921 533.127,183.265 529.93,181.22 527.229,178.909 525.058,176.487 523.192,173.777 521.596,170.732 520.307,167.278 519.356,163.32 518.88,159.065 518.913,154.778 519.402,150.615 520.29,146.56 521.555,142.617 523.149,138.811 525.034,135.16 527.294,131.575 529.929,128.125 532.757,124.989 535.612,122.267 538.396,119.98 541.159,117.988 544.062,116.135 547.34,114.332 551.106,112.552 555.13,110.971 559.25,109.661 563.372,108.647 567.444,107.933 571.52,107.465 575.61,107.197 579.726,107.103 583.811,107.09 587.963,107.09 592.072,107.107 596.154,107.139 600.3,107.192 604.318,107.239 608.424,107.298 612.567,107.339 616.72,107.358 620.818,107.377 624.883,107.36 629.012,107.336 633.121,107.303 637.23,107.234 641.395,107.192 645.549,107.139 649.581,107.047 653.716,106.983 657.782,106.861 661.871,106.792 665.995,106.671 670.126,106.594 674.299,106.463 678.396,106.372 682.493,106.246 686.634,106.134 690.733,106.009 694.889,105.878 699.0,105.751 703.047,105.615 707.164,105.482 711.284,105.323 715.412,105.169 719.526,105.029 723.615,104.88 727.696,104.726 731.848,104.56 735.957,104.372 740.052,104.212 744.15,104.042 748.389,103.872 752.532,103.684 756.573,103.515 760.795,103.334 764.975,103.161 769.064,102.978 773.231,102.807 777.371,102.631 781.536,102.456 785.687,102.289 789.812,102.117 793.959,101.972 798.11,101.855 802.289,101.847 806.485,102.14 810.678,102.947 814.812,104.497 818.497,106.805 820.996,109.138 822.54,111.088 823.936,113.415 825.212,116.699 825.929,120.719 825.852,124.866 825.217,128.938 824.388,133.013 823.769,136.987 823.534,140.769 823.748,144.419 824.383,147.807 825.46,150.955 827.005,153.983 829.062,156.9 831.691,159.617 834.885,162.074 838.552,164.185 842.501,165.825 846.651,166.968 850.868,167.581 855.208,167.666 859.56,167.208 863.847,166.267 867.916,164.918 871.872,163.156 875.666,161.005 879.182,158.539 882.432,155.776 885.369,152.8 888.048,149.619 890.455,146.201 892.531,142.668 894.312,139.024 895.79,135.28 896.999,131.478 897.943,127.644 898.601,123.82 899.001,120.07 899.178,116.303 899.11,112.483 898.786,108.55 898.254,104.779 897.438,100.915 896.374,97.069 895.109,93.318 893.602,89.629 891.853,86.027 889.836,82.432 887.668,79.046 885.302,75.758 882.747,72.646 879.976,69.606 877.053,66.747 873.855,63.976 870.602,61.453 867.153,59.091 863.619,56.951 860.028,55.016 856.209,53.228 852.249,51.622 848.388,50.256 844.386,49.095 840.26,48.109 836.149,47.335 832.03,46.749 827.749,46.318 823.672,46.074 819.511,45.911 815.407,45.842 811.207,45.787 807.223,45.761 803.176,45.742 799.047,45.728 794.831,45.723 790.751,45.725 786.67,45.731 782.551,45.707 778.486,45.757 774.29,45.756 770.15,45.78 766.01,45.784 761.959,45.82 757.875,45.819 753.72,45.852 749.599,45.883 745.462,45.89 741.262,45.926 737.288,45.925 733.204,45.96 729.019,45.991 724.869,46.012 720.685,46.044 716.751,46.042 712.543,46.074 708.478,46.111 704.333,46.088 700.153,46.161 696.252,46.161 692.06,46.169 687.968,46.157 683.893,46.19 679.573,46.207 675.577,46.188 671.378,46.194 667.285,46.219 663.185,46.217 659.144,46.192 655.083,46.169 650.785,46.219 646.717,46.185 642.658,46.174 638.49,46.175 634.471,46.159 630.419,46.135 626.086,46.119 622.065,46.125 617.994,46.074 613.871,46.088 609.752,46.05 605.725,46.032 601.481,46.043 597.544,45.973 593.354,45.976 589.079,45.956 584.961,45.91 580.94,45.907 576.858,45.869 572.638,45.84 568.522,45.834 564.346,45.811 560.246,45.799 556.396,45.794 552.025,45.742 547.965,45.779 543.985,45.726 539.7,45.678 535.677,45.611 531.576,45.661 527.392,45.586 523.139,45.527 519.233,45.53 515.079,45.471 510.825,45.403 506.861,45.431 502.733,45.363 498.624,45.315 494.481,45.337 490.467,45.257 486.267,45.202 482.076,45.232 478.044,45.216 473.984,45.081 469.847,45.109 465.718,45.075 461.723,45.079 457.459,45.0 453.23,45.022 449.216,44.909 445.16,44.909 441.06,44.825 436.846,44.827 432.778,44.807 428.782,44.729 424.523,44.713 420.45,44.653 416.367,44.59 412.149,44.579 407.996,44.53 403.824,44.452 400.015,44.478 395.778,44.434 391.525,44.339 387.561,44.344 383.3,44.306 379.036,44.143 375.108,44.275 370.941,44.108 366.791,44.131 362.655,43.976 358.713,43.956 354.607,43.905 350.223,43.796 346.348,43.794 342.278,43.731 338.121,43.644 333.903,43.579 329.841,43.533 325.795,43.388 321.781,43.429 317.54,43.354 313.467,43.197 309.182,43.192 305.008,43.165 300.951,43.029 296.94,42.972 292.769,42.892 288.6,42.845 284.619,42.751 280.393,42.73 276.394,42.589 272.174,42.573 268.131,42.509 264.071,42.304 259.843,42.381 255.847,42.273 251.665,42.228 247.422,42.109 243.409,42.109 239.33,41.895 235.137,41.924 231.133,41.918 226.921,41.719 222.823,41.703 218.644,41.612 214.6,41.465 210.441,41.489 206.313,41.352 202.216,41.264 198.015,41.19 193.666,41.153 189.562,41.056 185.476,40.958 181.348,40.905 177.29,40.844 173.09,40.761 169.034,40.667 164.876,40.607 160.582,40.557 156.482,40.45 152.315,40.415 148.096,40.314 143.83,40.257 139.73,40.187 135.535,40.135 131.37,40.07 127.278,40.019 123.068,40.0 118.946,40.011 114.71,40.23 110.457,40.996 106.453,42.724 103.372,45.389 101.872,47.688 101.268,49.222 100.822,51.428 101.061,55.256 102.761,59.477 105.494,62.928 108.858,65.781 112.516,68.115 116.27,70.042 120.063,71.666 124.014,73.1 128.108,74.372 132.283,75.469 136.406,76.339 140.549,77.03 144.611,77.544 148.932,77.898 153.089,78.1 157.258,78.219 161.389,78.276 165.4,78.26 169.638,78.202 173.677,78.126 177.837,78.023 181.91,77.903 186.023,77.8 190.175,77.695 194.252,77.62 198.318,77.487 202.489,77.406 206.528,77.341 210.758,77.213 214.905,77.142 219.018,77.09 223.164,76.976 227.293,76.953 231.187,76.907 235.404,76.919 239.514,76.965 243.425,76.984 247.583,77.101 251.744,77.183 255.987,77.3 260.0,77.458 264.21,77.578 268.502,77.741 272.622,77.908 276.769,78.119 280.902,78.363 285.155,78.751 289.275,79.338 293.505,80.201 297.373,81.306 301.541,82.924 305.119,84.7 307.891,86.404 310.522,88.325 313.403,90.751 316.19,93.45 318.988,96.585 321.66,100.097 323.887,103.567 325.867,107.2 327.607,111.007 329.08,114.793 330.507,118.822 331.761,122.522 333.033,126.342 334.327,130.189 335.551,134.048 336.827,137.824 338.164,141.927 339.554,146.141 340.695,149.868 341.997,153.756 343.155,157.031 344.376,160.732 345.668,164.711 347.455,169.429 348.819,173.455 350.019,177.006 351.257,180.856 352.318,184.223 353.731,188.525 355.151,192.784 356.524,196.939 357.4,199.676 358.62,203.866 359.828,207.734 361.175,213.022 361.916,215.77 363.059,219.68 364.395,223.873 365.755,228.047 367.243,232.611 367.782,234.263 369.803,240.464" fill="none" stroke="white" stroke-width="4"
            stroke-linejoin="round" stroke-linecap="round"/>
</svg>
