<?xml version="1.0" encoding="utf-8"?>
<svg xmlns="http://www.w3.org/2000/svg" width="1000" height="600">
  <polyline points="677.408,536.141 674.377,533.918 671.315,531.66 668.277,529.395 665.229,527.117 662.179,524.814 659.16,522.526 656.174,520.256 653.202,518.005 650.191,515.733 647.137,513.415 644.091,511.098 641.118,508.829 638.101,506.589 635.008,504.262 632.013,501.983 628.973,499.773 625.872,497.462 622.844,495.247 619.801,493.02 616.734,490.778 613.633,488.556 610.569,486.323 607.516,484.121 604.459,481.93 601.394,479.703 598.272,477.471 595.188,475.264 592.094,473.053 589.016,470.867 585.933,468.669 582.823,466.495 579.72,464.326 576.589,462.148 573.448,459.973 570.36,457.833 567.247,455.682 564.096,453.513 560.996,451.381 557.893,449.241 554.769,447.089 551.627,444.915 548.487,442.73 545.397,440.552 542.331,438.37 539.247,436.143 536.175,433.863 533.182,431.55 530.219,429.142 527.321,426.598 524.542,423.942 521.904,421.182 519.353,418.265 516.874,415.203 514.591,412.12 512.552,409.088 510.761,406.148 509.143,403.234 507.612,400.235 506.184,397.171 504.834,393.924 503.569,390.424 502.448,386.837 501.491,383.216 500.664,379.464 499.99,375.668 499.505,371.888 499.165,368.032 498.993,364.151 498.992,360.324 499.126,356.511 499.411,352.723 499.825,348.982 500.3,345.215 500.852,341.454 501.37,337.689 501.89,333.956 502.353,330.179 502.759,326.415 503.046,322.718 503.221,319.069 503.265,315.398 503.162,311.709 502.927,308.118 502.55,304.502 502.032,300.881 501.381,297.323 500.597,293.844 499.672,290.358 498.576,286.838 497.374,283.414 496.032,280.047 494.536,276.667 492.927,273.387 491.147,270.118 489.239,266.898 487.185,263.728 485.024,260.65 482.706,257.609 480.324,254.691 477.839,251.845 475.238,249.008 472.626,246.273 469.969,243.57 467.265,240.858 464.596,238.173 461.907,235.493 459.194,232.745 456.541,230.037 453.898,227.303 451.251,224.488 448.633,221.629 446.106,218.796 443.625,215.923 441.18,212.989 438.795,209.982 436.518,206.893 434.383,203.65 432.474,200.258 430.858,196.644 429.654,192.786 429.053,189.016 429.022,185.648 429.405,182.674 430.063,180.091 431.004,177.613 432.5,174.864 434.693,171.947 437.547,169.186 440.74,166.906 444.128,165.16 447.731,163.899 451.441,163.125 455.321,162.758 459.266,162.595 463.235,162.405 467.167,162.045 470.982,161.369 474.636,160.248 478.077,158.549 481.28,156.061 483.857,152.933 485.479,149.762 486.326,146.712 486.594,143.943 486.438,141.35 485.83,138.577 484.579,135.483 482.513,132.183 479.789,129.142 476.684,126.607 473.349,124.579 469.833,122.916 466.217,121.495 462.576,120.263 458.927,119.198 455.159,118.235 451.374,117.353 447.622,116.544 443.857,115.83 440.052,115.238 436.213,114.786 432.383,114.5 428.53,114.382 424.669,114.442 420.814,114.689 417.008,115.118 413.191,115.746 409.432,116.55 405.782,117.529 402.309,118.647 399.109,119.84 396.18,121.066 393.394,122.38 390.283,123.992 386.916,125.931 383.632,128.022 380.475,130.23 377.42,132.555 374.464,134.994 371.619,137.508 368.868,140.157 366.171,142.901 363.627,145.674 361.15,148.451 358.664,151.352 356.134,154.266 353.675,157.167 351.242,160.051 348.817,162.946 346.415,165.838 344.031,168.716 341.606,171.677 339.17,174.648 336.804,177.571 334.388,180.493 331.986,183.448 329.604,186.346 327.185,189.283 324.785,192.205 322.341,195.136 319.895,198.079 317.472,200.962 315.015,203.854 312.586,206.756 310.148,209.603 307.641,212.509 305.157,215.435 302.735,218.264 300.309,221.118 297.825,223.987 295.313,226.902 292.828,229.836 290.346,232.72 287.875,235.583 285.436,238.437 282.981,241.291 280.509,244.173 278.044,247.041 275.598,249.888 273.121,252.769 270.641,255.657 268.169,258.538 265.704,261.404 263.246,264.263 260.76,267.159 258.282,270.042 255.819,272.897 253.359,275.759 250.869,278.633 248.372,281.509 245.875,284.393 243.371,287.277 240.876,290.151 238.357,293.039 235.825,295.923 233.391,298.68 230.986,301.44 228.457,304.322 225.902,307.211 223.374,310.079 220.862,312.939 218.312,315.825 215.805,318.645 213.349,321.428 210.83,324.278 208.298,327.148 205.779,330.031 203.265,332.894 200.806,335.7 198.316,338.569 195.806,341.473 193.339,344.349 190.85,347.265 188.36,350.199 185.912,353.151 183.515,356.108 181.178,359.13 178.915,362.248 176.8,365.427 174.833,368.736 173.021,372.227 171.427,375.835 170.102,379.475 169.074,383.081 168.341,386.722 167.925,390.422 167.856,394.097 168.153,397.745 168.826,401.365 169.849,404.848 171.195,408.158 172.881,411.321 174.824,414.206 176.872,416.67 179.052,418.851 181.486,420.892 184.305,422.838 187.509,424.64 191.06,426.223 194.778,427.5 198.485,428.427 202.235,429.063 205.993,429.487 209.771,429.827 213.55,430.186 217.326,430.652 220.918,431.255 224.277,432.029 227.57,433.042 230.707,434.321 233.7,435.906 236.548,437.861 239.138,440.187 241.391,442.912 243.222,446.015 244.528,449.358 245.285,452.909 245.456,456.583 245.039,460.166 244.076,463.631 242.59,466.941 240.693,469.937 238.416,472.656 235.808,475.088 232.955,477.173 229.972,478.876 226.747,480.286 223.313,481.363 219.735,482.069 216.046,482.4 212.231,482.376 208.345,482.027 204.466,481.391 200.704,480.524 197.027,479.45 193.427,478.198 189.92,476.819 186.451,475.336 183.03,473.788 179.569,472.164 176.145,470.516 172.737,468.841 169.413,467.124 166.1,465.366 162.742,463.522 159.43,461.642 156.158,459.709 152.901,457.693 149.657,455.613 146.477,453.467 143.355,451.292 140.291,449.02 137.301,446.746 134.338,444.377 131.419,441.941 128.577,439.484 125.809,436.96 123.075,434.368 120.478,431.777 117.875,429.065 115.341,426.304 112.905,423.542 110.497,420.641 108.154,417.697 105.901,414.757 103.716,411.707 101.565,408.589 99.592,405.551 97.651,402.429 95.766,399.233 94.05,396.084 92.358,392.849 90.724,389.555 89.167,386.151 87.674,382.754 86.269,379.317 84.887,375.709 83.637,372.167 82.439,368.611 81.314,364.978 80.233,361.283 79.26,357.647 78.349,353.984 77.478,350.14 76.698,346.469 75.975,342.742 75.309,338.962 74.688,335.243 74.12,331.484 73.608,327.779 73.128,324.014 72.665,320.259 72.219,316.41 71.783,312.633 71.359,308.968 70.943,305.229 70.514,301.457 70.077,297.555 69.645,293.856 69.203,290.02 68.756,286.233 68.343,282.526 67.915,278.761 67.487,275.047 67.075,271.268 66.63,267.49 66.199,263.667 65.763,259.889 65.327,256.151 64.872,252.335 64.406,248.539 63.961,244.801 63.507,241.017 63.042,237.194 62.603,233.502 62.15,229.755 61.691,225.946 61.242,222.172 60.796,218.455 60.346,214.647 59.894,210.83 59.465,207.097 59.038,203.354 58.623,199.623 58.216,195.891 57.821,192.103 57.461,188.232 57.173,184.456 56.973,180.753 56.887,176.894 56.951,172.957 57.16,169.146 57.546,165.365 58.114,161.501 58.842,157.765 59.709,154.211 60.76,150.651 61.938,147.274 63.291,143.923 64.765,140.706 66.402,137.544 68.151,134.503 70.071,131.504 72.132,128.605 74.369,125.754 76.762,122.991 79.33,120.301 82.034,117.748 84.968,115.218 88.051,112.824 91.215,110.599 94.48,108.544 97.855,106.63 101.322,104.852 104.788,103.252 108.3,101.786 111.861,100.438 115.52,99.175 119.18,98.003 122.803,96.9 126.495,95.826 130.178,94.782 133.873,93.813 137.601,92.881 141.336,91.988 145.066,91.212 148.777,90.447 152.511,89.766 156.279,89.104 160.023,88.494 163.804,87.928 167.604,87.402 171.357,86.924 175.183,86.5 178.981,86.096 182.816,85.757 186.649,85.414 190.403,85.147 194.108,84.881 197.93,84.632 201.757,84.434 205.54,84.231 209.326,84.039 213.12,83.828 216.913,83.684 220.686,83.511 224.403,83.331 228.187,83.153 232.019,82.971 235.823,82.792 239.588,82.598 243.399,82.419 247.123,82.229 250.915,82.022 254.727,81.804 258.527,81.553 262.289,81.284 266.019,80.987 269.783,80.653 273.606,80.26 277.397,79.816 281.193,79.312 284.954,78.739 288.708,78.096 292.409,77.384 296.143,76.59 299.911,75.701 303.641,74.746 307.308,73.723 310.942,72.626 314.517,71.468 317.957,70.283 321.388,69.019 324.771,67.706 328.037,66.374 331.401,64.968 334.763,63.525 338.182,62.048 341.584,60.603 345.127,59.162 348.738,57.784 352.451,56.523 356.255,55.417 359.914,54.528 363.367,53.848 366.815,53.322 370.179,52.947 373.418,52.722 376.721,52.628 380.293,52.675 384.033,52.906 387.791,53.336 391.528,53.958 395.175,54.742 398.957,55.727 402.621,56.816 406.153,57.937 409.731,59.098 413.41,60.24 417.092,61.303 420.698,62.213 424.451,62.997 428.143,63.59 431.839,63.988 435.719,64.203 439.323,64.209 442.898,64.034 446.501,63.669 449.977,63.12 453.385,62.391 456.74,61.493 460.012,60.432 463.262,59.2 466.534,57.785 469.779,56.173 473.063,54.329 476.374,52.321 479.629,50.334 482.882,48.422 486.254,46.592 489.671,44.924 493.107,43.475 496.555,42.27 499.928,41.336 503.349,40.648 506.85,40.198 510.28,40.0 513.746,40.031 517.214,40.317 520.663,40.879 524.059,41.708 527.423,42.788 530.766,44.159 534.089,45.817 537.324,47.733 540.522,49.927 543.632,52.38 546.502,54.96 549.196,57.733 551.71,60.661 554.092,63.723 556.262,66.816 558.3,69.993 560.268,73.215 562.251,76.474 564.262,79.668 566.252,82.696 568.309,85.614 570.513,88.505 572.766,91.235 575.103,93.918 577.57,96.538 580.163,99.147 582.864,101.694 585.678,104.162 588.635,106.591 591.67,108.923 594.78,111.177 597.907,113.288 601.141,115.355 604.379,117.314 607.661,119.218 610.983,121.069 614.342,122.888 617.696,124.635 621.008,126.334 624.366,128.051 627.816,129.787 631.248,131.508 634.594,133.154 637.993,134.855 641.323,136.46 644.756,138.128 648.225,139.818 651.63,141.454 655.066,143.117 658.48,144.728 661.942,146.407 665.36,148.039 668.727,149.649 672.098,151.265 675.558,152.902 679.002,154.556 682.403,156.189 685.843,157.812 689.264,159.467 692.663,161.08 696.089,162.74 699.563,164.384 703.032,166.058 706.373,167.649 709.724,169.259 713.104,170.885 716.554,172.525 720.005,174.166 723.466,175.82 726.9,177.467 730.339,179.102 733.782,180.742 737.187,182.368 740.539,183.947 743.923,185.548 747.376,187.175 750.786,188.805 754.253,190.447 757.637,192.088 761.087,193.723 764.506,195.371 767.91,197.009 771.357,198.671 774.837,200.375 778.265,201.969 781.705,203.666 785.109,205.306 788.48,206.891 791.889,208.533 795.341,210.175 798.786,211.837 802.15,213.444 805.536,215.073 808.962,216.735 812.379,218.391 815.845,220.074 819.259,221.749 822.61,223.373 825.998,225.046 829.414,226.754 832.91,228.495 836.231,230.183 839.561,231.864 842.935,233.609 846.346,235.38 849.765,237.162 853.069,238.951 856.421,240.72 859.76,242.526 863.099,244.373 866.469,246.248 869.725,248.091 873.032,249.938 876.345,251.831 879.659,253.761 882.911,255.674 886.178,257.594 889.474,259.572 892.765,261.539 895.976,263.496 899.194,265.444 902.502,267.502 905.764,269.485 908.932,271.528 912.144,273.655 915.323,275.862 918.395,278.143 921.404,280.592 924.286,283.17 927.044,285.918 929.631,288.788 932.023,291.794 934.199,294.906 936.167,298.169 937.871,301.491 939.308,304.821 940.525,308.246 941.519,311.756 942.267,315.275 942.773,318.742 943.062,322.209 943.113,325.71 942.948,329.31 942.576,332.845 941.942,336.314 941.096,339.735 939.996,343.124 938.656,346.491 937.092,349.743 935.29,352.951 933.241,356.062 930.975,359.101 928.484,361.991 925.788,364.775 922.857,367.443 919.85,369.869 916.767,372.09 913.511,374.192 910.268,376.076 906.923,377.908 903.656,379.609 900.353,381.313 897.066,383.054 893.778,384.834 890.476,386.688 887.308,388.496 884.104,390.41 880.86,392.335 877.725,394.273 874.513,396.296 871.313,398.333 868.195,400.408 865.063,402.502 861.976,404.636 858.904,406.796 855.814,409.035 852.739,411.277 849.722,413.529 846.696,415.847 843.732,418.173 840.79,420.541 837.809,422.975 834.834,425.426 831.931,427.898 829.066,430.393 826.229,432.859 823.369,435.383 820.52,437.889 817.676,440.453 814.757,443.044 811.983,445.524 809.187,448.023 806.301,450.603 803.442,453.156 800.621,455.68 797.729,458.275 794.874,460.841 792.152,463.342 789.401,465.991 786.777,468.852 784.464,471.965 782.545,475.474 781.242,479.223 780.695,482.449 780.62,485.023 780.873,487.609 781.613,490.562 783.021,493.758 784.999,497.016 787.078,500.237 788.997,503.497 790.539,506.731 791.624,509.801 792.327,512.708 792.717,515.662 792.811,518.685 792.512,522.116 791.714,525.77 790.327,529.623 788.485,533.158 786.3,536.321 783.75,539.327 781.059,542.019 778.034,544.654 774.928,547.029 771.684,549.248 768.258,551.307 764.811,553.139 761.406,554.721 757.73,556.177 753.977,557.423 750.213,558.415 746.379,559.175 742.637,559.678 738.807,559.946 734.877,560.0 731.233,559.852 727.368,559.497 724.029,559.004 721.134,558.474 717.84,557.762 714.124,556.696 710.553,555.534 706.949,554.184 703.191,552.584 699.93,550.966 696.764,549.188 692.898,546.658 690.106,544.86 686.966,542.707 683.772,540.423 682.241,539.307 677.408,536.141" fill="none" stroke="white" stroke-width="4"
            stroke-linejoin="round" stroke-linecap="round"/>
  <line x1="689.236" y1="520.014" x2="665.580" y2="552.268" stroke="red" stroke-width="3" stroke-linecap="round"/>
</svg>
