<?xml version="1.0" encoding="utf-8"?>
<svg xmlns="http://www.w3.org/2000/svg" width="1000" height="600">
  <polyline points="363.98,530.411 366.625,527.918 369.252,525.437 371.84,522.972 374.427,520.501 377.018,518.013 379.62,515.512 382.227,512.994 384.824,510.488 387.393,508.003 389.984,505.504 392.602,503.003 395.183,500.519 397.777,498.022 400.391,495.539 402.966,493.085 405.628,490.582 408.26,488.119 410.87,485.685 413.552,483.206 416.182,480.758 418.841,478.33 421.473,475.895 424.125,473.467 426.788,471.037 429.426,468.609 432.099,466.2 434.758,463.749 437.465,461.315 440.125,458.892 442.74,456.538 445.481,454.107 448.181,451.705 450.848,449.349 453.615,446.91 456.323,444.526 459.018,442.166 461.749,439.769 464.456,437.405 467.118,435.071 469.83,432.69 472.591,430.259 475.277,427.875 477.92,425.508 480.616,423.073 483.304,420.598 485.928,418.126 488.469,415.64 490.996,413.033 493.456,410.302 495.795,407.471 497.997,404.54 500.058,401.536 502.061,398.367 503.872,395.201 505.454,392.118 506.839,389.087 508.03,386.176 509.112,383.243 510.118,380.188 511.039,376.921 511.841,373.472 512.491,369.966 512.995,366.407 513.351,362.846 513.55,359.2 513.592,355.522 513.48,351.856 513.204,348.224 512.778,344.587 512.215,340.979 511.515,337.466 510.705,333.931 509.844,330.467 508.928,326.987 508.005,323.486 507.105,319.981 506.25,316.505 505.463,313.015 504.768,309.518 504.2,306.1 503.75,302.641 503.434,299.147 503.255,295.72 503.21,292.308 503.293,288.787 503.518,285.299 503.864,281.961 504.344,278.617 504.965,275.216 505.725,271.821 506.61,268.485 507.639,265.134 508.807,261.808 510.118,258.516 511.556,255.26 513.121,252.06 514.815,248.905 516.654,245.778 518.6,242.715 520.614,239.755 522.727,236.818 524.894,233.943 527.109,231.086 529.346,228.248 531.598,225.403 533.816,222.586 536.083,219.698 538.333,216.794 540.52,213.923 542.682,211.002 544.804,208.066 546.888,205.092 548.935,202.069 550.921,199.023 552.835,195.925 554.633,192.769 556.287,189.471 557.716,186.053 558.841,182.455 559.548,178.7 559.697,175.077 559.345,171.86 558.65,169.108 557.732,166.724 556.581,164.518 554.893,162.124 552.473,159.582 549.476,157.294 546.178,155.484 542.773,154.214 539.266,153.435 535.65,153.116 531.961,153.2 528.207,153.485 524.42,153.747 520.704,153.85 517.034,153.644 513.47,153.0 510.0,151.772 506.707,149.786 503.928,147.119 502.027,144.283 500.905,141.545 500.337,138.94 500.195,136.438 500.459,133.767 501.305,130.696 502.89,127.353 505.102,124.212 507.771,121.456 510.702,119.164 513.793,117.231 517.043,115.493 520.387,113.911 523.777,112.473 527.15,111.174 530.58,109.932 534.068,108.739 537.532,107.647 541.049,106.661 544.637,105.8 548.248,105.096 551.876,104.555 555.502,104.182 559.159,103.983 562.847,103.967 566.498,104.129 570.143,104.474 573.705,104.993 577.05,105.65 580.188,106.416 583.093,107.252 585.898,108.18 589.033,109.367 592.427,110.829 595.714,112.424 598.905,114.136 602.11,116.029 605.18,118.003 608.14,120.069 611.019,122.241 613.808,124.495 616.583,126.876 619.27,129.281 621.894,131.681 624.524,134.108 627.164,136.557 629.803,139.017 632.432,141.498 635.073,143.994 637.691,146.498 640.289,149.004 642.856,151.495 645.458,153.975 648.071,156.5 650.657,159.028 653.256,161.493 655.828,163.992 658.466,166.481 661.063,168.978 663.682,171.431 666.284,173.886 668.916,176.364 671.574,178.816 674.185,181.248 676.845,183.71 679.52,186.171 682.166,188.598 684.806,191.051 687.436,193.471 690.05,195.883 692.748,198.364 695.433,200.838 698.058,203.244 700.716,205.685 703.387,208.151 706.046,210.592 708.714,213.039 711.366,215.486 714.033,217.929 716.689,220.371 719.346,222.818 722.0,225.259 724.635,227.676 727.276,230.096 729.929,232.537 732.565,234.956 735.196,237.364 737.84,239.785 740.513,242.218 743.202,244.665 745.882,247.104 748.548,249.51 751.218,251.924 753.923,254.36 756.628,256.776 759.303,259.18 761.951,261.561 764.641,263.964 767.343,266.386 770.032,268.772 772.722,271.193 775.435,273.595 778.068,275.953 780.751,278.349 783.467,280.79 786.166,283.205 788.879,285.66 791.576,288.087 794.202,290.484 796.847,292.899 799.519,295.349 802.18,297.804 804.899,300.34 807.535,302.835 810.132,305.37 812.715,307.999 815.155,310.641 817.496,313.398 819.731,316.304 821.827,319.381 823.718,322.569 825.381,325.859 826.774,329.183 827.879,332.552 828.687,336.004 829.16,339.46 829.286,342.948 829.052,346.43 828.481,349.786 827.569,353.098 826.323,356.292 824.833,359.187 823.17,361.754 821.339,364.076 819.272,366.276 816.841,368.422 814.019,370.487 810.832,372.392 807.461,374.019 804.075,375.311 800.599,376.339 797.103,377.174 793.592,377.925 790.02,378.694 786.51,379.535 783.205,380.476 780.099,381.577 777.143,382.88 774.36,384.415 771.678,386.265 769.195,388.439 767.005,390.932 765.197,393.74 763.814,396.881 762.952,400.203 762.638,403.6 762.887,407.096 763.69,410.468 764.979,413.607 766.749,416.565 768.855,419.168 771.313,421.492 774.028,423.481 776.958,425.129 780.007,426.419 783.215,427.385 786.577,428.015 790.015,428.28 793.508,428.182 797.152,427.728 800.781,426.961 804.315,425.939 807.772,424.691 811.122,423.26 814.366,421.675 817.565,419.952 820.691,418.148 823.753,416.302 826.79,414.414 829.78,412.508 832.797,410.536 835.846,408.476 838.813,406.422 841.72,404.332 844.614,402.2 847.513,399.961 850.37,397.706 853.141,395.407 855.916,393.021 858.63,390.597 861.255,388.167 863.822,385.644 866.361,383.092 868.839,380.474 871.238,377.818 873.569,375.147 875.859,372.374 878.085,369.549 880.201,366.78 882.237,363.964 884.273,360.985 886.226,358.014 888.088,355.056 889.887,352.004 891.623,348.875 893.31,345.749 894.884,342.573 896.37,339.427 897.728,336.284 899.047,333.08 900.271,329.826 901.432,326.562 902.514,323.213 903.558,319.804 904.495,316.381 905.394,312.888 906.195,309.378 906.944,305.85 907.596,302.273 908.197,298.762 908.734,295.136 909.204,291.476 909.609,287.938 909.916,284.344 910.168,280.687 910.38,277.097 910.513,273.517 910.602,269.915 910.68,266.286 910.71,262.654 910.719,259.074 910.71,255.477 910.715,251.903 910.699,248.289 910.679,244.624 910.682,241.044 910.654,237.463 910.638,233.859 910.623,230.246 910.624,226.572 910.601,222.948 910.581,219.387 910.562,215.79 910.545,212.203 910.514,208.593 910.497,204.966 910.474,201.363 910.48,197.772 910.46,194.163 910.459,190.548 910.463,186.944 910.471,183.32 910.457,179.694 910.479,176.08 910.474,172.478 910.481,168.905 910.488,165.33 910.481,161.718 910.492,158.119 910.491,154.533 910.483,150.912 910.467,147.306 910.433,143.729 910.414,140.152 910.367,136.572 910.28,132.956 910.133,129.331 909.902,125.705 909.54,122.048 909.072,118.401 908.449,114.789 907.669,111.195 906.706,107.622 905.616,104.153 904.403,100.855 903.057,97.698 901.563,94.61 899.936,91.587 898.167,88.696 896.306,85.934 894.316,83.239 892.171,80.65 889.888,78.109 887.453,75.684 884.872,73.347 882.137,71.142 879.283,69.003 876.236,66.979 873.034,65.076 869.752,63.329 866.432,61.768 863.087,60.38 859.685,59.133 856.201,58.013 852.658,57.011 849.148,56.151 845.595,55.366 841.964,54.663 838.384,54.038 834.835,53.447 831.244,52.912 827.606,52.425 823.985,51.974 820.422,51.573 816.851,51.264 813.228,50.957 809.6,50.711 806.008,50.521 802.4,50.356 798.767,50.251 795.106,50.157 791.467,50.16 787.815,50.155 784.178,50.195 780.584,50.273 776.98,50.397 773.389,50.544 769.761,50.723 766.147,50.912 762.599,51.144 758.95,51.349 755.312,51.604 751.758,51.859 748.179,52.085 744.585,52.319 740.98,52.585 737.426,52.809 733.902,53.048 730.243,53.302 726.576,53.548 723.014,53.778 719.495,54.013 715.951,54.236 712.287,54.437 708.605,54.616 704.991,54.795 701.437,54.922 697.893,55.016 694.313,55.059 690.696,55.077 687.013,55.014 683.356,54.891 679.752,54.697 676.149,54.451 672.584,54.115 668.975,53.7 665.292,53.209 661.653,52.643 658.135,52.021 654.68,51.341 651.285,50.607 647.97,49.83 644.616,48.977 641.258,48.069 637.911,47.113 634.533,46.13 631.181,45.12 627.761,44.124 624.288,43.166 620.77,42.288 617.145,41.498 613.472,40.859 609.899,40.418 606.515,40.134 603.274,40.008 600.072,40.0 596.941,40.139 593.82,40.415 590.433,40.848 586.929,41.478 583.426,42.311 579.968,43.322 576.583,44.504 573.216,45.845 569.947,47.253 566.641,48.765 563.331,50.284 560.041,51.759 556.709,53.164 553.361,54.452 549.975,55.592 546.541,56.57 543.062,57.374 539.565,57.989 536.033,58.419 532.576,58.663 529.15,58.711 525.809,58.581 522.579,58.276 519.328,57.801 516.091,57.161 512.879,56.354 509.682,55.393 506.442,54.232 503.137,52.858 499.867,51.369 496.58,49.868 493.203,48.395 489.761,47.021 486.356,45.841 482.943,44.86 479.567,44.111 476.279,43.605 472.977,43.333 469.639,43.293 466.341,43.484 463.081,43.896 459.842,44.552 456.659,45.466 453.556,46.625 450.504,48.027 447.524,49.692 444.609,51.616 441.757,53.799 438.982,56.233 436.325,58.893 433.898,61.661 431.68,64.566 429.617,67.632 427.74,70.742 426.013,73.951 424.412,77.237 422.91,80.518 421.411,83.798 419.914,86.96 418.394,90.001 416.731,93.056 414.998,96.008 413.191,98.856 411.25,101.697 409.216,104.475 407.081,107.197 404.815,109.9 402.444,112.553 399.912,115.182 397.293,117.742 394.644,120.192 391.908,122.557 389.124,124.84 386.269,127.076 383.37,129.249 380.476,131.351 377.534,133.427 374.538,135.472 371.572,137.469 368.6,139.472 365.556,141.467 362.518,143.447 359.54,145.416 356.509,147.38 353.499,149.314 350.442,151.274 347.406,153.222 344.408,155.126 341.345,157.068 338.298,159.014 335.255,160.93 332.178,162.895 329.12,164.834 326.088,166.73 323.03,168.704 320.016,170.589 317.001,172.495 313.918,174.449 310.851,176.372 307.853,178.254 304.796,180.175 301.696,182.132 298.652,184.027 295.637,185.9 292.582,187.816 289.514,189.759 286.413,191.7 283.327,193.651 280.287,195.547 277.278,197.442 274.267,199.349 271.26,201.248 268.227,203.157 265.169,205.102 262.133,207.029 259.121,208.947 256.081,210.869 253.032,212.79 249.961,214.726 246.906,216.654 243.872,218.579 240.816,220.511 237.761,222.456 234.695,224.39 231.643,226.327 228.578,228.26 225.526,230.189 222.467,232.117 219.395,234.066 216.348,236.002 213.289,237.926 210.219,239.878 207.194,241.78 204.176,243.689 201.159,245.619 198.165,247.571 195.12,249.522 192.034,251.524 188.98,253.519 185.954,255.503 183.0,257.429 180.027,259.427 177.029,261.421 174.02,263.434 170.965,265.506 167.995,267.547 165.063,269.578 162.164,271.608 159.194,273.689 156.192,275.834 153.218,277.982 150.34,280.047 147.464,282.172 144.536,284.324 141.599,286.522 138.698,288.72 135.889,290.841 133.011,293.035 130.136,295.249 127.256,297.488 124.391,299.732 121.542,301.981 118.746,304.221 115.934,306.52 113.14,308.877 110.385,311.324 107.75,313.846 105.183,316.492 102.772,319.223 100.473,322.123 98.345,325.152 96.411,328.269 94.733,331.404 93.247,334.679 92.012,337.981 90.997,341.378 90.231,344.789 89.685,348.162 89.374,351.52 89.281,354.834 89.403,358.162 89.736,361.5 90.27,364.805 91.03,368.107 92.009,371.368 93.2,374.522 94.565,377.546 96.186,380.544 98.028,383.485 100.109,386.346 102.338,389.009 104.858,391.648 107.554,394.111 110.385,396.393 113.435,398.552 116.564,400.522 119.698,402.252 123.017,403.871 126.351,405.324 129.605,406.622 132.859,407.852 136.302,409.146 139.619,410.407 142.876,411.735 146.069,413.037 149.351,414.412 152.678,415.875 156.008,417.376 159.262,418.889 162.433,420.391 165.538,421.902 168.797,423.53 171.954,425.173 175.102,426.837 178.29,428.56 181.475,430.32 184.512,432.032 187.637,433.868 190.863,435.779 193.931,437.65 197.015,439.566 200.016,441.475 203.09,443.471 206.069,445.458 209.088,447.499 212.033,449.526 215.029,451.604 217.925,453.596 220.871,455.671 223.937,457.833 226.918,459.921 229.822,461.959 232.854,464.08 235.789,466.154 238.72,468.217 241.72,470.333 244.675,472.429 247.624,474.563 250.533,476.776 253.279,479.148 255.788,481.803 258.023,484.931 259.673,488.327 260.55,491.326 260.907,493.723 260.964,496.19 260.614,499.045 259.662,502.223 258.121,505.566 256.481,508.883 255.052,512.126 253.956,515.353 253.271,518.349 252.929,521.18 252.881,523.989 253.132,526.875 253.788,530.051 254.942,533.406 256.691,536.901 258.81,540.004 261.309,542.838 263.987,545.33 266.903,547.641 269.919,549.72 273.081,551.618 276.379,553.351 279.743,554.887 283.277,556.264 286.841,557.43 290.412,558.372 294.122,559.129 297.568,559.622 301.457,559.931 305.227,560.0 308.576,559.859 312.372,559.494 315.671,558.987 318.889,558.319 322.122,557.475 325.306,556.484 328.284,555.446 331.432,554.152 334.997,552.526 338.131,550.837 341.418,548.966 344.413,546.869 347.529,544.667 350.257,542.632 352.817,540.371 355.53,537.954 357.931,535.793 359.585,534.279 363.98,530.411" fill="none" stroke="white" stroke-width="4"
            stroke-linejoin="round" stroke-linecap="round"/>
</svg>
