<?xml version="1.0" encoding="utf-8"?>
<svg xmlns="http://www.w3.org/2000/svg" width="1000" height="600">
  <polyline points="452.453,443.92 449.731,446.343 447.062,448.728 444.358,451.164 441.699,453.56 439.041,455.973 436.384,458.404 433.722,460.841 431.097,463.247 428.444,465.694 425.774,468.142 423.115,470.592 420.444,473.04 417.8,475.494 415.154,477.94 412.501,480.387 409.884,482.839 407.264,485.31 404.596,487.809 402.001,490.259 399.429,492.726 396.801,495.226 394.205,497.713 391.606,500.215 389.019,502.697 386.413,505.203 383.796,507.744 381.22,510.216 378.643,512.711 376.044,515.227 373.444,517.755 370.842,520.27 368.233,522.799 365.611,525.339 363.03,527.821 360.447,530.292 357.845,532.773 355.244,535.237 352.621,537.672 349.902,540.128 347.125,542.529 344.356,544.832 341.516,547.014 338.525,549.148 335.366,551.184 332.175,552.999 329.083,554.552 326.081,555.837 323.22,556.888 320.238,557.828 316.896,558.676 313.297,559.351 309.647,559.795 305.975,560.0 302.275,559.968 298.621,559.705 294.94,559.205 291.288,558.476 287.671,557.551 284.098,556.389 280.582,555.015 277.128,553.438 273.811,551.704 270.58,549.876 267.395,547.909 264.357,545.765 261.516,543.373 258.876,540.64 256.557,537.599 254.655,534.282 253.298,530.881 252.522,527.634 252.237,524.647 252.318,521.833 252.733,519.063 253.515,516.224 254.696,513.259 256.237,510.085 257.887,506.722 259.295,503.261 260.22,499.834 260.593,496.753 260.555,494.175 260.229,491.799 259.431,488.956 257.881,485.678 255.746,482.565 253.321,479.807 250.737,477.297 247.999,474.922 245.181,472.689 242.329,470.566 239.429,468.474 236.494,466.397 233.553,464.332 230.598,462.266 227.656,460.198 224.743,458.151 221.815,456.105 218.863,454.041 215.934,451.983 213.008,449.94 210.043,447.877 207.077,445.828 204.105,443.805 201.104,441.78 198.125,439.782 195.088,437.808 192.026,435.865 188.934,433.946 185.86,432.096 182.794,430.278 179.686,428.491 176.509,426.711 173.327,424.965 170.19,423.309 167.031,421.679 163.767,420.045 160.501,418.463 157.284,416.959 154.04,415.478 150.794,414.053 147.578,412.677 144.315,411.321 140.988,409.971 137.633,408.634 134.333,407.326 131.065,406.021 127.784,404.678 124.432,403.226 121.15,401.694 117.91,400.016 114.736,398.172 111.632,396.147 108.653,393.947 105.856,391.6 103.296,389.151 100.937,386.56 98.769,383.817 96.833,380.989 95.103,378.069 93.581,375.074 92.253,371.973 91.132,368.779 90.234,365.539 89.547,362.248 89.079,358.945 88.823,355.573 88.792,352.196 88.997,348.81 89.446,345.381 90.141,342.005 91.086,338.627 92.271,335.278 93.657,332.02 95.242,328.82 97.051,325.649 99.109,322.495 101.326,319.517 103.67,316.721 106.161,314.057 108.765,311.534 111.469,309.122 114.247,306.808 117.023,304.574 119.875,302.341 122.766,300.1 125.646,297.89 128.51,295.698 131.379,293.548 134.291,291.375 137.194,289.191 140.08,287.051 142.975,284.951 145.888,282.84 148.826,280.764 151.773,278.689 154.757,276.609 157.751,274.544 160.768,272.482 163.727,270.478 166.699,268.492 169.725,266.467 172.767,264.462 175.749,262.505 178.776,260.535 181.837,258.566 184.824,256.652 187.868,254.71 190.927,252.799 193.969,250.87 197.039,248.945 200.117,247.045 203.135,245.133 206.176,243.258 209.281,241.321 212.371,239.392 215.407,237.498 218.419,235.618 221.456,233.714 224.506,231.819 227.601,229.883 230.684,227.963 233.726,226.064 236.77,224.163 239.847,222.239 242.923,220.331 245.974,218.431 249.044,216.518 252.086,214.623 255.114,212.733 258.159,210.833 261.226,208.917 264.308,206.994 267.345,205.09 270.44,203.148 273.499,201.231 276.567,199.292 279.643,197.349 282.657,195.451 285.644,193.572 288.658,191.646 291.743,189.686 294.811,187.728 297.861,185.768 300.944,183.786 304.004,181.808 306.927,179.946 309.926,178.018 313.021,176.031 316.048,174.072 319.104,172.097 322.076,170.177 325.065,168.245 328.154,166.261 331.21,164.29 334.239,162.334 337.233,160.416 340.245,158.483 343.31,156.504 346.408,154.51 349.463,152.533 352.429,150.62 355.45,148.658 358.505,146.66 361.553,144.674 364.527,142.736 367.536,140.775 370.587,138.765 373.623,136.741 376.576,134.742 379.501,132.695 382.403,130.583 385.278,128.387 388.131,126.1 390.887,123.775 393.625,121.341 396.323,118.816 398.924,116.247 401.476,113.584 403.861,110.959 406.131,108.322 408.326,105.625 410.45,102.878 412.534,100.049 414.448,97.306 416.301,94.482 418.146,91.522 419.919,88.52 421.644,85.422 423.321,82.255 424.973,78.982 426.606,75.702 428.206,72.523 429.968,69.238 431.873,66.044 433.938,62.985 436.207,60.053 438.629,57.323 441.264,54.748 444.031,52.422 446.831,50.427 449.828,48.647 452.877,47.158 455.942,45.942 459.087,44.964 462.282,44.231 465.509,43.731 468.735,43.46 471.967,43.396 475.295,43.548 478.64,43.923 481.955,44.525 485.371,45.397 488.808,46.469 492.227,47.704 495.63,49.064 498.983,50.493 502.274,51.921 505.561,53.322 508.758,54.611 511.899,55.75 515.079,56.742 518.239,57.56 521.404,58.192 524.719,58.657 528.083,58.927 531.463,58.984 534.98,58.821 538.454,58.468 541.859,57.922 545.409,57.152 548.878,56.221 552.277,55.146 555.698,53.929 559.015,52.615 562.331,51.202 565.656,49.738 569.031,48.252 572.253,46.87 575.583,45.518 578.956,44.272 582.431,43.148 585.902,42.193 589.326,41.425 592.624,40.842 595.825,40.417 598.975,40.139 602.119,40.0 605.415,40.011 608.835,40.18 612.427,40.53 616.058,41.073 619.698,41.79 623.189,42.636 626.649,43.599 630.094,44.653 633.461,45.726 636.797,46.784 640.072,47.786 643.336,48.762 646.647,49.637 650.035,50.475 653.482,51.24 656.925,51.917 660.384,52.574 663.97,53.161 667.664,53.694 671.232,54.115 674.773,54.504 678.457,54.812 682.056,55.059 685.682,55.252 689.323,55.361 692.934,55.464 696.535,55.459 700.074,55.433 703.733,55.391 707.298,55.244 710.932,55.13 714.63,54.955 718.167,54.79 721.802,54.609 725.355,54.338 728.936,54.111 732.568,53.838 736.172,53.549 739.748,53.239 743.252,52.94 746.93,52.651 750.499,52.355 754.032,52.046 757.645,51.738 761.312,51.462 764.875,51.212 768.497,50.968 772.116,50.776 775.701,50.6 779.333,50.468 782.95,50.391 786.554,50.339 790.258,50.335 793.863,50.391 797.396,50.497 801.073,50.646 804.756,50.865 808.368,51.13 812.053,51.443 815.581,51.795 819.168,52.206 822.784,52.675 826.279,53.178 829.979,53.747 833.605,54.362 837.078,54.98 840.693,55.661 844.292,56.371 847.901,57.128 851.335,57.92 854.807,58.826 858.323,59.857 861.848,61.064 865.26,62.382 868.561,63.858 871.96,65.553 875.056,67.297 878.141,69.218 881.068,71.256 883.81,73.361 886.456,75.605 888.959,77.964 891.331,80.406 893.504,82.872 895.662,85.548 897.59,88.169 899.426,90.931 901.204,93.922 902.814,96.995 904.263,100.141 905.569,103.389 906.739,106.757 907.763,110.213 908.637,113.733 909.365,117.333 909.945,121.062 910.378,124.816 910.633,128.329 910.78,131.89 910.844,135.501 910.87,139.099 910.878,142.675 910.899,146.311 910.896,149.961 910.91,153.576 910.905,157.173 910.892,160.653 910.893,164.305 910.876,167.921 910.874,171.494 910.851,175.137 910.842,178.733 910.828,182.417 910.821,185.933 910.817,189.514 910.804,193.157 910.803,196.761 910.817,200.428 910.838,203.984 910.86,207.597 910.899,211.091 910.962,214.714 910.989,218.452 911.032,222.134 911.087,225.701 911.133,229.281 911.175,232.823 911.174,236.443 911.2,239.975 911.197,243.705 911.208,247.423 911.16,251.025 911.167,254.539 911.127,258.219 911.077,261.869 911.019,265.36 910.915,268.954 910.793,272.54 910.605,276.232 910.4,279.711 910.131,283.259 909.782,287.006 909.373,290.621 908.93,294.176 908.397,297.697 907.788,301.324 907.117,304.946 906.371,308.479 905.564,311.99 904.689,315.451 903.733,318.932 902.769,322.18 901.691,325.538 900.545,328.882 899.341,332.171 898.109,335.344 896.774,338.528 895.379,341.682 893.887,344.845 892.268,348.084 890.632,351.199 888.911,354.252 887.116,357.258 885.193,360.343 883.212,363.315 881.183,366.242 879.104,369.101 876.897,371.994 874.763,374.658 872.544,377.3 870.101,380.071 867.607,382.764 865.076,385.378 862.493,387.927 859.831,390.424 857.145,392.833 854.475,395.118 851.607,397.468 848.654,399.762 845.809,401.883 842.857,403.979 839.842,406.033 836.765,408.081 833.744,410.028 830.645,411.979 827.596,413.864 824.512,415.714 821.471,417.482 818.29,419.245 814.988,420.946 811.645,422.518 808.235,423.924 804.666,425.18 801.162,426.192 797.718,426.941 794.234,427.423 790.827,427.591 787.525,427.432 784.287,426.942 781.232,426.144 778.336,425.034 775.494,423.539 772.848,421.686 770.529,419.551 768.53,417.138 766.848,414.435 765.546,411.509 764.681,408.429 764.277,405.205 764.358,401.991 764.912,398.878 765.933,395.84 767.362,393.006 769.133,390.441 771.271,388.08 773.634,386.062 776.245,384.339 779.04,382.909 782.027,381.706 785.247,380.67 788.675,379.738 792.159,378.885 795.673,378.045 799.213,377.173 802.688,376.233 806.221,375.063 809.643,373.613 812.865,371.877 815.803,369.887 818.342,367.757 820.463,365.597 822.309,363.346 823.979,360.908 825.558,358.06 826.898,354.944 827.917,351.729 828.624,348.383 829.0,344.973 829.047,341.535 828.775,338.094 828.191,334.613 827.312,331.183 826.144,327.824 824.641,324.423 822.832,321.092 820.861,318.038 818.725,315.159 816.402,312.351 813.97,309.641 811.447,307.026 808.85,304.48 806.267,302.037 803.677,299.648 801.027,297.226 798.33,294.784 795.652,292.368 792.93,289.955 790.209,287.533 787.469,285.094 784.756,282.739 782.098,280.349 779.41,277.958 776.665,275.551 774.045,273.199 771.384,270.827 768.717,268.45 766.061,266.034 763.367,263.591 760.708,261.189 758.008,258.748 755.33,256.29 752.702,253.864 750.067,251.473 747.342,248.952 744.686,246.523 742.061,244.107 739.428,241.661 736.782,239.226 734.082,236.743 731.436,234.298 728.813,231.897 726.166,229.441 723.547,227.025 720.883,224.591 718.154,222.07 715.488,219.575 712.845,217.193 710.254,214.769 707.615,212.333 705.058,210.007 702.339,207.5 699.679,204.989 696.968,202.534 694.443,200.193 691.694,197.677 689.009,195.147 686.371,192.72 683.836,190.367 681.178,187.9 678.485,185.381 675.833,182.865 673.211,180.443 670.612,177.997 667.934,175.472 665.328,173.004 662.755,170.589 660.111,168.068 657.528,165.645 654.95,163.195 652.323,160.708 649.701,158.177 647.072,155.713 644.466,153.219 641.719,150.634 639.152,148.201 636.545,145.723 633.996,143.335 631.386,140.877 628.655,138.34 626.07,135.933 623.419,133.48 620.796,131.063 618.128,128.623 615.416,126.193 612.694,123.838 609.858,121.529 607.073,119.392 603.974,117.224 600.899,115.261 597.645,113.393 594.361,111.709 590.96,110.164 587.852,108.91 585.095,107.923 582.241,107.036 579.066,106.185 575.697,105.459 572.173,104.884 568.618,104.492 564.955,104.262 561.363,104.208 557.602,104.343 553.874,104.649 550.246,105.124 546.569,105.779 542.955,106.593 539.354,107.573 535.849,108.671 532.414,109.855 528.994,111.127 525.564,112.502 522.169,113.952 518.771,115.493 515.374,117.134 512.157,118.838 509.002,120.849 506.122,123.308 503.603,126.358 501.82,129.749 500.883,132.909 500.599,135.65 500.753,138.066 501.301,140.535 502.33,143.114 504.003,145.746 506.488,148.301 509.621,150.44 512.948,151.907 516.378,152.853 519.962,153.372 523.61,153.54 527.353,153.488 530.978,153.415 534.695,153.466 538.309,153.767 541.898,154.415 545.327,155.467 548.69,157.037 551.798,159.141 554.324,161.526 556.177,163.885 557.472,166.047 558.548,168.385 559.43,171.083 560.011,174.268 560.141,177.768 559.71,181.708 558.784,185.39 557.469,188.825 555.89,191.997 554.022,195.168 552.076,198.163 549.977,201.165 547.845,204.042 545.698,206.815 543.45,209.594 541.155,212.353 538.776,215.193 536.453,217.946 534.183,220.677 531.776,223.536 529.47,226.353 527.299,229.054 524.992,232.003 522.819,234.934 520.835,237.759 518.888,240.691 516.943,243.787 515.116,246.907 513.362,250.163 511.733,253.433 510.312,256.611 508.949,259.965 507.757,263.265 506.697,266.614 505.768,269.98 504.993,273.414 504.342,276.877 503.853,280.307 503.531,283.645 503.324,287.128 503.226,290.597 503.302,293.888 503.474,297.128 503.805,300.657 504.279,304.08 504.854,307.652 505.629,311.286 506.403,314.761 507.208,318.286 508.047,321.583 508.856,324.968 509.702,328.463 510.555,332.07 511.319,335.528 512.018,339.07 512.614,342.575 513.078,346.107 513.399,349.804 513.567,353.391 513.594,357.282 513.456,360.965 513.145,364.719 512.622,368.662 512.088,371.777 511.38,375.108 510.561,378.256 509.658,381.283 508.604,384.464 507.421,387.483 506.149,390.452 504.661,393.545 502.782,397.003 501.006,400.053 499.044,403.044 496.627,406.278 494.473,408.826 492.044,411.356 489.44,413.737 486.623,416.046 483.552,418.476 480.699,420.692 477.753,423.0 474.56,425.461 471.905,427.555 469.506,429.506 466.437,432.081 463.258,434.771 460.456,437.16 458.14,439.157 456.598,440.496 452.453,443.92" fill="none" stroke="white" stroke-width="4"
            stroke-linejoin="round" stroke-linecap="round"/>
</svg>
