<?xml version="1.0" encoding="utf-8"?>
<svg xmlns="http://www.w3.org/2000/svg" width="1000" height="600">
  <polyline points="572.221,458.785 575.307,460.965 578.434,463.169 581.568,465.404 584.652,467.59 587.739,469.787 590.845,472.026 593.927,474.225 596.96,476.402 600.041,478.634 603.151,480.881 606.241,483.098 609.308,485.321 612.341,487.511 615.364,489.715 618.478,491.978 621.583,494.241 624.612,496.452 627.614,498.672 630.695,500.952 633.803,503.259 636.857,505.524 639.855,507.779 642.863,510.023 645.871,512.279 648.92,514.561 651.964,516.863 655.03,519.152 658.106,521.47 661.12,523.732 664.129,525.982 667.15,528.245 670.227,530.535 673.248,532.769 676.277,535.004 679.341,537.249 682.388,539.462 685.475,541.675 688.591,543.859 691.708,545.947 694.96,548.0 698.345,549.968 701.784,551.777 705.243,553.421 708.82,554.924 712.583,556.292 716.135,557.383 719.38,558.209 722.627,558.877 725.92,559.408 729.372,559.792 733.156,560.0 737.016,559.984 740.848,559.742 744.692,559.274 748.55,558.571 752.407,557.629 756.165,556.478 759.841,555.111 763.451,553.525 766.963,551.717 770.351,549.708 773.619,547.554 776.84,545.279 779.948,542.863 782.876,540.238 785.579,537.357 787.979,534.204 790.015,530.773 791.614,527.056 792.632,523.316 793.05,519.798 792.986,516.643 792.552,513.682 791.777,510.826 790.621,507.942 789.032,504.986 787.009,501.847 784.879,498.568 782.997,495.164 781.607,491.71 780.83,488.514 780.551,485.807 780.6,483.293 781.082,480.217 782.304,476.593 784.168,473.07 786.382,469.884 788.768,466.955 791.309,464.166 793.978,461.466 796.707,458.87 799.468,456.341 802.272,453.808 805.089,451.285 807.903,448.763 810.691,446.28 813.473,443.795 816.306,441.267 819.129,438.751 821.956,436.235 824.789,433.708 827.625,431.207 830.476,428.712 833.316,426.229 836.191,423.757 839.122,421.285 842.043,418.845 844.999,416.468 847.981,414.091 850.995,411.754 853.997,409.482 857.027,407.226 860.134,404.99 863.22,402.811 866.308,400.676 869.462,398.58 872.612,396.509 875.798,394.501 879.008,392.514 882.245,390.561 885.466,388.677 888.726,386.814 892.016,384.977 895.281,383.202 898.567,381.439 901.852,379.676 905.143,377.912 908.452,376.081 911.734,374.185 914.952,372.205 918.148,370.051 921.241,367.75 924.245,365.251 927.102,362.586 929.702,359.838 932.101,356.943 934.276,353.918 936.182,350.828 937.866,347.633 939.322,344.361 940.557,341.02 941.555,337.645 942.335,334.187 942.878,330.682 943.188,327.166 943.273,323.631 943.127,320.101 942.751,316.631 942.133,313.134 941.236,309.556 940.085,306.059 938.723,302.706 937.095,299.363 935.241,296.097 933.181,292.923 930.898,289.831 928.389,286.818 925.702,283.973 922.878,281.312 919.934,278.825 916.917,276.518 913.814,274.347 910.642,272.272 907.43,270.253 904.167,268.259 900.936,266.294 897.669,264.35 894.365,262.39 891.128,260.491 887.858,258.581 884.569,256.679 881.284,254.803 877.946,252.906 874.623,251.069 871.294,249.238 867.966,247.447 864.606,245.65 861.218,243.856 857.877,242.085 854.517,240.356 851.116,238.602 847.749,236.889 844.372,235.185 840.962,233.483 837.561,231.781 834.185,230.122 830.792,228.478 827.368,226.823 823.907,225.154 820.502,223.54 817.095,221.924 813.645,220.278 810.247,218.678 806.834,217.059 803.409,215.459 799.919,213.808 796.476,212.148 793.082,210.558 789.636,208.919 786.176,207.275 782.822,205.707 779.408,204.089 775.969,202.461 772.554,200.845 769.117,199.216 765.659,197.58 762.212,195.949 758.795,194.336 755.399,192.722 751.979,191.11 748.562,189.488 745.118,187.861 741.654,186.216 738.192,184.555 734.803,182.948 731.391,181.321 727.99,179.69 724.586,178.05 721.139,176.396 717.714,174.748 714.311,173.101 710.935,171.457 707.438,169.755 703.997,168.082 700.639,166.449 697.278,164.787 693.879,163.122 690.483,161.462 687.064,159.781 683.626,158.096 680.209,156.417 676.864,154.769 673.451,153.084 670.008,151.39 666.553,149.689 663.129,148.007 659.79,146.377 656.425,144.71 652.994,143.035 649.53,141.324 646.157,139.665 642.81,138.002 639.382,136.312 635.915,134.578 632.492,132.866 629.147,131.204 625.793,129.527 622.363,127.797 618.981,126.068 615.625,124.318 612.335,122.546 609.035,120.687 605.703,118.704 602.469,116.677 599.275,114.56 596.108,112.342 593.019,110.052 589.971,107.665 587.041,105.242 584.172,102.733 581.44,100.22 578.887,97.732 576.338,95.122 573.88,92.48 571.488,89.777 569.206,87.048 566.928,84.189 564.705,81.254 562.51,78.211 560.364,75.092 558.264,71.914 556.171,68.702 554.075,65.514 551.863,62.329 549.477,59.196 546.984,56.287 544.297,53.529 541.377,50.91 538.339,48.558 535.186,46.476 531.96,44.699 528.633,43.212 525.233,42.016 521.895,41.133 518.519,40.499 515.092,40.127 511.723,40.0 508.245,40.121 504.805,40.465 501.411,41.023 497.996,41.817 494.582,42.869 491.118,44.183 487.692,45.721 484.271,47.421 480.883,49.256 477.575,51.152 474.284,53.051 470.933,54.944 467.752,56.665 464.646,58.203 461.491,59.603 458.326,60.825 454.979,61.904 451.558,62.795 448.146,63.473 444.572,63.95 440.941,64.216 437.245,64.271 433.486,64.116 429.762,63.767 426.054,63.229 422.362,62.539 418.669,61.686 414.999,60.717 411.348,59.634 407.769,58.516 404.16,57.391 400.522,56.298 396.81,55.269 393.102,54.36 389.412,53.618 385.689,53.044 382.034,52.653 378.542,52.441 375.16,52.385 371.802,52.471 368.43,52.719 364.993,53.134 361.429,53.735 357.752,54.544 354.003,55.563 350.288,56.763 346.672,58.106 343.202,59.527 339.805,61.012 336.441,62.53 333.153,64.011 329.798,65.481 326.452,66.915 323.04,68.259 319.645,69.541 316.222,70.723 312.653,71.912 309.078,73.027 305.441,74.061 301.686,75.054 297.954,75.985 294.233,76.833 290.489,77.586 286.638,78.32 282.955,78.951 279.273,79.51 275.503,80.033 271.663,80.511 267.964,80.885 264.223,81.26 260.432,81.547 256.585,81.845 252.824,82.11 249.036,82.345 245.236,82.572 241.46,82.775 237.71,82.934 233.889,83.091 230.088,83.25 226.277,83.353 222.473,83.482 218.757,83.628 214.903,83.742 211.07,83.857 207.342,83.981 203.609,84.113 199.802,84.306 195.983,84.488 192.177,84.711 188.431,84.974 184.632,85.275 180.837,85.625 176.952,86.032 173.14,86.46 169.4,86.949 165.586,87.5 161.834,88.081 158.13,88.732 154.382,89.44 150.652,90.193 146.882,91.012 143.137,91.89 139.382,92.813 135.745,93.77 132.131,94.768 128.502,95.816 124.794,96.923 121.181,98.034 117.502,99.211 113.871,100.419 110.272,101.697 106.622,103.114 103.116,104.614 99.596,106.281 96.203,108.081 92.853,110.055 89.599,112.195 86.507,114.434 83.571,116.781 80.785,119.242 78.138,121.814 75.697,124.435 73.32,127.25 71.14,130.112 69.167,132.95 67.303,135.911 65.546,138.99 63.97,142.105 62.503,145.377 61.226,148.722 60.102,152.141 59.137,155.744 58.306,159.478 57.653,163.256 57.177,167.089 56.855,170.968 56.729,174.835 56.727,178.605 56.874,182.374 57.149,186.246 57.525,190.023 57.915,193.685 58.348,197.542 58.771,201.249 59.192,204.948 59.651,208.895 60.09,212.598 60.541,216.402 61.002,220.14 61.449,223.87 61.904,227.689 62.377,231.426 62.822,235.163 63.284,238.996 63.755,242.755 64.172,246.432 64.606,250.176 65.069,254.062 65.5,257.784 65.893,261.483 66.309,265.245 66.7,269.067 67.09,272.781 67.467,276.486 67.859,280.333 68.245,284.183 68.646,287.956 69.049,291.656 69.449,295.436 69.871,299.21 70.308,303.019 70.751,306.858 71.216,310.732 71.671,314.503 72.16,318.249 72.63,321.976 73.138,325.747 73.664,329.443 74.245,333.208 74.858,336.924 75.534,340.703 76.27,344.477 77.047,348.157 77.891,351.875 78.792,355.501 79.796,359.23 80.855,362.886 81.993,366.572 83.205,370.202 84.432,373.668 85.773,377.211 87.173,380.699 88.613,384.068 90.16,387.488 91.749,390.82 93.378,394.057 95.056,397.223 96.862,400.432 98.725,403.572 100.622,406.631 102.66,409.737 104.77,412.791 107.029,415.882 109.271,418.839 111.616,421.722 114.021,424.591 116.515,427.428 118.953,430.069 121.552,432.776 124.275,435.476 127.025,438.067 129.829,440.594 132.641,443.015 135.568,445.422 138.524,447.736 141.669,450.075 144.744,452.248 147.869,454.358 151.117,456.44 154.465,458.475 157.777,460.393 161.05,462.189 164.495,463.999 167.867,465.72 171.322,467.422 174.846,469.111 178.164,470.662 181.648,472.239 185.205,473.79 188.671,475.214 192.332,476.594 196.036,477.838 199.684,478.879 203.52,479.759 207.335,480.402 211.068,480.778 214.794,480.862 218.377,480.621 221.777,480.056 225.079,479.156 228.212,477.933 231.136,476.399 233.869,474.525 236.391,472.285 238.548,469.788 240.367,466.992 241.819,463.911 242.817,460.706 243.339,457.405 243.374,454.024 242.911,450.713 241.943,447.481 240.49,444.403 238.639,441.612 236.456,439.133 233.962,436.955 231.241,435.132 228.306,433.65 225.18,432.482 221.912,431.595 218.487,430.923 214.881,430.386 211.106,429.923 207.249,429.47 203.415,428.976 199.698,428.407 195.951,427.625 192.178,426.518 188.536,425.07 185.238,423.355 182.383,421.482 179.893,419.479 177.645,417.312 175.567,414.923 173.603,412.184 171.81,409.056 170.358,405.825 169.212,402.398 168.415,398.927 167.952,395.356 167.816,391.694 168.002,388.012 168.518,384.248 169.334,380.597 170.461,376.962 171.924,373.301 173.65,369.789 175.564,366.456 177.628,363.259 179.808,360.182 182.111,357.163 184.442,354.251 186.901,351.339 189.375,348.431 191.872,345.542 194.365,342.7 196.855,339.872 199.371,337.04 201.904,334.201 204.402,331.383 206.986,328.541 209.508,325.702 212.054,322.854 214.599,320.035 217.074,317.245 219.671,314.341 222.145,311.542 224.637,308.711 227.115,305.868 229.605,303.021 232.096,300.203 234.633,297.277 237.087,294.393 239.551,291.572 242.111,288.682 244.5,285.84 247.037,282.914 249.536,280.038 251.953,277.219 254.422,274.367 256.919,271.443 259.392,268.586 261.875,265.721 264.295,262.851 266.798,259.99 269.296,257.04 271.712,254.236 274.162,251.384 276.621,248.495 279.102,245.59 281.528,242.775 284.091,239.81 286.495,236.961 289.073,233.992 291.533,231.083 293.973,228.285 296.486,225.332 298.88,222.547 301.359,219.645 303.888,216.684 306.373,213.776 308.725,210.96 311.162,208.072 313.596,205.181 316.158,202.169 318.515,199.337 320.955,196.435 323.276,193.661 325.833,190.605 328.257,187.69 330.626,184.871 333.123,181.873 335.424,179.115 338.003,176.021 340.418,173.145 342.825,170.262 345.202,167.424 347.72,164.451 350.163,161.555 352.66,158.634 355.169,155.683 357.593,152.86 360.14,149.904 362.53,147.152 365.109,144.255 367.637,141.499 370.216,138.835 373.044,136.114 375.837,133.62 378.847,131.182 382.082,128.793 385.325,126.62 388.716,124.587 391.827,122.898 394.499,121.577 397.611,120.209 400.64,119.011 404.056,117.857 407.7,116.818 411.354,115.982 415.1,115.307 419.09,114.791 422.928,114.484 426.693,114.358 430.532,114.414 434.44,114.644 438.333,115.059 442.193,115.634 446.03,116.367 449.798,117.195 453.624,118.137 457.385,119.158 461.094,120.263 464.76,121.441 468.494,122.745 472.133,124.175 475.578,125.858 478.933,128.109 481.896,130.961 484.152,134.265 485.539,137.521 486.159,140.374 486.282,142.929 486.009,145.512 485.264,148.281 483.836,151.241 481.521,154.248 478.516,156.836 475.224,158.779 471.724,160.204 468.05,161.19 464.297,161.807 460.412,162.204 456.508,162.577 452.681,163.072 448.89,163.833 445.214,164.95 441.749,166.475 438.42,168.551 435.446,171.134 433.093,173.969 431.456,176.672 430.372,179.11 429.564,181.619 428.986,184.503 428.773,187.866 429.088,191.695 429.995,195.633 431.406,199.348 433.197,202.77 435.292,205.97 437.59,208.985 440.005,211.873 442.548,214.716 445.126,217.442 447.801,220.134 450.542,222.823 453.318,225.427 456.14,228.083 458.777,230.583 461.613,233.276 464.42,235.953 467.084,238.529 469.774,241.192 472.398,243.873 474.957,246.609 477.483,249.455 479.918,252.322 482.384,255.419 484.691,258.517 486.791,261.525 488.893,264.77 490.817,268.009 492.591,271.242 494.255,274.588 495.757,277.941 497.153,281.391 498.39,284.87 499.472,288.333 500.424,291.895 501.187,295.366 501.8,298.808 502.299,302.426 502.659,306.129 502.874,309.836 502.922,313.486 502.832,317.152 502.648,320.681 502.366,324.222 501.973,327.919 501.521,331.666 501.032,335.55 500.57,339.222 500.119,342.919 499.662,346.893 499.242,350.969 498.945,354.678 498.78,358.292 498.744,362.193 498.871,366.188 499.13,369.866 499.578,373.714 500.183,377.437 500.978,381.35 501.879,384.947 502.94,388.538 504.164,392.063 505.4,395.234 506.87,398.576 508.366,401.639 509.851,404.428 511.562,407.353 513.634,410.549 515.714,413.459 518.047,416.476 520.589,419.494 523.175,422.316 525.974,425.102 528.544,427.472 531.815,430.238 534.71,432.547 537.738,434.817 540.701,436.953 543.823,439.149 546.934,441.289 549.635,443.138 553.317,445.677 556.804,448.039 559.77,450.05 563.044,452.278 565.771,454.146 567.248,455.163 572.221,458.785" fill="none" stroke="white" stroke-width="4"
            stroke-linejoin="round" stroke-linecap="round"/>
  <line x1="560.682" y1="475.120" x2="583.760" y2="442.450" stroke="red" stroke-width="3" stroke-linecap="round"/>
</svg>
