<?xml version="1.0" encoding="utf-8"?>
<svg xmlns="http://www.w3.org/2000/svg" width="1000" height="600">
  <polyline points="512.294,43.189 510.119,43.553 507.941,43.908 505.749,44.259 503.58,44.626 501.39,44.982 499.225,45.349 497.045,45.687 494.833,46.055 492.654,46.401 490.456,46.723 488.287,47.057 486.113,47.385 483.891,47.707 481.68,48.032 479.478,48.354 477.286,48.669 475.106,48.981 472.917,49.299 470.741,49.602 468.567,49.912 466.37,50.215 464.154,50.524 461.927,50.83 459.752,51.132 457.556,51.429 455.339,51.725 453.139,52.026 450.916,52.317 448.739,52.613 446.589,52.888 444.382,53.182 442.155,53.477 439.946,53.746 437.745,54.037 435.56,54.321 433.386,54.599 431.151,54.886 428.944,55.167 426.807,55.438 424.554,55.723 422.306,56.003 420.165,56.27 417.972,56.551 415.739,56.817 413.541,57.099 411.351,57.367 409.142,57.648 406.969,57.913 404.773,58.188 402.516,58.471 400.296,58.739 398.097,59.013 395.876,59.289 393.673,59.56 391.463,59.832 389.227,60.109 387.005,60.384 384.775,60.663 382.548,60.951 380.343,61.245 378.085,61.562 375.797,61.921 373.535,62.335 371.304,62.844 369.127,63.482 367.005,64.269 364.953,65.213 363.007,66.34 361.235,67.633 359.775,68.928 358.654,70.102 357.669,71.303 356.657,72.754 355.638,74.522 354.713,76.52 353.937,78.633 353.288,80.811 352.744,82.876 352.253,84.795 351.72,86.673 351.103,88.501 350.356,90.328 349.48,92.124 348.497,93.834 347.368,95.532 346.125,97.209 344.821,98.833 343.426,100.499 341.986,102.271 340.646,104.111 339.528,105.942 338.693,107.751 338.157,109.567 337.939,111.259 337.993,112.831 338.296,114.4 338.885,116.002 339.832,117.637 341.126,119.157 342.723,120.483 344.636,121.635 346.747,122.565 348.9,123.261 351.077,123.787 353.27,124.186 355.476,124.482 357.698,124.682 359.936,124.792 362.183,124.822 364.447,124.769 366.729,124.639 368.998,124.421 371.237,124.135 373.444,123.77 375.639,123.346 377.818,122.856 379.963,122.309 382.084,121.712 384.19,121.065 386.288,120.378 388.375,119.627 390.475,118.846 392.537,118.044 394.582,117.237 396.625,116.416 398.67,115.577 400.723,114.724 402.76,113.893 404.789,113.03 406.838,112.182 408.874,111.337 410.882,110.493 412.908,109.651 414.971,108.804 417.03,107.971 419.108,107.145 421.206,106.339 423.331,105.561 425.406,104.838 427.511,104.14 429.664,103.456 431.806,102.829 433.974,102.233 436.216,101.649 438.446,101.115 440.639,100.634 442.843,100.209 445.121,99.822 447.408,99.491 449.651,99.246 451.874,99.084 454.123,98.998 456.389,99.015 458.643,99.174 460.906,99.516 463.16,100.084 465.326,100.86 467.224,101.734 468.781,102.608 470.307,103.627 471.919,104.917 473.455,106.402 474.871,108.054 476.146,109.847 477.273,111.762 478.227,113.794 478.98,115.934 479.554,118.143 479.984,120.393 480.269,122.677 480.409,124.942 480.437,127.174 480.379,129.401 480.264,131.606 480.122,133.818 479.971,136.018 479.81,138.229 479.648,140.449 479.48,142.656 479.317,144.841 479.15,147.049 478.98,149.263 478.809,151.441 478.646,153.638 478.484,155.872 478.318,158.078 478.165,160.287 478.005,162.497 477.859,164.688 477.71,166.891 477.563,169.09 477.42,171.294 477.28,173.506 477.14,175.725 477.005,177.943 476.869,180.196 476.738,182.417 476.601,184.605 476.483,186.802 476.354,189.003 476.229,191.222 476.116,193.414 475.983,195.645 475.863,197.864 475.745,200.085 475.616,202.309 475.491,204.513 475.372,206.721 475.245,208.94 475.124,211.149 475.005,213.347 474.875,215.579 474.741,217.823 474.61,220.044 474.474,222.239 474.333,224.419 474.196,226.605 474.038,228.857 473.874,231.079 473.695,233.281 473.499,235.478 473.278,237.707 473.035,239.916 472.762,242.077 472.463,244.281 472.132,246.485 471.777,248.692 471.379,250.914 470.961,253.107 470.516,255.25 470.026,257.418 469.511,259.609 468.99,261.716 468.43,263.812 467.857,265.958 467.256,268.055 466.62,270.134 465.985,272.209 465.278,274.256 464.575,276.341 463.809,278.388 463.033,280.423 462.253,282.427 461.394,284.45 460.536,286.513 459.633,288.533 458.705,290.572 457.771,292.57 456.792,294.559 455.79,296.545 454.767,298.517 453.682,300.493 452.636,302.429 451.531,304.323 450.424,306.248 449.287,308.156 448.133,310.046 446.968,311.956 445.765,313.839 444.591,315.72 443.386,317.559 442.203,319.413 440.962,321.294 439.727,323.155 438.496,325.001 437.278,326.829 436.044,328.653 434.815,330.506 433.554,332.367 432.324,334.228 431.091,336.076 429.865,337.93 428.643,339.776 427.418,341.633 426.193,343.51 424.953,345.433 423.738,347.332 422.564,349.191 421.384,351.071 420.191,352.981 419.007,354.905 417.827,356.827 416.684,358.712 415.527,360.629 414.374,362.562 413.242,364.481 412.126,366.422 411.041,368.394 410.036,370.406 409.168,372.469 408.462,374.639 407.959,376.895 407.712,379.072 407.709,381.027 407.893,382.83 408.259,384.616 408.87,386.514 409.802,388.539 411.008,390.482 412.408,392.255 413.935,393.885 415.544,395.392 417.251,396.814 419.015,398.146 420.829,399.415 422.682,400.62 424.611,401.776 426.588,402.875 428.598,403.91 430.642,404.902 432.72,405.861 434.781,406.8 436.837,407.712 438.884,408.631 440.918,409.553 442.973,410.489 445.035,411.448 447.045,412.395 449.054,413.356 451.035,414.318 453.0,415.295 454.996,416.31 456.965,417.34 458.909,418.418 460.798,419.626 462.591,421.076 464.12,422.803 465.162,424.587 465.736,426.254 465.982,427.833 465.944,429.551 465.512,431.505 464.618,433.556 463.363,435.491 461.921,437.26 460.385,438.872 458.779,440.365 457.087,441.784 455.338,443.129 453.512,444.407 451.607,445.616 449.647,446.783 447.688,447.929 445.731,449.096 443.807,450.317 441.952,451.604 440.13,452.985 438.361,454.455 436.673,455.991 435.063,457.588 433.536,459.242 432.081,460.968 430.695,462.777 429.422,464.64 428.278,466.586 427.279,468.638 426.479,470.752 425.914,472.943 425.602,475.045 425.499,477.031 425.581,478.921 425.842,480.776 426.326,482.716 427.073,484.765 428.083,486.804 429.293,488.705 430.655,490.475 432.145,492.143 433.741,493.707 435.464,495.187 437.304,496.584 439.19,497.862 441.107,499.034 443.022,500.131 444.957,501.19 446.895,502.224 448.873,503.271 450.847,504.302 452.801,505.317 454.785,506.342 456.718,507.343 458.656,508.361 460.645,509.399 462.642,510.44 464.596,511.465 466.512,512.485 468.482,513.511 470.45,514.571 472.402,515.599 474.364,516.623 476.299,517.647 478.267,518.709 480.232,519.744 482.173,520.785 484.109,521.803 486.065,522.86 488.069,523.937 490.038,524.996 491.939,526.025 493.88,527.067 495.816,528.135 497.793,529.188 499.711,530.252 501.688,531.322 503.633,532.404 505.577,533.46 507.5,534.506 509.431,535.609 511.372,536.685 513.339,537.774 515.242,538.873 517.151,539.97 519.049,541.073 520.971,542.201 522.864,543.335 524.791,544.497 526.726,545.682 528.583,546.83 530.475,548.016 532.369,549.211 534.278,550.425 536.116,551.594 537.97,552.769 539.857,553.95 541.755,555.111 543.726,556.248 545.737,557.289 547.839,558.218 550.013,558.993 552.09,559.53 554.029,559.85 556.037,560.0 558.213,559.956 560.435,559.682 562.642,559.165 564.784,558.398 566.809,557.407 568.721,556.198 570.472,554.81 572.076,553.269 573.53,551.6 574.857,549.784 576.02,547.883 576.997,545.965 577.865,543.938 578.609,541.923 579.29,539.903 579.958,537.875 580.659,535.803 581.445,533.794 582.46,531.75 583.817,529.739 585.109,528.291 586.136,527.355 587.43,526.387 589.215,525.373 591.274,524.564 593.481,524.012 595.737,523.674 597.929,523.498 600.081,523.409 602.302,523.329 604.415,523.201 606.53,522.959 608.626,522.569 610.583,522.051 612.525,521.373 614.382,520.556 616.248,519.548 618.093,518.356 619.875,517.011 621.553,515.548 623.148,513.952 624.588,512.305 625.948,510.53 627.21,508.683 628.393,506.803 629.537,504.916 630.72,503.018 631.944,501.191 633.231,499.383 634.591,497.63 635.973,495.992 637.521,494.315 639.106,492.746 640.781,491.236 642.507,489.827 644.292,488.534 646.019,487.42 647.904,486.334 649.868,485.294 651.85,484.29 653.903,483.228 655.898,482.095 657.747,480.86 659.462,479.404 660.862,477.705 661.736,475.875 662.061,474.247 661.982,472.64 661.479,470.974 660.479,469.351 658.949,467.836 657.054,466.598 655.063,465.666 653.005,464.943 650.839,464.341 648.6,463.837 646.421,463.43 644.193,463.051 641.972,462.69 639.781,462.351 637.603,462.013 635.396,461.663 633.281,461.331 631.032,460.97 628.884,460.635 626.707,460.281 624.513,459.947 622.355,459.578 620.133,459.254 618.084,458.922 615.867,458.576 613.644,458.216 611.49,457.894 609.223,457.518 607.047,457.163 604.867,456.808 602.743,456.472 600.493,456.108 598.32,455.741 596.169,455.381 593.941,455.027 591.765,454.647 589.586,454.301 587.37,453.918 585.172,453.58 583.063,453.188 580.802,452.807 578.631,452.431 576.468,452.079 574.256,451.687 572.149,451.306 570.021,450.934 567.806,450.524 565.595,450.156 563.455,449.748 561.264,449.317 559.108,448.943 556.91,448.475 554.812,448.039 552.666,447.609 550.493,447.135 548.214,446.658 546.049,446.148 543.959,445.617 541.832,445.135 539.663,444.57 537.468,443.997 535.315,443.462 533.163,442.872 530.991,442.255 528.849,441.667 526.717,441.059 524.616,440.391 522.38,439.712 520.361,439.091 518.22,438.401 515.971,437.662 513.855,436.958 511.74,436.255 509.583,435.506 507.435,434.768 505.322,434.034 503.195,433.283 501.111,432.553 499.008,431.811 496.897,431.057 494.78,430.283 492.676,429.476 490.585,428.602 488.616,427.643 486.683,426.492 484.812,425.069 483.277,423.475 482.201,421.913 481.463,420.423 480.917,418.744 480.597,416.668 480.643,414.387 481.111,411.996 481.968,409.645 483.082,407.54 484.345,405.68 485.733,403.954 487.242,402.296 488.782,400.742 490.376,399.225 491.976,397.744 493.647,396.209 495.283,394.694 496.901,393.187 498.498,391.67 500.095,390.115 501.626,388.628 503.216,387.053 504.769,385.496 506.352,383.893 507.924,382.268 509.347,380.719 510.878,379.07 512.361,377.375 513.827,375.694 515.234,373.994 516.549,372.388 517.934,370.646 519.294,368.876 520.636,367.063 521.932,365.23 523.109,363.482 524.354,361.564 525.54,359.609 526.655,357.681 527.716,355.762 528.705,353.865 529.633,351.99 530.511,350.079 531.381,348.113 532.164,346.17 532.898,344.239 533.613,342.242 534.312,340.117 534.939,337.998 535.509,336.004 536.018,333.863 536.557,331.623 536.966,329.529 537.378,327.3 537.755,325.015 538.001,322.867 538.311,320.657 538.569,318.422 538.681,316.166 538.927,314.178 539.059,311.748 539.173,309.608 539.297,307.491 539.43,305.134 539.523,303.04 539.622,300.781 539.755,298.488 539.822,296.476 539.935,294.127 539.907,291.984 540.12,289.757 540.149,287.456 540.238,285.221 540.327,283.073 540.405,280.825 540.467,278.873 540.591,276.487 540.605,274.145 540.699,272.136 540.836,269.795 540.823,267.697 540.956,265.39 541.04,263.072 541.079,261.051 541.178,258.65 541.276,256.584 541.333,254.302 541.422,252.07 541.484,249.898 541.508,247.622 541.674,245.487 541.681,243.159 541.832,241.08 541.83,238.811 541.996,236.569 542.0,234.191 542.139,232.253 542.173,229.903 542.294,227.632 542.351,225.612 542.44,223.262 542.483,221.028 542.602,218.802 542.681,216.688 542.75,214.273 542.849,211.931 542.938,209.816 542.988,207.584 543.116,205.306 543.213,202.936 543.328,200.656 543.433,198.447 543.543,196.237 543.664,194.008 543.799,191.728 543.958,189.465 544.147,187.295 544.453,184.981 544.916,182.781 545.635,180.602 546.669,178.543 547.878,176.821 549.061,175.532 550.341,174.423 551.898,173.367 553.638,172.498 555.654,171.761 557.843,171.115 559.899,170.521 561.709,169.919 563.69,169.123 565.506,168.224 567.15,167.236 568.749,166.096 570.292,164.772 571.75,163.288 573.114,161.624 574.269,159.932 575.37,158.011 576.33,155.969 577.106,153.916 577.765,151.619 578.238,149.37 578.559,147.223 578.766,144.94 578.903,142.656 579.0,140.397 579.056,138.364 579.099,136.309 579.138,134.194 579.168,131.95 579.207,129.58 579.252,127.098 579.332,124.984 579.403,122.977 579.545,120.873 579.64,118.355 579.799,116.159 579.882,113.995 580.051,112.083 580.164,109.911 580.339,107.469 580.461,105.39 580.659,103.062 580.813,100.982 580.949,98.793 581.127,96.551 581.257,94.431 581.443,91.892 581.589,89.562 581.696,88.039 581.876,85.365 582.006,82.938 582.11,80.518 582.135,78.412 582.084,76.253 581.921,73.902 581.647,71.806 581.261,69.847 580.606,67.377 579.892,65.298 579.296,63.813 578.382,61.883 577.271,59.887 576.195,58.161 574.976,56.516 573.372,54.494 572.257,53.346 570.693,51.711 569.067,50.276 567.192,48.787 565.271,47.421 563.603,46.357 561.659,45.299 559.217,44.114 556.744,43.092 554.554,42.319 552.713,41.759 550.307,41.211 548.261,40.802 546.243,40.48 543.942,40.218 541.434,40.061 539.324,40.0 537.366,40.017 534.917,40.159 532.334,40.405 530.169,40.668 528.421,40.9 526.114,41.217 523.673,41.562 522.123,41.784 519.531,42.173 516.936,42.582 515.571,42.801 512.294,43.189" fill="none" stroke="white" stroke-width="4"
            stroke-linejoin="round" stroke-linecap="round"/>
</svg>
