<?xml version="1.0" encoding="utf-8"?>
<svg xmlns="http://www.w3.org/2000/svg" width="1000" height="600">
  <polyline points="512.322,43.319 510.125,43.673 507.881,44.041 505.735,44.391 503.524,44.743 501.41,45.111 499.261,45.46 497.088,45.817 494.849,46.163 492.675,46.497 490.491,46.844 488.288,47.181 486.129,47.502 483.942,47.817 481.764,48.135 479.584,48.455 477.374,48.777 475.108,49.11 472.955,49.411 470.783,49.718 468.545,50.046 466.42,50.327 464.175,50.634 461.872,50.975 459.827,51.233 457.565,51.569 455.406,51.838 453.243,52.142 450.939,52.436 448.806,52.755 446.57,53.02 444.398,53.327 442.189,53.587 440.016,53.876 437.812,54.17 435.583,54.455 433.417,54.747 431.18,55.02 428.983,55.3 426.81,55.58 424.601,55.866 422.418,56.124 420.16,56.418 417.984,56.686 415.821,56.964 413.594,57.257 411.459,57.505 409.191,57.801 407.008,58.07 404.81,58.349 402.634,58.61 400.441,58.886 398.21,59.166 395.99,59.436 393.7,59.723 391.462,59.99 389.284,60.263 387.054,60.544 384.875,60.815 382.658,61.103 380.432,61.401 378.188,61.717 375.863,62.087 373.649,62.493 371.44,62.999 369.257,63.632 367.119,64.413 365.059,65.358 363.123,66.474 361.314,67.783 359.892,69.032 358.759,70.209 357.761,71.421 356.748,72.868 355.741,74.611 354.784,76.658 354.0,78.782 353.366,80.93 352.834,82.979 352.335,84.934 351.802,86.823 351.188,88.624 350.431,90.461 349.569,92.219 348.57,93.94 347.459,95.605 346.208,97.285 344.885,98.944 343.483,100.65 342.057,102.437 340.725,104.264 339.601,106.104 338.774,107.898 338.236,109.716 338.015,111.395 338.067,112.975 338.369,114.535 338.955,116.116 339.899,117.749 341.188,119.277 342.783,120.626 344.692,121.791 346.783,122.719 348.9,123.401 351.079,123.924 353.272,124.325 355.478,124.621 357.698,124.824 359.938,124.933 362.122,124.963 364.424,124.905 366.748,124.77 369.005,124.56 371.246,124.251 373.405,123.909 375.657,123.466 377.811,122.986 379.94,122.429 382.045,121.852 384.183,121.184 386.314,120.484 388.397,119.739 390.437,118.968 392.52,118.17 394.608,117.343 396.616,116.533 398.659,115.702 400.722,114.855 402.732,114.012 404.767,113.165 406.816,112.319 408.832,111.465 410.933,110.609 412.915,109.762 415.001,108.94 417.057,108.091 419.083,107.294 421.226,106.488 423.331,105.727 425.416,104.992 427.535,104.295 429.691,103.628 431.805,102.997 434.044,102.402 436.211,101.835 438.341,101.326 440.614,100.844 442.856,100.408 445.058,100.032 447.38,99.701 449.643,99.446 451.818,99.273 454.115,99.172 456.352,99.187 458.643,99.347 460.917,99.69 463.105,100.236 465.315,101.02 467.186,101.873 468.768,102.755 470.279,103.763 471.898,105.056 473.421,106.521 474.862,108.193 476.128,109.955 477.261,111.844 478.262,113.935 478.999,116.012 479.576,118.24 479.985,120.426 480.274,122.728 480.415,125.02 480.439,127.265 480.385,129.48 480.267,131.702 480.129,133.887 479.975,136.063 479.815,138.295 479.649,140.529 479.479,142.693 479.306,144.965 479.132,147.18 478.954,149.368 478.804,151.531 478.621,153.708 478.452,155.973 478.28,158.202 478.138,160.371 477.992,162.535 477.825,164.729 477.678,167.003 477.543,169.201 477.381,171.518 477.264,173.656 477.099,175.848 476.977,178.001 476.854,180.201 476.715,182.357 476.587,184.74 476.456,186.8 476.335,189.086 476.188,191.335 476.095,193.521 475.964,195.775 475.831,198.017 475.714,200.173 475.59,202.338 475.465,204.552 475.338,206.827 475.225,209.022 475.092,211.195 474.973,213.394 474.837,215.687 474.708,217.844 474.578,220.146 474.436,222.339 474.303,224.53 474.15,226.758 474.015,228.946 473.832,231.059 473.661,233.392 473.468,235.54 473.237,237.746 473.019,239.942 472.726,242.176 472.427,244.376 472.095,246.566 471.768,248.744 471.34,251.017 470.895,253.21 470.466,255.315 469.963,257.553 469.433,259.642 468.922,261.798 468.389,263.842 467.822,265.993 467.225,268.135 466.577,270.252 465.98,272.321 465.28,274.31 464.579,276.417 463.829,278.416 463.074,280.431 462.26,282.515 461.392,284.553 460.631,286.582 459.669,288.612 458.769,290.635 457.841,292.614 456.87,294.636 455.859,296.622 454.79,298.622 453.797,300.537 452.689,302.53 451.566,304.456 450.493,306.29 449.314,308.234 448.173,310.183 447.014,312.002 445.864,313.886 444.635,315.765 443.413,317.718 442.253,319.492 441.039,321.361 439.771,323.251 438.625,325.021 437.339,326.885 436.101,328.754 434.881,330.609 433.623,332.454 432.433,334.229 431.142,336.19 430.009,337.948 428.721,339.845 427.509,341.738 426.264,343.612 425.056,345.525 423.86,347.349 422.706,349.19 421.517,351.115 420.281,353.047 419.123,354.979 417.938,356.882 416.8,358.781 415.648,360.673 414.478,362.626 413.362,364.527 412.261,366.43 411.174,368.41 410.171,370.436 409.292,372.559 408.577,374.73 408.055,376.935 407.781,379.109 407.739,381.071 407.893,382.874 408.245,384.686 408.852,386.588 409.811,388.607 411.021,390.505 412.414,392.254 413.924,393.865 415.547,395.375 417.263,396.805 418.999,398.131 420.85,399.422 422.693,400.635 424.604,401.797 426.582,402.897 428.615,403.962 430.633,404.95 432.678,405.915 434.773,406.848 436.779,407.76 438.873,408.7 440.91,409.628 442.926,410.55 444.981,411.5 446.977,412.437 449.022,413.416 451.037,414.396 452.988,415.361 454.979,416.371 456.958,417.4 458.891,418.47 460.797,419.689 462.591,421.144 464.113,422.857 465.156,424.635 465.727,426.281 465.978,427.849 465.947,429.566 465.513,431.543 464.633,433.581 463.386,435.522 461.958,437.283 460.436,438.882 458.829,440.375 457.149,441.787 455.408,443.13 453.582,444.409 451.669,445.618 449.688,446.786 447.743,447.922 445.811,449.079 443.91,450.277 442.019,451.601 440.174,453.011 438.434,454.457 436.722,456.019 435.129,457.605 433.596,459.267 432.145,460.988 430.765,462.794 429.498,464.663 428.353,466.609 427.373,468.601 426.538,470.757 425.942,472.967 425.617,475.049 425.514,477.042 425.602,478.916 425.87,480.775 426.363,482.728 427.106,484.766 428.098,486.794 429.276,488.679 430.648,490.478 432.112,492.118 433.726,493.695 435.465,495.192 437.297,496.583 439.159,497.849 441.075,499.025 443.016,500.136 444.899,501.168 446.843,502.212 448.828,503.249 450.787,504.284 452.797,505.322 454.728,506.321 456.695,507.352 458.648,508.365 460.635,509.412 462.629,510.453 464.591,511.481 466.565,512.529 468.522,513.545 470.428,514.566 472.373,515.588 474.342,516.627 476.32,517.684 478.259,518.687 480.191,519.75 482.143,520.757 484.131,521.838 486.135,522.912 488.088,523.946 489.978,524.984 491.924,526.025 493.909,527.081 495.865,528.147 497.71,529.172 499.653,530.222 501.644,531.31 503.596,532.375 505.566,533.443 507.55,534.554 509.485,535.619 511.454,536.725 513.363,537.809 515.214,538.859 517.146,539.969 519.07,541.095 520.989,542.23 522.857,543.337 524.799,544.521 526.686,545.682 528.546,546.829 530.405,547.998 532.315,549.201 534.18,550.387 536.041,551.563 537.879,552.724 539.82,553.935 541.75,555.111 543.699,556.231 545.744,557.282 547.8,558.186 549.946,558.945 552.031,559.492 553.979,559.83 556.003,560.0 558.184,559.964 560.425,559.684 562.61,559.162 564.733,558.393 566.768,557.398 568.659,556.214 570.414,554.846 572.047,553.298 573.526,551.613 574.82,549.852 575.985,547.961 576.99,545.989 577.843,543.981 578.58,541.956 579.266,539.926 579.934,537.896 580.64,535.828 581.442,533.801 582.48,531.741 583.831,529.745 585.119,528.301 586.139,527.38 587.394,526.435 589.18,525.429 591.256,524.618 593.43,524.054 595.652,523.701 597.86,523.516 600.042,523.43 602.211,523.354 604.356,523.226 606.49,522.983 608.568,522.601 610.564,522.078 612.48,521.413 614.341,520.602 616.205,519.601 618.06,518.41 619.846,517.066 621.531,515.603 623.087,514.053 624.564,512.369 625.928,510.593 627.173,508.763 628.335,506.895 629.503,504.969 630.699,503.065 631.913,501.228 633.2,499.429 634.558,497.683 635.999,495.98 637.523,494.339 639.117,492.772 640.804,491.27 642.53,489.887 644.284,488.627 646.077,487.471 647.93,486.391 649.842,485.363 651.841,484.323 653.859,483.258 655.821,482.127 657.702,480.857 659.401,479.405 660.794,477.709 661.665,475.879 661.985,474.231 661.891,472.652 661.37,471.013 660.375,469.397 658.865,467.89 657.008,466.663 655.011,465.723 652.911,464.977 650.759,464.374 648.564,463.877 646.353,463.46 644.119,463.077 641.889,462.712 639.675,462.362 637.503,462.026 635.343,461.683 633.154,461.346 630.969,461.002 628.794,460.673 626.591,460.326 624.391,459.988 622.225,459.648 620.05,459.305 617.831,458.964 615.662,458.618 613.495,458.284 611.288,457.922 609.087,457.579 606.912,457.233 604.739,456.878 602.559,456.53 600.379,456.178 598.18,455.809 595.971,455.451 593.798,455.088 591.653,454.736 589.467,454.368 587.253,453.998 585.068,453.637 582.917,453.268 580.696,452.884 578.483,452.511 576.314,452.14 574.152,451.757 571.999,451.379 569.842,451.0 567.681,450.613 565.5,450.219 563.302,449.815 561.112,449.396 558.933,448.976 556.771,448.536 554.633,448.102 552.469,447.646 550.286,447.168 548.097,446.689 545.933,446.177 543.78,445.673 541.625,445.143 539.459,444.596 537.294,444.038 535.133,443.471 532.976,442.882 530.812,442.275 528.645,441.664 526.531,441.033 524.416,440.398 522.297,439.746 520.156,439.069 517.976,438.361 515.871,437.672 513.78,436.977 511.63,436.254 509.518,435.526 507.406,434.8 505.27,434.053 503.167,433.317 501.069,432.582 498.94,431.833 496.831,431.081 494.737,430.313 492.645,429.509 490.577,428.637 488.586,427.657 486.649,426.489 484.819,425.088 483.315,423.527 482.235,421.968 481.482,420.443 480.947,418.76 480.643,416.716 480.689,414.408 481.157,411.982 482.006,409.635 483.104,407.566 484.37,405.712 485.788,403.958 487.292,402.315 488.849,400.757 490.455,399.241 492.083,397.741 493.714,396.245 495.355,394.734 496.972,393.226 498.583,391.695 500.197,390.137 501.777,388.596 503.333,387.047 504.892,385.491 506.446,383.902 507.98,382.308 509.485,380.691 510.973,379.046 512.452,377.376 513.891,375.696 515.305,374.0 516.666,372.316 518.041,370.588 519.41,368.796 520.711,367.02 522.004,365.185 523.259,363.308 524.455,361.44 525.617,359.527 526.728,357.602 527.771,355.698 528.763,353.785 529.713,351.837 530.6,349.906 531.428,347.985 532.218,346.037 532.971,344.051 533.677,342.049 534.338,340.021 534.965,337.948 535.548,335.828 536.089,333.675 536.58,331.489 537.028,329.294 537.424,327.091 537.776,324.882 538.081,322.68 538.341,320.474 538.575,318.243 538.774,316.009 538.944,313.836 539.101,311.666 539.251,309.434 539.371,307.191 539.501,304.973 539.623,302.789 539.725,300.602 539.82,298.366 539.924,296.153 540.007,293.952 540.083,291.714 540.188,289.527 540.243,287.312 540.33,285.076 540.416,282.879 540.476,280.653 540.571,278.441 540.636,276.214 540.724,274.017 540.783,271.778 540.882,269.563 540.937,267.38 541.025,265.168 541.096,262.933 541.165,260.697 541.25,258.504 541.319,256.284 541.395,254.08 541.469,251.861 541.552,249.624 541.624,247.422 541.692,245.187 541.78,242.991 541.848,240.772 541.931,238.514 542.007,236.315 542.088,234.128 542.162,231.872 542.244,229.661 542.328,227.491 542.4,225.227 542.475,223.001 542.559,220.843 542.637,218.567 542.718,216.348 542.801,214.146 542.883,211.873 542.967,209.632 543.057,207.392 543.158,205.123 543.256,202.851 543.357,200.626 543.465,198.4 543.578,196.163 543.697,193.936 543.831,191.701 543.981,189.508 544.17,187.283 544.467,185.044 544.954,182.796 545.697,180.62 546.74,178.582 547.953,176.876 549.142,175.603 550.395,174.534 551.903,173.512 553.674,172.619 555.717,171.868 557.85,171.242 559.905,170.649 561.866,169.988 563.741,169.227 565.546,168.325 567.244,167.295 568.839,166.137 570.332,164.845 571.754,163.387 573.104,161.74 574.35,159.927 575.44,158.014 576.402,155.953 577.205,153.773 577.816,151.586 578.257,149.366 578.545,147.164 578.719,144.964 578.833,142.785 578.916,140.518 578.973,138.284 579.005,136.112 579.032,133.917 579.043,131.721 579.053,129.476 579.112,127.254 579.185,125.002 579.287,122.741 579.403,120.531 579.517,118.401 579.655,116.25 579.8,113.994 579.947,111.813 580.085,109.6 580.249,107.379 580.411,105.135 580.568,102.942 580.733,100.727 580.894,98.497 581.053,96.348 581.228,94.118 581.379,91.883 581.531,89.711 581.687,87.484 581.836,85.207 581.955,83.025 582.044,80.782 582.077,78.565 582.028,76.277 581.859,74.001 581.57,71.822 581.139,69.643 580.523,67.364 579.835,65.373 579.075,63.542 578.307,61.935 577.349,60.206 576.202,58.414 574.904,56.607 573.492,54.862 571.97,53.197 570.345,51.614 568.624,50.107 566.883,48.753 565.06,47.492 563.343,46.404 561.25,45.207 559.212,44.227 557.116,43.346 554.966,42.567 552.766,41.89 550.524,41.317 548.243,40.848 545.93,40.483 543.589,40.22 541.226,40.06 539.045,40.0 536.851,40.029 534.65,40.143 532.441,40.34 530.223,40.592 527.992,40.876 525.747,41.174 523.693,41.454 521.421,41.775 519.136,42.114 517.047,42.434 515.789,42.63 512.322,43.319" fill="none" stroke="white" stroke-width="4"
            stroke-linejoin="round" stroke-linecap="round"/>
  <line x1="509.140" y1="23.574" x2="515.504" y2="63.064" stroke="red" stroke-width="3" stroke-linecap="round"/>
</svg>
