<?xml version="1.0" encoding="utf-8"?>
<svg xmlns="http://www.w3.org/2000/svg" width="1000" height="600">
  <polyline points="230.611,437.124 227.264,436.67 223.903,436.197 220.54,435.716 217.152,435.272 213.84,434.838 210.533,434.401 207.143,433.993 203.763,433.589 200.435,433.176 197.112,432.764 193.727,432.361 190.326,431.946 186.959,431.534 183.6,431.132 180.191,430.72 176.876,430.323 173.515,429.915 170.204,429.519 166.839,429.115 163.418,428.729 160.118,428.334 156.748,427.949 153.357,427.552 149.985,427.17 146.622,426.816 143.23,426.437 139.863,426.079 136.497,425.717 133.133,425.371 129.74,425.013 126.253,424.648 122.837,424.292 119.447,423.939 116.058,423.588 112.668,423.246 109.283,422.914 105.898,422.596 102.498,422.333 99.052,422.183 95.592,422.262 92.115,422.731 88.748,423.953 86.397,425.807 85.348,427.332 84.846,428.513 84.486,429.917 84.339,432.11 84.89,435.386 86.377,438.773 88.418,441.612 90.767,444.058 93.296,446.282 95.926,448.402 98.578,450.459 101.256,452.495 103.956,454.522 106.651,456.52 109.339,458.482 112.102,460.472 114.946,462.468 117.718,464.386 120.546,466.299 123.379,468.192 126.197,470.026 129.035,471.838 131.907,473.655 134.785,475.428 137.677,477.18 140.549,478.877 143.494,480.593 146.463,482.273 149.381,483.908 152.307,485.49 155.29,487.087 158.325,488.657 161.376,490.188 164.352,491.63 167.361,493.075 170.435,494.492 173.508,495.865 176.614,497.209 179.705,498.496 182.817,499.755 185.95,500.962 189.138,502.15 192.298,503.268 195.473,504.372 198.689,505.419 201.831,506.417 205.083,507.4 208.364,508.372 211.617,509.294 214.851,510.159 218.108,511.02 221.363,511.869 224.69,512.723 227.978,513.563 231.249,514.41 234.588,515.262 237.867,516.108 241.083,516.928 244.329,517.766 247.633,518.639 250.89,519.472 254.174,520.343 257.43,521.201 260.691,522.079 263.935,522.974 267.228,523.897 270.512,524.819 273.762,525.764 276.971,526.743 280.148,527.756 283.439,528.877 286.652,530.032 289.836,531.252 293.045,532.558 296.132,533.88 299.116,535.204 302.139,536.617 305.185,538.092 308.145,539.581 311.007,541.055 314.013,542.607 317.038,544.168 320.113,545.708 323.156,547.164 326.243,548.544 329.387,549.785 332.483,550.851 335.605,551.76 338.776,552.5 341.91,553.082 345.126,553.519 348.357,553.799 351.665,553.914 354.978,553.856 358.327,553.653 361.592,553.304 364.928,552.839 368.23,552.267 371.57,551.686 374.905,551.07 378.228,550.489 381.51,549.919 384.724,549.447 387.916,549.028 391.218,548.698 394.528,548.448 397.839,548.306 401.225,548.215 404.658,548.224 408.036,548.299 411.405,548.437 414.83,548.649 418.228,548.921 421.536,549.244 424.932,549.617 428.214,550.014 431.616,550.467 435.006,550.944 438.329,551.445 441.657,551.957 444.95,552.502 448.272,553.054 451.636,553.632 455.045,554.201 458.426,554.778 461.707,555.307 465.072,555.862 468.412,556.377 471.767,556.866 475.097,557.314 478.418,557.743 481.824,558.14 485.182,558.495 488.606,558.836 491.972,559.118 495.272,559.365 498.606,559.57 501.993,559.763 505.336,559.887 508.72,559.965 512.058,560.0 515.435,559.982 518.804,559.92 522.162,559.824 525.488,559.691 528.886,559.515 532.218,559.317 535.599,559.062 539.024,558.767 542.444,558.43 545.782,558.072 549.099,557.696 552.393,557.248 555.76,556.825 559.093,556.331 562.439,555.839 565.786,555.329 569.187,554.801 572.505,554.285 575.777,553.774 579.136,553.238 582.515,552.712 585.895,552.152 589.228,551.667 592.584,551.124 595.923,550.568 599.235,550.083 602.593,549.559 605.923,549.038 609.307,548.479 612.652,547.957 615.921,547.453 619.267,546.91 622.684,546.399 625.976,545.876 629.335,545.339 632.732,544.813 636.124,544.301 639.376,543.801 642.771,543.288 646.105,542.765 649.423,542.285 652.761,541.747 656.163,541.247 659.507,540.718 662.846,540.224 666.164,539.699 669.493,539.179 672.877,538.693 676.257,538.177 679.571,537.637 682.988,537.143 686.26,536.639 689.636,536.157 692.993,535.674 696.271,535.11 699.695,534.647 703.033,534.112 706.369,533.646 709.715,533.137 713.094,532.611 716.364,532.124 719.799,531.644 723.041,531.119 726.396,530.656 729.768,530.125 733.138,529.634 736.507,529.133 739.854,528.639 743.142,528.171 746.462,527.661 749.865,527.179 753.224,526.681 756.582,526.185 759.994,525.712 763.277,525.225 766.627,524.758 769.939,524.291 773.347,523.804 776.739,523.331 780.055,522.864 783.437,522.4 786.847,521.906 790.261,521.427 793.654,520.943 796.959,520.434 800.318,519.884 803.684,519.215 807.005,518.404 810.309,517.362 813.513,516.069 816.527,514.489 819.216,512.659 821.535,510.643 823.567,508.385 825.352,505.888 826.846,503.153 828.082,500.233 829.209,497.027 830.352,493.784 831.578,490.798 832.997,488.014 834.688,485.417 836.683,483.026 838.955,480.877 841.552,478.969 844.474,477.318 847.62,475.991 850.849,475.013 854.16,474.38 857.55,474.051 860.951,473.901 864.351,473.71 867.776,473.371 871.121,472.809 874.38,471.977 877.619,470.83 880.718,469.379 883.563,467.68 886.112,465.798 888.483,463.671 890.612,461.39 892.548,458.893 894.348,456.104 895.937,453.11 897.307,449.952 898.434,446.694 899.316,443.424 900.002,440.127 900.575,436.802 901.111,433.475 901.631,430.116 902.137,426.779 902.644,423.43 903.14,420.082 903.642,416.734 904.158,413.401 904.686,410.068 905.247,406.699 905.804,403.378 906.383,400.061 906.973,396.708 907.582,393.349 908.178,390.035 908.786,386.733 909.401,383.445 910.032,380.148 910.678,376.817 911.332,373.46 911.99,370.111 912.649,366.749 913.291,363.424 913.904,360.104 914.489,356.734 914.992,353.324 915.373,349.94 915.609,346.53 915.661,343.057 915.475,339.657 915.01,336.386 914.215,333.3 913.016,330.371 911.369,327.635 909.362,325.276 906.984,323.281 904.288,321.72 901.371,320.67 898.254,320.145 895.145,320.171 892.094,320.728 889.139,321.787 886.428,323.266 883.904,325.161 881.632,327.429 879.661,330.021 877.967,332.986 876.636,336.206 875.714,339.504 875.178,342.838 874.965,346.215 874.954,349.598 875.007,352.985 875.071,356.393 875.104,359.802 875.071,363.192 874.952,366.565 874.72,369.957 874.336,373.341 873.731,376.695 872.835,380.013 871.602,383.246 870.078,386.239 868.31,388.955 866.323,391.405 864.131,393.592 861.696,395.558 859.015,397.305 856.064,398.85 852.885,400.159 849.594,401.202 846.296,401.978 842.984,402.525 839.625,402.927 836.275,403.248 832.895,403.534 829.537,403.796 826.183,404.04 822.794,404.292 819.436,404.539 816.1,404.805 812.76,405.096 809.395,405.43 806.042,405.8 802.69,406.199 799.333,406.654 796.007,407.135 792.675,407.66 789.338,408.222 786.018,408.826 782.684,409.471 779.403,410.142 776.151,410.841 772.877,411.589 769.565,412.372 766.261,413.186 763.014,414.02 759.735,414.895 756.458,415.795 753.203,416.702 749.973,417.618 746.743,418.548 743.473,419.495 740.251,420.417 737.014,421.355 733.756,422.294 730.497,423.235 727.256,424.174 723.999,425.109 720.74,426.043 717.515,426.953 714.277,427.851 710.993,428.741 707.707,429.606 704.444,430.44 701.207,431.222 697.882,431.953 694.473,432.596 691.085,433.106 687.714,433.462 684.317,433.65 680.949,433.651 677.644,433.46 674.348,433.061 671.138,432.463 667.997,431.661 664.897,430.652 661.883,429.439 658.931,428.003 656.085,426.351 653.362,424.495 650.732,422.405 648.227,420.112 645.889,417.664 643.678,415.042 641.609,412.285 639.728,409.459 638.003,406.537 636.421,403.538 634.979,400.467 633.673,397.326 632.5,394.089 631.506,390.8 630.691,387.503 630.05,384.227 629.595,380.91 629.304,377.548 629.203,374.214 629.25,370.885 629.468,367.594 629.823,364.309 630.327,361.014 631.012,357.749 631.846,354.58 632.838,351.462 633.989,348.37 635.275,345.346 636.705,342.344 638.255,339.387 639.926,336.476 641.713,333.617 643.599,330.808 645.607,328.024 647.698,325.312 649.824,322.702 652.044,320.148 654.313,317.623 656.647,315.137 659.002,312.673 661.363,310.28 663.765,307.908 666.177,305.54 668.624,303.211 671.094,300.872 673.547,298.525 676.01,296.2 678.504,293.838 680.964,291.488 683.388,289.179 685.839,286.832 688.298,284.454 690.726,282.08 693.123,279.714 695.512,277.326 697.909,274.903 700.293,272.467 702.645,270.038 704.997,267.612 707.343,265.19 709.697,262.753 712.084,260.275 714.437,257.808 716.757,255.345 719.051,252.829 721.292,250.251 723.461,247.551 725.469,244.758 727.291,241.85 728.907,238.817 730.252,235.703 731.281,232.548 731.967,229.326 732.301,226.082 732.288,222.826 731.936,219.614 731.236,216.444 730.203,213.397 728.843,210.474 727.193,207.718 725.255,205.132 723.086,202.766 720.666,200.519 718.106,198.316 715.514,196.109 712.966,193.855 710.562,191.522 708.374,189.098 706.387,186.516 704.654,183.803 703.178,180.947 701.977,177.949 701.079,174.824 700.501,171.653 700.235,168.416 700.289,165.102 700.665,161.795 701.369,158.463 702.371,155.199 703.637,151.996 705.14,148.87 706.82,145.921 708.643,143.077 710.568,140.296 712.525,137.578 714.568,134.862 716.68,132.132 718.785,129.491 720.922,126.845 723.042,124.187 725.146,121.505 727.183,118.854 729.216,116.102 731.166,113.353 733.072,110.6 735.005,107.739 736.914,104.853 738.706,102.028 740.429,99.071 742.008,95.94 743.313,92.689 744.244,89.418 744.776,86.137 744.904,82.973 744.656,79.865 744.037,76.797 743.073,73.895 741.711,71.036 739.955,68.263 737.744,65.569 735.299,63.17 732.634,61.013 729.876,59.131 726.962,57.373 723.983,55.692 721.086,54.096 718.123,52.472 715.13,50.844 712.184,49.28 709.14,47.703 706.094,46.194 702.971,44.753 699.805,43.452 696.625,42.35 693.408,41.45 690.126,40.753 686.762,40.272 683.48,40.027 680.206,40.0 676.968,40.182 673.725,40.582 670.616,41.173 667.415,42.011 664.285,43.041 661.241,44.269 658.195,45.705 655.274,47.289 652.401,49.065 649.519,51.083 646.802,53.191 644.247,55.383 641.834,57.649 639.434,60.075 637.125,62.568 634.887,65.136 632.691,67.766 630.574,70.477 628.5,73.26 626.543,75.953 624.653,78.755 622.798,81.6 620.995,84.452 619.272,87.364 617.636,90.251 615.975,93.282 614.387,96.239 612.857,99.298 611.373,102.341 609.958,105.407 608.544,108.515 607.204,111.641 605.867,114.858 604.582,118.073 603.405,121.222 602.252,124.357 601.121,127.582 600.049,130.778 599.045,133.936 598.021,137.29 597.096,140.511 596.243,143.684 595.377,146.899 594.588,150.255 593.816,153.584 593.086,156.86 592.398,160.123 591.771,163.43 591.171,166.762 590.65,170.016 590.192,173.25 589.772,176.576 589.372,179.976 589.021,183.33 588.701,186.722 588.417,190.128 588.147,193.519 587.929,196.827 587.698,200.308 587.51,203.638 587.341,206.931 587.17,210.31 587.017,213.64 586.869,216.979 586.706,220.498 586.558,224.053 586.413,227.317 586.246,230.73 586.076,234.028 585.849,237.5 585.58,240.881 585.273,244.155 584.898,247.496 584.437,250.881 583.924,254.19 583.322,257.596 582.662,260.937 581.933,264.203 581.147,267.472 580.294,270.71 579.365,273.947 578.379,277.134 577.321,280.332 576.263,283.336 575.013,286.55 573.726,289.698 572.41,292.72 570.989,295.778 569.516,298.81 567.988,301.792 566.346,304.821 564.664,307.733 562.974,310.582 561.157,313.458 559.256,316.328 557.338,319.109 555.273,321.961 553.241,324.644 551.189,327.26 549.042,329.883 546.868,332.49 544.679,335.088 542.492,337.631 540.295,340.196 538.101,342.744 535.873,345.287 533.556,347.891 531.335,350.301 528.921,352.783 526.371,355.263 523.932,357.484 521.232,359.77 518.647,361.811 515.966,363.763 513.187,365.654 510.419,367.403 507.61,369.043 504.705,370.6 501.75,372.06 498.742,373.409 495.526,374.709 492.444,375.833 489.346,376.838 485.957,377.804 482.584,378.643 479.317,379.333 475.98,379.934 472.514,380.436 469.195,380.797 465.854,381.075 462.486,381.307 459.128,381.518 455.665,381.683 452.251,381.85 448.793,381.974 445.48,382.132 442.142,382.259 438.71,382.424 435.238,382.57 431.885,382.731 428.567,382.878 425.303,383.069 421.84,383.266 418.576,383.475 415.091,383.791 411.679,384.074 408.443,384.369 405.151,384.711 401.724,385.069 398.385,385.509 395.125,385.954 391.676,386.516 388.271,387.082 384.964,387.697 381.711,388.32 378.431,389.01 375.13,389.764 371.704,390.513 368.496,391.332 365.196,392.134 362.035,393.06 358.681,394.019 355.46,394.932 352.258,395.941 348.974,396.972 345.745,398.035 342.461,399.136 339.203,400.258 335.925,401.392 332.757,402.472 329.567,403.58 326.145,404.757 322.989,405.839 319.753,406.992 316.583,408.141 313.279,409.363 310.147,410.67 307.074,412.259 304.257,414.352 302.15,416.855 301.011,419.255 300.612,421.632 300.848,424.495 301.769,427.638 302.852,431.041 303.313,433.928 303.122,436.403 302.334,438.644 300.775,440.714 298.2,442.389 294.798,443.424 291.286,443.802 287.9,443.775 284.573,443.554 281.358,443.252 278.04,442.932 274.596,442.529 271.25,442.211 267.964,441.787 264.283,441.574 261.273,441.098 257.827,440.778 254.47,440.269 251.072,439.859 248.217,439.468 244.562,438.906 240.858,438.353 237.535,437.924 236.183,437.751 230.611,437.124" fill="none" stroke="white" stroke-width="4"
            stroke-linejoin="round" stroke-linecap="round"/>
</svg>
