<?xml version="1.0" encoding="utf-8"?>
<svg xmlns="http://www.w3.org/2000/svg" width="1000" height="600">
  <polyline points="219.972,395.958 216.98,397.985 214.016,399.989 211.046,402.0 208.078,404.018 205.101,406.044 202.136,408.054 199.147,410.077 196.166,412.093 193.199,414.119 190.214,416.15 187.212,418.176 184.211,420.209 181.24,422.237 178.304,424.211 175.359,426.216 172.368,428.241 169.387,430.246 166.408,432.272 163.453,434.287 160.476,436.281 157.449,438.329 154.452,440.344 151.47,442.325 148.499,444.324 145.483,446.314 142.505,448.304 139.495,450.273 136.449,452.28 133.406,454.285 130.368,456.254 127.345,458.233 124.288,460.222 121.231,462.214 118.176,464.182 115.143,466.146 112.081,468.105 109.018,470.043 105.93,471.939 102.777,473.732 99.468,475.333 95.965,476.587 92.193,477.078 89.074,476.483 87.32,475.555 86.252,474.677 85.248,473.529 84.05,471.496 83.014,468.127 82.808,464.225 83.386,460.559 84.445,457.116 85.77,453.809 87.23,450.537 88.746,447.318 90.297,444.089 91.868,440.877 93.463,437.665 95.097,434.447 96.727,431.291 98.407,428.102 100.144,424.874 101.878,421.717 103.625,418.61 105.414,415.469 107.258,412.336 109.102,409.244 110.965,406.167 112.854,403.143 114.761,400.121 116.706,397.108 118.69,394.107 120.678,391.15 122.673,388.253 124.748,385.295 126.827,382.371 128.926,379.495 131.075,376.626 133.258,373.773 135.485,370.951 137.723,368.167 139.971,365.412 142.285,362.678 144.613,359.958 146.978,357.3 149.388,354.673 151.85,352.044 154.35,349.47 156.844,346.958 159.387,344.434 162.005,341.933 164.595,339.467 167.253,337.024 169.914,334.597 172.569,332.224 175.257,329.854 177.945,327.463 180.651,325.071 183.344,322.699 186.023,320.336 188.74,317.93 191.464,315.521 194.134,313.148 196.774,310.796 199.44,308.412 202.131,305.998 204.809,303.581 207.475,301.161 210.114,298.744 212.743,296.33 215.402,293.867 218.031,291.387 220.618,288.904 223.167,286.377 225.663,283.815 228.14,281.185 230.571,278.486 232.934,275.764 235.253,272.999 237.516,270.204 239.722,267.403 241.834,264.65 243.864,261.895 245.939,259.016 248.027,256.094 250.132,253.172 252.276,250.244 254.487,247.333 256.754,244.502 259.097,241.823 261.504,239.294 263.965,236.975 266.539,234.776 269.281,232.666 272.158,230.666 275.129,228.817 278.209,227.121 281.375,225.573 284.566,224.185 287.842,222.934 291.189,221.786 294.631,220.717 298.094,219.66 301.495,218.656 304.931,217.613 308.346,216.562 311.642,215.491 314.883,214.359 318.132,213.106 321.409,211.739 324.627,210.286 327.84,208.753 331.093,207.077 334.282,205.372 337.419,203.602 340.523,201.762 343.58,199.879 346.595,197.959 349.585,195.985 352.606,193.963 355.561,191.896 358.507,189.854 361.41,187.762 364.323,185.642 367.238,183.512 370.127,181.355 373.014,179.207 375.879,177.067 378.768,174.924 381.663,172.777 384.551,170.661 387.47,168.551 390.414,166.467 393.375,164.4 396.35,162.367 399.324,160.383 402.32,158.419 405.321,156.487 408.363,154.581 411.419,152.689 414.485,150.836 417.521,149.052 420.591,147.32 423.748,145.607 426.934,143.946 430.121,142.35 433.317,140.806 436.578,139.277 439.844,137.78 443.088,136.341 446.364,134.926 449.691,133.528 453.009,132.176 456.332,130.866 459.72,129.569 463.126,128.301 466.535,127.074 469.962,125.886 473.365,124.708 476.719,123.579 480.107,122.479 483.546,121.364 486.985,120.234 490.41,119.147 493.831,118.037 497.25,116.907 500.688,115.825 504.102,114.694 507.509,113.605 510.953,112.489 514.357,111.364 517.763,110.275 521.173,109.142 524.583,108.05 528.019,106.92 531.456,105.783 534.862,104.697 538.273,103.564 541.67,102.442 545.096,101.33 548.522,100.217 551.91,99.084 555.358,97.969 558.798,96.818 562.208,95.728 565.58,94.569 568.995,93.481 572.431,92.343 575.81,91.185 579.23,90.09 582.666,88.932 586.061,87.807 589.454,86.71 592.876,85.546 596.31,84.408 599.735,83.285 603.122,82.106 606.532,80.98 609.919,79.845 613.305,78.698 616.779,77.541 620.183,76.388 623.585,75.234 627.01,74.127 630.338,72.965 633.759,71.84 637.196,70.665 640.609,69.529 644.006,68.38 647.428,67.215 650.873,66.047 654.252,64.904 657.629,63.745 661.03,62.601 664.422,61.44 667.883,60.261 671.284,59.108 674.641,57.942 678.031,56.81 681.436,55.623 684.863,54.432 688.243,53.28 691.672,52.089 695.083,50.907 698.484,49.727 701.86,48.555 705.313,47.363 708.773,46.17 712.131,45.005 715.6,43.858 719.092,42.753 722.579,41.769 726.145,40.935 729.771,40.35 733.415,40.0 736.984,40.014 740.394,40.397 743.591,41.162 746.627,42.299 749.549,43.803 752.289,45.66 754.917,47.881 757.487,50.393 760.083,52.921 762.654,55.196 765.327,57.179 768.178,58.845 771.204,60.154 774.424,61.093 777.821,61.626 781.392,61.746 785.013,61.45 788.563,60.784 791.984,59.779 795.326,58.441 798.638,56.927 801.961,55.463 805.31,54.164 808.74,53.09 812.287,52.302 815.905,51.827 819.513,51.703 823.027,51.919 826.4,52.446 829.655,53.291 832.816,54.429 835.856,55.863 838.851,57.613 841.816,59.702 844.615,62.031 847.222,64.552 849.639,67.242 851.866,70.013 854.035,72.899 856.167,75.805 858.273,78.704 860.399,81.64 862.499,84.569 864.58,87.488 866.664,90.393 868.768,93.313 870.893,96.224 873.027,99.1 875.147,101.981 877.309,104.839 879.493,107.74 881.67,110.616 883.814,113.433 885.973,116.26 888.156,119.098 890.348,121.927 892.563,124.769 894.788,127.615 897.027,130.473 899.265,133.333 901.501,136.201 903.717,139.091 905.889,141.994 907.998,144.961 909.999,147.991 911.86,151.088 913.564,154.32 915.029,157.632 916.174,160.961 916.919,164.288 917.192,167.631 916.955,170.978 916.194,174.184 914.905,177.231 913.097,180.022 910.846,182.423 908.178,184.406 905.205,185.892 902.049,186.839 898.752,187.26 895.456,187.171 892.158,186.596 888.897,185.539 885.783,184.033 882.778,182.061 879.976,179.669 877.51,176.994 875.398,174.101 873.584,171.015 871.944,167.773 870.369,164.498 868.797,161.235 867.186,158.012 865.518,154.859 863.755,151.726 861.861,148.608 859.854,145.603 857.651,142.733 855.175,140.019 852.447,137.564 849.57,135.477 846.598,133.769 843.546,132.417 840.415,131.408 837.159,130.723 833.788,130.36 830.239,130.313 826.574,130.602 822.947,131.192 819.452,132.038 816.045,133.112 812.68,134.355 809.348,135.667 806.035,136.992 802.713,138.33 799.372,139.703 796.051,141.077 792.752,142.437 789.472,143.789 786.159,145.127 782.831,146.406 779.485,147.681 776.096,148.924 772.753,150.09 769.401,151.222 765.986,152.348 762.548,153.426 759.118,154.455 755.714,155.439 752.298,156.385 748.834,157.313 745.308,158.216 741.774,159.082 738.303,159.894 734.836,160.688 731.304,161.445 727.794,162.187 724.297,162.893 720.782,163.608 717.257,164.296 713.731,164.989 710.198,165.682 706.657,166.39 703.164,167.079 699.673,167.766 696.129,168.468 692.637,169.154 689.132,169.845 685.577,170.567 682.028,171.302 678.525,172.048 675.077,172.807 671.551,173.605 668.041,174.446 664.555,175.355 661.082,176.373 657.674,177.513 654.264,178.815 650.962,180.284 647.769,181.915 644.707,183.72 641.808,185.668 639.059,187.775 636.434,190.079 634.0,192.522 631.755,195.099 629.666,197.867 627.763,200.808 626.058,203.911 624.576,207.128 623.308,210.478 622.229,214.006 621.373,217.604 620.741,221.168 620.313,224.771 620.08,228.393 620.027,231.97 620.13,235.55 620.395,239.151 620.838,242.762 621.474,246.358 622.28,249.859 623.267,253.282 624.445,256.712 625.802,260.054 627.301,263.267 628.983,266.401 630.793,269.425 632.722,272.367 634.819,275.206 637.023,277.931 639.38,280.559 641.835,283.043 644.415,285.432 647.099,287.691 649.891,289.857 652.842,291.948 655.815,293.896 658.858,295.733 662.023,297.496 665.278,299.178 668.574,300.744 671.87,302.196 675.205,303.551 678.554,304.829 681.932,306.064 685.313,307.241 688.68,308.374 692.142,309.479 695.589,310.545 699.011,311.574 702.492,312.593 705.944,313.611 709.38,314.616 712.85,315.644 716.348,316.665 719.827,317.69 723.22,318.714 726.619,319.749 730.054,320.803 733.562,321.906 737.074,323.021 740.471,324.126 743.866,325.256 747.252,326.39 750.612,327.523 754.022,328.677 757.461,329.848 760.872,331.015 764.317,332.212 767.768,333.438 771.133,334.697 774.483,336.042 777.801,337.529 781.052,339.193 784.212,341.068 787.218,343.152 790.004,345.448 792.483,347.914 794.681,350.617 796.588,353.563 798.14,356.636 799.35,359.824 800.222,363.171 800.717,366.559 800.84,369.999 800.606,373.422 800.033,376.739 799.128,380.04 797.927,383.368 796.571,386.71 795.189,390.04 793.866,393.404 792.704,396.777 791.796,400.145 791.168,403.531 790.844,406.949 790.834,410.37 791.148,413.76 791.806,417.122 792.807,420.434 794.128,423.628 795.768,426.706 797.733,429.658 800.007,432.455 802.534,435.051 805.302,437.477 808.221,439.686 811.221,441.653 814.353,443.468 817.514,445.169 820.687,446.782 823.934,448.354 827.216,449.885 830.523,451.395 833.824,452.884 837.106,454.372 840.35,455.879 843.586,457.423 846.839,459.061 850.027,460.739 853.205,462.459 856.372,464.212 859.532,466.009 862.653,467.862 865.688,469.819 868.65,471.999 871.419,474.424 873.883,477.074 875.963,479.92 877.624,482.885 878.883,485.945 879.771,489.134 880.261,492.43 880.343,495.789 880.01,499.252 879.228,502.806 878.055,506.295 876.584,509.603 874.869,512.737 872.955,515.809 870.964,518.804 868.977,521.744 866.966,524.703 864.929,527.672 862.844,530.654 860.759,533.563 858.627,536.44 856.369,539.301 853.996,542.06 851.481,544.669 848.819,547.108 846.018,549.361 843.154,551.369 840.164,553.183 837.075,554.787 833.929,556.171 830.686,557.35 827.382,558.308 823.986,559.05 820.544,559.578 817.087,559.887 813.549,560.0 809.943,559.906 806.318,559.609 802.696,559.106 799.113,558.424 795.597,557.573 792.132,556.561 788.71,555.42 785.324,554.175 781.972,552.842 778.651,551.404 775.336,549.887 772.05,548.277 768.828,546.629 765.697,544.934 762.569,543.147 759.45,541.269 756.374,539.357 753.335,537.397 750.346,535.341 747.429,533.283 744.519,531.172 741.61,528.952 738.759,526.749 735.983,524.492 733.18,522.191 730.481,519.86 727.781,517.495 725.077,515.056 722.447,512.599 719.884,510.135 717.301,507.601 714.751,505.002 712.255,502.403 709.805,499.771 707.428,497.172 705.029,494.444 702.66,491.696 700.385,488.981 698.116,486.212 695.893,483.418 693.728,480.625 691.568,477.764 689.444,474.852 687.392,471.919 685.385,468.967 683.414,466.0 681.491,463.038 679.553,459.992 677.652,456.903 675.776,453.822 673.937,450.762 672.123,447.692 670.316,444.6 668.52,441.49 666.725,438.354 664.935,435.209 663.168,432.082 661.395,428.952 659.615,425.803 657.852,422.694 656.069,419.572 654.268,416.457 652.421,413.345 650.53,410.264 648.579,407.206 646.584,404.206 644.514,401.226 642.399,398.317 640.249,395.477 638.047,392.697 635.802,389.972 633.487,387.286 631.087,384.614 628.619,381.98 626.128,379.426 623.63,376.959 621.068,374.54 618.421,372.177 615.712,369.867 612.902,367.579 610.079,365.383 607.254,363.265 604.347,361.194 601.406,359.18 598.409,357.229 595.351,355.336 592.243,353.491 589.055,351.704 585.827,349.963 582.633,348.341 579.4,346.764 576.145,345.249 572.869,343.793 569.546,342.371 566.254,340.994 562.917,339.603 559.562,338.219 556.203,336.849 552.877,335.509 549.547,334.217 546.172,332.979 542.738,331.816 539.274,330.757 535.793,329.815 532.271,328.99 528.694,328.286 525.181,327.733 521.689,327.302 518.153,326.994 514.697,326.802 511.207,326.734 507.717,326.791 504.192,326.983 500.662,327.312 497.11,327.765 493.581,328.336 490.041,329.046 486.487,329.881 482.944,330.845 479.481,331.92 476.1,333.091 472.787,334.367 469.478,335.729 466.151,337.16 462.824,338.63 459.54,340.113 456.226,341.622 452.941,343.118 449.678,344.604 446.426,346.084 443.188,347.574 439.895,349.071 436.661,350.539 433.401,352.012 430.176,353.421 426.798,354.891 423.455,356.303 420.107,357.682 416.757,359.031 413.433,360.334 410.133,361.602 406.803,362.823 403.463,364.045 400.076,365.201 396.652,366.315 393.223,367.384 389.805,368.407 386.374,369.38 382.856,370.362 379.389,371.244 375.94,372.073 372.466,372.9 368.891,373.698 365.328,374.451 361.802,375.156 358.309,375.795 354.735,376.443 351.097,377.039 347.498,377.595 343.984,378.108 340.376,378.633 336.78,379.148 333.154,379.651 329.592,380.161 325.974,380.667 322.426,381.171 318.776,381.673 315.144,382.151 311.555,382.572 307.984,382.856 304.319,382.81 300.608,382.139 297.464,380.726 295.316,378.946 293.799,376.871 292.651,374.02 291.965,370.55 291.326,367.003 290.383,364.083 289.044,361.865 287.128,360.036 284.626,358.821 281.345,358.527 277.598,359.225 274.182,360.548 271.02,362.21 267.935,364.094 264.953,366.018 262.223,367.799 258.927,369.919 255.895,371.905 252.844,373.921 249.922,375.866 247.017,377.811 243.986,379.851 241.189,381.738 238.153,383.791 234.926,385.976 232.089,387.899 229.482,389.667 226.147,391.93 224.311,393.178 219.972,395.958" fill="none" stroke="white" stroke-width="4"
            stroke-linejoin="round" stroke-linecap="round"/>
</svg>
