<?xml version="1.0" encoding="utf-8"?>
<svg xmlns="http://www.w3.org/2000/svg" width="1000" height="600">
  <polyline points="458.914,156.486 460.305,155.304 461.792,154.022 463.277,152.775 464.684,151.556 466.102,150.352 467.612,149.084 469.114,147.804 470.553,146.566 472.008,145.367 473.449,144.123 474.911,142.905 476.408,141.617 477.843,140.404 479.319,139.175 480.713,137.975 482.193,136.745 483.67,135.463 485.169,134.214 486.589,132.999 488.045,131.763 489.537,130.509 490.999,129.264 492.426,128.057 493.828,126.857 495.329,125.579 496.768,124.354 498.26,123.08 499.728,121.821 501.165,120.59 502.616,119.356 504.042,118.137 505.482,116.922 506.957,115.653 508.398,114.398 509.837,113.184 511.274,111.951 512.732,110.698 514.219,109.444 515.671,108.197 517.119,107.008 518.564,105.754 520.021,104.533 521.504,103.265 522.929,102.056 524.409,100.805 525.885,99.542 527.357,98.296 528.847,97.034 530.253,95.835 531.724,94.594 533.173,93.377 534.61,92.142 536.12,90.866 537.624,89.589 539.037,88.392 540.436,87.217 541.904,85.964 543.414,84.677 544.906,83.436 546.293,82.222 547.772,80.996 549.203,79.763 550.643,78.527 552.128,77.286 553.629,76.001 555.077,74.757 556.538,73.527 557.987,72.27 559.422,71.047 560.876,69.809 562.295,68.622 563.739,67.349 565.188,66.112 566.631,64.893 568.136,63.628 569.589,62.354 571.08,61.086 572.514,59.846 573.958,58.617 575.421,57.388 576.908,56.103 578.328,54.923 579.738,53.769 581.214,52.578 582.826,51.343 584.405,50.2 585.979,49.086 587.617,48.004 589.244,47.0 590.871,46.043 592.513,45.135 594.158,44.316 595.853,43.515 597.611,42.774 599.416,42.096 601.168,41.524 602.904,41.043 604.726,40.631 606.579,40.313 608.419,40.109 610.316,40.0 612.293,40.017 614.214,40.148 616.115,40.403 618.057,40.8 619.917,41.315 621.744,41.973 623.562,42.796 625.279,43.759 626.858,44.866 628.327,46.138 629.613,47.505 630.71,48.932 631.666,50.467 632.448,52.054 633.078,53.745 633.535,55.475 633.801,57.202 633.885,58.949 633.781,60.764 633.492,62.524 633.009,64.296 632.346,66.023 631.499,67.723 630.53,69.31 629.406,70.854 628.113,72.361 626.704,73.746 625.246,74.975 623.726,76.105 622.154,77.162 620.491,78.19 618.864,79.134 617.162,80.047 615.42,80.93 613.654,81.782 611.949,82.61 610.229,83.424 608.509,84.273 606.736,85.17 605.028,86.077 603.432,86.983 601.787,87.966 600.169,88.99 598.579,90.066 597.028,91.199 595.514,92.406 594.069,93.69 592.693,95.062 591.426,96.501 590.241,98.051 589.201,99.638 588.32,101.228 587.532,102.887 586.887,104.551 586.355,106.263 585.922,108.059 585.611,109.855 585.379,111.676 585.161,113.574 584.921,115.503 584.645,117.371 584.288,119.261 583.824,121.143 583.277,122.861 582.616,124.551 581.845,126.177 580.947,127.737 579.952,129.217 578.836,130.635 577.615,131.961 576.254,133.23 574.789,134.406 573.23,135.482 571.56,136.45 569.801,137.325 568.001,138.069 566.191,138.677 564.328,139.191 562.492,139.625 560.722,140.055 558.88,140.522 557.001,141.057 555.208,141.657 553.418,142.382 551.75,143.2 550.167,144.13 548.654,145.18 547.253,146.314 545.95,147.545 544.696,148.905 543.581,150.332 542.582,151.826 541.683,153.419 540.92,155.046 540.253,156.774 539.698,158.578 539.259,160.407 538.941,162.295 538.733,164.246 538.588,166.128 538.473,167.987 538.348,169.865 538.184,171.817 537.975,173.707 537.704,175.529 537.341,177.332 536.859,179.127 536.237,180.913 535.489,182.601 534.589,184.224 533.554,185.756 532.393,187.193 531.118,188.525 529.71,189.755 528.199,190.848 526.633,191.787 524.984,192.592 523.27,193.248 521.53,193.744 519.756,194.092 517.983,194.287 516.213,194.337 514.354,194.25 512.533,194.029 510.708,193.679 508.899,193.202 507.091,192.605 505.259,191.921 503.45,191.21 501.686,190.534 499.933,189.89 498.089,189.299 496.238,188.806 494.354,188.423 492.444,188.17 490.566,188.06 488.709,188.085 486.846,188.239 485.02,188.511 483.271,188.901 481.546,189.427 479.847,190.074 478.176,190.85 476.535,191.753 475.041,192.697 473.573,193.765 472.145,194.952 470.775,196.223 469.446,197.619 468.185,199.098 467.017,200.639 465.94,202.235 464.947,203.877 464.017,205.63 463.201,207.354 462.469,209.078 461.782,210.941 461.182,212.787 460.672,214.636 460.197,216.542 459.819,218.46 459.507,220.393 459.263,222.287 459.095,224.204 458.989,226.129 458.947,228.031 458.973,229.951 459.063,231.892 459.224,233.839 459.446,235.751 459.729,237.657 460.072,239.515 460.47,241.354 460.923,243.164 461.417,244.907 461.989,246.702 462.626,248.507 463.305,250.259 464.044,251.993 464.859,253.769 465.697,255.446 466.592,257.126 467.554,258.802 468.541,260.405 469.547,261.965 470.608,263.509 471.683,264.986 472.823,266.473 474.054,267.953 475.269,269.349 476.555,270.728 477.908,272.102 479.247,273.383 480.602,274.637 482.099,275.933 483.611,277.199 485.068,278.346 486.535,279.506 488.067,280.674 489.619,281.832 491.144,282.986 492.618,284.095 494.132,285.244 495.735,286.455 497.219,287.607 498.76,288.808 500.26,289.987 501.672,291.115 503.215,292.379 504.708,293.653 506.073,294.908 507.458,296.31 508.761,297.783 509.945,299.289 510.975,300.749 511.895,302.221 512.704,303.724 513.507,305.467 514.23,307.303 514.826,309.116 515.322,311.002 515.723,312.924 516.013,314.793 516.252,316.694 516.437,318.606 516.609,320.518 516.785,322.477 516.951,324.378 517.108,326.321 517.253,328.22 517.385,330.178 517.476,332.135 517.481,334.023 517.339,336.01 516.994,337.986 516.42,339.825 515.71,341.325 514.943,342.515 514.003,343.675 512.752,344.897 511.244,346.065 509.513,347.13 507.718,347.993 505.922,348.631 504.097,349.12 502.223,349.535 500.375,349.907 498.484,350.237 496.585,350.549 494.725,350.827 492.797,351.132 490.919,351.432 489.041,351.742 487.115,352.094 485.238,352.476 483.417,352.845 481.614,353.238 479.723,353.636 477.843,354.055 476.017,354.463 474.122,354.884 472.175,355.323 470.317,355.74 468.501,356.152 466.66,356.573 464.806,356.984 462.923,357.408 461.029,357.822 459.195,358.223 457.282,358.643 455.413,359.044 453.602,359.426 451.718,359.816 449.825,360.185 448.008,360.509 446.15,360.789 444.157,361.021 442.226,361.158 440.305,361.208 438.4,361.167 436.472,361.034 434.605,360.817 432.779,360.52 430.968,360.137 429.155,359.661 427.363,359.116 425.568,358.497 423.803,357.833 422.031,357.115 420.235,356.377 418.47,355.641 416.689,354.901 414.908,354.166 413.154,353.456 411.333,352.767 409.47,352.173 407.574,351.733 405.653,351.526 403.874,351.654 402.363,352.16 401.143,352.997 400.228,354.074 399.628,355.326 399.386,356.708 399.498,358.174 399.985,359.717 400.901,361.326 402.163,362.85 403.599,364.177 405.145,365.357 406.735,366.412 408.342,367.367 410.005,368.282 411.71,369.18 413.389,370.042 415.076,370.906 416.801,371.79 418.486,372.67 420.131,373.535 421.833,374.451 423.5,375.377 425.14,376.317 426.787,377.297 428.422,378.311 429.989,379.344 431.559,380.429 433.098,381.569 434.594,382.751 436.0,383.942 437.415,385.229 438.799,386.59 440.118,387.989 441.339,389.386 442.504,390.84 443.642,392.364 444.701,393.913 445.676,395.457 446.609,397.077 447.481,398.747 448.273,400.407 448.998,402.087 449.661,403.805 450.281,405.61 450.824,407.415 451.309,409.246 451.735,411.077 452.102,412.958 452.431,414.864 452.7,416.798 452.916,418.721 453.073,420.609 453.18,422.469 453.244,424.376 453.262,426.334 453.227,428.27 453.152,430.158 453.024,432.058 452.853,434.027 452.65,435.911 452.41,437.737 452.106,439.658 451.782,441.523 451.406,443.401 450.983,445.314 450.522,447.236 450.048,449.054 449.503,450.926 448.945,452.745 448.337,454.58 447.681,456.428 447.024,458.148 446.297,459.958 445.536,461.717 444.731,463.472 443.902,465.176 442.997,466.912 442.078,468.584 441.107,470.241 440.095,471.879 439.067,473.457 437.965,475.061 436.854,476.593 435.73,478.071 434.514,479.581 433.281,481.038 432.075,482.407 430.761,483.793 429.411,485.18 428.059,486.496 426.715,487.737 425.321,488.961 423.823,490.222 422.355,491.405 420.889,492.509 419.371,493.608 417.78,494.71 416.176,495.741 414.595,496.737 412.969,497.683 411.318,498.599 409.681,499.465 407.954,500.327 406.211,501.157 404.481,501.948 402.746,502.711 400.952,503.491 399.18,504.235 397.426,504.976 395.701,505.699 393.948,506.439 392.15,507.198 390.368,507.965 388.654,508.71 386.896,509.489 385.13,510.301 383.428,511.119 381.701,512.007 380.031,512.941 378.369,513.977 376.768,515.094 375.275,516.28 373.828,517.602 372.577,518.925 371.44,520.324 370.402,521.797 369.466,523.349 368.642,524.956 367.913,526.673 367.298,528.472 366.812,530.317 366.445,532.218 366.211,534.161 366.115,536.12 366.157,538.085 366.337,540.047 366.646,541.987 367.077,543.922 367.62,545.79 368.316,547.665 369.16,549.466 370.159,551.155 371.327,552.736 372.635,554.179 374.001,555.426 375.397,556.482 376.944,557.439 378.566,558.242 380.164,558.866 381.787,559.353 383.504,559.713 385.286,559.933 387.154,560.0 389.014,559.905 390.83,559.656 392.682,559.243 394.55,558.663 396.35,557.935 398.108,557.053 399.797,556.033 401.401,554.886 402.903,553.632 404.291,552.302 405.623,550.875 406.887,549.408 408.113,547.91 409.333,546.366 410.506,544.855 411.652,543.36 412.829,541.797 413.944,540.295 415.029,538.804 416.157,537.233 417.248,535.686 418.329,534.082 419.421,532.461 420.457,530.879 421.499,529.255 422.494,527.683 423.509,526.088 424.524,524.456 425.521,522.813 426.525,521.157 427.51,519.506 428.5,517.828 429.463,516.181 430.403,514.53 431.348,512.865 432.263,511.249 433.169,509.572 434.105,507.861 435.015,506.174 435.904,504.484 436.806,502.776 437.664,501.083 438.542,499.394 439.393,497.663 440.228,495.992 441.096,494.22 441.914,492.522 442.706,490.827 443.537,489.077 444.337,487.323 445.13,485.605 445.899,483.882 446.693,482.103 447.455,480.371 448.234,478.603 448.992,476.84 449.719,475.099 450.454,473.369 451.187,471.624 451.902,469.831 452.64,468.04 453.338,466.3 454.055,464.508 454.752,462.737 455.447,460.945 456.14,459.18 456.821,457.371 457.513,455.568 458.184,453.789 458.841,451.991 459.51,450.211 460.157,448.413 460.821,446.599 461.457,444.818 462.088,443.033 462.721,441.227 463.359,439.388 463.982,437.577 464.598,435.786 465.218,433.964 465.809,432.188 466.432,430.378 467.049,428.541 467.671,426.742 468.292,424.897 468.927,423.081 469.537,421.266 470.141,419.496 470.769,417.688 471.381,415.851 472.007,414.023 472.619,412.238 473.241,410.421 473.851,408.611 474.458,406.819 475.087,404.991 475.685,403.188 476.303,401.404 476.909,399.598 477.529,397.786 478.153,395.943 478.775,394.108 479.369,392.343 479.988,390.538 480.616,388.673 481.239,386.859 481.824,385.072 482.452,383.267 483.052,381.435 483.669,379.637 484.29,377.803 484.912,375.965 485.525,374.156 486.13,372.369 486.744,370.558 487.359,368.745 487.975,366.923 488.591,365.087 489.194,363.269 489.778,361.478 490.363,359.691 490.949,357.851 491.522,355.982 492.05,354.131 492.539,352.296 493.001,350.461 493.446,348.559 493.832,346.676 494.159,344.771 494.395,342.912 494.579,341.053 494.699,339.2 494.76,337.353 494.75,335.546 494.681,333.672 494.532,331.784 494.324,329.922 494.049,328.02 493.682,326.106 493.269,324.228 492.778,322.347 492.223,320.506 491.614,318.66 490.925,316.831 490.195,315.044 489.408,313.291 488.555,311.547 487.643,309.852 486.701,308.168 485.695,306.513 484.628,304.887 483.531,303.292 482.384,301.727 481.201,300.189 480.005,298.717 478.752,297.247 477.449,295.782 476.129,294.364 474.806,293.007 473.478,291.672 472.108,290.319 470.722,288.977 469.337,287.637 467.958,286.294 466.575,284.991 465.202,283.66 463.817,282.327 462.441,281.005 461.065,279.681 459.696,278.353 458.315,277.007 456.921,275.643 455.537,274.293 454.182,272.943 452.824,271.584 451.45,270.202 450.1,268.831 448.758,267.468 447.405,266.089 446.048,264.698 444.69,263.292 443.368,261.899 442.067,260.486 440.77,258.996 439.552,257.483 438.391,255.894 437.362,254.262 436.49,252.49 435.9,250.608 435.683,248.754 435.798,247.223 436.132,245.802 436.816,244.233 437.798,242.609 438.824,240.949 439.677,239.249 440.235,237.576 440.491,236.086 440.532,234.572 440.338,232.906 439.818,231.051 438.998,229.264 437.982,227.608 436.912,226.055 435.801,224.529 434.759,223.106 433.687,221.566 432.7,219.988 431.832,218.382 431.062,216.724 430.401,215.051 429.848,213.285 429.425,211.529 429.093,209.643 428.87,207.754 428.757,205.873 428.735,203.964 428.807,202.151 428.973,200.171 429.249,198.272 429.607,196.36 430.066,194.472 430.639,192.723 431.281,190.853 431.976,189.037 432.832,187.284 433.635,185.616 434.508,183.963 435.524,182.2 436.536,180.583 437.611,178.985 438.74,177.403 439.921,175.838 441.149,174.287 442.324,172.87 443.538,171.468 444.791,170.083 446.188,168.6 447.621,167.133 448.975,165.793 450.241,164.575 451.681,163.224 453.194,161.834 454.522,160.636 455.866,159.442 456.729,158.684 458.914,156.486" fill="none" stroke="white" stroke-width="4"
            stroke-linejoin="round" stroke-linecap="round"/>
  <line x1="471.865" y1="171.727" x2="445.963" y2="141.245" stroke="red" stroke-width="3" stroke-linecap="round"/>
</svg>
