<?xml version="1.0" encoding="utf-8"?>
<svg xmlns="http://www.w3.org/2000/svg" width="1000" height="600">
  <polyline points="458.807,156.521 460.256,155.273 461.726,154.022 463.192,152.767 464.63,151.548 466.078,150.318 467.544,149.063 469.027,147.809 470.454,146.622 471.914,145.371 473.392,144.118 474.844,142.891 476.299,141.663 477.744,140.453 479.215,139.182 480.691,137.959 482.15,136.719 483.599,135.491 485.049,134.284 486.537,133.012 488.0,131.778 489.472,130.542 490.874,129.348 492.347,128.103 493.837,126.853 495.266,125.624 496.709,124.415 498.182,123.169 499.642,121.914 501.109,120.681 502.531,119.482 504.002,118.227 505.486,116.979 506.955,115.721 508.398,114.509 509.835,113.3 511.295,112.084 512.78,110.836 514.25,109.579 515.74,108.361 517.229,107.097 518.66,105.926 520.08,104.706 521.566,103.498 523.061,102.235 524.559,100.969 526.015,99.757 527.469,98.573 528.891,97.353 530.358,96.109 531.873,94.852 533.359,93.626 534.814,92.417 536.258,91.182 537.695,89.929 539.22,88.757 540.677,87.492 542.093,86.269 543.543,85.047 545.056,83.806 546.509,82.546 547.952,81.308 549.454,80.137 550.86,78.876 552.313,77.655 553.789,76.395 555.278,75.141 556.765,73.885 558.183,72.664 559.624,71.466 561.088,70.168 562.531,68.956 563.96,67.709 565.407,66.509 566.87,65.224 568.363,63.979 569.808,62.696 571.25,61.448 572.656,60.237 574.128,58.948 575.592,57.712 577.05,56.463 578.517,55.242 579.963,54.037 581.443,52.819 582.994,51.631 584.491,50.49 586.032,49.392 587.587,48.319 589.22,47.27 590.93,46.228 592.62,45.278 594.284,44.394 595.976,43.577 597.649,42.831 599.372,42.148 601.099,41.556 602.849,41.04 604.666,40.625 606.512,40.3 608.388,40.089 610.333,40.0 612.313,40.032 614.224,40.192 616.122,40.468 618.015,40.864 619.879,41.4 621.723,42.081 623.531,42.897 625.243,43.87 626.804,44.958 628.252,46.197 629.554,47.556 630.687,49.024 631.649,50.552 632.444,52.163 633.054,53.811 633.517,55.514 633.789,57.289 633.877,59.078 633.772,60.881 633.479,62.676 633.009,64.406 632.36,66.115 631.511,67.808 630.518,69.402 629.378,70.932 628.086,72.416 626.675,73.777 625.189,75.024 623.652,76.161 622.065,77.242 620.447,78.233 618.789,79.205 617.102,80.116 615.365,80.998 613.634,81.847 611.912,82.671 610.182,83.505 608.464,84.36 606.744,85.244 605.059,86.15 603.388,87.099 601.748,88.084 600.125,89.106 598.539,90.171 596.999,91.289 595.482,92.494 594.022,93.783 592.644,95.16 591.363,96.613 590.213,98.12 589.174,99.706 588.279,101.324 587.518,102.967 586.877,104.625 586.349,106.338 585.925,108.132 585.615,109.931 585.373,111.761 585.149,113.674 584.909,115.582 584.622,117.478 584.256,119.372 583.795,121.205 583.226,122.968 582.552,124.666 581.779,126.278 580.886,127.821 579.868,129.314 578.751,130.724 577.529,132.04 576.176,133.292 574.709,134.456 573.151,135.522 571.5,136.494 569.774,137.349 567.986,138.095 566.173,138.716 564.358,139.226 562.494,139.687 560.63,140.138 558.788,140.61 556.948,141.136 555.135,141.744 553.394,142.449 551.73,143.267 550.137,144.203 548.642,145.243 547.236,146.383 545.921,147.625 544.691,148.967 543.574,150.389 542.573,151.887 541.677,153.483 540.899,155.14 540.242,156.844 539.683,158.65 539.242,160.504 538.935,162.376 538.727,164.263 538.587,166.148 538.466,168.054 538.334,169.96 538.174,171.854 537.961,173.744 537.677,175.612 537.3,177.448 536.809,179.248 536.199,180.987 535.448,182.677 534.54,184.311 533.503,185.843 532.345,187.274 531.059,188.61 529.664,189.823 528.175,190.9 526.595,191.846 524.941,192.653 523.217,193.312 521.498,193.801 519.75,194.145 517.954,194.343 516.166,194.393 514.338,194.303 512.505,194.077 510.678,193.716 508.859,193.226 507.032,192.617 505.254,191.946 503.479,191.243 501.7,190.557 499.906,189.916 498.055,189.336 496.211,188.856 494.336,188.482 492.438,188.23 490.548,188.119 488.707,188.142 486.877,188.289 485.033,188.558 483.246,188.952 481.498,189.476 479.785,190.128 478.148,190.884 476.551,191.752 475.0,192.726 473.522,193.798 472.102,194.97 470.718,196.251 469.392,197.631 468.119,199.121 466.937,200.669 465.849,202.274 464.848,203.932 463.934,205.638 463.115,207.364 462.372,209.147 461.687,210.999 461.097,212.844 460.57,214.712 460.119,216.608 459.737,218.5 459.429,220.424 459.189,222.37 459.02,224.285 458.92,226.186 458.887,228.093 458.918,230.048 459.015,231.995 459.173,233.909 459.391,235.802 459.672,237.687 460.016,239.559 460.409,241.37 460.859,243.169 461.375,244.992 461.952,246.806 462.583,248.591 463.254,250.328 463.976,252.052 464.769,253.798 465.624,255.528 466.51,257.196 467.441,258.83 468.43,260.455 469.454,262.036 470.52,263.59 471.624,265.101 472.773,266.589 473.967,268.041 475.195,269.453 476.459,270.836 477.785,272.186 479.138,273.497 480.547,274.802 481.98,276.063 483.451,277.293 484.942,278.481 486.454,279.647 487.992,280.803 489.527,281.955 491.04,283.082 492.593,284.241 494.133,285.397 495.623,286.521 497.162,287.704 498.678,288.876 500.159,290.04 501.687,291.254 503.153,292.443 504.622,293.693 506.057,295.005 507.393,296.353 508.673,297.793 509.873,299.306 510.919,300.784 511.83,302.228 512.676,303.792 513.48,305.536 514.196,307.362 514.805,309.25 515.288,311.133 515.66,313.005 515.941,314.902 516.163,316.8 516.346,318.689 516.52,320.585 516.693,322.481 516.862,324.438 517.029,326.378 517.185,328.268 517.323,330.17 517.426,332.114 517.447,334.065 517.321,336.019 516.984,337.994 516.407,339.858 515.682,341.389 514.92,342.567 513.995,343.7 512.737,344.924 511.198,346.112 509.482,347.168 507.702,348.023 505.872,348.674 504.036,349.162 502.193,349.573 500.343,349.945 498.438,350.283 496.55,350.588 494.676,350.88 492.786,351.176 490.892,351.477 489.023,351.794 487.142,352.133 485.252,352.518 483.395,352.896 481.548,353.288 479.691,353.691 477.82,354.1 475.937,354.518 474.049,354.939 472.19,355.351 470.341,355.774 468.479,356.189 466.618,356.613 464.745,357.03 462.874,357.449 461.004,357.858 459.174,358.258 457.315,358.663 455.415,359.074 453.528,359.472 451.663,359.856 449.798,360.221 447.925,360.553 446.036,360.838 444.132,361.055 442.215,361.192 440.299,361.241 438.379,361.198 436.475,361.068 434.639,360.858 432.808,360.559 430.969,360.173 429.176,359.709 427.393,359.17 425.599,358.556 423.81,357.882 422.023,357.164 420.234,356.422 418.468,355.684 416.707,354.949 414.93,354.215 413.143,353.491 411.335,352.804 409.485,352.21 407.572,351.764 405.65,351.556 403.874,351.683 402.361,352.186 401.134,353.024 400.219,354.103 399.619,355.351 399.374,356.737 399.49,358.215 399.985,359.765 400.9,361.37 402.149,362.876 403.579,364.2 405.124,365.381 406.718,366.438 408.341,367.403 410.003,368.317 411.695,369.205 413.381,370.072 415.069,370.933 416.76,371.8 418.437,372.676 420.132,373.566 421.814,374.475 423.479,375.397 425.151,376.353 426.792,377.331 428.414,378.341 430.008,379.384 431.568,380.472 433.111,381.613 434.605,382.794 436.057,384.028 437.45,385.298 438.774,386.602 440.056,387.959 441.302,389.385 442.496,390.869 443.621,392.377 444.677,393.92 445.657,395.472 446.57,397.056 447.435,398.697 448.245,400.397 448.989,402.117 449.658,403.855 450.267,405.628 450.811,407.426 451.303,409.288 451.738,411.182 452.106,413.05 452.42,414.905 452.685,416.801 452.903,418.721 453.066,420.626 453.175,422.527 453.238,424.448 453.249,426.372 453.219,428.297 453.136,430.205 453.018,432.07 452.856,433.976 452.642,435.924 452.391,437.837 452.101,439.692 451.766,441.582 451.385,443.491 450.978,445.346 450.521,447.227 450.029,449.105 449.503,450.939 448.937,452.776 448.327,454.606 447.687,456.412 447.008,458.193 446.28,459.996 445.514,461.768 444.725,463.493 443.874,465.232 442.987,466.945 442.057,468.624 441.097,470.27 440.096,471.887 439.049,473.494 437.963,475.08 436.836,476.626 435.697,478.123 434.518,479.593 433.287,481.043 432.023,482.466 430.746,483.833 429.435,485.171 428.069,486.492 426.688,487.774 425.286,489.011 423.844,490.218 422.368,491.399 420.856,492.548 419.328,493.652 417.787,494.712 416.209,495.735 414.6,496.74 412.968,497.698 411.323,498.618 409.644,499.497 407.929,500.349 406.211,501.181 404.479,501.971 402.735,502.739 400.963,503.495 399.203,504.246 397.455,504.986 395.686,505.726 393.931,506.463 392.151,507.217 390.377,507.979 388.629,508.738 386.886,509.512 385.14,510.312 383.391,511.153 381.669,512.038 379.987,512.983 378.338,514.008 376.763,515.111 375.244,516.315 373.816,517.62 372.557,518.953 371.429,520.338 370.395,521.809 369.469,523.346 368.645,524.953 367.924,526.65 367.308,528.455 366.814,530.322 366.451,532.218 366.218,534.161 366.123,536.13 366.164,538.071 366.344,540.023 366.649,541.972 367.068,543.879 367.614,545.781 368.291,547.625 369.134,549.435 370.147,551.155 371.324,552.747 372.64,554.195 373.998,555.434 375.394,556.488 376.917,557.431 378.543,558.238 380.152,558.868 381.787,559.357 383.519,559.718 385.308,559.936 387.139,560.0 388.99,559.904 390.819,559.65 392.679,559.23 394.53,558.652 396.333,557.92 398.095,557.033 399.781,556.013 401.38,554.864 402.862,553.622 404.269,552.27 405.602,550.835 406.844,549.389 408.068,547.89 409.256,546.374 410.417,544.87 411.562,543.358 412.716,541.824 413.843,540.288 414.974,538.721 416.089,537.161 417.169,535.597 418.258,534.009 419.301,532.425 420.363,530.828 421.406,529.188 422.425,527.586 423.436,525.987 424.431,524.364 425.432,522.729 426.41,521.106 427.388,519.456 428.37,517.804 429.343,516.13 430.268,514.498 431.223,512.823 432.163,511.155 433.065,509.474 434.0,507.77 434.898,506.096 435.791,504.413 436.67,502.735 437.53,501.057 438.401,499.355 439.261,497.645 440.098,495.925 440.941,494.221 441.778,492.483 442.591,490.76 443.408,489.021 444.21,487.296 444.991,485.58 445.78,483.859 446.547,482.125 447.333,480.359 448.094,478.597 448.85,476.83 449.573,475.133 450.316,473.357 451.046,471.579 451.774,469.828 452.493,468.058 453.208,466.271 453.908,464.496 454.615,462.734 455.32,460.955 456.004,459.154 456.684,457.382 457.384,455.589 458.047,453.799 458.722,452.011 459.373,450.215 460.039,448.412 460.688,446.61 461.339,444.813 461.988,443.025 462.6,441.237 463.238,439.454 463.863,437.651 464.497,435.808 465.129,433.976 465.755,432.111 466.36,430.326 466.977,428.554 467.59,426.735 468.206,424.952 468.826,423.121 469.435,421.333 470.071,419.485 470.695,417.682 471.298,415.889 471.902,414.115 472.516,412.304 473.145,410.445 473.761,408.615 474.397,406.813 474.982,405.033 475.584,403.269 476.2,401.448 476.846,399.588 477.44,397.799 478.078,395.974 478.687,394.176 479.319,392.336 479.908,390.563 480.525,388.763 481.161,386.908 481.765,385.105 482.391,383.29 482.995,381.475 483.612,379.693 484.211,377.904 484.833,376.096 485.453,374.283 486.076,372.451 486.7,370.622 487.322,368.807 487.924,367.023 488.534,365.241 489.143,363.397 489.732,361.594 490.348,359.751 490.92,357.945 491.476,356.135 492.012,354.271 492.503,352.42 492.98,350.527 493.418,348.628 493.793,346.788 494.105,344.921 494.347,343.039 494.528,341.153 494.64,339.337 494.697,337.514 494.687,335.604 494.617,333.835 494.469,331.89 494.257,330.051 493.98,328.142 493.638,326.259 493.23,324.363 492.732,322.463 492.184,320.59 491.594,318.778 490.907,316.925 490.17,315.139 489.407,313.417 488.542,311.659 487.647,309.976 486.691,308.286 485.677,306.628 484.62,304.988 483.507,303.396 482.354,301.838 481.206,300.346 479.964,298.802 478.731,297.38 477.48,295.966 476.142,294.516 474.778,293.122 473.411,291.746 472.035,290.412 470.707,289.1 469.347,287.781 467.964,286.439 466.559,285.103 465.191,283.809 463.786,282.438 462.467,281.15 461.089,279.832 459.704,278.499 458.302,277.122 456.941,275.794 455.54,274.407 454.198,273.076 452.836,271.712 451.457,270.301 450.133,268.969 448.775,267.583 447.422,266.193 446.068,264.813 444.703,263.396 443.411,262.03 442.057,260.555 440.792,259.101 439.561,257.574 438.406,255.993 437.354,254.325 436.5,252.598 435.893,250.68 435.67,248.844 435.782,247.28 436.1,245.894 436.774,244.323 437.766,242.689 438.781,241.061 439.644,239.355 440.202,237.731 440.477,236.176 440.523,234.675 440.328,232.981 439.801,231.093 439.019,229.381 437.979,227.679 436.923,226.145 435.84,224.657 434.737,223.15 433.761,221.758 432.72,220.112 431.839,218.504 431.071,216.894 430.372,215.133 429.799,213.307 429.377,211.573 429.072,209.863 428.816,207.845 428.712,205.93 428.658,204.039 428.756,202.234 428.912,200.32 429.192,198.362 429.552,196.45 429.986,194.579 430.494,192.781 431.064,191.054 431.79,189.278 432.561,187.356 433.345,185.733 434.274,183.833 435.253,182.087 436.221,180.488 437.266,178.947 438.386,177.359 439.363,175.981 440.759,174.308 442.042,172.737 443.209,171.314 444.571,170.019 446.022,168.543 447.469,167.06 448.823,165.72 450.206,164.392 451.519,163.16 452.827,161.957 454.274,160.649 455.568,159.498 456.356,158.805 458.807,156.521" fill="none" stroke="white" stroke-width="4"
            stroke-linejoin="round" stroke-linecap="round"/>
</svg>
