<?xml version="1.0" encoding="utf-8"?>
<svg xmlns="http://www.w3.org/2000/svg" width="1000" height="600">
  <polyline points="159.584,183.382 162.186,181.885 164.811,180.355 167.427,178.809 170.086,177.257 172.714,175.719 175.313,174.135 177.945,172.606 180.58,170.999 183.232,169.406 185.887,167.819 188.427,166.247 191.09,164.672 193.721,163.026 196.363,161.459 198.951,159.856 201.598,158.249 204.191,156.634 206.809,155.076 209.392,153.47 212.062,151.837 214.716,150.225 217.281,148.65 219.871,147.021 222.469,145.453 225.167,143.826 227.817,142.174 230.448,140.621 232.99,139.012 235.655,137.424 238.275,135.848 240.898,134.239 243.449,132.68 246.076,131.09 248.763,129.431 251.446,127.851 254.039,126.234 256.649,124.639 259.304,123.044 261.89,121.419 264.52,119.829 267.092,118.206 269.757,116.587 272.307,114.996 275.023,113.337 277.657,111.67 280.172,110.145 282.789,108.554 285.42,106.904 288.085,105.292 290.71,103.656 293.295,102.079 295.872,100.503 298.461,98.871 301.095,97.257 303.754,95.631 306.316,94.049 308.928,92.455 311.609,90.743 314.207,89.187 316.794,87.529 319.411,85.941 321.959,84.276 324.571,82.707 327.242,80.943 329.859,79.355 332.414,77.721 334.966,76.08 337.548,74.47 340.081,72.805 342.754,71.181 345.378,69.461 347.984,67.806 350.46,66.215 353.064,64.6 355.664,62.838 358.289,61.237 360.822,59.552 363.455,57.881 366.125,56.212 368.76,54.544 371.335,52.884 373.892,51.237 376.557,49.692 379.243,48.118 381.908,46.579 384.629,45.135 387.4,43.775 390.288,42.52 393.389,41.387 396.562,40.497 399.795,40.0 403.127,40.05 406.148,40.746 408.545,41.87 410.352,43.217 411.505,44.464 412.361,45.65 413.243,47.337 414.074,49.926 414.45,53.164 414.243,56.431 413.609,59.572 412.672,62.497 411.529,65.332 410.228,68.089 408.803,70.777 407.245,73.439 405.626,76.009 403.969,78.591 402.324,81.155 400.632,83.721 398.979,86.307 397.361,88.954 395.795,91.564 394.276,94.252 392.839,96.906 391.455,99.664 390.144,102.404 388.914,105.245 387.834,108.114 386.878,110.98 386.089,113.893 385.432,116.777 384.935,119.721 384.584,122.66 384.375,125.642 384.32,128.557 384.407,131.481 384.615,134.265 384.999,137.181 385.532,140.192 386.182,142.973 386.982,145.782 387.911,148.533 388.964,151.163 390.146,153.854 391.495,156.551 392.959,159.143 394.51,161.624 396.229,164.143 398.058,166.574 399.973,168.923 401.988,171.16 404.171,173.413 406.399,175.519 408.768,177.602 411.141,179.559 413.554,181.38 416.056,183.189 418.57,184.899 421.186,186.617 423.817,188.287 426.418,189.902 429.028,191.545 431.625,193.188 434.249,194.891 436.844,196.635 439.283,198.351 441.742,200.181 444.17,202.089 446.526,204.064 448.829,206.126 451.07,208.276 453.225,210.49 455.31,212.79 457.326,215.178 459.148,217.505 460.93,219.966 462.618,222.453 464.133,224.867 465.585,227.368 466.912,229.823 468.207,232.432 469.419,235.075 470.603,237.84 471.772,240.614 473.035,243.489 474.413,246.363 475.868,249.103 477.41,251.731 479.068,254.303 480.81,256.777 482.588,259.095 484.372,261.245 486.097,263.173 488.049,265.208 490.121,267.204 492.352,269.183 494.731,271.167 497.102,273.09 499.592,275.169 501.896,277.24 504.056,279.377 506.077,281.583 507.887,283.763 509.552,285.967 511.15,288.282 512.606,290.595 513.986,293.01 515.266,295.514 516.467,298.182 517.574,301.013 518.591,304.069 519.433,307.112 520.106,310.098 520.675,313.144 521.164,316.09 521.677,319.075 522.235,321.88 522.893,324.655 523.682,327.444 524.588,330.137 525.658,332.846 526.851,335.431 528.232,338.02 529.785,340.558 531.504,343.022 533.419,345.426 535.471,347.682 537.646,349.771 539.984,351.728 542.41,353.499 545.0,355.132 547.695,356.578 550.457,357.817 553.232,358.834 556.012,359.643 558.849,360.259 561.562,360.674 564.334,360.906 567.174,360.993 569.993,360.883 572.788,360.624 575.831,360.148 578.737,359.522 581.649,358.722 584.584,357.762 587.397,356.702 590.264,355.518 593.156,354.338 596.063,353.237 598.934,352.247 601.907,351.343 604.875,350.592 607.912,349.996 611.093,349.578 614.251,349.38 617.36,349.42 620.36,349.692 623.091,350.143 625.583,350.729 628.063,351.475 630.652,352.46 633.3,353.7 636.025,355.241 638.62,356.968 641.053,358.835 643.33,360.835 645.511,362.998 647.517,365.232 649.467,367.674 651.253,370.168 652.916,372.739 654.505,375.371 656.077,378.027 657.733,380.734 659.444,383.275 661.304,385.683 663.388,387.966 665.579,389.949 667.896,391.654 670.395,393.091 672.985,394.205 675.607,395.009 678.305,395.523 681.027,395.74 683.748,395.65 686.454,395.237 689.11,394.508 691.602,393.531 694.012,392.322 696.386,390.927 698.774,389.385 701.299,387.759 704.009,386.117 706.728,384.667 709.226,383.565 711.533,382.753 713.803,382.113 716.232,381.576 719.205,381.111 722.409,380.835 725.596,380.797 728.748,380.994 731.889,381.431 734.947,382.064 737.91,382.847 740.829,383.721 743.71,384.661 746.61,385.688 749.48,386.748 752.373,387.829 755.275,388.948 758.129,390.039 760.963,391.13 763.745,392.243 766.682,393.395 769.53,394.6 772.332,395.805 775.142,397.103 777.946,398.458 780.628,399.868 783.348,401.366 786.067,402.971 788.687,404.625 791.121,406.263 793.44,407.925 795.691,409.625 797.869,411.381 799.986,413.172 802.215,415.174 804.504,417.363 806.694,419.542 808.851,421.83 810.9,424.151 812.932,426.54 814.836,428.903 816.68,431.319 818.499,433.785 820.299,436.348 822.068,438.93 823.744,441.472 825.402,443.974 827.056,446.589 828.693,449.153 830.354,451.802 831.975,454.43 833.58,456.946 835.239,459.601 836.926,462.225 838.581,464.86 840.214,467.363 841.869,469.965 843.538,472.534 845.225,475.072 846.918,477.65 848.548,480.146 850.235,482.68 852.001,485.307 853.715,487.884 855.417,490.418 857.18,493.018 858.88,495.549 860.578,498.036 862.321,500.612 864.115,503.237 865.89,505.836 867.616,508.376 869.358,510.888 871.108,513.467 872.858,516.012 874.61,518.573 876.373,521.171 878.12,523.755 879.866,526.367 881.545,528.975 883.185,531.657 884.742,534.397 886.177,537.216 887.459,540.143 888.508,543.277 889.103,546.559 888.98,549.827 888.021,552.929 886.541,555.346 885.269,556.711 884.291,557.504 882.662,558.495 879.948,559.527 876.678,560.0 873.408,559.848 870.244,559.264 867.2,558.428 864.305,557.45 861.457,556.35 858.669,555.168 855.943,553.93 853.186,552.656 850.408,551.338 847.621,549.998 844.865,548.658 842.156,547.337 839.378,545.996 836.612,544.639 833.856,543.322 831.185,542.021 828.41,540.702 825.67,539.406 822.897,538.1 820.061,536.755 817.316,535.494 814.513,534.168 811.683,532.884 808.941,531.635 806.234,530.406 803.476,529.158 800.575,527.857 797.723,526.61 794.889,525.368 792.084,524.137 789.319,522.951 786.52,521.753 783.707,520.552 780.84,519.342 778.026,518.192 775.236,517.033 772.396,515.869 769.559,514.676 766.673,513.537 763.781,512.345 760.917,511.204 758.112,510.079 755.305,508.965 752.453,507.845 749.6,506.718 746.743,505.613 743.901,504.5 741.049,503.396 738.123,502.282 735.237,501.163 732.345,500.099 729.527,499.021 726.712,497.949 723.851,496.877 720.915,495.801 718.04,494.718 715.18,493.682 712.218,492.595 709.356,491.531 706.517,490.511 703.604,489.453 700.742,488.422 697.88,487.385 694.913,486.345 691.948,485.283 689.1,484.29 686.234,483.293 683.354,482.269 680.465,481.292 677.544,480.283 674.641,479.303 671.725,478.299 668.842,477.324 665.937,476.348 662.975,475.367 660.071,474.396 657.161,473.463 654.243,472.494 651.365,471.555 648.411,470.606 645.455,469.656 642.503,468.68 639.657,467.817 636.674,466.864 633.823,465.958 630.932,465.061 627.947,464.117 625.002,463.226 622.097,462.336 619.138,461.448 616.155,460.553 613.24,459.662 610.311,458.824 607.349,457.941 604.44,457.082 601.455,456.224 598.524,455.384 595.557,454.542 592.566,453.682 589.665,452.899 586.655,452.065 583.795,451.295 580.766,450.478 577.735,449.634 574.8,448.829 571.817,448.04 568.992,447.288 565.974,446.472 563.062,445.718 560.112,444.936 557.07,444.179 554.082,443.35 551.004,442.576 548.03,441.81 545.112,441.061 542.106,440.273 539.26,439.597 536.275,438.846 533.258,438.083 530.308,437.315 527.206,436.611 524.211,435.875 521.258,435.182 518.258,434.458 515.255,433.726 512.333,433.082 509.422,432.426 506.404,431.709 503.244,431.013 500.26,430.32 497.388,429.729 494.355,429.031 491.277,428.38 488.386,427.712 485.374,427.097 482.252,426.401 479.193,425.78 476.25,425.111 473.455,424.55 470.373,423.853 467.31,423.23 464.322,422.568 461.28,421.963 458.212,421.28 455.21,420.695 452.267,420.029 449.329,419.437 446.255,418.779 443.186,418.101 440.089,417.455 437.167,416.824 434.156,416.175 431.226,415.567 428.039,414.885 424.955,414.221 421.932,413.577 418.892,412.915 415.818,412.246 412.747,411.56 409.661,410.861 406.558,410.128 403.485,409.336 400.486,408.445 397.552,407.343 394.812,405.995 392.151,404.186 389.714,401.728 388.093,399.194 387.399,397.476 387.131,396.599 386.949,395.747 386.719,394.083 386.82,391.07 387.661,387.652 388.953,384.736 390.584,382.063 392.427,379.657 394.448,377.387 396.596,375.267 398.905,373.231 401.348,371.282 403.803,369.458 406.352,367.668 408.986,365.875 411.619,364.068 414.207,362.273 416.793,360.382 419.215,358.497 421.558,356.546 423.946,354.421 426.212,352.264 428.422,349.973 430.495,347.628 432.445,345.19 434.261,342.634 435.888,339.972 437.306,337.128 438.432,334.113 439.159,330.952 439.358,327.945 439.112,325.306 438.573,323.15 437.883,321.374 436.963,319.637 435.565,317.664 433.587,315.605 431.039,313.71 428.227,312.282 425.207,311.308 422.102,310.777 418.952,310.67 415.822,310.952 412.75,311.58 409.678,312.567 406.757,313.85 404.259,315.244 401.999,316.774 399.808,318.5 397.631,320.485 395.555,322.672 393.593,325.013 391.722,327.469 389.911,330.045 388.276,332.511 386.694,334.927 385.086,337.402 383.427,339.834 381.65,342.309 379.735,344.781 377.824,347.107 375.751,349.423 373.514,351.709 371.18,353.853 368.659,355.881 366.03,357.675 363.202,359.215 360.054,360.444 356.778,361.192 353.526,361.361 350.291,360.895 347.275,359.773 344.554,357.962 342.613,355.9 341.456,354.045 340.756,352.419 340.261,350.586 339.973,347.97 340.197,344.868 340.996,341.745 342.224,338.733 343.676,335.991 345.302,333.406 347.048,330.956 348.973,328.532 350.974,326.245 353.103,323.994 355.33,321.813 357.592,319.722 359.93,317.624 362.26,315.566 364.615,313.46 366.884,311.302 369.1,309.082 371.146,306.872 373.19,304.523 375.083,302.159 376.947,299.629 378.657,297.089 380.22,294.523 381.678,291.842 383.031,289.013 384.209,286.189 385.235,283.294 386.099,280.299 386.747,277.452 387.252,274.456 387.591,271.443 387.757,268.522 387.762,265.662 387.62,262.821 387.305,259.75 386.819,256.732 386.172,253.736 385.346,250.829 384.35,247.878 383.218,245.082 382.035,242.563 380.698,240.065 379.231,237.622 377.667,235.278 375.992,233.037 374.26,230.89 372.194,228.61 369.896,226.315 367.548,224.185 365.145,222.272 362.619,220.449 360.161,218.857 357.447,217.296 354.542,215.845 351.792,214.638 348.99,213.551 346.128,212.633 343.132,211.802 340.147,211.14 337.247,210.656 334.215,210.258 331.24,210.016 327.984,209.938 324.906,209.972 321.816,210.182 318.794,210.542 315.726,211.032 312.785,211.65 309.803,212.41 306.918,213.357 304.055,214.324 301.062,215.575 298.331,216.864 295.634,218.262 292.931,219.791 290.403,221.4 287.839,223.169 285.529,224.911 282.991,226.946 280.611,229.04 278.311,231.211 276.299,233.311 274.217,235.632 272.252,237.968 270.389,240.367 268.559,242.867 266.762,245.442 265.07,247.97 263.332,250.611 261.633,253.136 259.841,255.764 258.003,258.351 256.226,260.802 254.343,263.246 252.451,265.583 250.363,268.032 248.265,270.364 246.047,272.656 243.834,274.775 241.434,276.883 238.979,278.851 236.453,280.65 233.85,282.291 230.945,283.857 227.994,285.177 225.218,286.169 222.668,286.881 220.2,287.396 217.732,287.747 215.262,287.927 212.202,287.943 209.059,287.74 205.848,287.329 202.762,286.71 199.698,285.885 196.577,284.846 193.717,283.673 190.994,282.381 188.143,280.897 185.532,279.397 183.105,277.972 180.482,276.392 177.887,274.778 175.357,273.157 172.585,271.453 169.959,269.723 167.354,268.159 164.935,266.645 162.167,264.934 159.441,263.358 156.784,261.828 154.237,260.324 151.549,258.771 148.896,257.288 146.302,255.826 143.404,254.239 140.765,252.741 138.049,251.237 135.49,249.772 132.679,248.181 129.939,246.601 127.21,245.011 124.656,243.47 122.013,241.783 119.422,239.885 117.122,237.887 114.823,235.356 113.019,232.63 111.861,230.045 111.267,227.98 110.981,226.169 110.897,224.401 110.974,222.569 111.293,220.42 112.149,217.617 113.557,214.764 115.375,212.154 117.586,209.679 119.939,207.507 122.276,205.653 124.308,204.151 127.331,202.152 130.408,200.218 132.563,198.889 135.139,197.334 137.958,195.675 140.968,193.925 143.446,192.491 145.778,191.145 148.015,189.854 150.653,188.331 153.268,186.821 154.518,186.098 159.584,183.382" fill="none" stroke="white" stroke-width="4"
            stroke-linejoin="round" stroke-linecap="round"/>
</svg>
