<?xml version="1.0" encoding="utf-8"?>
<svg xmlns="http://www.w3.org/2000/svg" width="1000" height="600">
  <polyline points="547.608,530.945 548.738,529.354 549.9,527.691 551.057,526.077 552.178,524.492 553.338,522.881 554.526,521.226 555.655,519.641 556.831,518.031 558.009,516.428 559.174,514.821 560.347,513.205 561.486,511.666 562.673,510.061 563.876,508.43 565.035,506.865 566.214,505.25 567.422,503.626 568.611,502.012 569.731,500.472 570.957,498.873 572.136,497.27 573.332,495.648 574.52,494.058 575.705,492.462 576.888,490.883 578.086,489.259 579.253,487.697 580.416,486.133 581.584,484.571 582.801,482.926 584.059,481.268 585.207,479.693 586.368,478.132 587.519,476.593 588.722,474.977 589.861,473.409 591.082,471.776 592.225,470.251 593.434,468.61 594.663,466.97 595.822,465.409 597.003,463.805 598.223,462.184 599.442,460.561 600.638,458.964 601.802,457.378 603.007,455.809 604.2,454.202 605.346,452.662 606.56,451.039 607.72,449.473 608.925,447.85 610.142,446.23 611.337,444.649 612.535,443.07 613.718,441.515 614.92,439.874 616.099,438.338 617.335,436.72 618.507,435.161 619.757,433.551 620.914,431.966 622.112,430.461 623.307,428.909 624.499,427.339 625.746,425.748 626.968,424.142 628.168,422.601 629.406,420.992 630.601,419.437 631.766,417.919 632.98,416.344 634.231,414.754 635.437,413.194 636.702,411.549 637.896,410.005 639.117,408.434 640.325,406.862 641.583,405.235 642.819,403.619 643.977,402.094 645.17,400.502 646.366,398.871 647.516,397.246 648.629,395.593 649.711,393.915 650.735,392.19 651.699,390.383 652.589,388.473 653.334,386.423 653.825,384.382 653.967,382.249 653.681,380.237 653.083,378.638 652.317,377.399 651.591,376.581 650.883,375.974 649.875,375.311 648.27,374.619 646.204,374.181 644.073,374.113 642.028,374.333 640.065,374.765 638.19,375.331 636.333,376.016 634.501,376.797 632.7,377.632 630.954,378.526 629.197,379.441 627.425,380.379 625.706,381.294 623.909,382.228 622.147,383.121 620.39,383.971 618.573,384.804 616.736,385.594 614.915,386.335 613.063,387.012 611.185,387.641 609.269,388.184 607.347,388.621 605.452,388.978 603.529,389.231 601.53,389.383 599.683,389.445 597.81,389.407 595.951,389.279 594.036,389.038 592.224,388.749 590.348,388.336 588.527,387.838 586.714,387.242 584.985,386.582 583.26,385.816 581.539,384.968 579.87,384.05 578.229,383.023 576.681,381.977 575.165,380.835 573.651,379.577 572.167,378.241 570.783,376.862 569.427,375.409 568.087,373.85 566.864,372.283 565.718,370.727 564.617,369.093 563.558,367.421 562.489,365.614 561.533,363.887 560.626,362.209 559.707,360.43 558.802,358.641 557.912,356.894 556.96,355.076 556.014,353.288 555.071,351.552 554.059,349.833 553.027,348.127 551.951,346.502 550.796,344.839 549.591,343.229 548.333,341.657 547.034,340.151 545.701,338.709 544.262,337.253 542.859,335.935 541.416,334.669 539.956,333.457 538.474,332.33 536.922,331.228 535.397,330.205 533.749,329.207 532.157,328.299 530.471,327.39 528.701,326.452 526.965,325.505 525.203,324.482 523.491,323.372 521.854,322.221 520.284,321.019 518.76,319.726 517.387,318.497 516.131,317.256 514.935,315.977 513.714,314.614 512.532,313.12 511.407,311.594 510.281,309.972 509.156,308.308 508.024,306.673 506.803,305.026 505.546,303.498 504.264,302.089 502.953,300.774 501.603,299.544 500.265,298.428 498.877,297.363 497.367,296.306 495.817,295.334 494.183,294.407 492.39,293.521 490.48,292.696 488.623,291.997 486.662,291.375 484.778,290.85 482.881,290.36 480.984,289.857 479.213,289.336 477.458,288.751 475.724,288.088 474.066,287.364 472.359,286.507 470.75,285.583 469.161,284.543 467.598,283.382 466.121,282.139 464.719,280.801 463.389,279.357 462.149,277.815 461.006,276.175 460.023,274.542 459.118,272.776 458.351,270.984 457.708,269.131 457.214,267.299 456.839,265.415 456.606,263.586 456.5,261.786 456.498,259.985 456.611,258.172 456.844,256.322 457.184,254.494 457.646,252.628 458.22,250.781 458.901,248.942 459.681,247.131 460.558,245.323 461.469,243.562 462.382,241.786 463.252,239.992 464.061,238.189 464.82,236.312 465.488,234.405 466.041,232.484 466.481,230.505 466.789,228.464 466.941,226.401 466.933,224.481 466.802,222.768 466.569,221.14 466.224,219.464 465.741,217.755 465.094,215.978 464.263,214.14 463.31,212.383 462.24,210.697 461.067,209.092 459.833,207.603 458.467,206.139 457.0,204.734 455.508,203.452 453.945,202.228 452.322,201.038 450.702,199.871 449.114,198.703 447.553,197.441 446.08,196.082 444.753,194.637 443.593,193.107 442.615,191.497 441.834,189.805 441.274,188.097 440.906,186.359 440.727,184.582 440.745,182.78 440.961,181.032 441.384,179.313 441.99,177.685 442.767,176.125 443.695,174.625 444.739,173.167 445.86,171.729 447.038,170.214 448.247,168.57 449.351,166.881 450.205,165.332 450.864,163.88 451.402,162.46 451.899,160.885 452.351,159.065 452.712,157.032 452.923,154.946 452.974,152.865 452.874,150.849 452.64,148.857 452.308,146.914 451.911,144.95 451.461,143.023 450.973,141.113 450.449,139.188 449.917,137.259 449.37,135.341 448.84,133.475 448.289,131.574 447.717,129.632 447.141,127.713 446.543,125.817 445.924,123.96 445.247,122.053 444.544,120.227 443.792,118.395 442.966,116.535 442.088,114.693 441.173,112.911 440.271,111.271 439.329,109.68 438.355,108.122 437.356,106.628 436.301,105.138 435.133,103.581 433.89,102.006 432.604,100.486 431.252,98.963 429.896,97.519 428.489,96.093 427.07,94.735 425.575,93.363 424.081,92.041 422.564,90.754 421.038,89.499 419.502,88.261 417.951,87.034 416.364,85.826 414.789,84.599 413.207,83.413 411.641,82.204 410.05,81.003 408.447,79.79 406.876,78.583 405.289,77.37 403.732,76.158 402.172,74.947 400.605,73.714 399.043,72.492 397.488,71.241 395.924,70.003 394.393,68.781 392.826,67.528 391.262,66.261 389.734,65.026 388.191,63.772 386.655,62.521 385.096,61.252 383.557,59.995 381.985,58.701 380.42,57.413 378.892,56.154 377.361,54.895 375.806,53.61 374.239,52.319 372.677,51.036 371.123,49.763 369.551,48.486 367.958,47.207 366.348,45.954 364.719,44.75 363.054,43.6 361.329,42.522 359.514,41.529 357.556,40.676 355.492,40.109 353.385,40.0 351.326,40.44 349.672,41.264 348.735,41.993 348.18,42.563 347.428,43.58 346.606,45.278 346.122,47.335 346.033,49.458 346.225,51.537 346.584,53.54 347.047,55.457 347.586,57.343 348.189,59.212 348.835,61.07 349.505,62.932 350.186,64.784 350.884,66.635 351.586,68.481 352.287,70.315 352.997,72.17 353.698,74.031 354.397,75.868 355.086,77.709 355.773,79.561 356.455,81.413 357.154,83.287 357.824,85.148 358.503,86.991 359.17,88.858 359.834,90.73 360.504,92.606 361.151,94.492 361.81,96.374 362.45,98.235 363.089,100.11 363.727,101.989 364.355,103.883 364.967,105.764 365.578,107.622 366.197,109.519 366.789,111.401 367.384,113.293 368.008,115.238 368.567,117.122 369.175,119.021 369.739,120.92 370.306,122.757 370.887,124.673 371.456,126.579 372.022,128.479 372.597,130.4 373.14,132.303 373.693,134.187 374.241,136.078 374.807,138.021 375.343,139.955 375.872,141.828 376.406,143.718 376.938,145.636 377.466,147.545 377.992,149.431 378.508,151.343 379.045,153.285 379.562,155.199 380.085,157.089 380.593,159.013 381.113,160.96 381.629,162.872 382.128,164.777 382.636,166.73 383.15,168.676 383.633,170.605 384.127,172.524 384.616,174.417 385.091,176.32 385.575,178.274 386.04,180.203 386.529,182.131 387.002,184.093 387.465,186.006 387.921,187.912 388.377,189.845 388.832,191.797 389.286,193.715 389.739,195.638 390.185,197.613 390.617,199.539 391.068,201.438 391.496,203.418 391.926,205.379 392.359,207.278 392.778,209.224 393.185,211.154 393.606,213.078 394.019,215.07 394.426,216.995 394.817,218.925 395.222,220.902 395.616,222.848 395.994,224.779 396.376,226.697 396.753,228.654 397.131,230.603 397.51,232.538 397.866,234.519 398.251,236.468 398.594,238.433 398.96,240.367 399.297,242.322 399.658,244.275 399.995,246.206 400.334,248.179 400.704,250.143 401.042,252.117 401.394,254.066 401.734,256.029 402.094,258.002 402.413,259.935 402.758,261.856 403.084,263.813 403.435,265.781 403.757,267.743 404.098,269.712 404.421,271.689 404.738,273.628 405.069,275.559 405.37,277.55 405.712,279.503 405.992,281.464 406.313,283.445 406.616,285.414 406.904,287.377 407.198,289.339 407.471,291.315 407.749,293.304 408.03,295.281 408.276,297.239 408.571,299.192 408.793,301.166 409.095,303.143 409.296,305.119 409.597,307.085 409.796,309.065 410.085,311.043 410.289,313.0 410.536,314.949 410.772,316.937 410.998,318.902 411.248,320.877 411.467,322.844 411.723,324.831 411.937,326.833 412.198,328.785 412.397,330.768 412.659,332.767 412.87,334.772 413.117,336.769 413.367,338.761 413.596,340.731 413.849,342.719 414.069,344.726 414.325,346.712 414.584,348.714 414.811,350.715 415.068,352.715 415.329,354.734 415.606,356.782 415.891,358.816 416.209,360.821 416.607,362.821 417.125,364.769 417.837,366.658 418.823,368.475 420.219,370.177 421.725,371.386 422.751,371.956 423.339,372.198 423.925,372.404 425.021,372.619 426.941,372.662 429.155,372.284 431.101,371.588 432.877,370.684 434.543,369.616 436.125,368.429 437.631,367.151 439.062,365.784 440.439,364.351 441.797,362.841 443.114,361.292 444.41,359.726 445.72,358.159 447.042,356.594 448.403,355.065 449.801,353.58 451.241,352.149 452.715,350.776 454.232,349.443 455.81,348.168 457.428,346.973 459.106,345.855 460.86,344.83 462.677,343.931 464.588,343.184 466.595,342.635 468.67,342.354 470.647,342.404 472.314,342.718 473.648,343.186 474.767,343.744 475.844,344.449 477.011,345.451 478.205,346.83 479.273,348.576 480.051,350.536 480.496,352.531 480.649,354.538 480.535,356.562 480.174,358.556 479.577,360.533 478.753,362.467 477.766,364.248 476.715,365.783 475.598,367.147 474.358,368.458 472.977,369.721 471.406,370.963 469.766,372.101 468.119,373.133 466.395,374.132 464.668,375.071 463.005,375.954 461.362,376.829 459.691,377.759 457.978,378.78 456.276,379.864 454.612,381.014 452.996,382.223 451.446,383.499 449.932,384.886 448.499,386.38 447.202,387.965 446.047,389.709 445.085,391.655 444.422,393.727 444.133,395.831 444.254,397.914 444.815,399.936 445.822,401.771 447.051,403.141 448.166,403.982 449.176,404.525 450.345,404.954 451.993,405.28 454.039,405.308 456.122,404.959 458.088,404.349 459.953,403.563 461.72,402.66 463.42,401.661 465.084,400.566 466.689,399.399 468.241,398.169 469.762,396.875 471.259,395.524 472.725,394.15 474.209,392.747 475.71,391.349 477.217,390.013 478.763,388.725 480.341,387.496 481.963,386.328 483.62,385.223 485.305,384.201 487.036,383.249 488.825,382.371 490.669,381.577 492.564,380.874 494.511,380.268 496.46,379.778 498.373,379.416 500.256,379.169 502.16,379.025 504.096,378.987 505.995,379.053 507.865,379.22 509.718,379.484 511.595,379.855 513.503,380.342 515.388,380.941 517.237,381.643 519.042,382.447 520.812,383.358 522.456,384.322 523.96,385.315 525.391,386.368 526.79,387.5 528.183,388.743 529.542,390.081 530.88,391.532 532.166,393.081 533.361,394.686 534.462,396.341 535.475,398.055 536.396,399.814 537.228,401.63 537.965,403.499 538.609,405.425 539.148,407.371 539.577,409.287 539.911,411.19 540.157,413.124 540.316,415.097 540.38,417.08 540.345,419.067 540.218,421.044 539.999,423.018 539.682,424.982 539.273,426.933 538.779,428.849 538.198,430.756 537.52,432.643 536.753,434.491 535.895,436.303 534.98,438.051 534.001,439.736 532.938,441.4 531.8,443.001 530.619,444.549 529.329,446.093 527.951,447.62 526.538,449.059 525.117,450.413 523.602,451.732 522.055,452.973 520.465,454.153 518.821,455.29 517.154,456.36 515.418,457.398 513.701,458.383 511.954,459.339 510.174,460.308 508.405,461.276 506.657,462.26 504.933,463.257 503.212,464.305 501.496,465.4 499.842,466.516 498.219,467.677 496.615,468.897 495.051,470.169 493.513,471.519 492.051,472.917 490.658,474.383 489.339,475.933 488.125,477.546 486.992,479.279 486.015,481.045 485.216,482.785 484.605,484.417 484.137,485.973 483.771,487.563 483.502,489.267 483.336,491.16 483.285,493.207 483.372,495.228 483.6,497.3 483.955,499.346 484.431,501.3 485.034,503.238 485.74,505.146 486.504,506.969 487.314,508.742 488.162,510.533 489.047,512.335 489.944,514.108 490.847,515.886 491.771,517.659 492.678,519.425 493.559,521.166 494.425,522.909 495.312,524.762 496.175,526.569 497.017,528.364 497.867,530.179 498.69,531.981 499.504,533.781 500.324,535.573 501.153,537.416 501.962,539.222 502.789,541.061 503.619,542.872 504.448,544.685 505.289,546.501 506.148,548.318 507.013,550.092 507.986,551.928 509.043,553.651 510.257,555.299 511.69,556.835 513.354,558.139 515.013,559.049 516.372,559.552 517.493,559.812 518.624,559.955 519.743,560.0 521.094,559.916 522.97,559.536 524.942,558.778 526.662,557.769 528.408,556.438 529.913,555.069 531.28,553.632 532.555,552.145 533.804,550.565 534.993,548.96 536.155,547.371 537.291,545.799 538.461,544.156 539.665,542.449 540.758,540.892 541.88,539.287 543.029,537.642 544.128,536.07 545.25,534.464 545.901,533.533 547.608,530.945" fill="none" stroke="white" stroke-width="4"
            stroke-linejoin="round" stroke-linecap="round"/>
  <line x1="563.914" y1="542.526" x2="531.302" y2="519.364" stroke="red" stroke-width="3" stroke-linecap="round"/>
</svg>
