<?xml version="1.0" encoding="utf-8"?>
<svg xmlns="http://www.w3.org/2000/svg" width="1000" height="600">
  <polyline points="444.626,489.247 447.368,490.314 450.032,491.348 452.678,492.387 455.324,493.4 457.941,494.451 460.608,495.478 463.267,496.509 465.978,497.574 468.718,498.646 471.426,499.704 474.068,500.744 476.687,501.775 479.281,502.77 481.968,503.833 484.68,504.888 487.373,505.944 490.064,507.021 492.72,508.018 495.38,509.074 498.033,510.114 500.707,511.158 503.414,512.239 506.081,513.254 508.738,514.311 511.424,515.358 514.089,516.415 516.743,517.452 519.435,518.5 522.086,519.558 524.746,520.603 527.43,521.676 530.099,522.709 532.77,523.776 535.435,524.827 538.101,525.891 540.773,526.945 543.442,528.0 546.095,529.053 548.788,530.117 551.432,531.161 554.105,532.227 556.732,533.277 559.438,534.347 562.145,535.412 564.762,536.47 567.412,537.506 570.073,538.556 572.739,539.609 575.418,540.668 578.111,541.722 580.771,542.757 583.462,543.82 586.131,544.867 588.77,545.895 591.406,546.919 594.102,547.966 596.842,549.023 599.567,550.066 602.148,551.044 604.808,552.031 607.629,553.037 610.363,553.962 613.054,554.821 615.875,555.657 618.688,556.427 621.449,557.116 624.23,557.74 627.087,558.312 629.947,558.794 632.777,559.193 635.611,559.512 638.421,559.756 641.247,559.917 644.127,560.0 646.967,560.0 649.78,559.909 652.645,559.728 655.445,559.461 658.124,559.11 660.855,558.665 663.585,558.125 666.293,557.492 668.907,556.783 671.53,555.966 674.174,555.038 676.709,554.046 679.162,552.981 681.626,551.806 684.1,550.518 686.551,549.126 688.958,547.635 691.279,546.074 693.509,544.449 695.689,542.732 697.765,540.964 699.749,539.15 701.676,537.251 703.554,535.265 705.385,533.185 707.162,531.018 708.852,528.798 710.472,526.505 712.028,524.12 713.505,521.667 714.903,519.135 716.224,516.515 717.416,513.901 718.485,511.339 719.483,508.645 720.391,505.926 721.196,503.184 721.907,500.337 722.539,497.468 723.057,494.587 723.499,491.736 723.819,488.878 724.067,485.948 724.218,483.024 724.279,480.137 724.267,477.233 724.201,474.377 724.1,471.511 723.976,468.556 723.833,465.643 723.657,462.816 723.423,459.973 723.096,457.073 722.66,454.175 722.098,451.289 721.374,448.407 720.476,445.609 719.407,442.922 718.169,440.367 716.773,437.957 715.232,435.684 713.571,433.562 711.783,431.578 709.87,429.729 707.844,428.031 705.71,426.481 703.478,425.082 701.126,423.823 698.622,422.709 696.011,421.775 693.313,421.033 690.503,420.48 687.647,420.12 684.771,419.938 681.88,419.917 678.975,420.043 676.055,420.311 673.156,420.691 670.33,421.159 667.541,421.686 664.724,422.254 661.911,422.857 659.12,423.475 656.351,424.098 653.551,424.735 650.699,425.419 647.889,426.114 645.165,426.815 642.402,427.544 639.618,428.301 636.82,429.081 634.055,429.849 631.319,430.628 628.587,431.388 625.86,432.163 623.028,432.946 620.213,433.719 617.511,434.471 614.732,435.219 611.904,435.949 609.151,436.681 606.348,437.356 603.592,438.026 600.828,438.654 598.006,439.306 595.133,439.932 592.293,440.549 589.459,441.146 586.627,441.719 583.829,442.3 581.006,442.866 578.138,443.424 575.285,443.958 572.471,444.445 569.598,444.87 566.708,445.193 563.794,445.386 560.854,445.416 557.89,445.249 554.966,444.844 552.265,444.212 549.742,443.341 547.429,442.242 545.309,440.911 543.354,439.326 541.633,437.516 540.176,435.486 539.014,433.207 538.219,430.724 537.859,428.264 537.886,425.867 538.249,423.578 538.9,421.414 539.816,419.324 540.952,417.336 542.284,415.37 543.813,413.351 545.519,411.184 547.351,408.807 549.125,406.257 550.546,403.835 551.514,401.802 552.187,400.016 552.748,398.08 553.182,395.808 553.403,393.043 553.287,389.979 552.811,386.985 552.05,384.138 551.107,381.446 550.028,378.812 548.839,376.223 547.572,373.679 546.25,371.141 544.909,368.601 543.613,366.152 542.294,363.668 540.968,361.16 539.678,358.71 538.361,356.183 537.068,353.638 535.788,351.085 534.513,348.482 533.266,345.913 532.036,343.318 530.846,340.746 529.694,338.193 528.489,335.534 527.34,332.855 526.222,330.294 525.141,327.724 524.02,325.05 522.915,322.371 521.877,319.729 520.829,317.125 519.815,314.468 518.776,311.789 517.805,309.151 516.812,306.482 515.828,303.758 514.868,301.052 513.915,298.328 513.021,295.623 512.084,292.918 511.226,290.182 510.324,287.474 509.504,284.782 508.686,282.059 507.829,279.274 507.056,276.549 506.272,273.791 505.501,271.052 504.753,268.26 504.024,265.464 503.318,262.674 502.615,259.911 501.945,257.126 501.272,254.305 500.667,251.507 500.066,248.785 499.462,245.968 498.896,243.152 498.338,240.305 497.794,237.403 497.28,234.524 496.821,231.72 496.351,228.902 495.906,226.027 495.505,223.159 495.118,220.321 494.758,217.458 494.427,214.608 494.119,211.744 493.828,208.868 493.561,205.992 493.341,203.154 493.12,200.255 492.942,197.403 492.78,194.598 492.638,191.701 492.526,188.823 492.428,185.968 492.349,183.076 492.289,180.204 492.242,177.317 492.201,174.421 492.171,171.476 492.148,168.519 492.144,165.575 492.156,162.672 492.195,159.793 492.272,156.872 492.389,153.965 492.572,151.099 492.824,148.245 493.183,145.333 493.653,142.439 494.243,139.599 494.982,136.754 495.914,133.873 497.036,131.052 498.337,128.384 499.809,125.903 501.428,123.627 503.211,121.535 505.127,119.665 507.167,118.012 509.302,116.578 511.521,115.355 513.814,114.339 516.172,113.539 518.613,112.955 521.052,112.604 523.514,112.481 526.028,112.585 528.52,112.921 530.981,113.496 533.436,114.322 535.782,115.368 538.045,116.644 540.261,118.175 542.373,119.926 544.359,121.849 546.296,124.0 548.134,126.33 549.805,128.76 551.278,131.222 552.594,133.769 553.769,136.428 554.787,139.15 555.653,141.926 556.366,144.742 556.94,147.578 557.386,150.45 557.722,153.363 557.958,156.299 558.113,159.188 558.235,162.068 558.341,164.835 558.461,167.715 558.601,170.582 558.774,173.418 559.028,176.423 559.376,179.358 559.85,182.272 560.492,185.22 561.336,188.179 562.37,191.012 563.623,193.768 565.086,196.392 566.791,198.901 568.745,201.255 570.89,203.366 573.21,205.24 575.707,206.891 578.297,208.287 580.891,209.393 583.37,210.193 585.683,210.718 587.887,211.024 590.003,211.143 592.17,211.099 594.526,210.862 597.131,210.376 599.907,209.591 602.744,208.49 605.499,207.102 608.084,205.46 610.417,203.626 612.577,201.573 614.56,199.37 616.391,197.072 618.119,194.682 619.757,192.201 621.294,189.663 622.737,187.071 624.067,184.478 625.332,181.821 626.526,179.116 627.664,176.387 628.755,173.579 629.783,170.8 630.752,168.025 631.662,165.231 632.5,162.433 633.274,159.575 633.975,156.726 634.575,153.872 635.089,150.988 635.499,147.973 635.779,145.058 635.925,142.106 635.932,139.122 635.796,136.196 635.521,133.338 635.08,130.389 634.483,127.471 633.739,124.639 632.841,121.845 631.771,119.034 630.61,116.407 629.421,114.059 628.182,111.892 627.001,110.045 625.704,108.205 624.162,106.226 622.342,104.092 620.353,101.955 618.197,99.838 615.976,97.857 613.713,96.019 611.326,94.264 608.95,92.677 606.495,91.189 604.013,89.823 601.403,88.518 598.772,87.323 596.051,86.19 593.384,85.155 590.69,84.151 587.987,83.153 585.282,82.142 582.656,81.098 580.014,79.989 577.469,78.867 574.946,77.652 572.384,76.372 569.882,75.033 567.389,73.66 564.97,72.22 562.538,70.711 560.12,69.135 557.75,67.537 555.419,65.907 553.042,64.213 550.741,62.557 548.42,60.874 546.092,59.204 543.732,57.535 541.368,55.902 539.003,54.29 536.629,52.726 534.243,51.201 531.732,49.674 529.19,48.225 526.631,46.876 523.99,45.613 521.319,44.466 518.629,43.451 515.866,42.547 513.078,41.777 510.258,41.133 507.521,40.645 504.669,40.282 501.841,40.07 498.972,40.0 496.154,40.068 493.409,40.259 490.575,40.585 487.836,41.03 485.121,41.607 482.378,42.325 479.757,43.156 477.145,44.123 474.642,45.178 472.143,46.373 469.663,47.708 467.353,49.103 464.984,50.709 462.823,52.316 460.662,54.095 458.602,55.963 456.618,57.934 454.706,60.041 452.92,62.179 451.265,64.377 449.672,66.695 448.193,69.07 446.815,71.508 445.545,74.053 444.347,76.7 443.275,79.396 442.34,82.079 441.496,84.822 440.761,87.726 440.169,90.578 439.677,93.419 439.336,96.274 439.093,99.194 438.91,102.048 438.812,104.894 438.712,107.754 438.615,110.58 438.514,113.504 438.399,116.348 438.288,119.26 438.178,122.125 438.075,124.942 437.975,127.805 437.876,130.679 437.821,133.54 437.78,136.473 437.797,139.345 437.856,142.25 437.966,145.039 438.145,147.875 438.397,150.836 438.697,153.731 439.068,156.567 439.49,159.375 439.998,162.283 440.538,165.028 441.143,167.772 441.804,170.481 442.546,173.233 443.362,175.994 444.19,178.584 445.086,181.191 446.068,183.85 447.106,186.544 448.173,189.113 449.272,191.636 450.418,194.139 451.659,196.714 452.94,199.266 454.255,201.751 455.593,204.161 457.051,206.693 458.49,209.146 459.959,211.613 461.388,213.999 462.836,216.433 464.284,218.883 465.739,221.44 467.143,223.966 468.453,226.449 469.755,229.021 471.001,231.625 472.207,234.302 473.321,236.937 474.391,239.627 475.375,242.302 476.301,244.982 477.144,247.65 477.945,250.389 478.672,253.083 479.338,255.874 479.922,258.614 480.438,261.304 480.887,264.008 481.28,266.728 481.632,269.631 481.903,272.516 482.09,275.296 482.222,278.131 482.27,280.821 482.279,283.694 482.222,286.616 482.1,289.564 481.928,292.368 481.689,295.265 481.406,298.095 481.048,300.978 480.667,303.851 480.205,306.596 479.708,309.429 479.148,312.306 478.573,315.167 478.035,317.929 477.444,320.811 476.906,323.544 476.383,326.303 475.885,329.061 475.414,331.856 474.995,334.678 474.616,337.516 474.29,340.493 474.034,343.318 473.832,346.163 473.696,349.028 473.619,351.803 473.597,354.563 473.628,357.335 473.72,360.269 473.87,363.162 474.082,366.01 474.347,368.857 474.679,371.706 475.061,374.497 475.452,377.175 475.967,380.024 476.493,382.831 477.068,385.54 477.733,388.402 478.416,391.087 479.155,393.797 479.991,396.621 480.822,399.352 481.69,402.037 482.618,404.77 483.527,407.481 484.5,410.255 485.434,412.952 486.371,415.625 487.336,418.404 488.269,421.085 489.186,423.715 490.128,426.487 491.065,429.308 491.966,432.081 492.785,434.737 493.58,437.577 494.283,440.454 494.848,443.348 495.249,446.221 495.453,449.058 495.435,451.934 495.16,454.734 494.622,457.376 493.819,459.826 492.714,462.17 491.317,464.329 489.704,466.206 487.789,467.887 485.617,469.295 483.27,470.346 480.842,471.004 478.377,471.281 475.997,471.203 473.667,470.795 471.379,470.052 469.218,468.999 467.218,467.672 465.328,466.062 463.453,464.087 461.706,461.877 460.12,459.505 458.696,457.072 457.376,454.566 456.125,451.976 454.941,449.327 453.8,446.695 452.672,444.057 451.542,441.471 450.357,438.878 449.071,436.286 447.648,433.716 446.179,431.358 444.633,429.15 442.929,427.003 441.139,425.013 439.261,423.18 437.297,421.484 435.21,419.922 433.052,418.517 430.887,417.311 428.492,416.178 425.924,415.156 423.217,414.254 420.315,413.462 417.416,412.844 414.515,412.39 411.733,412.073 408.899,411.849 406.007,411.687 403.183,411.582 400.436,411.504 397.597,411.415 394.767,411.314 391.907,411.173 389.05,410.991 386.376,410.736 383.616,410.449 380.797,410.096 377.996,409.655 375.204,409.127 372.441,408.551 369.685,407.907 366.888,407.163 364.268,406.431 361.601,405.572 358.881,404.678 356.267,403.742 353.54,402.733 350.837,401.665 348.2,400.625 345.564,399.531 342.908,398.422 340.258,397.306 337.652,396.212 335.062,395.125 332.356,393.989 329.722,392.894 327.084,391.814 324.394,390.728 321.701,389.69 318.924,388.666 316.17,387.73 313.383,386.865 310.624,386.137 307.729,385.514 304.788,385.065 301.885,384.825 298.994,384.805 296.224,385.003 293.558,385.419 290.971,386.072 288.503,386.963 286.226,388.079 284.108,389.438 282.102,391.087 280.353,392.919 278.856,394.923 277.605,397.135 276.672,399.442 276.048,401.827 275.738,404.22 275.721,406.638 276.007,409.137 276.594,411.592 277.443,413.939 278.531,416.159 279.837,418.291 281.363,420.338 283.135,422.349 285.152,424.315 287.363,426.189 289.726,427.953 292.14,429.547 294.655,431.054 297.188,432.435 299.759,433.717 302.263,434.896 304.907,436.05 307.516,437.132 310.205,438.187 312.856,439.211 315.722,440.302 318.318,441.292 320.986,442.287 323.531,443.242 326.277,444.276 329.018,445.299 331.599,446.24 334.24,447.171 336.84,448.158 339.652,449.221 342.284,450.158 344.974,451.147 347.946,452.236 350.503,453.184 353.057,454.143 355.666,455.133 358.464,456.13 361.084,457.159 363.728,458.117 366.6,459.183 369.124,460.109 371.864,461.187 374.55,462.126 377.373,463.225 380.037,464.23 382.65,465.197 385.269,466.263 387.841,467.198 390.848,468.344 393.42,469.305 395.879,470.311 398.674,471.353 401.36,472.272 404.332,473.338 406.877,474.351 409.735,475.43 412.434,476.485 414.581,477.317 417.49,478.457 420.062,479.482 423.092,480.737 425.549,481.693 427.673,482.521 430.739,483.716 433.429,484.765 436.159,485.83 438.735,486.834 440.511,487.527 444.626,489.247" fill="none" stroke="white" stroke-width="4"
            stroke-linejoin="round" stroke-linecap="round"/>
  <line x1="437.373" y1="507.886" x2="451.879" y2="470.608" stroke="red" stroke-width="3" stroke-linecap="round"/>
</svg>
