<?xml version="1.0" encoding="utf-8"?>
<svg xmlns="http://www.w3.org/2000/svg" width="1000" height="600">
  <polyline points="443.23,488.613 440.54,487.551 437.905,486.532 435.12,485.442 432.448,484.389 429.818,483.38 427.17,482.35 424.524,481.31 421.801,480.265 419.073,479.201 416.466,478.201 413.777,477.145 411.088,476.097 408.412,475.088 405.736,474.039 403.116,473.053 400.457,471.978 397.701,470.917 395.036,469.925 392.331,468.841 389.643,467.86 387.039,466.805 384.377,465.775 381.645,464.761 378.885,463.672 376.294,462.699 373.686,461.676 370.988,460.657 368.242,459.612 365.531,458.54 362.869,457.566 360.249,456.532 357.505,455.505 354.874,454.469 352.189,453.456 349.437,452.408 346.76,451.364 344.079,450.387 341.411,449.385 338.682,448.362 335.998,447.365 333.267,446.325 330.573,445.317 327.9,444.314 325.179,443.305 322.465,442.271 319.816,441.28 317.092,440.258 314.374,439.222 311.602,438.199 308.948,437.173 306.292,436.173 303.596,435.119 300.894,434.041 298.225,432.933 295.595,431.737 293.004,430.421 290.426,428.914 287.97,427.261 285.602,425.403 283.463,423.446 281.571,421.412 279.916,419.313 278.505,417.143 277.319,414.861 276.389,412.466 275.735,409.973 275.381,407.452 275.341,404.951 275.618,402.489 276.215,400.057 277.109,397.749 278.307,395.541 279.745,393.536 281.434,391.695 283.339,390.036 285.373,388.615 287.567,387.394 289.91,386.374 292.348,385.578 294.93,384.982 297.687,384.587 300.519,384.41 303.435,384.448 306.379,384.688 309.311,385.108 312.225,385.689 315.05,386.401 317.777,387.219 320.497,388.142 323.189,389.141 325.855,390.217 328.484,391.342 331.094,392.518 333.605,393.704 336.139,394.932 338.772,396.209 341.382,397.471 343.934,398.689 346.486,399.854 349.131,401.046 351.766,402.164 354.424,403.211 357.104,404.208 359.797,405.13 362.496,405.981 365.193,406.75 367.982,407.503 370.748,408.167 373.518,408.754 376.174,409.26 378.997,409.709 381.788,410.116 384.557,410.432 387.4,410.686 390.194,410.87 393.017,411.025 395.834,411.118 398.661,411.203 401.495,411.282 404.296,411.374 407.103,411.49 409.949,411.654 412.885,411.917 415.855,412.312 418.742,412.849 421.654,413.564 424.508,414.453 427.086,415.438 429.484,416.529 431.673,417.678 433.9,418.991 436.116,420.446 438.239,421.996 440.286,423.66 442.281,425.474 444.243,427.476 446.104,429.601 447.881,431.866 449.556,434.236 451.12,436.731 452.545,439.264 453.867,441.86 455.102,444.469 456.311,447.086 457.49,449.702 458.695,452.349 459.906,454.968 461.168,457.552 462.489,460.02 463.877,462.327 465.346,464.416 466.881,466.237 468.577,467.87 470.487,469.305 472.573,470.487 474.856,471.369 477.354,471.884 479.986,471.961 482.662,471.558 485.252,470.679 487.642,469.362 489.767,467.646 491.577,465.617 493.035,463.377 494.195,460.927 495.04,458.349 495.598,455.662 495.899,452.837 495.953,449.939 495.804,447.05 495.476,444.135 495.0,441.251 494.389,438.45 493.648,435.648 492.821,432.9 491.935,430.214 490.97,427.499 489.988,424.79 489.006,422.168 487.985,419.482 486.963,416.799 485.959,414.171 484.969,411.551 483.964,408.856 482.969,406.129 482.027,403.453 481.133,400.737 480.257,398.033 479.457,395.315 478.702,392.584 478.003,389.862 477.334,387.079 476.755,384.299 476.235,381.535 475.773,378.757 475.36,375.996 475.009,373.174 474.694,370.326 474.449,367.459 474.263,364.631 474.113,361.839 474.026,359.02 474.016,356.233 474.046,353.379 474.139,350.566 474.29,347.752 474.496,344.865 474.752,342.058 475.048,339.25 475.393,336.413 475.777,333.649 476.201,330.81 476.669,327.958 477.143,325.187 477.631,322.381 478.134,319.56 478.639,316.757 479.132,313.952 479.618,311.136 480.098,308.286 480.545,305.398 480.958,302.576 481.321,299.762 481.631,296.896 481.897,294.046 482.107,291.156 482.257,288.297 482.344,285.394 482.372,282.575 482.328,279.727 482.227,276.869 482.057,274.071 481.818,271.249 481.51,268.429 481.129,265.605 480.68,262.84 480.163,260.094 479.583,257.373 478.934,254.651 478.218,251.944 477.447,249.28 476.609,246.624 475.705,243.985 474.719,241.332 473.644,238.642 472.499,235.998 471.295,233.378 470.042,230.804 468.745,228.277 467.368,225.728 465.95,223.214 464.503,220.754 463.035,218.325 461.539,215.872 460.053,213.428 458.581,210.969 457.134,208.493 455.726,206.0 454.366,203.49 453.052,200.952 451.793,198.396 450.587,195.821 449.44,193.229 448.365,190.645 447.338,188.021 446.392,185.425 445.506,182.84 444.648,180.148 443.843,177.441 443.098,174.707 442.401,171.947 441.782,169.269 441.203,166.521 440.662,163.705 440.179,160.885 439.748,158.083 439.359,155.292 439.039,152.443 438.759,149.548 438.524,146.647 438.342,143.768 438.211,140.916 438.117,138.017 438.059,135.117 438.047,132.244 438.05,129.35 438.069,126.474 438.115,123.575 438.173,120.683 438.245,117.886 438.333,115.034 438.43,112.147 438.53,109.318 438.642,106.509 438.777,103.637 438.961,100.739 439.196,97.85 439.516,94.94 439.929,92.046 440.445,89.197 441.069,86.361 441.796,83.582 442.636,80.824 443.605,78.054 444.665,75.387 445.845,72.781 447.123,70.279 448.549,67.801 450.077,65.42 451.679,63.166 453.405,60.962 455.251,58.822 457.192,56.771 459.178,54.863 461.225,53.075 463.409,51.35 465.702,49.715 468.047,48.217 470.444,46.853 472.915,45.604 475.424,44.482 477.996,43.474 480.678,42.573 483.331,41.83 486.01,41.215 488.788,40.722 491.523,40.361 494.277,40.116 497.136,40.0 499.913,40.002 502.664,40.144 505.493,40.402 508.301,40.796 511.12,41.309 513.941,41.948 516.705,42.699 519.467,43.59 522.227,44.617 524.929,45.777 527.559,47.028 530.112,48.385 532.602,49.836 535.018,51.348 537.429,52.954 539.78,54.606 542.081,56.307 544.382,58.054 546.668,59.83 548.985,61.58 551.222,63.268 553.504,64.932 555.911,66.604 558.275,68.207 560.664,69.727 563.168,71.238 565.653,72.686 568.134,74.047 570.638,75.342 573.172,76.604 575.782,77.834 578.405,78.987 580.974,80.05 583.589,81.083 586.285,82.113 589.006,83.147 591.702,84.184 594.365,85.233 596.978,86.304 599.656,87.469 602.341,88.723 604.88,90.008 607.391,91.398 609.865,92.911 612.289,94.547 614.671,96.331 616.944,98.22 619.151,100.255 621.23,102.378 623.129,104.53 624.745,106.562 626.079,108.429 627.296,110.315 628.499,112.391 629.724,114.751 630.917,117.32 632.019,119.984 633.021,122.759 633.897,125.608 634.607,128.451 635.167,131.376 635.584,134.325 635.84,137.253 635.962,140.188 635.939,143.137 635.773,146.133 635.47,149.102 635.046,151.993 634.496,154.888 633.832,157.759 633.071,160.555 632.195,163.402 631.217,166.267 630.182,169.078 629.088,171.858 627.953,174.567 626.777,177.253 625.531,179.958 624.242,182.625 622.883,185.285 621.462,187.884 619.966,190.443 618.371,192.968 616.69,195.405 614.883,197.77 612.95,200.023 610.876,202.143 608.63,204.117 606.199,205.919 603.578,207.506 600.836,208.804 598.106,209.751 595.514,210.341 593.139,210.63 590.941,210.695 588.823,210.583 586.713,210.308 584.509,209.848 582.108,209.118 579.611,208.102 577.125,206.809 574.649,205.207 572.342,203.387 570.22,201.389 568.25,199.212 566.429,196.853 564.768,194.329 563.303,191.698 562.041,188.967 560.99,186.165 560.143,183.296 559.486,180.393 559.014,177.534 558.702,174.667 558.535,171.791 558.483,168.897 558.491,166.016 558.492,163.153 558.46,160.238 558.357,157.293 558.149,154.364 557.838,151.504 557.405,148.623 556.863,145.771 556.193,142.93 555.399,140.132 554.485,137.425 553.403,134.689 552.171,132.019 550.777,129.409 549.222,126.89 547.482,124.46 545.571,122.179 543.532,120.117 541.379,118.279 539.132,116.674 536.806,115.305 534.433,114.187 532.01,113.309 529.522,112.664 527.009,112.257 524.491,112.087 521.993,112.148 519.555,112.435 517.138,112.951 514.761,113.698 512.455,114.672 510.258,115.85 508.149,117.239 506.129,118.844 504.248,120.619 502.467,122.588 500.771,124.761 499.192,127.111 497.727,129.651 496.403,132.349 495.252,135.146 494.307,137.958 493.563,140.718 492.968,143.521 492.495,146.411 492.135,149.283 491.862,152.115 491.667,154.95 491.547,157.823 491.486,160.702 491.467,163.609 491.507,166.543 491.593,169.416 491.697,172.289 491.821,175.173 491.958,178.084 492.112,181.022 492.292,183.897 492.479,186.72 492.69,189.575 492.908,192.449 493.161,195.325 493.416,198.217 493.702,201.125 493.991,203.95 494.3,206.748 494.624,209.658 494.974,212.529 495.318,215.362 495.687,218.217 496.086,221.026 496.464,223.851 496.91,226.714 497.327,229.564 497.782,232.379 498.233,235.233 498.718,238.055 499.208,240.854 499.709,243.692 500.251,246.512 500.775,249.327 501.336,252.145 501.908,254.926 502.492,257.785 503.104,260.633 503.707,263.385 504.333,266.164 504.991,268.964 505.665,271.731 506.373,274.465 507.08,277.209 507.834,279.99 508.595,282.775 509.394,285.543 510.2,288.299 511.023,291.019 511.858,293.745 512.743,296.463 513.642,299.184 514.558,301.867 515.482,304.538 516.46,307.24 517.459,309.96 518.479,312.66 519.502,315.325 520.557,318.007 521.643,320.705 522.739,323.345 523.853,325.962 524.984,328.57 526.139,331.179 527.337,333.826 528.546,336.452 529.757,339.025 531.02,341.65 532.291,344.245 533.553,346.768 534.853,349.333 536.177,351.923 537.513,354.51 538.861,357.074 540.205,359.642 541.536,362.159 542.855,364.663 544.191,367.206 545.531,369.764 546.839,372.309 548.13,374.884 549.375,377.474 550.527,380.125 551.542,382.874 552.355,385.704 552.901,388.65 553.122,391.73 553.009,394.558 552.678,396.856 552.225,398.794 551.663,400.624 550.879,402.622 549.639,405.029 547.943,407.659 546.134,410.064 544.387,412.281 542.788,414.369 541.402,416.347 540.23,418.324 539.272,420.384 538.567,422.53 538.152,424.753 538.045,427.073 538.279,429.489 538.897,431.963 539.869,434.299 541.146,436.423 542.7,438.331 544.499,439.999 546.543,441.449 548.77,442.661 551.171,443.65 553.8,444.423 556.671,444.991 559.627,445.325 562.558,445.438 565.45,445.364 568.328,445.139 571.149,444.805 573.974,444.379 576.824,443.873 579.586,443.308 582.371,442.683 585.15,442.008 587.908,441.294 590.711,440.523 593.508,439.723 596.271,438.908 598.992,438.094 601.731,437.262 604.52,436.429 607.263,435.626 610.011,434.784 612.768,433.991 615.524,433.199 618.325,432.4 621.086,431.641 623.83,430.907 626.607,430.186 629.414,429.471 632.212,428.789 635.012,428.13 637.796,427.493 640.579,426.882 643.371,426.274 646.19,425.677 649.017,425.087 651.803,424.513 654.581,423.964 657.412,423.408 660.247,422.856 663.051,422.321 665.906,421.782 668.758,421.262 671.593,420.788 674.449,420.365 677.337,420.029 680.272,419.803 683.185,419.72 686.091,419.796 689.026,420.063 691.901,420.537 694.636,421.212 697.248,422.072 699.765,423.109 702.169,424.293 704.471,425.62 706.658,427.074 708.74,428.669 710.727,430.416 712.602,432.317 714.358,434.37 715.987,436.574 717.483,438.926 718.817,441.393 719.992,443.977 721.024,446.714 721.901,449.556 722.613,452.42 723.179,455.278 723.61,458.104 723.932,460.932 724.173,463.779 724.358,466.625 724.489,469.512 724.583,472.416 724.642,475.257 724.659,478.157 724.611,481.112 724.497,484.009 724.298,486.85 724.014,489.679 723.632,492.589 723.154,495.488 722.591,498.317 721.914,501.188 721.144,504.006 720.276,506.777 719.305,509.516 718.236,512.23 717.102,514.826 715.874,517.374 714.529,519.912 713.166,522.296 711.634,524.74 710.048,527.086 708.407,529.323 706.681,531.517 704.862,533.646 702.981,535.7 701.065,537.647 699.009,539.585 696.944,541.411 694.845,543.135 692.618,544.837 690.324,546.463 688.05,547.947 685.714,549.35 683.276,550.685 680.778,551.948 678.332,553.082 675.816,554.153 673.254,555.113 670.602,556.013 667.958,556.817 665.277,557.553 662.601,558.173 659.931,558.684 657.211,559.134 654.402,559.473 651.58,559.726 648.742,559.915 645.921,560.0 643.154,559.996 640.336,559.899 637.424,559.689 634.532,559.398 631.649,559.003 628.92,558.551 626.15,558.023 623.271,557.393 620.405,556.69 617.628,555.928 614.897,555.131 612.188,554.25 609.48,553.33 606.716,552.346 603.92,551.326 601.244,550.333 598.615,549.341 595.884,548.311 593.151,547.241 590.53,546.246 587.812,545.272 585.143,544.239 582.465,543.203 579.776,542.177 577.142,541.143 574.594,540.159 571.883,539.119 569.172,538.066 566.453,537.009 563.726,535.948 561.019,534.924 558.553,533.966 555.97,532.951 553.21,531.876 550.44,530.798 547.662,529.716 545.041,528.713 542.522,527.721 539.807,526.655 537.078,525.597 534.438,524.572 531.71,523.493 529.04,522.464 526.501,521.425 523.817,520.411 521.144,519.355 518.561,518.359 515.797,517.305 513.083,516.219 510.339,515.155 507.726,514.136 505.305,513.157 502.439,512.116 499.748,511.104 497.079,510.015 494.208,508.889 491.48,507.864 489.018,506.812 486.281,505.784 483.57,504.767 480.865,503.664 478.115,502.632 475.633,501.573 473.046,500.651 470.336,499.549 467.569,498.653 464.814,497.702 462.336,496.735 459.503,495.63 456.668,494.525 454.187,493.557 451.706,492.59 448.869,491.483 447.095,490.792 443.23,488.613" fill="none" stroke="white" stroke-width="4"
            stroke-linejoin="round" stroke-linecap="round"/>
  <line x1="450.574" y1="470.010" x2="435.886" y2="507.216" stroke="red" stroke-width="3" stroke-linecap="round"/>
</svg>
