<?xml version="1.0" encoding="utf-8"?>
<svg xmlns="http://www.w3.org/2000/svg" width="1000" height="600">
  <polyline points="735.784,246.798 736.423,249.978 737.091,253.23 737.733,256.337 738.399,259.629 739.06,262.889 739.717,266.106 740.404,269.359 741.041,272.449 741.687,275.51 742.335,278.727 743.045,281.951 743.72,285.205 744.409,288.423 745.094,291.655 745.776,294.772 746.437,298.036 747.097,301.155 747.808,304.449 748.464,307.682 749.156,310.736 749.829,314.02 750.489,317.275 751.176,320.394 751.828,323.593 752.525,326.793 753.206,330.029 753.816,333.179 754.527,336.441 755.2,339.675 755.852,342.851 756.515,346.025 757.211,349.265 757.846,352.473 758.509,355.603 759.206,358.83 759.881,362.083 760.509,365.265 761.225,368.544 761.847,371.629 762.52,374.732 763.213,378.066 763.874,381.304 764.546,384.51 765.238,387.693 765.869,390.87 766.526,393.964 767.178,397.16 767.873,400.501 768.508,403.719 769.183,406.84 769.819,409.986 770.496,413.326 771.147,416.514 771.765,419.68 772.449,422.941 773.093,426.281 773.745,429.305 774.333,432.572 774.983,435.814 775.581,439.054 776.104,442.32 776.66,445.546 777.138,448.794 777.571,451.944 777.908,455.139 778.238,458.49 778.493,461.856 778.621,465.043 778.678,468.166 778.65,471.443 778.507,474.841 778.258,478.119 777.918,481.295 777.503,484.294 776.986,487.361 776.323,490.64 775.57,493.819 774.736,496.906 773.783,499.99 772.798,502.865 771.698,505.733 770.478,508.645 769.143,511.546 767.735,514.338 766.192,517.165 764.599,519.835 762.936,522.386 761.112,524.952 759.225,527.413 757.175,529.889 755.092,532.222 752.898,534.503 750.618,536.7 748.209,538.851 745.785,540.853 743.309,542.739 740.841,544.481 738.106,546.265 735.482,547.849 732.635,549.438 729.736,550.925 726.869,552.269 723.948,553.507 720.938,554.664 717.839,555.717 714.726,556.643 711.702,557.442 708.593,558.134 705.468,558.712 702.163,559.206 698.787,559.586 695.432,559.83 692.207,559.951 689.005,560.0 685.722,559.945 682.244,559.78 678.947,559.5 675.786,559.129 672.545,558.649 669.193,558.053 665.952,557.411 662.667,556.718 659.434,556.016 656.216,555.297 653.063,554.551 649.863,553.731 646.695,552.822 643.519,551.781 640.369,550.592 637.343,549.256 634.363,547.702 631.566,545.988 628.914,544.081 626.431,541.997 624.201,539.834 622.147,537.549 620.268,535.145 618.588,532.66 617.09,530.076 615.765,527.372 614.609,524.539 613.648,521.617 612.906,518.655 612.374,515.576 612.064,512.382 611.992,509.078 612.149,505.772 612.512,502.495 613.065,499.201 613.769,496.016 614.624,492.859 615.631,489.65 616.717,486.565 617.858,483.501 619.048,480.478 620.264,477.44 621.517,474.42 622.757,471.43 624.025,468.417 625.339,465.391 626.662,462.4 627.982,459.463 629.358,456.455 630.773,453.431 632.159,450.487 633.569,447.558 634.975,444.635 636.384,441.664 637.808,438.703 639.229,435.731 640.591,432.891 641.944,429.959 643.4,426.891 644.778,423.917 646.144,420.885 647.463,417.886 648.738,414.94 650.02,411.927 651.332,408.791 652.567,405.801 653.793,402.744 655.032,399.659 656.241,396.609 657.422,393.588 658.63,390.487 659.813,387.396 660.969,384.305 662.085,381.167 663.121,378.046 664.035,374.889 664.815,371.667 665.423,368.345 665.8,365.005 665.9,361.673 665.705,358.478 665.222,355.486 664.447,352.683 663.377,350.011 661.994,347.508 660.321,345.238 658.335,343.206 656.013,341.457 653.376,340.075 650.68,339.191 647.98,338.758 645.335,338.725 642.758,339.04 640.286,339.646 637.828,340.528 635.354,341.635 632.765,342.961 629.957,344.47 626.97,346.037 623.727,347.535 620.792,348.633 618.323,349.317 616.124,349.731 613.893,349.975 611.216,350.019 608.053,349.722 604.678,349.003 601.417,347.89 598.375,346.485 595.487,344.879 592.762,343.162 590.091,341.308 587.507,339.398 584.932,337.418 582.352,335.416 579.823,333.436 577.263,331.439 574.74,329.478 572.234,327.525 569.63,325.539 567.006,323.561 564.345,321.596 561.79,319.737 559.214,317.869 556.54,316.001 553.832,314.095 551.098,312.23 548.43,310.413 545.776,308.663 543.047,306.858 540.336,305.099 537.581,303.348 534.819,301.601 532.013,299.85 529.276,298.167 526.494,296.498 523.681,294.818 520.831,293.124 518.017,291.51 515.278,289.917 512.426,288.311 509.559,286.74 506.767,285.172 503.844,283.63 500.949,282.053 497.993,280.56 495.138,279.052 492.225,277.57 489.313,276.144 486.377,274.677 483.416,273.261 480.464,271.873 477.475,270.473 474.563,269.102 471.513,267.773 468.585,266.471 465.633,265.177 462.589,263.899 459.531,262.588 456.492,261.4 453.47,260.161 450.401,258.97 447.422,257.824 444.298,256.66 441.219,255.544 438.201,254.473 435.204,253.425 432.002,252.362 428.828,251.321 425.701,250.318 422.441,249.332 419.323,248.39 416.266,247.528 413.167,246.656 409.982,245.786 406.8,244.972 403.57,244.158 400.42,243.404 397.222,242.652 393.919,241.913 390.642,241.207 387.451,240.548 384.259,239.897 380.998,239.258 377.848,238.663 374.593,238.047 371.252,237.436 367.996,236.855 364.676,236.261 361.362,235.711 358.036,235.18 354.833,234.717 351.616,234.294 348.287,233.93 345.003,233.656 341.695,233.498 338.386,233.47 335.057,233.582 331.721,233.859 328.363,234.335 324.943,235.049 321.692,235.984 318.619,237.147 315.72,238.527 313.024,240.115 310.567,241.881 308.296,243.858 306.257,245.985 304.438,248.253 302.836,250.652 301.498,253.102 300.38,255.681 299.498,258.384 298.867,261.154 298.497,263.974 298.389,266.837 298.555,269.695 298.996,272.54 299.729,275.434 300.729,278.25 302.004,281.005 303.553,283.749 305.349,286.421 307.364,289.009 309.575,291.484 311.95,293.818 314.495,296.016 317.141,298.022 319.825,299.808 322.66,301.474 325.618,302.993 328.628,304.349 331.68,305.537 334.823,306.611 338.054,307.569 341.238,308.386 344.406,309.127 347.7,309.841 350.91,310.534 354.054,311.223 357.218,311.929 360.438,312.703 363.729,313.573 366.921,314.527 370.107,315.636 373.34,316.957 376.443,318.46 379.432,320.18 382.282,322.127 384.982,324.319 387.47,326.733 389.707,329.364 391.664,332.2 393.318,335.195 394.672,338.313 395.72,341.478 396.446,344.588 396.855,347.51 396.991,350.2 396.902,352.743 396.622,355.157 396.152,357.566 395.428,360.162 394.374,363.002 392.945,365.982 391.135,368.986 389.028,371.82 386.692,374.392 384.168,376.664 381.451,378.684 378.602,380.464 375.647,382.071 372.604,383.548 369.538,384.888 366.423,386.115 363.24,387.234 359.964,388.26 356.734,389.163 353.531,389.966 350.227,390.714 346.904,391.394 343.584,392.0 340.265,392.536 336.915,393.011 333.58,393.397 330.21,393.699 326.85,393.913 323.486,394.023 320.165,394.021 316.834,393.89 313.441,393.625 310.077,393.202 306.776,392.632 303.473,391.895 300.219,390.993 297.078,389.949 293.952,388.716 290.862,387.299 287.903,385.743 285.016,384.027 282.32,382.23 279.872,380.407 277.658,378.573 275.793,376.87 273.995,375.068 272.101,372.99 270.092,370.58 268.007,367.84 266.002,364.936 264.22,362.087 262.597,359.192 261.128,356.256 259.784,353.234 258.566,350.133 257.497,347.031 256.554,343.876 255.713,340.654 254.991,337.457 254.348,334.267 253.751,331.054 253.159,327.836 252.529,324.604 251.876,321.447 251.177,318.319 250.364,315.17 249.522,312.064 248.583,309.008 247.604,305.929 246.526,302.838 245.403,299.811 244.178,296.809 242.919,293.828 241.569,290.845 240.207,287.871 238.781,284.903 237.345,281.924 235.926,278.995 234.52,276.051 233.128,273.102 231.768,270.148 230.422,267.143 229.112,264.12 227.868,261.122 226.683,258.072 225.545,254.898 224.545,251.784 223.654,248.573 222.89,245.332 222.28,242.085 221.808,238.78 221.495,235.501 221.333,232.283 221.322,229.022 221.474,225.771 221.795,222.529 222.28,219.315 222.914,216.155 223.688,213.032 224.585,210.007 225.614,207.048 226.818,204.042 228.125,201.184 229.557,198.414 231.18,195.611 232.88,192.973 234.692,190.437 236.676,187.929 238.759,185.55 240.96,183.272 243.247,181.122 245.619,179.082 248.13,177.114 250.713,175.283 253.386,173.566 256.14,171.972 258.967,170.511 261.891,169.156 264.881,167.952 267.962,166.86 271.049,165.926 274.202,165.125 277.436,164.448 280.669,163.913 283.978,163.501 287.301,163.236 290.561,163.129 293.922,163.146 297.278,163.296 300.492,163.588 303.765,163.958 307.009,164.396 310.267,164.875 313.515,165.325 316.706,165.776 319.97,166.224 323.212,166.668 326.437,167.106 329.607,167.555 332.875,168.002 336.143,168.475 339.368,168.965 342.598,169.488 345.821,170.073 349.031,170.703 352.263,171.4 355.433,172.163 358.618,172.991 361.826,173.903 364.977,174.89 368.081,175.925 371.108,177.019 374.115,178.176 377.15,179.42 380.144,180.732 383.048,182.086 385.897,183.491 388.734,184.975 391.547,186.522 394.304,188.112 397.011,189.747 399.676,191.428 402.355,193.19 404.999,195.013 407.586,196.865 410.153,198.772 412.719,200.757 415.277,202.804 417.755,204.873 420.218,206.974 422.689,209.108 425.151,211.237 427.613,213.35 430.12,215.483 432.673,217.614 435.221,219.67 437.8,221.677 440.436,223.648 443.103,225.545 445.781,227.364 448.5,229.124 451.263,230.818 454.072,232.459 456.902,234.026 459.779,235.53 462.691,236.968 465.638,238.334 468.619,239.629 471.581,240.825 474.556,241.934 477.541,242.977 480.52,243.943 483.539,244.852 486.621,245.689 489.78,246.455 492.996,247.15 496.228,247.771 499.419,248.322 502.617,248.798 505.888,249.222 509.15,249.574 512.399,249.865 515.674,250.094 518.976,250.262 522.264,250.375 525.515,250.427 528.776,250.425 532.002,250.392 535.218,250.327 538.437,250.261 541.662,250.183 544.953,250.12 548.204,250.077 551.46,250.065 554.758,250.091 558.036,250.173 561.333,250.313 564.547,250.516 567.755,250.781 570.977,251.121 574.154,251.512 577.382,251.979 580.642,252.511 583.833,253.101 586.99,253.744 590.153,254.469 593.303,255.247 596.414,256.094 599.49,256.991 602.57,257.957 605.652,258.99 608.746,260.105 611.79,261.252 614.745,262.451 617.69,263.721 620.663,265.054 623.649,266.467 626.584,267.916 629.481,269.405 632.332,270.92 635.249,272.493 638.135,274.074 640.946,275.65 643.808,277.232 646.664,278.835 649.549,280.444 652.464,282.061 655.335,283.656 658.169,285.216 661.051,286.786 663.954,288.331 666.857,289.819 669.853,291.273 672.91,292.63 675.994,293.826 679.158,294.859 682.356,295.666 685.572,296.209 688.781,296.448 691.872,296.362 694.818,295.93 697.641,295.154 700.3,294.023 702.781,292.544 705.035,290.724 707.029,288.565 708.658,286.151 709.875,283.54 710.667,280.834 711.044,278.139 711.043,275.463 710.658,272.744 709.9,270.113 708.792,267.589 707.34,265.133 705.538,262.705 703.402,260.308 701.062,258.071 698.566,255.959 695.97,253.953 693.296,252.038 690.582,250.202 687.887,248.442 685.158,246.657 682.447,244.859 679.769,243.027 677.096,241.058 674.586,239.038 672.166,236.876 669.901,234.617 667.9,232.367 666.051,230.012 664.329,227.505 662.797,224.942 661.456,222.31 660.312,219.637 659.36,216.916 658.565,214.054 657.92,210.964 657.425,207.666 657.107,204.285 656.981,200.933 657.031,197.632 657.222,194.357 657.517,191.134 657.896,187.944 658.33,184.718 658.79,181.482 659.242,178.339 659.674,175.194 660.07,172.004 660.407,168.81 660.677,165.642 660.887,162.461 661.016,159.273 661.079,156.094 661.047,152.899 660.945,149.695 660.755,146.475 660.482,143.253 660.149,140.056 659.729,136.843 659.235,133.567 658.685,130.35 658.097,127.203 657.459,124.006 656.791,120.77 656.083,117.602 655.371,114.471 654.646,111.249 653.922,108.089 653.208,104.969 652.483,101.744 651.758,98.528 651.058,95.333 650.382,92.135 649.743,88.907 649.158,85.645 648.644,82.332 648.233,79.05 647.951,75.725 647.827,72.349 647.905,68.971 648.209,65.65 648.744,62.439 649.518,59.332 650.497,56.459 651.723,53.707 653.209,51.104 654.908,48.759 656.9,46.59 659.078,44.716 661.484,43.102 664.042,41.803 666.77,40.833 669.522,40.237 672.279,40.0 675.112,40.119 677.901,40.587 680.591,41.383 683.244,42.529 685.696,43.936 688.0,45.613 690.161,47.531 692.182,49.682 694.038,52.014 695.799,54.596 697.473,57.455 698.976,60.427 700.312,63.489 701.489,66.568 702.518,69.639 703.47,72.849 704.314,76.047 705.084,79.241 705.77,82.34 706.411,85.621 706.933,88.901 707.311,91.944 707.66,95.203 707.985,98.539 708.306,101.812 708.628,104.976 708.961,108.242 709.319,111.54 709.734,114.815 710.253,118.138 710.807,121.337 711.39,124.569 711.967,127.756 712.531,130.889 713.116,134.141 713.692,137.338 714.249,140.397 714.867,143.779 715.453,146.997 716.028,150.1 716.64,153.361 717.248,156.516 717.874,159.69 718.536,163.008 719.179,166.201 719.835,169.442 720.462,172.476 721.152,175.847 721.814,179.066 722.448,182.149 723.123,185.42 723.745,188.433 724.467,191.926 725.157,195.253 725.773,198.225 726.392,201.21 727.091,204.586 727.793,207.978 728.42,211.008 729.049,214.05 729.761,217.488 730.477,220.941 731.116,224.023 731.758,227.118 732.403,230.223 733.049,233.34 733.697,236.469 734.346,239.608 734.753,241.576 735.784,246.798" fill="none" stroke="white" stroke-width="4"
            stroke-linejoin="round" stroke-linecap="round"/>
</svg>
