<?xml version="1.0" encoding="utf-8"?>
<svg xmlns="http://www.w3.org/2000/svg" width="1000" height="600">
  <polyline points="736.159,244.616 735.497,241.471 734.88,238.346 734.221,235.086 733.541,231.885 732.905,228.667 732.247,225.493 731.581,222.312 730.937,219.043 730.278,215.877 729.647,212.696 729.004,209.495 728.329,206.313 727.714,203.081 727.047,199.89 726.402,196.641 725.774,193.458 725.143,190.308 724.496,187.055 723.857,183.858 723.242,180.622 722.589,177.481 721.979,174.283 721.351,171.005 720.729,167.83 720.086,164.591 719.466,161.404 718.863,158.291 718.207,154.968 717.579,151.794 716.975,148.532 716.357,145.44 715.737,142.229 715.097,138.865 714.485,135.709 713.901,132.566 713.254,129.316 712.653,126.129 712.054,122.875 711.42,119.612 710.812,116.407 710.214,113.246 709.589,109.958 708.974,106.747 708.376,103.536 707.743,100.269 707.136,97.004 706.517,93.777 705.91,90.565 705.285,87.39 704.659,84.129 704.03,80.883 703.37,77.68 702.701,74.46 701.967,71.258 701.13,68.091 700.132,64.897 698.951,61.763 697.539,58.651 695.927,55.675 694.14,52.894 692.247,50.399 690.198,48.11 688.018,46.084 685.665,44.295 683.195,42.806 680.561,41.6 677.783,40.704 674.951,40.168 672.088,40.0 669.283,40.2 666.497,40.763 663.828,41.669 661.308,42.89 658.903,44.437 656.7,46.229 654.7,48.245 652.9,50.473 651.289,52.922 649.916,55.516 648.758,58.273 647.791,61.246 647.033,64.412 646.502,67.743 646.204,71.1 646.109,74.458 646.196,77.781 646.448,81.099 646.842,84.348 647.357,87.588 647.963,90.802 648.642,93.934 649.393,97.071 650.215,100.248 651.086,103.409 651.971,106.528 652.881,109.624 653.755,112.716 654.647,115.845 655.487,119.012 656.296,122.152 657.049,125.357 657.695,128.55 658.285,131.731 658.802,134.924 659.242,138.127 659.602,141.353 659.882,144.584 660.086,147.831 660.203,151.048 660.247,154.221 660.219,157.386 660.109,160.607 659.916,163.835 659.664,166.951 659.324,170.173 658.934,173.363 658.512,176.49 658.05,179.7 657.598,182.859 657.142,186.09 656.73,189.257 656.358,192.517 656.082,195.867 655.957,199.191 655.997,202.531 656.232,205.924 656.669,209.273 657.284,212.412 658.049,215.335 658.932,218.063 659.953,220.757 661.155,223.519 662.492,226.219 663.935,228.789 665.577,231.375 667.429,233.952 669.437,236.441 671.632,238.883 673.997,241.258 676.489,243.509 679.043,245.596 681.66,247.557 684.368,249.462 687.098,251.327 689.815,253.156 692.533,255.0 695.214,256.851 697.907,258.793 700.45,260.777 702.74,262.759 704.793,264.808 706.549,266.898 708.046,269.103 709.277,271.497 710.206,274.082 710.756,276.838 710.847,279.731 710.425,282.69 709.454,285.619 707.97,288.352 706.033,290.777 703.686,292.844 701.072,294.471 698.247,295.678 695.278,296.498 692.227,296.944 689.105,297.048 685.906,296.84 682.655,296.343 679.437,295.616 676.222,294.682 673.053,293.579 670.003,292.34 667.016,290.966 664.14,289.527 661.283,287.993 658.461,286.41 655.634,284.782 652.808,283.138 650.032,281.504 647.241,279.858 644.446,278.187 641.655,276.547 638.83,274.907 635.99,273.258 633.176,271.699 630.332,270.156 627.48,268.662 624.582,267.244 621.646,265.837 618.685,264.516 615.709,263.243 612.737,262.062 609.721,260.939 606.65,259.863 603.64,258.876 600.592,257.94 597.496,257.068 594.327,256.23 591.171,255.453 588.083,254.74 584.909,254.111 581.75,253.534 578.615,253.03 575.384,252.59 572.187,252.198 568.958,251.89 565.744,251.614 562.524,251.415 559.297,251.242 556.038,251.139 552.782,251.06 549.606,251.042 546.347,251.035 543.064,251.043 539.908,251.052 536.632,251.072 533.315,251.079 530.124,251.081 526.869,251.066 523.547,251.004 520.316,250.925 517.063,250.784 513.776,250.583 510.447,250.31 507.203,249.995 504.029,249.613 500.798,249.164 497.536,248.627 494.328,248.027 491.175,247.36 488.037,246.622 484.882,245.798 481.808,244.911 478.804,243.964 475.804,242.932 472.827,241.824 469.885,240.648 466.94,239.38 464.031,238.047 461.178,236.656 458.338,235.186 455.516,233.635 452.73,232.014 449.951,230.299 447.203,228.497 444.536,226.661 441.922,224.777 439.335,222.818 436.764,220.798 434.209,218.721 431.734,216.623 429.288,214.512 426.846,212.369 424.375,210.212 421.87,208.058 419.369,205.951 416.848,203.892 414.307,201.887 411.741,199.941 409.137,198.044 406.475,196.189 403.775,194.386 401.034,192.646 398.301,190.995 395.572,189.422 392.803,187.912 390.009,186.448 387.16,185.045 384.288,183.688 381.348,182.38 378.366,181.121 375.339,179.913 372.288,178.76 369.235,177.665 366.157,176.631 363.039,175.652 359.883,174.723 356.707,173.85 353.514,173.032 350.304,172.268 347.152,171.582 344.034,170.935 340.821,170.312 337.599,169.727 334.385,169.186 331.124,168.658 327.939,168.154 324.741,167.668 321.46,167.193 318.17,166.732 314.893,166.281 311.692,165.849 308.468,165.423 305.235,165.022 301.994,164.669 298.692,164.375 295.397,164.173 292.087,164.079 288.789,164.104 285.511,164.254 282.168,164.54 278.855,164.954 275.635,165.496 272.468,166.168 269.357,166.973 266.26,167.936 263.214,169.05 260.302,170.283 257.443,171.652 254.586,173.19 251.842,174.837 249.223,176.578 246.685,178.443 244.219,180.447 241.848,182.574 239.593,184.807 237.493,187.11 235.503,189.526 233.602,192.082 231.844,194.696 230.228,197.362 228.718,200.151 227.343,203.02 226.132,205.911 225.039,208.924 224.081,211.97 223.292,214.978 222.617,218.088 222.074,221.232 221.684,224.435 221.431,227.674 221.33,230.902 221.361,234.146 221.534,237.425 221.837,240.67 222.308,243.979 222.92,247.213 223.676,250.421 224.584,253.642 225.607,256.767 226.739,259.854 227.983,262.871 229.3,265.882 230.705,268.83 232.159,271.745 233.662,274.655 235.192,277.541 236.695,280.449 238.196,283.373 239.617,286.279 241.01,289.239 242.353,292.218 243.608,295.213 244.81,298.287 245.96,301.376 247.006,304.417 247.981,307.453 248.907,310.584 249.78,313.718 250.553,316.829 251.26,319.987 251.919,323.127 252.542,326.301 253.165,329.525 253.812,332.772 254.474,335.97 255.184,339.157 255.963,342.34 256.834,345.552 257.799,348.697 258.862,351.743 260.078,354.823 261.463,357.898 262.992,360.895 264.69,363.841 266.562,366.733 268.545,369.477 270.595,372.025 272.561,374.23 274.367,376.061 276.2,377.751 278.331,379.54 280.735,381.373 283.362,383.2 286.202,384.995 289.091,386.643 292.084,388.154 295.156,389.517 298.298,390.705 301.518,391.74 304.752,392.603 308.048,393.311 311.394,393.86 314.757,394.255 318.099,394.49 321.439,394.576 324.788,394.529 328.142,394.34 331.519,394.022 334.878,393.583 338.21,393.058 341.524,392.45 344.835,391.766 348.12,391.018 351.419,390.205 354.683,389.334 357.896,388.405 361.131,387.403 364.38,386.289 367.542,385.104 370.697,383.795 373.769,382.374 376.782,380.793 379.667,379.066 382.429,377.158 385.096,375.006 387.575,372.645 389.84,370.04 391.837,367.203 393.437,364.309 394.606,361.5 395.393,358.88 395.885,356.433 396.161,354.076 396.26,351.687 396.164,349.084 395.811,346.269 395.153,343.268 394.179,340.21 392.876,337.156 391.283,334.218 389.436,331.427 387.353,328.771 385.064,326.278 382.567,323.94 379.903,321.795 377.095,319.858 374.137,318.128 371.07,316.617 367.982,315.339 364.861,314.256 361.703,313.356 358.481,312.61 355.234,311.997 352.007,311.459 348.745,310.898 345.511,310.304 342.266,309.615 339.034,308.808 335.909,307.9 332.773,306.857 329.647,305.675 326.605,304.376 323.617,302.936 320.684,301.338 317.831,299.587 315.098,297.696 312.496,295.662 309.966,293.423 307.575,290.999 305.414,288.447 303.478,285.735 301.815,282.928 300.454,280.092 299.382,277.238 298.594,274.379 298.077,271.482 297.833,268.553 297.865,265.671 298.155,262.856 298.705,260.062 299.509,257.34 300.549,254.744 301.852,252.216 303.394,249.812 305.148,247.566 307.115,245.479 309.308,243.533 311.669,241.773 314.225,240.163 317.003,238.679 319.953,237.356 323.061,236.212 326.325,235.25 329.678,234.502 333.017,233.985 336.297,233.681 339.568,233.555 342.876,233.584 346.122,233.735 349.343,233.975 352.601,234.308 355.839,234.726 359.07,235.209 362.361,235.764 365.62,236.371 368.805,237.012 372.022,237.701 375.259,238.385 378.491,239.109 381.721,239.845 384.877,240.583 388.059,241.344 391.228,242.13 394.397,242.942 397.597,243.771 400.817,244.632 403.987,245.506 407.088,246.384 410.253,247.274 413.368,248.178 416.568,249.13 419.647,250.103 422.769,251.036 425.9,252.048 429.013,253.036 432.084,254.069 435.158,255.095 438.275,256.158 441.339,257.189 444.416,258.325 447.509,259.412 450.556,260.506 453.624,261.669 456.707,262.826 459.75,263.999 462.8,265.167 465.816,266.375 468.835,267.589 471.833,268.786 474.844,270.059 477.871,271.337 480.837,272.615 483.853,273.971 486.901,275.365 489.877,276.731 492.806,278.123 495.705,279.519 498.66,280.968 501.544,282.419 504.451,283.9 507.35,285.422 510.213,286.949 513.076,288.51 515.88,290.069 518.714,291.678 521.557,293.31 524.355,294.975 527.133,296.634 529.945,298.348 532.742,300.082 535.475,301.818 538.165,303.559 540.853,305.321 543.549,307.119 546.263,308.961 549.0,310.851 551.71,312.75 554.385,314.669 557.028,316.588 559.658,318.526 562.271,320.467 564.921,322.464 567.564,324.468 570.158,326.458 572.696,328.401 575.275,330.392 577.884,332.396 580.47,334.386 583.061,336.362 585.682,338.342 588.326,340.294 590.999,342.198 593.732,343.998 596.579,345.65 599.604,347.117 602.843,348.316 606.27,349.163 609.445,349.583 612.098,349.658 614.364,349.525 616.523,349.248 618.922,348.746 621.836,347.819 625.098,346.427 628.168,344.864 631.003,343.338 633.649,341.961 636.136,340.796 638.585,339.868 641.064,339.196 643.607,338.818 646.21,338.782 648.829,339.111 651.489,339.842 654.135,341.008 656.565,342.549 658.713,344.406 660.55,346.526 662.074,348.88 663.288,351.429 664.21,354.146 664.862,357.072 665.22,360.202 665.297,363.506 665.099,366.867 664.659,370.176 664.025,373.395 663.231,376.563 662.317,379.693 661.313,382.757 660.213,385.82 659.04,388.857 657.811,391.847 656.506,394.864 655.164,397.882 653.781,400.848 652.387,403.782 650.948,406.732 649.499,409.692 648.036,412.643 646.603,415.529 645.164,418.471 643.683,421.413 642.245,424.375 640.803,427.302 639.427,430.188 638.018,433.21 636.593,436.206 635.258,439.145 633.929,442.127 632.608,445.13 631.322,448.135 630.046,451.141 628.798,454.165 627.554,457.192 626.355,460.158 625.174,463.136 623.94,466.268 622.768,469.286 621.605,472.291 620.433,475.364 619.269,478.446 618.112,481.508 616.983,484.595 615.895,487.684 614.859,490.817 613.917,493.991 613.095,497.213 612.423,500.501 611.934,503.848 611.668,507.144 611.642,510.405 611.861,513.559 612.32,516.67 612.997,519.719 613.859,522.643 614.905,525.492 616.118,528.237 617.502,530.878 619.082,533.45 620.842,535.912 622.778,538.256 624.918,540.504 627.251,542.632 629.791,544.635 632.528,546.498 635.382,548.172 638.347,549.677 641.382,551.021 644.483,552.217 647.668,553.286 650.773,554.203 653.904,555.029 657.079,555.795 660.24,556.488 663.447,557.133 666.672,557.763 669.906,558.344 673.175,558.851 676.485,559.28 679.724,559.612 683.022,559.844 686.431,559.972 689.792,560.0 693.082,559.913 696.367,559.716 699.668,559.396 702.959,558.951 706.17,558.402 709.327,557.741 712.471,556.968 715.636,556.067 718.702,555.065 721.713,553.958 724.726,552.725 727.639,551.408 730.446,550.018 733.243,548.512 735.986,546.889 738.669,545.177 741.257,543.386 743.798,541.496 746.312,539.484 748.622,537.481 750.907,535.386 753.218,533.095 755.328,530.831 757.397,528.441 759.372,525.971 761.248,523.462 763.029,520.903 764.718,518.265 766.285,515.631 767.779,512.859 769.196,510.022 770.532,507.172 771.733,504.324 772.867,501.336 773.89,498.359 774.815,495.305 775.661,492.183 776.369,489.026 777.008,485.915 777.533,482.753 777.937,479.492 778.271,476.246 778.503,472.946 778.637,469.791 778.67,466.557 778.583,463.299 778.401,459.885 778.21,456.618 777.86,453.39 777.474,450.077 776.936,446.91 776.445,443.761 775.889,440.474 775.299,437.193 774.678,433.952 774.046,430.638 773.431,427.48 772.722,424.258 772.094,421.239 771.443,417.972 770.782,414.699 770.127,411.435 769.476,408.273 768.899,405.264 768.262,401.991 767.662,398.937 767.003,395.683 766.33,392.428 765.659,389.117 764.965,385.749 764.294,382.651 763.6,379.496 762.994,376.396 762.328,373.206 761.631,369.916 760.946,366.819 760.263,363.664 759.625,360.588 758.918,357.136 758.249,353.867 757.641,350.977 756.978,347.729 756.361,344.541 755.704,341.369 755.017,337.981 754.412,334.983 753.762,331.894 753.092,328.582 752.447,325.183 751.766,321.88 751.117,318.907 750.37,315.396 749.772,312.488 749.174,309.578 748.405,305.834 747.778,302.781 747.123,299.586 746.439,296.251 745.755,292.913 745.157,289.991 744.558,287.067 743.875,283.723 743.192,280.377 742.51,277.029 741.913,274.098 741.359,271.375 740.549,267.393 739.824,263.828 739.241,260.96 738.586,257.741 737.988,254.8 737.39,251.858 736.962,249.756 736.159,244.616" fill="none" stroke="white" stroke-width="4"
            stroke-linejoin="round" stroke-linecap="round"/>
</svg>
